<?xml version="1.0" encoding="UTF-8" standalone="no"?>
<!-- Created with Inkscape (http://www.inkscape.org/) -->

<svg
   xmlns:dc="http://purl.org/dc/elements/1.1/"
   xmlns:cc="http://creativecommons.org/ns#"
   xmlns:rdf="http://www.w3.org/1999/02/22-rdf-syntax-ns#"
   xmlns:svg="http://www.w3.org/2000/svg"
   xmlns="http://www.w3.org/2000/svg"
   xmlns:sodipodi="http://sodipodi.sourceforge.net/DTD/sodipodi-0.dtd"
   xmlns:inkscape="http://www.inkscape.org/namespaces/inkscape"
   width="84.666664mm"
   height="22.625414mm"
   viewBox="0 0 299.99999 80.168789"
   id="svg4573"
   version="1.1"
   inkscape:version="0.91 r13725"
   sodipodi:docname="Allier (03) logo 2022.svg">
  <defs
     id="defs4575" />
  <sodipodi:namedview
     id="base"
     pagecolor="#ffffff"
     bordercolor="#666666"
     borderopacity="1.0"
     inkscape:pageopacity="0.0"
     inkscape:pageshadow="2"
     inkscape:zoom="2.4830709"
     inkscape:cx="137.14456"
     inkscape:cy="60.677027"
     inkscape:document-units="px"
     inkscape:current-layer="layer1"
     showgrid="false"
     fit-margin-top="0"
     fit-margin-left="0"
     fit-margin-right="0"
     fit-margin-bottom="0"
     inkscape:window-width="1366"
     inkscape:window-height="705"
     inkscape:window-x="-8"
     inkscape:window-y="-8"
     inkscape:window-maximized="1" />
  <metadata
     id="metadata4578">
    <rdf:RDF>
      <cc:Work
         rdf:about="">
        <dc:format>image/svg+xml</dc:format>
        <dc:type
           rdf:resource="http://purl.org/dc/dcmitype/StillImage" />
        <dc:title></dc:title>
      </cc:Work>
    </rdf:RDF>
  </metadata>
  <g
     inkscape:label="Calque 1"
     inkscape:groupmode="layer"
     id="layer1"
     transform="translate(-370.29108,-682.64409)">
    <path
       d="m 385.25607,724.55436 c -4.13016,0 -7.85318,1.76833 -10.45807,4.58591 l 1.09786,2.29093 c 2.18155,-2.76694 5.56224,-4.54743 9.36021,-4.54743 6.5406,0 11.84762,5.27056 11.91446,11.79496 l 2.31929,-0.36056 c -0.25522,-7.63238 -6.5406,-13.76381 -14.23375,-13.76381"
       style="fill:#00699c;fill-opacity:1;fill-rule:nonzero;stroke:none"
       id="path186"
       inkscape:connector-curvature="0" />
    <path
       d="m 439.66194,726.88458 c 3.84253,0 7.25968,1.821 9.43718,4.64466 l 1.10394,-2.30309 c -2.60895,-2.86822 -6.36842,-4.67098 -10.54112,-4.67098 -7.69518,0 -13.98258,6.13345 -14.23578,13.76989 l 2.32132,0.36055 c 0.0627,-6.52844 5.37184,-11.80103 11.91446,-11.80103"
       style="fill:#00699c;fill-opacity:1;fill-rule:nonzero;stroke:none"
       id="path190"
       inkscape:connector-curvature="0" />
    <path
       d="m 385.25607,714.55548 c -5.4954,0 -10.7133,1.81694 -14.96499,5.16523 l 2.23016,4.66288 c 3.39285,-2.99988 7.85115,-4.82088 12.73483,-4.82088 10.20285,0 18.54824,7.9423 19.19642,17.98108 l 4.9647,-0.77377 c -0.47196,-5.71012 -2.91886,-11.01714 -7.01661,-15.11286 -4.57984,-4.57984 -10.66873,-7.10168 -17.14451,-7.10168"
       style="fill:#00699c;fill-opacity:1;fill-rule:nonzero;stroke:none"
       id="path194"
       inkscape:connector-curvature="0" />
    <path
       d="m 439.66194,719.56373 c 4.92621,0 9.41895,1.85138 12.8199,4.89583 l 2.23421,-4.66694 c -4.2679,-3.39285 -9.52022,-5.23612 -15.05411,-5.23612 -6.47578,0 -12.56468,2.52184 -17.14451,7.09966 -4.09775,4.09977 -6.54668,9.40679 -7.01661,15.11893 l 4.96469,0.77579 c 0.64414,-10.0408 8.99156,-17.98715 19.19643,-17.98715"
       style="fill:#00699c;fill-opacity:1;fill-rule:nonzero;stroke:none"
       id="path198"
       inkscape:connector-curvature="0" />
    <path
       d="m 412.39013,746.55094 c -1.51919,0 -2.75074,-1.23155 -2.75074,-2.75074 0,-1.51918 1.23155,-2.75073 2.75074,-2.75073 1.51918,0 2.75073,1.23155 2.75073,2.75073 0,1.51919 -1.23155,2.75074 -2.75073,2.75074 m 0,-6.19017 -22.04034,3.43943 22.04034,3.43741 22.04034,-3.43741 -22.04034,-3.43943 z"
       style="fill:#d8aa00;fill-opacity:1;fill-rule:nonzero;stroke:none"
       id="path210"
       inkscape:connector-curvature="0" />
    <path
       d="m 413.362,749.75744 -0.96823,2.87835 -0.95,-2.87835 -5.07813,0 3.76151,11.40604 c 0.72313,2.19168 3.82227,2.20181 4.55755,0.0146 l 3.84253,-11.42022 -5.16523,0 z"
       style="fill:#00699c;fill-opacity:1;fill-rule:nonzero;stroke:none"
       id="path214"
       inkscape:connector-curvature="0" />
    <path
       d="m 412.39013,682.64409 -10.23729,10.25552 c -2.9938,2.99988 -3.7453,7.57364 -1.86758,11.37363 l 12.10081,24.50952 12.15956,-24.74854 c 1.821,-3.70681 1.08166,-8.16106 -1.83922,-11.08195 l -10.31628,-10.30818 z m 0.003,5.49338 7.28398,7.28196 c 1.91418,1.91215 2.39829,4.83101 1.20522,7.25968 l -8.50541,17.31263 -8.43451,-17.07969 c -1.24574,-2.52387 -0.74744,-5.56022 1.24168,-7.55136 l 7.20904,-7.22322 z"
       style="fill:#d8aa00;fill-opacity:1;fill-rule:nonzero;stroke:none"
       id="path226"
       inkscape:connector-curvature="0" />
    <path
       d="m 448.79428,700.51213 c 0.25522,0.0264 0.58741,0.0405 1.00063,0.0405 l 0.46184,0 0.48613,0 2.26663,0 c 1.2194,0 2.07217,-0.0183 2.55426,-0.0527 l -3.38475,-8.50946 -3.38474,8.52162 z m 6.42716,-12.32971 4.85937,11.85572 c 0.55501,1.35106 1.24776,2.85404 2.0823,4.50489 0.29776,0.58742 0.62388,1.19307 0.9743,1.81695 l -5.76885,0 c 0.008,0 -0.013,-0.0992 -0.0648,-0.30181 -0.13174,-0.51045 -0.33017,-1.19105 -0.5935,-2.04179 l -0.48613,-1.4888 c -0.25523,-0.0446 -0.63401,-0.0831 -1.13433,-0.11748 -0.45576,-0.0365 -1.16268,-0.0546 -2.12078,-0.0546 l -2.12078,0 c -0.97431,0 -1.89595,0.0486 -2.76492,0.14584 l -0.44766,1.14648 c -0.26332,0.61375 -0.52665,1.28219 -0.78997,2.00127 l -0.25117,0.71098 -2.81759,0 0.15589,-0.30181 c 0.24712,-0.45778 0.5854,-1.1242 1.01482,-2.0033 0.49221,-0.97431 0.96215,-1.95671 1.4098,-2.94925 l 0.6725,-1.4888 4.89987,-11.4344 3.29157,0 z"
       style="fill:#00699c;fill-opacity:1;fill-rule:nonzero;stroke:none"
       id="path230"
       inkscape:connector-curvature="0" />
    <path
       d="m 465.70664,694.44005 c 0,-1.03507 -0.0486,-2.44082 -0.14584,-4.21523 -0.0527,-0.90341 -0.0951,-1.57995 -0.13174,-2.02761 0.91353,0.0183 1.58602,0.0264 2.01545,0.0264 0.67654,0 1.68123,-0.008 3.01609,-0.0264 -0.0972,1.16674 -0.17015,2.51172 -0.22282,4.02888 -0.0264,0.73934 -0.0405,1.47665 -0.0405,2.21396 l 0,5.92685 c 0,1.61641 0.0345,2.9776 0.10533,4.08357 1.57185,-0.0264 3.43741,-0.10938 5.59871,-0.24915 0.71908,-0.0446 1.49285,-0.10743 2.31928,-0.18432 l 0,2.34359 -12.79153,0 c 0.0872,-0.9743 0.16609,-2.25244 0.23699,-3.83239 0.0264,-0.71098 0.0405,-1.43209 0.0405,-2.1613 l 0,-5.92685 z"
       style="fill:#00699c;fill-opacity:1;fill-rule:nonzero;stroke:none"
       id="path234"
       inkscape:connector-curvature="0" />
    <path
       d="m 480.94529,694.44005 c 0,-1.03507 -0.0486,-2.44082 -0.14584,-4.21523 -0.0527,-0.90341 -0.0953,-1.57995 -0.13174,-2.02761 0.91353,0.0183 1.58603,0.0264 2.01545,0.0264 0.67654,0 1.68123,-0.008 3.01609,-0.0264 -0.0953,1.16674 -0.17015,2.51172 -0.22282,4.02888 -0.0264,0.73934 -0.0405,1.47665 -0.0405,2.21396 l 0,5.92685 c 0,1.61641 0.0345,2.9776 0.10533,4.08357 1.57185,-0.0264 3.43741,-0.10938 5.59871,-0.24915 0.71908,-0.0446 1.49285,-0.10743 2.31929,-0.18432 l 0,2.34359 -12.79154,0 c 0.087,-0.9743 0.16609,-2.25244 0.23699,-3.83239 0.0264,-0.71098 0.0405,-1.43209 0.0405,-2.1613 l 0,-5.92685 z"
       style="fill:#00699c;fill-opacity:1;fill-rule:nonzero;stroke:none"
       id="path238"
       inkscape:connector-curvature="0" />
    <path
       d="m 496.18454,694.22959 c 0,-1.03507 -0.0486,-2.40639 -0.14584,-4.10991 -0.0527,-0.84264 -0.0951,-1.4888 -0.13174,-1.93645 l 5.03154,0 c -0.10533,1.0452 -0.18433,2.33549 -0.23699,3.87291 -0.0264,0.72111 -0.0386,1.44424 -0.0386,2.17345 l 0,6.15168 c 0,1.18497 0.0426,2.54211 0.13174,4.0694 0.0527,0.83453 0.0993,1.47057 0.1439,1.91012 l -5.03154,0 c 0.0872,-0.97431 0.1661,-2.25245 0.23699,-3.8324 0.0264,-0.71098 0.0405,-1.42803 0.0405,-2.14712 l 0,-6.15168 z"
       style="fill:#00699c;fill-opacity:1;fill-rule:nonzero;stroke:none"
       id="path242"
       inkscape:connector-curvature="0" />
    <path
       d="m 504.89089,694.15018 c 0,-1.19306 -0.0629,-2.55425 -0.18433,-4.08357 -0.0627,-0.8163 -0.11942,-1.44423 -0.17217,-1.88379 l 12.69836,0 0,2.38411 c -0.9581,-0.11343 -2.39828,-0.21471 -4.32056,-0.30181 -1.20319,-0.0446 -2.38006,-0.0791 -3.53059,-0.10533 l 0,5.64934 c 1.74808,-0.0345 3.34019,-0.0911 4.7824,-0.17014 l 1.97494,-0.11959 0,2.39626 c -1.0533,-0.077 -2.42867,-0.15184 -4.12206,-0.22282 l -2.63528,-0.0791 0.0146,6.81001 c 1.77238,-0.0263 3.71491,-0.10939 5.82152,-0.25118 0.68464,-0.0426 1.41385,-0.10338 2.18762,-0.18432 l 0,2.37195 -12.77736,0 c 0.0953,-1.09786 0.17015,-2.37601 0.22282,-3.83442 0.0264,-0.70896 0.0405,-1.43006 0.0405,-2.15927 l 0,-6.21651 z"
       style="fill:#00699c;fill-opacity:1;fill-rule:nonzero;stroke:none"
       id="path246"
       inkscape:connector-curvature="0" />
    <path
       d="m 526.55833,689.89606 -0.60565,0.0405 c -0.26332,0.0162 -0.41727,0.0264 -0.46183,0.0264 l 0,6.81 c 0.28156,0.0162 0.57932,0.0243 0.89531,0.0243 0.91353,0 1.79264,-0.11748 2.63528,-0.35447 1.02697,-0.28966 1.76833,-0.82036 2.22611,-1.59413 0.23497,-0.41322 0.35448,-0.92164 0.35448,-1.52729 0,-1.1161 -0.32005,-1.96684 -0.96013,-2.55628 -0.64211,-0.58742 -1.61236,-0.89126 -2.91076,-0.90949 -0.36055,0 -0.75149,0.0146 -1.17281,0.0405 m 12.22438,16.37277 c -0.23902,0.0872 -0.47601,0.15799 -0.71301,0.21066 -0.46588,0.0972 -0.92164,0.1439 -1.36929,0.1439 -0.26332,0.01 -0.58337,0 -0.96215,-0.0264 -1.11407,-0.18433 -2.14711,-0.85884 -3.09509,-2.0276 -0.8082,-0.97431 -1.61033,-2.40639 -2.41044,-4.29423 -0.20255,-0.39499 -0.3646,-0.69478 -0.48614,-0.90139 -0.12558,-0.20661 -0.26332,-0.38486 -0.42334,-0.53475 -0.18433,-0.1661 -0.39499,-0.29979 -0.63198,-0.40107 -0.237,-0.10128 -0.53071,-0.1742 -0.88113,-0.21673 l -1.09381,0 c -0.52665,0 -0.93582,0.003 -1.22548,0.0113 l 0,2.17345 c 0,1.28219 0.0567,2.63528 0.17015,4.05724 0.0446,0.53475 0.10533,1.16876 0.18635,1.89594 l -5.07205,0 c 0.087,-1.0533 0.1661,-2.42665 0.23699,-4.12206 0.0264,-0.75554 0.0405,-1.51513 0.0405,-2.27878 l 0,-5.78303 c 0,-1.19306 -0.0627,-2.55425 -0.18432,-4.08154 -0.0627,-0.80011 -0.11959,-1.43614 -0.17218,-1.91012 0.97431,0 2.03368,-0.01 3.17409,-0.0264 0.53677,-0.008 1.30447,-0.0303 2.30511,-0.0668 0.48411,-0.0162 1.26598,-0.0264 2.34562,-0.0264 1.2113,0 2.27878,0.0872 3.20042,0.26332 0.92163,0.17623 1.69743,0.46183 2.32941,0.85682 1.35309,0.84264 2.02963,2.22206 2.02963,4.13624 0,1.0614 -0.41321,1.98304 -1.23763,2.76491 -0.7292,0.69478 -1.78858,1.23358 -3.17408,1.62047 0.71908,0.0608 1.35106,0.26332 1.89594,0.60565 0.68667,0.43145 1.1951,1.08571 1.52932,1.96278 0.44562,1.10597 0.93379,2.10863 1.46044,3.00394 0.44968,0.76364 0.84467,1.33081 1.18496,1.69744 0.41322,0.45778 0.7839,0.75554 1.108,0.89733 l -0.0648,0.39499 z"
       style="fill:#00699c;fill-opacity:1;fill-rule:nonzero;stroke:none"
       id="path250"
       inkscape:connector-curvature="0" />
    <path
       d="m 473.90275,721.16353 c -0.48208,-0.46588 -1.14242,-0.79402 -1.97494,-0.98848 -0.62388,-0.13158 -1.37537,-0.19648 -2.25447,-0.19648 l -0.97228,0 0,2.50159 c 0,2.0114 0.0426,3.56907 0.12964,4.67707 0.21066,0 0.51855,0.008 0.92367,0.0264 l 0.4598,0.0146 0.48817,-0.0146 c 1.34296,-0.0365 2.35372,-0.3565 3.03634,-0.96215 0.67857,-0.60565 1.01887,-1.53134 1.01887,-2.7791 0,-0.9662 -0.28358,-1.72579 -0.8548,-2.27877 m -4.95254,-8.94294 c -0.10533,0 -0.18838,-0.005 -0.24915,-0.0146 l 0,6.15169 0.6968,0 c 0.0789,0 0.1499,-0.003 0.21066,-0.0146 l 0.25118,0 c 0.10322,0 0.18432,-0.003 0.23699,-0.0113 l 0.1439,0 c 0.40511,0 0.83454,-0.0932 1.29029,-0.2775 0.61578,-0.23699 1.1161,-0.58337 1.50298,-1.03912 0.46589,-0.55299 0.6968,-1.22953 0.6968,-2.02963 0,-0.92975 -0.27953,-1.63262 -0.84264,-2.10661 -0.55298,-0.47398 -1.36524,-0.71098 -2.43475,-0.71098 -0.17622,0 -0.31396,0.003 -0.40916,0.0113 -0.40512,0.0183 -0.69478,0.0264 -0.871,0.0264 -0.0426,0.01 -0.11749,0.0146 -0.22282,0.0146 m -4.7034,4.38539 c 0,-1.2032 -0.0608,-2.56844 -0.1823,-4.09573 -0.0627,-0.80002 -0.11959,-1.43605 -0.17217,-1.91004 l 1.75212,0 c 0.42133,0 1.03508,-0.008 1.84328,-0.0264 0.40512,-0.008 1.00064,-0.0146 1.79062,-0.0146 0.19445,0 0.47601,-0.008 0.84466,-0.0263 0.71908,-0.0345 1.32068,-0.0567 1.80479,-0.0648 0.11344,-0.008 0.28561,-0.0146 0.51248,-0.0146 0.24712,0 0.43145,0.006 0.55298,0.0146 0.713,0.0446 1.38145,0.18433 2.00938,0.42132 0.62793,0.237 1.17483,0.54894 1.64072,0.93582 0.47398,0.40309 0.84264,0.86695 1.10596,1.38955 0.2613,0.5226 0.39499,1.08166 0.39499,1.67921 0,1.09786 -0.4436,2.00532 -1.33081,2.72643 -0.41321,0.33422 -0.90746,0.60565 -1.48069,0.81631 -0.57527,0.21066 -1.2113,0.35447 -1.90405,0.4355 1.74808,0.13158 3.10319,0.51652 4.06939,1.15863 1.15053,0.76364 1.7258,1.89999 1.7258,3.41108 0,0.94797 -0.19649,1.77643 -0.5854,2.48336 -0.39093,0.70692 -0.95202,1.28827 -1.6792,1.74402 -0.65022,0.41322 -1.42601,0.72313 -2.32537,0.92974 -0.90138,0.20661 -1.88987,0.30992 -2.9695,0.30992 l -0.48817,-0.0146 c -1.51108,-0.0791 -3.02216,-0.11748 -4.53122,-0.11748 l -2.66161,0 c 0.0972,-1.09787 0.17217,-2.37601 0.22484,-3.83442 0.0263,-0.71098 0.0386,-1.42601 0.0386,-2.14712 l 0,-6.19017 z"
       style="fill:#d8aa00;fill-opacity:1;fill-rule:nonzero;stroke:none"
       id="path254"
       inkscape:connector-curvature="0" />
    <path
       d="m 489.35267,712.63503 c -0.69275,0.33017 -1.31258,0.80618 -1.85746,1.42804 -0.58742,0.66844 -1.04925,1.48272 -1.38145,2.44487 -0.33422,0.96215 -0.50234,2.03976 -0.50234,3.23283 0,1.0452 0.12964,2.0195 0.38891,2.92493 0.25927,0.90341 0.63401,1.69339 1.12622,2.36993 0.50032,0.69478 1.108,1.23358 1.82505,1.62047 0.71503,0.38688 1.51311,0.58337 2.39019,0.59147 0.71908,0 1.42803,-0.158 2.12078,-0.48007 0.69477,-0.32004 1.31257,-0.78795 1.85746,-1.4017 0.57931,-0.66844 1.03304,-1.4807 1.36321,-2.43677 0.32815,-0.9581 0.49424,-2.04584 0.49424,-3.26726 0,-1.03507 -0.12753,-2.00938 -0.38283,-2.91684 -0.25523,-0.90948 -0.62388,-1.70148 -1.10597,-2.37803 -0.50032,-0.69275 -1.10597,-1.23358 -1.81694,-1.62046 -0.71301,-0.38689 -1.51109,-0.58742 -2.39829,-0.60565 -0.71908,0 -1.42804,0.16407 -2.12078,0.49424 m 6.09902,-1.81087 c 1.27206,0.43955 2.36993,1.07153 3.29157,1.89595 0.93176,0.82643 1.64679,1.81897 2.14711,2.9776 0.50032,1.15863 0.75149,2.44082 0.75149,3.84455 0,2.15319 -0.49221,3.97419 -1.47462,5.46704 -0.90544,1.38752 -2.14712,2.44488 -3.72707,3.17409 -1.45842,0.68464 -3.10116,1.02899 -4.92824,1.02899 -1.50905,0 -2.8986,-0.21876 -4.16661,-0.65224 -1.27004,-0.4355 -2.36588,-1.0614 -3.28752,-1.87771 -0.92974,-0.82441 -1.64882,-1.81492 -2.15319,-2.9695 -0.5064,-1.15661 -0.75757,-2.4307 -0.75757,-3.82632 0,-1.05533 0.12964,-2.03976 0.38891,-2.95735 0.25725,-0.91759 0.62591,-1.74605 1.09989,-2.48336 0.44765,-0.70288 0.99051,-1.32676 1.62654,-1.86961 0.63603,-0.54488 1.34094,-0.99659 2.11268,-1.35714 1.48475,-0.70288 3.1275,-1.0533 4.92824,-1.0533 1.49083,0 2.8743,0.21876 4.14839,0.65831"
       style="fill:#d8aa00;fill-opacity:1;fill-rule:nonzero;stroke:none"
       id="path258"
       inkscape:connector-curvature="0" />
    <path
       d="m 509.05751,719.6097 c 0,2.60693 0.40714,4.52718 1.22548,5.7567 0.42132,0.63198 0.96417,1.10394 1.63262,1.41386 0.66641,0.31194 1.47057,0.46791 2.41044,0.46791 1.72984,0 3.05052,-0.56109 3.96406,-1.68529 1.00063,-1.25586 1.50298,-3.19636 1.50298,-5.82151 l 0,-3.12142 c 0,-1.01887 -0.0486,-2.38006 -0.14584,-4.08357 -0.0527,-0.84264 -0.0972,-1.4888 -0.13175,-1.93646 l 2.8581,0 c -0.11344,1.19509 -0.19649,2.48539 -0.24915,3.87291 -0.0284,0.71098 -0.0405,1.42601 -0.0405,2.14712 l 0,3.17408 c 0,3.33613 -0.74137,5.77291 -2.22612,7.31032 -0.70287,0.72921 -1.55969,1.26194 -2.57451,1.60021 -1.01481,0.33827 -2.17952,0.50842 -3.49615,0.50842 -2.45095,0 -4.38336,-0.40106 -5.79721,-1.19914 -1.23763,-0.69478 -2.11066,-1.7177 -2.6211,-3.07078 -0.42132,-1.07964 -0.63198,-2.46108 -0.63198,-4.14839 l 0,-4.13624 c 0,-1.20319 -0.0446,-2.57654 -0.13175,-4.12205 -0.0527,-0.84264 -0.0972,-1.4888 -0.13174,-1.93646 l 4.84721,0 c -0.0972,1.09787 -0.17217,2.39221 -0.22281,3.88507 -0.0284,0.7211 -0.0405,1.44626 -0.0405,2.17344 l 0,2.95127 z"
       style="fill:#d8aa00;fill-opacity:1;fill-rule:nonzero;stroke:none"
       id="path262"
       inkscape:connector-curvature="0" />
    <path
       d="m 531.97553,712.31235 -0.60565,0.0405 c -0.26333,0.0162 -0.41727,0.0264 -0.46183,0.0264 l 0,6.81 c 0.28155,0.0162 0.57931,0.0243 0.89733,0.0243 0.91151,0 1.79061,-0.11748 2.63325,-0.35448 1.02697,-0.28965 1.76833,-0.82036 2.22612,-1.59413 0.23699,-0.41322 0.35447,-0.92164 0.35447,-1.52728 0,-1.1161 -0.32004,-1.96684 -0.96012,-2.55629 -0.64211,-0.58742 -1.61237,-0.89125 -2.91076,-0.90948 -0.36056,0 -0.75149,0.0146 -1.17281,0.0405 m 12.22235,16.37276 c -0.23699,0.0872 -0.47399,0.158 -0.71098,0.21067 -0.46588,0.0972 -0.92164,0.14389 -1.36929,0.14389 -0.26333,0.01 -0.58337,0 -0.96215,-0.0264 -1.11407,-0.18433 -2.14712,-0.86087 -3.09509,-2.02761 -0.80821,-0.9743 -1.61034,-2.40639 -2.41044,-4.29423 -0.20256,-0.39499 -0.36461,-0.69477 -0.48614,-0.90138 -0.12559,-0.20661 -0.26333,-0.38486 -0.42335,-0.53475 -0.18432,-0.1661 -0.39498,-0.29979 -0.63198,-0.40107 -0.23699,-0.10128 -0.5307,-0.1742 -0.88112,-0.21674 l -1.09382,0 c -0.52665,0 -0.93582,0.003 -1.22547,0.0113 l 0,2.17345 c 0,1.28219 0.0567,2.63528 0.17014,4.05723 0.0446,0.53476 0.10728,1.16876 0.18636,1.89595 l -5.07206,0 c 0.0891,-1.05331 0.1661,-2.42665 0.237,-4.12206 0.0264,-0.75554 0.0405,-1.51513 0.0405,-2.27878 l 0,-5.78303 c 0,-1.19307 -0.0629,-2.55426 -0.18433,-4.08154 -0.0627,-0.80011 -0.11943,-1.43614 -0.17217,-1.91013 0.9743,0 2.03368,-0.01 3.17408,-0.0264 0.53678,-0.01 1.30448,-0.0324 2.30511,-0.0668 0.48412,-0.0162 1.26599,-0.0264 2.34562,-0.0264 1.2113,0 2.27878,0.0872 3.20042,0.26333 0.92164,0.17622 1.69946,0.46183 2.33144,0.85682 1.35107,0.84264 2.02761,2.22206 2.02761,4.13623 0,1.06141 -0.41322,1.98305 -1.23763,2.76492 -0.72921,0.69478 -1.78656,1.23358 -3.17408,1.62047 0.71908,0.0608 1.35106,0.26332 1.89594,0.60564 0.68465,0.43145 1.19509,1.08572 1.52931,1.96279 0.44563,1.10597 0.93379,2.10863 1.46045,3.00394 0.44765,0.76364 0.84466,1.32878 1.18496,1.69743 0.41322,0.45778 0.7839,0.75554 1.10799,0.89734 l -0.0669,0.39498 z"
       style="fill:#d8aa00;fill-opacity:1;fill-rule:nonzero;stroke:none"
       id="path266"
       inkscape:connector-curvature="0" />
    <path
       d="m 556.54076,721.16353 c -0.48209,-0.46588 -1.1404,-0.79402 -1.97494,-0.98848 -0.62388,-0.13158 -1.37537,-0.19648 -2.25447,-0.19648 l -0.97431,0 0,2.50159 c 0,2.0114 0.0446,3.56907 0.13159,4.67707 0.21066,0 0.51854,0.008 0.92366,0.0264 l 0.45981,0.0146 0.48816,-0.0146 c 1.34296,-0.0365 2.35575,-0.3565 3.03635,-0.96215 0.67857,-0.60565 1.01886,-1.53134 1.01886,-2.7791 0,-0.9662 -0.28358,-1.72579 -0.85479,-2.27877 m -4.95254,-8.94294 c -0.10533,0 -0.19041,-0.005 -0.25118,-0.0146 l 0,6.15169 0.69883,0 c 0.0789,0 0.14989,-0.003 0.21066,-0.0146 l 0.25117,0 c 0.10322,0 0.18433,-0.003 0.23699,-0.0113 l 0.14585,0 c 0.40309,0 0.83251,-0.0932 1.29029,-0.2775 0.61375,-0.23699 1.11407,-0.58337 1.50096,-1.03912 0.46588,-0.55299 0.69679,-1.22953 0.69679,-2.02963 0,-0.92975 -0.27953,-1.63262 -0.84264,-2.10661 -0.55298,-0.47398 -1.36321,-0.71098 -2.43677,-0.71098 -0.1742,0 -0.31194,0.003 -0.40714,0.0113 -0.40512,0.0183 -0.69478,0.0264 -0.86898,0.0264 -0.0446,0.01 -0.11959,0.0146 -0.22483,0.0146 m -4.7034,4.38539 c 0,-1.2032 -0.0608,-2.56844 -0.18433,-4.09573 -0.0608,-0.8001 -0.11748,-1.43613 -0.17015,-1.91012 l 1.75213,0 c 0.42132,0 1.03507,-0.008 1.84328,-0.0263 0.40511,-0.008 1.00063,-0.0146 1.79263,-0.0146 0.19243,0 0.47399,-0.008 0.84265,-0.0263 0.71908,-0.0345 1.32067,-0.0567 1.80479,-0.0648 0.11343,-0.008 0.28358,-0.0146 0.51247,-0.0146 0.24712,0 0.43145,0.006 0.55298,0.0146 0.71301,0.0446 1.38145,0.18433 2.00938,0.42132 0.62793,0.237 1.17484,0.54894 1.64072,0.93582 0.47399,0.40309 0.84264,0.86695 1.10597,1.38955 0.2613,0.5226 0.39498,1.08166 0.39498,1.67921 0,1.09786 -0.4436,2.00532 -1.3308,2.72643 -0.41322,0.33422 -0.90746,0.60565 -1.4807,0.81631 -0.57729,0.21066 -1.2113,0.35447 -1.90405,0.4355 1.74808,0.13174 3.10319,0.51652 4.06939,1.15863 1.15053,0.76364 1.7258,1.89999 1.7258,3.41108 0,0.94797 -0.19648,1.77643 -0.58539,2.48336 -0.39094,0.70693 -0.95203,1.28827 -1.67921,1.74402 -0.65021,0.41322 -1.42601,0.72313 -2.32537,0.92974 -0.90138,0.20661 -1.89189,0.30992 -2.9695,0.30992 l -0.48816,-0.0146 c -1.51108,-0.0791 -3.02014,-0.11748 -4.53123,-0.11748 l -2.65958,0 c 0.0953,-1.09786 0.17015,-2.37601 0.22281,-3.83442 0.0262,-0.71098 0.0384,-1.42601 0.0384,-2.14712 l 0,-6.19017 z"
       style="fill:#d8aa00;fill-opacity:1;fill-rule:nonzero;stroke:none"
       id="path270"
       inkscape:connector-curvature="0" />
    <path
       d="m 571.99027,712.63503 c -0.69275,0.33017 -1.31258,0.80618 -1.85544,1.42804 -0.58944,0.66844 -1.04925,1.48272 -1.38347,2.44487 -0.33422,0.96215 -0.50031,2.03976 -0.50031,3.23283 0,1.0452 0.12963,2.0195 0.38688,2.92493 0.25928,0.90341 0.63603,1.69339 1.12825,2.36993 0.50032,0.69478 1.10799,1.23358 1.82302,1.62047 0.71503,0.38688 1.51311,0.58337 2.39019,0.59147 0.71908,0 1.42803,-0.158 2.12078,-0.48007 0.69477,-0.32004 1.31257,-0.78795 1.85746,-1.4017 0.57931,-0.66844 1.03507,-1.4807 1.36321,-2.43677 0.33017,-0.9581 0.49424,-2.04584 0.49424,-3.26726 0,-1.03507 -0.12769,-2.00938 -0.38081,-2.91684 -0.25522,-0.90948 -0.62387,-1.70148 -1.10799,-2.37803 -0.50032,-0.69275 -1.10597,-1.23358 -1.81694,-1.62046 -0.71301,-0.38689 -1.51109,-0.58742 -2.39829,-0.60565 -0.71908,0 -1.42601,0.16407 -2.12078,0.49424 m 6.09902,-1.81087 c 1.27409,0.43955 2.37195,1.07153 3.29359,1.89595 0.92974,0.82643 1.6468,1.81897 2.14712,2.9776 0.49829,1.15863 0.74946,2.44082 0.74946,3.84455 0,2.15319 -0.49019,3.97419 -1.47462,5.46704 -0.90341,1.38752 -2.14712,2.44488 -3.72707,3.17409 -1.45842,0.68464 -3.09914,1.02899 -4.92823,1.02899 -1.50906,0 -2.89861,-0.21876 -4.16662,-0.65224 -1.27004,-0.4355 -2.36386,-1.0614 -3.28549,-1.87771 -0.93177,-0.82441 -1.65085,-1.81492 -2.15522,-2.9695 -0.50437,-1.15661 -0.75757,-2.4307 -0.75757,-3.82632 0,-1.05533 0.12964,-2.03976 0.38891,-2.95735 0.25928,-0.91759 0.62591,-1.74605 1.09989,-2.48336 0.44766,-0.70288 0.99051,-1.32676 1.62654,-1.86961 0.63604,-0.54488 1.34094,-0.99659 2.11471,-1.35714 1.48272,-0.70288 3.12547,-1.0533 4.92621,-1.0533 1.49083,0 2.87632,0.21876 4.14839,0.65831"
       style="fill:#d8aa00;fill-opacity:1;fill-rule:nonzero;stroke:none"
       id="path274"
       inkscape:connector-curvature="0" />
    <path
       d="m 601.81086,728.77708 c -2.31726,-2.2565 -4.05319,-3.9195 -5.20169,-4.99103 -1.16876,-1.1161 -2.52995,-2.36791 -4.08357,-3.75543 -1.45842,-1.27207 -2.44285,-2.06812 -2.95127,-2.38411 l 0.11959,4.49274 c 0.0789,1.43006 0.19648,3.03432 0.35448,4.8067 0.0608,0.70288 0.10533,1.15458 0.13158,1.35714 l 0.0527,0.47399 -2.97557,0 0.0263,-0.90949 0.077,-3.37057 c 0.01,-0.44765 0.0146,-1.11204 0.0146,-1.98912 l 0,-5.92887 c 0,-1.37739 -0.0305,-2.85809 -0.0912,-4.43805 l -0.0932,-1.54146 1.88379,0 c 2.14307,2.12686 3.96001,3.91342 5.45287,5.36171 1.48475,1.44829 2.86822,2.77099 4.14838,3.96406 1.39766,1.31663 2.29701,2.13091 2.7001,2.43677 l -0.14389,-5.11054 c -0.0789,-1.79061 -0.19243,-3.40297 -0.34233,-4.83303 -0.0527,-0.57932 -0.12769,-1.18699 -0.22484,-1.81897 l 3.00394,0 c 0,0.33422 -0.0224,1.13837 -0.0669,2.41044 -0.0505,1.16066 -0.0789,2.44285 -0.0789,3.84657 l 0,5.94103 c 0,1.61642 0.0365,3.09914 0.10727,4.45223 l 0.0386,0.51247 c 0.008,0.30789 0.0303,0.64616 0.0668,1.01482 l -1.9243,0 z"
       style="fill:#d8aa00;fill-opacity:1;fill-rule:nonzero;stroke:none"
       id="path278"
       inkscape:connector-curvature="0" />
    <path
       d="m 622.17523,728.77708 c -2.31929,-2.2565 -4.05318,-3.9195 -5.20371,-4.99103 -1.16876,-1.1161 -2.52793,-2.36791 -4.08155,-3.75543 -1.45841,-1.27207 -2.44285,-2.06812 -2.95127,-2.38411 l 0.11749,4.49274 c 0.081,1.43006 0.1985,3.03432 0.3565,4.8067 0.0608,0.70288 0.10533,1.15458 0.13174,1.35714 l 0.0527,0.47399 -2.9776,0 0.0264,-0.90949 0.081,-3.37057 c 0.008,-0.44765 0.013,-1.11204 0.013,-1.98912 l 0,-5.92887 c 0,-1.37739 -0.0305,-2.85809 -0.0932,-4.43805 l -0.0912,-1.54146 1.88176,0 c 2.14306,2.12686 3.96204,3.91342 5.45489,5.36171 1.48272,1.44829 2.86822,2.77099 4.14839,3.96406 1.39562,1.31663 2.29701,2.13091 2.7001,2.43677 l -0.1439,-5.11054 c -0.0789,-1.79061 -0.19446,-3.40297 -0.34435,-4.83303 -0.0506,-0.57932 -0.12559,-1.18699 -0.22281,-1.81897 l 3.00393,0 c 0,0.33422 -0.0222,1.13837 -0.0668,2.41044 -0.0527,1.16066 -0.0791,2.44285 -0.0791,3.84657 l 0,5.94103 c 0,1.61642 0.0345,3.09914 0.10533,4.45223 l 0.0405,0.51247 c 0.008,0.30789 0.0305,0.64616 0.0648,1.01482 l -1.92228,0 z"
       style="fill:#d8aa00;fill-opacity:1;fill-rule:nonzero;stroke:none"
       id="path282"
       inkscape:connector-curvature="0" />
    <path
       d="m 631.21013,722.92841 c 0.25523,0.0264 0.58742,0.0405 1.00267,0.0405 l 0.4598,0 0.48817,0 2.2646,0 c 1.21939,0 2.07216,-0.0181 2.55425,-0.0527 l -3.38474,-8.50946 -3.38475,8.52161 z m 6.42717,-12.32768 4.86139,11.8537 c 0.55299,1.35106 1.24573,2.85404 2.08027,4.50489 0.29979,0.58944 0.62388,1.19307 0.97431,1.81694 l -5.76886,0 c 0.01,0 -0.0113,-0.0992 -0.0648,-0.30181 -0.13175,-0.51044 -0.33017,-1.19104 -0.5935,-2.04178 l -0.48614,-1.4888 c -0.25522,-0.0446 -0.63401,-0.083 -1.1323,-0.11749 -0.45778,-0.0365 -1.16471,-0.0546 -2.12078,-0.0546 l -2.12078,0 c -0.97633,0 -1.89797,0.0486 -2.76695,0.14585 l -0.44765,1.14647 c -0.26332,0.61375 -0.52665,1.2822 -0.78998,2.00128 l -0.25117,0.71098 -2.81758,0 0.158,-0.30182 c 0.24509,-0.45778 0.58336,-1.12419 1.01279,-2.00329 0.49221,-0.97431 0.96215,-1.95672 1.41183,-2.94925 l 0.67046,-1.4888 4.89988,-11.43238 3.29157,0 z"
       style="fill:#d8aa00;fill-opacity:1;fill-rule:nonzero;stroke:none"
       id="path286"
       inkscape:connector-curvature="0" />
    <path
       d="m 648.12271,716.64587 c 0,-1.03507 -0.0486,-2.40638 -0.14584,-4.1099 -0.0527,-0.84264 -0.0972,-1.48677 -0.13175,-1.93645 l 5.03154,0 c -0.10533,1.0452 -0.1823,2.33549 -0.23699,3.87291 -0.0264,0.7211 -0.0405,1.44424 -0.0405,2.17344 l 0,6.15169 c 0,1.18497 0.0446,2.54211 0.13369,4.06939 0.0506,0.83454 0.0993,1.47057 0.14373,1.91013 l -5.03154,0 c 0.0872,-0.97431 0.16812,-2.25245 0.23699,-3.8324 0.0263,-0.71098 0.0405,-1.42804 0.0405,-2.14712 l 0,-6.15169 z"
       style="fill:#d8aa00;fill-opacity:1;fill-rule:nonzero;stroke:none"
       id="path290"
       inkscape:connector-curvature="0" />
    <path
       d="m 656.63057,724.73342 c 0.38688,0.36055 0.83859,0.6968 1.35714,1.00671 0.51854,0.31194 1.05735,0.58337 1.62046,0.81023 0.54488,0.22079 1.07356,0.39094 1.58603,0.5145 0.5145,0.12348 0.96417,0.18433 1.35106,0.18433 0.52665,0 1.01887,-0.0608 1.47462,-0.18433 0.45778,-0.12348 0.8467,-0.29776 1.17281,-0.52665 0.3241,-0.22889 0.57527,-0.49627 0.75149,-0.80416 0.17623,-0.30586 0.2613,-0.63603 0.2613,-0.98645 0,-0.40512 -0.12769,-0.78795 -0.38688,-1.15256 -0.25928,-0.3646 -0.63198,-0.72313 -1.11407,-1.07558 -0.43145,-0.30586 -0.94392,-0.62591 -1.53944,-0.96013 -0.0891,-0.0446 -0.22079,-0.11959 -0.39702,-0.22484 -1.35916,-0.71908 -2.41044,-1.32067 -3.14775,-1.80276 -1.24573,-0.792 -2.12078,-1.68326 -2.6211,-2.67579 -0.26332,-0.51653 -0.39499,-1.12825 -0.39499,-1.83113 0,-0.70085 0.1277,-1.36929 0.38081,-2.00127 0.49222,-1.24573 1.57793,-2.0904 3.25511,-2.52793 0.84264,-0.22079 1.90405,-0.33017 3.18624,-0.33017 1.00266,0 1.99925,0.11554 2.99178,0.3484 0.99253,0.23295 1.94051,0.59552 2.84594,1.08774 l -0.96418,2.22611 c -0.18432,-0.17622 -0.46993,-0.36258 -0.86087,-0.56108 -0.39093,-0.19648 -0.82441,-0.37879 -1.29839,-0.54488 -1.1323,-0.37879 -2.02761,-0.56717 -2.68592,-0.56717 -0.89734,0 -1.58603,0.18028 -2.07015,0.54083 -0.48208,0.35853 -0.72313,0.87303 -0.72313,1.53944 0,0.31599 0.12964,0.61983 0.38891,0.90949 0.25928,0.28966 0.63401,0.58742 1.12623,0.89531 0.50842,0.31599 1.02291,0.59754 1.53944,0.84264 1.45031,0.72921 2.62717,1.38347 3.53058,1.96279 1.22953,0.8082 2.10661,1.74402 2.63528,2.80542 0.27143,0.55299 0.40917,1.18497 0.40917,1.89797 0,0.88721 -0.19243,1.67921 -0.57324,2.37803 -0.38283,0.6968 -0.91556,1.29232 -1.60223,1.78454 -0.69275,0.49222 -1.50298,0.86492 -2.42867,1.11812 -0.92772,0.25522 -1.90405,0.38284 -2.93102,0.38284 -1.22953,0 -2.44893,-0.18028 -3.66022,-0.54083 -1.41588,-0.4112 -2.55628,-0.99254 -3.42728,-1.73795 l 0.96215,-2.19978 z"
       style="fill:#d8aa00;fill-opacity:1;fill-rule:nonzero;stroke:none"
       id="path294"
       inkscape:connector-curvature="0" />
    <path
       d="m 465.86606,752.1231 5.99167,0.0183 -0.003,1.66706 -7.86938,-0.0222 0.0386,-13.42555 1.87771,0.006 -0.0345,11.75647 z"
       style="fill:#61656b;fill-opacity:1;fill-rule:nonzero;stroke:none"
       id="path298"
       inkscape:connector-curvature="0" />
    <path
       d="m 479.42833,748.54209 c -0.0113,-0.35448 -0.0708,-0.68667 -0.17825,-0.99659 -0.10533,-0.30991 -0.26333,-0.57931 -0.47196,-0.80618 -0.20661,-0.22889 -0.46589,-0.40917 -0.7758,-0.54285 -0.30992,-0.13369 -0.67249,-0.20054 -1.08774,-0.20256 -0.38081,-0.002 -0.73731,0.0648 -1.07356,0.19648 -0.33422,0.13158 -0.6259,0.30991 -0.87302,0.53678 -0.24712,0.22686 -0.44968,0.49627 -0.6097,0.80415 -0.158,0.30992 -0.25117,0.64211 -0.27751,0.99456 l 5.34754,0.0162 z m 1.81897,0.72516 c -0.002,0.10128 -0.002,0.20255 -0.002,0.30383 0,0.10128 -0.006,0.20256 -0.0203,0.30384 l -7.14827,-0.0203 c 0.0113,0.37676 0.0972,0.73124 0.2532,1.06343 0.15589,0.33422 0.36865,0.62388 0.63198,0.86898 0.26535,0.24509 0.57121,0.43752 0.91961,0.57729 0.34638,0.13774 0.71503,0.20863 1.10799,0.20863 0.60565,0.002 1.1323,-0.12963 1.57388,-0.39296 0.4436,-0.26332 0.792,-0.58539 1.04722,-0.96418 l 1.24776,1.00874 c -0.48209,0.63604 -1.04925,1.10192 -1.70149,1.4017 -0.65223,0.29979 -1.37536,0.44766 -2.17142,0.44563 -0.68262,-0.002 -1.3146,-0.11748 -1.89594,-0.34637 -0.58134,-0.22889 -1.07964,-0.55096 -1.49488,-0.96215 -0.41524,-0.41322 -0.74339,-0.90949 -0.98241,-1.49083 -0.23699,-0.58337 -0.3565,-1.2275 -0.35447,-1.93645 0.002,-0.69478 0.12153,-1.33689 0.35853,-1.92228 0.23496,-0.58742 0.56311,-1.08976 0.9824,-1.50501 0.4193,-0.41727 0.91354,-0.74136 1.48475,-0.97227 0.56919,-0.23295 1.18497,-0.3484 1.84328,-0.34638 0.65831,0.002 1.25789,0.11149 1.79466,0.32815 0.53881,0.21673 0.99254,0.52665 1.36525,0.93176 0.3727,0.40714 0.66033,0.89733 0.86087,1.4726 0.20053,0.57729 0.30181,1.22548 0.29978,1.94456"
       style="fill:#61656b;fill-opacity:1;fill-rule:nonzero;stroke:none"
       id="path302"
       inkscape:connector-curvature="0" />
    <path
       d="m 490.59232,752.21304 2.3517,0.006 c 0.80821,0.003 1.55767,-0.10727 2.24839,-0.33422 0.6887,-0.22484 1.28422,-0.55298 1.78454,-0.98038 0.50032,-0.42942 0.89126,-0.9581 1.17079,-1.59008 0.27953,-0.63198 0.42132,-1.34499 0.42334,-2.14104 0.002,-0.83454 -0.13579,-1.5678 -0.41119,-2.20181 -0.27548,-0.63198 -0.66237,-1.16065 -1.16268,-1.58602 -0.49627,-0.42538 -1.08977,-0.74947 -1.77846,-0.97228 -0.6887,-0.22282 -1.43614,-0.33625 -2.24637,-0.33827 l -2.34968,-0.006 -0.0305,10.14411 z m -1.84328,-11.78078 4.6082,0.0146 c 0.85884,0.002 1.71769,0.12964 2.57654,0.38688 0.85884,0.25523 1.63464,0.65427 2.32941,1.20117 0.69275,0.54488 1.25384,1.24168 1.68124,2.0904 0.42739,0.84669 0.64008,1.86556 0.63603,3.05458 -0.003,1.15053 -0.22079,2.14509 -0.65224,2.98368 -0.43347,0.84061 -0.99861,1.53336 -1.69338,2.08229 -0.69883,0.54691 -1.47665,0.95608 -2.33752,1.22548 -0.85885,0.2694 -1.71972,0.40309 -2.57857,0.39904 l -4.60819,-0.0113 0.0386,-13.42555 z"
       style="fill:#61656b;fill-opacity:1;fill-rule:nonzero;stroke:none"
       id="path306"
       inkscape:connector-curvature="0" />
    <path
       d="m 506.94746,743.21663 -1.46045,-0.003 1.90405,-2.72441 2.14104,0.006 -2.58464,2.72238 z m 1.98709,5.41032 c -0.0113,-0.35447 -0.0708,-0.68667 -0.17623,-0.99658 -0.10743,-0.30992 -0.26535,-0.57932 -0.47196,-0.80618 -0.20863,-0.2289 -0.4679,-0.4112 -0.77782,-0.54286 -0.30789,-0.13369 -0.67047,-0.20256 -1.08773,-0.20256 -0.38081,-0.002 -0.73732,0.0648 -1.07356,0.19648 -0.33422,0.13158 -0.62591,0.30992 -0.87303,0.53678 -0.24712,0.22687 -0.44968,0.49627 -0.6097,0.80416 -0.15799,0.30991 -0.25117,0.64211 -0.2775,0.99456 l 5.34753,0.0162 z m 1.81897,0.72516 c 0,0.10128 0,0.20256 -0.002,0.30384 0,0.10128 -0.006,0.20255 -0.0183,0.30383 l -7.1503,-0.0222 c 0.0113,0.37676 0.0972,0.73326 0.2532,1.06546 0.15799,0.33422 0.36865,0.62388 0.63401,0.86897 0.26332,0.2451 0.56918,0.43753 0.91758,0.57527 0.34638,0.13968 0.71706,0.21066 1.108,0.21066 0.60564,0.002 1.1323,-0.12964 1.5759,-0.39296 0.44157,-0.26333 0.78997,-0.5854 1.0452,-0.96418 l 1.24775,1.00874 c -0.48208,0.63603 -1.04925,1.10191 -1.70148,1.4017 -0.65021,0.29979 -1.37537,0.44765 -2.17143,0.44563 -0.68262,-0.002 -1.3146,-0.11749 -1.89594,-0.34638 -0.57931,-0.22889 -1.07963,-0.55095 -1.49488,-0.96215 -0.41524,-0.41322 -0.74338,-0.90948 -0.98038,-1.49082 -0.23902,-0.58337 -0.35853,-1.22751 -0.3565,-1.93646 0.002,-0.69477 0.12154,-1.33688 0.35853,-1.9243 0.23497,-0.58539 0.56311,-1.08774 0.9824,-1.50298 0.4193,-0.41727 0.91354,-0.74136 1.48475,-0.97228 0.57122,-0.23294 1.18497,-0.3484 1.84328,-0.34637 0.66034,0.002 1.25789,0.11132 1.79669,0.32814 0.53678,0.21674 0.99254,0.52665 1.36524,0.93177 0.37271,0.40714 0.65832,0.89733 0.85885,1.47259 0.20053,0.57729 0.30181,1.22345 0.29979,1.94456"
       style="fill:#61656b;fill-opacity:1;fill-rule:nonzero;stroke:none"
       id="path310"
       inkscape:connector-curvature="0" />
    <path
       d="m 520.06695,749.43761 c 0.002,-0.41727 -0.0608,-0.82239 -0.18636,-1.21333 -0.12558,-0.39296 -0.31396,-0.74136 -0.56513,-1.0452 -0.2532,-0.30383 -0.56514,-0.54488 -0.93785,-0.72313 -0.37271,-0.17825 -0.80415,-0.26738 -1.2984,-0.2694 -0.45373,-0.002 -0.86897,0.0872 -1.24168,0.2613 -0.37473,0.17622 -0.69274,0.41524 -0.96012,0.71908 -0.26535,0.30181 -0.47196,0.65021 -0.61983,1.04115 -0.14584,0.39094 -0.21876,0.80213 -0.22079,1.23155 -0.002,0.42942 0.0708,0.84062 0.21471,1.23358 0.1439,0.39094 0.3484,0.73731 0.61376,1.03507 0.26332,0.29776 0.58336,0.53475 0.95404,0.71301 0.37271,0.17825 0.78795,0.26737 1.24168,0.2694 0.49425,0.002 0.92569,-0.0891 1.30043,-0.27143 0.3727,-0.1823 0.68667,-0.42537 0.93987,-0.72718 0.25319,-0.30182 0.44562,-0.65021 0.57324,-1.04115 0.12769,-0.39094 0.1904,-0.79605 0.19243,-1.21332 m -5.94306,9.04624 -1.78251,-0.003 0.0405,-13.53898 1.74403,0.003 -0.003,1.40373 0.0567,0 c 0.29169,-0.48007 0.71706,-0.87303 1.28017,-1.18092 0.56109,-0.30789 1.21535,-0.46183 1.95874,-0.4598 0.66844,0.002 1.27611,0.12558 1.82504,0.36663 0.54691,0.24104 1.01887,0.57729 1.41589,1.00873 0.39498,0.43145 0.69882,0.9338 0.91151,1.51109 0.21268,0.57526 0.32004,1.19104 0.31801,1.84935 -0.002,0.65629 -0.11149,1.27612 -0.32814,1.85746 -0.21471,0.57932 -0.52058,1.08571 -0.91151,1.51311 -0.39297,0.42942 -0.86695,0.76567 -1.42196,1.01076 -0.55501,0.2451 -1.18091,0.36663 -1.87366,0.36461 -0.64414,-0.002 -1.24776,-0.1439 -1.81492,-0.42335 -0.56716,-0.27953 -1.01279,-0.67249 -1.33891,-1.17889 l -0.0567,0 -0.0183,5.89647 z"
       style="fill:#61656b;fill-opacity:1;fill-rule:nonzero;stroke:none"
       id="path314"
       inkscape:connector-curvature="0" />
    <path
       d="m 528.70624,749.69221 c -0.4436,-0.002 -0.90138,0.0162 -1.37537,0.0527 -0.47398,0.0365 -0.90341,0.11149 -1.29029,0.22484 -0.38486,0.11149 -0.70491,0.28155 -0.9581,0.50842 -0.2532,0.22686 -0.38081,0.5307 -0.38284,0.90948 0,0.26535 0.0527,0.48614 0.15994,0.66439 0.10744,0.17623 0.24915,0.32207 0.42537,0.43753 0.17623,0.11343 0.37271,0.19243 0.58742,0.23699 0.21471,0.0465 0.4355,0.0689 0.66237,0.0689 0.83454,0.002 1.47664,-0.24509 1.92632,-0.74339 0.45171,-0.49829 0.67655,-1.12622 0.67857,-1.88379 l 0.002,-0.47398 -0.4355,-0.002 z m 0.43955,-1.53539 c 0.002,-0.66844 -0.19851,-1.16673 -0.6016,-1.4888 -0.40309,-0.32409 -0.93987,-0.48614 -1.61033,-0.48816 -0.5064,-0.002 -0.98443,0.0951 -1.43209,0.28965 -0.44968,0.19446 -0.82643,0.44361 -1.13027,0.74542 l -0.94595,-1.1404 c 0.4436,-0.41727 0.98646,-0.74339 1.62452,-0.98241 0.63806,-0.23699 1.32473,-0.3565 2.05799,-0.35448 0.64616,0.002 1.20319,0.0953 1.67718,0.28156 0.47398,0.18433 0.86289,0.43347 1.16471,0.75149 0.30181,0.31599 0.52867,0.69072 0.67857,1.12015 0.15183,0.43144 0.22484,0.89125 0.22484,1.38549 l -0.0113,3.92558 c 0,0.30383 0.008,0.62185 0.0264,0.95607 0.0181,0.33625 0.0527,0.61173 0.10127,0.82644 l -1.61236,-0.005 c -0.0993,-0.43145 -0.14795,-0.86088 -0.14795,-1.2903 l -0.0567,0 c -0.33017,0.48006 -0.74542,0.85075 -1.24371,1.11407 -0.50032,0.26535 -1.09179,0.39499 -1.77441,0.39296 -0.35447,0 -0.72515,-0.0486 -1.11001,-0.14389 -0.38487,-0.0972 -0.73529,-0.2532 -1.04926,-0.46791 -0.31599,-0.21674 -0.57729,-0.50235 -0.78592,-0.85682 -0.20661,-0.35448 -0.30991,-0.78998 -0.30789,-1.30853 0,-0.68262 0.18635,-1.22345 0.55501,-1.62046 0.36663,-0.39702 0.84669,-0.69883 1.44221,-0.90544 0.59552,-0.20661 1.26599,-0.34029 2.0114,-0.40106 0.74542,-0.0627 1.49893,-0.0911 2.2565,-0.0891 l 0,-0.24712 z"
       style="fill:#61656b;fill-opacity:1;fill-rule:nonzero;stroke:none"
       id="path318"
       inkscape:connector-curvature="0" />
    <path
       d="m 532.43535,746.00849 c -0.0113,-0.37878 -0.0303,-0.71503 -0.0546,-1.00469 l 1.68731,0.005 c 0.0263,0.22889 0.0426,0.49019 0.0546,0.78795 0.0113,0.29573 0.0183,0.54083 0.0183,0.72921 l 0.0567,0 c 0.25319,-0.53071 0.6259,-0.95608 1.11204,-1.27612 0.48816,-0.32207 1.03507,-0.48006 1.64274,-0.48006 0.27751,0.002 0.51045,0.0284 0.70086,0.0791 l -0.081,1.64882 c -0.2532,-0.0627 -0.52462,-0.0953 -0.81428,-0.0972 -0.43145,0 -0.80416,0.077 -1.12015,0.23497 -0.31599,0.15589 -0.57931,0.36663 -0.78795,0.63198 -0.21066,0.26535 -0.36663,0.57121 -0.46791,0.91961 -0.10322,0.34638 -0.15394,0.70896 -0.15589,1.08976 l -0.0113,4.72163 -1.78251,-0.006 0.0203,-7.05307 c 0,-0.24104 -0.006,-0.55096 -0.0162,-0.92974"
       style="fill:#61656b;fill-opacity:1;fill-rule:nonzero;stroke:none"
       id="path322"
       inkscape:connector-curvature="0" />
    <path
       d="m 544.1434,746.49564 -2.39019,-0.006 -0.013,4.66897 c -0.002,0.54083 0.0993,0.92974 0.29979,1.16268 0.20053,0.23497 0.52462,0.35245 0.9662,0.35245 0.16407,0 0.34232,-0.0162 0.5307,-0.0506 0.1904,-0.0345 0.36055,-0.0851 0.51247,-0.15394 l 0.0527,1.46044 c -0.21472,0.0749 -0.45171,0.13369 -0.71098,0.17623 -0.25928,0.0446 -0.52868,0.0648 -0.80618,0.0648 -0.8467,-0.002 -1.49488,-0.237 -1.94253,-0.70693 -0.44766,-0.46791 -0.66845,-1.17079 -0.66642,-2.1066 l 0.0146,-4.87355 -1.72579,-0.005 0.003,-1.46045 1.72579,0.005 0.008,-2.57857 1.76225,0.006 -0.008,2.57857 2.39018,0.006 -0.003,1.46044 z"
       style="fill:#61656b;fill-opacity:1;fill-rule:nonzero;stroke:none"
       id="path326"
       inkscape:connector-curvature="0" />
    <path
       d="m 552.09764,748.75659 c -0.0113,-0.35448 -0.071,-0.68667 -0.17825,-0.99659 -0.10533,-0.30991 -0.26332,-0.57931 -0.46993,-0.80618 -0.20864,-0.22889 -0.46791,-0.40916 -0.7758,-0.54285 -0.30992,-0.13369 -0.67249,-0.20054 -1.08976,-0.20256 -0.38081,-0.002 -0.73731,0.0648 -1.07356,0.19648 -0.33422,0.13158 -0.62591,0.30991 -0.87303,0.53678 -0.24712,0.22686 -0.44968,0.49627 -0.6097,0.80415 -0.15799,0.30992 -0.25117,0.64211 -0.2775,0.99456 l 5.34753,0.0162 z m 1.81897,0.72516 c 0,0.10128 -0.002,0.20255 -0.002,0.30383 0,0.10128 -0.006,0.20256 -0.0203,0.30384 l -7.14828,-0.0203 c 0.0113,0.37675 0.0972,0.73123 0.2532,1.06342 0.158,0.33423 0.36866,0.62388 0.63401,0.86898 0.26332,0.24509 0.56919,0.43752 0.91759,0.57729 0.34637,0.13774 0.71705,0.20863 1.10799,0.21066 0.60767,0 1.1323,-0.12964 1.5759,-0.39499 0.44158,-0.26332 0.78998,-0.58539 1.0452,-0.96417 l 1.24776,1.00873 c -0.48209,0.63604 -1.04925,1.10395 -1.69947,1.40171 -0.65223,0.29978 -1.37739,0.44765 -2.17344,0.44562 -0.68262,-0.002 -1.3146,-0.11748 -1.89595,-0.34637 -0.57931,-0.22889 -1.07761,-0.55096 -1.49487,-0.96215 -0.41525,-0.41119 -0.74339,-0.90949 -0.98039,-1.49083 -0.23901,-0.58337 -0.35852,-1.2275 -0.3565,-1.93645 0.002,-0.69478 0.12154,-1.33689 0.35853,-1.92228 0.23497,-0.58742 0.56311,-1.08976 0.98241,-1.50501 0.41929,-0.41726 0.91353,-0.73933 1.48475,-0.97227 0.57121,-0.23295 1.18496,-0.3484 1.84328,-0.34638 0.66033,0.002 1.25788,0.11149 1.79668,0.32815 0.53678,0.21673 0.99254,0.52665 1.36525,0.93176 0.37068,0.40714 0.65831,0.89734 0.86087,1.4726 0.20053,0.57729 0.29978,1.22548 0.29776,1.94456"
       style="fill:#61656b;fill-opacity:1;fill-rule:nonzero;stroke:none"
       id="path330"
       inkscape:connector-curvature="0" />
    <path
       d="m 558.17662,745.335 c 0.50032,-0.33423 1.09179,-0.50032 1.77441,-0.4983 0.60565,0.002 1.15255,0.1439 1.63869,0.42335 0.48614,0.27953 0.86695,0.74136 1.14243,1.38752 0.30586,-0.58134 0.73123,-1.02494 1.27409,-1.33283 0.54488,-0.30991 1.1404,-0.46183 1.78454,-0.45981 0.58134,0 1.07963,0.10128 1.4969,0.29776 0.41727,0.19648 0.76364,0.45981 1.04115,0.78998 0.27548,0.32814 0.48209,0.71503 0.61375,1.15863 0.13158,0.44158 0.19648,0.91556 0.19445,1.42196 l -0.0162,5.5744 -1.78251,-0.005 0.0146,-4.98697 c 0,-0.36663 -0.0303,-0.71503 -0.0932,-1.04318 -0.0608,-0.33017 -0.16813,-0.61983 -0.31802,-0.87302 -0.15184,-0.2532 -0.35448,-0.45576 -0.60565,-0.6097 -0.2532,-0.15184 -0.57526,-0.22889 -0.9662,-0.23092 -0.40512,0 -0.75149,0.0851 -1.04317,0.2532 -0.29169,0.17015 -0.53071,0.39094 -0.71301,0.66236 -0.18433,0.27143 -0.31801,0.57729 -0.40106,0.91962 -0.083,0.34029 -0.12559,0.68869 -0.12753,1.04114 l -0.0113,4.85532 -1.78251,-0.006 0.0146,-5.34753 c 0.002,-0.35245 -0.0284,-0.67452 -0.0912,-0.96621 -0.0627,-0.29168 -0.17014,-0.54082 -0.32004,-0.74946 -0.15183,-0.21066 -0.34637,-0.37473 -0.58742,-0.49627 -0.23901,-0.11959 -0.53677,-0.1823 -0.88923,-0.1823 -0.65831,-0.002 -1.20522,0.26535 -1.64274,0.80213 -0.43753,0.53475 -0.65831,1.25181 -0.66034,2.14914 l -0.0146,4.77835 -1.78252,-0.005 0.0203,-7.05509 c 0,-0.23902 -0.006,-0.54893 -0.0162,-0.92772 -0.013,-0.38081 -0.0305,-0.71503 -0.0548,-1.00671 l 1.68731,0.006 c 0.0243,0.22687 0.0446,0.48411 0.0546,0.7677 0.013,0.28358 0.0183,0.52057 0.0183,0.71097 l 0.0567,0 c 0.22889,-0.48006 0.59349,-0.88517 1.09381,-1.2194"
       style="fill:#61656b;fill-opacity:1;fill-rule:nonzero;stroke:none"
       id="path334"
       inkscape:connector-curvature="0" />
    <path
       d="m 577.91955,748.83478 c -0.0113,-0.35448 -0.0708,-0.68668 -0.17623,-0.99659 -0.10744,-0.30991 -0.26333,-0.57729 -0.47196,-0.80618 -0.20864,-0.22889 -0.46791,-0.40917 -0.7758,-0.54286 -0.30991,-0.13368 -0.67249,-0.20053 -1.08976,-0.20255 -0.37878,0 -0.73731,0.0648 -1.07356,0.19648 -0.33422,0.13158 -0.6259,0.31194 -0.87302,0.5388 -0.24712,0.22484 -0.44968,0.49424 -0.6097,0.80213 -0.158,0.30992 -0.25117,0.64211 -0.27751,0.99659 l 5.34754,0.0146 z m 1.81897,0.72515 c 0,0.10128 -0.002,0.20256 -0.002,0.30384 0,0.10128 -0.006,0.20256 -0.0203,0.30384 l -7.14827,-0.0203 c 0.013,0.37676 0.0972,0.73124 0.25319,1.06343 0.158,0.33422 0.36866,0.62388 0.63401,0.86898 0.26333,0.24509 0.56919,0.43752 0.91759,0.57729 0.34637,0.13774 0.71705,0.20863 1.10799,0.21066 0.60768,0 1.1323,-0.12964 1.5759,-0.39499 0.44158,-0.26333 0.78998,-0.58539 1.0452,-0.96418 l 1.24776,1.00874 c -0.48209,0.63603 -1.04925,1.10394 -1.69946,1.4017 -0.65224,0.29979 -1.3774,0.44766 -2.17345,0.44563 -0.68262,-0.002 -1.3146,-0.11748 -1.89594,-0.34637 -0.57932,-0.22889 -1.07761,-0.54894 -1.49488,-0.96215 -0.41525,-0.4112 -0.74339,-0.90949 -0.98038,-1.49083 -0.23902,-0.58337 -0.35853,-1.2275 -0.3565,-1.93443 0.002,-0.6968 0.12153,-1.33891 0.35852,-1.9243 0.23497,-0.58742 0.56311,-1.08976 0.98241,-1.50501 0.4193,-0.41524 0.91354,-0.73933 1.48475,-0.97228 0.57121,-0.23294 1.18496,-0.3484 1.84328,-0.34637 0.66034,0.002 1.25788,0.11133 1.79669,0.32814 0.53678,0.21674 0.99253,0.52868 1.36524,0.9338 0.37271,0.40511 0.65831,0.8953 0.86087,1.47057 0.20053,0.57729 0.29979,1.22547 0.29776,1.94455"
       style="fill:#61656b;fill-opacity:1;fill-rule:nonzero;stroke:none"
       id="path338"
       inkscape:connector-curvature="0" />
    <path
       d="m 582.94885,745.15389 c 0.0243,0.22687 0.0426,0.48412 0.0546,0.7677 0.0113,0.28358 0.0183,0.5226 0.0162,0.71098 l 0.0567,0 c 0.11538,-0.23902 0.27143,-0.46386 0.46791,-0.67047 0.19648,-0.20864 0.42132,-0.39094 0.67452,-0.54893 0.2532,-0.158 0.53273,-0.27953 0.83454,-0.36663 0.30383,-0.0872 0.61982,-0.13175 0.94797,-0.12964 0.58134,0 1.08166,0.10128 1.49893,0.29776 0.41524,0.19648 0.76364,0.45981 1.03912,0.78998 0.27751,0.32814 0.48209,0.71503 0.61375,1.15863 0.13158,0.44157 0.19648,0.91556 0.19446,1.42196 l -0.0162,5.57439 -1.78251,-0.005 0.0146,-4.98698 c 0.002,-0.36663 -0.0263,-0.71503 -0.081,-1.04317 -0.0567,-0.33017 -0.1601,-0.61983 -0.30991,-0.87303 -0.15184,-0.25319 -0.35853,-0.45778 -0.62388,-0.6097 -0.26535,-0.15183 -0.60565,-0.22889 -1.02292,-0.23091 -0.70895,-0.002 -1.28827,0.26535 -1.73795,0.80213 -0.4517,0.53678 -0.67654,1.25181 -0.68059,2.14914 l -0.0113,4.77834 -1.78251,-0.003 0.0203,-7.0551 c 0,-0.23901 -0.006,-0.54893 -0.0162,-0.92771 -0.0113,-0.37878 -0.0305,-0.71503 -0.0546,-1.00469 l 1.68731,0.005 z"
       style="fill:#61656b;fill-opacity:1;fill-rule:nonzero;stroke:none"
       id="path342"
       inkscape:connector-curvature="0" />
    <path
       d="m 596.22086,746.65323 -2.39019,-0.006 -0.0113,4.66897 c -0.002,0.54083 0.0972,0.92974 0.29979,1.16268 0.20255,0.23497 0.52462,0.35043 0.9662,0.35245 0.16407,0 0.34232,-0.0162 0.5307,-0.0506 0.1904,-0.0345 0.36055,-0.0851 0.51247,-0.15589 l 0.0527,1.46247 c -0.21472,0.0749 -0.45171,0.13369 -0.71098,0.17623 -0.25928,0.0446 -0.52868,0.0648 -0.80618,0.0648 -0.8467,-0.002 -1.49488,-0.23902 -1.94253,-0.70693 -0.44766,-0.46993 -0.66845,-1.17079 -0.66642,-2.1066 l 0.0146,-4.87355 -1.72579,-0.003 0.003,-1.46044 1.72579,0.005 0.008,-2.57857 1.76225,0.006 -0.006,2.57856 2.38816,0.006 -0.003,1.46044 z"
       style="fill:#61656b;fill-opacity:1;fill-rule:nonzero;stroke:none"
       id="path346"
       inkscape:connector-curvature="0" />
  </g>
</svg>
