<?xml version="1.0" encoding="UTF-8" standalone="no"?>
<svg
   xmlns:dc="http://purl.org/dc/elements/1.1/"
   xmlns:cc="http://creativecommons.org/ns#"
   xmlns:rdf="http://www.w3.org/1999/02/22-rdf-syntax-ns#"
   xmlns:svg="http://www.w3.org/2000/svg"
   xmlns="http://www.w3.org/2000/svg"
   xmlns:sodipodi="http://sodipodi.sourceforge.net/DTD/sodipodi-0.dtd"
   xmlns:inkscape="http://www.inkscape.org/namespaces/inkscape"
   width="700"
   height="389"
   viewBox="0 0 700 389"
   version="1.1"
   id="svg2"
   inkscape:version="0.91 r13725"
   sodipodi:docname="Logo Département Ardèche copie.svg">
  <metadata
     id="metadata46">
    <rdf:RDF>
      <cc:Work
         rdf:about="">
        <dc:format>image/svg+xml</dc:format>
        <dc:type
           rdf:resource="http://purl.org/dc/dcmitype/StillImage" />
        <dc:title></dc:title>
      </cc:Work>
    </rdf:RDF>
  </metadata>
  <defs
     id="defs44" />
  <sodipodi:namedview
     pagecolor="#ffffff"
     bordercolor="#666666"
     borderopacity="1"
     objecttolerance="10"
     gridtolerance="10"
     guidetolerance="10"
     inkscape:pageopacity="0"
     inkscape:pageshadow="2"
     inkscape:window-width="1440"
     inkscape:window-height="790"
     id="namedview42"
     showgrid="false"
     inkscape:zoom="0.91111111"
     inkscape:cx="-35.121951"
     inkscape:cy="117.37805"
     inkscape:window-x="0"
     inkscape:window-y="1"
     inkscape:window-maximized="1"
     inkscape:current-layer="svg2" />
  <g
     id="g4329"
     transform="matrix(3.1111111,0,0,3.1111111,0,0.11111)">
    <g
       id="g4312">
      <path
         id="Fill-1"
         d="m 165.19554,20.826308 c 0,0 -21.42668,5.730668 -15.92778,30.965007 0,0 3.50427,-20.455534 18.3362,-23.967002 0,0 -2.02793,-3.126643 -2.40842,-6.998005"
         style="fill:#bd9131;fill-opacity:1;fill-rule:evenodd;stroke:none;stroke-width:1"
         inkscape:connector-curvature="0" />
      <path
         id="Fill-2"
         d="m 118.50577,0.17949415 c 0,0 20.52791,27.73456585 46.6957,20.67491585 0,0 -24.69646,25.21077 -46.6957,-20.67491585"
         style="fill:#bd9131;fill-opacity:1;fill-rule:evenodd;stroke:none;stroke-width:1"
         inkscape:connector-curvature="0" />
      <path
         id="Fill-3"
         d="m 116.64984,0 c 0,0 3.06173,11.118212 -29.79753,25.819055 -26.96664,12.065543 -20.908864,37.789412 -20.908864,37.789412 0,0 -1.054796,-22.367872 22.840071,-32.084127 C 112.68203,21.80854 119.57516,7.4626054 116.64984,0"
         style="fill:#bd9131;fill-opacity:1;fill-rule:evenodd;stroke:none;stroke-width:1"
         inkscape:connector-curvature="0" />
      <path
         id="Fill-6"
         d="m 132.75692,24.175959 c 1.15106,1.137249 -0.36909,2.769014 2.55258,4.248481 -2.27064,1.212492 -6.90681,-0.407941 -11.32856,1.959025 2.67942,-3.392712 6.58244,-8.380927 8.77598,-6.207506"
         style="fill:#bd9131;fill-opacity:1;fill-rule:evenodd;stroke:none;stroke-width:1"
         inkscape:connector-curvature="0" />
      <path
         id="Fill-8"
         d="m 148.14453,19.320098 c -0.59949,-3.618892 -2.12374,-4.597045 -1.90338,-3.916689 0.47676,1.472214 0.47174,4.823678 -0.70396,6.544737 -1.63238,2.38691 -4.34556,3.811531 -5.22927,5.417913 -0.005,0.01088 -0.0123,0.0204 -0.0173,0.03173 -0.0725,0.1387 -0.13505,0.278307 -0.17884,0.421539 -0.11954,0.354456 -0.16562,0.736108 -0.1168,1.125918 0.18842,1.476748 1.62325,2.513372 3.21229,2.314387 0.83946,-0.105611 1.54615,-0.542562 2.00147,-1.142689 2.19582,-2.182032 3.56085,-7.022029 2.93582,-10.796845"
         style="fill:#bd9131;fill-opacity:1;fill-rule:evenodd;stroke:none;stroke-width:1"
         inkscape:connector-curvature="0" />
      <path
         id="Fill-9"
         d="m 195.57202,42.276766 c 0,0 -43.68096,38.611639 -167.742199,25.946423 0,0 99.439599,2.471671 167.742199,-25.946423"
         style="fill:#bd9131;fill-opacity:1;fill-rule:evenodd;stroke:none;stroke-width:1"
         inkscape:connector-curvature="0" />
    </g>
    <g
       id="g4320">
      <path
         id="A-1"
         d="m 26.624471,71.069259 6.545026,0 3.968715,32.672471 -5.690514,0 -0.948495,-8.011515 -0.04517,-0.388904 -15.636254,0 -0.131849,0.187653 -5.7785662,8.212766 -5.859318,0 L 9.6263809,94.626054 0,91.878343 l 11.608685,0 15.015786,-20.809084 z m 3.06858,20.785967 0.492268,0 -1.567594,-14.911159 -0.123182,-1.175324 -10.826712,15.394343 -0.489532,0.69214 12.514752,0 z"
         style="fill:#004d42;fill-opacity:1;fill-rule:evenodd;stroke:none;stroke-width:1"
         inkscape:connector-curvature="0" />
      <path
         id="R-1"
         d="m 65.542879,83.72813 c 0,2.447194 -1.38921,4.663675 -3.539406,6.117306 -1.38921,0.956395 -2.695842,1.300426 -3.747901,1.605928 l 4.031674,12.273596 -5.560489,0 -3.520701,-11.701571 -4.725138,0.0027 -3.496977,11.698851 -5.223338,0 7.920549,-26.993928 8.255877,0 c 5.015755,0 9.60585,1.989846 9.60585,6.997099 z m -8.688835,5.185386 c 3.449073,-1.47584 3.765238,-2.853322 3.887963,-4.770193 0.183403,-2.861934 -3.371058,-3.779349 -6.236617,-3.779349 l -2.568556,0 -3.449073,11.659415 8.366283,-3.109873 z"
         style="fill:#004d42;fill-opacity:1;fill-rule:evenodd;stroke:none;stroke-width:1"
         inkscape:connector-curvature="0" />
      <path
         id="D-1"
         d="m 82.165951,76.731031 c 7.710685,0 12.511558,3.900371 12.511558,10.782794 0,4.587526 -2.106855,9.443386 -5.643523,12.388722 -4.256594,3.515543 -8.931092,3.822413 -13.483321,3.822413 l -10.699881,0 7.963434,-26.993929 9.351733,0 z m 2.906619,20.533043 c 2.654783,-2.256368 4.170824,-6.079231 4.170824,-9.673194 0,-5.04714 -2.865103,-7.148944 -8.425136,-7.148944 l -3.706841,0 -5.814152,19.650074 4.296742,0 c 2.86419,0 6.362536,-0.189463 9.478563,-2.827936 z"
         style="fill:#004d42;fill-opacity:1;fill-rule:evenodd;stroke:none;stroke-width:1"
         inkscape:connector-curvature="0" />
      <polyline
         id="E-1"
         points="103.436147 91.5293264 113.926621 91.5293264 115.021108 87.8583084 104.488661 87.8583084 106.679461 80.4419364 118.815088 80.4419364 119.951093 76.7310307 102.381807 76.7310307 94.378224 103.724957 106.620152 103.724957 115.653894 100.015864 100.908195 100.015864 103.436147 91.5293264"
         style="fill:#004d42;fill-opacity:1;fill-rule:evenodd;stroke:none;stroke-width:1" />
      <polyline
         id="N-0"
         points="146.293615 76.7310307 140.391868 94.8331974 129.655488 76.7133533 124.975516 76.7310307 116.970564 103.724957 122.152386 103.724957 128.133972 83.583084 142.049796 106.778624 151.390579 76.7310307 146.293615 76.7310307"
         style="fill:#004d42;fill-opacity:1;fill-rule:evenodd;stroke:none;stroke-width:1" />
      <polyline
         id="N-1"
         points="177.348046 76.7310307 171.448124 94.8331974 160.711288 76.7133533 156.030859 76.7310307 148.025908 103.724957 153.209098 103.724957 159.18886 83.583084 173.104683 106.778624 182.444553 76.7310307 177.348046 76.7310307"
         style="fill:#004d42;fill-opacity:1;fill-rule:evenodd;stroke:none;stroke-width:1" />
      <path
         id="ES"
         d="m 217.79481,78.990119 c 0.92614,0 3.41212,0.151391 6.02584,2.218747 L 225,77.194724 c -2.95042,-1.492612 -5.77264,-1.797208 -7.58431,-1.797208 -6.57012,0 -10.19575,3.937087 -10.19575,7.875533 0,3.479285 2.65432,5.465959 4.9715,7.186111 1.6009,1.264165 3.32817,2.638927 3.32817,4.893936 0,2.485722 -1.32807,4.480101 -8.99587,4.671384 l -10.0046,0 0.0215,-0.009 -11.14562,0 2.52886,-8.486534 10.49093,0 1.09632,-3.671018 -10.53656,0 2.194,-7.416372 12.13243,0 1.13601,-3.710905 -17.56747,0 -8.00403,26.993929 7.7928,0 -0.006,0.003 23.39165,0 c 7.37217,-0.0317 11.03886,-4.321914 11.03886,-8.488808 0,-3.285287 -2.10685,-5.045327 -3.87656,-6.537938 l -0.96856,-0.76421 c -1.64379,-1.18439 -3.58093,-2.714169 -3.58093,-4.81688 0,-2.027015 1.81122,-4.129725 5.13848,-4.129725"
         style="fill:#004d42;fill-opacity:1;fill-rule:evenodd;stroke:none;stroke-width:1"
         inkscape:connector-curvature="0" />
    </g>
    <g
       style="fill:#bd9131;fill-opacity:1"
       id="g4290">
      <path
         id="C"
         d="m 25.687381,110.5199 c -1.379173,-0.67582 -2.628321,-0.80319 -3.400713,-0.80319 -3.565867,0 -6.121192,2.7391 -6.121192,5.8263 0,1.2959 0.47767,2.48391 1.360468,3.26852 0.919297,0.82223 2.168901,1.11459 3.418962,1.11459 1.341762,0 2.628321,-0.32862 3.860133,-0.82178 l -2.114154,2.17252 c -0.477669,0.12827 -1.158359,0.31094 -2.315806,0.31094 -0.845388,0 -1.691688,-0.0916 -2.500578,-0.32862 -2.720023,-0.78506 -4.13615,-3.06953 -4.13615,-5.55254 0,-3.56132 2.86784,-7.6702 8.658724,-7.6702 1.286559,0 2.573118,0.2008 3.805386,0.56659 l -0.51508,1.91687"
         style="fill:#bd9131;fill-opacity:1;fill-rule:evenodd;stroke:none;stroke-width:1"
         inkscape:connector-curvature="0" />
      <path
         id="o"
         d="m 29.96998,121.45998 c -1.83768,0 -3.841884,-0.96818 -3.841884,-3.81743 0,-2.90363 2.022453,-5.62505 5.147148,-5.62505 2.537077,0 3.805386,1.82667 3.805386,3.87226 0,2.41094 -1.654277,5.57022 -5.11065,5.57022 z m 2.99604,-5.77101 c 0,-0.53033 -0.109494,-1.096 -0.385511,-1.51664 -0.312059,-0.47457 -0.827139,-0.73021 -1.415215,-0.73021 -1.691232,0 -2.978247,2.22826 -2.978247,4.29199 0,0.60285 0.10995,1.22337 0.496374,1.68027 0.18386,0.20079 0.588533,0.60284 1.323514,0.60284 1.930294,0 2.959085,-2.57546 2.959085,-4.32825 z"
         style="fill:#bd9131;fill-opacity:1;fill-rule:evenodd;stroke:none;stroke-width:1"
         inkscape:connector-curvature="0" />
      <path
         id="n-2"
         d="m 44.032708,121.25918 -2.059406,0 1.305264,-4.87717 c 0.166523,-0.60194 0.294722,-1.11277 0.294722,-1.49714 0,-0.85849 -0.62503,-1.33306 -1.507829,-1.33306 -0.753686,0 -1.562576,0.40205 -1.856842,0.548 l -1.929838,7.15937 -2.114154,0 2.426669,-9.02185 2.114154,0 -0.385968,1.44185 1.489124,-1.44185 c 0.275561,-0.0734 0.826682,-0.21983 1.415215,-0.21983 1.120948,0 1.654277,0.43831 1.782933,0.548 0.441171,0.3472 0.771935,0.95005 0.771935,1.71652 0,0.49316 -0.165153,1.11459 -0.257311,1.46179 l -1.488668,5.51537"
         style="fill:#bd9131;fill-opacity:1;fill-rule:evenodd;stroke:none;stroke-width:1"
         inkscape:connector-curvature="0" />
      <path
         id="s"
         d="m 53.921876,114.26435 c -0.238607,-0.20171 -0.974044,-0.80365 -2.003291,-0.80365 -1.029247,0 -1.599531,0.65769 -1.599531,1.27822 0,0.62052 0.404673,0.8943 1.065746,1.3521 0.8463,0.58426 1.636484,1.13226 1.636484,2.39189 0,1.60684 -1.396965,2.97707 -3.823635,2.97707 -0.974043,0 -1.930294,-0.23797 -2.830885,-0.62143 l 0.496374,-1.75279 c 0.845388,0.67537 1.728186,0.93146 2.334511,0.93146 1.1027,0 1.691689,-0.71208 1.691689,-1.40694 0,-0.63911 -0.441628,-1.00399 -1.195314,-1.4976 -0.680234,-0.45598 -1.507373,-1.02166 -1.507373,-2.24549 0,-1.37023 1.066658,-2.84969 3.511576,-2.84969 1.323057,0 2.223649,0.38346 2.683069,0.58426 l -0.45942,1.66259"
         style="fill:#bd9131;fill-opacity:1;fill-rule:evenodd;stroke:none;stroke-width:1"
         inkscape:connector-curvature="0" />
      <path
         id="e-2"
         d="m 57.41429,116.73012 c -0.05475,0.36443 -0.05475,0.47458 -0.05475,0.54801 0,1.7342 0.955795,2.75768 2.794388,2.75768 1.102699,0 1.966793,-0.27468 2.83043,-0.58517 l -1.78339,1.82622 c -0.349014,0.0734 -0.955339,0.20079 -1.709481,0.20079 -2.701774,0 -4.32001,-1.47901 -4.32001,-3.99873 0,-2.86737 2.059407,-5.46142 5.165854,-5.46142 2.407964,0 3.474622,1.53431 3.474622,3.30568 0,0.52942 -0.110407,1.05883 -0.184316,1.40694 l -6.21335,0 z m 4.393462,-1.22427 c 0,-0.56568 0,-1.02258 -0.275561,-1.46089 -0.219901,-0.36578 -0.680234,-0.6391 -1.323513,-0.6391 -0.441171,0 -0.863637,0.12737 -1.21265,0.34675 -0.846757,0.51174 -1.121861,1.35119 -1.269223,1.75324 l 4.080947,0 z"
         style="fill:#bd9131;fill-opacity:1;fill-rule:evenodd;stroke:none;stroke-width:1"
         inkscape:connector-curvature="0" />
      <path
         id="i"
         d="m 68.958648,112.23733 -2.444919,9.02185 -2.077199,0 2.444918,-9.02185 2.0772,0 z m 0.900591,-3.12347 c 0,0.52942 -0.441171,1.05974 -1.121405,1.05974 -0.625031,0 -1.139198,-0.45689 -1.139198,-1.04115 0,-0.56659 0.495918,-1.05975 1.139198,-1.05975 0.625487,0 1.121405,0.4569 1.121405,1.04116 z"
         style="fill:#bd9131;fill-opacity:1;fill-rule:evenodd;stroke:none;stroke-width:1"
         inkscape:connector-curvature="0" />
      <polyline
         id="l-1"
         points="71.5135165 121.259179 69.3811134 121.259179 72.8739841 108.365062 74.9511838 108.365062 71.5135165 121.259179"
         style="fill:#bd9131;fill-opacity:1;fill-rule:evenodd;stroke:none;stroke-width:1" />
      <path
         id="D-2"
         d="m 84.383212,108.27713 4.096915,0 c 3.377901,0 5.482018,1.86973 5.482018,5.17088 0,2.20016 -0.922946,4.52905 -2.47366,5.94053 -1.863686,1.68706 -3.912599,1.83392 -5.905397,1.83392 l -4.688184,0 3.488308,-12.94533 z m -0.664722,11.20297 1.882847,0 c 1.255079,0 2.787088,-0.0916 4.152574,-1.35618 1.162466,-1.08195 1.827188,-2.91587 1.827188,-4.6392 0,-2.42045 -1.254623,-3.42942 -3.690873,-3.42942 l -1.624167,0 -2.547569,9.4248 z"
         style="fill:#bd9131;fill-opacity:1;fill-rule:evenodd;stroke:none;stroke-width:1"
         inkscape:connector-curvature="0" />
      <path
         id="e-3"
         d="m 97.579566,116.67483 c -0.05566,0.36714 -0.05566,0.47683 -0.05566,0.55026 0,1.74191 0.959445,2.76856 2.804884,2.76856 1.10771,0 1.975,-0.27422 2.84275,-0.58653 l -1.79024,1.83393 c -0.35084,0.073 -0.9599,0.20125 -1.716322,0.20125 -2.71318,0 -4.337803,-1.48536 -4.337803,-4.0155 0,-2.87916 2.067619,-5.48228 5.186845,-5.48228 2.41754,0 3.48785,1.5402 3.48785,3.31838 0,0.53213 -0.11041,1.06336 -0.18432,1.41193 l -6.237984,0 z m 4.410794,-1.22791 c 0,-0.56885 0,-1.02756 -0.27692,-1.46723 -0.22127,-0.36669 -0.68298,-0.64228 -1.32854,-0.64228 -0.442993,0 -0.86774,0.12873 -1.218122,0.34857 -0.849038,0.51355 -1.125967,1.35708 -1.274241,1.76094 l 4.097823,0 z m 2.19582,-7.27994 -0.40558,1.52208 -3.913058,1.50349 0.424748,-1.50349 3.89389,-1.52208 z"
         style="fill:#bd9131;fill-opacity:1;fill-rule:evenodd;stroke:none;stroke-width:1"
         inkscape:connector-curvature="0" />
      <path
         id="p"
         d="m 105.69949,125 -2.10412,0 3.48876,-12.83519 2.08496,0 -0.36863,1.37476 1.4581,-1.37476 c 0.23997,-0.0743 0.66427,-0.20261 1.16246,-0.20261 2.04846,0 3.04532,1.52252 3.04532,3.31883 0,1.35753 -0.60907,3.33741 -2.25148,4.74979 -1.16292,1.00807 -2.45496,1.41148 -3.93131,1.41148 -0.5534,0 -0.79383,-0.0363 -1.5685,-0.18312 L 105.69949,125 Z m 1.43985,-5.24431 c 0.20302,0.073 0.59081,0.20125 1.19942,0.20125 2.80533,0 3.96826,-2.84199 3.96826,-4.43704 0,-0.38528 -0.037,-0.97226 -0.42475,-1.44865 -0.29472,-0.36669 -0.77513,-0.64182 -1.45764,-0.64182 -0.71993,0 -1.34724,0.31185 -1.71678,0.49497 l -1.56851,5.83129 z"
         style="fill:#bd9131;fill-opacity:1;fill-rule:evenodd;stroke:none;stroke-width:1"
         inkscape:connector-curvature="0" />
      <path
         id="a-2"
         d="m 123.80484,118.85731 c -0.16652,0.64138 -0.29472,1.17351 -0.29472,1.74146 0,0.27513 0.0178,0.40386 0.0739,0.62369 l -2.06716,0 c -0.0369,-0.20125 -0.0561,-0.31184 -0.0561,-0.60511 0,-0.23796 0.0192,-0.47684 0.0561,-0.7148 l -1.4768,1.35663 c -0.33214,0.11014 -0.66472,0.16454 -1.18163,0.16454 -0.60861,0 -0.97769,-0.0916 -1.21813,-0.18267 -1.08855,-0.36715 -1.82627,-1.35709 -1.82627,-3.00744 0,-2.65841 2.14062,-6.28909 6.29319,-6.28909 0.79338,0 1.9928,0.12828 3.37745,0.76965 l -1.67983,6.14314 z m -0.64602,-5.20805 c -0.53561,-0.20125 -1.01465,-0.21983 -1.23683,-0.21983 -2.58315,0 -3.93039,2.84244 -3.93039,4.69449 0,0.47684 0.0922,0.95323 0.38779,1.31992 0.34993,0.40341 0.90424,0.5684 1.43894,0.5684 0.38779,0 1.08901,-0.073 1.75374,-0.51355 0.0552,-0.27514 0.0739,-0.29282 0.1104,-0.44013 l 1.47635,-5.4093 z"
         style="fill:#bd9131;fill-opacity:1;fill-rule:evenodd;stroke:none;stroke-width:1"
         inkscape:connector-curvature="0" />
      <path
         id="r-2"
         d="m 128.23434,121.22246 -2.12236,0 2.45495,-9.05765 2.10366,0 -0.4252,1.61273 1.67982,-1.65035 c 0.29564,-0.073 0.59082,-0.14641 1.05252,-0.14641 0.59081,0 0.90424,0.10969 1.16246,0.20171 l -0.53515,1.98032 c -0.20256,-0.12827 -0.86729,-0.54981 -1.77153,-0.54981 -0.81162,0 -1.43985,0.34811 -1.66112,0.47684 l -1.93805,7.13262"
         style="fill:#bd9131;fill-opacity:1;fill-rule:evenodd;stroke:none;stroke-width:1"
         inkscape:connector-curvature="0" />
      <path
         id="t-1"
         d="m 136.46513,117.92177 c -0.16561,0.66041 -0.22082,0.93554 -0.22082,1.17396 0,0.64138 0.51691,0.84353 1.07031,0.84353 0.38734,0 0.94165,-0.092 1.03335,-0.11059 0.0917,-0.0177 0.16653,-0.0177 0.23998,-0.0363 l -1.4394,1.46678 c -0.27693,0.073 -0.62731,0.16454 -1.05206,0.16454 -1.21812,0 -2.04891,-0.73339 -2.04891,-1.85161 0,-0.4578 0.14827,-1.00806 0.22127,-1.26552 l 1.23683,-4.60203 -1.16201,0 1.30983,-1.53975 0.23952,0 0.4065,-1.46723 2.32584,-0.75197 -0.59082,2.2192 1.86415,0 -0.42429,1.53975 -1.86415,0 -1.14512,4.21721"
         style="fill:#bd9131;fill-opacity:1;fill-rule:evenodd;stroke:none;stroke-width:1"
         inkscape:connector-curvature="0" />
      <path
         id="e-4"
         d="m 142.48184,116.67483 c -0.0552,0.36714 -0.0552,0.47683 -0.0552,0.55026 0,1.74191 0.95944,2.76856 2.80579,2.76856 1.10681,0 1.97364,-0.27422 2.84184,-0.58653 l -1.79024,1.83393 c -0.35129,0.073 -0.96081,0.20125 -1.71632,0.20125 -2.71318,0 -4.3378,-1.48536 -4.3378,-4.0155 0,-2.87916 2.06716,-5.48228 5.18592,-5.48228 2.41846,0 3.48877,1.5402 3.48877,3.31838 0,0.53213 -0.11041,1.06336 -0.18432,1.41193 l -6.23844,0 z m 4.4108,-1.22791 c 0,-0.56885 0,-1.02756 -0.27647,-1.46723 -0.22173,-0.36669 -0.68343,-0.64228 -1.32945,-0.64228 -0.44299,0 -0.86683,0.12873 -1.21812,0.34857 -0.84813,0.51355 -1.12551,1.35708 -1.27333,1.76094 l 4.09737,0 z"
         style="fill:#bd9131;fill-opacity:1;fill-rule:evenodd;stroke:none;stroke-width:1"
         inkscape:connector-curvature="0" />
      <path
         id="m"
         d="m 152.00466,112.14622 2.10457,0 -0.38779,1.48536 1.5133,-1.48536 c 0.34993,-0.092 0.84904,-0.22028 1.40244,-0.22028 0.51691,0 0.86775,0.11014 1.10772,0.20125 1.06985,0.42244 1.19942,1.2841 1.25554,1.65035 l 1.65975,-1.59505 c 0.33259,-0.092 0.8682,-0.23797 1.4216,-0.23797 1.25554,0 2.51016,0.6595 2.51016,2.21829 0,0.58699 -0.18477,1.28411 -0.31388,1.77863 l -1.43985,5.28102 -2.10367,0 1.34724,-5.04215 c 0.0739,-0.257 0.25823,-0.89928 0.25823,-1.35709 0,-1.0271 -0.86683,-1.28365 -1.45765,-1.28365 -0.25868,0 -1.08901,0.0734 -1.90064,0.65996 -0.0187,0.45825 -0.0374,0.60511 -0.33259,1.83392 l -1.38464,5.18901 -2.14016,0 1.38373,-5.13416 c 0.16652,-0.60512 0.25823,-1.00853 0.25823,-1.32037 0,-0.75152 -0.51691,-1.24694 -1.38374,-1.24694 -0.77513,0 -1.51285,0.40341 -1.79023,0.56885 l -1.93897,7.13262 -2.10274,0 2.45404,-9.07624"
         style="fill:#bd9131;fill-opacity:1;fill-rule:evenodd;stroke:none;stroke-width:1"
         inkscape:connector-curvature="0" />
      <path
         id="e-5"
         d="m 168.59716,116.67483 c -0.0561,0.36714 -0.0561,0.47683 -0.0561,0.55026 0,1.74191 0.96035,2.76856 2.80579,2.76856 1.10681,0 1.97455,-0.27422 2.84184,-0.58653 l -1.79024,1.83393 c -0.35038,0.073 -0.9599,0.20125 -1.71632,0.20125 -2.71318,0 -4.33689,-1.48536 -4.33689,-4.0155 0,-2.87916 2.06671,-5.48228 5.18638,-5.48228 2.41709,0 3.4874,1.5402 3.4874,3.31838 0,0.53213 -0.11041,1.06336 -0.18432,1.41193 l -6.23753,0 z m 4.4108,-1.22791 c 0,-0.56885 0,-1.02756 -0.27738,-1.46723 -0.22082,-0.36669 -0.68252,-0.64228 -1.32854,-0.64228 -0.44345,0 -0.86774,0.12873 -1.21812,0.34857 -0.84904,0.51355 -1.12597,1.35708 -1.27333,1.76094 l 4.09737,0 z"
         style="fill:#bd9131;fill-opacity:1;fill-rule:evenodd;stroke:none;stroke-width:1"
         inkscape:connector-curvature="0" />
      <path
         id="n-4"
         d="m 183.56505,121.22246 -2.06717,0 1.31074,-4.8962 c 0.16607,-0.60511 0.29518,-1.11821 0.29518,-1.50304 0,-0.86211 -0.62822,-1.3385 -1.5133,-1.3385 -0.75734,0 -1.56897,0.40341 -1.86506,0.54982 l -1.93714,7.18792 -2.12236,0 2.43625,-9.05765 2.12236,0 -0.38733,1.44819 1.49505,-1.44819 c 0.27602,-0.0743 0.82942,-0.22029 1.42024,-0.22029 1.12642,0 1.66203,0.44012 1.79114,0.54981 0.443,0.34857 0.77422,0.95368 0.77422,1.72378 0,0.49542 -0.16561,1.11867 -0.25823,1.46678 l -1.49459,5.53757"
         style="fill:#bd9131;fill-opacity:1;fill-rule:evenodd;stroke:none;stroke-width:1"
         inkscape:connector-curvature="0" />
      <path
         id="t-2"
         d="m 189.45174,117.92177 c -0.16561,0.66041 -0.22127,0.93554 -0.22127,1.17396 0,0.64138 0.5169,0.84353 1.0703,0.84353 0.3878,0 0.94211,-0.092 1.03381,-0.11059 0.0917,-0.0177 0.16561,-0.0177 0.23952,-0.0363 l -1.43985,1.46678 c -0.27647,0.073 -0.6264,0.16454 -1.0516,0.16454 -1.21813,0 -2.04846,-0.73339 -2.04846,-1.85161 0,-0.4578 0.14782,-1.00806 0.22082,-1.26552 l 1.23683,-4.60203 -1.16201,0 1.31028,-1.53975 0.23952,0 0.4065,-1.46723 2.32447,-0.75197 -0.5899,2.2192 1.86414,0 -0.42383,1.53975 -1.86414,0 -1.14513,4.21721"
         style="fill:#bd9131;fill-opacity:1;fill-rule:evenodd;stroke:none;stroke-width:1"
         inkscape:connector-curvature="0" />
      <path
         id="a-3"
         d="m 200.1977,118.90354 c -0.16607,0.63821 -0.29472,1.16853 -0.29472,1.73421 0,0.27422 0.0187,0.40205 0.0734,0.62143 l -2.05941,0 c -0.036,-0.2008 -0.0548,-0.31185 -0.0548,-0.60285 0,-0.23796 0.0187,-0.47457 0.0548,-0.71254 l -1.46996,1.35165 c -0.33077,0.10969 -0.66107,0.16454 -1.17661,0.16454 -0.60632,0 -0.97359,-0.092 -1.21311,-0.18312 -1.08445,-0.36489 -1.81988,-1.35074 -1.81988,-2.99475 0,-2.64889 2.13286,-6.26461 6.26855,-6.26461 0.79064,0 1.98459,0.12782 3.36421,0.76693 l -1.67252,6.11911 z m -0.64419,-5.18719 c -0.53288,-0.2008 -1.01055,-0.21939 -1.23182,-0.21939 -2.57311,0 -3.91533,2.83111 -3.91533,4.67501 0,0.47548 0.0926,0.95005 0.38597,1.31584 0.34901,0.40114 0.90059,0.56658 1.43392,0.56658 0.38551,0 1.08445,-0.0734 1.74643,-0.51264 0.0561,-0.27378 0.0735,-0.29236 0.11086,-0.43741 l 1.46997,-5.38799 z"
         style="fill:#bd9131;fill-opacity:1;fill-rule:evenodd;stroke:none;stroke-width:1"
         inkscape:connector-curvature="0" />
      <polyline
         id="l-2"
         points="204.608041 121.259179 202.477006 121.259179 205.968508 108.365062 208.047077 108.365062 204.608041 121.259179"
         style="fill:#bd9131;fill-opacity:1;fill-rule:evenodd;stroke:none;stroke-width:1" />
    </g>
  </g>
</svg>
