<?xml version="1.0" encoding="UTF-8" standalone="no"?>
<!DOCTYPE svg PUBLIC "-//W3C//DTD SVG 1.1//EN" "http://www.w3.org/Graphics/SVG/1.1/DTD/svg11.dtd">
<svg xmlns="http://www.w3.org/2000/svg" version="1.1" viewBox="0 0 1339 783" width="1339.0pt" height="783.0pt">
<path d="M 0.00 0.00 L 1339.00 0.00 L 1339.00 783.00 L 0.00 783.00 L 0.00 0.00 Z" fill="#ffffff"/>
<path d="M 616.37 55.64 C 617.26 56.78 617.91 58.15 618.49 59.48 C 625.27 75.71 632.07 91.71 638.93 107.98 C 643.16 117.63 646.89 127.55 651.43 137.04 C 650.93 138.24 650.15 139.33 649.36 140.35 C 648.20 140.39 647.09 140.55 646.09 139.86 C 636.74 134.14 627.01 129.07 617.65 123.37 C 616.16 122.45 614.69 121.71 612.93 122.44 C 602.75 128.34 592.39 134.06 582.37 140.20 C 581.49 140.38 580.58 140.43 579.64 140.34 C 577.26 137.72 578.23 135.30 579.62 132.51 C 590.21 107.54 600.92 82.20 611.39 57.18 C 611.95 54.99 614.70 54.62 616.37 55.64 Z" fill="#ed1b24"/>
<path d="M 111.99 60.78 C 115.30 60.55 118.69 60.60 122.00 60.74 C 123.95 61.78 123.49 62.88 122.13 64.17 C 118.67 67.78 115.25 71.31 111.25 74.35 C 108.81 75.04 105.99 74.79 103.50 74.45 C 102.96 71.50 105.14 69.88 106.48 67.48 C 108.11 65.29 109.51 62.06 111.99 60.78 Z" fill="#005fab"/>
<path d="M 220.93 60.70 C 223.96 60.59 227.02 60.61 230.06 60.66 C 231.78 60.76 232.22 62.14 231.41 63.46 C 229.53 65.55 227.45 67.47 225.46 69.47 C 223.68 71.25 221.76 73.24 219.54 74.46 C 217.80 74.92 215.85 74.77 214.06 74.72 C 212.60 74.85 211.56 73.52 212.22 72.18 C 213.39 69.58 215.27 67.28 216.80 64.88 C 217.98 63.23 218.89 61.38 220.93 60.70 Z" fill="#005fab"/>
<path d="M 664.97 60.96 C 669.35 60.15 674.45 60.90 679.00 60.61 C 680.64 60.83 683.74 59.78 684.23 61.99 C 684.36 79.64 684.23 97.36 684.30 115.02 C 684.24 118.27 685.34 122.14 687.99 124.21 C 691.34 126.31 696.68 126.40 699.96 124.13 C 703.13 121.66 703.57 116.74 703.60 113.02 C 703.65 97.35 703.61 81.67 703.61 66.00 C 703.74 64.41 703.27 62.45 704.04 61.03 L 704.96 60.65 C 710.63 60.64 716.34 60.52 722.00 60.74 L 722.65 61.26 C 722.82 77.49 722.68 93.77 722.73 110.00 C 722.69 114.94 722.99 120.07 721.49 124.83 C 720.45 128.79 718.16 132.39 715.36 135.34 C 710.36 139.38 704.43 141.57 697.99 141.73 C 689.35 142.13 680.95 141.59 673.79 136.21 C 666.84 130.91 664.79 122.34 664.60 114.00 C 664.58 96.65 664.61 79.29 664.59 61.94 L 664.97 60.96 Z" fill="#ed1b24"/>
<path d="M 746.99 60.75 C 758.14 60.91 770.22 59.78 780.97 63.11 C 787.82 65.57 792.93 70.94 794.81 77.99 C 797.20 90.11 796.40 101.75 796.42 114.01 C 796.41 116.03 795.77 117.95 795.67 119.98 C 795.08 128.00 789.68 135.17 781.98 137.66 C 770.87 141.35 757.61 140.12 745.97 140.36 C 742.37 140.18 741.06 137.24 740.86 134.02 C 740.77 115.37 740.86 96.65 740.81 78.00 C 740.75 75.98 741.08 74.01 741.18 72.00 C 741.28 69.58 740.49 67.39 741.21 64.99 C 741.41 62.16 744.38 60.56 746.99 60.75 Z" fill="#ed1b24"/>
<path d="M 819.99 60.75 C 834.66 60.76 849.33 60.77 864.00 60.74 C 865.44 60.90 867.62 60.19 868.19 62.02 C 868.09 66.71 868.76 72.30 867.82 76.78 C 856.32 77.25 844.67 76.42 833.21 77.22 C 832.49 80.54 833.26 83.67 832.95 87.00 C 832.82 88.55 833.05 90.05 833.35 91.57 C 840.58 91.58 847.81 91.56 855.04 91.57 C 855.91 91.45 856.69 91.74 857.37 92.42 C 857.23 96.91 857.26 101.40 857.32 105.89 C 857.41 106.47 857.17 107.02 856.62 107.51 C 850.43 107.78 844.20 107.54 838.00 107.60 C 836.62 107.77 834.36 107.19 833.33 108.23 C 833.17 113.37 833.22 118.57 833.32 123.71 C 845.29 124.13 858.25 123.44 870.09 124.06 L 870.54 124.95 C 870.41 129.90 871.02 135.31 870.19 140.14 L 869.07 140.35 C 852.38 140.32 835.65 140.38 818.97 140.32 C 816.23 140.25 813.81 137.86 814.22 135.02 C 814.21 112.02 814.17 88.97 814.16 65.98 C 813.97 62.72 816.95 60.66 819.99 60.75 Z" fill="#ed1b24"/>
<path d="M 760.36 77.24 C 761.32 75.90 764.49 76.70 766.01 76.60 C 770.53 76.75 774.26 78.74 775.78 83.17 C 778.02 90.81 777.31 100.07 777.23 108.01 C 776.60 112.60 777.01 118.10 773.66 121.66 C 771.03 124.41 767.56 124.42 764.00 124.52 C 762.66 124.37 760.12 125.08 760.35 122.90 C 760.33 107.70 760.30 92.44 760.36 77.24 Z" fill="#ffffff"/>
<path d="M 146.98 80.76 C 155.08 80.95 164.81 79.97 172.51 82.69 C 177.44 84.43 180.88 88.56 182.39 93.47 C 184.14 100.93 183.54 109.34 183.63 117.00 C 183.71 122.08 183.49 127.46 180.90 131.97 C 177.58 137.02 171.86 139.40 165.99 139.76 C 159.77 140.77 153.29 140.15 147.00 140.34 C 144.76 140.55 142.26 139.51 142.21 136.97 C 142.18 119.36 142.13 101.66 142.23 84.06 C 142.33 81.60 144.80 80.54 146.98 80.76 Z" fill="#005fab"/>
<path d="M 464.87 80.36 C 471.59 81.28 476.95 86.28 479.27 92.49 C 480.85 99.10 480.12 105.96 480.28 113.00 C 480.23 119.40 480.68 127.49 477.08 133.07 C 474.27 138.20 468.78 141.29 463.02 141.69 C 457.03 141.97 451.51 142.24 446.42 138.58 C 441.50 135.26 439.46 129.94 439.20 124.17 C 438.23 119.11 438.76 114.23 438.62 109.00 C 438.74 104.03 438.21 98.87 439.43 94.15 C 440.63 88.26 445.12 82.71 450.99 81.01 C 455.56 79.74 460.21 79.23 464.87 80.36 Z" fill="#005fab"/>
<path d="M 41.97 80.82 C 52.31 80.77 62.66 80.84 73.00 80.79 C 74.53 80.87 76.38 80.53 77.79 81.19 C 78.38 84.69 78.35 89.21 77.71 92.71 C 69.41 92.94 61.07 92.58 52.78 92.88 L 52.27 93.88 C 52.60 96.87 51.57 101.39 52.86 103.92 C 58.15 104.46 63.54 103.89 68.84 104.22 L 69.27 105.00 C 69.16 108.56 69.67 112.53 68.98 115.98 C 63.76 116.81 57.71 116.03 52.32 116.34 C 52.08 122.89 52.33 129.46 52.21 136.02 C 52.00 137.13 51.71 138.24 51.33 139.33 C 48.23 140.69 45.24 140.26 41.97 140.29 C 39.58 140.30 37.65 138.49 37.76 136.03 C 37.75 119.02 37.74 101.98 37.77 84.97 C 37.67 82.59 39.56 80.65 41.97 80.82 Z" fill="#005fab"/>
<path d="M 92.98 80.80 C 104.63 80.87 116.34 80.70 127.97 80.87 L 128.78 81.18 C 128.85 85.00 128.99 88.88 128.72 92.70 C 121.49 92.87 114.24 92.73 107.00 92.76 C 105.68 92.91 102.96 92.30 102.48 93.94 C 102.50 96.97 102.38 100.03 102.61 103.05 L 103.26 103.60 C 108.80 103.81 114.46 103.37 119.98 103.80 L 120.61 104.31 C 120.68 108.06 120.72 111.86 120.57 115.61 C 114.98 116.11 108.43 115.12 103.06 116.10 L 102.64 116.96 C 102.81 120.41 102.11 124.62 103.01 127.87 C 112.17 128.48 121.49 127.68 130.65 128.28 C 130.63 132.09 130.69 135.90 130.63 139.71 C 129.99 140.26 129.12 140.47 128.02 140.36 C 116.01 140.28 103.97 140.37 91.96 140.32 C 90.41 140.28 88.33 138.73 88.48 137.04 C 88.39 121.07 88.38 104.97 88.38 89.00 C 88.42 87.01 88.22 84.91 88.62 82.95 C 89.60 81.21 91.05 80.69 92.98 80.80 Z" fill="#005fab"/>
<path d="M 200.97 80.83 C 212.99 80.90 225.16 80.60 237.14 80.97 C 237.94 84.42 237.28 88.47 237.48 92.05 L 236.94 92.77 C 229.96 92.80 222.98 92.77 216.00 92.76 C 214.51 92.85 212.62 92.50 211.27 93.23 C 211.13 96.66 211.09 100.20 211.33 103.62 C 216.90 103.70 222.47 103.57 228.04 103.64 L 228.96 104.03 C 229.42 107.37 229.76 112.50 228.72 115.66 C 224.49 115.77 220.24 115.69 216.00 115.69 C 214.56 115.79 212.54 115.38 211.32 116.26 C 211.19 120.08 211.24 123.93 211.29 127.76 C 220.39 128.57 229.75 127.73 238.90 128.17 L 239.28 129.00 C 239.09 132.51 239.75 136.61 238.92 139.94 L 238.04 140.37 C 225.67 140.31 213.34 140.33 200.97 140.33 C 198.43 140.29 196.86 138.55 196.86 136.03 C 196.85 119.02 196.76 101.97 196.84 84.97 C 196.97 82.44 198.34 80.80 200.97 80.83 Z" fill="#005fab"/>
<path d="M 251.31 81.24 C 255.74 80.44 260.49 81.05 265.00 80.87 C 271.42 80.99 279.75 80.13 285.47 83.53 C 289.97 85.83 292.68 91.05 292.82 96.00 C 293.29 101.54 292.44 107.26 288.15 111.18 C 286.48 112.85 284.20 113.40 282.49 114.96 C 286.30 123.03 290.41 130.98 294.30 139.01 L 294.19 140.09 C 290.55 140.66 286.70 140.17 283.00 140.35 C 281.26 140.17 279.80 141.01 278.86 139.07 C 275.40 131.72 272.17 124.85 268.63 117.39 C 266.84 116.34 265.19 116.46 265.41 118.98 C 265.42 125.84 265.45 132.73 265.42 139.60 C 264.99 140.23 264.48 140.50 263.89 140.41 C 259.75 140.36 255.61 140.32 251.46 140.43 C 251.14 120.74 251.44 100.94 251.31 81.24 Z" fill="#005fab"/>
<path d="M 317.41 81.45 C 319.92 80.25 323.26 81.01 326.00 80.81 C 328.40 81.00 331.46 80.29 333.61 81.46 C 334.86 82.59 335.00 84.98 335.56 86.53 C 338.77 96.53 341.27 106.82 344.40 116.83 C 346.53 123.91 348.64 130.80 350.25 138.01 C 349.92 139.20 349.19 139.95 348.07 140.29 C 345.03 140.41 341.96 140.37 338.92 140.32 C 338.17 140.00 337.52 139.58 336.96 139.06 C 335.51 136.01 335.61 131.67 333.96 128.88 C 329.79 128.32 325.25 128.82 321.00 128.62 C 319.67 128.73 317.44 128.22 317.22 130.11 C 316.17 133.02 316.29 138.86 313.02 140.24 C 310.01 140.43 306.97 140.35 303.95 140.30 C 302.39 140.10 301.04 138.65 301.54 137.00 C 304.99 123.72 308.95 110.54 312.64 97.18 C 314.35 92.04 315.37 86.45 317.41 81.45 Z" fill="#005fab"/>
<path d="M 353.60 81.42 C 355.02 80.78 356.47 80.86 358.00 80.85 C 369.67 80.87 381.33 80.87 393.00 80.85 C 394.56 80.91 396.31 80.67 397.81 81.18 C 397.82 85.01 398.08 88.93 397.74 92.74 C 393.20 93.11 388.44 92.35 383.97 93.14 L 383.48 93.95 C 383.51 109.13 383.50 124.44 383.49 139.63 C 383.05 140.24 382.52 140.49 381.89 140.40 C 377.72 140.39 373.56 140.34 369.40 140.44 L 368.70 139.08 C 368.69 123.83 368.76 108.56 368.68 93.31 C 363.83 92.15 358.54 93.33 353.61 92.56 C 353.74 88.84 353.74 85.14 353.60 81.42 Z" fill="#005fab"/>
<path d="M 409.22 81.19 C 413.48 80.37 418.67 80.83 423.07 80.98 L 423.36 81.97 C 423.37 100.95 423.38 120.08 423.36 139.06 L 423.08 140.11 C 418.83 140.60 414.30 140.31 409.99 140.28 L 409.26 139.80 C 409.10 120.30 409.19 100.70 409.22 81.19 Z" fill="#005fab"/>
<path d="M 494.24 81.20 C 497.24 80.34 500.86 81.00 504.00 80.79 C 505.39 80.94 507.44 80.33 508.15 81.91 C 512.90 90.43 517.58 99.01 522.31 107.54 C 523.13 108.72 523.09 110.72 524.71 110.85 C 524.33 101.22 524.57 91.58 524.49 81.95 L 524.87 80.97 C 528.94 80.84 533.78 80.33 537.71 81.25 C 537.80 99.15 537.71 117.09 537.75 135.00 C 537.74 136.79 537.77 138.64 537.56 140.42 C 533.85 140.38 530.15 140.40 526.45 140.38 C 525.62 139.61 525.05 138.49 524.49 137.52 C 519.87 129.14 515.23 120.84 510.52 112.51 C 509.45 110.82 508.92 108.29 507.28 107.09 C 507.44 117.40 507.26 127.72 507.37 138.04 C 507.48 138.96 507.22 139.76 506.60 140.44 C 502.53 140.34 498.47 140.35 494.40 140.47 C 494.11 138.70 494.17 136.79 494.17 135.00 C 494.23 117.08 494.09 99.10 494.24 81.20 Z" fill="#005fab"/>
<path d="M 265.45 91.43 C 268.14 91.36 270.87 91.28 273.54 91.58 C 275.93 92.00 277.75 93.51 278.15 95.96 C 278.63 99.32 278.78 103.56 275.20 105.25 C 272.33 106.34 268.30 106.75 265.42 105.64 C 265.39 100.91 265.35 96.16 265.45 91.43 Z" fill="#ffffff"/>
<path d="M 461.02 92.18 C 463.47 92.22 465.39 94.60 465.40 96.97 C 465.64 105.30 465.48 113.66 465.48 122.00 C 465.53 124.75 464.76 127.62 462.53 129.39 C 460.60 130.01 458.38 130.13 456.43 129.53 C 454.00 128.13 453.45 125.58 453.26 122.99 C 453.02 117.33 453.22 111.66 453.15 106.00 C 453.31 102.42 452.71 98.36 453.80 94.93 C 455.19 91.77 458.08 92.04 461.02 92.18 Z" fill="#ffffff"/>
<path d="M 156.80 92.83 C 161.40 91.94 166.51 92.85 168.25 97.79 C 169.91 104.17 169.26 111.42 169.15 118.00 C 168.62 121.50 168.66 125.40 165.21 127.40 C 162.69 128.45 159.43 128.84 156.78 128.21 L 156.54 127.08 C 156.52 116.06 156.53 104.96 156.53 93.93 L 156.80 92.83 Z" fill="#ffffff"/>
<path d="M 325.21 96.21 L 326.00 96.23 C 327.53 100.33 328.10 104.79 329.23 109.01 C 329.73 111.68 330.87 114.27 330.85 116.91 C 327.93 117.78 323.89 117.32 320.79 117.14 L 320.45 116.07 C 322.17 109.49 323.59 102.82 325.21 96.21 Z" fill="#ffffff"/>
<path d="M 1305.75 167.36 C 1305.69 174.63 1304.24 181.74 1304.21 189.01 C 1303.16 195.06 1302.53 201.33 1302.14 207.47 C 1300.99 211.62 1301.66 215.84 1300.51 219.97 C 1300.26 225.06 1298.93 229.87 1299.17 235.02 C 1298.48 238.62 1297.69 242.31 1297.36 245.99 C 1297.22 251.02 1295.86 255.97 1295.42 260.99 C 1295.18 266.97 1293.29 272.94 1293.24 279.01 C 1290.29 295.92 1288.22 314.52 1284.91 331.56 C 1283.68 341.43 1281.46 351.12 1280.30 361.01 C 1279.00 368.93 1276.97 376.82 1276.18 384.82 C 1273.78 394.71 1272.21 404.58 1270.30 414.58 C 1270.16 415.01 1269.90 415.39 1269.50 415.70 C 1268.09 413.82 1267.37 411.71 1266.36 409.62 C 1262.25 401.94 1257.57 394.62 1252.63 387.46 C 1251.80 386.42 1251.56 385.15 1249.99 385.14 C 1249.89 386.09 1249.84 387.03 1249.83 387.99 C 1249.84 435.33 1249.83 482.66 1249.83 530.00 C 1249.86 533.19 1249.89 536.37 1249.63 539.56 C 1245.40 539.93 1241.23 539.75 1237.00 539.78 C 1182.03 539.83 1126.90 539.69 1071.95 539.85 C 1074.25 539.47 1076.67 539.64 1079.00 539.62 C 1134.68 539.63 1190.35 539.62 1246.03 539.63 C 1248.27 539.82 1249.92 538.32 1249.69 536.03 C 1249.67 486.17 1249.77 433.46 1249.63 383.92 C 1243.46 373.33 1233.03 364.26 1224.49 355.51 C 1222.24 352.99 1219.24 351.51 1216.92 349.07 C 1213.27 345.02 1208.01 342.54 1203.58 339.42 C 1200.01 335.88 1195.38 333.34 1191.03 330.92 C 1188.96 328.90 1186.07 328.84 1183.89 326.96 C 1179.79 324.78 1175.54 322.85 1171.50 320.53 C 1167.04 318.70 1163.37 316.03 1158.57 315.14 C 1155.46 313.35 1152.02 311.92 1148.52 311.12 C 1146.35 310.19 1144.35 309.05 1142.00 308.57 C 1136.50 307.40 1131.92 304.56 1126.18 304.32 C 1121.41 302.92 1116.42 301.55 1111.44 301.31 C 1110.64 300.92 1110.34 300.39 1110.53 299.72 C 1113.96 297.43 1117.95 295.75 1120.98 292.98 C 1123.35 290.85 1126.43 289.98 1128.63 287.58 C 1130.48 285.53 1132.93 284.74 1135.10 283.17 C 1137.50 280.46 1140.96 279.08 1144.00 277.10 C 1147.77 275.57 1150.17 272.28 1153.80 270.67 C 1167.23 261.11 1183.42 250.24 1197.23 241.22 C 1201.86 238.89 1205.30 235.15 1209.81 232.66 C 1215.52 229.63 1220.14 224.70 1225.94 221.84 C 1229.12 219.28 1232.68 217.32 1235.95 214.90 C 1240.45 211.25 1245.66 208.69 1250.19 205.13 C 1251.29 204.58 1252.32 204.35 1252.97 203.22 C 1259.81 198.26 1266.94 193.67 1273.88 188.85 C 1284.48 181.87 1295.04 174.01 1305.75 167.36 Z" fill="#ed1b24"/>
<path d="M 26.17 193.26 C 36.76 193.10 47.40 193.25 58.00 193.20 C 452.67 193.20 847.33 193.20 1242.00 193.20 C 1244.83 193.23 1247.73 193.01 1250.53 193.37 C 1250.75 196.83 1250.05 200.70 1250.89 204.04 C 1251.60 203.79 1252.29 203.51 1252.97 203.22 C 1252.32 204.35 1251.29 204.58 1250.19 205.13 C 1245.66 208.69 1240.45 211.25 1235.95 214.90 C 1232.68 217.32 1229.12 219.28 1225.94 221.84 C 1220.14 224.70 1215.52 229.63 1209.81 232.66 C 1205.30 235.15 1201.86 238.89 1197.23 241.22 C 1183.42 250.24 1167.23 261.11 1153.80 270.67 C 1150.17 272.28 1147.77 275.57 1144.00 277.10 C 1140.96 279.08 1137.50 280.46 1135.10 283.17 C 1132.93 284.74 1130.48 285.53 1128.63 287.58 C 1126.43 289.98 1123.35 290.85 1120.98 292.98 C 1117.95 295.75 1113.96 297.43 1110.53 299.72 C 1110.34 300.39 1110.64 300.92 1111.44 301.31 C 1116.42 301.55 1121.41 302.92 1126.18 304.32 C 1131.92 304.56 1136.50 307.40 1142.00 308.57 C 1144.35 309.05 1146.35 310.19 1148.52 311.12 C 1152.02 311.92 1155.46 313.35 1158.57 315.14 C 1163.37 316.03 1167.04 318.70 1171.50 320.53 C 1175.54 322.85 1179.79 324.78 1183.89 326.96 C 1186.07 328.84 1188.96 328.90 1191.03 330.92 C 1195.38 333.34 1200.01 335.88 1203.58 339.42 C 1208.01 342.54 1213.27 345.02 1216.92 349.07 C 1219.24 351.51 1222.24 352.99 1224.49 355.51 C 1233.03 364.26 1243.46 373.33 1249.63 383.92 C 1249.77 433.46 1249.67 486.17 1249.69 536.03 C 1249.92 538.32 1248.27 539.82 1246.03 539.63 C 1190.35 539.62 1134.68 539.63 1079.00 539.62 C 1076.67 539.64 1074.25 539.47 1071.95 539.85 C 1070.16 540.25 1068.48 540.10 1066.70 539.77 C 1068.95 535.21 1071.14 530.72 1073.38 526.17 C 1076.84 520.76 1079.73 515.05 1082.32 509.18 C 1084.27 506.12 1085.86 503.09 1086.85 499.57 C 1088.23 497.62 1089.34 495.96 1089.86 493.56 C 1092.81 489.90 1093.97 484.94 1096.13 481.05 C 1098.04 478.29 1098.78 475.09 1100.46 472.21 C 1102.33 469.08 1103.49 465.63 1105.32 462.47 C 1110.08 450.94 1115.82 439.84 1120.31 428.15 C 1122.82 423.95 1123.92 419.26 1125.89 414.83 C 1127.53 411.82 1129.15 408.86 1129.67 405.38 C 1125.67 405.10 1122.61 406.87 1119.00 408.20 C 1114.35 408.79 1110.15 410.96 1105.54 411.86 C 1098.44 414.43 1091.24 415.74 1084.42 419.08 C 1075.22 421.27 1066.31 424.66 1057.16 427.08 C 1052.65 428.25 1048.31 430.08 1043.81 431.24 C 1039.95 431.81 1036.43 433.42 1032.55 433.88 C 1028.37 435.96 1023.86 436.18 1019.59 437.93 C 1017.60 438.77 1015.69 438.46 1013.95 439.97 C 1008.96 441.49 1003.96 442.85 998.91 444.13 C 996.24 445.44 993.44 446.21 990.54 446.86 C 982.87 449.44 975.00 451.46 967.31 453.98 C 967.22 446.41 967.18 438.81 967.28 431.24 C 971.92 430.32 977.07 431.19 981.83 430.78 C 982.29 426.20 982.34 419.82 981.77 415.27 C 977.12 414.85 971.78 415.86 967.33 414.72 C 966.87 407.93 967.77 400.80 966.91 394.09 C 965.11 394.03 963.21 394.89 961.51 395.45 C 956.80 397.16 951.89 398.42 947.25 400.31 L 946.68 401.01 C 946.36 405.54 946.70 410.12 946.57 414.66 C 942.80 415.91 938.24 414.82 934.27 415.30 C 933.76 420.25 933.62 425.80 934.23 430.74 C 938.07 431.18 942.11 430.44 945.89 431.12 C 946.56 440.90 945.85 451.15 946.24 461.00 C 942.67 462.27 938.96 462.64 935.47 464.14 C 932.15 464.69 930.08 466.80 926.57 466.82 C 925.72 466.20 926.00 463.97 925.95 463.00 C 926.34 455.35 926.04 447.66 926.13 440.00 C 926.10 431.92 923.75 423.07 917.01 417.99 C 910.10 412.66 900.37 412.70 892.44 415.49 C 886.77 417.60 883.33 421.88 880.29 426.87 C 879.80 422.98 880.42 419.11 879.76 415.28 C 873.60 415.19 867.39 415.17 861.23 415.28 C 860.59 417.38 860.85 419.82 860.80 422.00 C 860.82 439.67 860.81 457.33 860.80 475.00 C 860.84 476.96 860.62 478.73 861.32 480.60 C 868.10 480.60 874.89 480.62 881.67 480.58 C 882.37 469.79 881.46 458.81 882.16 448.01 C 882.31 443.96 883.46 440.09 885.74 436.73 C 888.62 432.66 894.39 431.43 898.92 433.06 C 903.63 435.26 904.69 441.34 904.89 445.99 C 904.97 455.07 904.97 464.17 904.87 473.25 C 901.70 473.54 898.83 474.70 896.25 476.52 C 898.81 476.41 903.47 476.20 904.76 478.98 L 905.96 480.51 C 910.97 480.61 915.99 480.41 921.00 480.59 C 920.65 480.88 920.49 481.19 920.54 481.51 C 921.36 481.53 922.18 481.60 922.99 481.70 C 927.07 483.63 931.39 484.86 935.53 486.64 C 939.87 488.92 944.12 491.38 948.45 493.69 C 953.13 497.19 958.43 500.15 962.96 504.03 C 965.78 506.86 968.65 509.72 971.56 512.46 C 975.30 516.14 977.79 520.62 981.33 524.54 C 984.26 529.65 987.84 534.45 990.19 539.85 C 986.19 540.39 982.05 540.04 978.00 540.13 C 663.00 540.15 348.00 540.13 33.00 540.14 C 30.70 540.10 28.28 540.34 26.03 539.88 C 25.65 539.01 25.51 538.06 25.61 537.01 C 25.65 424.68 25.63 312.33 25.62 200.00 C 25.79 197.94 25.13 195.05 26.17 193.26 Z" fill="#4e8fc5"/>
<path d="M 65.26 260.37 C 67.39 260.28 69.56 260.29 71.69 260.38 C 72.06 262.87 71.89 265.48 71.92 268.00 C 71.91 294.00 71.91 320.00 71.91 346.00 C 71.90 348.88 72.05 351.82 71.72 354.68 C 69.57 354.74 67.40 354.75 65.25 354.64 C 64.76 353.95 64.56 353.08 64.66 352.02 C 64.70 323.02 64.70 294.01 64.66 265.00 C 64.76 263.58 64.37 261.56 65.26 260.37 Z" fill="#ffffff"/>
<path d="M 169.38 260.42 C 176.15 260.26 182.96 260.21 189.73 260.38 C 190.71 261.47 190.23 263.61 190.37 265.00 C 190.32 293.33 190.37 321.67 190.34 350.00 C 190.21 351.42 190.66 353.48 189.76 354.66 C 182.98 354.70 176.16 354.81 169.38 354.60 C 169.19 351.74 169.26 348.86 169.25 346.00 C 169.35 317.51 169.09 288.89 169.38 260.42 Z" fill="#ffffff"/>
<path d="M 537.38 260.40 C 539.75 260.26 542.17 260.25 544.54 260.41 C 544.56 291.79 544.54 323.20 544.55 354.58 C 542.18 354.76 539.76 354.80 537.39 354.63 C 537.14 351.77 537.56 348.81 537.07 345.99 C 535.51 345.94 534.71 348.65 533.64 349.63 C 525.58 359.41 508.32 358.00 500.88 348.11 C 493.71 339.09 492.80 326.02 493.93 315.00 C 494.53 307.13 497.49 298.86 503.70 293.70 C 509.36 289.31 516.30 288.44 523.22 289.64 C 528.91 290.94 533.20 294.94 536.27 299.74 L 537.06 299.99 C 537.66 286.89 536.98 273.54 537.38 260.40 Z" fill="#ffffff"/>
<path d="M 208.96 262.12 C 212.59 261.62 216.34 261.97 220.00 261.87 C 223.16 261.95 226.56 261.57 229.64 262.30 C 229.70 267.44 229.68 272.60 229.62 277.74 L 228.97 278.24 C 224.35 278.63 219.64 278.28 215.00 278.41 C 213.01 278.33 210.79 278.69 208.88 278.08 C 208.09 274.93 208.73 271.27 208.52 268.00 C 208.67 266.15 208.10 263.78 208.96 262.12 Z" fill="#ffffff"/>
<path d="M 274.00 288.08 C 281.14 289.29 286.34 293.86 290.25 299.73 L 291.03 299.92 C 291.64 296.50 291.00 292.84 291.37 289.36 C 297.47 289.15 303.67 289.21 309.77 289.32 C 310.59 290.57 310.21 292.54 310.34 294.00 C 310.33 311.00 310.33 328.00 310.34 345.00 C 310.45 352.06 309.80 359.61 307.24 366.24 C 303.90 374.34 296.45 379.58 288.00 381.26 C 275.48 383.72 262.38 382.89 250.35 378.59 C 250.01 375.44 250.50 372.18 250.52 369.00 C 250.70 366.21 250.32 363.80 251.30 361.23 C 257.56 363.48 263.03 366.46 270.00 366.37 C 276.96 366.83 285.46 364.36 288.59 357.51 C 290.93 353.25 290.66 348.92 290.59 344.23 C 289.05 344.39 288.35 346.28 287.29 347.30 C 280.51 355.04 268.52 356.42 259.33 352.67 C 251.80 349.57 247.04 343.09 244.49 335.56 C 243.37 332.42 243.49 329.22 242.72 326.01 C 241.90 315.59 243.53 303.79 250.68 295.66 C 256.33 288.94 265.61 286.95 274.00 288.08 Z" fill="#ffffff"/>
<path d="M 442.01 288.88 C 450.65 291.00 457.33 297.55 460.36 305.82 C 462.84 312.63 464.29 320.98 463.12 328.09 L 462.06 328.41 C 448.50 328.51 434.90 328.44 421.34 328.44 C 421.02 333.87 425.78 339.08 430.99 340.19 C 439.75 342.40 449.50 340.87 457.36 336.48 L 457.72 336.57 C 457.82 341.62 457.86 346.73 457.71 351.79 L 457.21 352.26 C 449.04 355.68 439.77 356.71 430.99 356.02 C 421.51 355.12 412.56 351.01 406.60 343.44 C 401.69 336.84 399.17 328.17 399.64 319.97 C 400.14 310.27 403.71 300.69 411.51 294.51 C 419.79 287.94 431.95 286.36 442.01 288.88 Z" fill="#ffffff"/>
<path d="M 112.00 289.20 C 117.97 289.13 124.44 290.80 127.93 296.04 C 132.57 302.50 131.87 311.49 131.90 319.00 C 132.07 330.83 131.42 342.82 132.56 354.59 C 130.19 354.78 127.79 354.74 125.42 354.60 C 125.24 351.76 125.63 348.79 125.13 346.00 C 124.40 346.07 123.80 346.53 123.34 347.38 C 116.80 357.16 101.11 359.12 92.08 351.87 C 83.54 344.46 84.49 328.23 93.67 321.69 C 102.67 315.38 114.09 315.87 124.57 315.58 C 124.64 311.85 124.88 307.69 123.70 304.14 C 122.65 300.22 119.58 297.01 115.49 296.34 C 108.14 294.78 99.83 296.96 93.43 300.72 C 93.32 298.30 93.25 295.86 93.46 293.45 C 99.34 290.74 105.45 288.84 112.00 289.20 Z" fill="#ffffff"/>
<path d="M 208.46 289.38 C 215.46 289.15 222.59 289.18 229.60 289.36 C 229.71 311.10 229.73 332.87 229.59 354.61 C 222.56 354.76 215.49 354.77 208.47 354.59 C 208.47 332.87 208.48 311.09 208.46 289.38 Z" fill="#ffffff"/>
<path d="M 324.34 289.35 C 331.14 289.15 337.98 289.25 344.78 289.29 C 345.46 290.67 345.21 292.50 345.28 294.00 C 345.25 303.34 345.25 312.67 345.26 322.01 C 345.34 325.97 345.86 330.59 348.07 333.97 C 351.36 338.90 359.51 338.14 363.40 334.39 C 366.98 330.66 368.08 324.99 368.23 320.00 C 368.37 309.80 368.10 299.57 368.36 289.37 C 375.15 289.14 382.02 289.22 388.81 289.32 L 389.28 290.03 C 389.53 309.94 389.28 330.06 389.40 350.00 C 389.26 351.41 389.76 353.55 388.80 354.68 C 382.64 354.69 376.48 354.72 370.33 354.64 C 369.91 351.13 370.45 347.50 369.94 343.99 C 368.64 344.16 368.01 346.25 367.18 347.16 C 359.25 357.96 341.35 359.60 331.58 350.42 C 326.05 345.24 324.06 337.35 324.19 330.00 C 324.29 316.47 323.99 302.87 324.34 289.35 Z" fill="#ffffff"/>
<path d="M 597.30 293.70 C 603.77 298.97 606.62 307.92 606.69 316.01 C 606.74 318.80 607.81 322.04 606.77 324.71 C 595.20 324.93 583.59 324.76 572.00 324.78 C 570.18 324.88 567.96 324.48 566.27 325.23 C 565.82 334.37 570.09 345.35 579.46 348.47 C 587.79 351.49 595.03 348.18 602.67 345.24 C 602.80 347.69 602.87 350.19 602.58 352.64 C 597.81 354.91 592.24 355.88 587.00 356.20 C 580.67 356.34 574.55 355.52 569.34 351.68 C 562.56 346.82 559.20 338.07 558.48 330.02 C 557.83 321.05 557.89 311.35 562.22 303.21 C 565.32 296.73 570.75 291.57 577.79 289.71 C 584.73 288.45 591.70 289.05 597.30 293.70 Z" fill="#ffffff"/>
<path d="M 528.30 298.70 C 534.27 303.39 535.93 311.12 537.33 318.16 C 537.54 322.31 537.62 326.40 536.55 330.46 C 535.76 336.14 533.59 341.41 529.54 345.54 C 524.20 350.59 515.37 350.83 509.61 346.37 C 504.90 342.51 502.77 335.87 502.01 330.02 C 501.18 322.93 501.33 315.29 503.51 308.44 C 504.82 304.65 506.94 300.63 510.39 298.37 C 515.63 294.71 523.11 295.28 528.30 298.70 Z" fill="#4e8fc5"/>
<path d="M 581.00 296.06 C 585.11 295.17 589.77 296.19 592.84 299.15 C 596.72 302.91 598.19 307.78 598.89 313.00 C 599.00 314.47 599.72 316.54 598.90 317.86 C 597.35 318.33 595.60 318.12 594.00 318.17 C 586.33 318.13 578.67 318.14 571.00 318.17 C 569.44 318.14 567.71 318.27 566.21 317.81 C 565.81 309.02 571.69 297.77 581.00 296.06 Z" fill="#4e8fc5"/>
<path d="M 437.16 302.69 C 441.13 303.57 443.09 307.36 444.03 310.99 C 444.21 312.25 445.10 314.80 443.83 315.66 C 436.30 315.81 428.75 315.72 421.22 315.72 C 420.59 311.17 422.86 306.24 426.61 303.62 C 429.79 301.59 433.64 301.38 437.16 302.69 Z" fill="#4e8fc5"/>
<path d="M 272.46 305.58 C 277.32 304.12 283.30 305.30 286.41 309.55 C 289.70 313.39 290.14 318.16 289.82 323.02 C 289.36 327.73 287.29 332.63 283.17 335.27 C 280.50 337.38 277.24 337.63 273.97 337.19 C 270.06 336.22 267.22 333.08 265.64 329.51 C 264.14 325.64 264.20 321.06 264.63 316.99 C 265.32 312.24 267.84 307.49 272.46 305.58 Z" fill="#4e8fc5"/>
<path d="M 124.59 322.43 C 124.60 327.65 124.87 332.47 123.45 337.53 C 121.81 344.14 115.91 349.32 109.03 349.52 C 104.75 349.70 100.82 349.57 97.53 346.46 C 91.85 340.91 93.73 329.44 101.01 326.02 C 108.53 321.87 116.30 322.41 124.59 322.43 Z" fill="#4e8fc5"/>
<path d="M 71.73 386.33 C 72.08 389.18 71.88 392.13 71.92 395.00 C 71.91 421.00 71.91 447.00 71.92 473.00 C 71.88 475.50 72.11 478.12 71.67 480.59 C 69.56 480.63 67.44 480.64 65.33 480.58 C 64.41 479.41 64.76 477.41 64.67 476.00 C 64.78 446.44 64.52 416.55 64.80 387.04 C 65.54 385.47 70.08 386.51 71.73 386.33 Z" fill="#ffffff"/>
<path d="M 404.54 388.41 C 407.44 387.36 410.95 387.99 414.00 387.83 C 417.84 388.00 422.01 387.40 425.76 388.19 C 425.86 393.40 425.89 398.68 425.78 403.89 C 421.54 404.83 416.42 404.10 412.00 404.34 C 409.67 404.13 406.57 404.91 404.57 403.59 C 404.67 398.53 404.69 393.47 404.54 388.41 Z" fill="#ffffff"/>
<path d="M 94.28 393.26 C 96.73 392.74 99.17 392.57 101.57 393.37 C 101.62 402.12 101.63 410.89 101.56 419.64 C 99.77 420.54 96.08 420.60 94.28 419.79 C 94.17 410.96 94.18 402.10 94.28 393.26 Z" fill="#ffffff"/>
<path d="M 966.91 394.09 C 967.77 400.80 966.87 407.93 967.33 414.72 C 971.78 415.86 977.12 414.85 981.77 415.27 C 982.34 419.82 982.29 426.20 981.83 430.78 C 977.07 431.19 971.92 430.32 967.28 431.24 C 967.18 438.81 967.22 446.41 967.31 453.98 C 967.30 458.78 967.09 462.63 970.73 466.24 C 974.84 467.75 978.31 466.63 982.44 466.41 C 982.37 471.18 982.87 475.96 982.71 480.72 C 975.52 482.34 967.77 482.78 960.49 481.30 C 956.83 480.37 953.00 478.44 950.57 475.48 C 947.78 470.93 946.30 466.39 946.24 461.00 C 945.85 451.15 946.56 440.90 945.89 431.12 C 942.11 430.44 938.07 431.18 934.23 430.74 C 933.62 425.80 933.76 420.25 934.27 415.30 C 938.24 414.82 942.80 415.91 946.57 414.66 C 946.70 410.12 946.36 405.54 946.68 401.01 L 947.25 400.31 C 951.89 398.42 956.80 397.16 961.51 395.45 C 963.21 394.89 965.11 394.03 966.91 394.09 Z" fill="#ffffff"/>
<path d="M 1129.67 405.38 C 1129.15 408.86 1127.53 411.82 1125.89 414.83 C 1123.92 419.26 1122.82 423.95 1120.31 428.15 C 1115.82 439.84 1110.08 450.94 1105.32 462.47 C 1103.49 465.63 1102.33 469.08 1100.46 472.21 C 1098.78 475.09 1098.04 478.29 1096.13 481.05 C 1093.97 484.94 1092.81 489.90 1089.86 493.56 C 1089.34 495.96 1088.23 497.62 1086.85 499.57 C 1085.86 503.09 1084.27 506.12 1082.32 509.18 C 1079.73 515.05 1076.84 520.76 1073.38 526.17 C 1071.14 530.72 1068.95 535.21 1066.70 539.77 C 1064.59 542.36 1063.25 545.64 1061.53 548.53 C 1060.48 550.57 1058.99 552.61 1058.41 554.83 C 1055.37 558.99 1053.32 564.19 1050.24 568.41 C 1047.40 572.68 1044.97 577.25 1042.65 581.82 C 1041.05 584.47 1039.14 586.90 1037.71 589.66 C 1035.56 594.75 1031.73 598.71 1029.50 603.81 C 1025.73 609.08 1022.59 614.68 1019.17 620.17 C 1017.51 621.72 1016.45 623.88 1014.91 625.59 C 1014.08 628.91 1011.11 630.58 1010.24 634.05 C 1008.89 634.95 1007.54 635.83 1006.35 636.96 C 1007.17 631.08 1006.64 624.94 1006.84 619.00 C 1006.61 611.41 1007.21 603.47 1005.75 596.01 C 1005.35 586.82 1003.07 577.77 1001.39 568.76 C 1001.13 568.59 1000.86 568.42 1000.59 568.27 C 1000.05 563.89 998.49 558.79 996.53 554.83 C 995.21 549.60 992.74 544.58 990.19 539.85 C 987.84 534.45 984.26 529.65 981.33 524.54 C 977.79 520.62 975.30 516.14 971.56 512.46 C 968.65 509.72 965.78 506.86 962.96 504.03 C 958.43 500.15 953.13 497.19 948.45 493.69 C 944.12 491.38 939.87 488.92 935.53 486.64 C 931.39 484.86 927.07 483.63 922.99 481.70 C 922.18 481.60 921.36 481.53 920.54 481.51 C 920.49 481.19 920.65 480.88 921.00 480.59 C 922.66 480.51 924.83 480.87 926.38 480.35 C 926.32 475.90 925.92 471.21 926.57 466.82 C 930.08 466.80 932.15 464.69 935.47 464.14 C 938.96 462.64 942.67 462.27 946.24 461.00 C 946.30 466.39 947.78 470.93 950.57 475.48 C 953.00 478.44 956.83 480.37 960.49 481.30 C 967.77 482.78 975.52 482.34 982.71 480.72 C 982.87 475.96 982.37 471.18 982.44 466.41 C 978.31 466.63 974.84 467.75 970.73 466.24 C 967.09 462.63 967.30 458.78 967.31 453.98 C 975.00 451.46 982.87 449.44 990.54 446.86 C 993.44 446.21 996.24 445.44 998.91 444.13 C 1003.96 442.85 1008.96 441.49 1013.95 439.97 C 1015.69 438.46 1017.60 438.77 1019.59 437.93 C 1023.86 436.18 1028.37 435.96 1032.55 433.88 C 1036.43 433.42 1039.95 431.81 1043.81 431.24 C 1048.31 430.08 1052.65 428.25 1057.16 427.08 C 1066.31 424.66 1075.22 421.27 1084.42 419.08 C 1091.24 415.74 1098.44 414.43 1105.54 411.86 C 1110.15 410.96 1114.35 408.79 1119.00 408.20 C 1122.61 406.87 1125.67 405.10 1129.67 405.38 Z" fill="#ed1b24"/>
<path d="M 165.96 417.04 C 172.11 420.25 176.28 425.77 178.74 432.16 C 181.20 439.11 182.09 446.36 181.62 453.73 C 180.52 454.72 178.39 454.27 177.00 454.39 C 164.46 454.41 151.89 454.27 139.36 454.45 C 139.43 457.82 141.02 461.20 143.66 463.33 C 146.11 465.44 149.74 466.35 152.83 467.11 C 159.89 468.19 167.61 466.06 174.09 463.33 L 175.35 463.65 C 176.11 466.60 175.52 469.94 175.70 473.00 C 175.58 474.59 176.08 476.63 175.25 478.04 C 167.90 481.75 160.92 481.48 153.00 482.18 C 146.16 481.96 139.02 480.39 133.12 476.82 C 126.47 472.80 121.61 466.27 119.39 458.85 C 117.82 453.89 118.05 448.15 118.22 442.98 C 119.12 430.53 127.11 418.69 139.51 415.39 C 148.13 412.53 157.86 412.68 165.96 417.04 Z" fill="#ffffff"/>
<path d="M 234.00 413.63 C 240.72 413.52 247.76 415.53 252.12 420.93 C 257.11 426.64 257.92 433.71 258.19 441.00 C 258.20 452.66 258.14 464.33 258.21 476.00 C 258.20 477.58 258.30 479.08 257.65 480.57 C 250.88 480.63 244.11 480.61 237.35 480.58 C 237.03 479.38 236.87 478.19 236.86 477.01 C 236.87 467.00 236.88 457.00 236.88 447.00 C 236.91 443.05 236.22 438.52 233.73 435.31 C 230.58 430.97 222.71 431.77 219.18 435.18 C 214.84 439.40 214.26 445.30 213.91 451.00 C 213.63 460.84 214.13 470.76 213.66 480.58 C 206.88 480.63 200.09 480.60 193.31 480.59 C 193.01 479.75 192.85 478.89 192.83 478.03 C 192.80 458.69 192.87 439.34 192.80 420.00 C 192.84 418.47 192.67 416.71 193.21 415.26 C 199.38 415.17 205.59 415.19 211.75 415.28 C 212.17 419.16 211.51 422.94 212.29 426.81 C 214.34 423.95 215.91 420.99 218.80 418.82 C 223.12 415.16 228.48 413.98 234.00 413.63 Z" fill="#ffffff"/>
<path d="M 312.96 416.14 C 313.91 416.45 315.87 416.82 315.90 418.08 C 315.84 422.95 315.38 427.90 314.51 432.70 C 307.46 429.25 299.95 427.57 292.13 429.28 C 290.45 429.88 288.02 430.78 288.41 433.00 C 288.00 435.98 291.16 437.51 293.46 438.42 C 299.59 440.42 306.41 441.07 312.21 444.80 C 315.90 447.12 318.46 450.94 319.47 455.15 C 320.04 460.54 320.24 465.69 317.58 470.59 C 314.46 476.84 307.58 480.12 300.99 481.28 C 291.13 482.92 280.78 482.21 271.14 479.70 C 270.13 479.49 269.57 478.95 269.44 478.09 C 269.41 473.11 269.85 468.11 270.28 463.15 C 272.79 463.17 274.68 464.28 276.99 465.06 C 281.39 466.73 286.33 467.12 291.00 467.14 C 293.03 466.97 295.83 466.92 297.34 465.36 C 299.40 463.41 299.24 459.73 297.02 457.96 C 294.23 455.62 289.92 454.78 286.50 453.69 C 280.61 452.21 273.91 449.81 270.84 444.13 C 267.60 438.54 268.54 432.98 270.09 427.08 C 272.41 421.29 277.70 417.33 283.52 415.48 C 292.90 412.21 303.55 413.71 312.96 416.14 Z" fill="#ffffff"/>
<path d="M 365.01 413.90 C 372.38 414.74 379.32 418.15 383.83 424.14 C 390.01 432.45 391.97 443.91 390.91 453.99 C 389.49 454.72 387.56 454.28 386.00 454.39 C 373.77 454.35 361.54 454.39 349.30 454.37 C 348.70 456.30 349.78 458.77 350.62 460.50 C 353.27 464.46 357.20 465.79 361.52 467.17 C 364.59 467.47 367.75 467.31 370.83 467.27 C 373.57 466.65 376.33 465.89 379.01 465.07 C 381.00 464.49 383.00 463.02 385.08 463.03 L 385.49 463.96 C 385.32 468.45 386.01 473.65 385.12 477.95 C 381.90 479.83 377.80 480.52 374.18 481.29 C 364.52 482.67 354.75 482.88 345.82 478.37 C 334.84 473.64 328.27 462.75 327.58 451.00 C 327.16 441.83 328.83 431.28 335.25 424.25 C 342.50 415.60 354.13 412.64 365.01 413.90 Z" fill="#ffffff"/>
<path d="M 461.00 414.09 C 469.55 412.35 478.44 415.19 483.85 422.12 C 484.81 423.04 485.66 425.21 487.14 425.09 C 487.98 422.08 487.28 418.52 487.48 415.38 C 493.75 415.10 500.32 415.13 506.60 415.36 C 506.71 434.88 506.60 454.47 506.66 474.00 C 506.45 482.75 505.41 491.62 499.61 498.59 C 494.82 504.50 487.28 506.93 480.00 507.95 C 468.95 509.19 456.92 508.54 446.48 504.47 C 446.20 498.65 446.99 493.00 447.38 487.22 C 449.95 487.60 452.34 489.34 454.86 490.08 C 461.80 492.22 469.94 493.85 476.83 490.69 C 481.78 489.04 484.93 484.67 486.41 479.85 C 486.91 476.66 486.99 473.37 486.80 470.16 C 485.01 470.93 483.92 473.17 482.44 474.43 C 475.10 481.50 463.00 482.23 454.08 477.91 C 446.01 473.89 440.74 464.73 439.56 456.01 C 439.54 451.87 438.20 448.21 439.15 444.16 C 439.38 439.74 439.67 435.65 441.37 431.50 C 443.89 422.50 451.66 415.37 461.00 414.09 Z" fill="#ffffff"/>
<path d="M 580.77 422.24 C 584.37 427.70 585.96 434.50 585.76 441.00 C 585.65 454.18 585.94 467.41 585.62 480.57 C 578.86 480.62 572.09 480.63 565.33 480.57 C 564.25 479.56 564.71 477.36 564.60 476.00 C 564.63 466.66 564.62 457.32 564.61 447.98 C 564.54 443.90 564.06 438.81 561.50 435.47 C 558.74 431.65 552.56 431.89 548.76 433.74 C 542.94 437.08 542.00 443.91 541.60 450.00 C 541.47 460.18 541.61 470.37 541.53 480.55 C 534.51 480.64 527.47 480.63 520.45 480.55 C 520.42 458.87 520.43 437.05 520.44 415.36 C 526.73 415.12 533.32 415.13 539.61 415.36 C 539.89 418.83 539.29 422.50 539.95 425.90 C 541.58 425.54 542.26 422.67 543.52 421.52 C 552.47 410.97 572.52 410.63 580.77 422.24 Z" fill="#ffffff"/>
<path d="M 622.98 414.09 C 633.41 412.53 644.76 414.80 651.77 423.22 C 658.56 431.48 660.40 443.44 659.71 453.83 C 658.55 454.77 656.43 454.25 655.00 454.40 C 642.47 454.39 629.90 454.29 617.37 454.44 C 617.81 457.44 619.02 460.63 621.23 462.77 C 623.40 464.92 626.71 466.08 629.52 467.19 C 634.09 467.39 638.54 467.65 643.01 466.50 C 647.14 465.90 650.63 463.50 654.46 462.35 C 654.31 467.42 654.36 472.48 654.41 477.54 C 648.46 480.90 640.72 481.77 634.00 482.13 C 625.06 482.31 616.15 480.67 608.89 475.15 C 600.14 468.85 595.53 457.64 596.16 447.00 C 595.87 439.13 598.53 431.43 603.14 425.10 C 608.07 419.10 615.22 414.98 622.98 414.09 Z" fill="#ffffff"/>
<path d="M 723.08 415.89 C 727.35 417.90 729.38 421.44 732.01 425.09 C 733.21 425.10 733.86 423.37 734.64 422.60 C 739.95 415.51 749.47 412.68 758.01 413.85 C 762.75 414.41 767.18 415.92 770.26 419.75 C 774.48 424.88 775.14 431.58 775.52 437.98 C 775.58 452.17 775.55 466.37 775.54 480.56 C 768.51 480.64 761.47 480.59 754.43 480.57 C 754.35 468.39 754.48 456.18 754.38 444.00 C 754.32 439.95 753.04 434.75 748.96 432.95 C 745.53 431.94 741.61 432.37 738.99 435.01 C 735.01 438.70 734.28 444.88 733.82 450.00 C 733.59 460.18 734.00 470.41 733.63 480.58 C 726.87 480.62 720.10 480.61 713.34 480.57 C 712.85 479.88 712.63 479.03 712.69 478.03 C 712.68 466.68 712.72 455.33 712.68 443.98 C 712.45 440.14 711.78 436.03 708.48 433.58 C 704.72 431.51 699.48 432.26 696.63 435.64 C 692.98 439.62 692.41 445.84 692.20 450.99 C 692.15 459.66 692.18 468.34 692.19 477.00 C 692.23 478.28 692.05 479.47 691.65 480.59 C 684.88 480.63 678.10 480.59 671.33 480.59 C 670.79 476.12 671.22 471.51 671.09 467.00 C 671.23 449.80 670.75 432.48 671.28 415.31 C 677.42 415.13 683.64 415.19 689.78 415.29 C 690.85 418.74 689.97 423.11 690.32 426.78 C 692.29 425.07 692.96 422.63 694.79 420.79 C 701.70 413.31 714.05 411.71 723.08 415.89 Z" fill="#ffffff"/>
<path d="M 814.99 413.79 C 824.32 412.99 833.54 414.84 840.24 421.77 C 848.17 430.15 850.35 442.63 849.66 453.78 C 848.54 454.74 846.40 454.25 845.00 454.39 C 832.46 454.41 819.88 454.27 807.35 454.43 C 807.65 462.56 814.69 466.54 821.99 467.31 C 824.60 467.32 827.22 467.38 829.83 467.27 C 834.42 466.38 838.72 464.76 842.96 462.83 L 843.85 462.91 C 843.94 467.87 844.07 472.92 843.80 477.87 C 840.89 479.46 837.44 480.26 834.18 480.72 C 823.90 483.20 811.86 482.68 802.44 477.52 C 794.84 473.49 789.39 466.31 787.19 458.02 C 785.01 447.82 785.54 437.11 790.99 427.98 C 796.00 419.57 805.32 414.43 814.99 413.79 Z" fill="#ffffff"/>
<path d="M 917.01 417.99 C 923.75 423.07 926.10 431.92 926.13 440.00 C 926.04 447.66 926.34 455.35 925.95 463.00 C 926.00 463.97 925.72 466.20 926.57 466.82 C 925.92 471.21 926.32 475.90 926.38 480.35 C 924.83 480.87 922.66 480.51 921.00 480.59 C 915.99 480.41 910.97 480.61 905.96 480.51 L 904.76 478.98 C 904.61 477.08 904.90 475.16 904.87 473.25 C 904.97 464.17 904.97 455.07 904.89 445.99 C 904.69 441.34 903.63 435.26 898.92 433.06 C 894.39 431.43 888.62 432.66 885.74 436.73 C 883.46 440.09 882.31 443.96 882.16 448.01 C 881.46 458.81 882.37 469.79 881.67 480.58 C 874.89 480.62 868.10 480.60 861.32 480.60 C 860.62 478.73 860.84 476.96 860.80 475.00 C 860.81 457.33 860.82 439.67 860.80 422.00 C 860.85 419.82 860.59 417.38 861.23 415.28 C 867.39 415.17 873.60 415.19 879.76 415.28 C 880.42 419.11 879.80 422.98 880.29 426.87 C 883.33 421.88 886.77 417.60 892.44 415.49 C 900.37 412.70 910.10 412.66 917.01 417.99 Z" fill="#ffffff"/>
<path d="M 405.23 415.28 C 412.04 415.20 418.89 415.14 425.70 415.31 C 425.97 419.53 425.78 423.78 425.83 428.00 C 425.71 445.48 426.07 463.12 425.66 480.57 C 418.88 480.62 412.10 480.61 405.32 480.59 C 404.97 479.74 404.80 478.89 404.80 478.03 C 404.80 459.03 404.82 440.00 404.79 421.00 C 404.83 419.14 404.63 417.04 405.23 415.28 Z" fill="#ffffff"/>
<path d="M 157.54 429.53 C 161.40 432.34 162.82 436.99 162.66 441.60 C 154.89 441.70 147.10 441.70 139.33 441.60 C 138.74 436.92 141.56 430.83 146.00 428.85 C 149.60 427.96 154.19 427.66 157.54 429.53 Z" fill="#4e8fc5"/>
<path d="M 370.16 432.86 C 371.35 435.23 372.79 439.12 371.73 441.66 C 364.24 441.66 356.73 441.70 349.24 441.64 C 347.74 439.97 349.71 436.08 350.29 434.16 C 353.74 426.33 365.76 425.62 370.16 432.86 Z" fill="#4e8fc5"/>
<path d="M 637.71 431.33 C 639.90 434.11 641.14 438.09 640.67 441.62 C 632.90 441.68 625.11 441.72 617.33 441.60 C 617.23 436.95 619.50 430.94 624.07 428.98 C 628.43 427.44 634.44 427.64 637.71 431.33 Z" fill="#4e8fc5"/>
<path d="M 828.45 432.50 C 830.00 435.21 830.84 438.46 830.67 441.60 C 822.90 441.72 815.10 441.69 807.33 441.61 C 806.84 438.26 808.21 434.77 810.09 432.05 C 814.26 426.15 824.54 426.48 828.45 432.50 Z" fill="#4e8fc5"/>
<path d="M 468.47 431.58 C 473.62 429.85 479.88 431.37 483.10 435.92 C 487.18 441.63 487.73 449.98 484.07 456.03 C 481.84 460.26 477.00 464.10 471.99 463.40 C 468.33 463.47 465.76 461.11 463.62 458.42 C 460.52 454.15 460.19 448.04 460.94 442.99 C 461.37 438.41 464.21 433.58 468.47 431.58 Z" fill="#4e8fc5"/>
<path d="M 904.87 473.25 C 904.90 475.16 904.61 477.08 904.76 478.98 C 903.47 476.20 898.81 476.41 896.25 476.52 C 898.83 474.70 901.70 473.54 904.87 473.25 Z" fill="#ed1b24"/>
<path d="M 25.50 555.38 C 27.76 554.47 30.58 554.98 33.00 554.88 C 352.00 554.88 671.00 554.88 990.00 554.88 C 992.18 554.88 994.36 554.86 996.53 554.83 C 998.49 558.79 1000.05 563.89 1000.59 568.27 C 1000.86 568.42 1001.13 568.59 1001.39 568.76 C 1003.07 577.77 1005.35 586.82 1005.75 596.01 C 1007.21 603.47 1006.61 611.41 1006.84 619.00 C 1006.64 624.94 1007.17 631.08 1006.35 636.96 C 1003.55 640.72 1001.16 645.76 1001.35 650.53 L 1000.69 650.52 C 1001.18 647.01 998.50 644.13 996.00 642.02 C 993.37 639.48 988.54 639.81 985.14 638.66 C 980.52 637.15 975.05 638.27 970.48 639.57 C 969.98 638.43 969.61 637.24 969.07 636.13 C 967.26 635.83 965.92 636.55 965.02 638.10 C 963.71 640.54 961.65 642.66 959.83 644.76 L 959.25 644.73 C 957.42 641.06 954.48 637.34 951.54 634.49 C 948.96 632.90 945.04 630.71 942.04 632.10 C 937.80 633.72 933.92 635.42 931.50 639.48 C 929.89 642.89 928.19 645.93 928.27 649.84 C 926.36 657.30 928.55 664.44 928.67 671.91 C 928.53 673.11 927.21 673.86 926.78 675.01 C 927.28 676.87 928.77 677.05 930.14 678.10 C 932.35 682.98 930.99 687.89 932.24 692.86 C 932.58 695.21 937.63 695.79 937.68 692.89 C 937.84 687.21 935.31 682.11 936.29 676.26 C 940.51 675.26 945.32 674.99 949.54 673.53 C 953.42 671.92 956.41 669.19 959.03 665.97 C 959.38 665.41 959.82 665.29 960.36 665.61 C 962.20 668.57 964.93 670.47 968.11 671.75 C 970.64 672.25 973.44 672.56 976.01 672.57 C 978.37 671.87 980.57 671.60 983.01 671.47 C 985.17 671.35 987.05 669.97 989.18 669.53 C 991.92 668.96 994.10 666.97 996.38 665.36 C 998.54 663.70 999.16 661.31 1000.61 659.22 C 1001.38 663.10 1001.26 667.10 1001.65 671.03 C 1002.00 672.95 1000.85 673.58 1000.08 675.08 C 999.79 677.22 1003.40 677.09 1003.62 679.12 C 1005.47 683.97 1003.90 688.83 1005.46 693.61 C 1006.41 694.80 1008.38 694.95 1009.76 694.70 C 1011.52 693.08 1010.64 689.88 1010.30 687.81 C 1009.32 684.05 1008.95 680.21 1009.41 676.34 C 1010.29 675.39 1011.79 675.73 1012.98 675.53 C 1015.52 675.31 1017.95 674.47 1020.49 674.16 C 1026.94 672.44 1031.22 667.70 1034.63 662.23 C 1036.18 666.85 1038.92 673.66 1043.93 675.38 C 1047.14 676.04 1050.80 674.71 1053.94 673.95 C 1059.57 671.22 1064.62 667.40 1068.20 662.20 C 1070.82 657.02 1071.68 651.79 1071.51 646.00 C 1071.76 643.05 1069.91 640.00 1068.42 637.54 C 1066.84 634.20 1060.70 637.54 1062.33 640.73 C 1062.98 643.15 1064.92 643.01 1066.67 644.25 C 1068.20 648.20 1067.40 653.08 1066.17 657.02 C 1063.62 663.22 1057.80 668.16 1051.51 670.29 C 1048.42 670.75 1045.41 671.47 1042.97 669.01 C 1038.36 663.83 1037.75 656.76 1038.43 650.13 C 1038.64 648.97 1039.86 648.07 1040.46 647.07 C 1040.54 645.40 1041.09 642.55 1039.61 641.37 C 1038.72 640.06 1036.14 639.75 1035.36 641.31 C 1033.90 643.49 1034.43 647.06 1034.41 649.59 L 1033.59 649.50 C 1032.62 647.11 1032.11 644.44 1030.89 642.16 C 1029.29 639.81 1027.56 637.48 1025.56 635.44 C 1023.76 633.53 1021.50 633.00 1019.18 631.67 C 1017.60 630.56 1015.99 630.99 1014.16 630.79 C 1014.45 626.28 1019.31 625.05 1019.17 620.17 C 1022.59 614.68 1025.73 609.08 1029.50 603.81 C 1031.73 598.71 1035.56 594.75 1037.71 589.66 C 1039.14 586.90 1041.05 584.47 1042.65 581.82 C 1044.97 577.25 1047.40 572.68 1050.24 568.41 C 1053.32 564.19 1055.37 558.99 1058.41 554.83 C 1121.58 554.93 1184.85 554.88 1248.03 554.86 C 1248.87 554.86 1249.70 555.03 1250.53 555.37 C 1250.44 613.07 1250.48 670.81 1250.51 728.52 C 1074.68 728.56 898.83 728.55 723.00 728.53 C 720.39 728.09 718.92 729.32 717.01 730.81 C 719.99 727.89 723.58 725.71 726.59 722.79 C 731.42 719.94 735.53 716.42 739.53 712.53 C 743.41 709.72 746.53 706.11 750.45 703.36 C 752.96 701.25 755.03 698.70 757.72 696.78 C 761.86 693.81 764.68 689.75 768.84 686.95 C 773.54 683.62 777.88 679.49 781.54 675.05 C 785.66 676.90 789.66 677.56 794.02 675.98 C 796.62 675.27 799.26 674.13 799.21 671.00 C 798.21 668.20 794.78 665.70 791.78 666.89 C 790.52 667.99 791.62 670.11 791.59 671.62 C 789.71 671.65 787.86 671.48 786.03 671.06 C 788.47 668.39 791.62 666.76 794.01 664.03 C 796.19 662.62 797.40 660.47 799.46 658.99 C 799.41 663.94 800.11 668.81 801.64 673.52 C 802.39 675.15 803.42 676.49 804.98 677.43 C 807.23 677.06 809.80 673.43 809.77 671.16 C 808.99 668.10 807.06 670.49 805.79 668.16 C 803.96 664.19 804.53 659.22 804.10 654.92 C 805.01 654.04 806.46 651.71 807.89 652.22 L 808.40 652.91 C 808.04 658.48 807.74 663.75 812.10 667.91 C 815.96 672.01 820.68 672.52 826.04 672.60 C 828.67 671.40 831.30 671.78 834.05 671.26 C 836.33 670.44 838.59 669.70 840.93 669.05 C 843.04 667.89 845.03 666.38 846.94 664.93 C 848.52 663.67 849.34 660.65 850.56 659.69 C 850.54 665.26 850.25 671.18 851.39 676.68 C 853.42 677.59 854.38 677.44 856.20 676.23 C 858.50 671.16 857.75 666.35 857.60 661.00 C 857.61 654.40 857.23 648.25 858.70 641.76 C 859.34 640.36 860.69 638.50 862.41 639.57 C 865.09 643.88 868.08 647.97 870.67 652.33 C 875.56 660.30 882.35 667.83 885.35 676.69 C 887.35 678.73 889.04 677.11 890.65 675.64 C 890.98 673.84 889.65 672.61 888.84 671.12 C 886.40 666.95 883.24 663.32 880.82 659.13 C 876.13 653.40 872.72 646.56 868.60 640.40 C 867.05 637.30 864.32 633.44 861.02 632.13 C 857.57 633.59 856.45 636.16 855.41 639.53 C 853.82 640.02 853.38 638.86 852.06 638.32 C 849.63 639.89 850.61 643.52 849.95 645.93 C 848.25 644.72 847.24 642.74 845.39 641.62 C 843.45 639.97 841.26 640.01 838.86 639.48 C 836.00 639.02 832.90 637.82 830.00 637.86 C 827.22 638.12 824.46 638.60 821.68 638.82 C 823.44 637.44 823.31 635.30 825.02 634.02 C 828.51 631.31 831.94 628.21 834.59 624.66 C 840.72 617.79 847.76 611.77 853.57 604.56 C 858.77 599.12 864.05 593.69 869.35 588.34 C 870.72 586.58 871.85 584.76 873.56 583.27 C 872.48 582.41 871.32 582.58 870.03 582.52 C 793.02 582.54 716.01 582.52 639.00 582.53 C 635.46 582.53 631.92 582.53 628.38 582.63 C 628.53 583.63 629.79 583.71 630.55 584.24 C 633.21 585.19 635.13 587.18 637.90 587.91 C 640.64 590.15 644.09 590.90 646.55 593.46 C 650.22 597.38 654.79 599.74 657.76 604.39 C 668.53 615.60 675.35 631.30 679.83 646.01 C 681.50 653.08 683.14 660.08 683.99 667.29 C 680.53 669.92 675.78 671.51 671.48 670.39 C 668.36 668.75 666.53 664.76 665.53 661.54 C 664.95 657.81 663.73 652.09 665.76 648.72 C 668.32 646.13 667.81 639.31 662.89 640.42 C 659.74 642.48 661.10 647.81 660.51 651.01 C 659.30 658.96 661.57 666.28 666.44 672.55 C 668.27 674.79 671.10 676.10 674.01 675.47 C 678.81 675.00 683.14 673.10 686.92 670.16 C 686.02 671.32 685.08 672.37 685.28 673.96 C 685.52 687.58 685.51 701.19 685.21 714.81 C 683.15 718.95 685.37 723.54 683.25 727.45 C 682.22 729.48 682.84 731.74 682.16 733.92 C 682.46 732.22 682.70 730.53 682.62 728.80 L 681.73 728.51 C 463.50 728.56 245.27 728.50 27.04 728.54 C 26.50 728.59 25.98 728.55 25.48 728.42 C 25.58 670.75 25.55 613.06 25.50 555.38 Z" fill="#005fab"/>
<path d="M 628.38 582.63 C 631.92 582.53 635.46 582.53 639.00 582.53 C 716.01 582.52 793.02 582.54 870.03 582.52 C 871.32 582.58 872.48 582.41 873.56 583.27 C 871.85 584.76 870.72 586.58 869.35 588.34 C 864.05 593.69 858.77 599.12 853.57 604.56 C 847.76 611.77 840.72 617.79 834.59 624.66 C 832.98 625.43 831.51 625.97 830.50 627.55 C 828.94 629.78 826.98 631.28 824.74 632.77 C 823.14 633.79 822.49 635.66 821.12 636.80 C 820.43 636.60 819.75 636.36 819.07 636.09 C 816.62 636.02 815.93 636.68 814.66 638.62 C 812.96 641.63 809.87 643.77 808.93 646.98 C 808.76 648.96 808.69 650.94 808.40 652.91 L 807.89 652.22 C 806.46 651.71 805.01 654.04 804.10 654.92 C 803.81 652.65 803.61 650.74 804.15 648.48 C 804.33 643.97 804.25 639.45 804.52 634.95 C 804.34 633.26 801.08 631.28 800.33 633.67 C 798.53 636.47 800.53 638.11 800.24 640.97 C 800.08 644.32 800.74 648.00 799.56 651.13 C 799.47 653.75 799.56 656.37 799.46 658.99 C 797.40 660.47 796.19 662.62 794.01 664.03 C 791.62 666.76 788.47 668.39 786.03 671.06 C 779.38 670.08 774.70 664.11 772.89 657.98 C 772.41 655.77 771.55 653.60 771.35 651.36 C 775.86 650.90 780.47 651.12 785.00 651.30 C 786.64 651.44 788.05 651.14 789.57 650.57 C 790.94 648.57 790.64 645.42 788.08 644.66 C 786.10 644.22 784.06 645.69 782.02 645.74 C 778.51 645.82 774.92 645.96 771.43 645.66 C 771.16 637.78 772.56 630.27 773.80 622.54 C 775.49 617.41 776.37 612.08 778.29 607.03 C 779.00 605.49 778.34 603.80 777.57 602.41 C 776.46 602.37 774.36 601.82 773.71 602.99 C 772.10 606.60 772.98 610.30 771.64 613.99 C 769.46 621.22 768.37 628.54 767.41 636.00 C 767.06 639.51 767.70 643.32 766.61 646.66 C 763.46 646.96 760.94 645.61 758.18 647.54 C 755.37 643.76 754.67 638.28 750.37 635.67 C 745.69 632.47 739.93 634.68 735.98 638.00 C 734.18 639.47 731.47 643.77 735.01 644.81 C 738.94 641.66 740.91 636.98 746.86 638.30 C 750.03 640.22 753.16 644.85 752.70 648.65 C 750.25 648.54 747.48 647.31 745.18 648.24 C 737.98 649.87 733.55 657.39 731.56 663.96 C 731.22 665.33 731.85 667.66 730.58 668.56 C 727.08 671.17 722.30 672.26 718.00 672.40 C 713.87 672.50 710.55 670.83 706.88 669.16 C 700.10 665.22 698.66 656.01 702.27 649.43 C 704.31 645.58 707.09 641.15 711.05 639.07 C 713.14 637.90 715.10 636.52 717.59 637.39 C 718.30 641.62 716.51 646.18 715.12 650.15 L 715.41 651.67 C 717.39 652.23 719.16 649.74 720.40 648.45 C 721.73 644.27 723.07 640.61 721.74 636.18 C 721.35 633.59 719.45 632.10 717.01 631.55 C 708.63 633.97 702.30 640.17 698.36 647.83 C 698.45 643.51 696.64 640.08 694.46 636.52 C 692.49 635.93 690.14 636.10 689.03 638.08 C 687.70 639.45 688.99 641.02 689.66 642.36 C 690.76 642.99 691.98 643.41 693.05 644.09 C 694.41 647.36 693.79 651.62 693.32 655.04 C 692.04 660.04 688.26 664.50 683.99 667.29 C 683.14 660.08 681.50 653.08 679.83 646.01 C 675.35 631.30 668.53 615.60 657.76 604.39 C 654.79 599.74 650.22 597.38 646.55 593.46 C 644.09 590.90 640.64 590.15 637.90 587.91 C 635.13 587.18 633.21 585.19 630.55 584.24 C 629.79 583.71 628.53 583.63 628.38 582.63 Z" fill="#ed1b24"/>
<path d="M 549.05 603.06 C 546.45 620.48 546.71 638.05 548.78 655.50 C 550.40 659.61 550.97 663.89 552.01 668.14 C 552.59 670.44 554.88 674.00 553.21 676.14 C 551.29 678.79 547.20 677.03 547.44 674.01 C 547.27 670.73 546.83 667.33 545.79 664.19 C 543.68 659.35 544.57 654.31 543.48 649.01 C 543.43 644.50 542.26 640.29 543.23 635.84 C 543.14 625.27 543.79 614.95 544.50 604.44 C 545.07 602.14 547.82 599.74 549.05 603.06 Z" fill="#ffffff"/>
<path d="M 777.57 602.41 C 778.34 603.80 779.00 605.49 778.29 607.03 C 776.37 612.08 775.49 617.41 773.80 622.54 C 772.56 630.27 771.16 637.78 771.43 645.66 C 774.92 645.96 778.51 645.82 782.02 645.74 C 784.06 645.69 786.10 644.22 788.08 644.66 C 790.64 645.42 790.94 648.57 789.57 650.57 C 788.05 651.14 786.64 651.44 785.00 651.30 C 780.47 651.12 775.86 650.90 771.35 651.36 C 771.55 653.60 772.41 655.77 772.89 657.98 C 774.70 664.11 779.38 670.08 786.03 671.06 C 787.86 671.48 789.71 671.65 791.59 671.62 C 791.62 670.11 790.52 667.99 791.78 666.89 C 794.78 665.70 798.21 668.20 799.21 671.00 C 799.26 674.13 796.62 675.27 794.02 675.98 C 789.66 677.56 785.66 676.90 781.54 675.05 C 775.36 672.03 770.75 666.28 768.53 659.85 C 767.77 657.50 767.99 654.29 766.79 652.24 C 764.61 651.86 762.23 653.49 760.36 654.46 C 760.54 656.53 761.50 658.57 762.16 660.53 C 763.23 665.33 763.90 670.72 766.27 675.08 C 764.50 677.95 761.97 678.71 759.50 676.09 C 759.28 670.06 757.79 663.74 755.92 657.98 C 754.38 652.93 746.82 649.34 742.78 653.78 C 740.36 656.46 737.74 658.54 736.48 662.06 C 737.41 663.94 739.59 663.43 740.20 665.97 C 741.55 668.74 737.67 669.22 736.87 671.00 C 739.62 674.34 745.02 675.01 749.01 674.07 C 751.61 673.49 751.86 670.97 754.03 669.80 C 755.34 669.82 757.18 670.58 757.67 671.90 C 757.90 673.60 756.90 676.00 755.06 676.39 C 750.80 677.46 747.53 679.43 742.99 678.56 C 738.76 678.25 735.52 676.34 732.71 673.28 C 731.37 673.19 729.97 674.26 728.76 674.76 C 725.40 676.63 720.76 676.43 717.00 676.58 C 712.64 676.96 708.79 674.67 704.51 673.34 C 700.10 669.79 696.71 665.20 696.41 659.35 C 695.17 659.18 695.62 661.12 694.90 661.87 C 692.68 665.38 690.38 667.84 686.92 670.16 C 683.14 673.10 678.81 675.00 674.01 675.47 C 671.10 676.10 668.27 674.79 666.44 672.55 C 661.57 666.28 659.30 658.96 660.51 651.01 C 661.10 647.81 659.74 642.48 662.89 640.42 C 667.81 639.31 668.32 646.13 665.76 648.72 C 663.73 652.09 664.95 657.81 665.53 661.54 C 666.53 664.76 668.36 668.75 671.48 670.39 C 675.78 671.51 680.53 669.92 683.99 667.29 C 688.26 664.50 692.04 660.04 693.32 655.04 C 693.79 651.62 694.41 647.36 693.05 644.09 C 691.98 643.41 690.76 642.99 689.66 642.36 C 688.99 641.02 687.70 639.45 689.03 638.08 C 690.14 636.10 692.49 635.93 694.46 636.52 C 696.64 640.08 698.45 643.51 698.36 647.83 C 702.30 640.17 708.63 633.97 717.01 631.55 C 719.45 632.10 721.35 633.59 721.74 636.18 C 723.07 640.61 721.73 644.27 720.40 648.45 C 719.16 649.74 717.39 652.23 715.41 651.67 L 715.12 650.15 C 716.51 646.18 718.30 641.62 717.59 637.39 C 715.10 636.52 713.14 637.90 711.05 639.07 C 707.09 641.15 704.31 645.58 702.27 649.43 C 698.66 656.01 700.10 665.22 706.88 669.16 C 710.55 670.83 713.87 672.50 718.00 672.40 C 722.30 672.26 727.08 671.17 730.58 668.56 C 731.85 667.66 731.22 665.33 731.56 663.96 C 733.55 657.39 737.98 649.87 745.18 648.24 C 747.48 647.31 750.25 648.54 752.70 648.65 C 753.16 644.85 750.03 640.22 746.86 638.30 C 740.91 636.98 738.94 641.66 735.01 644.81 C 731.47 643.77 734.18 639.47 735.98 638.00 C 739.93 634.68 745.69 632.47 750.37 635.67 C 754.67 638.28 755.37 643.76 758.18 647.54 C 760.94 645.61 763.46 646.96 766.61 646.66 C 767.70 643.32 767.06 639.51 767.41 636.00 C 768.37 628.54 769.46 621.22 771.64 613.99 C 772.98 610.30 772.10 606.60 773.71 602.99 C 774.36 601.82 776.46 602.37 777.57 602.41 Z" fill="#ffffff"/>
<path d="M 1078.65 602.92 C 1077.03 613.13 1076.60 623.67 1076.45 634.00 C 1077.16 641.59 1077.53 649.29 1078.70 656.81 C 1079.84 659.79 1080.67 662.61 1080.80 665.83 C 1081.49 668.58 1082.71 671.29 1083.59 674.00 C 1082.90 677.50 1080.57 678.33 1077.54 676.45 C 1076.83 673.60 1076.81 670.68 1076.28 667.81 C 1075.22 663.92 1073.94 660.29 1074.16 656.17 C 1072.75 648.83 1072.02 641.46 1072.68 633.99 C 1072.69 628.70 1072.58 623.45 1073.29 618.18 C 1073.79 613.60 1073.24 608.63 1074.25 604.17 C 1074.81 602.00 1077.40 599.95 1078.65 602.92 Z" fill="#ffffff"/>
<path d="M 647.43 606.40 C 648.50 605.34 649.72 605.21 651.09 606.02 C 652.48 613.91 652.67 622.95 652.80 631.03 C 656.24 641.86 655.01 653.66 657.15 665.02 C 656.97 667.12 659.17 667.96 658.65 669.86 C 658.58 671.56 656.10 672.13 654.88 672.86 C 652.94 673.69 651.63 675.55 649.80 676.40 C 641.38 677.56 632.75 676.08 625.47 671.64 C 623.17 671.38 619.95 671.82 617.78 672.75 C 613.58 675.01 608.71 675.68 603.98 676.12 C 600.89 675.72 597.83 674.97 594.80 674.24 C 591.67 672.61 588.55 670.41 586.68 667.35 C 583.07 661.82 583.00 654.17 585.00 648.05 C 587.02 642.75 590.89 639.57 595.29 636.29 C 598.68 633.07 602.67 632.65 607.02 631.64 C 612.61 632.27 616.25 638.89 615.44 644.05 C 613.74 650.09 608.80 652.12 603.65 654.64 C 599.00 657.32 593.57 658.30 588.26 658.47 C 588.32 662.17 590.29 665.61 593.28 667.75 C 595.89 669.56 599.11 670.53 602.16 671.30 C 607.40 671.49 613.98 670.57 618.12 667.10 C 620.35 665.20 619.58 663.54 619.52 660.96 C 620.28 657.39 623.33 654.33 625.46 651.43 C 627.55 648.99 629.11 646.54 631.55 644.67 C 635.49 641.46 638.76 636.74 643.16 634.18 C 644.61 633.24 646.54 632.97 647.82 631.84 C 647.91 623.40 647.39 614.86 647.43 606.40 Z" fill="#ffffff"/>
<path d="M 574.57 607.51 C 576.62 608.46 575.82 611.41 575.52 613.16 C 574.19 617.70 574.61 621.80 572.15 626.02 L 570.40 625.61 C 568.74 622.68 570.65 618.29 570.51 615.00 C 570.48 612.52 569.29 610.23 570.96 607.95 C 571.69 606.90 573.51 607.28 574.57 607.51 Z" fill="#ffffff"/>
<path d="M 799.50 613.53 C 802.17 612.50 803.95 615.76 805.32 617.52 C 805.32 618.65 805.53 619.55 804.58 620.38 C 802.25 620.43 799.73 621.15 797.47 620.56 C 795.33 618.10 797.73 615.34 799.50 613.53 Z" fill="#ffffff"/>
<path d="M 1121.55 613.49 C 1123.76 615.10 1125.57 616.84 1124.72 619.84 C 1123.27 620.81 1120.77 620.52 1119.03 620.90 C 1116.84 620.75 1116.07 618.98 1116.90 617.03 C 1117.88 615.38 1119.16 612.57 1121.55 613.49 Z" fill="#ffffff"/>
<path d="M 322.90 613.38 C 325.10 612.88 327.63 616.03 328.03 617.98 C 327.68 620.64 326.74 620.33 324.47 620.60 C 322.46 620.87 320.41 621.48 319.52 619.08 C 319.47 616.77 321.08 614.65 322.90 613.38 Z" fill="#ffffff"/>
<path d="M 604.15 619.23 C 607.13 618.94 608.83 623.56 606.17 625.21 C 603.33 627.05 600.36 628.55 597.78 630.78 C 596.78 631.54 595.43 632.80 594.65 631.01 C 594.36 627.65 599.23 625.57 600.95 622.97 C 601.89 621.77 602.50 619.53 604.15 619.23 Z" fill="#ffffff"/>
<path d="M 1019.17 620.17 C 1019.31 625.05 1014.45 626.28 1014.16 630.79 C 1015.99 630.99 1017.60 630.56 1019.18 631.67 C 1015.71 631.24 1013.37 632.99 1010.24 634.05 C 1011.11 630.58 1014.08 628.91 1014.91 625.59 C 1016.45 623.88 1017.51 621.72 1019.17 620.17 Z" fill="#005fab"/>
<path d="M 834.59 624.66 C 831.94 628.21 828.51 631.31 825.02 634.02 C 823.31 635.30 823.44 637.44 821.68 638.82 L 820.30 638.67 C 819.86 637.82 819.45 636.96 819.07 636.09 C 819.75 636.36 820.43 636.60 821.12 636.80 C 822.49 635.66 823.14 633.79 824.74 632.77 C 826.98 631.28 828.94 629.78 830.50 627.55 C 831.51 625.97 832.98 625.43 834.59 624.66 Z" fill="#ed1b24"/>
<path d="M 268.03 631.65 C 273.25 632.58 275.62 637.19 276.50 641.99 C 276.58 645.84 273.60 649.51 270.48 651.49 C 263.76 655.39 257.25 658.68 249.23 658.40 C 248.96 660.57 250.09 663.04 251.16 664.89 C 253.95 669.04 259.35 670.48 263.99 671.34 C 268.77 670.90 274.62 670.45 278.57 667.53 C 280.02 665.84 281.25 663.91 282.63 662.15 C 282.40 655.41 282.46 648.72 282.38 641.98 C 282.27 640.33 283.28 639.48 284.18 638.26 C 285.10 638.91 286.06 639.37 287.06 639.65 C 288.81 636.33 289.30 634.12 292.91 632.19 C 296.31 633.10 299.18 637.39 300.64 640.45 C 304.82 646.63 308.18 653.20 312.89 659.06 C 316.00 664.55 320.89 669.48 322.90 675.13 C 321.60 676.98 319.41 678.91 317.45 676.65 C 315.14 669.88 311.15 664.64 307.17 658.84 C 303.23 653.61 300.25 647.80 296.36 642.53 C 295.49 641.52 294.80 638.82 293.13 639.29 C 291.05 639.87 290.84 642.05 290.47 643.85 C 289.16 650.04 289.83 656.67 289.71 663.00 C 290.34 667.35 289.92 671.61 288.65 675.80 C 287.14 677.07 285.85 677.76 283.86 676.93 C 283.01 675.60 283.19 673.73 282.71 672.22 C 281.32 671.25 280.06 672.21 278.71 672.71 C 274.34 674.95 269.80 675.52 265.00 676.16 C 262.00 676.01 258.93 674.95 255.98 674.32 C 249.52 671.68 244.52 665.15 244.62 658.01 C 244.24 653.05 245.31 647.43 248.39 643.41 C 250.15 640.42 253.54 638.48 256.18 636.21 C 259.40 633.23 263.86 632.54 268.03 631.65 Z" fill="#ffffff"/>
<path d="M 330.39 632.35 C 331.19 632.11 331.91 632.13 332.55 632.41 C 334.10 635.44 335.56 638.37 335.58 641.86 C 335.60 643.43 336.56 644.76 337.70 645.76 C 339.07 640.39 340.93 635.57 345.91 632.58 C 349.08 632.15 352.16 632.50 355.19 633.47 C 360.58 635.00 364.49 639.57 365.50 645.03 C 364.78 646.49 362.02 645.81 360.85 645.21 C 359.05 642.66 357.11 640.41 354.47 638.68 C 350.90 637.03 346.33 637.55 344.05 641.02 C 339.90 645.80 341.40 652.12 341.49 658.00 C 341.28 662.10 342.50 665.91 342.38 670.02 C 342.22 671.74 343.76 673.38 343.17 674.96 C 342.08 676.25 340.88 677.49 339.54 678.51 C 338.16 678.87 337.64 677.76 336.63 677.04 C 335.95 675.55 336.52 673.59 336.55 671.99 C 337.12 666.26 335.27 661.20 335.26 655.49 C 334.41 651.54 334.03 647.38 332.27 643.83 C 330.55 640.38 330.03 636.13 330.39 632.35 Z" fill="#ffffff"/>
<path d="M 424.96 632.05 C 430.60 633.44 434.44 639.04 437.18 643.80 C 438.21 647.85 440.14 651.45 440.59 655.64 C 442.58 654.67 443.59 651.89 445.61 650.65 C 449.69 647.25 453.57 648.10 458.40 648.40 C 458.95 645.01 454.81 638.27 451.02 637.89 C 445.95 638.01 444.32 641.97 440.73 644.73 C 438.48 645.25 439.13 641.69 439.57 640.47 C 442.24 636.70 446.46 634.44 451.00 633.87 C 453.56 634.29 456.71 635.43 458.33 637.55 C 461.55 642.59 464.03 647.99 465.37 653.83 C 467.96 659.70 468.72 665.85 470.41 672.00 C 470.55 673.37 471.38 674.05 472.20 675.06 C 470.30 677.55 467.30 679.11 465.22 675.86 C 464.88 670.67 463.68 665.50 462.38 660.48 C 461.56 658.29 460.92 655.49 458.98 654.04 C 456.22 651.68 452.18 650.61 449.14 653.13 C 445.65 656.35 442.47 659.26 441.51 664.14 C 441.32 666.23 440.71 669.03 442.21 670.76 C 445.10 674.31 450.75 675.13 454.96 674.00 C 457.41 673.33 457.51 670.52 460.00 669.75 C 461.51 669.82 463.71 671.35 463.50 673.02 C 463.02 674.17 462.44 675.48 461.49 676.33 C 460.06 676.75 458.60 677.08 457.16 677.48 C 451.68 679.82 444.58 678.85 440.00 674.99 C 438.09 672.97 437.31 669.87 436.65 667.25 C 433.72 669.79 431.32 672.33 427.52 673.62 C 425.04 674.28 422.50 674.61 420.02 675.30 C 418.11 675.77 416.12 675.37 414.53 676.43 C 414.49 679.70 414.31 682.82 415.25 686.00 C 415.56 689.16 417.22 691.55 415.51 694.58 C 413.52 695.06 411.78 694.85 410.53 693.09 C 409.96 688.28 410.63 683.73 408.91 679.07 C 408.73 677.51 406.67 677.17 405.54 676.38 C 404.59 674.14 406.04 673.81 407.34 672.39 C 407.49 670.53 407.04 668.83 406.68 667.02 C 405.92 659.60 405.33 652.46 407.44 645.17 C 409.19 640.70 410.76 636.62 415.36 634.38 C 418.08 633.22 422.02 630.59 424.96 632.05 Z" fill="#ffffff"/>
<path d="M 468.83 632.24 L 469.40 632.47 C 470.11 634.14 470.86 635.81 471.54 637.50 C 472.68 640.78 471.35 643.52 474.60 645.74 C 475.28 640.73 478.17 634.70 482.94 632.51 C 488.11 632.00 494.19 633.18 497.97 637.01 C 500.27 638.98 502.21 642.71 501.77 645.76 C 500.47 645.94 498.03 646.02 497.24 644.75 C 495.19 641.83 492.73 639.33 489.47 637.80 C 486.51 637.57 484.03 637.50 481.84 639.82 C 476.69 644.72 477.51 651.71 478.31 658.15 C 478.13 661.80 478.93 665.35 478.89 669.01 C 478.90 671.04 480.45 673.69 479.51 675.57 C 477.46 677.33 475.99 680.18 473.38 677.09 C 472.96 672.04 474.12 667.09 472.54 662.00 C 471.70 655.20 471.47 648.79 468.38 642.49 C 467.09 640.05 467.67 637.55 466.84 634.98 C 466.34 633.37 466.88 631.78 468.83 632.24 Z" fill="#ffffff"/>
<path d="M 861.02 632.13 C 864.32 633.44 867.05 637.30 868.60 640.40 C 872.72 646.56 876.13 653.40 880.82 659.13 C 883.24 663.32 886.40 666.95 888.84 671.12 C 889.65 672.61 890.98 673.84 890.65 675.64 C 889.04 677.11 887.35 678.73 885.35 676.69 C 882.35 667.83 875.56 660.30 870.67 652.33 C 868.08 647.97 865.09 643.88 862.41 639.57 C 860.69 638.50 859.34 640.36 858.70 641.76 C 857.23 648.25 857.61 654.40 857.60 661.00 C 857.75 666.35 858.50 671.16 856.20 676.23 C 854.38 677.44 853.42 677.59 851.39 676.68 C 850.25 671.18 850.54 665.26 850.56 659.69 C 849.34 660.65 848.52 663.67 846.94 664.93 C 845.03 666.38 843.04 667.89 840.93 669.05 C 838.59 669.70 836.33 670.44 834.05 671.26 C 831.30 671.78 828.67 671.40 826.04 672.60 C 820.68 672.52 815.96 672.01 812.10 667.91 C 807.74 663.75 808.04 658.48 808.40 652.91 C 808.69 650.94 808.76 648.96 808.93 646.98 C 809.87 643.77 812.96 641.63 814.66 638.62 C 815.93 636.68 816.62 636.02 819.07 636.09 C 819.45 636.96 819.86 637.82 820.30 638.67 L 821.68 638.82 C 824.46 638.60 827.22 638.12 830.00 637.86 C 832.90 637.82 836.00 639.02 838.86 639.48 C 841.26 640.01 843.45 639.97 845.39 641.62 C 847.24 642.74 848.25 644.72 849.95 645.93 C 850.61 643.52 849.63 639.89 852.06 638.32 C 853.38 638.86 853.82 640.02 855.41 639.53 C 856.45 636.16 857.57 633.59 861.02 632.13 Z" fill="#ffffff"/>
<path d="M 942.04 632.10 C 945.04 630.71 948.96 632.90 951.54 634.49 C 954.48 637.34 957.42 641.06 959.25 644.73 L 959.83 644.76 C 961.65 642.66 963.71 640.54 965.02 638.10 C 965.92 636.55 967.26 635.83 969.07 636.13 C 969.61 637.24 969.98 638.43 970.48 639.57 C 975.05 638.27 980.52 637.15 985.14 638.66 C 988.54 639.81 993.37 639.48 996.00 642.02 C 998.50 644.13 1001.18 647.01 1000.69 650.52 L 1001.35 650.53 C 1001.16 645.76 1003.55 640.72 1006.35 636.96 C 1007.54 635.83 1008.89 634.95 1010.24 634.05 C 1013.37 632.99 1015.71 631.24 1019.18 631.67 C 1021.50 633.00 1023.76 633.53 1025.56 635.44 C 1027.56 637.48 1029.29 639.81 1030.89 642.16 C 1032.11 644.44 1032.62 647.11 1033.59 649.50 L 1034.41 649.59 C 1034.43 647.06 1033.90 643.49 1035.36 641.31 C 1036.14 639.75 1038.72 640.06 1039.61 641.37 C 1041.09 642.55 1040.54 645.40 1040.46 647.07 C 1039.86 648.07 1038.64 648.97 1038.43 650.13 C 1037.75 656.76 1038.36 663.83 1042.97 669.01 C 1045.41 671.47 1048.42 670.75 1051.51 670.29 C 1057.80 668.16 1063.62 663.22 1066.17 657.02 C 1067.40 653.08 1068.20 648.20 1066.67 644.25 C 1064.92 643.01 1062.98 643.15 1062.33 640.73 C 1060.70 637.54 1066.84 634.20 1068.42 637.54 C 1069.91 640.00 1071.76 643.05 1071.51 646.00 C 1071.68 651.79 1070.82 657.02 1068.20 662.20 C 1064.62 667.40 1059.57 671.22 1053.94 673.95 C 1050.80 674.71 1047.14 676.04 1043.93 675.38 C 1038.92 673.66 1036.18 666.85 1034.63 662.23 C 1031.22 667.70 1026.94 672.44 1020.49 674.16 C 1017.95 674.47 1015.52 675.31 1012.98 675.53 C 1011.79 675.73 1010.29 675.39 1009.41 676.34 C 1008.95 680.21 1009.32 684.05 1010.30 687.81 C 1010.64 689.88 1011.52 693.08 1009.76 694.70 C 1008.38 694.95 1006.41 694.80 1005.46 693.61 C 1003.90 688.83 1005.47 683.97 1003.62 679.12 C 1003.40 677.09 999.79 677.22 1000.08 675.08 C 1000.85 673.58 1002.00 672.95 1001.65 671.03 C 1001.26 667.10 1001.38 663.10 1000.61 659.22 C 999.16 661.31 998.54 663.70 996.38 665.36 C 994.10 666.97 991.92 668.96 989.18 669.53 C 987.05 669.97 985.17 671.35 983.01 671.47 C 980.57 671.60 978.37 671.87 976.01 672.57 C 973.44 672.56 970.64 672.25 968.11 671.75 C 964.93 670.47 962.20 668.57 960.36 665.61 C 959.82 665.29 959.38 665.41 959.03 665.97 C 956.41 669.19 953.42 671.92 949.54 673.53 C 945.32 674.99 940.51 675.26 936.29 676.26 C 935.31 682.11 937.84 687.21 937.68 692.89 C 937.63 695.79 932.58 695.21 932.24 692.86 C 930.99 687.89 932.35 682.98 930.14 678.10 C 928.77 677.05 927.28 676.87 926.78 675.01 C 927.21 673.86 928.53 673.11 928.67 671.91 C 928.55 664.44 926.36 657.30 928.27 649.84 C 928.19 645.93 929.89 642.89 931.50 639.48 C 933.92 635.42 937.80 633.72 942.04 632.10 Z" fill="#ffffff"/>
<path d="M 1127.41 632.38 C 1128.22 632.12 1128.94 632.12 1129.58 632.39 C 1131.21 635.37 1132.55 638.40 1132.62 641.86 C 1132.66 642.99 1133.51 645.51 1134.99 645.04 C 1135.73 640.26 1138.67 635.06 1142.91 632.60 C 1149.79 631.76 1157.12 633.89 1160.75 640.16 C 1161.51 641.58 1161.73 643.59 1162.96 644.66 C 1166.02 640.23 1170.66 636.94 1175.06 633.96 C 1178.75 632.61 1184.35 630.18 1187.59 633.40 C 1191.12 636.19 1193.56 642.71 1190.73 646.73 C 1188.61 650.93 1183.73 652.72 1179.81 654.78 C 1175.30 657.45 1169.57 658.33 1164.40 658.49 C 1165.05 661.36 1165.71 664.01 1167.84 666.16 C 1170.99 669.68 1176.51 670.92 1181.00 671.32 C 1185.91 670.49 1190.20 670.53 1194.35 667.35 C 1195.29 666.16 1195.97 664.84 1196.99 663.71 C 1200.19 662.88 1203.11 667.40 1201.19 670.17 C 1200.13 673.15 1197.38 671.01 1195.16 672.32 C 1190.56 674.76 1185.14 675.76 1180.00 676.17 C 1177.13 675.76 1174.28 675.03 1171.47 674.35 C 1167.31 672.42 1163.73 669.42 1161.85 665.13 C 1159.86 661.50 1160.41 657.97 1160.30 654.00 C 1160.23 651.23 1161.29 648.92 1161.87 646.29 C 1159.95 645.65 1158.02 646.04 1156.96 644.03 C 1153.98 639.97 1150.37 636.51 1144.92 637.97 C 1140.91 639.80 1138.08 644.61 1138.28 649.00 C 1138.26 654.64 1138.27 660.42 1139.24 665.99 C 1139.29 668.82 1139.26 671.38 1140.44 674.02 C 1139.98 675.93 1137.74 677.85 1136.00 678.63 C 1134.47 677.79 1132.92 677.09 1133.32 675.02 C 1134.05 669.94 1133.51 665.02 1132.59 660.01 C 1132.49 655.16 1131.52 650.46 1130.15 645.82 C 1128.19 641.83 1126.89 636.80 1127.41 632.38 Z" fill="#ffffff"/>
<path d="M 118.99 632.17 C 124.16 634.36 125.81 639.86 128.92 644.12 C 133.16 651.46 138.04 658.20 142.79 665.18 C 145.05 668.14 147.39 671.53 148.74 674.99 C 147.84 677.24 144.53 678.96 142.92 676.08 C 140.18 667.03 132.57 659.32 127.85 651.14 C 125.65 647.06 122.63 643.59 120.41 639.54 C 118.71 638.65 117.20 640.25 116.73 641.79 C 114.56 650.80 116.03 660.81 115.70 670.02 C 115.66 672.00 115.09 673.82 114.54 675.69 C 113.10 677.30 111.34 677.76 109.35 676.72 C 107.99 670.05 108.81 662.80 108.43 656.00 C 108.19 652.67 108.57 649.34 108.31 646.00 C 108.40 643.15 107.69 640.73 109.98 638.53 C 110.95 638.88 111.91 639.31 112.85 639.82 C 114.19 638.44 114.30 636.02 115.59 634.61 C 116.63 633.73 117.68 632.61 118.99 632.17 Z" fill="#ffffff"/>
<path d="M 245.08 632.44 C 246.73 633.64 247.44 635.67 246.46 637.52 C 242.28 644.51 238.40 651.62 235.34 659.18 C 234.04 662.13 232.53 664.67 232.36 667.98 C 232.21 669.68 232.64 671.38 232.39 673.06 C 231.10 675.12 230.01 677.71 227.06 676.93 C 224.84 676.81 224.79 673.66 223.84 672.06 C 219.77 664.04 216.40 655.90 213.59 647.36 C 212.61 644.06 210.64 641.27 209.60 638.01 C 209.40 635.38 212.75 635.83 214.14 636.84 C 217.56 646.47 220.23 656.38 225.49 665.53 C 226.16 665.58 226.82 665.57 227.47 665.50 C 229.84 659.89 232.38 654.52 235.27 649.16 C 237.25 644.23 240.47 640.50 241.36 635.13 C 241.60 633.39 243.35 632.15 245.08 632.44 Z" fill="#ffffff"/>
<path d="M 327.45 635.97 C 327.18 643.75 326.19 650.55 327.24 658.16 C 327.62 661.21 327.01 667.49 329.96 669.32 C 331.96 669.27 332.68 669.83 332.70 671.86 C 332.14 673.94 330.23 677.00 327.98 677.37 C 325.39 676.06 324.54 673.63 323.84 671.00 C 321.58 662.14 322.67 652.04 323.07 643.00 C 323.12 640.12 321.99 636.79 322.82 634.03 C 323.84 631.00 328.23 633.45 327.45 635.97 Z" fill="#ffffff"/>
<path d="M 804.52 634.95 C 804.25 639.45 804.33 643.97 804.15 648.48 C 803.61 650.74 803.81 652.65 804.10 654.92 C 804.53 659.22 803.96 664.19 805.79 668.16 C 807.06 670.49 808.99 668.10 809.77 671.16 C 809.80 673.43 807.23 677.06 804.98 677.43 C 803.42 676.49 802.39 675.15 801.64 673.52 C 800.11 668.81 799.41 663.94 799.46 658.99 C 799.56 656.37 799.47 653.75 799.56 651.13 C 800.74 648.00 800.08 644.32 800.24 640.97 C 800.53 638.11 798.53 636.47 800.33 633.67 C 801.08 631.28 804.34 633.26 804.52 634.95 Z" fill="#ffffff"/>
<path d="M 1096.20 633.71 C 1099.00 633.49 1101.90 635.32 1104.00 637.00 C 1105.99 639.38 1107.35 642.55 1108.78 645.24 C 1110.45 648.32 1110.42 651.79 1112.04 654.89 C 1114.86 661.34 1114.91 668.90 1118.12 675.09 C 1116.76 677.83 1113.56 678.61 1111.40 676.08 C 1111.32 674.89 1111.28 673.69 1111.29 672.49 C 1109.74 666.87 1109.64 661.41 1106.90 656.11 C 1104.64 652.97 1100.94 650.48 1097.01 652.04 C 1092.96 654.78 1088.80 659.01 1087.77 663.96 C 1087.43 666.57 1086.82 669.11 1088.78 671.24 C 1091.88 674.28 1096.90 675.09 1100.99 674.02 C 1103.53 673.51 1103.76 670.70 1106.04 669.84 C 1107.63 670.10 1108.73 670.40 1109.56 671.90 C 1109.77 674.07 1108.55 676.34 1106.22 676.61 C 1102.56 677.42 1099.89 679.29 1096.00 678.72 C 1092.29 678.56 1088.93 677.36 1086.15 674.87 C 1082.47 670.61 1082.54 664.74 1084.95 659.88 C 1087.36 654.18 1092.43 648.36 1098.99 647.86 C 1100.90 648.17 1102.81 648.47 1104.74 648.65 C 1105.04 645.01 1101.50 639.18 1097.97 637.96 C 1092.27 637.50 1090.77 641.91 1086.87 644.75 C 1084.88 644.78 1085.01 642.02 1085.71 640.76 C 1087.80 637.08 1092.28 634.82 1096.20 633.71 Z" fill="#ffffff"/>
<path d="M 1124.52 634.94 C 1124.13 639.31 1124.36 643.63 1123.86 648.00 C 1123.45 653.07 1124.34 657.97 1124.54 663.02 C 1124.57 665.05 1125.16 667.13 1126.19 668.87 C 1126.89 669.31 1127.74 669.51 1128.74 669.46 C 1131.57 671.50 1127.42 677.20 1124.97 677.43 C 1120.75 675.22 1120.57 669.16 1119.77 665.01 C 1119.47 658.04 1119.47 650.95 1120.14 644.00 C 1120.26 640.77 1119.11 637.18 1119.82 634.02 C 1120.63 631.47 1124.26 632.74 1124.52 634.94 Z" fill="#ffffff"/>
<path d="M 197.00 633.86 C 199.65 634.25 202.78 635.29 204.41 637.56 C 209.34 644.28 210.56 651.23 213.35 658.83 C 215.21 663.99 215.19 670.50 218.22 675.10 C 216.46 677.79 213.81 678.72 211.38 676.12 C 211.14 674.29 211.60 672.64 210.98 670.88 C 209.89 666.08 209.20 661.33 207.26 656.75 C 205.39 653.25 201.54 650.95 197.51 651.72 C 191.54 655.69 186.52 661.36 187.50 669.07 C 188.79 672.49 192.59 674.06 195.99 674.41 C 199.30 674.49 202.56 674.62 204.22 671.23 C 205.83 668.82 208.28 669.88 209.63 671.90 C 209.84 673.62 208.92 674.83 207.90 676.09 C 205.21 676.89 202.54 677.80 199.86 678.59 C 196.09 679.00 191.72 678.64 188.45 676.55 C 184.51 674.62 182.48 669.22 183.30 665.06 C 184.52 658.75 188.14 653.15 193.42 649.46 C 197.20 647.44 200.75 648.19 204.78 648.63 C 204.69 644.85 202.40 640.97 199.48 638.64 C 197.42 637.37 195.65 638.09 193.53 638.68 C 190.98 640.40 189.32 643.01 186.85 644.75 C 184.70 644.78 185.12 641.85 185.66 640.50 C 188.35 636.75 192.54 634.65 197.00 633.86 Z" fill="#ffffff"/>
<path d="M 104.26 636.78 C 106.26 639.70 108.27 643.36 107.80 647.00 C 107.78 652.76 107.08 658.04 103.95 662.97 C 100.67 667.88 95.33 671.47 90.11 674.06 C 86.05 675.23 80.85 676.97 77.34 673.65 C 73.09 669.31 70.69 662.95 69.89 657.01 C 70.06 652.99 70.76 649.04 70.64 644.98 C 70.77 643.22 71.54 639.75 74.01 640.35 C 77.15 640.79 76.82 643.59 76.75 646.05 C 76.95 647.94 74.56 648.94 74.66 650.96 C 74.33 655.28 74.26 659.83 76.19 663.81 C 77.38 666.54 79.10 669.72 82.12 670.68 C 89.38 671.37 95.41 667.16 99.81 661.81 C 103.67 656.86 104.55 650.54 103.35 644.49 C 101.73 643.31 99.55 643.10 98.81 641.16 C 96.56 638.22 102.03 634.61 104.26 636.78 Z" fill="#ffffff"/>
<path d="M 424.47 636.75 C 427.46 638.61 430.00 641.04 432.26 643.74 C 434.97 648.09 436.05 652.96 436.01 658.02 C 435.42 660.17 434.24 662.18 432.96 663.98 C 428.11 669.02 422.05 670.19 415.45 671.51 C 414.48 667.59 416.63 662.01 413.98 658.78 C 412.66 658.29 411.78 658.67 411.34 659.92 C 411.06 662.03 412.06 665.10 410.52 666.74 C 410.35 659.51 409.01 650.33 412.66 643.82 C 414.59 639.38 419.51 635.88 424.47 636.75 Z" fill="#005fab"/>
<path d="M 945.52 636.68 C 948.86 638.26 951.66 641.19 954.00 644.00 C 956.61 648.24 957.75 652.91 957.61 657.88 C 956.26 663.64 951.78 667.15 946.51 669.24 C 943.65 669.74 939.77 671.62 937.01 670.95 C 935.97 667.23 937.78 662.93 935.91 659.06 C 935.04 658.34 934.16 658.40 933.27 659.23 C 932.31 661.03 932.95 663.66 932.63 665.69 L 931.66 665.55 C 931.69 660.92 931.49 656.14 931.79 651.50 C 932.75 648.15 933.18 645.03 935.14 642.14 C 937.28 638.83 941.48 636.11 945.52 636.68 Z" fill="#005fab"/>
<path d="M 1018.51 636.69 C 1021.67 637.97 1024.36 640.92 1026.60 643.41 C 1029.72 647.72 1030.71 652.64 1030.67 657.89 C 1028.99 664.71 1022.75 668.86 1016.16 670.15 C 1014.37 670.36 1011.66 671.78 1010.10 670.88 C 1009.00 667.92 1010.50 664.20 1009.63 660.99 C 1009.80 659.00 1007.84 657.69 1006.30 659.27 C 1005.31 661.06 1005.98 663.75 1005.82 665.77 L 1005.28 665.57 C 1004.26 658.26 1004.19 649.47 1007.76 642.80 C 1009.78 639.22 1014.31 636.18 1018.51 636.69 Z" fill="#005fab"/>
<path d="M 268.83 637.26 C 270.06 638.57 271.74 640.07 271.46 642.02 C 271.40 643.50 269.93 644.88 268.97 645.95 C 265.57 648.84 261.34 651.06 257.05 652.28 C 254.32 653.05 251.92 652.34 249.34 651.45 C 249.18 647.38 254.17 643.47 256.98 641.02 C 261.07 639.08 264.09 636.71 268.83 637.26 Z" fill="#005fab"/>
<path d="M 607.88 637.19 C 608.85 637.97 609.58 639.05 610.37 640.00 C 611.44 643.65 608.36 645.93 605.77 647.78 C 600.49 651.13 594.62 654.38 588.38 651.40 C 588.83 647.06 593.01 643.81 596.10 641.11 C 600.01 639.04 603.20 636.79 607.88 637.19 Z" fill="#005fab"/>
<path d="M 1183.93 637.14 C 1184.91 637.71 1185.66 638.71 1186.44 639.53 C 1188.00 641.47 1186.68 643.72 1185.27 645.27 C 1181.32 648.98 1176.19 651.59 1170.87 652.58 C 1169.32 652.69 1165.74 652.45 1165.02 650.88 C 1165.28 646.96 1169.55 643.69 1172.29 641.24 C 1176.13 639.25 1179.39 636.95 1183.93 637.14 Z" fill="#005fab"/>
<path d="M 647.01 637.89 L 648.35 638.45 C 648.01 647.83 648.32 656.80 650.26 666.01 C 649.36 667.60 648.75 670.42 647.02 671.22 C 640.65 672.63 634.80 670.57 629.12 667.88 C 626.86 666.44 623.42 663.11 624.28 660.15 C 626.52 654.87 630.34 651.28 634.10 647.12 C 637.81 643.34 641.99 639.76 647.01 637.89 Z" fill="#005fab"/>
<path d="M 827.97 642.66 C 830.76 642.76 833.34 642.27 836.01 643.27 C 841.18 643.36 846.29 646.35 846.49 651.99 C 846.20 654.90 847.13 657.65 844.82 659.82 C 840.68 664.72 835.61 664.82 830.00 666.87 C 825.02 667.75 820.43 668.03 816.19 664.83 C 812.12 661.41 811.91 655.44 813.80 650.81 C 814.54 647.83 815.98 645.31 819.15 644.51 C 822.25 643.86 824.74 642.39 827.97 642.66 Z" fill="#005fab"/>
<path d="M 976.97 642.69 C 980.07 642.79 983.16 642.23 985.99 643.26 C 989.74 643.28 993.00 644.71 995.26 647.75 C 997.24 650.33 996.38 654.46 996.40 657.56 C 995.18 660.02 992.72 662.01 990.42 663.42 C 987.82 665.01 984.88 665.04 982.21 666.23 C 979.11 667.35 975.42 667.39 972.14 667.41 C 967.40 666.40 963.11 663.40 962.79 658.17 C 962.12 654.14 963.71 650.85 965.29 647.27 C 966.05 645.99 967.67 644.80 969.15 644.51 C 971.96 643.98 974.08 642.47 976.97 642.69 Z" fill="#005fab"/>
<path d="M 755.92 657.98 C 757.79 663.74 759.28 670.06 759.50 676.09 C 761.97 678.71 764.50 677.95 766.27 675.08 C 763.90 670.72 763.23 665.33 762.16 660.53 C 761.50 658.57 760.54 656.53 760.36 654.46 C 762.23 653.49 764.61 651.86 766.79 652.24 C 767.99 654.29 767.77 657.50 768.53 659.85 C 770.75 666.28 775.36 672.03 781.54 675.05 C 777.88 679.49 773.54 683.62 768.84 686.95 C 764.68 689.75 761.86 693.81 757.72 696.78 C 755.03 698.70 752.96 701.25 750.45 703.36 C 746.53 706.11 743.41 709.72 739.53 712.53 C 735.53 716.42 731.42 719.94 726.59 722.79 C 723.58 725.71 719.99 727.89 717.01 730.81 C 706.31 739.95 694.89 748.02 683.76 756.61 C 681.30 757.99 679.92 760.51 677.19 760.84 C 677.40 757.87 678.20 755.09 678.71 752.17 C 680.25 746.20 680.94 739.98 682.16 733.92 C 682.84 731.74 682.22 729.48 683.25 727.45 C 685.37 723.54 683.15 718.95 685.21 714.81 C 685.51 701.19 685.52 687.58 685.28 673.96 C 685.08 672.37 686.02 671.32 686.92 670.16 C 690.38 667.84 692.68 665.38 694.90 661.87 C 695.62 661.12 695.17 659.18 696.41 659.35 C 696.71 665.20 700.10 669.79 704.51 673.34 C 708.79 674.67 712.64 676.96 717.00 676.58 C 720.76 676.43 725.40 676.63 728.76 674.76 C 729.97 674.26 731.37 673.19 732.71 673.28 C 735.52 676.34 738.76 678.25 742.99 678.56 C 747.53 679.43 750.80 677.46 755.06 676.39 C 756.90 676.00 757.90 673.60 757.67 671.90 C 757.18 670.58 755.34 669.82 754.03 669.80 C 751.86 670.97 751.61 673.49 749.01 674.07 C 745.02 675.01 739.62 674.34 736.87 671.00 C 737.67 669.22 741.55 668.74 740.20 665.97 C 739.59 663.43 737.41 663.94 736.48 662.06 C 737.74 658.54 740.36 656.46 742.78 653.78 C 746.82 649.34 754.38 652.93 755.92 657.98 Z" fill="#ed1b24"/>
</svg>