<?xml version="1.0" encoding="UTF-8" standalone="no"?>
<svg
   xmlns:dc="http://purl.org/dc/elements/1.1/"
   xmlns:cc="http://creativecommons.org/ns#"
   xmlns:rdf="http://www.w3.org/1999/02/22-rdf-syntax-ns#"
   xmlns:svg="http://www.w3.org/2000/svg"
   xmlns="http://www.w3.org/2000/svg"
   viewBox="0 0 700 230.00001"
   height="230"
   width="700"
   xml:space="preserve"
   version="1.1"
   id="svg2"><metadata
     id="metadata8"><rdf:RDF><cc:Work
         rdf:about=""><dc:format>image/svg+xml</dc:format><dc:type
           rdf:resource="http://purl.org/dc/dcmitype/StillImage" /><dc:title></dc:title></cc:Work></rdf:RDF></metadata><defs
     id="defs6" /><g
     transform="matrix(1.25,0,0,-1.25,0,229.99995)"
     id="g10"><g
       transform="matrix(1,0,0,1.003055,-296.05028,-76.664556)"
       id="g5435"><path
         d="m 296.05271,76.589083 558.60171,0 0,183.279217 -558.60171,0 0,-183.279217 z"
         style="fill:#ffffff;fill-opacity:1;fill-rule:nonzero;stroke:none"
         id="path262" /><g
         id="g5408"><path
           id="path264"
           style="fill:#dd7602;fill-opacity:1;fill-rule:nonzero;stroke:none"
           d="m 296.16944,76.589083 209.64953,0 0,182.792857 -209.64953,0 0,-182.792857 z" /><path
           id="path266"
           style="fill:#0076bd;fill-opacity:1;fill-rule:nonzero;stroke:none"
           d="m 490.07066,76.589083 365.97962,0 0,182.792857 -365.97962,0 0,-182.792857 z" /></g><g
         id="g5412"><path
           id="path272"
           style="fill:#eda556;fill-opacity:1;fill-rule:nonzero;stroke:none"
           d="m 360.36531,227.53664 c -0.91436,0 -1.68281,-0.56904 -1.99408,-1.36667 -4.77115,2.06217 -5.61742,7.36837 -5.73901,8.48695 l 0.0486,0 c 1.17699,0 2.13507,0.95326 2.13507,2.13026 0,1.17699 -0.95808,2.13512 -2.13507,2.13512 -1.177,0 -2.13026,-0.95813 -2.13026,-2.13512 0,-0.749 0.37936,-1.40559 0.96785,-1.78495 -2.4318,-5.39855 -10.85552,-5.98705 -11.71151,-6.03082 0,0 -0.214,-0.0438 -0.19455,0.22859 0.01,0.14104 0.38909,9.2408 6.04055,11.77961 0.37937,-0.58364 1.03109,-0.97273 1.78495,-0.97273 1.17699,0 2.13026,0.95814 2.13026,2.13513 0,1.17694 -0.95327,2.13021 -2.13026,2.13021 -1.17699,0 -2.13994,-0.95327 -2.13994,-2.13021 0,-0.0195 0.01,-0.0341 0.01,-0.0535 -1.11863,0.12645 -6.42483,0.97267 -8.49186,5.74387 0.80249,0.30154 1.36667,1.08458 1.36667,1.98435 0,1.18186 -0.9484,2.13994 -2.12535,2.13994 -1.18185,0 -2.13512,-0.95808 -2.13512,-2.13994 0,-0.88031 0.53986,-1.63903 1.30345,-1.9649 -2.05731,-4.79065 -7.37809,-5.63687 -8.49668,-5.76332 0,0.0194 0.005,0.034 0.005,0.0535 0,1.17694 -0.95327,2.13021 -2.13513,2.13021 -1.17699,0 -2.13512,-0.95327 -2.13512,-2.13021 0,-1.17699 0.95813,-2.13513 2.13512,-2.13513 0.75386,0 1.40559,0.38909 1.78981,0.97273 5.69037,-2.55826 6.03569,-11.77961 6.03569,-11.77961 0.0146,-0.18968 -0.0778,-0.22859 -0.14591,-0.22859 -0.428,0.0146 -9.26512,0.47663 -11.76015,6.03082 0.5885,0.37936 0.97272,1.03595 0.97272,1.78495 0,1.17699 -0.95813,2.13512 -2.13512,2.13512 -1.17695,0 -2.13508,-0.95813 -2.13508,-2.13512 0,-1.177 0.95813,-2.13026 2.13508,-2.13026 l 0.0438,0 c -0.12159,-1.11858 -0.96781,-6.42478 -5.73415,-8.48695 -0.3064,0.79763 -1.08458,1.36667 -1.99407,1.36667 -1.18186,0 -2.13508,-0.95326 -2.13508,-2.13026 0,-1.1818 0.95322,-2.13507 2.13508,-2.13507 0.88517,0 1.64876,0.535 1.96489,1.30345 4.79552,-2.04758 5.64174,-7.37323 5.76333,-8.487 l -0.0438,0 c -1.17695,0 -2.13508,-0.95322 -2.13508,-2.13507 0,-1.18186 0.95813,-2.13999 2.13508,-2.13999 1.17699,0 2.13512,0.95813 2.13512,2.13999 0,0.74899 -0.38422,1.40072 -0.97272,1.7898 2.4853,5.51529 11.23488,6.00651 11.75529,6.04056 0.0681,-0.01 0.16536,-0.0438 0.15077,-0.24318 0,-0.01 -0.35504,-9.21163 -6.03569,-11.77961 -0.38422,0.58849 -1.03595,0.97272 -1.78981,0.97272 -1.17699,0 -2.13512,-0.95327 -2.13512,-2.13026 0,-1.18186 0.95813,-2.13508 2.13512,-2.13508 1.18186,0 2.13513,0.95322 2.13513,2.13508 0,0.01 -0.005,0.034 -0.005,0.0486 1.11859,-0.12646 6.43937,-0.97273 8.49668,-5.76819 -0.76359,-0.321 -1.30345,-1.07972 -1.30345,-1.96976 0,-1.177 0.95327,-2.1254 2.13512,-2.1254 1.17695,0 2.12535,0.9484 2.12535,2.1254 0,0.91435 -0.56418,1.68767 -1.36667,1.98921 2.06703,4.77601 7.37323,5.62228 8.49186,5.74874 0,-0.0146 -0.01,-0.0389 -0.01,-0.0486 0,-1.18186 0.96295,-2.13508 2.13994,-2.13508 1.17699,0 2.13026,0.95322 2.13026,2.13508 0,1.17699 -0.95327,2.13026 -2.13026,2.13026 -0.75386,0 -1.40558,-0.38423 -1.78495,-0.97272 -5.632,2.5388 -6.03082,11.58506 -6.04055,11.77474 -0.0195,0.28209 0.19455,0.23346 0.19455,0.23346 l 0,0.005 c 0.85599,-0.0438 9.27971,-0.63227 11.71151,-6.03083 -0.58849,-0.38908 -0.96785,-1.04081 -0.96785,-1.7898 0,-1.18186 0.95326,-2.13999 2.13026,-2.13999 1.17699,0 2.13507,0.95813 2.13507,2.13999 0,1.18185 -0.95808,2.13507 -2.13507,2.13507 l -0.0486,0 c 0.12159,1.11377 0.96786,6.43942 5.76819,8.487 0.31613,-0.76845 1.07972,-1.30345 1.9649,-1.30345 1.17699,0 2.13512,0.95327 2.13512,2.13507 0,1.177 -0.95813,2.13026 -2.13512,2.13026" /><path
           id="path274"
           style="fill:#ffffff;fill-opacity:1;fill-rule:nonzero;stroke:none"
           d="m 455.8189,222.95615 -2.60685,-31.75921 c 0,0 0.97754,-10.8458 -10.45184,-12.68909 0,0 -39.55552,-8.87604 -44.85681,-9.79525 0,0 -4.08543,-1.23535 -5.43264,-0.005 -1.76063,0.4815 -2.24694,2.40261 3.04461,8.20486 l 43.79654,48.69418 c 0,0 11.86715,12.92741 15.25704,5.81201 1.03109,-1.42018 1.56122,-4.04653 1.24995,-8.46263 m 102.85503,-104.7567 c -2.56799,3.08837 -11.15221,-1.55635 -11.15221,-1.55635 l -22.70317,-9.67366 c -2.8063,1.66821 -5.21865,3.82764 -7.29055,6.2497 -9.01708,10.52479 -11.57042,25.87911 -11.57042,25.87911 -5.1457,29.03072 1.75085,95.18028 2.13507,114.56652 0.01,0.48636 -0.0292,0.95813 -0.0875,1.41531 -0.39395,1.81899 -1.28881,3.40939 -2.59225,4.79065 l -15.46623,0 -78.73649,0 c 0.65172,-0.0729 1.28399,-0.14104 1.96003,-0.20913 16.4778,-1.63904 23.04849,-5.4132 24.38598,-9.94117 2.34426,-5.65151 -4.35288,-12.71342 -9.66394,-18.48647 C 418.53954,221.0788 298.89549,84.212744 296.75064,81.717728 c -0.19454,-0.22859 -0.43286,-0.515538 -0.70036,-0.841399 l 0,-4.445313 16.78907,0 c 0.17996,0.06323 0.35018,0.111863 0.535,0.17509 13.8126,4.771169 25.2517,7.018146 34.57519,7.382917 11.85742,0.622536 20.33464,-1.775207 25.85479,-6.021117 0.79277,-0.617673 1.54176,-1.108893 2.26644,-1.53689 l 10.51993,0 c 0.34046,0.35018 0.51068,0.603082 0.51068,0.603082 13.34078,17.611029 16.41944,22.425971 16.41944,22.425971 11.69693,18.535111 12.71829,20.008771 12.71829,20.008771 -3.29753,4.90736 -7.986,7.97627 -13.34569,9.7758 -11.6872,3.63309 -26.38006,1.45421 -36.9,-0.95326 -2.07189,-0.47664 -4.03674,-0.43773 -5.70982,0.005 -7.90818,1.27912 -10.66098,10.84092 8.46749,18.68588 22.65454,9.28944 72.96344,17.27544 72.96344,17.27544 4.42097,0.92408 6.72632,0.107 7.9325,-1.09431 2.0184,-1.50771 1.72658,-4.03191 1.72658,-4.03191 l -0.45718,-6.43451 c -2.13026,-50.52775 4.47447,-58.324065 4.47447,-58.324065 5.83146,-9.299168 16.53617,-14.756106 26.46274,-17.941749 l 8.09299,0 15.75318,0 4.44042,0 42.95514,32.668674 c 1.13808,0.87544 2.03299,1.69253 2.77225,2.45611 0.44259,0.47177 0.84141,0.91921 1.16241,1.34234 l 0,0.005 c 2.56798,3.33155 1.6439,5.29644 1.6439,5.29644" /><g
           id="g5388"><path
             d="m 557.97113,134.47591 c -1.04081,0 -1.88708,0.0729 -2.50475,0.20913 -0.59823,0.13132 -1.05541,0.34045 -1.36181,0.61281 -0.30155,0.2675 -0.49609,0.60309 -0.5885,1.02622 -0.10214,0.46204 -0.15564,1.02135 -0.15564,1.66821 l -0.01,10.0287 -1.96972,0 0.0146,-10.29134 c 0,-0.87544 0.0924,-1.63902 0.28208,-2.27129 0.19455,-0.66631 0.54959,-1.23048 1.05536,-1.66821 0.49122,-0.43286 1.15754,-0.74899 1.97462,-0.95326 0.78791,-0.18968 1.79467,-0.29182 3.00085,-0.29182 l 0.0195,0 7.29537,0.005 -0.005,1.92597 -7.04732,0 z"
             style="fill:#ffffff;fill-opacity:1;fill-rule:nonzero;stroke:none"
             id="path276" /><path
             d="m 578.76004,145.9418 c 0.83649,-0.29182 1.53685,-0.70036 2.07671,-1.19158 0.53986,-0.49122 0.9484,-1.06999 1.22077,-1.71198 0.23345,-0.55931 0.38422,-1.14294 0.45717,-1.74602 l -13.832,-0.01 c 0.107,0.60795 0.30155,1.18671 0.57391,1.7363 0.33072,0.64685 0.7879,1.23048 1.3569,1.7217 0.57877,0.49609 1.28885,0.89977 2.11567,1.19645 0.8414,0.29668 1.83358,0.44745 2.95707,0.44745 l 0.0146,0.30641 0,-0.30641 c 1.18672,0 2.21294,-0.15077 3.05921,-0.44259 m 3.41907,0.0973 c -0.749,0.69549 -1.67795,1.23535 -2.7674,1.60985 -1.07967,0.36477 -2.32475,0.54958 -3.70115,0.54958 -1.32777,0 -2.55826,-0.19454 -3.6623,-0.58363 -1.10404,-0.37936 -2.07185,-0.93381 -2.86948,-1.63416 -0.80249,-0.71009 -1.43476,-1.56608 -1.87735,-2.53879 -0.44259,-0.98244 -0.66632,-2.07189 -0.66632,-3.24401 0,-1.2159 0.23832,-2.31993 0.70523,-3.29264 0.46204,-0.97272 1.13322,-1.81412 1.99408,-2.49988 0.85113,-0.68091 1.90162,-1.21104 3.10779,-1.57581 1.19645,-0.35504 2.54853,-0.53985 4.02221,-0.53985 l 0.0146,0 c 0.60795,0 1.19644,0.0243 1.7509,0.0632 0.5204,0.0389 1.05053,0.10699 1.56116,0.18968 0.50582,0.0778 1.02623,0.19454 1.56122,0.33072 0.52527,0.13618 1.08945,0.29668 1.70713,0.48636 l 0.214,0.0681 -0.005,2.34911 -0.4669,-0.29182 c -0.2675,-0.17022 -0.62741,-0.33559 -1.06027,-0.50094 -0.43772,-0.16537 -0.93381,-0.31127 -1.46881,-0.44259 -0.52527,-0.13132 -1.09426,-0.23832 -1.68762,-0.31614 -0.58363,-0.0729 -1.1624,-0.11672 -1.7509,-0.11672 -1.33263,0 -2.50962,0.13618 -3.50666,0.40368 -0.98245,0.26263 -1.82385,0.64686 -2.49017,1.14294 -0.66626,0.48636 -1.18667,1.08944 -1.54171,1.78493 -0.31614,0.60795 -0.53014,1.29858 -0.62741,2.04757 l 15.82122,0.0146 0,0.64199 c 0,1.22563 -0.19455,2.35398 -0.58363,3.34128 -0.39396,0.99217 -0.97273,1.85303 -1.72658,2.55339"
             style="fill:#ffffff;fill-opacity:1;fill-rule:nonzero;stroke:none"
             id="path278" /><path
             d="m 612.10911,140.33555 c 0,-1.1624 -0.16536,-2.13998 -0.49609,-2.88897 -0.33559,-0.74899 -0.79763,-1.35207 -1.38126,-1.7898 -0.59822,-0.44258 -1.31804,-0.76358 -2.14972,-0.94353 -0.85599,-0.18482 -1.80921,-0.28209 -2.84516,-0.28209 l -5.99682,0 -0.005,11.77473 5.99197,0.01 c 0.69549,0 1.35203,-0.0389 1.96484,-0.11673 0.60309,-0.073 1.16727,-0.20914 1.67795,-0.38909 0.50095,-0.18482 0.96299,-0.41827 1.36181,-0.71008 0.39395,-0.28695 0.72954,-0.64686 1.0019,-1.06999 0.28209,-0.428 0.49609,-0.94353 0.64686,-1.52716 0.15077,-0.59336 0.22859,-1.28885 0.22859,-2.06703 m -0.58363,6.09893 c -0.8025,0.59336 -1.76063,1.02136 -2.84521,1.2694 -1.06027,0.23832 -2.22267,0.35504 -3.45798,0.35504 l -7.95681,0 0.01,-15.47591 7.97626,0.005 c 0.82195,0 1.6244,0.0535 2.3734,0.1605 0.75872,0.107 1.47367,0.27722 2.12053,0.5204 0.65659,0.23832 1.25967,0.56418 1.79467,0.96299 0.54472,0.40368 1.01163,0.89976 1.39099,1.47366 0.3745,0.57391 0.66632,1.24995 0.87059,2.01839 0.20913,0.76358 0.31127,1.64389 0.31127,2.61661 0,1.45907 -0.23346,2.69929 -0.68577,3.68659 -0.45718,0.99217 -1.09918,1.79953 -1.90167,2.40747"
             style="fill:#ffffff;fill-opacity:1;fill-rule:nonzero;stroke:none"
             id="path280" /><path
             d="m 630.15786,151.00673 -0.82681,1.70225 -5.18456,-2.58742 0.69058,-1.37639 5.32079,2.26156 z"
             style="fill:#ffffff;fill-opacity:1;fill-rule:nonzero;stroke:none"
             id="path282" /><path
             d="m 626.01018,146.73019 0,-0.30641 c 1.19158,0 2.2178,-0.15077 3.0592,-0.44259 0.84627,-0.29668 1.54177,-0.6955 2.08649,-1.19158 0.535,-0.49608 0.94354,-1.06999 1.22077,-1.71198 0.22859,-0.55931 0.38422,-1.14294 0.45231,-1.74116 l -13.83691,-0.01 c 0.11186,0.60309 0.30641,1.18185 0.57877,1.73144 0.33072,0.64685 0.7879,1.22562 1.35695,1.72657 0.57876,0.49608 1.28885,0.8949 2.12053,1.19158 0.83167,0.29668 1.8238,0.44745 2.9473,0.44745 l 0.0146,0.30641 z m 6.48318,-0.65659 c -0.74413,0.6955 -1.67794,1.24021 -2.76739,1.61471 -1.07972,0.36477 -2.31994,0.54958 -3.7012,0.54958 -1.33263,0 -2.56308,-0.19454 -3.66711,-0.57876 -1.10404,-0.38909 -2.0719,-0.93867 -2.86467,-1.64389 -0.79763,-0.70522 -1.4299,-1.55635 -1.87735,-2.53879 -0.44259,-0.97758 -0.66632,-2.07188 -0.66632,-3.24401 0,-1.21103 0.23832,-2.31992 0.70523,-3.28778 0.46204,-0.97271 1.13322,-1.81411 1.99408,-2.49988 0.85599,-0.68577 1.8968,-1.21589 3.10298,-1.5758 1.20131,-0.35504 2.55334,-0.53499 4.02702,-0.53499 l 0.0146,0 c 0.62254,0 1.21103,0.0195 1.7509,0.0584 0.53986,0.0438 1.06513,0.107 1.56121,0.18968 0.52041,0.0827 1.04568,0.19455 1.56122,0.33073 0.52527,0.13131 1.09431,0.29668 1.70708,0.48636 l 0.214,0.0681 0,2.34911 -0.47177,-0.29668 c -0.27723,-0.16537 -0.62741,-0.33559 -1.06027,-0.49609 -0.43772,-0.16536 -0.93381,-0.31613 -1.46881,-0.44745 -0.53986,-0.12645 -1.10404,-0.23345 -1.68767,-0.31127 -0.5885,-0.0729 -1.17213,-0.11673 -1.7509,-0.11673 -1.33749,0 -2.51448,0.13618 -3.50661,0.40368 -0.98245,0.2675 -1.82385,0.64686 -2.49017,1.14294 -0.66631,0.48637 -1.18185,1.08458 -1.54176,1.78008 -0.31614,0.61767 -0.53013,1.30344 -0.62254,2.05243 l 15.81635,0.0146 0,0.64199 c 0,1.23049 -0.19454,2.35397 -0.58363,3.34128 -0.39395,0.99217 -0.97268,1.85302 -1.72653,2.54852"
             style="fill:#ffffff;fill-opacity:1;fill-rule:nonzero;stroke:none"
             id="path284" /><path
             d="m 647.54029,140.20083 -0.0875,0 c -0.36963,0.005 -0.72954,0.005 -1.06027,0.005 l -5.72441,-0.005 0,6.00652 5.55419,0.005 c 0.97758,0 1.8433,-0.034 2.57771,-0.11186 0.71009,-0.0778 1.29858,-0.22373 1.7509,-0.44259 0.43286,-0.20427 0.73922,-0.49122 0.94349,-0.87058 0.20913,-0.38422 0.31613,-0.90949 0.31613,-1.56121 0,-0.56418 -0.0778,-1.02135 -0.24318,-1.37639 -0.16536,-0.35018 -0.38422,-0.63713 -0.65167,-0.85113 -0.27723,-0.21886 -0.59336,-0.38423 -0.95327,-0.49122 -0.37936,-0.11673 -0.78304,-0.19454 -1.21104,-0.23832 -0.40368,-0.0438 -0.81222,-0.0681 -1.21104,-0.0681 m 4.63984,6.66797 c -0.54473,0.40368 -1.26449,0.71495 -2.11562,0.91922 -0.84141,0.20427 -1.85304,0.30641 -3.03003,0.30641 l -8.33617,-0.005 0.0146,-15.47591 1.96489,0 -0.01,5.70985 6.37127,0.005 c 1.177,0.005 2.20322,0.107 3.03003,0.30641 0.85113,0.20913 1.56603,0.52526 2.12048,0.93867 0.55446,0.41827 0.97273,0.94353 1.24022,1.56607 0.24805,0.60308 0.37937,1.3083 0.37937,2.08648 0,0.78303 -0.13132,1.48339 -0.38909,2.09133 -0.26264,0.61768 -0.68091,1.14295 -1.24022,1.55149"
             style="fill:#ffffff;fill-opacity:1;fill-rule:nonzero;stroke:none"
             id="path286" /><path
             d="m 658.56313,135.68986 c -0.20914,0.31613 -0.31128,0.67603 -0.31128,1.0943 0,0.50095 0.214,0.93867 0.64686,1.34235 0.45718,0.428 1.20131,0.81708 2.21776,1.14781 1.03108,0.33558 2.39289,0.6274 4.04166,0.87058 1.57581,0.22372 3.49207,0.39881 5.69523,0.53013 l 0.005,-4.5134 c -0.20914,-0.14591 -0.45232,-0.28696 -0.73441,-0.43773 -0.35504,-0.17509 -0.73927,-0.34045 -1.15749,-0.49608 -0.42313,-0.15077 -0.88031,-0.29668 -1.35694,-0.43286 -0.46691,-0.12159 -0.94841,-0.23346 -1.46881,-0.34045 -0.51068,-0.0924 -1.0165,-0.17023 -1.49799,-0.22373 -1.28886,-0.13618 -2.57772,-0.0924 -3.57476,0.107 -0.61281,0.11673 -1.13803,0.29668 -1.56603,0.52526 -0.40368,0.22373 -0.72468,0.50095 -0.93867,0.82681 m 13.59854,9.8293 c -0.41827,0.67603 -1.00676,1.24021 -1.74117,1.66821 -0.71495,0.41827 -1.57089,0.71981 -2.53875,0.91435 -2.04272,0.39395 -4.60097,0.35018 -6.76042,-0.0292 -1.15749,-0.20427 -2.24207,-0.44259 -3.23425,-0.70522 l -0.22372,-0.0584 0,-2.26643 0.41827,0.1605 c 0.47663,0.18482 0.95327,0.36477 1.4299,0.53013 0.45718,0.15563 0.94835,0.30154 1.4639,0.42799 0.51554,0.12646 1.06999,0.22373 1.64389,0.29182 0.98732,0.12159 2.23726,0.15077 3.54071,0.0389 0.52527,-0.0438 1.02136,-0.11673 1.49799,-0.21886 0.46204,-0.10214 0.89977,-0.24318 1.29858,-0.41341 0.39396,-0.16536 0.73436,-0.36963 1.01645,-0.60795 0.28209,-0.23832 0.49609,-0.51067 0.65172,-0.83167 0.15078,-0.30641 0.22373,-0.67118 0.22373,-1.07971 l 0.005,-0.84627 c -1.29858,-0.0778 -2.53875,-0.17022 -3.69629,-0.28695 -1.25481,-0.12159 -2.44639,-0.27236 -3.53584,-0.45718 -1.07486,-0.18482 -2.07676,-0.4134 -2.97167,-0.68576 -0.89971,-0.2675 -1.67789,-0.60308 -2.31502,-0.99217 -0.66145,-0.40368 -1.17213,-0.88517 -1.52718,-1.42503 -0.36477,-0.55445 -0.55445,-1.20617 -0.55445,-1.93084 0,-0.71981 0.1605,-1.36181 0.47664,-1.92112 0.31127,-0.54958 0.76358,-1.01162 1.33262,-1.38125 0.55932,-0.35991 1.24995,-0.63227 2.05245,-0.81222 0.78785,-0.17509 1.67789,-0.26263 2.64575,-0.26263 l 0.0243,0 c 0.75872,0 1.53203,0.0486 2.31021,0.14104 0.78304,0.0973 1.55636,0.23832 2.2859,0.40854 0.72954,0.17509 1.44449,0.38423 2.12048,0.63227 0.49122,0.17509 0.94354,0.36477 1.35695,0.56418 l 0,-1.44935 1.96003,0 -0.0146,10.38861 c 0,0.97271 -0.214,1.81411 -0.642,2.49501"
             style="fill:#ffffff;fill-opacity:1;fill-rule:nonzero;stroke:none"
             id="path288" /><path
             d="m 686.8434,148.30744 c -0.13132,0.0292 -0.25778,0.0486 -0.38423,0.0778 -0.11673,0.0195 -0.23832,0.0389 -0.39882,0.0584 -0.14104,0.0146 -0.29668,0.034 -0.4669,0.0438 -0.16536,0.01 -0.35504,0.0146 -0.56418,0.0146 -0.61768,0 -1.2159,-0.0875 -1.79467,-0.26264 -0.56418,-0.17509 -1.12349,-0.41827 -1.64876,-0.72467 -0.51555,-0.30641 -1.02136,-0.6809 -1.48827,-1.11376 -0.31127,-0.27236 -0.60308,-0.5739 -0.88031,-0.88517 l 0,2.60688 -1.59522,-0.005 0.01,-15.47591 1.59522,0 -0.005,10.51993 c 0.31127,0.45231 0.66632,0.8949 1.05054,1.3083 0.40855,0.43286 0.85113,0.82194 1.32777,1.1478 0.47663,0.33073 0.99704,0.5885 1.55149,0.78304 0.55445,0.18968 1.15267,0.28695 1.78008,0.28695 0.44745,0 0.82681,-0.034 1.11376,-0.107 0.28696,-0.0729 0.52041,-0.14104 0.68091,-0.20427 l 0.32586,-0.12159 -0.005,2.0038 -0.20427,0.0486 z"
             style="fill:#ffffff;fill-opacity:1;fill-rule:nonzero;stroke:none"
             id="path290" /><path
             d="m 705.0862,148.14111 -15.48081,-0.01 0,-1.84816 6.76523,0 0.01,-13.62775 1.95517,0.005 -0.01,13.62775 6.76041,0.005 0,1.84816 z"
             style="fill:#ffffff;fill-opacity:1;fill-rule:nonzero;stroke:none"
             id="path292" /><path
             d="m 715.52973,146.79974 0,-0.30641 c 1.19158,0 2.2178,-0.15077 3.06407,-0.44745 0.8414,-0.29182 1.5369,-0.69064 2.08162,-1.18672 0.535,-0.49609 0.94841,-1.06999 1.22077,-1.71198 0.22859,-0.55445 0.38422,-1.14294 0.45232,-1.74116 l -13.83692,-0.0146 c 0.11186,0.60795 0.30641,1.18671 0.57877,1.7363 0.33073,0.64685 0.78791,1.23048 1.35695,1.72657 0.57877,0.49608 1.28885,0.8949 2.11567,1.19158 0.83654,0.29181 1.82866,0.44745 2.95216,0.44745 l 0.0146,0.30641 z m 6.48319,-0.65659 c -0.74414,0.70036 -1.67795,1.24021 -2.7674,1.61471 -1.07972,0.36477 -2.31994,0.54958 -3.7012,0.54958 -1.33263,0 -2.56307,-0.19454 -3.66711,-0.58362 -1.10404,-0.38423 -2.0719,-0.93381 -2.86467,-1.63417 -0.80249,-0.71008 -1.43476,-1.56121 -1.87735,-2.53879 -0.44745,-0.98244 -0.66631,-2.07188 -0.66631,-3.24887 0,-1.20617 0.23831,-2.31506 0.70036,-3.28778 0.4669,-0.97271 1.13808,-1.81411 1.99894,-2.50475 0.85599,-0.6809 1.89681,-1.21102 3.10298,-1.57093 1.20131,-0.35504 2.55335,-0.53986 4.02702,-0.53986 l 0.0195,0 c 0.60309,0 1.19159,0.0243 1.74604,0.0632 0.5204,0.0389 1.05054,0.107 1.56122,0.18968 0.50581,0.0827 1.02622,0.18968 1.56121,0.33073 0.52527,0.13131 1.09431,0.29668 1.70713,0.48149 l 0.214,0.073 -0.005,2.34911 -0.4669,-0.29182 c -0.2675,-0.16536 -0.62741,-0.33559 -1.06027,-0.50094 -0.43772,-0.16537 -0.93381,-0.31127 -1.46881,-0.44746 -0.52527,-0.12645 -1.09917,-0.23345 -1.68767,-0.31127 -0.5885,-0.073 -1.17213,-0.11672 -1.7509,-0.11672 -1.33749,0 -2.51443,0.13618 -3.50661,0.40368 -0.98245,0.26263 -1.82385,0.64686 -2.49017,1.14294 -0.66631,0.48636 -1.18672,1.08944 -1.54176,1.78493 -0.31613,0.61281 -0.53013,1.29858 -0.62254,2.04757 l 15.81635,0.0146 0,0.64199 c 0,1.23049 -0.19454,2.35398 -0.58363,3.34128 -0.39395,0.99217 -0.97267,1.85303 -1.72653,2.54852"
             style="fill:#ffffff;fill-opacity:1;fill-rule:nonzero;stroke:none"
             id="path294" /><path
             d="m 751.13454,145.36838 c -0.25291,0.62741 -0.60795,1.18672 -1.05535,1.64876 -0.45718,0.47177 -1.0165,0.84626 -1.65849,1.11376 -1.13809,0.4669 -2.60203,0.50581 -3.91034,0.19454 -0.56904,-0.13618 -1.1235,-0.32586 -1.65363,-0.5739 -0.5204,-0.23832 -1.04567,-0.53986 -1.56122,-0.8949 -0.39881,-0.28209 -0.78785,-0.5885 -1.16721,-0.91922 -0.47664,0.81708 -1.07486,1.44448 -1.79954,1.86762 -0.81708,0.47663 -1.76062,0.71494 -2.81603,0.71494 -0.65172,0 -1.27913,-0.0875 -1.85789,-0.27722 -0.55932,-0.17509 -1.09432,-0.39882 -1.58063,-0.67117 -0.47663,-0.2675 -0.92408,-0.56418 -1.32776,-0.88031 -0.19455,-0.1605 -0.37936,-0.31127 -0.55932,-0.45718 l 0,1.92598 -1.96976,0 0.0146,-15.48078 1.9649,0 -0.01,11.12301 c 0.26264,0.31613 0.57877,0.63226 0.92895,0.9484 0.37936,0.34531 0.8025,0.66144 1.2499,0.93381 0.45231,0.28208 0.92895,0.51067 1.41531,0.6809 0.99704,0.35018 2.06703,0.3064 2.91816,0.0681 0.428,-0.12646 0.79763,-0.32587 1.10891,-0.59822 0.3064,-0.27723 0.55445,-0.65172 0.72954,-1.09917 0.17995,-0.46691 0.27236,-1.05054 0.27236,-1.74603 l 0.01,-10.30106 1.96976,0 -0.01,10.47615 c 0,0.20427 -0.005,0.38423 -0.01,0.52527 0,0.12159 -0.0146,0.25777 -0.0389,0.4134 0.28209,0.29182 0.60304,0.58363 0.96781,0.86572 0.39396,0.31127 0.83654,0.59336 1.30345,0.8414 0.46691,0.24318 0.95813,0.44745 1.46395,0.59335 1.13808,0.33559 2.35398,0.2675 3.15648,-0.0243 0.44745,-0.1605 0.80249,-0.38909 1.07972,-0.69063 0.28209,-0.30641 0.49609,-0.6809 0.6274,-1.12349 0.13618,-0.45231 0.20914,-0.98244 0.20914,-1.56607 l 0.01,-10.30107 1.96972,0 -0.01,10.64639 c 0,0.71494 -0.13132,1.39584 -0.3745,2.02324"
             style="fill:#ffffff;fill-opacity:1;fill-rule:nonzero;stroke:none"
             id="path296" /><path
             d="m 764.40679,146.83913 0,-0.31127 c 1.18672,0 2.21781,-0.14104 3.06407,-0.44259 0.83649,-0.29181 1.54172,-0.69063 2.07671,-1.18671 0.53987,-0.49123 0.95327,-1.06999 1.22077,-1.71685 0.23345,-0.55445 0.38909,-1.13808 0.45232,-1.74116 l -13.82714,-0.005 c 0.107,0.59822 0.30154,1.18184 0.57877,1.73143 0.321,0.64686 0.77817,1.22562 1.34717,1.72657 0.57877,0.49122 1.28885,0.8949 2.12539,1.19158 0.83168,0.29182 1.82386,0.44259 2.94735,0.44259 l 0.0146,0.31127 z m 6.488,-0.65659 c -0.75386,0.6955 -1.6828,1.24022 -2.77707,1.60985 -1.06999,0.36964 -2.31507,0.55445 -3.7012,0.55445 -1.3229,0 -2.55826,-0.19454 -3.6623,-0.58363 -1.10404,-0.37936 -2.06698,-0.93381 -2.86948,-1.63903 -0.80249,-0.70522 -1.4299,-1.56121 -1.87249,-2.53879 -0.44745,-0.97758 -0.67117,-2.07188 -0.67117,-3.244 0,-1.21104 0.23831,-2.31507 0.70522,-3.28778 0.46691,-0.97272 1.13808,-1.81898 1.99894,-2.50475 0.856,-0.6809 1.90162,-1.21103 3.10293,-1.57094 1.20131,-0.35504 2.5534,-0.53985 4.0368,-0.53985 0.63713,0.005 1.22076,0.0243 1.7509,0.0632 0.53986,0.0438 1.06513,0.10699 1.56603,0.18968 0.51554,0.0827 1.03595,0.18968 1.56122,0.33072 0.53013,0.13618 1.09431,0.29182 1.70226,0.48636 l 0.21886,0.0681 0,2.34911 -0.47177,-0.29181 c -0.27722,-0.17509 -0.63227,-0.34045 -1.06026,-0.50581 -0.44746,-0.16536 -0.94354,-0.31127 -1.46881,-0.43773 -0.53986,-0.13618 -1.10399,-0.23831 -1.69249,-0.31613 -0.57391,-0.0778 -1.15754,-0.11673 -1.7509,-0.11673 -1.32776,0 -2.50476,0.13132 -3.49693,0.39882 -0.99218,0.27236 -1.83358,0.65659 -2.4999,1.14294 -0.6614,0.49122 -1.1818,1.09431 -1.54171,1.7898 -0.31127,0.60794 -0.52041,1.29858 -0.62254,2.04757 l 15.82121,0.0146 0,0.64199 c 0,1.23049 -0.1994,2.35397 -0.58849,3.34128 -0.38909,0.99217 -0.97272,1.85789 -1.71686,2.54851"
             style="fill:#ffffff;fill-opacity:1;fill-rule:nonzero;stroke:none"
             id="path298" /><path
             d="m 793.05913,145.36838 c -0.26264,0.67604 -0.66145,1.25481 -1.19159,1.72657 -0.52527,0.47177 -1.18672,0.8414 -1.96976,1.09431 -0.77817,0.24804 -1.68767,0.3745 -2.71875,0.3745 -0.9095,-0.005 -1.78976,-0.10214 -2.60199,-0.29182 -0.81222,-0.18968 -1.58553,-0.44259 -2.30048,-0.73926 -0.71495,-0.29668 -1.38613,-0.6274 -2.00381,-0.98245 -0.43286,-0.24804 -0.83167,-0.48149 -1.21104,-0.71494 l -0.005,2.3637 -1.96485,0 0.0146,-15.48078 1.96485,0 -0.005,10.86524 c 0.37936,0.31127 0.84627,0.64199 1.38613,0.98244 0.58363,0.3745 1.24022,0.71495 1.9503,1.02622 0.70523,0.31127 1.46395,0.56417 2.24699,0.76844 1.46881,0.36477 3.11752,0.3745 4.31397,0.12159 0.53986,-0.11186 0.99704,-0.31127 1.36667,-0.59335 0.36477,-0.27723 0.64686,-0.65173 0.84627,-1.13322 0.20427,-0.49122 0.30641,-1.13321 0.30641,-1.90652 l 0.01,-10.12112 1.96489,0.005 -0.005,10.40806 c 0,0.81222 -0.13618,1.56608 -0.39395,2.22752"
             style="fill:#ffffff;fill-opacity:1;fill-rule:nonzero;stroke:none"
             id="path300" /><path
             d="m 811.71583,146.3732 0,1.84816 -15.48082,-0.01 0.005,-1.8433 6.76041,0 0.01,-13.63261 1.95512,0.005 -0.01,13.63262 6.76042,0 z"
             style="fill:#ffffff;fill-opacity:1;fill-rule:nonzero;stroke:none"
             id="path302" /><path
             d="m 572.69123,180.18335 16.3708,0 -8.15622,16.50217 -8.21458,-16.50217 z m 20.64105,-8.73985 -24.97934,0 -4.20702,-8.48209 -13.50614,0 23.45217,44.81304 13.50132,0 23.45217,-44.81304 -13.50132,0 -4.21184,8.48209 z"
             style="fill:#ffffff;fill-opacity:1;fill-rule:nonzero;stroke:none"
             id="path304" /><path
             d="m 631.63007,207.77493 0,-25.24198 c 0,-1.67794 0.14105,-3.19051 0.42314,-4.55231 0.28209,-1.3618 0.80249,-2.5242 1.56603,-3.49205 0.75872,-0.96786 1.82872,-1.71198 3.19539,-2.24698 1.37154,-0.53499 3.15648,-0.79763 5.34997,-0.79763 1.65358,0 3.38502,0.22859 5.20401,0.68091 1.81412,0.46204 3.61366,1.06512 5.39369,1.8287 1.78494,0.75872 3.48721,1.63903 5.10679,2.62634 1.61958,0.98731 3.06889,2.01352 4.35288,3.08351 l 0,28.11149 12.06656,0 0,-44.81303 -12.06656,0 0,6.13298 c -1.52231,-0.87059 -3.14184,-1.74603 -4.8587,-2.62634 -1.71685,-0.88031 -3.54557,-1.67307 -5.48128,-2.37829 -1.93567,-0.71008 -3.98811,-1.28398 -6.16214,-1.73144 -2.1789,-0.44745 -4.46961,-0.66631 -6.88196,-0.66631 -3.02516,0 -5.72928,0.36477 -8.12217,1.08945 -2.38804,0.72953 -4.4113,1.76061 -6.06492,3.0981 -1.65358,1.34235 -2.91812,2.95705 -3.79843,4.86358 -0.88031,1.8968 -1.3229,4.02705 -1.3229,6.37615 l 0,30.65515 12.1006,0 z"
             style="fill:#ffffff;fill-opacity:1;fill-rule:nonzero;stroke:none"
             id="path306" /><path
             d="m 732.67774,185.40198 c 0,2.1497 -0.27723,4.02217 -0.83163,5.60771 -0.55445,1.5904 -1.44936,2.89871 -2.67499,3.9298 -1.23049,1.03594 -2.83548,1.80439 -4.8101,2.31994 -1.97944,0.50581 -4.39665,0.76353 -7.24187,0.76353 l -15.03331,0 0,-25.31007 15.03331,0 c 2.84522,0 5.26243,0.25777 7.24187,0.76845 1.97462,0.51068 3.57961,1.29371 4.8101,2.34911 1.22563,1.05053 2.12054,2.37343 2.67499,3.96382 0.5544,1.58552 0.83163,3.45314 0.83163,5.60771 m 12.19787,0 c 0,-2.86952 -0.31613,-5.41803 -0.94354,-7.65042 -0.63226,-2.22752 -1.5223,-4.16809 -2.66039,-5.8217 -1.1429,-1.64876 -2.51443,-3.05433 -4.1097,-4.207 -1.60012,-1.15267 -3.37534,-2.07189 -5.33533,-2.77224 -1.95517,-0.6955 -4.06597,-1.20131 -6.32755,-1.51744 -2.25671,-0.31127 -4.61551,-0.47177 -7.07163,-0.47177 l -28.44223,0 0,44.81303 28.37413,0 c 2.45613,0 4.81498,-0.15563 7.0765,-0.47177 2.26158,-0.31613 4.37725,-0.8219 6.34215,-1.51739 1.96971,-0.6955 3.75952,-1.61472 5.36451,-2.75767 1.60985,-1.13808 2.98625,-2.54367 4.12915,-4.20702 1.13809,-1.65844 2.02813,-3.60388 2.66039,-5.81683 0.62741,-2.22267 0.94354,-4.75173 0.94354,-7.60179"
             style="fill:#ffffff;fill-opacity:1;fill-rule:nonzero;stroke:none"
             id="path308" /><path
             d="m 799.18479,189.41297 c -0.107,1.1089 -0.44259,2.25671 -0.99704,3.44343 -0.55445,1.18186 -1.4299,2.25185 -2.62148,3.20998 -1.20126,0.95813 -2.76248,1.74604 -4.6982,2.36367 -1.93571,0.62254 -4.34806,0.92895 -7.24186,0.92895 -2.71876,0 -5.06788,-0.33559 -7.04732,-1.00677 -1.97462,-0.67599 -3.63311,-1.51253 -4.9706,-2.51444 -1.3375,-0.99704 -2.37831,-2.07676 -3.11758,-3.22943 -0.73435,-1.15268 -1.21585,-2.21781 -1.43471,-3.19539 l 32.12879,0 z m 8.35077,-24.23522 c -3.67684,-1.2159 -7.34887,-2.08648 -11.01116,-2.62147 -3.66225,-0.53013 -7.40723,-0.79763 -11.23484,-0.79763 -4.89279,0 -9.24567,0.52527 -13.05873,1.58066 -3.81793,1.0554 -7.03273,2.58256 -9.63962,4.5815 -2.61176,1.99893 -4.60093,4.44531 -5.9676,7.33914 -1.37154,2.88897 -2.05731,6.16216 -2.05731,9.81471 0,3.39477 0.69064,6.54152 2.0719,9.4451 1.38126,2.89871 3.34125,5.42287 5.87032,7.56286 2.53394,2.14485 5.59315,3.81793 9.18245,5.02405 3.58934,1.20618 7.58717,1.80927 12.00333,1.80927 4.06593,0 7.78659,-0.54959 11.17166,-1.6439 3.37529,-1.09913 6.27887,-2.72844 8.7058,-4.87815 2.42203,-2.15458 4.30425,-4.8052 5.64174,-7.95682 1.33749,-3.15648 2.00381,-6.78472 2.00381,-10.89444 l 0,-3.00083 -44.16131,0 c 0.39395,-1.4153 1.04081,-2.70902 1.94053,-3.88114 0.90463,-1.17212 2.12539,-2.17402 3.67202,-3.00083 1.54176,-0.82681 3.43857,-1.4688 5.69037,-1.92111 2.25185,-0.45718 4.94143,-0.68577 8.07354,-0.68577 2.21781,0 4.39184,0.13618 6.5221,0.40855 2.13026,0.2675 4.11943,0.6274 5.9676,1.07485 1.84817,0.44745 3.52125,0.93867 5.00465,1.48339 1.48821,0.54472 2.69439,1.08944 3.60875,1.6293 l 0,-10.47129 z"
             style="fill:#ffffff;fill-opacity:1;fill-rule:nonzero;stroke:none"
             id="path310" /></g></g></g></g></svg>