<?xml version="1.0" encoding="UTF-8" standalone="no"?>
<!-- Created with Inkscape (http://www.inkscape.org/) -->

<svg
   xmlns:dc="http://purl.org/dc/elements/1.1/"
   xmlns:cc="http://creativecommons.org/ns#"
   xmlns:rdf="http://www.w3.org/1999/02/22-rdf-syntax-ns#"
   xmlns:svg="http://www.w3.org/2000/svg"
   xmlns="http://www.w3.org/2000/svg"
   xmlns:sodipodi="http://sodipodi.sourceforge.net/DTD/sodipodi-0.dtd"
   xmlns:inkscape="http://www.inkscape.org/namespaces/inkscape"
   width="84.883499"
   height="104.21075"
   id="svg2"
   version="1.1"
   inkscape:version="0.48.2 r9819"
   sodipodi:docname="Nouveau document 1">
  <defs
     id="defs4">
    <clipPath
       clipPathUnits="userSpaceOnUse"
       id="clipPath236">
      <path
         inkscape:connector-curvature="0"
         d="m 100.63,616.346 67.907,0 0,83.369 -67.907,0 0,-83.369 z"
         id="path238" />
    </clipPath>
  </defs>
  <sodipodi:namedview
     id="base"
     pagecolor="#ffffff"
     bordercolor="#666666"
     borderopacity="1.0"
     inkscape:pageopacity="0.0"
     inkscape:pageshadow="2"
     inkscape:zoom="3.7383217"
     inkscape:cx="50.463822"
     inkscape:cy="43.254704"
     inkscape:document-units="px"
     inkscape:current-layer="layer1"
     showgrid="false"
     fit-margin-top="0"
     fit-margin-left="0"
     fit-margin-right="0"
     fit-margin-bottom="0"
     inkscape:window-width="1366"
     inkscape:window-height="706"
     inkscape:window-x="-8"
     inkscape:window-y="-8"
     inkscape:window-maximized="1" />
  <metadata
     id="metadata7">
    <rdf:RDF>
      <cc:Work
         rdf:about="">
        <dc:format>image/svg+xml</dc:format>
        <dc:type
           rdf:resource="http://purl.org/dc/dcmitype/StillImage" />
        <dc:title></dc:title>
      </cc:Work>
    </rdf:RDF>
  </metadata>
  <g
     inkscape:label="Calque 1"
     inkscape:groupmode="layer"
     id="layer1"
     transform="translate(-292.0613,-544.64055)">
    <g
       transform="matrix(1.25,0,0,-1.25,166.27355,1419.2843)"
       id="g232">
      <g
         id="g234"
         clip-path="url(#clipPath236)">
        <g
           id="g240"
           transform="translate(165.7787,699.1279)">
          <path
             inkscape:connector-curvature="0"
             d="m 0,0 -62.386,0 c -1.201,0 -2.176,-0.975 -2.176,-2.177 l 0,-77.841 c 0,-1.202 0.975,-2.177 2.176,-2.177 l 62.386,0 c 1.2,0 2.172,0.975 2.172,2.177 l 0,77.841 C 2.172,-0.975 1.2,0 0,0"
             style="fill:#214a9f;fill-opacity:1;fill-rule:nonzero;stroke:none"
             id="path242" />
        </g>
        <g
           id="g244"
           transform="translate(103.3922,616.3464)">
          <path
             inkscape:connector-curvature="0"
             d="m 0,0 c -1.525,0.001 -2.762,1.237 -2.762,2.764 l 0,77.841 c 0,1.526 1.237,2.763 2.762,2.764 l 62.386,0 0,-0.588 0,-0.586 -62.386,0 c -0.875,-0.002 -1.586,-0.712 -1.588,-1.59 l 0,-77.841 C -1.586,1.886 -0.875,1.175 0,1.174 l 62.386,0 c 0.874,0.001 1.583,0.711 1.584,1.59 l 0.002,77.841 c -0.003,0.879 -0.712,1.588 -1.586,1.59 l 0,0.586 0,0.588 c 1.524,-0.001 2.759,-1.238 2.759,-2.764 l 0,-77.841 C 65.145,1.238 63.911,0.001 62.386,0 L 0,0 z"
             style="fill:#ffffff;fill-opacity:1;fill-rule:nonzero;stroke:none"
             id="path246" />
        </g>
        <g
           id="g248"
           transform="translate(130.264,649.6292)">
          <path
             inkscape:connector-curvature="0"
             d="m 0,0 c -0.075,0.052 -0.15,0.103 -0.225,0.15 -0.634,0.432 -1.255,0.866 -1.853,1.298 -0.74,0.544 -1.45,1.084 -2.123,1.627 -0.224,0.181 -0.445,0.36 -0.661,0.54 0,0 -0.004,0 -0.007,0.003 -0.562,-4.816 -0.388,-8.37 0.552,-9.24 0.056,-0.056 0.113,-0.108 0.18,-0.152 1.256,-0.873 4.442,0.451 8.326,3.203 l -0.002,0 C 2.816,-1.801 1.407,-0.942 0,0"
             style="fill:#c8c6ad;fill-opacity:1;fill-rule:nonzero;stroke:none"
             id="path250" />
        </g>
        <g
           id="g252"
           transform="translate(141.1291,667.7995)">
          <path
             inkscape:connector-curvature="0"
             d="M 0,0 C -2.043,4.104 -3.683,7.368 -5.451,8.609 -6.196,9.133 -6.966,9.299 -7.798,9.014 -7.809,9.011 -7.809,9.009 -7.82,9.006 -8.266,8.889 -8.77,8.396 -9.308,7.595 -10.59,5.691 -12.051,2.037 -13.312,-2.474 c 3.375,0.18 8,0.784 13.278,2.466 C -0.02,-0.005 -0.009,-0.002 0,0"
             style="fill:#f9a70d;fill-opacity:1;fill-rule:nonzero;stroke:none"
             id="path254" />
        </g>
        <g
           id="g256"
           transform="translate(140.613,651.266)">
          <path
             inkscape:connector-curvature="0"
             d="M 0,0 C -0.105,0.186 -0.211,0.372 -0.316,0.563 -2.332,-1.29 -4.324,-2.909 -6.162,-4.208 0.167,-7.752 5.763,-9.342 7.446,-7.875 7.364,-7.93 7.283,-7.977 7.187,-8.004 5.752,-8.439 2.928,-5.165 0,0"
             style="fill:#003c33;fill-opacity:1;fill-rule:nonzero;stroke:none"
             id="path258" />
        </g>
        <g
           id="g260"
           transform="translate(125.4009,653.2692)">
          <path
             inkscape:connector-curvature="0"
             d="m 0,0 c 0.266,2.275 0.698,4.833 1.289,7.52 0.113,0.524 0.232,1.042 0.357,1.555 0.244,1.025 0.501,2.017 0.771,2.973 l 0,0.008 C -5.472,11.832 -6.384,11.868 -7.068,10.094 -7.847,8.067 -5.331,3.908 -0.005,-0.022 -0.003,-0.016 -0.003,-0.008 0,0"
             style="fill:#62b92c;fill-opacity:1;fill-rule:nonzero;stroke:none"
             id="path262" />
        </g>
        <g
           id="g264"
           transform="translate(145.7947,657.4488)">
          <path
             inkscape:connector-curvature="0"
             d="m 0,0 c -0.005,0.014 -0.011,0.027 -0.013,0.041 -0.452,1.191 -0.948,2.421 -1.488,3.677 -0.106,0.252 -0.217,0.501 -0.328,0.751 -0.579,1.313 -1.18,2.579 -1.785,3.782 -0.353,0.706 -0.7,1.397 -1.033,2.064 -0.006,0.012 -0.011,0.025 -0.019,0.036 -5.29,-1.687 -9.928,-2.294 -13.312,-2.475 l 0,-0.007 c -0.268,-0.957 -0.526,-1.949 -0.769,-2.974 -0.126,-0.512 -0.245,-1.03 -0.358,-1.554 -0.59,-2.688 -1.022,-5.246 -1.289,-7.52 -0.003,-0.008 -0.003,-0.016 -0.005,-0.023 0.005,-0.002 0.005,-0.005 0.011,-0.008 0.213,-0.177 0.435,-0.357 0.656,-0.534 0.676,-0.544 1.384,-1.083 2.126,-1.627 0.598,-0.433 1.216,-0.867 1.854,-1.3 0.074,-0.047 0.146,-0.097 0.224,-0.149 1.408,-0.939 2.81,-1.8 4.184,-2.571 0,0 0,0.003 -0.003,0.003 1.841,1.296 3.829,2.917 5.847,4.771 0,0 0.003,0 0.003,-0.003 0.105,-0.191 0.21,-0.377 0.315,-0.563 2.932,-5.162 5.752,-8.436 7.188,-8.002 0.103,0.033 0.194,0.08 0.285,0.152 -0.008,-0.008 -0.019,-0.013 -0.027,-0.025 0.008,0.009 0.019,0.012 0.027,0.02 0.022,0.019 0.045,0.045 0.069,0.064 l 0,0.005 c 0.081,0.077 0.151,0.177 0.211,0.288 0.028,0.053 0.048,0.111 0.07,0.164 C 3.433,-11.674 2.405,-6.398 0,0"
             style="fill:#f47216;fill-opacity:1;fill-rule:nonzero;stroke:none"
             id="path266" />
        </g>
        <g
           id="g268"
           transform="translate(142.1812,665.7001)">
          <path
             inkscape:connector-curvature="0"
             d="M 0,0 C 0.604,-1.203 1.206,-2.469 1.785,-3.782 1.895,-4.032 2.006,-4.281 2.112,-4.533 2.652,-5.789 3.147,-7.019 3.6,-8.21 8.845,-2.22 12.813,0.814 11.707,3.53 10.54,6.389 6.974,4.774 -1.052,2.099 -1.045,2.089 -1.038,2.076 -1.033,2.064 -0.701,1.396 -0.354,0.706 0,0"
             style="fill:#c8c6ad;fill-opacity:1;fill-rule:nonzero;stroke:none"
             id="path270" />
        </g>
        <g
           id="g272"
           transform="translate(123.1971,636.6348)">
          <path
             inkscape:connector-curvature="0"
             d="m 0,0 c -0.158,0.304 -0.412,0.482 -0.811,0.482 -0.666,0 -1.046,-0.583 -1.046,-1.408 0,-0.798 0.387,-1.406 1.052,-1.406 0.399,0 0.634,0.171 0.868,0.564 l 0.748,-0.444 c -0.304,-0.627 -0.836,-1.001 -1.641,-1.001 -1.16,0 -1.939,0.887 -1.939,2.287 0,1.351 0.811,2.288 1.97,2.288 0.837,0 1.344,-0.405 1.623,-0.982 L 0,0 z"
             style="fill:#ffffff;fill-opacity:1;fill-rule:nonzero;stroke:none"
             id="path274" />
        </g>
        <g
           id="g276"
           transform="translate(126.6375,637.1166)">
          <path
             inkscape:connector-curvature="0"
             d="m 0,0 c -0.716,0 -1.014,-0.615 -1.014,-1.407 0,-0.792 0.298,-1.407 1.014,-1.407 0.716,0 1.014,0.615 1.014,1.407 C 1.014,-0.615 0.716,0 0,0 m 0,-3.695 c -1.21,0 -1.926,0.938 -1.926,2.288 0,1.35 0.716,2.288 1.926,2.288 1.21,0 1.927,-0.938 1.927,-2.288 0,-1.35 -0.717,-2.288 -1.927,-2.288"
             style="fill:#ffffff;fill-opacity:1;fill-rule:nonzero;stroke:none"
             id="path278" />
        </g>
        <g
           id="g280"
           transform="translate(132.461,633.4913)">
          <path
             inkscape:connector-curvature="0"
             d="m 0,0 -1.629,2.421 c -0.108,0.165 -0.253,0.387 -0.31,0.501 0,-0.165 0.012,-0.723 0.012,-0.97 l 0,-1.952 -0.874,0 0,4.436 0.849,0 1.572,-2.345 c 0.107,-0.164 0.253,-0.386 0.31,-0.5 0,0.164 -0.012,0.723 -0.012,0.97 l 0,1.875 0.874,0 L 0.792,0 0,0 z"
             style="fill:#ffffff;fill-opacity:1;fill-rule:nonzero;stroke:none"
             id="path282" />
        </g>
        <g
           id="g284"
           transform="translate(136.0852,633.4216)">
          <path
             inkscape:connector-curvature="0"
             d="m 0,0 c -0.742,0 -1.388,0.311 -1.724,0.805 l 0.64,0.57 c 0.311,-0.361 0.71,-0.507 1.134,-0.507 0.527,0 0.774,0.146 0.774,0.482 0,0.285 -0.152,0.412 -0.989,0.602 -0.818,0.19 -1.388,0.45 -1.388,1.324 0,0.805 0.71,1.3 1.584,1.3 0.691,0 1.198,-0.26 1.617,-0.697 L 1.007,3.258 C 0.722,3.549 0.406,3.714 0,3.714 c -0.475,0 -0.634,-0.203 -0.634,-0.399 0,-0.279 0.19,-0.368 0.894,-0.533 C 0.963,2.618 1.743,2.377 1.743,1.413 1.743,0.57 1.21,0 0,0"
             style="fill:#ffffff;fill-opacity:1;fill-rule:nonzero;stroke:none"
             id="path286" />
        </g>
        <g
           id="g288"
           transform="translate(138.9551,633.4913)">
          <path
             inkscape:connector-curvature="0"
             d="m 0,0 0,4.436 3.08,0 0,-0.868 -2.193,0 0,-0.767 1.274,0 0,-0.862 -1.274,0 0,-1.071 2.288,0 L 3.175,0 0,0 z"
             style="fill:#ffffff;fill-opacity:1;fill-rule:nonzero;stroke:none"
             id="path290" />
        </g>
        <path
           inkscape:connector-curvature="0"
           d="m 143.327,637.928 0.887,0 0,-4.436 -0.887,0 0,4.436 z"
           style="fill:#ffffff;fill-opacity:1;fill-rule:nonzero;stroke:none"
           id="path292" />
        <g
           id="g294"
           transform="translate(145.6022,633.4913)">
          <path
             inkscape:connector-curvature="0"
             d="m 0,0 0,4.436 0.887,0 0,-3.562 2.224,0 L 3.111,0 0,0 z"
             style="fill:#ffffff;fill-opacity:1;fill-rule:nonzero;stroke:none"
             id="path296" />
        </g>
        <g
           id="g298"
           transform="translate(107.3623,630.2197)">
          <path
             inkscape:connector-curvature="0"
             d="m 0,0 -0.469,0 0,-2.712 0.437,0 c 0.932,0 1.356,0.544 1.356,1.356 C 1.324,-0.45 0.938,0 0,0 m -0.032,-3.574 -1.324,0 0,4.436 1.388,0 c 1.267,0 2.205,-0.596 2.205,-2.218 0,-1.559 -1.128,-2.218 -2.269,-2.218"
             style="fill:#ffffff;fill-opacity:1;fill-rule:nonzero;stroke:none"
             id="path300" />
        </g>
        <g
           id="g302"
           transform="translate(112.4631,631.3667)">
          <path
             inkscape:connector-curvature="0"
             d="m 0,0 -0.742,0 0.552,1.014 1.109,0 L 0,0 z m -1.787,-4.721 0,4.436 3.08,0 0,-0.868 -2.193,0 0,-0.767 1.274,0 0,-0.862 -1.274,0 0,-1.071 2.288,0 0,-0.868 -3.175,0 z"
             style="fill:#ffffff;fill-opacity:1;fill-rule:nonzero;stroke:none"
             id="path304" />
        </g>
        <g
           id="g306"
           transform="translate(116.8922,630.2197)">
          <path
             inkscape:connector-curvature="0"
             d="m 0,0 -1.02,0 0,-1.141 1.033,0 c 0.412,0 0.633,0.19 0.633,0.577 C 0.646,-0.177 0.393,0 0,0 m -0.044,-2.003 -0.976,0 0,-1.571 -0.888,0 0,4.436 1.94,0 c 0.836,0 1.527,-0.463 1.527,-1.407 0,-1.026 -0.684,-1.458 -1.603,-1.458"
             style="fill:#ffffff;fill-opacity:1;fill-rule:nonzero;stroke:none"
             id="path308" />
        </g>
        <g
           id="g310"
           transform="translate(121.0297,629.2819)">
          <path
             inkscape:connector-curvature="0"
             d="M 0,0 C -0.089,0.26 -0.177,0.526 -0.222,0.691 -0.266,0.526 -0.355,0.26 -0.444,0 l -0.285,-0.805 1.014,0 L 0,0 z m 0.938,-2.637 -0.349,0.989 -1.622,0 -0.349,-0.989 -0.95,0 1.698,4.437 0.862,0 1.686,-4.437 -0.976,0 z"
             style="fill:#ffffff;fill-opacity:1;fill-rule:nonzero;stroke:none"
             id="path312" />
        </g>
        <g
           id="g314"
           transform="translate(126.004,630.2197)">
          <path
             inkscape:connector-curvature="0"
             d="m 0,0 -1.16,0 0,-1.141 1.16,0 c 0.412,0 0.634,0.19 0.634,0.577 C 0.634,-0.165 0.393,0 0,0 m 0.526,-3.574 -0.792,1.597 -0.894,0 0,-1.597 -0.887,0 0,4.436 2.066,0 c 0.836,0 1.527,-0.463 1.527,-1.407 0,-0.665 -0.285,-1.084 -0.849,-1.305 l 0.849,-1.724 -1.02,0 z"
             style="fill:#ffffff;fill-opacity:1;fill-rule:nonzero;stroke:none"
             id="path316" />
        </g>
        <g
           id="g318"
           transform="translate(130.3949,630.2071)">
          <path
             inkscape:connector-curvature="0"
             d="m 0,0 0,-3.562 -0.887,0 0,3.562 -1.274,0 0,0.875 3.435,0 L 1.274,0 0,0 z"
             style="fill:#ffffff;fill-opacity:1;fill-rule:nonzero;stroke:none"
             id="path320" />
        </g>
        <g
           id="g322"
           transform="translate(132.7135,626.6454)">
          <path
             inkscape:connector-curvature="0"
             d="m 0,0 0,4.436 3.08,0 0,-0.868 -2.193,0 0,-0.767 1.274,0 0,-0.862 -1.274,0 0,-1.071 2.288,0 L 3.175,0 0,0 z"
             style="fill:#ffffff;fill-opacity:1;fill-rule:nonzero;stroke:none"
             id="path324" />
        </g>
        <g
           id="g326"
           transform="translate(140.2799,626.6454)">
          <path
             inkscape:connector-curvature="0"
             d="M 0,0 0,1.629 C 0,1.87 0.013,2.434 0.013,2.605 -0.051,2.44 -0.184,2.123 -0.298,1.87 l -0.9,-1.971 -0.899,1.971 c -0.114,0.253 -0.248,0.57 -0.311,0.735 0,-0.171 0.013,-0.735 0.013,-0.976 l 0,-1.629 -0.869,0 0,4.436 0.856,0 0.925,-2.009 c 0.114,-0.247 0.247,-0.583 0.304,-0.741 0.058,0.165 0.184,0.488 0.298,0.741 l 0.894,2.009 0.874,0 L 0.887,0 0,0 z"
             style="fill:#ffffff;fill-opacity:1;fill-rule:nonzero;stroke:none"
             id="path328" />
        </g>
        <g
           id="g330"
           transform="translate(142.4968,626.6454)">
          <path
             inkscape:connector-curvature="0"
             d="m 0,0 0,4.436 3.08,0 0,-0.868 -2.192,0 0,-0.767 1.273,0 0,-0.862 -1.273,0 0,-1.071 2.287,0 L 3.175,0 0,0 z"
             style="fill:#ffffff;fill-opacity:1;fill-rule:nonzero;stroke:none"
             id="path332" />
        </g>
        <g
           id="g334"
           transform="translate(149.6009,626.6454)">
          <path
             inkscape:connector-curvature="0"
             d="m 0,0 -1.629,2.421 c -0.108,0.165 -0.253,0.386 -0.311,0.501 0,-0.165 0.013,-0.723 0.013,-0.97 l 0,-1.952 -0.874,0 0,4.436 0.849,0 1.571,-2.345 c 0.108,-0.164 0.254,-0.386 0.311,-0.5 0,0.164 -0.013,0.722 -0.013,0.969 l 0,1.876 0.875,0 L 0.792,0 0,0 z"
             style="fill:#ffffff;fill-opacity:1;fill-rule:nonzero;stroke:none"
             id="path336" />
        </g>
        <g
           id="g338"
           transform="translate(153.5986,630.2071)">
          <path
             inkscape:connector-curvature="0"
             d="m 0,0 0,-3.562 -0.887,0 0,3.562 -1.274,0 0,0.875 3.435,0 L 1.274,0 0,0 z"
             style="fill:#ffffff;fill-opacity:1;fill-rule:nonzero;stroke:none"
             id="path340" />
        </g>
        <g
           id="g342"
           transform="translate(157.3369,629.2819)">
          <path
             inkscape:connector-curvature="0"
             d="M 0,0 C -0.089,0.26 -0.177,0.526 -0.221,0.691 -0.266,0.526 -0.355,0.26 -0.444,0 l -0.285,-0.805 1.014,0 L 0,0 z m 0.938,-2.637 -0.348,0.989 -1.623,0 -0.348,-0.989 -0.951,0 1.698,4.437 0.862,0 1.686,-4.437 -0.976,0 z"
             style="fill:#ffffff;fill-opacity:1;fill-rule:nonzero;stroke:none"
             id="path344" />
        </g>
        <g
           id="g346"
           transform="translate(160.2579,626.6454)">
          <path
             inkscape:connector-curvature="0"
             d="m 0,0 0,4.436 0.887,0 0,-3.562 2.224,0 L 3.111,0 0,0 z"
             style="fill:#ffffff;fill-opacity:1;fill-rule:nonzero;stroke:none"
             id="path348" />
        </g>
        <g
           id="g350"
           transform="translate(114.0593,686.9742)">
          <path
             inkscape:connector-curvature="0"
             d="M 0,0 C -0.129,0.378 -0.258,0.766 -0.323,1.006 -0.388,0.766 -0.517,0.378 -0.646,0 l -0.415,-1.172 1.476,0 L 0,0 z m 1.365,-3.838 -0.507,1.439 -2.362,0 -0.507,-1.439 -1.384,0 2.472,6.458 1.255,0 2.454,-6.458 -1.421,0 z"
             style="fill:#ffffff;fill-opacity:1;fill-rule:nonzero;stroke:none"
             id="path352" />
        </g>
        <g
           id="g354"
           transform="translate(121.503,683.1363)">
          <path
             inkscape:connector-curvature="0"
             d="m 0,0 -1.255,0 -2.297,6.458 1.43,0 1.218,-3.736 c 0.12,-0.36 0.249,-0.831 0.304,-1.061 0.056,0.24 0.176,0.682 0.296,1.061 l 1.19,3.736 1.411,0 L 0,0 z"
             style="fill:#ffffff;fill-opacity:1;fill-rule:nonzero;stroke:none"
             id="path356" />
        </g>
        <g
           id="g358"
           transform="translate(125.3669,683.1363)">
          <path
             inkscape:connector-curvature="0"
             d="m 0,0 0,6.458 4.484,0 0,-1.264 -3.192,0 0,-1.116 1.854,0 0,-1.255 -1.854,0 0,-1.559 3.33,0 L 4.622,0 0,0 z"
             style="fill:#ffffff;fill-opacity:1;fill-rule:nonzero;stroke:none"
             id="path360" />
        </g>
        <g
           id="g362"
           transform="translate(134.8403,685.6919)">
          <path
             inkscape:connector-curvature="0"
             d="m 0,0 0,-2.556 -1.292,0 0,2.528 -2.445,3.931 1.486,0 0.913,-1.532 c 0.231,-0.387 0.581,-1.024 0.701,-1.264 0.12,0.24 0.462,0.858 0.702,1.264 l 0.913,1.532 1.467,0 L 0,0 z"
             style="fill:#ffffff;fill-opacity:1;fill-rule:nonzero;stroke:none"
             id="path364" />
        </g>
        <g
           id="g366"
           transform="translate(141.6658,688.3397)">
          <path
             inkscape:connector-curvature="0"
             d="m 0,0 -1.688,0 0,-1.661 1.688,0 c 0.6,0 0.923,0.277 0.923,0.84 C 0.923,-0.24 0.572,0 0,0 m 0.766,-5.203 -1.154,2.324 -1.3,0 0,-2.324 -1.292,0 0,6.458 3.008,0 c 1.217,0 2.223,-0.674 2.223,-2.048 0,-0.969 -0.415,-1.578 -1.236,-1.901 l 1.236,-2.509 -1.485,0 z"
             style="fill:#ffffff;fill-opacity:1;fill-rule:nonzero;stroke:none"
             id="path368" />
        </g>
        <g
           id="g370"
           transform="translate(148.1037,688.4135)">
          <path
             inkscape:connector-curvature="0"
             d="m 0,0 c -1.042,0 -1.476,-0.895 -1.476,-2.048 0,-1.153 0.434,-2.048 1.476,-2.048 1.043,0 1.476,0.895 1.476,2.048 C 1.476,-0.895 1.043,0 0,0 m 0,-5.379 c -1.762,0 -2.804,1.366 -2.804,3.331 0,1.965 1.042,3.33 2.804,3.33 1.762,0 2.805,-1.365 2.805,-3.33 0,-1.965 -1.043,-3.331 -2.805,-3.331"
             style="fill:#ffffff;fill-opacity:1;fill-rule:nonzero;stroke:none"
             id="path372" />
        </g>
        <g
           id="g374"
           transform="translate(156.6728,683.1363)">
          <path
             inkscape:connector-curvature="0"
             d="m 0,0 -2.371,3.524 c -0.157,0.24 -0.369,0.563 -0.452,0.729 0,-0.24 0.018,-1.052 0.018,-1.411 l 0,-2.842 -1.273,0 0,6.458 1.236,0 2.288,-3.414 c 0.158,-0.239 0.369,-0.562 0.453,-0.728 0,0.24 -0.019,1.051 -0.019,1.411 l 0,2.731 1.273,0 L 1.153,0 0,0 z"
             style="fill:#ffffff;fill-opacity:1;fill-rule:nonzero;stroke:none"
             id="path376" />
        </g>
        <g
           id="g378"
           transform="translate(135.5496,659.4219)">
          <path
             inkscape:connector-curvature="0"
             d="m 0,0 c -0.286,-0.124 -0.698,-0.312 -0.851,-0.391 -0.373,-0.202 -0.551,-0.413 -0.551,-0.794 -0.005,-0.557 0.377,-0.823 0.694,-0.823 0.187,-0.002 0.458,0.11 0.705,0.263 l 0,-0.3 c -0.398,-0.259 -0.836,-0.543 -1.022,-0.543 -0.771,0 -1.268,0.634 -1.266,1.216 0,0.488 0.255,0.843 0.806,1.065 0.427,0.175 1.09,0.409 1.485,0.614 L 0,0 z M 1.774,-1.931 C 1.745,-1.975 1.716,-2.018 1.685,-2.06 L 1.463,-2.166 0.776,-2.497 c -0.341,0.06 -0.494,0.402 -0.556,0.655 l 0.008,2.522 -0.002,0 0,0.072 C 0.228,1.38 -0.068,1.716 -0.603,1.716 -1.1,1.718 -1.313,1.291 -1.427,0.866 -1.458,0.744 -1.55,0.674 -1.661,0.674 c -0.164,0.002 -0.435,0.163 -0.435,0.345 0,0.131 0.12,0.274 0.345,0.436 0.245,0.182 0.844,0.568 1.565,0.696 0.284,0 0.597,-0.091 0.8,-0.245 C 0.95,1.643 0.999,1.287 0.999,0.92 L 0.993,-1.363 c 0,-0.373 0.13,-0.547 0.282,-0.547 0.041,0 0.106,0.012 0.184,0.033 0.29,0.416 0.582,0.872 0.825,1.253 0.321,0.512 0.634,1.093 0.617,1.488 C 2.891,1.088 2.796,1.206 2.792,1.279 2.783,1.42 2.846,1.563 2.952,1.658 2.271,2.707 1.093,3.4 -0.254,3.4 c -2.11,0 -3.823,-1.711 -3.823,-3.82 0,-2.112 1.713,-3.825 3.823,-3.825 2.113,0 3.824,1.713 3.824,3.825 0,0.335 -0.049,0.663 -0.13,0.974 C 3.338,0.377 3.197,0.166 3.013,-0.106 2.657,-0.63 2.207,-1.308 1.774,-1.931"
             style="fill:#62b92c;fill-opacity:1;fill-rule:nonzero;stroke:none"
             id="path380" />
        </g>
      </g>
    </g>
  </g>
</svg>
