<?xml version="1.0" encoding="UTF-8" standalone="no"?>
<!-- Created with Inkscape (http://www.inkscape.org/) -->

<svg
   version="1.1"
   id="svg824"
   xml:space="preserve"
   width="595.00293"
   height="700"
   viewBox="0 0 595.00293 699.99997"
   xmlns="http://www.w3.org/2000/svg"
   xmlns:svg="http://www.w3.org/2000/svg"><defs
     id="defs828" /><g
     id="g830"
     transform="matrix(1.3333333,0,0,-1.3333333,-78.052455,33.299296)"><g
       id="g3828"
       transform="matrix(1.3208662,0,0,1.3208662,-18.783298,-8.0134649)"><path
         d="M 99.836403,7.8319702 C 99.029481,10.21188 98.212345,12.653076 97.803776,14.164778 97.395208,12.653076 96.588286,10.21188 95.771149,7.8319702 L 93.156312,0.4573129 h 9.294928 z m 8.600367,-24.1668132 -3.19705,9.0600014 H 90.367834 l -3.197047,-9.0600014 h -8.712718 l 15.576665,40.672971 h 7.895586 l 15.45409,-40.672971 z"
         style="fill:#1e488c;fill-opacity:1;fill-rule:nonzero;stroke:none;stroke-width:10.2142"
         id="path1054" /><path
         d="m 146.71553,-16.335864 h -7.9058 l -14.46332,40.672971 h 9.00893 l 7.67087,-23.53353249 c 0.75585,-2.26755391 1.56278,-5.22967381 1.91006,-6.68009121 0.34728,1.5117026 1.10313,4.300181 1.85899,6.68009121 l 7.49722,23.53353249 h 8.88636 z"
         style="fill:#1e488c;fill-opacity:1;fill-rule:nonzero;stroke:none;stroke-width:10.2142"
         id="path1056" /><path
         d="m 171.04577,-16.335864 v 40.672971 h 28.24228 V 16.370026 H 179.17628 V 9.3426514 h 11.68505 V 1.4470695 h -11.68505 v -9.8260669 h 20.97998 v -7.9568666 z"
         style="fill:#1e488c;fill-opacity:1;fill-rule:nonzero;stroke:none;stroke-width:10.2142"
         id="path1058" /><path
         d="M 230.70388,-0.24236026 V -16.33995 h -8.1305 V -0.41600177 L 207.18057,24.333021 h 9.346 l 5.75059,-9.642211 c 1.46064,-2.441195 3.6669,-6.4553787 4.42276,-7.9670813 0.75585,1.5117026 2.90083,5.4033153 4.41253,7.9670813 l 5.7506,9.642211 h 9.24386 z"
         style="fill:#1e488c;fill-opacity:1;fill-rule:nonzero;stroke:none;stroke-width:10.2142"
         id="path1060" /><path
         d="M 273.68527,16.434375 H 263.05228 V 5.9750274 h 10.63299 c 3.77925,0 5.81188,1.7466293 5.81188,5.2909586 0,3.656687 -2.20627,5.168389 -5.81188,5.168389 m 4.8211,-32.767175 -7.2623,14.6369581 h -8.19179 V -16.3328 h -8.13051 v 40.662757 h 18.93714 c 7.67087,0 14.00368,-4.238896 14.00368,-12.890329 0,-6.1080956 -2.61484,-9.9384232 -7.78323,-11.97105031 L 287.86259,-16.3328 Z"
         style="fill:#1e488c;fill-opacity:1;fill-rule:nonzero;stroke:none;stroke-width:10.2142"
         id="path1062" /><path
         d="m 314.22341,16.895036 c -6.56773,0 -9.29493,-5.638242 -9.29493,-12.8903291 0,-7.2725152 2.7272,-12.9005431 9.29493,-12.9005431 6.55752,0 9.30514,5.6280279 9.30514,12.9005431 0,7.2520871 -2.74762,12.8903291 -9.30514,12.8903291 m 0,-33.87031 c -11.09263,0 -17.67058,8.6003623 -17.67058,20.9799809 0,12.3694041 6.57795,20.9697661 17.67058,20.9697661 11.10284,0 17.67058,-8.600362 17.67058,-20.9697661 0,-12.3796186 -6.56774,-20.9799809 -17.67058,-20.9799809"
         style="fill:#1e488c;fill-opacity:1;fill-rule:nonzero;stroke:none;stroke-width:10.2142"
         id="path1064" /><path
         d="M 368.19017,-16.335864 353.257,5.8596069 c -0.98056,1.5117026 -2.32884,3.5443297 -2.84976,4.5861791 0,-1.5117029 0.12257,-6.6188063 0.12257,-8.8863602 V -16.335864 h -8.01815 v 40.672971 h 7.78322 L 364.70713,2.8362017 c 0.99078,-1.5117026 2.31862,-3.54432979 2.83955,-4.5861789 0,1.51170262 -0.11236,6.618806 -0.11236,8.8863599 V 24.337107 h 8.01815 v -40.672971 z"
         style="fill:#1e488c;fill-opacity:1;fill-rule:nonzero;stroke:none;stroke-width:10.2142"
         id="path1066" /></g><g
       id="g3847"
       transform="matrix(1.3208662,0,0,1.3208662,-18.783298,-8.0134649)"><path
         d="m 306.04285,-276.04841 -0.74563,-0.20429 c -1.41978,-0.2145 -2.98255,-0.32685 -4.69854,-0.32685 -15.40302,-0.0409 -41.59225,9.08043 -70.44738,24.81031 11.05177,7.92622 22.89003,17.62972 34.89173,28.67127 0.11235,-0.18385 0.20428,-0.35749 0.31664,-0.53113 0.56178,-1.02143 1.13377,-2.03263 1.69556,-3.03362 14.81059,-26.07687 29.17177,-44.49309 38.93655,-49.35505 0.0102,-0.0102 0.0306,-0.0102 0.0511,-0.0306 m -35.95401,153.45824 c 0.0817,0.0102 0.143,0.0306 0.19407,0.0409 -0.0715,-0.0204 -0.14299,-0.0409 -0.20428,-0.0613 0,0 0.0102,0.0102 0.0102,0.0204 m -88.46524,-34.30952 c -0.77628,-3.22769 -1.54235,-6.48602 -2.24713,-9.78521 -3.67711,-16.74109 -6.37366,-32.66504 -8.04879,-46.86278 -28.60999,21.61326 -44.25816,44.75865 -44.11516,57.53662 0,1.75685 0.26557,3.30941 0.78649,4.64747 2.24713,5.4646 3.83033,7.44615 11.97105,9.11107 7.89559,1.46063 22.00141,1.82834 46.08651,2.5127 -1.54235,-5.5361 -3.03362,-11.24585 -4.43297,-17.15987 m 117.97409,-30.57112 v 0 c 33.03274,37.73128 58.01669,56.83184 51.06082,73.93043 -7.35423,18.017856 -29.80506,7.83429 -80.35517,-9.00893 0.0511,-0.0613 0.0817,-0.143 0.12257,-0.2145 v -0.0102 0.0102 c -0.0408,0.0715 -0.0715,0.15321 -0.12257,0.2145 v 0 c -12.85968,25.852152 -23.18625,46.403136 -34.31973,54.217005 -4.69854,3.299188 -9.55029,4.351252 -14.77996,2.553551 -0.0715,-0.02043 -0.0715,-0.03064 -0.143,-0.05107 -2.8089,-0.735423 -5.98552,-3.850756 -9.36643,-8.88636 -7.92622,-11.766766 -16.92494,-34.156306 -24.76945,-61.826596 -24.97373,-0.71499 -38.9672,-1.0112 -47.53692,-2.59441 -8.631,-1.4402 -12.20597,-5.06624 -14.36117,-11.0722 -0.67414,-1.76705 -0.99078,-3.71797 -0.99078,-5.80167 0.13279,-15.24981 16.58787,-38.61991 46.873,-61.14224 -3.13576,-28.79385 -1.93049,-49.92704 3.78947,-55.22821 0.34728,-0.34729 0.71499,-0.67414 1.13377,-0.94992 7.80366,-5.42375 27.45579,2.63526 51.47961,19.49892 29.67227,-16.29166 56.53563,-25.89302 73.28693,-25.92366 5.20925,0.0102 9.54007,0.92949 12.68604,3.11533 0.286,0.15322 0.56179,0.32686 0.82736,0.54136 -0.0511,-0.0511 -0.12257,-0.0817 -0.17365,-0.15322 0.0511,0.0511 0.12257,0.0715 0.17365,0.12257 0.14299,0.12257 0.28599,0.27579 0.43921,0.39836 v 0.0408 c 0.50049,0.48007 0.9397,1.11335 1.31763,1.80792 0.17364,0.33707 0.30643,0.70478 0.44942,1.03163 4.98454,11.60334 -1.49127,44.83016 -16.63894,85.1252 -0.0204,0.0817 -0.0613,0.16343 -0.0817,0.25536"
         style="fill:#1e488c;fill-opacity:1;fill-rule:nonzero;stroke:none;stroke-width:10.2142"
         id="path1068" /><path
         d="m 235.01122,-175.77248 c -1.42999,-0.61285 -3.50348,-1.56278 -4.27976,-1.96113 -1.84877,-1.00099 -2.75783,-2.06327 -2.75783,-3.97333 0,-2.79869 1.88963,-4.12654 3.48304,-4.12654 0.93971,0 2.30841,0.55157 3.53412,1.31764 v -1.50149 c -2.00199,-1.29721 -4.18783,-2.72719 -5.12753,-2.72719 -3.86097,0 -6.34303,3.18683 -6.33281,6.09788 0,2.44119 1.27677,4.22868 4.03461,5.34203 2.14498,0.85799 5.4646,2.05305 7.44616,3.07447 z m 8.90678,-9.67286 c -0.15321,-0.22471 -0.30642,-0.43921 -0.46985,-0.64349 l -1.10313,-0.55157 -3.43198,-1.64449 c -1.71598,0.30643 -2.48205,2.0122 -2.78848,3.28898 l 0.0307,12.63497 h -0.0102 v 0.3575 c 0.0102,3.14598 -1.47084,4.84153 -4.14697,4.84153 -2.50248,0.0102 -3.57497,-2.13476 -4.13675,-4.25932 -0.16343,-0.61285 -0.62307,-0.97035 -1.17463,-0.97035 -0.81714,0.0102 -2.18584,0.81714 -2.18584,1.73642 0,0.66392 0.61285,1.3687 1.73641,2.18584 1.22571,0.90906 4.22868,2.83955 7.84451,3.49325 1.41978,-0.0102 2.99277,-0.46985 4.00397,-1.23591 1.67513,-1.32785 1.9407,-3.10512 1.93049,-4.94368 l -0.0102,-11.43991 c -0.0204,-1.87942 0.6435,-2.74762 1.39935,-2.74762 0.20428,0 0.52092,0.0511 0.92949,0.16342 1.46063,2.09392 2.91105,4.37168 4.11633,6.28174 1.62406,2.56377 3.18683,5.48503 3.10512,7.46659 -0.0409,1.10313 -0.53114,1.70577 -0.55157,2.06327 -0.0511,0.71499 0.27578,1.42998 0.80692,1.91005 -3.42176,5.26032 -9.33578,8.73315 -16.06695,8.73315 -10.58191,0 -19.15163,-8.57993 -19.15163,-19.16185 0,-10.58192 8.56972,-19.16185 19.15163,-19.16185 10.58192,0 19.16186,8.57993 19.16186,19.16185 0,1.69556 -0.23493,3.32983 -0.65371,4.8926 -0.51071,-0.88863 -1.20528,-1.95091 -2.13477,-3.3094 -1.78749,-2.61484 -4.03461,-6.02638 -6.20003,-9.14172"
         style="fill:#ffffff;fill-opacity:1;fill-rule:nonzero;stroke:none;stroke-width:10.2142"
         id="path1070" /></g><g
       id="g3843"
       transform="matrix(1.3208662,0,0,1.3208662,-18.783298,-8.0134649)"><path
         d="m 58.539344,-343.24666 h 6.567735 v -23.4416 H 76.61849 v -5.50546 H 58.539344 Z"
         style="fill:#1e488c;fill-opacity:1;fill-rule:nonzero;stroke:none;stroke-width:10.2142"
         id="path1072" /><path
         d="M 97.70572,-359.95097 H 87.052302 v -6.87416 h 11.899551 v -5.36246 H 80.484567 v 28.93685 h 17.864648 v -5.36246 H 87.052302 v -6.01617 H 97.70572 Z"
         style="fill:#1e488c;fill-opacity:1;fill-rule:nonzero;stroke:none;stroke-width:10.2142"
         id="path1074" /><path
         d="m 118.66834,-367.25209 c 0.56178,-0.13278 1.46063,-0.13278 2.27776,-0.13278 5.92424,-0.0409 9.78521,3.22769 9.78521,10.14271 0.0511,6.00595 -3.47283,9.18257 -9.10085,9.18257 -1.46064,0 -2.40034,-0.12257 -2.96212,-0.25536 z m -6.56774,23.61525 c 2.40034,0.38814 5.5361,0.60264 8.8455,0.60264 5.49525,0 9.06001,-0.98057 11.84848,-3.08469 3.00298,-2.23692 4.89261,-5.80167 4.89261,-10.90878 0,-5.54631 -2.0122,-9.36642 -4.80068,-11.72591 -3.05405,-2.53312 -7.6913,-3.7384 -13.36018,-3.7384 -3.39112,0 -5.79146,0.2145 -7.42573,0.429 z"
         style="fill:#1e488c;fill-opacity:1;fill-rule:nonzero;stroke:none;stroke-width:10.2142"
         id="path1076" /><path
         d="m 158.43837,-336.41744 -5.28074,-5.28075 h -5.19903 l 3.60561,5.28075 z m 0.77628,-23.53353 h -10.65342 v -6.87416 h 11.89955 v -5.36246 H 141.9935 v 28.93685 h 17.86465 v -5.36246 h -11.29692 v -6.01617 h 10.65342 z"
         style="fill:#1e488c;fill-opacity:1;fill-rule:nonzero;stroke:none;stroke-width:10.2142"
         id="path1078" /><path
         d="m 171.41144,-356.77435 c 0.56178,-0.13279 1.24613,-0.17365 2.18584,-0.17365 3.48304,0 5.62802,1.76706 5.62802,4.72918 0,2.6557 -1.84877,4.24911 -5.1071,4.24911 -1.32785,0 -2.23691,-0.13278 -2.70676,-0.25535 z m -6.48603,13.14568 c 2.02242,0.33707 4.85175,0.59242 8.84551,0.59242 4.03461,0 6.91502,-0.76606 8.8455,-2.31862 1.84877,-1.46063 3.09491,-3.86097 3.09491,-6.70052 0,-2.82934 -0.93971,-5.22967 -2.66591,-6.86395 -2.2267,-2.10412 -5.5361,-3.05405 -9.39707,-3.05405 -0.858,0 -1.63428,0.0511 -2.23691,0.13279 v -10.34699 h -6.48603 z"
         style="fill:#1e488c;fill-opacity:1;fill-rule:nonzero;stroke:none;stroke-width:10.2142"
         id="path1080" /><path
         d="m 201.39013,-359.86415 -1.80791,6.13874 c -0.51071,1.71598 -1.03164,3.86097 -1.46063,5.58717 h -0.0817 c -0.42899,-1.7262 -0.85799,-3.91204 -1.32784,-5.58717 l -1.71599,-6.13874 z m -7.34401,-4.89261 -2.06327,-7.43594 h -6.78224 l 8.84551,28.94706 h 8.59015 l 8.97828,-28.94706 h -7.0478 l -2.2267,7.43594 z"
         style="fill:#1e488c;fill-opacity:1;fill-rule:nonzero;stroke:none;stroke-width:10.2142"
         id="path1082" /><path
         d="m 221.96563,-356.08592 h 2.57398 c 3.26855,0 5.19903,1.63428 5.19903,4.1674 0,2.65569 -1.80791,3.99375 -4.81089,4.03461 -1.5832,0 -2.49227,-0.13278 -2.96212,-0.2145 z m -6.48602,12.45112 c 2.10413,0.34728 5.23989,0.60264 8.72293,0.60264 4.28997,0 7.29295,-0.6435 9.35622,-2.27777 1.71598,-1.3687 2.6659,-3.39112 2.6659,-6.05702 0,-3.68733 -2.62505,-6.22046 -5.11731,-7.12952 v -0.12257 c 2.02241,-0.81714 3.13576,-2.74762 3.87118,-5.41353 0.89885,-3.25833 1.7977,-7.03759 2.35948,-8.16115 h -6.70052 c -0.46985,0.81714 -1.1542,3.17662 -2.0122,6.74138 -0.77628,3.61582 -2.02241,4.59639 -4.68832,4.63725 h -1.97134 v -11.37863 h -6.48602 z"
         style="fill:#1e488c;fill-opacity:1;fill-rule:nonzero;stroke:none;stroke-width:10.2142"
         id="path1084" /><path
         d="m 246.53284,-348.74292 h -7.77301 v 5.49524 h 22.24654 v -5.49524 h -7.90579 v -23.44161 h -6.56774 z"
         style="fill:#1e488c;fill-opacity:1;fill-rule:nonzero;stroke:none;stroke-width:10.2142"
         id="path1086" /><path
         d="m 281.70648,-359.95097 h -10.65341 v -6.87416 h 11.89955 v -5.36246 h -18.46729 v 28.93685 h 17.86465 v -5.36246 h -11.29691 v -6.01617 h 10.65341 z"
         style="fill:#1e488c;fill-opacity:1;fill-rule:nonzero;stroke:none;stroke-width:10.2142"
         id="path1088" /><path
         d="m 311.89866,-361.11028 c -0.13279,3.47283 -0.25536,7.68108 -0.25536,11.89955 h -0.13278 c -0.89885,-3.69755 -2.10413,-7.82409 -3.21748,-11.2152 l -3.5239,-11.29692 h -5.1071 l -3.09491,11.2152 c -0.9397,3.39112 -1.93048,7.50745 -2.61483,11.29692 h -0.0919 c -0.17364,-3.91205 -0.29621,-8.37565 -0.51071,-11.99148 l -0.52093,-10.99049 h -6.04681 l 1.83856,28.94706 h 8.72293 l 2.82934,-9.66264 c 0.90906,-3.35026 1.80791,-6.95587 2.45141,-10.34699 h 0.12257 c 0.81713,3.35026 1.80791,7.17037 2.75783,10.38785 l 3.08469,9.62178 h 8.5493 l 1.5832,-28.94706 h -6.3941 z"
         style="fill:#1e488c;fill-opacity:1;fill-rule:nonzero;stroke:none;stroke-width:10.2142"
         id="path1090" /><path
         d="m 340.97953,-359.95097 h -10.65342 v -6.87416 h 11.89955 v -5.36246 h -18.46729 v 28.93685 h 17.86465 v -5.36246 h -11.29691 v -6.01617 h 10.65342 z"
         style="fill:#1e488c;fill-opacity:1;fill-rule:nonzero;stroke:none;stroke-width:10.2142"
         id="path1092" /><path
         d="m 346.69437,-372.18964 v 28.94707 h 7.64023 l 6.01617,-10.61256 c 1.71598,-3.04384 3.43197,-6.64945 4.71896,-9.918 h 0.13279 c -0.429,3.82011 -0.56178,7.73216 -0.56178,12.06298 v 8.46758 h 6.01616 v -28.94707 h -6.87416 l -6.17959,11.16413 c -1.71599,3.09491 -3.60562,6.83331 -5.02539,10.22442 l -0.13279,-0.0511 c 0.17364,-3.82011 0.25536,-7.89558 0.25536,-12.62476 v -8.71272 z"
         style="fill:#1e488c;fill-opacity:1;fill-rule:nonzero;stroke:none;stroke-width:10.2142"
         id="path1094" /><path
         d="m 381.91398,-348.74292 h -7.77301 v 5.49524 h 22.24654 v -5.49524 h -7.90579 v -23.44161 h -6.56774 z"
         style="fill:#1e488c;fill-opacity:1;fill-rule:nonzero;stroke:none;stroke-width:10.2142"
         id="path1096" /></g></g></svg>
