<?xml version="1.0" encoding="utf-8"?>
<!-- Generator: Adobe Illustrator 16.0.0, SVG Export Plug-In . SVG Version: 6.00 Build 0)  -->
<!DOCTYPE svg PUBLIC "-//W3C//DTD SVG 1.1//EN" "http://www.w3.org/Graphics/SVG/1.1/DTD/svg11.dtd">
<svg version="1.1" id="Calque_1" xmlns="http://www.w3.org/2000/svg" xmlns:xlink="http://www.w3.org/1999/xlink" x="0px" y="0px"
	 width="666px" height="176px" viewBox="0 0 666 176" enable-background="new 0 0 666 176" xml:space="preserve">
<rect x="39.233" y="17.167" fill="#FFFFFF" width="137.34" height="138.084"/>
<rect x="41.967" y="19.902" fill="#005CA9" width="131.871" height="131.871"/>
<g>
	<defs>
		<rect id="SVGID_1_" width="666" height="176"/>
	</defs>
	<clipPath id="SVGID_2_">
		<use xlink:href="#SVGID_1_"  overflow="visible"/>
	</clipPath>
	<path clip-path="url(#SVGID_2_)" fill="#009BD9" d="M53.923,70.764C32.601,72.9,21.9,76.383,21.9,76.383s-0.329,4.139-1.24,9.786
		c0,0,14.302-3.234,22.869-4.103l8.708-3.945L53.923,70.764z"/>
	<path clip-path="url(#SVGID_2_)" fill="#FFFFFF" d="M37.563,91.764c-12.289,2.141-18.891,3.88-18.891,3.88l-0.021-0.014
		c1.11-5.061,2.009-9.461,2.009-9.461s14.284-3.247,22.852-4.116l-5.969,9.697L37.563,91.764z"/>
	<path clip-path="url(#SVGID_2_)" fill="#D51317" d="M37.56,91.764v9.898c0,0-16.644,3.21-21.56,4.681c0,0,1.506-4.796,2.669-10.699
		C18.668,95.644,25.27,93.904,37.56,91.764"/>
	<path clip-path="url(#SVGID_2_)" fill="#FFFFFF" d="M52.739,85.742c0,0-14.57-0.495-14.468-2.587
		c0.037-0.772,0.192-0.843,0.643-1.254c0.988-0.906,6.2-3.202,16.001-7.098L52.739,85.742z"/>
	<path clip-path="url(#SVGID_2_)" fill="#FFDD00" d="M107.887,143.606c31.971,0,57.89-25.919,57.89-57.889
		c0-31.971-25.919-57.89-57.89-57.89s-57.889,25.919-57.889,57.89C49.998,117.688,75.916,143.606,107.887,143.606"/>
	<path clip-path="url(#SVGID_2_)" fill="#FFFFFF" d="M37.049,92.18c0.342,1.561,2.194,1.95,8.73,2.534
		c6.535,0.587,27.847,0.995,53.596-0.722c30.16-2.009,63.6-10.809,89.762-19.212c-0.66,1.736-2.293,5.792-2.923,7.655
		c-0.415,1.233-0.736,2.378-1.092,3.551c-25.714,8.121-57.84,16.368-86.917,18.307c-25.75,1.715-47.062,0.369-53.597-0.217
		c-6.535-0.583-8.388-0.974-8.729-2.534L37.049,92.18z"/>
	<path clip-path="url(#SVGID_2_)" fill="#009BD9" d="M38.22,82.814c0.342,1.561,2.194,1.951,8.73,2.537
		c6.535,0.584,27.847,0.058,53.597-1.66c31.824-2.12,67.301-11.802,94.026-20.599l-0.006-0.013l-0.028,0.016
		c-1.788,3.155-3.554,6.99-5.401,11.684c-26.163,8.405-59.602,17.204-89.762,19.212c-25.749,1.719-47.062,1.31-53.596,0.723
		c-6.536-0.584-8.389-0.974-8.73-2.534L38.22,82.814z"/>
	<path clip-path="url(#SVGID_2_)" fill="#D51317" d="M34.708,110.904c0.342,1.562,2.195,1.953,8.73,2.537
		c6.535,0.586,27.847,2.866,53.597,1.151c28.444-1.898,59.806-9.831,85.229-17.776l-0.007,0.018
		c0.506-2.358,1.483-6.615,2.865-10.849c-25.714,8.121-57.839,16.368-86.916,18.308c-25.75,1.715-47.062,0.369-53.598-0.217
		c-6.534-0.584-8.388-0.974-8.729-2.534L34.708,110.904z"/>
	<path clip-path="url(#SVGID_2_)" fill="#FFDD00" d="M107.893,139.082c29.322,0,53.092-23.771,53.092-53.092
		c0-29.322-23.77-53.092-53.092-53.092c-29.321,0-53.091,23.77-53.091,53.092C54.802,115.311,78.572,139.082,107.893,139.082"/>
	<path clip-path="url(#SVGID_2_)" fill="#005CA9" d="M91.899,44.392c-1.003,15.724-1.746,45.632,0,76.11l-15.017,3.71
		c-1.041-17.397-2.379-45.246,0-74.683L91.899,44.392z"/>
	<path clip-path="url(#SVGID_2_)" fill="#005CA9" d="M151.124,95.979c0,0-9.121,22.057-45.918,38.951l-2.588-15.848
		c20.323-9.604,30.45-23.572,30.45-23.572c-6.41-3.219-21.591-6.129-31.278-5.972l-0.051-13.587
		c15.779-5.891,23.186-16.866,23.186-16.866c-4.64-2.576-17.483-3.477-25.848-1.155l0.173-14.815
		c14.052-2.325,34.052,1.521,38.997,4.55c0,0,2.945,14.693,2.897,15.004c0,0-6.476,9.129-15.023,14.468
		c0,0,12.783,1.725,22.774,7.246C148.895,84.382,150.957,95.907,151.124,95.979"/>
	<path clip-path="url(#SVGID_2_)" fill="#005CA9" d="M225.971,87.806v6.417h5.417c3.052,0,5.367-0.578,5.367-3.185
		c0-3.04-2.894-3.232-6.84-3.232H225.971z M225.971,75.694v5.79h5.154c2.473,0,4.262-1.013,4.262-3.04c0-2.701-2.42-2.75-5.051-2.75
		H225.971z M213.554,102.328V67.589h18.097c8.522,0,15.31,1.833,15.31,8.733c0,3.57-2.526,6.176-4.947,7.575
		c4.105,0.965,6.312,4.197,6.312,7.961c0,7.769-6.47,10.47-16.306,10.47H213.554z"/>
	<path clip-path="url(#SVGID_2_)" fill="#005CA9" d="M263.421,84.766c0,4.438,1.473,9.987,7.416,9.987
		c5.366,0,7.472-4.245,7.472-9.987c0-4.729-2.106-9.747-7.576-9.602C265.104,75.164,263.421,80.375,263.421,84.766 M290.723,84.766
		c0,11.821-8.68,18.479-19.886,18.479c-11.888,0-19.833-6.754-19.833-18.575c0-10.905,8.05-17.998,19.833-17.998
		C284.356,66.671,290.723,75.599,290.723,84.766"/>
	<path clip-path="url(#SVGID_2_)" fill="#005CA9" d="M294.714,67.589h12.416v20.796c0,3.425,0.735,6.368,5.838,6.368
		c4.472,0,5.787-2.606,5.787-6.368V67.589h12.416v19.638c0,11.145-5.629,16.018-18.203,16.018c-11.731,0-18.254-4.101-18.254-16.067
		V67.589z"/>
	<path clip-path="url(#SVGID_2_)" fill="#005CA9" d="M360.412,80.857c-0.367-3.619-2.84-5.693-6.732-5.693
		c-4.366,0-6.996,3.425-6.996,10.131c0,4.875,1.157,9.458,7.471,9.458c3.997,0,5.891-2.557,6.365-5.887h11.941
		c-1.104,8.975-8.103,14.379-18.097,14.379c-12.521,0-20.096-7.044-20.096-18.335c0-11.242,8.312-18.238,18.884-18.238
		c11.575,0,18.046,5.259,19.044,14.185H360.412z"/>
	<polygon clip-path="url(#SVGID_2_)" fill="#005CA9" points="375.927,102.328 375.927,67.589 388.341,67.589 388.341,79.313 
		400.073,79.313 400.073,67.589 412.487,67.589 412.487,102.328 400.073,102.328 400.073,88.866 388.341,88.866 388.341,102.328 	
		"/>
	<polygon clip-path="url(#SVGID_2_)" fill="#005CA9" points="418.374,102.328 418.374,67.589 449.254,67.589 449.254,75.694 
		430.787,75.694 430.787,80.664 446.413,80.664 446.413,88.77 430.787,88.77 430.787,94.223 449.991,94.223 449.991,102.328 	"/>
	<path clip-path="url(#SVGID_2_)" fill="#005CA9" d="M474.025,77.673c-0.209-1.206-0.895-1.93-1.788-2.365
		c-0.895-0.434-1.999-0.627-3.208-0.627c-2.736,0-3.946,0.724-3.946,1.979c0,5.21,21.778,1.978,21.778,14.62
		c0,8.057-7.312,11.966-17.728,11.966c-9.996,0-16.519-5.355-16.782-11.629h11.89c0.263,1.256,1,2.172,2.052,2.751
		c0.999,0.578,2.314,0.869,3.524,0.869c3.104,0,5.155-0.917,5.155-2.558c0-5.26-21.779-1.641-21.779-14.91
		c0-7.382,6.944-11.097,16.413-11.097c10.521,0,15.309,4.921,16.202,11.001H474.025z"/>
	<path clip-path="url(#SVGID_2_)" fill="#005CA9" d="M224.149,142.48h2.389c5.256,0,8.123-2.8,8.123-9.363
		c0-7.236-2.342-9.166-8.362-9.166h-2.15V142.48z M212.873,150.585v-34.742h15.098c11.085,0,17.966,5.213,17.966,16.648
		c0,13.074-7.216,18.094-18.253,18.094H212.873z"/>
	<path clip-path="url(#SVGID_2_)" fill="#005CA9" d="M249.609,115.843h11.276v20.798c0,3.425,0.669,6.367,5.304,6.367
		c4.062,0,5.255-2.604,5.255-6.367v-20.798h11.277v19.639c0,11.147-5.112,16.021-16.532,16.021c-10.655,0-16.58-4.104-16.58-16.068
		V115.843z"/>
	<path clip-path="url(#SVGID_2_)" fill="#005CA9" d="M314.824,130.85h4.442c3.488,0,5.351-0.869,5.351-3.28
		c0-2.461-1.91-3.618-4.538-3.618h-5.255V130.85z M314.824,138.474v12.111h-11.276v-34.742h16.245
		c11.467,0,15.241,3.137,15.241,9.892c0,4.005-1.768,7.383-5.783,8.492c3.632,1.351,5.832,2.221,5.832,9.216
		c0,4.537-0.144,6.079,1.194,6.079v1.063h-11.421c-0.285-0.772-0.574-2.993-0.574-6.079c0-4.537-0.764-6.032-6.018-6.032H314.824z"
		/>
	<polygon clip-path="url(#SVGID_2_)" fill="#005CA9" points="340.428,150.585 340.428,115.843 351.704,115.843 351.704,127.569 
		362.359,127.569 362.359,115.843 373.635,115.843 373.635,150.585 362.359,150.585 362.359,137.122 351.704,137.122 
		351.704,150.585 	"/>
	<path clip-path="url(#SVGID_2_)" fill="#005CA9" d="M389.397,133.021c0,4.439,1.338,9.987,6.734,9.987
		c4.874,0,6.785-4.246,6.785-9.987c0-4.729-1.911-9.745-6.879-9.601C390.924,123.42,389.397,128.63,389.397,133.021
		 M392.358,105.519h7.835l5.831,7.141h-7.072l-2.676-3.668l-2.676,3.668h-7.023L392.358,105.519z M414.194,133.021
		c0,11.822-7.885,18.481-18.062,18.481c-10.798,0-18.012-6.756-18.012-18.579c0-10.904,7.311-17.996,18.012-17.996
		C408.411,114.927,414.194,123.854,414.194,133.021"/>
	<polygon clip-path="url(#SVGID_2_)" fill="#005CA9" points="441.517,134.806 441.088,126.894 441.088,115.843 451.886,115.843 
		451.886,150.585 441.326,150.585 429.048,131.669 429.477,139.584 429.477,150.585 418.68,150.585 418.68,115.843 429.238,115.843 
			"/>
	<polygon clip-path="url(#SVGID_2_)" fill="#005CA9" points="458.14,150.585 458.14,115.843 486.187,115.843 486.187,123.951 
		469.415,123.951 469.415,128.92 483.605,128.92 483.605,137.025 469.415,137.025 469.415,142.48 486.854,142.48 486.854,150.585 	
		"/>
	<path clip-path="url(#SVGID_2_)" fill="#0069B4" d="M214.603,42.909h5.291c1.98,0,3.701-0.132,5.486-1.083
		c3.115-1.606,3.894-5.639,3.894-8.852c0-3.443-0.747-7.213-4.024-8.984c-1.396-0.754-3.409-0.885-5.356-0.885h-5.291V42.909z
		 M212.395,44.81V21.203h7.985c2.598,0,5.032,0.164,7.206,1.771c3.083,2.262,3.896,6.852,3.896,10c0,3.114-0.681,6.59-2.824,8.951
		c-2.142,2.426-5.193,2.885-8.278,2.885H212.395z"/>
	<path clip-path="url(#SVGID_2_)" fill="#0069B4" d="M246.084,19.367l3.603-4.557h2.5l-4.446,4.557H246.084z M240.665,44.81V21.203
		h15.548v1.902h-13.342v8.524h12.043v1.902h-12.043v9.378h13.666v1.901H240.665z"/>
	<path clip-path="url(#SVGID_2_)" fill="#0069B4" d="M272.503,32.481c4.123,0,6.687-0.853,6.687-4.853
		c0-2.951-1.883-4.524-6.037-4.524h-5.713v9.377H272.503z M265.232,44.81V21.203h8.538c6.069,0,7.628,3.049,7.628,6.59
		c0,5.279-4.642,6.59-8.958,6.59h-5V44.81H265.232z"/>
	<path clip-path="url(#SVGID_2_)" fill="#0069B4" d="M291.23,35.498h9.155l-4.578-12.393L291.23,35.498z M285.453,44.81
		l9.185-23.607h2.5l8.96,23.607h-2.272l-2.695-7.41h-10.647l-2.759,7.41H285.453z"/>
	<path clip-path="url(#SVGID_2_)" fill="#0069B4" d="M323.136,32.187c3.278,0,5.811-1.377,5.811-4.689
		c0-3.541-2.727-4.393-5.681-4.393h-7.012v9.082H323.136z M316.254,34.088V44.81h-2.206V21.203h9.152
		c5.129,0,7.953,1.836,7.953,6.197c0,2.983-1.103,4.557-3.798,5.771c2.759,0.95,2.921,3.901,2.987,6.393
		c0.097,3.573,0.389,4.557,0.974,5.016v0.23h-2.435c-0.909-1.607-0.682-6.033-1.039-7.836c-0.518-2.558-2.434-2.886-4.642-2.886
		H316.254z"/>
	<polygon clip-path="url(#SVGID_2_)" fill="#0069B4" points="337.871,21.203 354.881,21.203 354.881,23.104 347.479,23.104 
		347.479,44.81 345.272,44.81 345.272,23.104 337.871,23.104 	"/>
	<polygon clip-path="url(#SVGID_2_)" fill="#0069B4" points="362.864,44.81 362.864,21.203 378.411,21.203 378.411,23.104 
		365.07,23.104 365.07,31.628 377.112,31.628 377.112,33.531 365.07,33.531 365.07,42.909 378.735,42.909 378.735,44.81 	"/>
	<polygon clip-path="url(#SVGID_2_)" fill="#0069B4" points="387.434,44.81 387.434,21.203 390.809,21.203 398.47,42.022 
		398.535,42.022 406.065,21.203 409.408,21.203 409.408,44.81 407.201,44.81 407.201,23.761 407.137,23.761 399.476,44.81 
		397.398,44.81 389.705,23.761 389.64,23.761 389.64,44.81 	"/>
	<polygon clip-path="url(#SVGID_2_)" fill="#0069B4" points="419.403,44.81 419.403,21.203 434.951,21.203 434.951,23.104 
		421.61,23.104 421.61,31.628 433.652,31.628 433.652,33.531 421.61,33.531 421.61,42.909 435.275,42.909 435.275,44.81 	"/>
	<polygon clip-path="url(#SVGID_2_)" fill="#0069B4" points="446.276,24.219 446.211,24.219 446.211,44.809 444.004,44.809 
		444.004,21.202 446.503,21.202 460.007,41.825 460.071,41.825 460.071,21.202 462.28,21.202 462.28,44.809 459.716,44.809 	"/>
	<polygon clip-path="url(#SVGID_2_)" fill="#0069B4" points="470.229,21.203 487.238,21.203 487.238,23.104 479.837,23.104 
		479.837,44.81 477.63,44.81 477.63,23.104 470.229,23.104 	"/>
</g>
<g>
	<defs>
		<rect id="SVGID_3_" x="16" y="14.809" width="481.965" height="140.442"/>
	</defs>
	<clipPath id="SVGID_4_">
		<use xlink:href="#SVGID_3_"  overflow="visible"/>
	</clipPath>
	<path clip-path="url(#SVGID_4_)" fill="none" stroke="#005CA9" stroke-width="4.021" d="M495.955,91.331V79.277 M293.134,139.069
		v-12.057"/>
</g>
<g>
	<defs>
		<rect id="SVGID_5_" x="510.475" y="11" width="143.644" height="144.475"/>
	</defs>
	<clipPath id="SVGID_6_">
		<use xlink:href="#SVGID_5_"  overflow="visible"/>
	</clipPath>
	<path clip-path="url(#SVGID_6_)" fill="#005CA9" d="M592.471,138.501c0,3.294,4.149,10.179,4.945,10.646l0.796,0.465
		c-0.477-0.349,0.054-1.146,0.021-2.688c-0.033-1.542-1.65-6.382-3.016-8.301c-1.365-1.918-2.58-3.656-2.108-5.604
		c0.471-1.946-0.638-5.628-1.499-7.311c-1.416-2.766-1.513-4.874-1.328-7.935c0.185-3.062,5.303-10.631,6.707-12.344
		c1.405-1.715,5.634-4.083,6.912-4.401s6.525-0.296,7.753-0.604c1.228-0.31,4.096-3.609,4.662-4.586
		c0.567-0.977,3.419-6.016,4.516-6.814c1.096-0.801,6.353,0.513,7.298,0.413c0.945-0.099,4.838-4.335,6.006-5.432
		c4.299-4.036,8.427-6.848,8.427-6.848s-2.644,0.575-4.555,1.856c-1.636,1.096-8.168,6.683-9.748,8.301
		c-1.228,1.258-3.321-1.799-6.544-1.618c-3.223,0.182-7.101,7.731-8.486,9.239c-1.386,1.506-4.999,2.817-6.852,3.077
		c-1.852,0.262-5.066,0.359-9.278,0.935c-4.212,0.577-11.563,10.549-11.563,10.549s1.727-4.956,2.17-10.255
		c0.442-5.299-0.99-9.946-1.732-11.64c-0.74-1.695-1.706-5.605-1.143-8.759c0.563-3.154,1.729-4.373,2.537-5.109
		c0.807-0.734,7.665-3.716,10.744-5.346c3.08-1.63,5.348-4.82,5.348-4.82c2.01-1.972,1.413-11.748,1.929-13.954
		c0.4-1.715,2.377-3.855,5.738-6.655c1.523-1.269-0.763-8.958-0.763-8.958s-0.099,4.448,0.017,6.316
		c0.115,1.869-1.579,2.661-3.355,3.753c-1.775,1.092-2.634,3.662-3.498,5.544c-0.864,1.882-0.534,6.989-1.08,10.091
		c-0.545,3.103-5.348,4.759-6.776,5.795c-1.428,1.035-6.469,5.172-9.531,6.202c-3.064,1.029-4.507,0.533-4.846,0.167
		c-0.339-0.366-1.27-4.947-1.797-7.534c-0.771-3.785-2.464-2.74-3.697-2.999c-1.232-0.26-5.171-3.486-6.717-5.283
		c-1.545-1.798-3.577-6.207-3.859-7.997c-0.282-1.79-0.862-11.731-0.862-11.731s-0.437,3.496-0.603,7.59
		c-0.167,4.094,0.224,8.918,1.804,11.641c1.581,2.723,6.431,6.57,9.523,8.159c3.092,1.588,2.737,3.405,2.715,5.397
		c-0.022,1.992-0.294,5.572,0.11,7.964c0.405,2.393,3.176,9.652,4.283,13.022c1.106,3.372,0.229,7.751,0.229,7.751
		c-0.586,1.871-1.023,1.989-1.023,1.989s-0.43-2.649-0.746-3.999c-0.317-1.35-1.54-0.903-1.54-0.903
		c-1.071-0.076-1.09-3.469-0.75-4.587c0.339-1.118,0.342-2.661-0.395-5.269c-0.735-2.607-8.66-4.91-10.527-5.439
		c-1.867-0.528-9.472-2.775-9.472-2.775s-2.492-4.301-3.305-6.103c-0.812-1.801-2.151-4.589-2.657-4.885
		c-0.505-0.295-3.894-1.244-5.184-1.539s-9.968,0.05-11.342-0.551s-5.104-7.637-5.104-7.637s0,1.177,1.445,4.714
		c1.444,3.536,3.498,4.592,4.652,4.957c1.154,0.365,6.288-0.225,9.082-0.251c2.794-0.026,4.75,1.6,6.344,3.426
		c1.594,1.825,3.547,7.778,3.547,7.778s-1.931-0.45-3.691-0.599c-1.76-0.149-4.835-0.521-8.019,0.194
		c-3.184,0.715-9.946,5.553-11.911,6.992C529.86,84.8,523.5,94.19,523.5,94.19s2.367-2.002,3.456-3.192
		c1.088-1.19,3.552-3.284,4.603-4.339c1.051-1.056,7.58-6.474,8.738-7.078c1.157-0.604,5.646-2.114,5.646-2.114
		c1.64-0.457,6.818-0.174,8.288,0.115c1.47,0.29,6.03,2.103,7.264,2.632c1.233,0.529,6.409,2.674,7.007,3.011
		c0.6,0.336,3.197,3.784,4.702,5.937c1.505,2.152,1.927,4.909,1.791,6.051c-0.136,1.143,3.642,10.53,2.622,12.581
		c-1.017,2.052-1.347,9.876-0.866,12.584s2.828,12.567,1.982,14.375c-0.846,1.806-4.64,8.82-6.684,11.053
		c-2.101,2.294-13.109,1.675-15.488,3.184c-2.254,1.431-8.805,1.618-12.049,2.533c-4.544,1.28-8.139,0.547-8.139,0.547
		s12.76-2.908,14.252-2.984c1.491-0.076,2.924,0.342,3.428-0.537c0.505-0.878,5.031-0.947,5.659-1.115
		c0.511-0.136,1.575-0.315,2.52-0.123c0-0.001,1.276-0.712,1.322-0.744c0.119-0.14,0.658,0.137,1.425-0.97
		c1.277-1.847,1.168-0.992,2.737-1.487c1.568-0.496,3.578-0.594,4.032-1.172c0.455-0.578,0.718-1.884,0.883-3.494
		c0.165-1.611,0.165-2.438,0.455-4.545c0.288-2.106,4.219-11.76,4.219-11.76s0.622,6.534,0.664,7.443
		c0.144,3.134-0.454,2.593-1.611,5.617c-0.443,1.159-1.982,2.933-2.188,4.998c-0.207,2.066-1.115,2.312-1.859,2.85
		c-0.743,0.536-0.752,1.509-2.611,1.922c-1.858,0.413-2.685,0.909-3.593,1.528c-0.79,0.54-1.341,1.044-1.644,1.259
		c-1.322,0.413-2.51,1.076-2.52,1.082c0.083-0.628,0.049,0.222,0,0.363c-0.277,0.778-1.988,0.854-2.823,1.103
		c-0.835,0.249-1.442,1.85-1.805,2.553c-0.364,0.701-4.634,0.93-4.634,0.93s2.801,0.657,4.337,0.69
		c1.536,0.032,2.784-2.493,4.044-3.134s4.271-0.843,5.813-1.314c1.541-0.474,4.98,0.112,6.534,0.61
		c1.553,0.498,3.559,0.432,6.099,0.483c2.541,0.052,6.635-0.464,7.492-0.519c0.857-0.053,4.452,1.083,5.398,1.214
		c0.947,0.131,2.782-1.228,3.214-1.395c0.433-0.167,4.404,0.647,6.821,0.957c2.418,0.311,6.876-0.236,5.885-0.264
		c-1.486-0.042-4.834-0.544-4.834-0.544s2.81-1.356,5.392-0.627c2.267,0.64,6.382,1.125,8.302,1.271
		c1.921,0.146,13.879-0.467,13.879-0.467s-3.034-0.517-7.497-0.461c-5.028,0.064-8.41-0.724-8.41-0.724s-1.833-0.391-5.252-1.385
		c-3.435-0.998-6.66,0.979-7.611,1.135c-0.951,0.156-3.598-0.355-4.075-0.703c0,0-3.503-1.02-4.37-2.093
		c-0.868-1.073-1.59-1.758-2.333-3.08c-0.744-1.321-1.31-5.289-1.626-7.189c-0.315-1.899-2.425-1.558-2.961-2.301
		c-0.537-0.743,0.734-2.884,0.113-5.074c-0.618-2.188-3.162-6.638-2.997-7.382c0.166-0.743,1.343-1.332,2.769-3.343
		c1.693-2.393,1.958-3.18,1.498-4.037c-0.619-1.157-1.542-2.018-2.075-2.307c-0.532-0.289-4.675,0.562-4.675-1.269
		c0-1.013,1.61-6.008,1.238-6.875c-0.371-0.868-0.371-1.696-0.371-1.696l-0.777-2.331c-0.098-0.221-0.09-0.269-0.09-0.269
		l0.09,0.269c0.106,0.239,0.342,0.686,0.86,1.508c0.991,1.569,1.196,1.239,1.444,2.767c0.249,1.529,1.075,3.677,1.24,4.461
		c0.165,0.785,1.776,0.331,3.262,1.982c0,0,1.158,2.271,1.323,3.304c0.165,1.033,0,2.189-0.372,3.057
		c-0.371,0.868-2.561,4.296-2.685,5.411"/>
</g>
<g>
	<defs>
		<rect id="SVGID_7_" width="666" height="176"/>
	</defs>
	<clipPath id="SVGID_8_">
		<use xlink:href="#SVGID_7_"  overflow="visible"/>
	</clipPath>
	<path clip-path="url(#SVGID_8_)" fill="#005CA9" d="M608.837,32.19c-0.527-1.919-0.316-7.039,1.427-9.586
		c1.189-1.757,0.689-3.048,1.284-3.754c0.26,0.883,1.087,2.295,1.069,4.404C612.587,26.88,610.078,30.631,608.837,32.19"/>
	<path clip-path="url(#SVGID_8_)" fill="#005CA9" d="M610.865,34.424c1.934-0.417,6.346-1.62,10.568-0.693
		c2.486,0.546,4.293,1.892,5.306,2.295c-0.884,0.204-2.404,0.157-4.707,0.279C618.067,36.516,613.072,35.263,610.865,34.424"/>
	<path clip-path="url(#SVGID_8_)" fill="#005CA9" d="M607.496,34.343c-1.492-0.975-5.456-3.781-6.354-6.723
		c-0.623-2.02-0.99-3.463-1.189-4.354c0.694,0.438,1.979,0.87,3.362,2.332C605.711,28.131,607.025,32.425,607.496,34.343"/>
	<path clip-path="url(#SVGID_8_)" fill="#005CA9" d="M614.264,32.466c-1.316,1.107-2.895,1.401-3.52,0.656
		c-0.625-0.745-0.063-2.245,1.255-3.352c1.316-1.108,2.893-1.401,3.518-0.656C616.144,29.859,615.582,31.359,614.264,32.466"/>
	<path clip-path="url(#SVGID_8_)" fill="#005CA9" d="M591.555,38.377c1.641,0.366,5.479-0.008,8.021,3.796
		c1.118,1.671,2.225,2.689,2.75,3.398c-0.755-0.154-2-0.45-3.75-0.943C596.016,43.875,592.722,39.892,591.555,38.377"/>
	<path clip-path="url(#SVGID_8_)" fill="#005CA9" d="M611.31,41.381c1.822-0.442,6.836-1.463,9.803-0.077
		c2.041,0.946,3.442,1.681,4.29,2.155c-0.833,0.218-2.602-0.696-4.593-0.33C617.885,43.631,613.162,42.371,611.31,41.381"/>
	<path clip-path="url(#SVGID_8_)" fill="#005CA9" d="M571.214,47.666c-1.395,0.167-2.595-0.293-2.683-1.028
		c-0.088-0.734,0.972-1.464,2.366-1.631c1.394-0.166,2.595,0.294,2.683,1.029C573.668,46.77,572.609,47.499,571.214,47.666"/>
	<path clip-path="url(#SVGID_8_)" fill="#005CA9" d="M564.338,42.25c1.271-1.666,4.911-6.091,8.483-7.065
		c2.456-0.669,4.199-1.073,5.276-1.286c-0.572,0.776-1.532,1.882-3.381,3.321C571.687,39.58,566.658,41.744,564.338,42.25"/>
	<path clip-path="url(#SVGID_8_)" fill="#005CA9" d="M562.527,35.339c-0.407-1.643-1.096-5.474-0.306-9.063
		c0.456-2.065,1.293-3.354,1.66-4.183c0.2,0.751,0.632,1.912,0.844,3.809C565.173,29.905,563.293,33.525,562.527,35.339"/>
	<path clip-path="url(#SVGID_8_)" fill="#005CA9" d="M569.402,29.833c-1.046,0.856-2.285,1.071-2.77,0.479
		c-0.483-0.59-0.028-1.763,1.019-2.619c1.045-0.856,2.285-1.07,2.769-0.48C570.904,27.806,570.448,28.978,569.402,29.833"/>
	<path clip-path="url(#SVGID_8_)" fill="#005CA9" d="M563.89,46.979c1.396,0.263,5.176,1.121,6.756,3.012
		c1.09,1.295,1.812,2.243,2.237,2.838c-0.646-0.11-1.703-0.325-3.19-0.692C567.52,51.571,566.458,48.754,563.89,46.979"/>
	<path clip-path="url(#SVGID_8_)" fill="#005CA9" d="M550.683,24.617c1.618,1.108,5.822,3.738,7.394,8.679
		c0.735,2.311,1.703,2.841,2.079,3.845c-0.748-0.495-1.971-1.356-3.675-2.65C553.999,32.562,551.532,26.779,550.683,24.617"/>
	<path clip-path="url(#SVGID_8_)" fill="#005CA9" d="M555.737,39.332c-1.17-0.785-1.759-1.958-1.313-2.618
		c0.442-0.663,1.75-0.561,2.921,0.224c1.171,0.786,1.759,1.958,1.314,2.619C558.215,40.219,556.907,40.118,555.737,39.332"/>
	<path clip-path="url(#SVGID_8_)" fill="#005CA9" d="M547.314,44.482c1.432-0.952,4.514-3.662,9.237-2.489
		c1.958,0.486,2.914-0.679,3.826-0.593c-0.649,0.448-1.75,1.157-3.355,2.106C554.647,44.873,549.29,44.635,547.314,44.482"/>
	<path clip-path="url(#SVGID_8_)" fill="#005CA9" d="M607.746,38.572c-1.211,0.483-4.522,1.651-6.307,0.703
		c-1.229-0.647-2.067-1.161-2.569-1.496c0.556-0.233,1.477-0.584,2.788-1.016C603.582,36.158,606.643,37.878,607.746,38.572"/>
	<path clip-path="url(#SVGID_8_)" fill="#005CA9" d="M520.572,55.316c-1.702-0.247-2.971-1.229-2.829-2.191
		c0.14-0.964,1.634-1.542,3.337-1.294s2.971,1.229,2.828,2.191C523.77,54.986,522.276,55.565,520.572,55.316"/>
	<path clip-path="url(#SVGID_8_)" fill="#005CA9" d="M601.02,35.599c-1.365-0.329-2.332-1.178-2.159-1.896
		c0.173-0.72,1.419-1.036,2.785-0.708c1.364,0.329,2.332,1.177,2.158,1.897C603.632,35.611,602.385,35.927,601.02,35.599"/>
	<path clip-path="url(#SVGID_8_)" fill="#005CA9" d="M614.12,57.144c-1.423-1.188-5.238-4.133-5.504-7.619
		c-0.192-2.52-0.336-3.592-0.361-4.508c0.666,0.536,2.002,1.134,3.177,2.812C613.323,50.529,614.021,55.165,614.12,57.144"/>
	<path clip-path="url(#SVGID_8_)" fill="#005CA9" d="M618.819,49.16c-1.253-0.077-4.631-0.419-5.923-1.968
		c-0.894-1.062-1.477-1.849-1.818-2.344c0.579,0.025,1.526,0.096,2.854,0.259C615.869,45.37,618.056,48.108,618.819,49.16"/>
	<path clip-path="url(#SVGID_8_)" fill="#005CA9" d="M615.236,52.748c-0.947-1.039-1.271-2.283-0.725-2.781
		c0.547-0.498,1.757-0.06,2.703,0.978c0.944,1.037,1.27,2.283,0.723,2.781C617.392,54.224,616.182,53.786,615.236,52.748"/>
	<path clip-path="url(#SVGID_8_)" fill="#005CA9" d="M564.064,36.187c1.098-1.346,4.224-4.914,7.209-5.643
		c2.051-0.508,3.509-0.798,4.406-0.952c-0.494,0.627-1.059,1.786-2.604,3.029C570.302,34.849,568.002,34.157,564.064,36.187"/>
	<path clip-path="url(#SVGID_8_)" fill="#005CA9" d="M600.631,49.163c-0.98,0.901-2.327,3.255-5.711,2.908
		c-1.383-0.142-2.335-0.42-2.921-0.574c0.446-0.425,1.195-1.094,2.289-1.981C595.9,48.244,599.359,48.865,600.631,49.163"/>
	<path clip-path="url(#SVGID_8_)" fill="#005CA9" d="M598.573,48.251c-1.377-0.281-2.372-1.096-2.224-1.82
		c0.147-0.724,1.384-1.084,2.76-0.802c1.374,0.28,2.371,1.095,2.223,1.82C601.185,48.173,599.948,48.532,598.573,48.251"/>
	<path clip-path="url(#SVGID_8_)" fill="#005CA9" d="M636.003,81.856c1.705,0.322,5.656-0.025,8.396,3.642
		c1.247,1.666,2.38,2.699,2.943,3.413c-0.785-0.135-2.076-0.396-3.9-0.846C640.777,87.377,637.255,83.379,636.003,81.856"/>
	<path clip-path="url(#SVGID_8_)" fill="#005CA9" d="M637.141,87.861c-0.814-1.077-0.981-2.325-0.373-2.785
		c0.609-0.461,1.765,0.039,2.578,1.117c0.816,1.078,0.981,2.325,0.374,2.785C639.11,89.439,637.955,88.938,637.141,87.861"/>
	<path clip-path="url(#SVGID_8_)" fill="#005CA9" d="M634.974,82.938c0.335,1.537,1.067,5.713-0.415,7.649
		c-1.013,1.336-1.79,2.231-2.29,2.763c-0.167-0.707-0.207-1.915-0.658-3.52C630.605,86.258,633.927,84.117,634.974,82.938"/>
	<path clip-path="url(#SVGID_8_)" fill="#005CA9" d="M637.853,77.203c-0.812-1.249-2.919-4.744-2.838-7.432
		c0.05-1.847,0.141-3.145,0.217-3.937c0.382,0.568,1.784,1.666,2.595,3.065C638.992,70.967,637.984,75.484,637.853,77.203"/>
	<path clip-path="url(#SVGID_8_)" fill="#005CA9" d="M635.755,78.052c-1.21,0.482-4.522,1.651-6.307,0.702
		c-1.229-0.645-2.067-1.16-2.569-1.495c0.556-0.233,1.477-0.584,2.787-1.017C631.59,75.638,634.649,77.358,635.755,78.052"/>
	<path clip-path="url(#SVGID_8_)" fill="#005CA9" d="M628.512,74.308c-1.366-0.329-2.332-1.177-2.159-1.896
		c0.173-0.719,1.42-1.035,2.784-0.707c1.365,0.328,2.333,1.177,2.16,1.896C631.124,74.32,629.876,74.636,628.512,74.308"/>
	<path clip-path="url(#SVGID_8_)" fill="#005CA9" d="M649.408,78.227c-1.372,0.3-2.611-0.041-2.77-0.763
		c-0.159-0.722,0.824-1.551,2.195-1.852c1.371-0.302,2.612,0.04,2.771,0.762C651.764,77.096,650.78,77.925,649.408,78.227"/>
	<path clip-path="url(#SVGID_8_)" fill="#005CA9" d="M641.425,76.923c1.032-1.927,4.464-6.241,7.524-8.33
		c2.099-1.432,4.104-1.415,5.168-1.71c-0.46,0.896-0.6,1.48-2.295,3.256C647.784,74.373,643.705,76.237,641.425,76.923"/>
	<path clip-path="url(#SVGID_8_)" fill="#005CA9" d="M641.939,78.392c1.592-0.091,4.699-0.928,7.197,2.686
		c0.966,1.397,2.343,1.093,2.796,1.677c-0.735,0.055-1.939,0.105-3.629,0.098C645.838,82.809,642.952,79.627,641.939,78.392"/>
	<path clip-path="url(#SVGID_8_)" fill="#005CA9" d="M520.71,45.021c1.262,0.908,4.767,1.271,5.314,6.123
		c0.204,1.807,0.772,3.069,0.924,3.856c-0.588-0.406-1.536-1.111-2.841-2.166C522.215,51.264,521.07,46.718,520.71,45.021"/>
	<path clip-path="url(#SVGID_8_)" fill="#005CA9" d="M530.621,51.75c-0.497,1.256-1.476,2.047-2.188,1.766
		c-0.709-0.28-0.882-1.527-0.385-2.783c0.497-1.257,1.477-2.047,2.186-1.767C530.945,49.248,531.117,50.495,530.621,51.75"/>
	<path clip-path="url(#SVGID_8_)" fill="#005CA9" d="M528.626,55.101c0.959-0.788,3.589-3.522,5.834-2.907
		c1.357,0.372,2.557-0.031,3.203-0.005c-0.435,0.37-1.171,0.959-2.251,1.753C533.812,55.087,530.027,55.133,528.626,55.101"/>
	<path clip-path="url(#SVGID_8_)" fill="#005CA9" d="M521.721,56.588c0.665-0.382,2.5-1.342,3.62-0.939
		c0.771,0.275,1.303,0.504,1.624,0.658c-0.305,0.183-1.008,0.211-1.54,0.826C523.919,58.875,522.423,56.9,521.721,56.588"/>
	<path clip-path="url(#SVGID_8_)" fill="#005CA9" d="M541.94,63.121c0.924-1.07,3.432-4.815,5.723-3.828
		c1.384,0.597,2.57,0.084,3.222,0.156c-0.418,0.503-1.129,1.301-2.176,2.372C547.157,63.364,543.352,63.238,541.94,63.121"/>
	<path clip-path="url(#SVGID_8_)" fill="#005CA9" d="M543.153,59.859c-0.255,1.185-1.005,2.03-1.675,1.885
		c-0.671-0.143-1.007-1.221-0.752-2.407s1.006-2.031,1.676-1.887C543.072,57.595,543.409,58.673,543.153,59.859"/>
	<path clip-path="url(#SVGID_8_)" fill="#005CA9" d="M536.017,57.435c1.021,0.523,4.028,0.495,4.12,3.779
		c0.034,1.223,0.427,2.043,0.495,2.572c-0.477-0.232-1.243-0.641-2.288-1.261C536.827,61.597,536.196,58.57,536.017,57.435"/>
	<path clip-path="url(#SVGID_8_)" fill="#005CA9" d="M520.844,69.87c1.197-0.889,2.438-3.767,7.261-3.308
		c1.795,0.17,3.157-0.068,3.957-0.046c-0.542,0.416-1.463,1.081-2.812,1.978C527.252,69.787,522.572,69.888,520.844,69.87"/>
	<path clip-path="url(#SVGID_8_)" fill="#005CA9" d="M527.328,63.216c0.766-0.064,2.833-0.152,3.677,0.689
		c0.582,0.576,0.966,1.01,1.191,1.285c-0.354,0.036-1.003-0.238-1.747,0.093C528.348,66.22,527.832,63.798,527.328,63.216"/>
	<path clip-path="url(#SVGID_8_)" fill="#005CA9" d="M532.933,66.25c1.021,0.523,4.028,0.495,4.119,3.779
		c0.034,1.223,0.427,2.043,0.496,2.572c-0.477-0.233-1.243-0.641-2.289-1.261C533.743,70.414,533.111,67.386,532.933,66.25"/>
	<path clip-path="url(#SVGID_8_)" fill="#005CA9" d="M532.542,70.693c-0.256,1.186-1.006,2.03-1.677,1.886
		c-0.67-0.144-1.006-1.222-0.751-2.408s1.006-2.03,1.675-1.886C532.46,68.429,532.796,69.507,532.542,70.693"/>
	<path clip-path="url(#SVGID_8_)" fill="#005CA9" d="M618.655,85.765c-1.614-0.391-6.013-1.607-8.168-3.793
		c-1.485-1.499-2.486-2.592-3.084-3.274c0.743,0.168,2.66,0.005,4.396,0.516C614.344,79.993,617.335,84.307,618.655,85.765"/>
	<path clip-path="url(#SVGID_8_)" fill="#005CA9" d="M616.324,80.31c-0.244-1.383,0.146-2.608,0.875-2.737
		c0.728-0.129,1.517,0.887,1.762,2.27c0.245,1.383-0.146,2.609-0.875,2.737C617.358,82.709,616.569,81.691,616.324,80.31"/>
	<path clip-path="url(#SVGID_8_)" fill="#005CA9" d="M624.641,77.776c-0.17,1.292-0.77,4.751-2.47,5.845
		c-1.164,0.757-2.021,1.236-2.56,1.511c0.067-0.599,0.211-1.574,0.475-2.928C620.499,80.23,623.494,78.401,624.641,77.776"/>
	<path clip-path="url(#SVGID_8_)" fill="#005CA9" d="M603.762,63.228c1.287,0.583,5.592,1.924,5.296,4.4
		c-0.179,1.496,0.648,2.49,0.766,3.134c-0.601-0.259-1.568-0.714-2.893-1.413C605.01,68.3,604.05,64.613,603.762,63.228"/>
	<path clip-path="url(#SVGID_8_)" fill="#005CA9" d="M605.228,62.566c0.896-0.713,2.115-3.464,5.144-2.19
		c1.127,0.475,2.037,0.455,2.546,0.611c-0.408,0.338-1.096,0.868-2.094,1.563C609.353,63.548,606.334,62.874,605.228,62.566"/>
	<path clip-path="url(#SVGID_8_)" fill="#005CA9" d="M610.821,64.066c1.091,0.53,1.733,1.459,1.434,2.076
		c-0.298,0.617-1.426,0.687-2.518,0.158c-1.091-0.529-1.733-1.458-1.435-2.075C608.602,63.608,609.729,63.537,610.821,64.066"/>
	<path clip-path="url(#SVGID_8_)" fill="#005CA9" d="M576.279,53.194c0.556,1.003,3.066,2.659,1.309,5.435
		c-0.653,1.033-0.785,1.934-1.023,2.41c-0.264-0.458-0.674-1.225-1.195-2.324C574.629,57.1,575.794,54.235,576.279,53.194"/>
	<path clip-path="url(#SVGID_8_)" fill="#005CA9" d="M581.428,58.285c-0.83,0.884-1.908,1.222-2.408,0.752
		c-0.5-0.468-0.234-1.566,0.597-2.451c0.83-0.884,1.908-1.221,2.407-0.752C582.524,56.303,582.258,57.4,581.428,58.285"/>
	<path clip-path="url(#SVGID_8_)" fill="#005CA9" d="M577.87,60.927c1.199-0.748,4.704-3.583,6.6-1.961
		c1.145,0.979,2.43,0.842,3.031,1.103c-0.549,0.356-1.464,0.908-2.781,1.621C582.782,62.705,579.182,61.456,577.87,60.927"/>
	<path clip-path="url(#SVGID_8_)" fill="#005CA9" d="M599.695,36.772c-1.8-0.212-5.858-0.969-8.718-3.275
		c-1.65-1.329-2.349-2.734-2.9-3.462c0.831,0.083,2.252-0.274,4.112,0.603C595.694,32.292,598.467,35.223,599.695,36.772"/>
	<path clip-path="url(#SVGID_8_)" fill="#005CA9" d="M594.863,23.198c1.102,0.886,4.936,3.258,4.03,5.582
		c-0.546,1.404,0.008,2.572-0.041,3.226c-0.518-0.4-1.34-1.082-2.448-2.09C594.807,28.422,594.797,24.613,594.863,23.198"/>
	<path clip-path="url(#SVGID_8_)" fill="#005CA9" d="M590.838,28.432c-0.871-1.101-1.107-2.365-0.527-2.824
		c0.579-0.459,1.756,0.062,2.627,1.163c0.871,1.1,1.108,2.365,0.528,2.825C592.887,30.054,591.71,29.534,590.838,28.432"/>
	<path clip-path="url(#SVGID_8_)" fill="#005CA9" d="M641.006,75.911c-0.646-1.136-2.263-4.269-1.564-6.173
		c0.475-1.31,0.871-2.215,1.135-2.76c0.309,0.521,0.783,1.386,1.395,2.632C642.834,71.439,641.545,74.719,641.006,75.911"/>
	<path clip-path="url(#SVGID_8_)" fill="#005CA9" d="M544.217,35.553c1.374-0.328,5.599-1.904,6.881,0.235
		c0.775,1.292,2.037,1.57,2.523,2.009c-0.633,0.164-1.677,0.397-3.151,0.654C548.31,38.798,545.294,36.472,544.217,35.553"/>
	<path clip-path="url(#SVGID_8_)" fill="#005CA9" d="M528.389,60.762c-1.637,0.556-5.628,1.601-9.087,0.972
		c-2.085-0.378-3.407-1.155-4.252-1.493c0.748-0.268,1.797-1.024,3.798-1.179C523.16,58.73,526.545,60.065,528.389,60.762"/>
	<path clip-path="url(#SVGID_8_)" fill="#005CA9" d="M531.328,49.59c0.449-1.938,3.071-6.341,5.816-7.753
		c1.881-0.979,2.056-2.352,2.914-2.69c-0.191,0.9-0.553,2.36-1.153,4.382C537.986,46.469,533.162,48.811,531.328,49.59"/>
	<path clip-path="url(#SVGID_8_)" fill="#005CA9" d="M529.056,39.565c0.284,0.966,1.903,2.51,0.316,5.285
		c-0.591,1.032-0.788,1.918-1.015,2.393c-0.139-0.442-0.346-1.18-0.595-2.24C527.415,43.444,528.585,40.602,529.056,39.565"/>
	<path clip-path="url(#SVGID_8_)" fill="#005CA9" d="M558.262,27.38c-1.048-0.774-3.784-2.975-3.918-4.992
		c-0.097-1.384-0.102-2.367-0.081-2.971c0.491,0.349,1.274,0.947,2.331,1.834C558.121,22.568,558.271,26.075,558.262,27.38"/>
	<path clip-path="url(#SVGID_8_)" fill="#005CA9" d="M554.803,72.754c-0.35-1.255-1.152-4.674-0.018-6.346
		c0.775-1.151,1.377-1.929,1.765-2.392c0.172,0.578,0.421,1.53,0.709,2.881C557.651,68.874,555.612,71.732,554.803,72.754"/>
	<path clip-path="url(#SVGID_8_)" fill="#005CA9" d="M623.42,99.359c-1.206,0.493-4.508,1.69-6.301,0.758
		c-1.234-0.637-2.076-1.143-2.582-1.475c0.554-0.236,1.471-0.596,2.779-1.039C619.232,96.982,622.31,98.676,623.42,99.359"/>
	<path clip-path="url(#SVGID_8_)" fill="#005CA9" d="M613.631,107.01c-0.633-1.254-0.611-2.54,0.047-2.873
		c0.66-0.335,1.709,0.411,2.343,1.664s0.612,2.539-0.048,2.874C615.313,109.009,614.265,108.262,613.631,107.01"/>
	<path clip-path="url(#SVGID_8_)" fill="#005CA9" d="M612.657,100.644c1.403,0.179,5.167,0.815,6.363,2.658
		c0.827,1.262,1.352,2.191,1.653,2.775c-0.651-0.069-0.951-0.358-2.426-0.64C616.102,104.998,613.341,101.886,612.657,100.644"/>
	<path clip-path="url(#SVGID_8_)" fill="#005CA9" d="M611.696,101.329c0.246,1.41,1.251,3.945-1.35,7.392
		c-1.005,1.333-0.611,2.479-1.026,3.08c-0.125-0.646-0.296-1.719-0.477-3.249C608.61,106.306,610.826,102.651,611.696,101.329"/>
	<path clip-path="url(#SVGID_8_)" fill="#005CA9" d="M594.9,97.328c0.536-1.309,1.721-5.658,4.206-5.452
		c1.502,0.125,2.464-0.738,3.104-0.878c-0.237,0.609-0.656,1.593-1.308,2.941C599.925,95.896,596.276,96.989,594.9,97.328"/>
	<path clip-path="url(#SVGID_8_)" fill="#005CA9" d="M595.013,93.849c0.136,1.205-0.307,2.245-0.989,2.322
		c-0.68,0.076-1.342-0.839-1.478-2.044s0.306-2.245,0.987-2.321C594.215,91.729,594.877,92.644,595.013,93.849"/>
	<path clip-path="url(#SVGID_8_)" fill="#005CA9" d="M587.476,93.824c1.134,0.17,3.976-0.813,5.108,2.271
		c0.421,1.147,1.056,1.801,1.289,2.28c-0.526-0.07-1.382-0.212-2.572-0.467C589.569,97.512,588.007,94.844,587.476,93.824"/>
	<path clip-path="url(#SVGID_8_)" fill="#005CA9" d="M545.45,79.557c-0.026,0.037-3.229,4.447-4.97,4.321
		c-1.421-0.103-2.493,0.581-3.133,0.689c0.331-0.484,0.902-1.264,1.759-2.334C540.38,80.681,544.072,79.822,545.45,79.557"/>
	<path clip-path="url(#SVGID_8_)" fill="#005CA9" d="M515.592,107.113c0.333-1.537,0.864-5.994,2.811-8.246
		c1.334-1.551,2.822-2.357,3.431-2.992c-0.142,0.706-0.39,1.869-0.852,3.544C520.308,101.861,516.89,105.722,515.592,107.113"/>
	<path clip-path="url(#SVGID_8_)" fill="#005CA9" d="M517.08,97.047c-1.297,0.377-2.522,0.09-2.735-0.645
		c-0.214-0.732,0.664-1.634,1.962-2.012c1.297-0.378,2.522-0.089,2.735,0.644C519.256,95.768,518.377,96.669,517.08,97.047"/>
	<path clip-path="url(#SVGID_8_)" fill="#005CA9" d="M512.711,88.523c1.264,0.323,5.291,0.848,5.847,3.171
		c0.334,1.402,1.348,2.179,1.654,2.752c-0.586-0.14-1.541-0.397-2.873-0.822C515.396,92.977,513.399,89.749,512.711,88.523"/>
	<path clip-path="url(#SVGID_8_)" fill="#005CA9" d="M510.922,84.225c1.96-0.428,7.315-1.375,10.069,0.407
		c1.897,1.219,3.184,2.154,3.954,2.756c-0.899,0.215-2.524-0.952-4.642-0.623C517.199,87.206,512.616,85.484,510.922,84.225"/>
	<path clip-path="url(#SVGID_8_)" fill="#005CA9" d="M529.913,103.399c-0.862-1.425-3.742-5.724-3.049-8.481
		c0.569-2.268,0.108-3.591,0.176-4.495c0.406,0.647,1.049,1.739,1.91,3.337C530.191,96.119,530.03,101.438,529.913,103.399"/>
	<path clip-path="url(#SVGID_8_)" fill="#005CA9" d="M536.505,91.936c-1.3,0.285-4.827,0.91-6.397-0.363
		c-1.084-0.869-1.807-1.538-2.235-1.967c0.6-0.142,1.584-0.344,2.975-0.559C532.879,88.759,535.556,91.036,536.505,91.936"/>
	<path clip-path="url(#SVGID_8_)" fill="#005CA9" d="M531.439,95.368c-0.715-0.785-0.96-1.728-0.546-2.104
		c0.413-0.376,1.328-0.045,2.043,0.74c0.715,0.784,0.961,1.726,0.547,2.103C533.07,96.485,532.155,96.153,531.439,95.368"/>
	<path clip-path="url(#SVGID_8_)" fill="#005CA9" d="M522.819,81.365c0.659,1.019,0.727,2.146,0.151,2.518
		c-0.575,0.374-1.576-0.15-2.235-1.168s-0.728-2.146-0.151-2.518C521.16,79.824,522.16,80.347,522.819,81.365"/>
	<path clip-path="url(#SVGID_8_)" fill="#005CA9" d="M525.313,86.418c-0.031-0.987-1.15-2.786,0.966-5.166
		c0.787-0.886,1.18-1.704,1.501-2.119c0.021,0.452,0.036,1.204,0.012,2.276C527.741,82.981,525.991,85.506,525.313,86.418"/>
	<path clip-path="url(#SVGID_8_)" fill="#005CA9" d="M518.122,88.143c0.643-0.283,2.421-0.982,3.548-0.61
		c0.776,0.254,1.312,0.463,1.638,0.599c-0.294,0.136,0.482,0.191-0.02,0.668C521.869,90.147,518.83,88.424,518.122,88.143"/>
	<path clip-path="url(#SVGID_8_)" fill="#005CA9" d="M545.027,83.09c-0.018-1.213,0.525-2.205,1.211-2.213
		c0.685-0.01,1.256,0.965,1.271,2.178c-0.003-0.109-0.507,2.203-1.212,2.213C545.613,85.278,545.045,84.302,545.027,83.09"/>
	<path clip-path="url(#SVGID_8_)" fill="#005CA9" d="M552.597,83.313c-0.945-0.393-3.257-0.099-4.313-3.125
		c-0.393-1.127-0.942-1.85-1.154-2.333c0.438,0.173,1.152,0.481,2.146,0.962C550.723,79.54,552.117,82.279,552.597,83.313"/>
	<path clip-path="url(#SVGID_8_)" fill="#005CA9" d="M537.558,55.437c1.044-1.498,4.036-5.459,7.037-6.142
		c2.061-0.477,3.53-0.735,4.436-0.864c-0.47,0.698-0.832,2.14-2.489,3.363C543.124,54.319,541.455,53.3,537.558,55.437"/>
	<path clip-path="url(#SVGID_8_)" fill="#005CA9" d="M515.426,67.072c0.725-0.7,1.342-2.849,4.536-2.73
		c1.188,0.045,2.065-0.19,2.592-0.209c-0.328,0.328-0.887,0.852-1.71,1.564C519.622,66.728,516.562,67.008,515.426,67.072"/>
	<path clip-path="url(#SVGID_8_)" fill="#005CA9" d="M599.342,85.772c2.048-0.607,7.633-2.018,10.36-0.181
		c1.879,1.253,3.146,2.228,3.903,2.857c-0.942,0.3-2.544-0.912-4.749-0.404C605.626,88.74,601.009,87.085,599.342,85.772"/>
	<path clip-path="url(#SVGID_8_)" fill="#005CA9" d="M623.497,90.305c1.303,1.115,4.755,4.289,5.487,7.272
		c0.509,2.05,0.804,3.505,0.961,4.4c-0.606-0.502-1.627-1.26-2.93-2.644C624.422,96.578,625.486,94.258,623.497,90.305"/>
	<path clip-path="url(#SVGID_8_)" fill="#005CA9" d="M538.07,28.759c1.877-0.259,6.137-0.919,9.797,0.959
		c2.009,1.032,3.217,2.084,4.001,2.658c-0.86,0.136-2.507-0.987-4.542-0.824C544.34,31.756,539.789,29.967,538.07,28.759"/>
	<path clip-path="url(#SVGID_8_)" fill="#005CA9" d="M546.159,26.274c-0.738-1.201-0.786-2.512-0.107-2.928
		c0.679-0.418,1.826,0.218,2.564,1.419c0.737,1.2,0.785,2.512,0.106,2.928C548.044,28.111,546.896,27.476,546.159,26.274"/>
	<path clip-path="url(#SVGID_8_)" fill="#005CA9" d="M510.475,55.326c1.014-0.29,3.775-0.958,5.134-0.049
		c0.937,0.621,1.568,1.103,1.945,1.414c-0.465,0.143-1.265-0.457-2.354-0.217C513.601,56.803,511.307,55.975,510.475,55.326"/>
	<path clip-path="url(#SVGID_8_)" fill="#005CA9" d="M549.371,55.251c1.461-0.572,4.193-2.089,8.49-1.67
		c2.043,0.199,3.451,0.454,4.316,0.603c-0.664,0.271-1.785,0.694-3.413,1.248C556.361,56.223,551.251,55.548,549.371,55.251"/>
	<path clip-path="url(#SVGID_8_)" fill="#005CA9" d="M559.306,72.577c-1.083,0.546-2.212,0.494-2.521-0.12
		c-0.31-0.611,0.318-1.549,1.4-2.096c1.083-0.547,2.212-0.495,2.521,0.117C561.016,71.091,560.388,72.03,559.306,72.577"/>
	<path clip-path="url(#SVGID_8_)" fill="#005CA9" d="M520.348,50.473c-1.535-0.381-5.002-2.519-6.09-4.717
		c-0.755-1.508-1.845-1.663-2.103-2.35c0.714,0.164,1.869,0.468,3.468,0.971C517.948,45.143,519.75,49.005,520.348,50.473"/>
	<path clip-path="url(#SVGID_8_)" fill="#005CA9" d="M619.566,79.604c-0.088-1.299-0.184-4.81,1.266-6.218
		c0.992-0.971,1.738-1.611,2.212-1.986c0.052,0.6,0.104,1.584,0.111,2.964C623.142,76.381,620.566,78.766,619.566,79.604"/>
	<path clip-path="url(#SVGID_8_)" fill="#005CA9" d="M622.562,60.523c1.614,0.697,5.888,2.753,6.682,5.365
		c0.553,1.791,0.858,3.083,1.017,3.884c-0.753-0.309-1.521-1.182-3.173-2.049C624.676,66.458,622.948,62.241,622.562,60.523"/>
	<path clip-path="url(#SVGID_8_)" fill="#005CA9" d="M631.681,65.89c-0.099-1.303-0.218-4.827,1.229-6.249
		c0.988-0.981,1.733-1.629,2.205-2.009c0.057,0.603,0.115,1.589,0.134,2.976C635.247,62.63,632.678,65.042,631.681,65.89"/>
	<path clip-path="url(#SVGID_8_)" fill="#005CA9" d="M627.951,61.855c-0.288-1.32,0.083-2.523,0.828-2.685
		c0.747-0.164,1.586,0.775,1.873,2.094c0.289,1.321-0.084,2.523-0.829,2.686C629.078,64.113,628.238,63.175,627.951,61.855"/>
	<path clip-path="url(#SVGID_8_)" fill="#005CA9" d="M638.962,99.31c-0.961-1.18-3.899-4.279-3.466-6.601
		c0.291-1.596,1.049-2.891,1.247-3.568c0.455,0.536,0.571,1.631,1.51,2.941C639.601,94.016,639.35,97.836,638.962,99.31"/>
	<path clip-path="url(#SVGID_8_)" fill="#005CA9" d="M550.565,14.889c0.186,0.937,1.437,2.375-0.009,5.19
		c-0.54,1.047-0.748,1.93-0.96,2.409c-0.091-0.428-0.223-1.144-0.373-2.176C549.018,18.794,550.126,15.933,550.565,14.889"/>
	<path clip-path="url(#SVGID_8_)" fill="#005CA9" d="M643.304,60.412c0.504,1.03,2.931,2.807,1.039,5.493
		c-0.705,1-0.882,1.893-1.144,2.357c-0.241-0.471-0.612-1.257-1.078-2.38C641.461,64.232,642.768,61.429,643.304,60.412"/>
	<path clip-path="url(#SVGID_8_)" fill="#005CA9" d="M627.314,39.398c-1.08,0.386-1.829,2.635-5.575,0.42
		c-1.053-0.623-1.782-1.086-2.214-1.398c0.495-0.188,1.317-0.469,2.485-0.806C623.724,37.143,626.364,38.752,627.314,39.398"/>
	<path clip-path="url(#SVGID_8_)" fill="#005CA9" d="M626.47,50.821c-1.284-0.305-3.739,0.415-6.604-2.955
		c-1.066-1.255-2.087-2.012-2.592-2.542c0.589,0.131,1.568,0.375,2.956,0.776C622.267,46.709,625.358,49.69,626.47,50.821"/>
	<path clip-path="url(#SVGID_8_)" fill="#005CA9" d="M625.449,46.871c-1.404-0.038-2.525-0.667-2.506-1.407
		c0.02-0.739,1.175-1.307,2.579-1.269c1.402,0.038,2.525,0.668,2.505,1.407C628.008,46.34,626.854,46.909,625.449,46.871"/>
	<path clip-path="url(#SVGID_8_)" fill="#005CA9" d="M560.225,68.89c2.036-0.583,7.588-1.927,10.319-0.098
		c1.876,1.256,3.152,2.217,3.909,2.843c-0.935,0.288-2.541-0.919-4.732-0.437C566.508,71.857,561.896,70.196,560.225,68.89"/>
	<path clip-path="url(#SVGID_8_)" fill="#005CA9" d="M569.97,63.676c0.989,0.581,3.994,0.725,3.896,4.009
		c-0.036,1.222,0.311,2.065,0.349,2.596c-0.463-0.26-1.205-0.711-2.214-1.39C570.54,67.879,570.083,64.82,569.97,63.676"/>
	<path clip-path="url(#SVGID_8_)" fill="#005CA9" d="M523.86,74.975c1.947-0.41,7.045,0.109,9.483,2.002
		c1.681,1.294,2.999,0.873,3.668,1.508c-0.896,0.207-2.373,0.495-4.46,0.803C529.499,79.696,525.342,76.309,523.86,74.975"/>
	<path clip-path="url(#SVGID_8_)" fill="#005CA9" d="M601.634,71.857c2.116-0.089,7.827-0.098,10.056,2.319
		c1.537,1.653,2.546,2.892,3.137,3.679c-0.978,0.06-2.256-1.489-4.501-1.533C607.049,76.212,602.953,73.519,601.634,71.857"/>
	<path clip-path="url(#SVGID_8_)" fill="#005CA9" d="M616.059,67.906c0.504,1.029,2.93,2.807,1.039,5.493
		c-0.706,1-0.882,1.892-1.143,2.357c-0.242-0.472-0.613-1.258-1.079-2.38C614.216,71.725,615.522,68.922,616.059,67.906"/>
	<path clip-path="url(#SVGID_8_)" fill="#005CA9" d="M618.289,64.531c1.143,0.091,3.91-1.089,5.255,1.908
		c0.501,1.116,1.179,1.723,1.444,2.185c-0.528-0.032-1.395-0.114-2.596-0.287C620.635,68.064,618.89,65.51,618.289,64.531"/>
	<path clip-path="url(#SVGID_8_)" fill="#005CA9" d="M584.484,21.841c1.614-0.721,5.867-2.979,8.968-2.339
		c2.133,0.434,3.85,1.249,4.753,1.499c-0.735,0.343-2.209,0.325-3.997,1.012C591.571,22.991,586.45,22.347,584.484,21.841"/>
	<path clip-path="url(#SVGID_8_)" fill="#005CA9" d="M579.84,21.898c-1.504-0.83-4.844-2.797-6.847-6.021
		c-1.119-1.8-1.484-3.276-1.815-4.123c0.696,0.371,1.873,0.829,3.41,2C576.886,15.503,579.087,20.078,579.84,21.898"/>
	<path clip-path="url(#SVGID_8_)" fill="#005CA9" d="M585.449,20.036c-1.157,1.272-2.683,1.772-3.399,1.116
		c-0.721-0.655-0.362-2.217,0.796-3.489c1.16-1.272,2.683-1.771,3.401-1.116C586.967,17.202,586.609,18.764,585.449,20.036"/>
	<path clip-path="url(#SVGID_8_)" fill="#005CA9" d="M580.862,25.932c-1.136,0.639-2.992,1.89-6.158,1.532
		c-1.379-0.156-2.202-0.876-2.744-1.142c0.521-0.305,1.386-0.775,2.628-1.376C576.415,24.092,579.676,25.39,580.862,25.932"/>
	<path clip-path="url(#SVGID_8_)" fill="#005CA9" d="M576.411,24.11c-1.305-0.35-2.202-1.232-2.004-1.97
		c0.197-0.738,1.416-1.051,2.722-0.701c1.304,0.351,2.202,1.234,2.003,1.97C578.934,24.148,577.716,24.461,576.411,24.11"/>
	<path clip-path="url(#SVGID_8_)" fill="#005CA9" d="M577.511,32.8c-1.242-1.19-1.703-2.728-1.028-3.428
		c0.672-0.703,2.226-0.305,3.466,0.886c1.243,1.191,1.704,2.727,1.029,3.427C580.306,34.389,578.753,33.991,577.511,32.8"/>
	<path clip-path="url(#SVGID_8_)" fill="#005CA9" d="M584.861,24.835c0.301,1.419,2.214,3.558,0.117,7.898
		c-0.781,1.617-1.072,2.969-1.375,3.706c-0.148-0.647-0.364-1.733-0.615-3.296C582.641,30.839,584.229,26.442,584.861,24.835"/>
	<path clip-path="url(#SVGID_8_)" fill="#005CA9" d="M587.761,35.736c-1.135,0.734-2.392,0.809-2.805,0.168
		c-0.415-0.641,0.169-1.756,1.303-2.49c1.135-0.734,2.391-0.809,2.806-0.168C589.479,33.888,588.896,35.003,587.761,35.736"/>
	<path clip-path="url(#SVGID_8_)" fill="#005CA9" d="M581.596,11c0.504,1.03,2.931,2.807,1.039,5.494
		c-0.705,0.999-0.881,1.892-1.143,2.356c-0.242-0.472-0.612-1.257-1.078-2.38C579.754,14.82,581.06,12.017,581.596,11"/>
	<path clip-path="url(#SVGID_8_)" fill="#005CA9" d="M582.522,47.36c1.564-0.643,5.687-2.665,8.711-2.059
		c2.079,0.411,3.756,1.165,4.637,1.4c-0.713,0.306-2.146,0.279-3.882,0.889C589.428,48.46,584.439,47.835,582.522,47.36"/>
	<path clip-path="url(#SVGID_8_)" fill="#005CA9" d="M580.932,49.75c-1.199-0.936-4.358-3.603-4.807-6.134
		c-0.314-1.739-0.471-2.975-0.543-3.736c0.561,0.422,1.459,1.144,2.685,2.222C580.044,43.703,580.739,48.107,580.932,49.75"/>
	<path clip-path="url(#SVGID_8_)" fill="#005CA9" d="M585.909,44.743c-0.967,1.062-2.241,1.48-2.84,0.933
		c-0.603-0.548-0.303-1.852,0.666-2.915c0.968-1.063,2.239-1.48,2.84-0.933C587.177,42.375,586.878,43.68,585.909,44.743"/>
	<path clip-path="url(#SVGID_8_)" fill="#005CA9" d="M580.686,37.527c0.422,0.86,2.448,2.345,0.868,4.589
		c-0.589,0.835-0.736,1.581-0.955,1.969c-0.201-0.394-0.513-1.051-0.9-1.989C579.146,40.718,580.237,38.376,580.686,37.527"/>
	<path clip-path="url(#SVGID_8_)" fill="#005CA9" d="M593.889,62.964c0.083-1.421-0.172-5.777,2.11-7.148
		c1.38-0.828,1.979-2.144,2.508-2.658c-0.026,0.655-0.104,1.733-0.277,3.26C597.945,58.654,595.015,61.829,593.889,62.964"/>
	<path clip-path="url(#SVGID_8_)" fill="#005CA9" d="M592.276,59.792c0.687,0.999,0.788,2.125,0.224,2.514
		c-0.564,0.388-1.58-0.106-2.268-1.105c-0.688-0.999-0.79-2.124-0.224-2.512C590.573,58.298,591.588,58.793,592.276,59.792"/>
	<path clip-path="url(#SVGID_8_)" fill="#005CA9" d="M585.618,63.324c1.08-0.384,3.122-2.592,5.576-0.406
		c0.911,0.814,1.779,1.09,2.211,1.403c-0.497,0.186-1.318,0.464-2.488,0.801C589.203,65.589,586.567,63.972,585.618,63.324"/>
	<path clip-path="url(#SVGID_8_)" fill="#005CA9" d="M557.942,51.67c-1.17-0.785-1.76-1.958-1.314-2.618
		c0.443-0.663,1.751-0.562,2.922,0.224c1.17,0.785,1.759,1.958,1.314,2.619C560.42,52.556,559.111,52.456,557.942,51.67"/>
	<path clip-path="url(#SVGID_8_)" fill="#005CA9" d="M561.65,55.6c0.047,1.146,1.553,3.75-1.262,5.446
		c-1.047,0.632-1.567,1.379-1.993,1.699c-0.032-0.53-0.056-1.398-0.03-2.615C558.426,58.354,560.75,56.314,561.65,55.6"/>
	<path clip-path="url(#SVGID_8_)" fill="#005CA9" d="M549.304,69.337c-0.879,0.737-2.024,3.517-5.085,2.321
		c-1.14-0.446-2.049-0.403-2.562-0.546c0.399-0.347,1.074-0.895,2.053-1.617C545.154,68.461,548.189,69.06,549.304,69.337"/>
	<path clip-path="url(#SVGID_8_)" fill="#005CA9" d="M602.19,79.237c-1.325-0.759-4.413-0.747-6.22-5.453
		c-0.674-1.752-1.51-2.931-1.854-3.689c0.612,0.338,1.616,0.93,3.02,1.829C599.183,73.267,601.414,77.61,602.19,79.237"/>
	<path clip-path="url(#SVGID_8_)" fill="#005CA9" d="M592.547,75.59c-0.054-1.211,0.459-2.218,1.144-2.248
		c0.686-0.03,1.283,0.927,1.335,2.14c0.054,1.212-0.457,2.219-1.143,2.248C593.196,77.76,592.599,76.802,592.547,75.59"/>
	<path clip-path="url(#SVGID_8_)" fill="#005CA9" d="M593.08,71.113c-0.458,1.161-1.438,4.861-3.718,5.373
		c-1.376,0.311-2.235,1.242-2.817,1.523c0.201-0.538,0.562-1.415,1.125-2.639C588.518,73.585,591.831,71.748,593.08,71.113"/>
</g>
</svg>
