<?xml version="1.0" encoding="UTF-8" standalone="no"?>
<svg
   xmlns:dc="http://purl.org/dc/elements/1.1/"
   xmlns:cc="http://creativecommons.org/ns#"
   xmlns:rdf="http://www.w3.org/1999/02/22-rdf-syntax-ns#"
   xmlns:svg="http://www.w3.org/2000/svg"
   xmlns="http://www.w3.org/2000/svg"
   viewBox="0 0 600 489"
   height="489"
   width="600"
   xml:space="preserve"
   version="1.1"
   id="svg2"><metadata
     id="metadata8"><rdf:RDF><cc:Work
         rdf:about=""><dc:format>image/svg+xml</dc:format><dc:type
           rdf:resource="http://purl.org/dc/dcmitype/StillImage" /><dc:title></dc:title></cc:Work></rdf:RDF></metadata><defs
     id="defs6" /><g
     transform="matrix(1.25,0,0,-1.25,-43.02225,533.27841)"
     id="g10"><g
       transform="matrix(6.8380257,0,0,6.8380257,-3565.5901,-437.03083)"
       id="g4762"><path
         d="m 549.729,86.5316 c -0.818,-0.982 -1.889,-1.826 -3.097,-1.939 -1.209,-0.1 -2.078,0.957 -3.274,0.982 -1.196,0.025 -2.039,-1.057 -3.26,-0.944 -1.209,0.101 -2.279,0.957 -3.085,1.926 -3.11,3.702 -5.338,13.975 1.549,15.297 0.147,0.028 0.291,0.043 0.434,0.052 -0.119,0.079 -0.24,0.152 -0.357,0.24 -1.476,1.116 -2.195,2.89 -2.468,4.776 1.861,0.198 3.833,-0.038 5.284,-1.141 1.379,-1.068 2.116,-2.497 2.434,-4.219 0.174,0.595 0.359,1.191 0.568,1.774 0.099,0.286 0.546,1.663 0.868,1.688 0.398,0.024 1.464,-0.956 1.191,-1.34 -0.248,-0.36 -0.744,-0.757 -1.005,-1.067 -0.285,-0.372 -0.52,-0.794 -0.694,-1.29 -0.007,-0.02 -0.011,-0.041 -0.018,-0.061 1.088,0.307 2.116,0.805 3.382,0.563 6.886,-1.335 4.645,-11.596 1.548,-15.297 m 9.375,6.294 0.334,18.182 -32.942,1.321 0.406,-35.65 31.929,1.293 0.235,12.823 c -2.105,0.284 -3.857,1.229 -4.754,1.834 1.799,-0.229 3.365,-0.087 4.792,0.197"
         style="fill:#4dbe54;fill-opacity:1;fill-rule:nonzero;stroke:none"
         id="path66" /><path
         d="m 561.9742,93.5678 c 3.753,1.099 6.385,3.365 8.208,3.199 2.851,-0.259 1.434,-3.548 3.924,-3.405 2.263,0.131 9.886,4.583 13.991,4.583 4.064,0 2.591,-4.734 8.139,-5.256 l -0.541,20.528 -35.978,-2.388 0.445,-17.764 c 0.626,0.157 1.227,0.332 1.812,0.503"
         style="fill:#244b91;fill-opacity:1;fill-rule:nonzero;stroke:none"
         id="path68" /><path
         d="m 586.7506,88.5942 c -1.402,1.026 -5.999,0.279 -9.092,-0.676 0,0 5.761,3.243 9.098,2.875 3.338,-0.367 1.476,-2.787 7.079,-3.123 -3.555,-1.394 -5.684,-0.102 -7.085,0.924 m 6.521,1.467 c -2.274,0.232 -2.598,1.576 -3.633,2.717 -1.035,1.141 -3.398,0.985 -6.932,-0.134 -3.534,-1.119 -5.835,-2.49 -8.457,-2.956 -2.623,-0.466 -3.866,0.673 -4.959,2.026 -0.486,0.602 -1.453,0.708 -2.594,0.493 -1.427,-0.269 -3.14,-0.991 -4.698,-1.32 -0.605,-0.128 -1.2,-0.179 -1.777,-0.175 l 0.309,-12.335 36.134,-1.941 -0.365,13.857 c -0.927,-0.241 -1.944,-0.343 -3.028,-0.232"
         style="fill:#244b91;fill-opacity:1;fill-rule:nonzero;stroke:none"
         id="path70" /><g
         id="g4736"><path
           id="path72"
           style="fill:#244b91;fill-opacity:1;fill-rule:nonzero;stroke:none"
           d="m 534.6839,118.3156 1.652,-1.399 c -1.027,-1.22 -2.575,-1.994 -4.331,-1.994 -3.05,0 -5.536,2.396 -5.536,5.357 0,2.962 2.486,5.372 5.536,5.372 1.756,0 3.304,-0.788 4.331,-2.009 l -1.652,-1.398 c -0.596,0.848 -1.578,1.383 -2.679,1.383 -1.83,0 -3.333,-1.339 -3.333,-3.348 0,-1.979 1.503,-3.348 3.333,-3.348 1.101,0 2.083,0.536 2.679,1.384" /><path
           id="path74"
           style="fill:#244b91;fill-opacity:1;fill-rule:nonzero;stroke:none"
           d="m 543.6714,120.7114 c -0.506,0.432 -1.22,0.699 -1.994,0.699 -1.474,0 -2.396,-1.101 -2.396,-2.306 0,-1.221 0.937,-2.322 2.396,-2.322 0.788,0 1.488,0.253 1.994,0.685 l 0,3.244 z m 2.069,2.411 0,-8.081 -2.069,0 0,0.596 c -0.67,-0.447 -1.473,-0.715 -2.366,-0.715 -2.53,0 -4.018,2.039 -4.018,4.182 0,2.158 1.488,4.182 4.018,4.182 0.848,0 1.681,-0.269 2.366,-0.67 l 0,0.506 2.069,0 z" /><path
           id="path76"
           style="fill:#244b91;fill-opacity:1;fill-rule:nonzero;stroke:none"
           d="m 547.629,115.042 2.083,0 0,11.22 -2.083,0 0,-11.22 z" /><path
           id="path78"
           style="fill:#244b91;fill-opacity:1;fill-rule:nonzero;stroke:none"
           d="m 559.668,123.1221 -3.869,-8.08 -0.982,0 -3.884,8.08 2.172,0 2.203,-4.583 2.187,4.583 2.173,0 z" /><path
           id="path80"
           style="fill:#244b91;fill-opacity:1;fill-rule:nonzero;stroke:none"
           d="m 566.438,120.7114 c -0.506,0.432 -1.22,0.699 -1.994,0.699 -1.474,0 -2.396,-1.101 -2.396,-2.306 0,-1.221 0.937,-2.322 2.396,-2.322 0.788,0 1.488,0.253 1.994,0.685 l 0,3.244 z m 2.068,2.411 0,-8.081 -2.068,0 0,0.596 c -0.67,-0.447 -1.473,-0.715 -2.366,-0.715 -2.53,0 -4.018,2.039 -4.018,4.182 0,2.158 1.488,4.182 4.018,4.182 0.848,0 1.681,-0.269 2.366,-0.67 l 0,0.506 2.068,0 z" /><path
           id="path82"
           style="fill:#244b91;fill-opacity:1;fill-rule:nonzero;stroke:none"
           d="m 576.4379,117.4823 0,3.244 c -0.491,0.417 -1.191,0.685 -1.979,0.685 -1.384,0 -2.411,-0.997 -2.411,-2.322 0,-1.369 1.027,-2.306 2.411,-2.306 0.773,0 1.488,0.267 1.979,0.699 m 2.083,8.78 0,-11.221 -2.083,0 0,0.492 c -0.655,-0.387 -1.503,-0.626 -2.351,-0.626 -2.248,0 -4.093,1.697 -4.093,4.182 0,2.53 1.845,4.182 4.093,4.182 0.863,0 1.681,-0.238 2.351,-0.61 l 0,3.601 2.083,0 z" /><path
           id="path84"
           style="fill:#244b91;fill-opacity:1;fill-rule:nonzero;stroke:none"
           d="m 586.7644,119.0895 c 0,1.28 -1.057,2.321 -2.381,2.321 -1.31,0 -2.381,-1.041 -2.381,-2.321 0,-1.265 1.071,-2.307 2.381,-2.307 1.324,0 2.381,1.042 2.381,2.307 m 2.039,0 c 0,-2.307 -1.979,-4.167 -4.42,-4.167 -2.44,0 -4.42,1.86 -4.42,4.167 0,2.321 1.98,4.182 4.42,4.182 2.441,0 4.42,-1.861 4.42,-4.182" /><path
           id="path86"
           style="fill:#244b91;fill-opacity:1;fill-rule:nonzero;stroke:none"
           d="m 590.5735,117.2292 c 0.997,-0.432 1.756,-0.655 2.768,-0.655 0.952,0 1.324,0.357 1.324,0.774 0,0.461 -0.461,0.67 -1.711,0.937 -1.741,0.387 -3.006,0.953 -3.006,2.516 0,1.458 1.205,2.47 3.08,2.47 1.265,0 2.277,-0.298 3.155,-0.655 l -0.685,-1.518 c -0.788,0.298 -1.711,0.521 -2.514,0.521 -0.789,0 -1.191,-0.283 -1.191,-0.714 0,-0.447 0.491,-0.655 1.786,-0.923 1.875,-0.387 2.961,-1.041 2.961,-2.515 0,-1.533 -1.175,-2.544 -3.244,-2.544 -1.399,0 -2.307,0.193 -3.497,0.773 l 0.774,1.533 z" /></g><g
         id="g4746"><path
           id="path88"
           style="fill:#244b91;fill-opacity:1;fill-rule:nonzero;stroke:none"
           d="m 529.7142,69.0923 -3.245,0 0,4.789 0.744,0 0,-4.06 2.501,0 0,-0.729 z" /><path
           id="path90"
           style="fill:#244b91;fill-opacity:1;fill-rule:nonzero;stroke:none"
           d="m 534.6801,69.0923 -3.444,0 0,4.789 3.317,0 0,-0.735 -2.573,0 0,-1.359 2.2,0 0,-0.728 -2.2,0 0,-1.232 2.7,0 0,-0.735 z" /><path
           id="path92"
           style="fill:#244b91;fill-opacity:1;fill-rule:nonzero;stroke:none"
           d="m 540.1517,69.8271 0.945,0 c 0.848,0.074 1.53,0.802 1.53,1.657 0,0.917 -0.741,1.662 -1.65,1.662 l -0.825,0 0,-3.319 z m 0.971,-0.735 -1.714,0 0,4.789 1.568,0 c 1.323,0 2.4,-1.075 2.4,-2.397 0,-1.259 -0.986,-2.309 -2.245,-2.391 l -0.009,-0.001 z" /><path
           id="path94"
           style="fill:#244b91;fill-opacity:1;fill-rule:nonzero;stroke:none"
           d="m 548.4266,69.0923 -3.444,0 0,4.789 3.317,0 0,-0.735 -2.573,0 0,-1.359 2.2,0 0,-0.728 -2.2,0 0,-1.232 2.7,0 0,-0.735 z" /><path
           id="path96"
           style="fill:#244b91;fill-opacity:1;fill-rule:nonzero;stroke:none"
           d="m 550.7524,71.2915 0.975,0 c 1.145,0 1.145,0.723 1.145,0.961 0,0.593 -0.337,0.894 -1,0.894 l -1.12,0 0,-1.855 z m 0,-2.199 -0.743,0 0,4.789 1.881,0 c 1.088,0 1.737,-0.607 1.737,-1.623 0,-1.078 -0.688,-1.696 -1.888,-1.696 l -0.987,0 0,-1.47 z" /><path
           id="path98"
           style="fill:#244b91;fill-opacity:1;fill-rule:nonzero;stroke:none"
           d="m 555.8333,71.0434 1.466,0 -0.737,1.659 -0.729,-1.659 z m 3.131,-1.951 -0.806,0 -0.549,1.234 -2.09,0 -0.543,-1.234 -0.814,0 2.152,4.789 0.505,0 2.145,-4.789 z" /><path
           id="path100"
           style="fill:#244b91;fill-opacity:1;fill-rule:nonzero;stroke:none"
           d="m 560.9734,71.2915 0.987,0 c 1.144,0 1.144,0.723 1.144,0.961 0,0.593 -0.334,0.894 -0.993,0.894 l -1.138,0 0,-1.855 z m 3.26,-2.199 -0.928,0 -1.083,1.478 c -0.085,-0.005 -0.171,-0.008 -0.256,-0.008 l -0.993,0 0,-1.47 -0.743,0 0,4.789 1.893,0 c 1.088,0 1.737,-0.607 1.737,-1.623 0,-0.715 -0.304,-1.235 -0.864,-1.497 l 1.237,-1.669 z" /><path
           id="path102"
           style="fill:#244b91;fill-opacity:1;fill-rule:nonzero;stroke:none"
           d="m 567.5247,69.0923 -0.744,0 0,4.054 -1.543,0 0,0.735 3.836,0 0,-0.735 -1.549,0 0,-4.054 z" /><path
           id="path104"
           style="fill:#244b91;fill-opacity:1;fill-rule:nonzero;stroke:none"
           d="m 574.0933,69.0923 -3.444,0 0,4.789 3.317,0 0,-0.735 -2.573,0 0,-1.359 2.2,0 0,-0.728 -2.2,0 0,-1.232 2.7,0 0,-0.735 z" /><path
           id="path106"
           style="fill:#244b91;fill-opacity:1;fill-rule:nonzero;stroke:none"
           d="m 580.3127,69.0923 -0.743,0 0,3.074 -1.572,-2.595 -1.579,2.598 0,-3.077 -0.743,0 0,4.789 0.556,0 1.766,-2.895 1.764,2.895 0.551,0 0,-4.789 z" /><path
           id="path108"
           style="fill:#244b91;fill-opacity:1;fill-rule:nonzero;stroke:none"
           d="m 585.5918,69.0923 -3.444,0 0,4.789 3.317,0 0,-0.735 -2.573,0 0,-1.359 2.2,0 0,-0.728 -2.2,0 0,-1.232 2.7,0 0,-0.735 z" /><path
           id="path110"
           style="fill:#244b91;fill-opacity:1;fill-rule:nonzero;stroke:none"
           d="m 590.6497,69.0923 -2.732,3.364 0,-3.364 -0.743,0 0,4.789 0.534,0 2.726,-3.362 0,3.362 0.744,0 0,-4.789 -0.529,0 z" /><path
           id="path112"
           style="fill:#244b91;fill-opacity:1;fill-rule:nonzero;stroke:none"
           d="m 595.0654,69.0923 -0.744,0 0,4.054 -1.543,0 0,0.735 3.836,0 0,-0.735 -1.549,0 0,-4.054 z" /><path
           id="path114"
           style="fill:#244b91;fill-opacity:1;fill-rule:nonzero;stroke:none"
           d="m 546.8106,74.2939 -0.637,0 0.582,0.859 0.803,0 -0.748,-0.859 z" /></g></g></g></svg>