<?xml version="1.0" encoding="UTF-8" standalone="no"?>
<!-- Created with Inkscape (http://www.inkscape.org/) -->

<svg
   xmlns:dc="http://purl.org/dc/elements/1.1/"
   xmlns:cc="http://creativecommons.org/ns#"
   xmlns:rdf="http://www.w3.org/1999/02/22-rdf-syntax-ns#"
   xmlns:svg="http://www.w3.org/2000/svg"
   xmlns="http://www.w3.org/2000/svg"
   xmlns:sodipodi="http://sodipodi.sourceforge.net/DTD/sodipodi-0.dtd"
   xmlns:inkscape="http://www.inkscape.org/namespaces/inkscape"
   id="svg2"
   version="1.1"
   inkscape:version="0.48.2 r9819"
   width="612.04712"
   height="402.83374"
   xml:space="preserve"
   sodipodi:docname="logo_CD_CotedOr_couleur.ai"><metadata
     id="metadata8"><rdf:RDF><cc:Work
         rdf:about=""><dc:format>image/svg+xml</dc:format><dc:type
           rdf:resource="http://purl.org/dc/dcmitype/StillImage" /><dc:title></dc:title></cc:Work></rdf:RDF></metadata><defs
     id="defs6"><clipPath
       clipPathUnits="userSpaceOnUse"
       id="clipPath20"><path
         d="m 0,430.867 566.929,0 L 566.929,0 0,0 0,430.867 z"
         id="path22"
         inkscape:connector-curvature="0" /></clipPath></defs><sodipodi:namedview
     pagecolor="#ffffff"
     bordercolor="#666666"
     borderopacity="1"
     objecttolerance="10"
     gridtolerance="10"
     guidetolerance="10"
     inkscape:pageopacity="0"
     inkscape:pageshadow="2"
     inkscape:window-width="640"
     inkscape:window-height="480"
     id="namedview4"
     showgrid="false"
     fit-margin-top="0"
     fit-margin-left="0"
     fit-margin-right="0"
     fit-margin-bottom="0"
     inkscape:zoom="0.43818627"
     inkscape:cx="306.02375"
     inkscape:cy="201.41513"
     inkscape:window-x="0"
     inkscape:window-y="0"
     inkscape:window-maximized="0"
     inkscape:current-layer="g10" /><g
     id="g10"
     inkscape:groupmode="layer"
     inkscape:label="logo_CD_CotedOr_couleur"
     transform="matrix(1.25,0,0,-1.25,-48.306875,470.7105)"><g
       id="g12"
       transform="translate(357.6812,376.5684)"><path
         d="m 0,0 170.602,0 0,-322.261 -85.353,25.412 -85.25,-25.418 L 0,0 z"
         style="fill:#ffffff;fill-opacity:1;fill-rule:nonzero;stroke:none"
         id="path14"
         inkscape:connector-curvature="0" /></g><g
       id="g16"><g
         id="g18"
         clip-path="url(#clipPath20)"><g
           id="g24"
           transform="translate(369.8521,70.6299)"><path
             d="M 0,0 73.074,21.789 146.259,0 l 0,103.773 C 67.805,99.895 18.324,80.727 0.001,72.266 L 0,0 z"
             style="fill:#e31c39;fill-opacity:1;fill-rule:nonzero;stroke:none"
             id="path26"
             inkscape:connector-curvature="0" /></g><g
           id="g28"
           transform="translate(369.854,222.1758)"><path
             d="m 0,0 c 21.998,1.907 76.079,2.892 146.257,-21.614 l 0,70.21 C 71.582,41.6 19.104,12.287 0,0"
             style="fill:#eead0f;fill-opacity:1;fill-rule:nonzero;stroke:none"
             id="path30"
             inkscape:connector-curvature="0" /></g><g
           id="g32"
           transform="translate(369.853,281.0508)"><path
             d="M 0,0 C 17.819,-3.279 38.118,-8.311 60.129,-15.995 33.244,-25.357 12.852,-36.13 0,-43.879 L 0,0 z"
             style="fill:#eead0f;fill-opacity:1;fill-rule:nonzero;stroke:none"
             id="path34"
             inkscape:connector-curvature="0" /></g><g
           id="g36"
           transform="translate(369.8521,209.4307)"><path
             d="m 0,0 0.001,-52.596 c 22.576,9.795 71.439,26.664 146.258,30.242 l 0,0.063 C 101.582,-6.217 63.591,-1.047 38.795,0.381 21.336,1.381 7.989,0.715 0,0"
             style="fill:#eead0f;fill-opacity:1;fill-rule:nonzero;stroke:none"
             id="path38"
             inkscape:connector-curvature="0" /></g><g
           id="g40"
           transform="translate(369.853,364.3975)"><path
             d="m 0,0 0,-70.388 c 23.435,-4.18 50.39,-11.215 79.794,-22.749 19.573,5.56 41.835,10.056 66.464,12.248 L 146.258,0 0,0 z"
             style="fill:#0085c6;fill-opacity:1;fill-rule:nonzero;stroke:none"
             id="path42"
             inkscape:connector-curvature="0" /></g><g
           id="g44"
           transform="translate(121.0537,123.8721)"><path
             d="m 0,0 0,13.081 c -2.289,-0.816 -4.905,-1.635 -7.686,-1.635 -3.759,0 -5.396,1.799 -5.396,5.559 l 0,102.846 -15.368,0 0,-43.819 c -4.415,1.307 -10.629,2.125 -15.697,2.125 -22.728,0 -37.116,-15.207 -37.116,-40.058 0,-24.69 14.388,-40.06 37.116,-40.06 7.357,0 14.062,1.797 20.112,4.578 2.943,-2.943 7.521,-4.578 12.426,-4.578 4.088,0 8.502,0.981 11.609,1.961 m -28.45,14.554 c -4.905,-1.963 -9.811,-3.108 -15.697,-3.108 -12.917,0 -21.092,9.157 -21.092,26.653 0,17.494 8.175,26.814 21.092,26.814 5.231,0 10.792,-0.816 15.697,-2.125 l 0,-48.234 z m 60.987,84.858 c 0,6.377 -5.069,11.446 -11.446,11.446 -6.214,0 -11.445,-5.069 -11.445,-11.446 0,-5.723 4.25,-10.301 9.647,-11.117 C 17.658,79.956 13.896,71.944 9.154,64.259 l 12.1,0 c 6.867,11.119 11.283,22.728 11.283,35.153 M 147.082,52.884 c 0,33.845 -19.567,54.997 -50.769,54.997 -31.2,0 -50.766,-21.152 -50.766,-54.997 0,-33.846 19.566,-54.997 50.766,-54.997 31.202,0 50.769,21.151 50.769,54.997 m -18.156,0 c 0,-26.09 -11.988,-39.84 -32.613,-39.84 -20.624,0 -32.61,13.75 -32.61,39.84 0,26.09 11.986,39.838 32.61,39.838 20.625,0 32.613,-13.748 32.613,-39.838 m 81.834,8.431 0,13.409 c -6.213,1.963 -14.552,3.433 -20.766,3.433 -9.319,0 -21.746,-2.125 -31.066,-4.578 l 0,-73.579 15.37,0 0,62.788 c 4.905,1.309 10.301,2.125 15.696,2.125 6.214,0 14.553,-1.635 20.766,-3.598"
             style="fill:#eead0f;fill-opacity:1;fill-rule:nonzero;stroke:none"
             id="path46"
             inkscape:connector-curvature="0" /></g><g
           id="g48"
           transform="translate(38.6455,300.1201)"><path
             d="m 0,0 c 0,-31.066 18.313,-51.014 51.341,-51.014 7.849,0 18.477,1.962 26.325,4.414 l 0,14.063 c -8.502,-2.617 -17.986,-4.415 -26.325,-4.415 -22.564,0 -34.499,12.59 -34.499,36.952 0,24.363 11.935,36.953 34.499,36.953 8.339,0 17.823,-1.799 26.325,-4.415 l 0,14.062 C 69.818,49.052 59.19,51.015 51.341,51.015 18.313,51.015 0,31.066 0,0"
             style="fill:#eead0f;fill-opacity:1;fill-rule:nonzero;stroke:none"
             id="path50"
             inkscape:connector-curvature="0" /></g><g
           id="g52"
           transform="translate(158.3311,353.7705)"><path
             d="m 0,0 8.992,-15.554 13.407,0 -14.224,26.183 -16.351,0 -14.225,-26.183 13.407,0 L 0,0 z"
             style="fill:#eead0f;fill-opacity:1;fill-rule:nonzero;stroke:none"
             id="path54"
             inkscape:connector-curvature="0" /></g><g
           id="g56"
           transform="translate(158.8213,262.5137)"><path
             d="m 0,0 c -12.918,0 -21.093,9.156 -21.093,26.651 0,17.496 8.175,26.816 21.093,26.816 12.754,0 20.928,-9.32 20.928,-26.816 C 20.928,9.156 12.754,0 0,0 m 0,66.711 c -22.728,0 -37.117,-15.207 -37.117,-40.06 0,-24.689 14.389,-40.058 37.117,-40.058 22.728,0 36.952,15.369 36.952,40.058 0,24.853 -14.224,40.06 -36.952,40.06"
             style="fill:#eead0f;fill-opacity:1;fill-rule:nonzero;stroke:none"
             id="path58"
             inkscape:connector-curvature="0" /></g><g
           id="g60"
           transform="translate(229.9443,350.3174)"><path
             d="m 0,0 -15.369,-2.289 0,-20.603 -16.351,0 0,-13.244 16.351,0 0,-37.769 c 0,-17.005 11.281,-27.306 30.739,-27.306 3.271,0 7.521,0.817 10.628,1.799 l 0,13.406 C 22.891,-87.149 18.967,-87.804 15.37,-87.804 4.742,-87.804 0,-82.898 0,-73.905 l 0,37.769 25.998,0 0,13.244 L 0,-22.892 0,0 z"
             style="fill:#eead0f;fill-opacity:1;fill-rule:nonzero;stroke:none"
             id="path62"
             inkscape:connector-curvature="0" /></g><g
           id="g64"
           transform="translate(278.0146,296.6865)"><path
             d="M 0,0 C 1.471,12.917 9.156,19.948 20.111,19.948 30.575,19.948 38.587,13.244 40.222,0 L 0,0 z m 20.111,32.538 c -21.91,0 -36.298,-15.043 -36.298,-40.059 0,-18.085 7.939,-30.472 21.729,-36.28 3.383,4.097 6.007,7.884 8.008,11.136 0.098,0.161 0.184,0.312 0.281,0.472 -7.946,2.908 -13.097,9.166 -13.995,19.603 l 55.429,0 c 0.163,1.636 0.163,3.271 0.163,5.069 0,25.016 -13.244,40.059 -35.317,40.059"
             style="fill:#eead0f;fill-opacity:1;fill-rule:nonzero;stroke:none"
             id="path66"
             inkscape:connector-curvature="0" /></g><g
           id="g68"
           transform="translate(328.4526,261.0425)"><path
             d="m 0,0 c 0.151,0.591 0.265,1.153 0.362,1.702 l -29.216,0 c -2.132,-3.714 -4.877,-7.88 -8.393,-12.307 l 32,0 C -2.255,-6.485 -0.734,-2.854 0,0"
             style="fill:#eead0f;fill-opacity:1;fill-rule:nonzero;stroke:none"
             id="path70"
             inkscape:connector-curvature="0" /></g><g
           id="g72"
           transform="translate(43.5679,74.8047)"><path
             d="m 0,0 0,20.238 -4.241,0 0,-24.41 15.586,0 0,4.172 L 0,0 z m 18.858,16.287 11.451,0 0,3.951 -15.692,0 0,-24.41 15.692,0 0,3.953 -11.451,0 0,6.186 9.931,0 0,4.135 -9.931,0 0,6.185 z m 35.554,3.951 -8.129,0 0,-24.41 8.129,0 c 7.28,0 11.133,4.209 11.133,12.188 0,8.015 -3.853,12.222 -11.133,12.222 m 0,-20.42 -3.888,0 0,16.432 3.888,0 c 4.912,0 6.892,-2.379 6.892,-8.234 0,-5.819 -1.98,-8.198 -6.892,-8.198 m 19.869,16.469 11.451,0 0,3.951 -15.691,0 0,-24.41 15.691,0 0,3.953 -11.451,0 0,6.186 9.931,0 0,4.135 -9.931,0 0,6.185 z m 2.261,6.039 2.369,0 3.286,4.281 -3.463,0 -2.192,-4.281 z m 22.443,-2.088 -8.8,0 0,-24.41 4.24,0 0,8.016 4.56,0 c 5.548,0 8.729,3.002 8.729,8.197 0,5.197 -3.181,8.197 -8.729,8.197 m -0.318,-12.406 -4.242,0 0,8.346 4.242,0 c 3.993,0 4.84,-1.649 4.84,-4.137 0,-2.525 -0.847,-4.209 -4.84,-4.209 m 27.678,-12.004 4.56,0 -9.364,24.41 -4.666,0 -9.366,-24.41 4.559,0 2.156,5.856 9.966,0 2.155,-5.856 z m -10.672,9.846 3.534,9.588 3.5,-9.588 -7.034,0 z M 146.812,5.16 c 2.297,0.733 5.16,2.6 5.16,7.248 0,5.086 -3.287,7.83 -8.729,7.83 l -9.048,0 0,-24.41 4.241,0 0,8.602 3.817,0 5.62,-8.602 5.125,0 -6.186,9.332 z m -8.376,3.295 0,7.686 4.7,0 c 2.439,0 4.595,-0.549 4.595,-3.842 0,-3.258 -2.156,-3.844 -4.595,-3.844 l -4.7,0 z m 16.01,11.783 0,-4.39 7.528,0 0,-20.02 4.24,0 0,20.02 7.564,0 0,4.39 -19.332,0 z m 26.694,-3.951 11.449,0 0,3.951 -15.69,0 0,-24.41 15.69,0 0,3.953 -11.449,0 0,6.186 9.931,0 0,4.135 -9.931,0 0,6.185 z m 34.26,3.951 -6.821,-10.209 -6.822,10.209 -4.699,0 0,-24.41 4.24,0 0,18.043 7.281,-10.797 7.28,10.797 0,-18.043 4.241,0 0,24.41 -4.7,0 z m 14.458,-3.951 11.451,0 0,3.951 -15.692,0 0,-24.41 15.692,0 0,3.953 -11.451,0 0,6.186 9.931,0 0,4.135 -9.931,0 0,6.185 z m 32.846,3.951 0,-18.078 -12.122,18.078 -4.806,0 0,-24.41 4.241,0 0,18.227 12.192,-18.227 4.736,0 0,24.41 -4.241,0 z m 7.415,0 0,-4.39 7.528,0 0,-20.02 4.241,0 0,20.02 7.563,0 0,4.39 -19.332,0 z"
             style="fill:#eead0f;fill-opacity:1;fill-rule:nonzero;stroke:none"
             id="path74"
             inkscape:connector-curvature="0" /></g></g></g></g></svg>