<?xml version="1.0" encoding="UTF-8" standalone="no"?>
<!-- Created with Inkscape (http://www.inkscape.org/) -->

<svg
   xmlns:dc="http://purl.org/dc/elements/1.1/"
   xmlns:cc="http://creativecommons.org/ns#"
   xmlns:rdf="http://www.w3.org/1999/02/22-rdf-syntax-ns#"
   xmlns:svg="http://www.w3.org/2000/svg"
   xmlns="http://www.w3.org/2000/svg"
   xmlns:sodipodi="http://sodipodi.sourceforge.net/DTD/sodipodi-0.dtd"
   xmlns:inkscape="http://www.inkscape.org/namespaces/inkscape"
   id="svg2"
   version="1.1"
   inkscape:version="0.91 r13725"
   xml:space="preserve"
   width="535.03748"
   height="184.25"
   viewBox="0 0 535.03748 184.25"
   sodipodi:docname="Creuse (23) logo 2017.svg"><metadata
     id="metadata8"><rdf:RDF><cc:Work
         rdf:about=""><dc:format>image/svg+xml</dc:format><dc:type
           rdf:resource="http://purl.org/dc/dcmitype/StillImage" /><dc:title></dc:title></cc:Work></rdf:RDF></metadata><defs
     id="defs6"><clipPath
       clipPathUnits="userSpaceOnUse"
       id="clipPath16"><path
         d="m 0,147.4 428.03,0 L 428.03,0 0,0 0,147.4 Z"
         id="path18"
         inkscape:connector-curvature="0" /></clipPath></defs><sodipodi:namedview
     pagecolor="#ffffff"
     bordercolor="#666666"
     borderopacity="1"
     objecttolerance="10"
     gridtolerance="10"
     guidetolerance="10"
     inkscape:pageopacity="0"
     inkscape:pageshadow="2"
     inkscape:window-width="1366"
     inkscape:window-height="705"
     id="namedview4"
     showgrid="false"
     inkscape:zoom="0.86535994"
     inkscape:cx="267.51874"
     inkscape:cy="92.125"
     inkscape:window-x="-8"
     inkscape:window-y="-8"
     inkscape:window-maximized="1"
     inkscape:current-layer="g10" /><g
     id="g10"
     inkscape:groupmode="layer"
     inkscape:label="marquage-lacreuselede_partement-noir"
     transform="matrix(1.25,0,0,-1.25,0,184.25)"><g
       id="g12"><g
         id="g14"
         clip-path="url(#clipPath16)"><g
           id="g20"
           transform="translate(27.1738,80.2524)"><path
             d="m 0,0 c 0.269,-2.571 2.577,-3.704 5.083,-3.444 2.367,0.245 4.555,1.569 6.012,3.364 1.45,1.858 1.398,3.017 1.17,5.251 L 11.843,9.234 C 11.692,10.656 11.644,11.13 11.306,11.099 10.898,11.055 10.39,10.659 9.682,10.243 8.011,9.179 6.282,8.04 4.609,6.977 2.118,5.353 -0.344,3.315 -0.006,0.063 L 0,0 Z M 10.895,18.309 C 10.554,21.63 10.129,24.387 5.93,23.953 1.8,23.522 -0.066,21.071 -1.267,17.456 -1.633,16.393 -1.873,15.41 -2.908,14.823 c -0.645,-0.413 -2.008,-1.1 -2.821,-1.184 -0.537,-0.058 -0.896,0.046 -0.965,0.719 -0.402,3.858 6.33,10.24 13.985,11.038 2.096,0.216 4.633,0.138 6.341,-1.127 1.413,-1.084 1.572,-1.957 1.867,-4.801 L 17.158,3.491 c 0.182,-1.757 0.564,-5.416 2.933,-5.167 0.812,0.081 1.457,0.488 1.879,1.012 0.427,0.525 0.722,0.965 0.991,0.994 0.271,0.028 0.503,-0.223 0.543,-0.627 0.11,-1.015 -3.312,-4.315 -6.023,-4.596 -2.37,-0.245 -3.433,2.108 -4.251,3.388 -0.327,0.514 -0.575,0.901 -0.843,0.872 C 12.045,-0.667 10.837,-2.23 8.95,-3.794 7.182,-5.213 4.86,-6.615 2.02,-6.909 c -3.182,-0.33 -6.569,1.3 -6.922,4.684 -0.5,4.812 5.503,8.309 9.037,10.526 1.677,0.994 3.283,1.982 4.96,2.976 2.317,1.402 2.378,1.477 2.115,4.052 l -0.315,2.98 z"
             style="fill:#231f20;fill-opacity:1;fill-rule:nonzero;stroke:none"
             id="path22"
             inkscape:connector-curvature="0" /></g><g
           id="g24"
           transform="translate(110.6836,89.0796)"><path
             d="m 0,0 c 0.09,-2.229 0.038,-2.373 -1.938,-3.559 -4.295,-2.476 -8.371,-3.67 -12.384,-4.088 -13.85,-1.437 -24.613,8.504 -25.834,20.276 -1.359,13.086 9.173,23.559 22.397,24.933 3.531,0.367 8.61,-0.015 11.405,-0.633 1.799,-0.515 1.866,-1.139 2.293,-3.195 0.279,-1.372 0.888,-3.898 0.984,-4.796 0.066,-0.622 -0.075,-1.269 -1.047,-1.368 -1.248,-0.127 -2.155,1.876 -4.049,3.919 -2.127,2.298 -4.765,4.127 -9.748,3.61 -10.525,-1.092 -14.722,-11.259 -13.67,-21.371 1.22,-11.772 9.474,-19.8 17.991,-18.919 5.191,0.541 7.456,3.713 8.999,7.023 1.211,2.508 1.711,5.08 3.033,5.213 1.037,0.11 1.332,-0.699 1.32,-1.329 L 0,0 Z"
             style="fill:#231f20;fill-opacity:1;fill-rule:nonzero;stroke:none"
             id="path26"
             inkscape:connector-curvature="0" /></g><g
           id="g28"
           transform="translate(125.207,109.6304)"><path
             d="m 0,0 c 0.124,-1.177 0.919,-1.448 2.101,-1.327 4.5,0.466 11.771,2.556 10.964,10.309 -0.581,5.607 -4.234,9.081 -9.982,8.482 -4.705,-0.488 -4.766,-1.266 -4.326,-5.485 L 0,0 Z m 1.728,-16.621 c 0.468,-4.506 0.622,-5.326 4.789,-5.028 0.91,0.022 1.823,-0.027 1.919,-0.925 0.098,-0.969 -0.579,-1.18 -2.032,-1.332 -2.289,-0.238 -5.361,-0.276 -7.647,-0.512 -2.494,-0.261 -6.275,-0.934 -8.696,-1.183 -0.622,-0.069 -1.468,-0.013 -1.567,0.955 -0.109,1.042 0.991,1.225 1.96,1.326 4.152,0.43 4.068,1.26 3.528,6.454 L -8.801,9.933 c -0.546,5.265 -0.627,6.023 -4.789,5.662 -0.826,-0.087 -2.074,-0.214 -2.184,0.82 -0.105,1.04 0.635,1.327 1.393,1.407 2.074,0.214 4.465,0.183 7.716,0.518 4.642,0.482 8.419,1.156 13.13,1.647 7.618,0.792 14.189,-2.517 14.906,-9.441 0.491,-4.708 -2.086,-8.193 -5.67,-10.105 -1.18,-0.756 -2.531,-1.248 -4.029,-1.612 2.382,-0.031 3.414,-1.887 4.653,-3.714 2.168,-3.344 4.341,-6.762 6.581,-10.097 1.344,-2.17 2.647,-4.622 5.561,-4.39 1.049,0.037 2.095,0.075 2.199,-0.96 0.104,-0.974 -0.925,-1.152 -1.553,-1.217 -1.248,-0.127 -3.268,-0.196 -4.583,-0.335 -1.382,-0.144 -3.448,-0.497 -4.624,-0.618 -1.451,-0.15 -1.907,0.853 -2.746,2.162 -2.618,4.349 -5.239,8.695 -7.86,13.045 C 6.549,-3.102 6.468,-2.969 1.965,-3.437 0.444,-3.593 0.424,-4.09 0.67,-6.442 l 1.058,-10.179 z"
             style="fill:#231f20;fill-opacity:1;fill-rule:nonzero;stroke:none"
             id="path30"
             inkscape:connector-curvature="0" /></g><g
           id="g32"
           transform="translate(155.9043,123.7368)"><path
             d="m 0,0 c -0.522,5.055 -0.618,5.953 -4.777,5.589 -0.899,-0.093 -2.078,-0.214 -2.185,0.824 -0.101,0.971 0.63,1.326 1.323,1.399 1.94,0.199 3.957,0.34 6.041,0.488 2.083,0.144 4.167,0.295 6.035,0.482 3.329,0.35 6.641,0.76 9.886,1.171 3.257,0.338 6.575,0.751 9.829,1.092 1.315,0.136 1.419,-0.208 1.636,-2.282 C 28.014,6.615 28.152,4.601 28.375,2.456 28.467,1.555 28.499,0.58 27.531,0.477 26.976,0.419 26.447,0.786 26.028,1.441 25.542,2.092 25.109,2.884 24.615,3.604 22.517,6.956 20.8,7.968 13.115,7.173 9.792,6.826 8.482,6.618 7.841,6.063 7.202,5.502 7.283,4.676 7.437,3.219 l 1.022,-9.831 c 0.315,-3.047 0.454,-3.033 5.162,-2.544 5.887,0.613 6.719,0.696 6.994,4.084 0.156,1.208 0.11,3.022 1.286,3.144 0.829,0.087 1.162,-0.439 1.243,-1.202 0.188,-1.798 0.205,-3.966 0.396,-5.836 0.225,-2.149 0.639,-4.135 0.853,-6.21 0.115,-1.107 -0.108,-1.624 -0.94,-1.705 -1.107,-0.116 -1.428,1.598 -1.988,2.942 -1.038,2.619 -2.524,2.746 -9.168,2.055 -2.635,-0.272 -3.248,-0.408 -3.011,-2.691 l 1.17,-11.285 c 0.593,-5.679 3.035,-5.636 8.44,-5.076 5.953,0.619 8.982,1.775 10.721,7.275 0.472,1.515 0.758,2.807 1.867,2.922 0.552,0.054 0.85,-0.118 0.971,-0.602 0.27,-0.597 0.211,-1.375 0.205,-2.006 -0.031,-2.383 -0.202,-4.779 -0.158,-7.224 -0.015,-1.191 -0.148,-1.272 -0.978,-1.359 L 8.396,-34.334 c -2.005,-0.208 -3.731,-0.457 -5.315,-0.693 -1.587,-0.235 -2.965,-0.449 -4.211,-0.578 -0.69,-0.07 -1.474,0.06 -1.581,1.094 -0.101,0.969 1.136,1.171 1.966,1.255 4.149,0.503 4.058,1.404 3.514,6.595 L 0,0 Z"
             style="fill:#231f20;fill-opacity:1;fill-rule:nonzero;stroke:none"
             id="path34"
             inkscape:connector-curvature="0" /></g><g
           id="g36"
           transform="translate(202.2402,108.5981)"><path
             d="m 0,0 c 0.339,-3.251 0.731,-7.063 2.434,-9.266 2.259,-2.913 6.947,-3.546 10.687,-3.158 3.74,0.39 7.875,1.659 10.145,4.766 2.023,2.727 1.722,5.633 1.379,8.959 l -2.061,19.803 c -0.607,5.886 -1.148,7.022 -5.453,6.709 -0.762,-0.074 -1.951,-0.126 -2.055,0.909 -0.094,0.901 0.778,1.274 1.606,1.361 1.734,0.179 3.976,0.13 6.193,0.361 2.012,0.211 4.059,0.702 5.578,0.862 0.625,0.063 1.668,0.103 1.777,-0.94 0.11,-1.035 -1.269,-1.249 -2.224,-1.488 -3.654,-0.521 -3.154,-2.639 -2.914,-6.321 L 27.256,1.711 c 0.449,-4.292 0.697,-8.046 -2.774,-11.692 -3.15,-3.342 -8.207,-4.495 -12.852,-4.975 -4.22,-0.441 -9.624,-0.303 -13.483,1.815 -4.386,2.489 -5.178,6.043 -5.768,11.719 l -2.121,20.43 c -0.531,5.124 -0.679,5.876 -4.772,5.52 -0.829,-0.084 -2.078,-0.214 -2.196,0.896 -0.099,0.968 0.645,1.257 1.332,1.327 2.425,0.251 5.226,0.266 8.549,0.609 3.116,0.321 6.407,0.946 8.696,1.179 0.691,0.075 1.541,-0.046 1.645,-1.014 C 3.627,26.415 2.31,26.276 1.48,26.189 -2.679,25.759 -2.589,24.933 -2.058,19.806 L 0,0 Z"
             style="fill:#231f20;fill-opacity:1;fill-rule:nonzero;stroke:none"
             id="path38"
             inkscape:connector-curvature="0" /></g><g
           id="g40"
           transform="translate(264.8164,112.9995)"><path
             d="m 0,0 c 0.717,-6.924 -4.719,-14.56 -15.658,-15.695 -2.908,-0.301 -7.905,-0.049 -11.629,1.453 -1.027,0.454 -1.42,1.532 -1.559,2.847 -0.215,2.075 -0.375,4.3 -0.508,6.249 -0.023,0.907 0.061,2.106 1.309,2.233 1.385,0.142 1.875,-2.604 2.58,-4.633 1.422,-4.257 4.897,-6.698 10.018,-6.17 5.056,0.532 9.291,4.257 8.777,9.173 -0.541,5.19 -4.549,7.439 -9.832,9.061 -1.15,0.3 -2.314,0.737 -3.541,1.097 -5.129,1.571 -10.156,4.125 -10.805,10.356 -0.902,8.728 7.672,13.118 13.623,13.733 2.84,0.298 6.899,0.301 10.194,-0.407 1.297,-0.356 1.367,-1.049 1.494,-2.298 0.256,-1.789 0.584,-3.575 0.838,-5.369 0.084,-0.761 -0.115,-1.55 -1.086,-1.653 -0.973,-0.102 -1.426,0.901 -1.854,1.699 -1.703,4.228 -4.39,6.54 -9.24,6.037 -4.152,-0.434 -7.871,-3.055 -7.404,-7.555 0.564,-5.404 7.295,-6.875 12.787,-8.549 C -6.357,9.979 -0.752,7.202 -0.01,0.069 L 0,0 Z"
             style="fill:#231f20;fill-opacity:1;fill-rule:nonzero;stroke:none"
             id="path42"
             inkscape:connector-curvature="0" /></g><g
           id="g44"
           transform="translate(269.5781,135.5425)"><path
             d="m 0,0 c -0.521,5.055 -0.615,5.956 -4.773,5.592 -0.905,-0.096 -2.081,-0.214 -2.194,0.827 -0.096,0.968 0.639,1.32 1.33,1.395 1.936,0.197 3.949,0.338 6.039,0.486 2.084,0.147 4.164,0.292 6.037,0.485 3.321,0.348 6.643,0.761 9.887,1.168 3.258,0.338 6.572,0.754 9.826,1.09 1.319,0.139 1.42,-0.203 1.637,-2.28 C 28.014,6.618 28.15,4.601 28.373,2.456 28.467,1.555 28.5,0.581 27.531,0.477 26.977,0.419 26.447,0.789 26.029,1.441 25.537,2.092 25.109,2.887 24.615,3.606 22.518,6.956 20.801,7.971 13.115,7.173 9.789,6.826 8.482,6.618 7.842,6.063 7.199,5.505 7.283,4.676 7.438,3.219 l 1.021,-9.828 c 0.316,-3.05 0.455,-3.036 5.162,-2.547 5.887,0.613 6.717,0.699 6.994,4.087 0.155,1.205 0.11,3.02 1.287,3.141 0.828,0.09 1.161,-0.439 1.243,-1.199 0.187,-1.798 0.201,-3.969 0.392,-5.835 0.223,-2.15 0.643,-4.136 0.856,-6.214 0.115,-1.107 -0.108,-1.618 -0.94,-1.708 -1.109,-0.112 -1.424,1.604 -1.988,2.948 -1.041,2.619 -2.526,2.746 -9.166,2.055 -2.637,-0.275 -3.25,-0.411 -3.012,-2.697 l 1.17,-11.282 c 0.59,-5.679 3.035,-5.639 8.439,-5.076 5.95,0.62 8.983,1.778 10.719,7.275 0.477,1.517 0.758,2.807 1.869,2.922 0.549,0.057 0.85,-0.118 0.969,-0.599 0.272,-0.6 0.213,-1.378 0.209,-2.008 -0.033,-2.382 -0.207,-4.78 -0.16,-7.222 -0.014,-1.191 -0.147,-1.275 -0.977,-1.362 L 8.396,-34.334 c -2.005,-0.208 -3.734,-0.457 -5.314,-0.693 -1.588,-0.235 -2.965,-0.449 -4.211,-0.578 -0.691,-0.07 -1.476,0.06 -1.588,1.095 -0.094,0.974 1.145,1.17 1.979,1.257 4.14,0.503 4.049,1.401 3.508,6.592 L 0,0 Z"
             style="fill:#231f20;fill-opacity:1;fill-rule:nonzero;stroke:none"
             id="path46"
             inkscape:connector-curvature="0" /></g><g
           id="g48"
           transform="translate(31.4336,43.2021)"><path
             d="m 0,0 c 0.084,-0.814 0.76,-0.742 2.384,-0.574 l 5.488,0.572 c 2.099,0.217 5.884,0.676 7.795,1.356 1.453,0.49 2.396,1.339 2.225,2.964 C 17.779,5.404 16.381,10.324 9.609,9.619 2.633,8.893 -0.231,2.232 -0.006,0.066 L 0,0 Z m 2.485,-2.205 c -2.367,-0.248 -2.774,-0.289 -2.557,-2.391 0.792,-7.582 6.413,-13.636 14.603,-12.785 3.728,0.389 5.956,1.988 7.456,3.377 1.118,1.072 1.708,2.022 2.11,2.063 0.339,0.037 0.569,-0.211 0.601,-0.483 0.084,-0.814 -1.893,-2.867 -2.327,-3.32 -2.901,-3.037 -6.106,-4.465 -10.303,-4.902 -8.872,-0.922 -16.175,5.505 -17.056,13.968 -1.202,11.576 8.716,16.918 15.415,17.614 8.127,0.843 12.714,-4.428 13.268,-9.78 0.058,-0.541 -0.017,-1.158 -0.69,-1.23 L 2.485,-2.205 Z"
             style="fill:#231f20;fill-opacity:1;fill-rule:nonzero;stroke:none"
             id="path50"
             inkscape:connector-curvature="0" /></g><g
           id="g52"
           transform="translate(89.668,36.7256)"><path
             d="m 0,0 c 0.618,-6.025 2.121,-7.309 8.017,-6.695 5.684,0.591 10.378,2.172 14.065,6.869 3.258,4.236 4.656,9.857 4.11,15.14 C 24.883,27.91 15.363,35.201 3.112,33.93 -3.457,33.244 -3.326,31.955 -2.922,28.1 L 0,0 Z m -8.127,26.188 c -0.332,3.183 -0.503,4.808 -2.737,4.574 -1.422,-0.145 -2.636,-1.026 -3.306,-1.096 -0.476,-0.051 -0.783,0.264 -0.83,0.734 -0.066,0.614 1.234,1.293 3.214,1.977 4.96,1.682 13.991,3.031 15.887,3.227 8.594,0.895 15.392,-1.276 20.155,-4.956 4.763,-3.681 7.494,-8.871 8.037,-14.085 C 32.825,11.416 31.908,-5.514 9.704,-7.822 5.101,-8.301 0.468,-8.506 -4.139,-8.984 c -1.757,-0.182 -3.557,-0.645 -5.318,-0.827 -0.609,-0.064 -1.176,0.153 -1.248,0.832 -0.075,0.741 0.465,0.797 1.682,0.924 4.402,0.455 4.309,1.338 3.797,6.282 l -2.901,27.961 z"
             style="fill:#231f20;fill-opacity:1;fill-rule:nonzero;stroke:none"
             id="path54"
             inkscape:connector-curvature="0" /></g><g
           id="g56"
           transform="translate(133.5381,68.583)"><path
             d="m 0,0 c -0.208,-0.02 -0.444,0.23 -0.471,0.512 -0.06,0.551 0.992,1.218 1.245,1.457 l 8.5,7.808 c 0.888,0.867 2.157,2.118 3.474,2.251 0.899,0.096 1.813,-0.58 1.907,-1.546 0.183,-1.733 -1.889,-2.648 -3.134,-3.48 L 1.997,0.975 C 1.607,0.725 0.553,0.057 0.069,0.006 L 0,0 Z m -3.101,-14.602 c 0.087,-0.832 0.775,-0.755 2.44,-0.587 l 5.606,0.585 c 2.148,0.219 6.02,0.694 7.977,1.385 1.485,0.502 2.445,1.373 2.271,3.037 -0.115,1.108 -1.546,6.135 -8.47,5.418 -7.13,-0.738 -10.064,-7.554 -9.835,-9.769 l 0.011,-0.069 z m 2.543,-2.255 c -2.424,-0.252 -2.84,-0.295 -2.618,-2.44 0.807,-7.758 6.561,-13.951 14.936,-13.078 3.812,0.395 6.09,2.033 7.621,3.451 1.144,1.098 1.746,2.07 2.162,2.11 0.344,0.035 0.581,-0.217 0.609,-0.491 0.087,-0.836 -1.933,-2.933 -2.375,-3.398 -2.968,-3.108 -6.246,-4.57 -10.54,-5.012 -9.069,-0.945 -16.543,5.629 -17.441,14.285 -1.229,11.838 8.91,17.303 15.765,18.014 8.311,0.863 12.997,-4.529 13.566,-10.002 0.061,-0.553 -0.012,-1.186 -0.702,-1.26 l -20.983,-2.179 z"
             style="fill:#231f20;fill-opacity:1;fill-rule:nonzero;stroke:none"
             id="path58"
             inkscape:connector-curvature="0" /></g><g
           id="g60"
           transform="translate(185.5742,52.6416)"><path
             d="M 0,0 C -0.923,8.869 -7.48,12.705 -13.234,12.105 -16.012,11.82 -19.086,10.473 -20.52,7.791 -21.317,6.271 -21.35,4.561 -21.185,3 l 1.087,-10.496 c 0.257,-2.44 0.711,-4.854 2.859,-6.408 1.618,-1.067 4.063,-1.561 6.094,-1.352 7.787,0.811 11.884,8.147 11.15,15.19 L 0,0 Z m -18.301,-24.76 c 0.423,-4.062 0.576,-5.551 3.619,-5.236 0.682,0.072 1.899,0.199 1.989,-0.682 0.057,-0.541 -0.255,-0.777 -0.735,-0.83 -2.168,-0.222 -4.361,-0.18 -6.392,-0.392 -2.165,-0.223 -4.307,-0.719 -6.402,-0.936 -0.473,-0.051 -0.963,0.037 -1.02,0.576 -0.104,1.018 1.052,1.071 1.801,1.145 3.043,0.318 2.889,1.81 2.473,5.801 l -2.901,27.96 c -0.437,4.204 -0.847,4.842 -3.148,4.604 -1.219,-0.127 -1.693,-0.176 -1.751,0.365 -0.084,0.813 0.85,1.049 1.44,1.315 1.574,0.642 4.303,2.709 5.254,4.103 0.3,0.373 0.586,0.951 1.127,1.006 0.609,0.066 0.65,-0.344 0.722,-1.018 l 0.26,-2.503 c 0.061,-0.614 0.096,-0.95 0.301,-0.926 0.268,0.025 1.248,1.152 2.45,2.101 2.541,1.905 5.407,3.297 8.524,3.621 5.551,0.575 14.698,-3.812 15.75,-13.968 0.971,-9.342 -5.777,-16.823 -15.265,-17.735 -2.575,-0.269 -4.463,0.149 -6.919,0.715 -0.422,0.096 -1.185,0.221 -1.593,0.178 -0.543,-0.055 -0.508,-0.395 -0.332,-2.088 l 0.748,-7.176 z"
             style="fill:#231f20;fill-opacity:1;fill-rule:nonzero;stroke:none"
             id="path62"
             inkscape:connector-curvature="0" /></g><g
           id="g64"
           transform="translate(197.6943,45.6885)"><path
             d="m 0,0 c 0.269,-2.572 2.575,-3.699 5.078,-3.443 2.372,0.246 4.564,1.566 6.017,3.365 1.451,1.861 1.399,3.017 1.162,5.25 L 11.838,9.236 C 11.69,10.658 11.645,11.133 11.306,11.098 10.896,11.057 10.39,10.658 9.682,10.244 8.012,9.178 6.283,8.045 4.612,6.979 2.112,5.352 -0.344,3.316 -0.006,0.068 L 0,0 Z m 10.896,18.311 c -0.344,3.318 -0.769,6.078 -4.965,5.64 -4.127,-0.428 -5.997,-2.881 -7.197,-6.492 -0.37,-1.066 -0.606,-2.051 -1.641,-2.637 -0.642,-0.41 -2.009,-1.101 -2.821,-1.185 -0.543,-0.051 -0.896,0.047 -0.965,0.722 -0.399,3.862 6.329,10.237 13.979,11.036 2.101,0.216 4.639,0.138 6.347,-1.125 1.412,-1.081 1.569,-1.954 1.866,-4.801 L 17.155,3.49 c 0.186,-1.756 0.567,-5.412 2.934,-5.166 0.812,0.08 1.459,0.49 1.881,1.016 0.426,0.521 0.722,0.967 0.992,0.988 0.269,0.029 0.5,-0.219 0.543,-0.623 0.107,-1.016 -3.313,-4.318 -6.022,-4.598 -2.371,-0.246 -3.437,2.11 -4.253,3.387 -0.326,0.52 -0.577,0.901 -0.843,0.873 -0.344,-0.033 -1.549,-1.599 -3.439,-3.162 -1.766,-1.42 -4.087,-2.818 -6.93,-3.113 -3.179,-0.332 -6.567,1.301 -6.919,4.687 -0.5,4.807 5.503,8.307 9.04,10.52 1.673,0.994 3.277,1.984 4.956,2.978 2.318,1.405 2.376,1.479 2.11,4.055 l -0.309,2.979 z"
             style="fill:#231f20;fill-opacity:1;fill-rule:nonzero;stroke:none"
             id="path66"
             inkscape:connector-curvature="0" /></g><g
           id="g68"
           transform="translate(223.9688,61.9678)"><path
             d="m 0,0 c -0.438,4.193 -0.848,4.838 -3.15,4.602 -1.217,-0.129 -1.692,-0.18 -1.748,0.363 -0.084,0.812 0.849,1.049 1.439,1.314 1.572,0.643 4.303,2.705 5.25,4.104 0.305,0.371 0.588,0.949 1.131,1.003 0.605,0.064 0.65,-0.341 0.723,-1.017 L 3.988,7.049 C 4.1,5.967 4.135,5.629 4.473,5.664 c 0.341,0.035 1.011,1.477 2.222,2.969 1.211,1.494 2.899,3.039 5.203,3.28 2.032,0.211 3.985,-0.821 4.2,-2.85 C 16.27,7.369 15.158,6.23 13.533,6.061 12.383,5.939 11.701,6.555 11.098,7.105 10.484,7.729 9.881,8.279 8.93,8.184 7.443,8.027 6.441,6.484 5.732,5.387 4.41,2.988 4.568,1.434 4.881,-1.547 L 5.99,-12.246 c 0.367,-3.522 0.578,-5.551 3.963,-5.199 0.68,0.07 2.231,0.228 2.324,-0.651 0.055,-0.537 -0.257,-0.779 -1.006,-0.855 -1.962,-0.207 -4.361,-0.178 -6.595,-0.412 -2.369,-0.242 -4.512,-0.742 -6.608,-0.959 -0.472,-0.047 -0.959,0.037 -1.017,0.578 -0.1,0.947 1.053,1.068 1.795,1.148 3.052,0.313 2.842,2.342 2.476,5.866 L 0,0 Z"
             style="fill:#231f20;fill-opacity:1;fill-rule:nonzero;stroke:none"
             id="path70"
             inkscape:connector-curvature="0" /></g><g
           id="g72"
           transform="translate(251.707,54.7881)"><path
             d="m 0,0 c 0.324,-3.115 0.82,-7.922 4.818,-7.508 1.284,0.137 2.305,0.86 3.055,1.553 0.748,0.689 1.303,1.297 1.574,1.322 0.272,0.033 0.498,-0.222 0.524,-0.422 0.095,-0.947 -2.854,-4.814 -7.188,-5.265 -1.826,-0.188 -3.795,0.293 -5.096,1.595 -1.683,1.741 -1.88,3.637 -2.357,8.237 l -1.81,17.404 c -0.112,1.081 -0.395,1.191 -1.075,1.122 -0.541,-0.058 -1.08,-0.114 -1.619,-0.237 -0.605,-0.067 -1.232,0.006 -1.277,0.482 -0.051,0.471 0.39,0.795 0.703,1.098 2.717,2.197 4.502,4.095 5.723,7.508 0.109,0.283 0.273,0.642 0.615,0.68 0.471,0.049 0.58,-0.353 0.625,-0.758 l 0.498,-4.806 c 0.09,-0.881 0.269,-1.271 1.228,-1.243 l 6.7,0.697 C 6.248,21.523 6.295,21.116 6.35,20.575 6.447,19.627 6.199,19.396 5.586,19.333 3.896,19.159 2.264,19.055 0.572,18.881 -1.662,18.647 -1.934,18.622 -1.781,17.133 L 0,0 Z"
             style="fill:#231f20;fill-opacity:1;fill-rule:nonzero;stroke:none"
             id="path74"
             inkscape:connector-curvature="0" /></g><g
           id="g76"
           transform="translate(264.2617,67.3838)"><path
             d="m 0,0 c 0.084,-0.813 0.76,-0.742 2.385,-0.572 l 5.484,0.568 C 9.967,0.213 13.75,0.674 15.67,1.355 17.121,1.844 18.063,2.699 17.893,4.32 17.779,5.41 16.381,10.326 9.609,9.621 2.633,8.895 -0.238,2.234 -0.006,0.066 L 0,0 Z m 2.484,-2.205 c -2.367,-0.242 -2.773,-0.287 -2.556,-2.391 0.785,-7.578 6.412,-13.633 14.603,-12.783 3.729,0.385 5.955,1.986 7.453,3.377 1.121,1.074 1.711,2.02 2.114,2.061 0.338,0.039 0.568,-0.211 0.597,-0.481 0.086,-0.814 -1.896,-2.867 -2.324,-3.32 -2.9,-3.043 -6.105,-4.469 -10.305,-4.904 C 3.195,-21.568 -4.107,-15.141 -4.988,-6.68 -6.191,4.9 3.729,10.242 10.428,10.936 18.553,11.783 23.137,6.508 23.695,1.158 23.746,0.621 23.68,-0.004 23.004,-0.076 L 2.484,-2.205 Z"
             style="fill:#231f20;fill-opacity:1;fill-rule:nonzero;stroke:none"
             id="path78"
             inkscape:connector-curvature="0" /></g><g
           id="g80"
           transform="translate(294.5859,69.3018)"><path
             d="M 0,0 C -0.436,4.197 -0.844,4.838 -3.146,4.599 -4.367,4.471 -4.84,4.425 -4.898,4.963 c -0.084,0.818 0.849,1.049 1.439,1.315 1.578,0.641 4.303,2.708 5.258,4.103 0.303,0.376 0.584,0.954 1.127,1.009 0.539,0.058 0.646,-0.341 0.693,-0.748 L 3.836,8.541 c 0.109,-1.082 0.23,-2.234 0.639,-2.194 0.541,0.061 1.613,1.611 3.427,3.235 1.573,1.326 3.69,2.71 6.532,3.004 5.212,0.541 7.255,-2.667 8.314,-4.268 0.326,-0.514 0.559,-0.766 0.826,-0.736 0.205,0.022 0.449,0.32 0.813,0.768 1.396,1.72 4.263,5.714 9.205,6.229 3.795,0.392 5.832,-0.767 7.506,-2.371 2.283,-2.225 2.566,-4.936 2.965,-8.794 l 1.205,-11.58 c 0.406,-3.928 0.572,-5.553 3.617,-5.232 0.683,0.07 1.9,0.195 1.988,-0.684 0.059,-0.541 -0.26,-0.783 -0.732,-0.83 -2.168,-0.225 -4.362,-0.176 -6.395,-0.393 -2.166,-0.222 -4.303,-0.722 -6.4,-0.939 -0.481,-0.047 -0.963,0.037 -1.02,0.584 -0.099,0.945 1.051,1.066 1.795,1.144 3.049,0.315 2.877,1.94 2.473,5.868 L 39.188,4.893 C 38.67,9.835 35.621,12.185 32.104,11.821 31.561,11.763 28.201,11.142 25.881,8.437 23.924,6.18 24.078,4.691 24.379,1.844 l 1.25,-12.047 c 0.41,-3.928 0.576,-5.553 3.621,-5.238 0.68,0.072 1.896,0.197 1.988,-0.682 0.059,-0.541 -0.259,-0.779 -0.732,-0.83 -2.168,-0.225 -4.361,-0.176 -6.397,-0.387 -2.162,-0.228 -4.306,-0.724 -6.402,-0.945 -0.471,-0.045 -0.961,0.041 -1.016,0.584 -0.099,0.945 1.051,1.066 1.793,1.142 3.051,0.315 2.879,1.942 2.473,5.87 L 19.762,0.822 C 19.549,2.854 19.277,5.492 18.213,7.166 17,8.952 14.494,9.992 12.469,9.781 11.926,9.726 8.566,9.101 6.248,6.399 4.293,4.139 4.445,2.654 4.74,-0.193 l 1.258,-12.051 c 0.4,-3.926 0.574,-5.553 3.617,-5.235 0.68,0.073 1.899,0.198 1.989,-0.685 0.058,-0.537 -0.262,-0.779 -0.735,-0.828 -2.166,-0.227 -4.359,-0.176 -6.394,-0.391 -2.168,-0.224 -4.307,-0.722 -6.399,-0.939 -0.476,-0.049 -0.965,0.037 -1.023,0.578 -0.096,0.947 1.054,1.072 1.801,1.146 3.044,0.319 2.875,1.944 2.47,5.871 L 0,0 Z"
             style="fill:#231f20;fill-opacity:1;fill-rule:nonzero;stroke:none"
             id="path82"
             inkscape:connector-curvature="0" /></g><g
           id="g84"
           transform="translate(347.8535,76.0649)"><path
             d="m 0,0 c 0.084,-0.812 0.76,-0.739 2.383,-0.572 l 5.486,0.569 C 9.967,0.214 13.75,0.68 15.67,1.355 17.119,1.85 18.063,2.699 17.891,4.323 17.779,5.407 16.381,10.326 9.609,9.624 2.633,8.898 -0.232,2.234 -0.01,0.066 L 0,0 Z M 2.484,-2.202 C 0.115,-2.45 -0.289,-2.488 -0.072,-4.591 0.713,-12.173 6.34,-18.23 14.531,-17.38 c 3.727,0.39 5.953,1.988 7.449,3.379 1.122,1.072 1.709,2.019 2.116,2.066 0.338,0.033 0.57,-0.215 0.599,-0.486 0.084,-0.813 -1.89,-2.864 -2.324,-3.325 -2.904,-3.039 -6.107,-4.464 -10.307,-4.9 -8.869,-0.922 -16.175,5.502 -17.052,13.967 -1.203,11.58 8.713,16.921 15.414,17.616 8.127,0.849 12.711,-4.428 13.269,-9.775 0.057,-0.54 -0.017,-1.165 -0.693,-1.234 L 2.484,-2.202 Z"
             style="fill:#231f20;fill-opacity:1;fill-rule:nonzero;stroke:none"
             id="path86"
             inkscape:connector-curvature="0" /></g><g
           id="g88"
           transform="translate(378.3105,77.9956)"><path
             d="m 0,0 c -0.434,4.199 -0.844,4.841 -3.145,4.604 -1.218,-0.127 -1.693,-0.176 -1.748,0.364 -0.086,0.812 0.848,1.05 1.436,1.312 1.578,0.645 4.307,2.708 5.256,4.107 0.303,0.373 0.58,0.951 1.123,1.009 0.615,0.06 0.654,-0.344 0.723,-1.021 L 3.965,7.326 C 4.061,6.379 4.107,5.974 4.309,5.991 c 0.269,0.03 1.55,1.532 3.3,3.154 1.686,1.54 3.983,3.149 7.026,3.464 3.39,0.353 6.222,-0.587 8.371,-2.826 C 25.309,7.422 25.6,4.575 26.012,0.65 l 1.109,-10.695 c 0.367,-3.524 0.574,-5.553 3.621,-5.237 0.68,0.069 1.899,0.196 1.988,-0.683 0.057,-0.543 -0.257,-0.784 -0.734,-0.828 -2.168,-0.229 -4.361,-0.18 -6.391,-0.389 -2.166,-0.227 -4.304,-0.721 -6.404,-0.943 -0.472,-0.047 -0.965,0.039 -1.019,0.58 -0.098,0.947 1.052,1.066 1.797,1.146 3.046,0.313 2.835,2.348 2.472,5.867 L 21.332,0.231 C 21.105,2.401 20.826,5.109 19.416,6.813 17.924,8.639 15.375,9.471 12.736,9.196 10.162,8.931 7.904,7.601 6.336,5.587 4.582,3.353 4.535,1.844 4.814,-0.87 l 1.18,-11.369 c 0.369,-3.523 0.578,-5.558 3.625,-5.236 0.676,0.068 1.899,0.199 1.988,-0.686 0.057,-0.537 -0.261,-0.781 -0.738,-0.83 -2.166,-0.224 -4.361,-0.176 -6.389,-0.39 -2.167,-0.223 -4.306,-0.719 -6.408,-0.936 -0.467,-0.053 -0.963,0.037 -1.013,0.578 -0.102,0.946 1.048,1.067 1.796,1.145 3.043,0.318 2.833,2.345 2.469,5.869 L 0,0 Z"
             style="fill:#231f20;fill-opacity:1;fill-rule:nonzero;stroke:none"
             id="path90"
             inkscape:connector-curvature="0" /></g><g
           id="g92"
           transform="translate(416.4883,71.9033)"><path
             d="m 0,0 c 0.32,-3.115 0.82,-7.922 4.818,-7.506 1.286,0.131 2.307,0.854 3.051,1.547 0.752,0.693 1.307,1.301 1.576,1.326 0.274,0.029 0.502,-0.219 0.524,-0.422 0.099,-0.947 -2.854,-4.814 -7.188,-5.265 -1.828,-0.192 -3.793,0.293 -5.094,1.595 -1.683,1.741 -1.88,3.635 -2.361,8.243 l -1.805,17.398 c -0.113,1.084 -0.4,1.187 -1.076,1.118 -0.541,-0.055 -1.084,-0.113 -1.621,-0.237 -0.607,-0.06 -1.228,0.009 -1.277,0.486 -0.053,0.47 0.396,0.795 0.705,1.1 2.713,2.198 4.502,4.096 5.719,7.506 0.111,0.283 0.275,0.642 0.619,0.676 0.474,0.053 0.584,-0.347 0.625,-0.754 l 0.496,-4.806 c 0.096,-0.879 0.269,-1.274 1.228,-1.24 l 6.7,0.696 C 6.248,21.525 6.291,21.115 6.35,20.575 6.447,19.629 6.197,19.395 5.59,19.332 3.893,19.156 2.264,19.057 0.57,18.881 -1.662,18.647 -1.934,18.618 -1.777,17.129 L 0,0 Z"
             style="fill:#231f20;fill-opacity:1;fill-rule:nonzero;stroke:none"
             id="path94"
             inkscape:connector-curvature="0" /></g><g
           id="g96"
           transform="translate(312.9258,31.3389)"><path
             d="m 0,0 -2.432,6.68 -290.876,-30.213 -11.325,109.015 -7.032,1.009 12.211,-117.595 6.858,0.715 0,10e-4 L 0,0 Z"
             style="fill:#231f20;fill-opacity:1;fill-rule:nonzero;stroke:none"
             id="path98"
             inkscape:connector-curvature="0" /></g></g></g></g></svg>