<?xml version="1.0" encoding="UTF-8" standalone="no"?>
<!-- Created with Inkscape (http://www.inkscape.org/) -->

<svg
   xmlns:dc="http://purl.org/dc/elements/1.1/"
   xmlns:cc="http://creativecommons.org/ns#"
   xmlns:rdf="http://www.w3.org/1999/02/22-rdf-syntax-ns#"
   xmlns:svg="http://www.w3.org/2000/svg"
   xmlns="http://www.w3.org/2000/svg"
   version="1.1"
   width="708.66144"
   height="294.67715"
   id="svg3370">
  <defs
     id="defs3372" />
  <metadata
     id="metadata3375">
    <rdf:RDF>
      <cc:Work
         rdf:about="">
        <dc:format>image/svg+xml</dc:format>
        <dc:type
           rdf:resource="http://purl.org/dc/dcmitype/StillImage" />
        <dc:title></dc:title>
      </cc:Work>
    </rdf:RDF>
  </metadata>
  <path
     d="m 0,294.67715 290.35534,0 L 290.35534,0 0,0 0,294.67715 z"
     id="path238"
     style="fill:#00a6e9;fill-opacity:1;fill-rule:nonzero;stroke:none" />
  <path
     d="m 142.96456,142.4183 3.23331,0 c 4.22941,0 5.7075,-2.916 5.7075,-5.51069 0,-3.28151 -1.24111,-4.96443 -5.39421,-4.96443 l -3.5466,0 0,10.47512 z m -10.44299,-18.14671 17.89768,0 c 8.88056,0 11.92911,5.39823 11.92911,11.41098 0,6.37826 -3.39799,9.61157 -8.24595,10.76431 l 0,0.1205 c 4.01654,0.5824 6.30195,3.05658 6.93254,6.22161 0.95192,4.79173 2.56255,15.24276 2.56255,15.24276 l -10.7121,0 c 0,0 -0.5583,-3.60284 -1.28529,-8.57932 -1.11258,-7.59527 -1.3616,-8.97294 -4.64713,-8.97294 l -3.98842,0 0,17.55226 -10.44299,0 0,-43.76016"
     id="path242"
     style="fill:#ffffff;fill-opacity:1;fill-rule:nonzero;stroke:none" />
  <path
     d="m 214.62357,161.30004 c 4.21736,0 4.85599,-3.13691 4.85599,-15.13431 0,-12.01345 -0.63863,-15.1343 -4.85599,-15.1343 -4.08883,0 -4.70336,3.12085 -4.70336,15.1343 0,11.9974 0.61453,15.13431 4.70336,15.13431 z m 0.0844,7.56715 c -13.75262,0 -15.60424,-8.80826 -15.60424,-22.70146 0,-13.91729 1.85162,-22.72555 15.60424,-22.72555 14.78085,0 15.58817,10.5916 15.58817,22.72555 0,12.10986 -0.80732,22.70146 -15.58817,22.70146"
     id="path246"
     style="fill:#ffffff;fill-opacity:1;fill-rule:nonzero;stroke:none" />
  <path
     d="m 133.48554,196.91867 28.46519,0 0,8.32628 -18.0222,0 0,8.744 17.09036,0 0,8.33431 -17.09036,0 0,9.99715 18.70501,0 0,8.32226 -29.148,0 0,-43.724"
     id="path250"
     style="fill:#ffffff;fill-opacity:1;fill-rule:nonzero;stroke:none" />
  <path
     d="m 200.30863,222.39957 27.95551,0 0,-8.30902 -27.95551,0 0,8.30902 z"
     id="path252"
     style="fill:#ffffff;fill-opacity:1;fill-rule:nonzero;stroke:none" />
  <path
     d="m 133.91932,52.59653 10.43094,0 0,34.78721 17.8535,0 0,8.94884 -28.28444,0 0,-43.73605"
     id="path256"
     style="fill:#ffffff;fill-opacity:1;fill-rule:nonzero;stroke:none" />
  <path
     d="m 231.82639,96.3366 -11.23023,0 -5.91234,-34.03612 -0.11648,0 -5.97661,34.03612 -10.80849,0 9.60755,-43.73605 15.14635,0 9.29025,43.73605"
     id="path260"
     style="fill:#ffffff;fill-opacity:1;fill-rule:nonzero;stroke:none" />
  <path
     d="m 72.494445,159.71351 4.643115,0 c 4.851974,0 6.522853,-1.18488 6.522853,-14.27878 0,-10.68399 -0.859538,-12.8248 -6.386291,-12.8248 l -4.779677,0 0,27.10358 z m -10.442992,-35.44191 17.3193,0 c 10.334546,0 14.740685,5.2938 14.740685,20.47228 0,15.85728 -2.048433,23.28787 -15.784984,23.28787 l -16.275001,0 0,-43.76015"
     id="path264"
     style="fill:#ffffff;fill-opacity:1;fill-rule:nonzero;stroke:none" />
  <path
     d="m 62.05547,196.91867 13.407195,0 6.787944,25.28811 0.120497,0 6.783928,-25.28811 13.383096,0 0,43.724 -9.177784,0 0,-28.58568 -0.120496,0 -7.551086,28.58568 -6.679498,0 -7.723798,-28.58568 -0.108446,0 0,28.58568 -9.121552,0 0,-43.724"
     id="path268"
     style="fill:#ffffff;fill-opacity:1;fill-rule:nonzero;stroke:none" />
  <path
     d="m 62.05547,82.3952 27.94988,0 0,-8.30822 -27.94988,0 0,8.30822 z"
     id="path270"
     style="fill:#ffffff;fill-opacity:1;fill-rule:nonzero;stroke:none" />
  <path
     d="m 331.46056,202.88724 7.23378,0 0,24.88244 10.47111,0 0,5.8561 -17.70489,0 0,-30.73854"
     id="path274"
     style="fill:#00a6e9;fill-opacity:1;fill-rule:nonzero;stroke:none" />
  <path
     d="m 356.55587,202.88724 17.7812,0 0,5.85611 -10.53537,0 0,6.15333 9.89674,0 0,5.85611 -9.89674,0 0,7.01689 11.02137,0 0,5.8561 -18.2672,0 0,-30.73854"
     id="path278"
     style="fill:#00a6e9;fill-opacity:1;fill-rule:nonzero;stroke:none" />
  <path
     d="m 406.85494,228.27978 1.93999,0 c 3.34979,0 4.5186,-1.33349 4.5186,-10.53939 0,-7.49485 -0.6065,-9.5232 -4.43426,-9.5232 l -2.02433,0 0,20.06259 z m -7.23378,-25.39254 10.72013,0 c 7.14542,0 10.202,3.70325 10.202,14.3792 0,11.1499 -1.41783,16.35533 -10.94104,16.35533 l -9.98109,0 0,-30.73453"
     id="path282"
     style="fill:#00a6e9;fill-opacity:1;fill-rule:nonzero;stroke:none" />
  <path
     d="m 437.5493,194.87827 6.71565,0 -4.30171,6.10915 -4.5668,0 2.15286,-6.10915 z m -8.05315,8.00897 17.7812,0 0,5.86013 -10.53939,0 0,6.14931 9.89273,0 0,5.86013 -9.89273,0 0,7.01287 11.01334,0 0,5.85611 -18.25515,0 0,-30.73855"
     id="path286"
     style="fill:#00a6e9;fill-opacity:1;fill-rule:nonzero;stroke:none" />
  <path
     d="m 463.42382,216.27034 1.97614,0 c 2.88788,0 3.57471,-1.80342 3.57471,-3.87194 0,-2.37377 -0.77519,-4.18121 -3.68718,-4.18121 l -1.86367,0 0,8.05315 z m -7.22976,-13.3831 11.18605,0 c 7.62338,0 9.09343,5.51069 9.09343,9.34247 0,5.51068 -2.62279,9.38664 -9.85657,9.38664 l -3.19315,0 0,12.00542 -7.22976,0 0,-30.73453"
     id="path290"
     style="fill:#00a6e9;fill-opacity:1;fill-rule:nonzero;stroke:none" />
  <path
     d="m 492.99757,208.48228 -0.0803,0 -2.54247,13.69237 5.2456,0 -2.6228,-13.69237 z m -4.39007,-5.59503 9.04122,0 7.66355,30.73854 -7.49486,0 -1.11258,-5.85611 -7.37034,0 -1.0684,5.85611 -7.49887,0 7.84028,-30.73854"
     id="path294"
     style="fill:#00a6e9;fill-opacity:1;fill-rule:nonzero;stroke:none" />
  <path
     d="m 520.04091,215.84057 2.24123,0 c 2.92403,0 3.70324,-2.18901 3.70324,-3.99645 0,-2.32959 -0.86355,-3.87596 -3.75144,-3.87596 l -2.19303,0 0,7.87241 z m -7.23378,-12.95333 12.13395,0 c 6.16538,0 8.27808,3.79161 8.27808,8.01299 0,4.47041 -1.80744,6.66343 -5.16526,7.48281 l 0,0.0803 c 4.59893,0.65469 4.86001,3.54258 4.94435,7.66756 0.13255,6.07702 0.34141,6.67549 1.37366,7.10525 l 0,0.38559 -7.79208,0 c -0.55428,-1.02421 -0.77519,-2.75936 -0.77519,-6.24169 0,-5.33396 -0.72298,-6.45458 -3.0124,-6.45458 l -2.75133,0 0,12.69627 -7.23378,0 0,-30.73453"
     id="path298"
     style="fill:#00a6e9;fill-opacity:1;fill-rule:nonzero;stroke:none" />
  <path
     d="m 546.40143,208.74335 -6.45859,0 0,-5.85611 20.13891,0 0,5.85611 -6.45859,0 0,24.87842 -7.22173,0 0,-24.87842"
     id="path302"
     style="fill:#00a6e9;fill-opacity:1;fill-rule:nonzero;stroke:none" />
  <path
     d="m 567.74529,202.88724 17.7812,0 0,5.85611 -10.53939,0 0,6.15333 9.89273,0 0,5.85611 -9.89273,0 0,7.01689 11.01334,0 0,5.8561 -18.25515,0 0,-30.73854"
     id="path306"
     style="fill:#00a6e9;fill-opacity:1;fill-rule:nonzero;stroke:none" />
  <path
     d="m 594.65206,202.88724 10.60365,0 3.77555,20.18711 0.0964,0 3.65505,-20.18711 10.46307,0 0,30.73854 -6.71564,0 0,-23.93453 -0.0884,0 -4.69131,23.93453 -5.59503,0 -4.95239,-23.93453 -0.0844,0 0,23.93453 -6.46662,0 0,-30.73854"
     id="path310"
     style="fill:#00a6e9;fill-opacity:1;fill-rule:nonzero;stroke:none" />
  <path
     d="m 633.10637,202.88724 17.76915,0 0,5.85611 -10.53537,0 0,6.15333 9.90076,0 0,5.85611 -9.90076,0 0,7.01689 11.02137,0 0,5.8561 -18.25515,0 0,-30.73854"
     id="path314"
     style="fill:#00a6e9;fill-opacity:1;fill-rule:nonzero;stroke:none" />
  <path
     d="m 659.79223,202.88724 8.32628,0 5.94045,19.97825 0.0843,0 0,-19.97825 6.71966,0 0,30.73854 -8.18971,0 -6.33006,-21.18722 -0.0844,0 0,21.18722 -6.46662,0 0,-30.73854"
     id="path318"
     style="fill:#00a6e9;fill-opacity:1;fill-rule:nonzero;stroke:none" />
  <path
     d="m 694.97307,208.74335 -6.45859,0 0,-5.85611 20.14694,0 0,5.85611 -6.45457,0 0,24.87842 -7.23378,0 0,-24.87842"
     id="path322"
     style="fill:#00a6e9;fill-opacity:1;fill-rule:nonzero;stroke:none" />
</svg>
