<?xml version="1.0" encoding="UTF-8" standalone="no"?>
<!-- Created with Inkscape (http://www.inkscape.org/) -->

<svg
   xmlns:dc="http://purl.org/dc/elements/1.1/"
   xmlns:cc="http://creativecommons.org/ns#"
   xmlns:rdf="http://www.w3.org/1999/02/22-rdf-syntax-ns#"
   xmlns:svg="http://www.w3.org/2000/svg"
   xmlns="http://www.w3.org/2000/svg"
   xmlns:sodipodi="http://sodipodi.sourceforge.net/DTD/sodipodi-0.dtd"
   xmlns:inkscape="http://www.inkscape.org/namespaces/inkscape"
   width="112.88889mm"
   height="48.921021mm"
   viewBox="0 0 399.99999 173.3422"
   id="svg4593"
   version="1.1"
   inkscape:version="0.91 r13725"
   sodipodi:docname="Eure-et-Loir logo 2019.svg">
  <defs
     id="defs4595">
    <clipPath
       clipPathUnits="userSpaceOnUse"
       id="clipPath372">
      <path
         d="m 429.061,58.11 117.887,0 0,51.087 -117.887,0 0,-51.087 z"
         id="path374"
         inkscape:connector-curvature="0" />
    </clipPath>
  </defs>
  <sodipodi:namedview
     id="base"
     pagecolor="#ffffff"
     bordercolor="#666666"
     borderopacity="1.0"
     inkscape:pageopacity="0.0"
     inkscape:pageshadow="2"
     inkscape:zoom="1.9586957"
     inkscape:cx="201.42857"
     inkscape:cy="75.714286"
     inkscape:document-units="px"
     inkscape:current-layer="layer1"
     showgrid="false"
     fit-margin-top="0"
     fit-margin-left="0"
     fit-margin-right="0"
     fit-margin-bottom="0"
     inkscape:window-width="1366"
     inkscape:window-height="705"
     inkscape:window-x="-8"
     inkscape:window-y="-8"
     inkscape:window-maximized="1" />
  <metadata
     id="metadata4598">
    <rdf:RDF>
      <cc:Work
         rdf:about="">
        <dc:format>image/svg+xml</dc:format>
        <dc:type
           rdf:resource="http://purl.org/dc/dcmitype/StillImage" />
        <dc:title></dc:title>
      </cc:Work>
    </rdf:RDF>
  </metadata>
  <g
     inkscape:label="Calque 1"
     inkscape:groupmode="layer"
     id="layer1"
     transform="translate(-137.74921,-493.80651)">
    <g
       transform="matrix(3.3930798,0,0,-3.3930798,-1318.089,864.32064)"
       id="g368">
      <g
         id="g370"
         clip-path="url(#clipPath372)">
        <g
           id="g376"
           transform="scale(0.1818567,0.182757)">
          <g
             id="g378"
             transform="translate(2610.9453,451.9742)">
            <path
               d="m 0,0 c 0,-57.525 -46.634,-104.16 -104.161,-104.16 -57.526,0 -104.16,46.635 -104.16,104.16 0,57.526 46.634,104.161 104.16,104.161 C -46.634,104.161 0,57.526 0,0"
               style="fill:#ffffff;fill-opacity:1;fill-rule:nonzero;stroke:none"
               id="path380"
               inkscape:connector-curvature="0" />
          </g>
        </g>
        <g
           id="g382"
           transform="scale(0.1818567,0.182757)">
          <g
             id="g384"
             transform="translate(2562.9058,535.4493)">
            <path
               d="m 0,0 -4.9,-30.935 -34.371,0 L -34.372,0 0,0 Z m -44.171,-61.869 34.372,0 -4.9,-30.934 -34.371,0 4.899,30.934 z m -44.17,-61.869 68.743,0 -4.9,-30.934 -68.743,0 -2.081,0 -32.291,0 L -103.115,0 -68.743,0 -88.341,-123.738 Z m 164.303,46.02 c 0,77.192 -62.576,139.769 -139.768,139.769 -77.192,0 -139.769,-62.577 -139.769,-139.769 0,-77.192 62.577,-139.768 139.769,-139.768 77.192,0 139.768,62.576 139.768,139.768"
               style="fill:#ecd103;fill-opacity:1;fill-rule:nonzero;stroke:none"
               id="path386"
               inkscape:connector-curvature="0" />
          </g>
        </g>
        <g
           id="g388"
           transform="scale(0.1818567,0.182757)">
          <g
             id="g390"
             transform="translate(3004.6001,366.5729)">
            <path
               d="m 0,0 0,4.241 -17.035,0 0,-4.241 5.966,0 0,-18.759 5.031,0 L -6.038,0 0,0 Z m -22.713,-18.759 0,23 -5.14,0 0,-15.921 -9.522,15.921 -6.648,0 0,-23 5.175,0 0,15.992 9.739,-15.992 6.396,0 z m -28.066,0 0,4.24 -11.213,0 0,5.427 10.098,0 0,4.133 -10.098,0 0,4.959 11.213,0 0,4.241 -16.281,0 0,-23 16.281,0 z m -23.935,0 0,23 -7.475,0 -5.929,-14.914 c -0.539,-1.294 -0.719,-2.695 -0.719,-2.695 0,0 -0.252,1.33 -0.755,2.695 l -5.822,14.914 -7.546,0 0,-23 5.067,0 0,16.926 6.504,-16.926 5.068,0 6.467,16.926 0,-16.926 5.14,0 z m -34.932,0 0,4.24 -11.211,0 0,5.427 10.098,0 0,4.133 -10.098,0 0,4.959 11.211,0 0,4.241 -16.278,0 0,-23 16.278,0 z M -131.566,0 l 0,4.241 -17.036,0 0,-4.241 5.967,0 0,-18.759 5.031,0 0,18.759 6.038,0 z m -26.594,-3.306 c 0,-1.473 -0.719,-3.163 -4.312,-3.163 l -3.558,0 0,6.469 3.558,0 c 3.593,0 4.312,-1.797 4.312,-3.306 m 6.432,-15.453 -7.977,8.518 c 5.857,0.43 6.756,4.275 6.756,7.008 0,3.017 -1.006,7.474 -9.739,7.474 l -8.445,0 0,-23 5.103,0 0,9.164 7.51,-9.164 6.792,0 z m -32.486,7.798 -7.404,0 3.738,11.32 3.666,-11.32 z m 7.905,-7.798 -8.121,23 -6.936,0 -8.158,-23 5.355,0 1.33,4.096 9.882,0 1.258,-4.096 5.39,0 z m -31.625,15.058 c 0,-1.581 -0.538,-3.629 -4.311,-3.629 l -3.558,0 0,7.33 3.558,0 c 3.773,0 4.311,-2.155 4.311,-3.701 m 5.212,0.071 c 0,3.163 -0.756,7.871 -9.739,7.871 l -8.445,0 0,-23 5.103,0 0,7.367 3.63,0 c 8.984,0 9.451,4.636 9.451,7.762 m -24.797,12.039 0,4.098 -16.782,-2.911 0,-4.098 16.782,2.911 z m -0.071,-27.168 0,4.24 -11.213,0 0,5.427 10.099,0 0,4.133 -10.099,0 0,4.959 11.213,0 0,4.241 -16.28,0 0,-23 16.28,0 z m -28.103,11.68 c 0,-5.859 -2.409,-7.44 -7.079,-7.44 l -2.48,0 0,14.519 2.659,0 c 4.636,0 6.864,-1.186 6.9,-7.079 m 4.995,-0.036 c 0,7.366 -3.738,11.356 -10.745,11.356 l -8.912,0 0,-23 8.517,0 c 7.151,0 11.14,4.349 11.14,11.644 m -37.122,-11.644 0,4.24 -11.213,0 0,5.427 10.098,0 0,4.133 -10.098,0 0,4.959 11.213,0 0,4.241 -16.28,0 0,-23 16.28,0 z m -22.173,0 0,4.24 -7.799,0 0.036,18.76 -5.175,0 0,-23 12.938,0 z"
               style="fill:#231f20;fill-opacity:1;fill-rule:nonzero;stroke:none"
               id="path392"
               inkscape:connector-curvature="0" />
          </g>
        </g>
        <g
           id="g394"
           transform="scale(0.1818567,0.182757)">
          <g
             id="g396"
             transform="translate(2914.4048,528.0895)">
            <path
               d="m 0,0 -2.584,-14.65 32.983,0 L 32.982,0 0,0 Z"
               style="fill:#231f20;fill-opacity:1;fill-rule:nonzero;stroke:none"
               id="path398"
               inkscape:connector-curvature="0" />
          </g>
        </g>
        <g
           id="g400"
           transform="scale(0.1818567,0.182757)">
          <g
             id="g402"
             transform="translate(2793.7769,440.0846)">
            <path
               d="m 0,0 -2.583,-14.65 32.982,0 L 32.983,0 0,0 Z"
               style="fill:#231f20;fill-opacity:1;fill-rule:nonzero;stroke:none"
               id="path404"
               inkscape:connector-curvature="0" />
          </g>
        </g>
        <g
           id="g406"
           transform="scale(0.1818567,0.182757)">
          <g
             id="g408"
             transform="translate(3005.231,445.9957)">
            <path
               d="M 0,0 2.346,14.781 C -9.703,16.133 -15.783,8.813 -18.486,4.872 l -3.941,9.007 -7.995,0 0,-57.428 17.566,0 0,29.391 C -12.856,-6.501 -13.175,1.352 0,0 m -38.641,29.082 c 0,7.995 -4.73,9.459 -11.373,9.459 -6.756,0 -11.711,-1.464 -11.711,-9.459 0,-7.882 4.955,-9.459 11.711,-9.459 6.643,0 11.373,1.689 11.373,9.459 m -2.59,-15.203 -17.679,0 0,-57.428 17.679,0 0,57.428 z M -84.47,-14.722 c 0,-9.233 -2.928,-15.089 -12.049,-15.089 -8.783,0 -11.71,5.856 -11.71,15.089 0,9.121 2.815,14.977 11.823,14.977 9.346,0 11.936,-5.969 11.936,-14.977 m 16.891,0 c 0,14.977 -6.194,29.616 -28.827,29.616 -22.746,0 -28.827,-14.639 -28.827,-29.616 0,-14.863 5.856,-29.84 28.714,-29.84 22.746,0 28.94,14.638 28.94,29.84 m -62.948,-28.718 2.254,14.755 -23.984,0 0.225,57.204 -18.355,0 0,-72.068 39.86,0.109 z m -94.756,-0.597 2.201,14.226 c -13.175,-1.35 -14.188,2.252 -14.188,6.645 l 0,22.971 12.034,-0.038 2.154,14.112 -14.638,0 0,14.64 -17.454,0 0,-14.64 -9.008,-4.503 0,-9.571 9.008,0 0,-24.774 c 0,-15.651 3.992,-20.758 29.891,-19.068 m -61.982,35.509 -21.057,0 c 0.563,6.081 3.829,10.585 10.81,10.585 7.432,0 10.247,-4.618 10.247,-10.585 m 18.355,-17.679 -18.355,0 c -0.675,-3.266 -3.378,-5.969 -9.796,-5.969 -7.657,0 -11.261,4.055 -11.373,11.711 l 39.186,0 c 0.225,1.69 0.225,3.379 0.225,5.068 0,15.088 -5.517,30.291 -27.588,30.291 -23.647,0 -29.502,-14.865 -29.502,-29.728 0,-15.09 5.743,-29.728 29.84,-29.728 17.454,0 26.349,7.771 27.363,18.355"
               style="fill:#231f20;fill-opacity:1;fill-rule:nonzero;stroke:none"
               id="path410"
               inkscape:connector-curvature="0" />
          </g>
        </g>
        <g
           id="g412"
           transform="scale(0.1818567,0.182757)">
          <g
             id="g414"
             transform="translate(2882.5454,526.8364)">
            <path
               d="m 0,0 -21.058,0 c 0.564,6.08 3.829,10.584 10.811,10.584 C -2.815,10.584 0,5.968 0,0 m 18.354,-17.679 -18.354,0 c -0.676,-3.266 -3.379,-5.968 -9.797,-5.968 -7.656,0 -11.261,4.053 -11.372,11.711 l 39.186,0 c 0.224,1.689 0.224,3.378 0.224,5.067 0,15.089 -5.516,30.29 -27.588,30.29 -23.646,0 -29.502,-14.863 -29.502,-29.727 0,-15.089 5.744,-29.728 29.84,-29.728 17.454,0 26.35,7.77 27.363,18.355 m -62.238,26.397 2.558,14.591 C -53.375,24.66 -59.455,17.341 -62.158,13.4 l -3.942,9.008 -7.995,0 0,-57.428 17.567,0 0,29.389 c 0,7.657 -0.531,15.701 12.644,14.349 m -41.694,-43.738 0,57.428 -17.68,0 0,-32.543 c 0,-7.882 -2.026,-11.485 -10.02,-11.485 -7.995,0 -9.573,3.265 -9.573,11.035 l 0,32.993 -17.565,0 0,-32.43 c 0,-15.314 3.49,-26.012 22.52,-26.012 11.26,0 17.117,4.054 20.27,8.558 l 4.053,-7.544 7.995,0 z m -64.07,0 0,14.863 -34.007,0 0,14.864 30.629,0 0,14.076 -30.629,0 0,13.4 31.753,-0.04 2.254,14.903 -52.137,0 0,-72.066 52.137,0 z"
               style="fill:#231f20;fill-opacity:1;fill-rule:nonzero;stroke:none"
               id="path416"
               inkscape:connector-curvature="0" />
          </g>
        </g>
      </g>
    </g>
  </g>
</svg>
