<?xml version="1.0" encoding="UTF-8" standalone="no"?>
<svg
   xmlns:dc="http://purl.org/dc/elements/1.1/"
   xmlns:cc="http://creativecommons.org/ns#"
   xmlns:rdf="http://www.w3.org/1999/02/22-rdf-syntax-ns#"
   xmlns:svg="http://www.w3.org/2000/svg"
   xmlns="http://www.w3.org/2000/svg"
   viewBox="0 0 800 534"
   height="534"
   width="800"
   xml:space="preserve"
   version="1.1"
   id="svg2"><metadata
     id="metadata8"><rdf:RDF><cc:Work
         rdf:about=""><dc:format>image/svg+xml</dc:format><dc:type
           rdf:resource="http://purl.org/dc/dcmitype/StillImage" /><dc:title></dc:title></cc:Work></rdf:RDF></metadata><defs
     id="defs6" /><g
     transform="matrix(1.25,0,0,-1.25,0,534)"
     id="g10"><g
       transform="matrix(6.039827,0,0,6.039827,-171.20916,-168.27744)"
       id="g4950"><g
         id="g4943"><path
           id="path164"
           style="fill:#ffffff;fill-opacity:1;fill-rule:nonzero;stroke:none"
           d="m 115.043,79.236 19.267,0 0,19.267 -19.267,0 0,-19.267 z" /><path
           id="path166"
           style="fill:#e2001a;fill-opacity:1;fill-rule:nonzero;stroke:none"
           d="m 115.043,91.593 6.911,0 0,6.911 -6.911,0 0,-6.911 z" /><path
           id="path168"
           style="fill:#e2001a;fill-opacity:1;fill-rule:nonzero;stroke:none"
           d="m 127.399,91.593 6.911,0 0,6.911 -6.911,0 0,-6.911 z" /><path
           id="path170"
           style="fill:#e2001a;fill-opacity:1;fill-rule:nonzero;stroke:none"
           d="m 115.043,79.236 6.911,0 0,6.911 -6.911,0 0,-6.911 z" /><path
           id="path172"
           style="fill:#e2001a;fill-opacity:1;fill-rule:nonzero;stroke:none"
           d="m 127.399,79.236 6.911,0 0,6.911 -6.911,0 0,-6.911 z" /></g><g
         id="g4929"><path
           id="path142"
           style="fill:#e2001a;fill-opacity:1;fill-rule:nonzero;stroke:none"
           d="m 28.3467,88.0573 3.947,3.944 0,-11.08 0.064,0 c 0.872,1.135 2.458,2.006 4.691,2.006 2.779,0 5.982,-1.164 5.982,-5.918 l 0,-10.838 -3.946,0 0,9.705 c 0,2.265 -0.905,3.234 -2.911,3.234 -2.974,0 -3.88,-2.522 -3.88,-4.528 l 0,-8.411 -3.947,0 0,21.886 z" /><path
           id="path144"
           style="fill:#e2001a;fill-opacity:1;fill-rule:nonzero;stroke:none"
           d="m 40.3497,55.3205 c -0.486,1.069 -1.781,2.329 -4.109,2.329 -1.843,0.032 -3.006,-0.614 -3.006,-1.586 0,-2.846 10.32,-0.419 10.32,-6.598 0,-3.945 -3.529,-5.726 -7.279,-5.726 -3.85,0 -6.47,1.326 -7.926,2.977 l 2.976,2.296 c 0.904,-1.326 2.62,-2.037 4.723,-2.037 1.876,0 3.169,1.036 3.169,1.91 0,2.78 -10.123,0.482 -10.123,6.693 0,3.689 3.202,5.306 7.244,5.306 3.913,0 5.984,-2.004 6.761,-2.974 l -2.75,-2.59 z" /><path
           id="path146"
           style="fill:#e2001a;fill-opacity:1;fill-rule:nonzero;stroke:none"
           d="m 95.0027,52.3117 c 0,-4.883 -3.073,-8.569 -8.378,-8.569 -5.305,0 -8.377,3.686 -8.377,8.569 0,4.885 3.072,8.573 8.377,8.573 5.305,0 8.378,-3.688 8.378,-8.573 m -12.616,0 c 0,-2.554 1.425,-4.949 4.238,-4.949 2.814,0 4.236,2.395 4.236,4.949 0,2.555 -1.422,4.95 -4.236,4.95 -2.813,0 -4.238,-2.395 -4.238,-4.95" /><path
           id="path148"
           style="fill:#e2001a;fill-opacity:1;fill-rule:nonzero;stroke:none"
           d="m 103.7587,69.8793 c -0.648,-0.273 -1.445,-0.47 -2.456,-0.47 -2.133,0 -4.173,1.584 -4.237,4.01 l 12.097,0 c 0,5.854 -2.395,9.508 -7.86,9.508 -5.305,0 -8.376,-3.687 -8.376,-8.573 0,-4.395 2.492,-7.811 6.857,-8.452 l 3.975,3.977 z m -2.456,9.814 c 2.654,0 3.72,-2.363 3.72,-3.234 l -7.957,0 c 0.422,1.747 1.939,3.234 4.237,3.234" /><path
           id="path150"
           style="fill:#e2001a;fill-opacity:1;fill-rule:nonzero;stroke:none"
           d="m 115.5682,47.8353 c -0.65,-0.272 -1.445,-0.473 -2.458,-0.473 -2.132,0 -4.172,1.584 -4.235,4.013 l 12.095,0 c 0,5.855 -2.394,9.51 -7.86,9.51 -5.302,0 -8.377,-3.689 -8.377,-8.574 0,-4.396 2.495,-7.809 6.858,-8.45 l 3.977,3.974 z m -2.458,9.814 c 2.653,0 3.72,-2.361 3.72,-3.233 l -7.955,0 c 0.42,1.747 1.939,3.233 4.235,3.233" /><path
           id="path152"
           style="fill:#e2001a;fill-opacity:1;fill-rule:nonzero;stroke:none"
           d="m 60.5925,68.9802 c 0,-1.681 0.387,-2.393 0.613,-2.751 l -4.171,0 c -0.259,0.39 -0.388,1.07 -0.388,1.491 -1.52,-1.23 -3.301,-1.878 -5.337,-1.878 -3.105,0 -5.564,1.973 -5.564,5.145 0,3.203 2.554,4.626 4.98,5.11 l 1.651,0.324 c 1.423,0.289 3.266,0.615 4.27,0.97 l 0,0.485 c 0,1.618 -1.392,2.07 -3.106,2.07 -2.297,0 -3.041,-0.677 -3.041,-2.459 l -3.945,0.163 c 0,3.847 3.395,5.337 6.986,5.337 3.524,0 7.052,-0.712 7.052,-5.37 l 0,-8.637 z m -3.946,5.436 c -0.518,-0.259 -1.164,-0.452 -1.877,-0.581 l -2.167,-0.454 c -1.487,-0.292 -2.716,-0.712 -2.716,-2.264 0,-1.231 1.131,-2.04 2.553,-2.04 1.845,0 4.207,0.907 4.207,3.009 l 0,2.33 z" /><path
           id="path154"
           style="fill:#e2001a;fill-opacity:1;fill-rule:nonzero;stroke:none"
           d="m 60.6647,46.9389 c 0,-1.684 0.386,-2.395 0.613,-2.753 l -4.171,0 c -0.259,0.39 -0.388,1.069 -0.388,1.491 -1.52,-1.23 -3.301,-1.876 -5.337,-1.876 -3.105,0 -5.564,1.97 -5.564,5.143 0,3.202 2.556,4.627 4.981,5.112 l 1.651,0.324 c 1.422,0.29 3.265,0.611 4.269,0.967 l 0,0.485 c 0,1.618 -1.392,2.071 -3.106,2.071 -2.297,0 -3.041,-0.677 -3.041,-2.458 l -3.944,0.163 c 0,3.847 3.394,5.338 6.985,5.338 3.525,0 7.052,-0.711 7.052,-5.372 l 0,-8.635 z m -3.946,5.433 c -0.517,-0.258 -1.164,-0.45 -1.878,-0.582 l -2.166,-0.453 c -1.486,-0.29 -2.716,-0.712 -2.716,-2.261 0,-1.233 1.131,-2.042 2.555,-2.042 1.843,0 4.205,0.904 4.205,3.011 l 0,2.327 z" /><path
           id="path156"
           style="fill:#e2001a;fill-opacity:1;fill-rule:nonzero;stroke:none"
           d="m 62.3665,60.4978 4.174,0 3.266,-11.322 0.065,0 3.268,11.322 4.174,0 -5.404,-16.368 -4.14,0 -5.403,16.368 z" /><path
           id="path158"
           style="fill:#e2001a;fill-opacity:1;fill-rule:nonzero;stroke:none"
           d="m 78.9614,66.171 -3.947,0 0,1.62 -0.064,0 c -0.874,-1.133 -2.459,-2.008 -4.69,-2.008 -2.78,0 -5.983,1.165 -5.983,5.921 l 0,10.835 3.946,0 0,-9.704 c 0,-2.266 0.905,-3.236 2.911,-3.236 2.974,0 3.88,2.168 3.88,4.142 l 0,8.798 3.947,0 0,-16.368 z" /><path
           id="path160"
           style="fill:#e2001a;fill-opacity:1;fill-rule:nonzero;stroke:none"
           d="m 101.7923,47.1531 0,8.676 -3.946,0 0,-12.623 3.946,3.947 z" /><path
           id="path162"
           style="fill:#e2001a;fill-opacity:1;fill-rule:nonzero;stroke:none"
           d="m 84.3881,69.5552 c 0,-1.559 0.434,-2.712 1.553,-3.357 l 3.069,3.07 c -0.547,0.304 -0.674,0.903 -0.674,1.778 l 0,8.279 3.524,0 0,2.846 -3.524,0 0,8.519 -3.948,-3.947 0,-4.572 -2.392,0 0,-2.846 2.392,0 0,-9.77 z" /><path
           id="path174"
           style="fill:#e2001a;fill-opacity:1;fill-rule:nonzero;stroke:none"
           d="m 97.846,58.49 3.947,0 0,3.946 -3.947,0 0,-3.946 z" /></g><g
         id="g4914"><path
           id="path176"
           style="fill:#e2001a;fill-opacity:1;fill-rule:nonzero;stroke:none"
           d="m 28.347,30.005 1.591,0 0,9.284 -1.591,0 0,-9.284 z" /><path
           id="path178"
           style="fill:#e2001a;fill-opacity:1;fill-rule:nonzero;stroke:none"
           d="m 36.0931,34.1337 c -0.145,1.025 -0.776,1.381 -1.473,1.381 -0.841,0 -1.419,-0.488 -1.603,-1.381 l 3.076,0 z m 1.789,-2.655 c -0.816,-1.093 -1.867,-1.671 -3.209,-1.671 -1.723,0 -3.379,1.091 -3.379,3.511 0,2.209 1.42,3.458 3.274,3.458 1.735,0 2.459,-1.039 2.591,-1.236 0.539,-0.763 0.657,-1.906 0.67,-2.563 l -4.865,0 c 0.184,-1.04 0.828,-1.631 1.867,-1.631 1.078,0 1.512,0.631 1.71,0.907 l 1.341,-0.775 z" /><path
           id="path180"
           style="fill:#e2001a;fill-opacity:1;fill-rule:nonzero;stroke:none"
           d="m 44.6068,37.7108 0,-6.141 0.736,0 c 1.315,0 1.776,0.066 2.17,0.211 0.671,0.263 1.381,0.841 1.381,2.773 0,0.869 -0.132,2.289 -1.42,2.906 -0.5,0.224 -0.776,0.239 -1.947,0.251 l -0.92,0 z m -1.736,1.578 3.327,0 c 0.802,-0.014 1.775,-0.027 2.749,-0.724 1.551,-1.091 1.787,-2.958 1.787,-3.996 0,-1.591 -0.538,-3.21 -1.906,-3.999 -0.921,-0.538 -1.893,-0.552 -2.985,-0.565 l -2.972,0 0,9.284 z" /><path
           id="path182"
           style="fill:#e2001a;fill-opacity:1;fill-rule:nonzero;stroke:none"
           d="m 56.9466,39.289 -1.42,-1.75 -1.184,0 0.657,1.75 1.947,0 z m -0.382,-5.155 c -0.144,1.025 -0.776,1.381 -1.473,1.381 -0.841,0 -1.419,-0.488 -1.603,-1.381 l 3.076,0 z m 1.788,-2.656 c -0.815,-1.092 -1.867,-1.671 -3.207,-1.671 -1.724,0 -3.38,1.092 -3.38,3.512 0,2.208 1.42,3.458 3.274,3.458 1.736,0 2.459,-1.039 2.591,-1.237 0.539,-0.762 0.657,-1.906 0.67,-2.563 l -4.865,0 c 0.184,-1.039 0.828,-1.631 1.867,-1.631 1.079,0 1.512,0.631 1.71,0.907 l 1.34,-0.775 z" /><path
           id="path184"
           style="fill:#e2001a;fill-opacity:1;fill-rule:nonzero;stroke:none"
           d="m 62.7887,31.2943 c 0.762,0 1.591,0.526 1.591,2.012 0,1.643 -1.144,1.958 -1.618,1.958 -0.723,0 -1.551,-0.526 -1.577,-1.933 -0.027,-1.354 0.723,-2.037 1.604,-2.037 m -3.156,5.286 1.564,0 0,-0.605 c 0.25,0.262 0.777,0.802 1.803,0.802 1.932,0 2.984,-1.736 2.984,-3.551 0,-1.959 -1.223,-3.419 -2.984,-3.419 -0.908,0 -1.473,0.434 -1.803,0.737 l 0,-2.683 -1.564,0 0,8.719 z" /><path
           id="path186"
           style="fill:#e2001a;fill-opacity:1;fill-rule:nonzero;stroke:none"
           d="m 71.2214,33.2794 c -0.315,-0.158 -0.67,-0.277 -1.381,-0.394 -0.565,-0.08 -1.315,-0.211 -1.315,-0.909 0,-0.512 0.435,-0.775 1.066,-0.775 0.802,0 1.367,0.368 1.538,0.763 0.092,0.197 0.092,0.394 0.092,0.592 l 0,0.723 z m -4.063,1.367 c 0.027,0.328 0.053,0.605 0.263,0.986 0.632,1.145 2.196,1.145 2.617,1.145 0.631,0 1.393,-0.08 1.972,-0.421 0.776,-0.474 0.789,-1.092 0.789,-1.802 l 0,-3.484 c 0,-0.5 0,-0.672 0.289,-1.066 l -1.867,0 c -0.013,0.157 -0.039,0.422 -0.039,0.513 -0.342,-0.289 -1.039,-0.67 -1.947,-0.67 -1.485,0 -2.379,0.92 -2.379,2.051 0,0.329 0.079,0.631 0.21,0.895 0.473,0.946 1.486,1.156 2.117,1.274 1.354,0.277 1.46,0.302 2.038,0.487 0,0.329 -0.026,1 -1.117,1 -0.658,0 -1.013,-0.211 -1.17,-0.42 -0.171,-0.212 -0.158,-0.396 -0.158,-0.58 l -1.618,0.092 z" /><path
           id="path188"
           style="fill:#e2001a;fill-opacity:1;fill-rule:nonzero;stroke:none"
           d="m 75.7355,36.5803 0,-0.934 c 0.198,0.342 0.631,1.117 2.104,1.079 l 0,-1.619 c -0.342,-0.013 -0.934,-0.025 -1.42,-0.393 -0.671,-0.513 -0.684,-1.185 -0.684,-2.276 l 0,-2.432 -1.525,0 0,6.575 1.525,0 z" /><path
           id="path190"
           style="fill:#e2001a;fill-opacity:1;fill-rule:nonzero;stroke:none"
           d="m 81.2083,35.4482 0,-2.971 c 0,-0.815 0,-1.17 0.749,-1.17 0.237,0 0.434,0.012 0.657,0.079 l 0,-1.329 c -0.472,-0.079 -0.788,-0.104 -1.143,-0.104 -0.329,0 -1.433,0 -1.735,0.801 -0.106,0.263 -0.106,0.684 -0.106,1.342 l 0,3.352 -0.96,0 0,1.132 0.96,0 0,2.326 1.578,0 0,-2.326 1.406,0 0,-1.132 -1.406,0 z" /><path
           id="path192"
           style="fill:#e2001a;fill-opacity:1;fill-rule:nonzero;stroke:none"
           d="m 88.2581,34.1337 c -0.145,1.025 -0.775,1.381 -1.472,1.381 -0.842,0 -1.421,-0.488 -1.605,-1.381 l 3.077,0 z m 1.789,-2.655 c -0.815,-1.093 -1.867,-1.671 -3.209,-1.671 -1.722,0 -3.379,1.091 -3.379,3.511 0,2.209 1.421,3.458 3.274,3.458 1.736,0 2.459,-1.039 2.59,-1.236 0.539,-0.763 0.657,-1.906 0.672,-2.563 l -4.866,0 c 0.184,-1.04 0.828,-1.631 1.867,-1.631 1.078,0 1.512,0.631 1.71,0.907 l 1.341,-0.775 z" /><path
           id="path194"
           style="fill:#e2001a;fill-opacity:1;fill-rule:nonzero;stroke:none"
           d="m 91.3136,36.5803 1.565,0 0,-0.737 c 0.525,0.658 1.459,0.934 2.078,0.934 0.618,0 1.393,-0.237 1.827,-1.013 0.263,0.368 0.947,1.013 2.104,1.013 0.657,0 1.289,-0.185 1.735,-0.672 0.527,-0.578 0.513,-1.275 0.513,-1.958 l 0,-4.142 -1.564,0 0,3.629 c 0,0.618 0.092,1.657 -1.104,1.657 -0.5,0 -0.908,-0.277 -1.119,-0.618 -0.302,-0.488 -0.341,-1.013 -0.341,-1.579 l 0,-3.089 -1.565,0 0,3.668 c 0,0.474 0,0.645 -0.053,0.841 -0.119,0.435 -0.46,0.777 -1.012,0.777 -0.474,0 -0.934,-0.277 -1.21,-0.762 -0.276,-0.513 -0.289,-1.131 -0.289,-1.776 l 0,-2.748 -1.565,0 0,6.575 z" /><path
           id="path196"
           style="fill:#e2001a;fill-opacity:1;fill-rule:nonzero;stroke:none"
           d="m 107.2964,34.1337 c -0.145,1.025 -0.776,1.381 -1.473,1.381 -0.841,0 -1.42,-0.488 -1.604,-1.381 l 3.077,0 z m 1.788,-2.655 c -0.815,-1.093 -1.867,-1.671 -3.208,-1.671 -1.723,0 -3.379,1.091 -3.379,3.511 0,2.209 1.419,3.458 3.274,3.458 1.735,0 2.458,-1.039 2.59,-1.236 0.539,-0.763 0.658,-1.906 0.671,-2.563 l -4.865,0 c 0.183,-1.04 0.828,-1.631 1.866,-1.631 1.079,0 1.513,0.631 1.71,0.907 l 1.341,-0.775 z" /><path
           id="path198"
           style="fill:#e2001a;fill-opacity:1;fill-rule:nonzero;stroke:none"
           d="m 110.3378,36.5803 1.591,0 0,-0.776 c 0.079,0.118 0.237,0.328 0.512,0.512 0.395,0.289 1,0.461 1.513,0.461 0.749,0 1.394,-0.342 1.723,-0.789 0.407,-0.553 0.407,-1.263 0.407,-2.117 l 0,-3.866 -1.565,0 0,3.353 c 0,0.486 0,0.815 -0.052,0.998 -0.144,0.579 -0.565,0.882 -1.078,0.882 -0.513,0 -0.986,-0.303 -1.21,-0.736 -0.25,-0.486 -0.25,-1.158 -0.25,-1.644 l 0,-2.853 -1.591,0 0,6.575 z" /><path
           id="path200"
           style="fill:#e2001a;fill-opacity:1;fill-rule:nonzero;stroke:none"
           d="m 119.5598,35.4482 0,-2.971 c 0,-0.815 0,-1.17 0.75,-1.17 0.236,0 0.433,0.012 0.657,0.079 l 0,-1.329 c -0.473,-0.079 -0.789,-0.104 -1.144,-0.104 -0.329,0 -1.433,0 -1.735,0.801 -0.106,0.263 -0.106,0.684 -0.106,1.342 l 0,3.352 -0.96,0 0,1.132 0.96,0 0,2.326 1.578,0 0,-2.326 1.407,0 0,-1.132 -1.407,0 z" /></g></g></g></svg>