<svg height="38.73135" width="90.994499" xmlns="http://www.w3.org/2000/svg"><g transform="translate(-310.88759 -613.17149)"><path d="m329.44834 627.33161-11.38 11.38.46375.465 11.37875-11.3825z" fill="#39a642"/><path d="m328.52309 626.40449-11.38 11.38.46125.465 11.38125-11.38125z" fill="#39a642"/><path d="m327.59672 625.47974-11.38 11.38125.46375.4625 11.37875-11.38125z" fill="#39a642"/><path d="m326.67134 624.55386-11.38125 11.38.465.465 11.37875-11.38125z" fill="#39a642"/><path d="m325.74484 623.62736-11.38 11.38.46375.465 11.38-11.38125z" fill="#39a642"/><path d="m324.81821 622.70211-11.37875 11.38125.4625.4625 11.38125-11.38125z" fill="#39a642"/><path d="m328.40722 615.18011-5.095 5.09375 11.38125 11.38125c.59125-.59125 4.50375-4.50375 5.09375-5.09625z" fill="#39a642"/><path d="m335.46659 621.31224.46375.465 3.5175-3.51875v-.92625z" fill="#39a642"/><path d="m334.34946 613.17149c-.0613.0625-1.9325 1.9325-1.9325 1.9325l-1.58125 1.58125.46625.4625 3.9725-3.97625z" fill="#39a642"/><path d="m334.54009 620.38699.46375.46375 4.44375-4.44375v-.92625z" fill="#39a642"/><path d="m333.61596 619.46236.4625.4625 5.36875-5.36875v-.9275z" fill="#39a642"/><path d="m338.05434 613.17149-5.36625 5.365.465.4625 5.82625-5.8275z" fill="#39a642"/><path d="m336.20147 613.17149-4.4375 4.4375.46125.46375 4.90125-4.90125z" fill="#39a642"/><path d="m338.04709 620.58299 1.4 1.3975v-2.795z" fill="#39a642"/><path d="m330.63747 613.17149 1.3925 1.395 1.395-1.395z" fill="#39a642"/><g fill="#0072ba"><path d="m325.51297 633.11836-5.09375 5.095 11.38125 11.38c.59-.59 4.50125-4.50375 5.09375-5.095z"/><path d="m319.69634 623.58461h-8.80875v8.80875l1.85625-1.855 1.6575 1.6575 5.095-5.095-1.57875-1.735z"/><path d="m346.30621 630.22462-11.38 11.38125.4625.4625 11.38125-11.37875z"/><path d="m345.38109 629.29874-11.38 11.38.46375.46375 11.38-11.38125z"/><path d="m344.45459 628.37349-11.37875 11.38.4625.46125 11.37875-11.37875z"/><path d="m343.53046 627.44699-11.38125 11.38.465.465 11.3775-11.3825z"/><path d="m342.60521 626.52161-11.38125 11.38.4625.4625 11.38-11.38z"/><path d="m341.67746 625.59574-11.38 11.38.46375.465 11.3775-11.3825z"/><path d="m328.90509 647.62512-3.9775 3.98125h.925l3.515-3.51625z"/><path d="m324.27634 642.99561c-.325.325-1.58 1.58-1.58 1.58l-1.9325 1.93375v.925l3.975-3.97375c-.11875-.12-.34375-.34625-.4625-.465"/><path d="m327.98122 646.70112-4.90625 4.905h.925l4.44375-4.44375z"/><path d="m327.05346 645.77336-5.83125 5.8325h.925l5.37125-5.36875z"/><path d="m326.12922 644.84686-5.365 5.36375v.9275l5.82625-5.82625z"/><path d="m325.20409 643.92162-4.44 4.44v.925l4.90125-4.90125z"/><path d="m328.17534 650.20811-1.3975 1.3975h2.79625z"/><path d="m320.76446 642.79612v2.7875l1.3925-1.395z"/><path d="m356.28684 627.67161-1.215.355-.62875-3.8175c-.07-.415-.25375-.70875-.555-.88125-.30875-.1625-.68125-.20875-1.115-.13625-.4975.0813-.89.275-1.18875.57625-.30375.30375-.4175.67125-.3475 1.10125l.585 3.54-1.19875.3525-1.325-8.02 1.1975-.36375.46375 2.80125c.295-.2925.5875-.525.88125-.69.28-.1675.61375-.2825.99375-.345.8-.1325 1.45375-.0112 1.97.36375.475.34125.76875.8375.8775 1.495z"/><path d="m362.43071 624.43849c-.0637-.3125-.275-.54-.6325-.68-.36625-.1325-.7375-.1625-1.10625-.0875-.415.0825-.7525.24-1.01875.47-.31375.27125-.4375.57375-.36875.91.0788.39875.29125.6625.64.7925.30625.1125.70125.12125 1.18875.025.405-.0825.74375-.25625 1.01125-.52125.26-.26125.35375-.56375.28625-.90875m1.55375 1.7325-1.17375.37875-.13125-.665c-.1525.2925-.36125.53125-.62625.71375-.27625.18625-.59875.3175-.96875.3925-.775.155-1.44.0775-1.99625-.23375-.56375-.29875-.9125-.7875-1.04875-1.46-.11375-.57375.035-1.11375.44625-1.6225.40875-.50375.99625-.83375 1.7525-.985.35125-.07.67625-.09.97375-.0612.2925.0375.58375.135.8725.28875l-.0925-.46875c-.0725-.365-.2875-.58875-.64125-.66875-.26875-.0587-.65625-.0362-1.16375.065-.30625.06-.62125.1575-.94625.28625-.32875.13625-.63375.2975-.91875.48125l.045-1.205c.305-.13625.64375-.2625 1.0125-.38125.37-.1175.70375-.205 1.005-.26375.72375-.14625 1.3225-.10625 1.8.11875.54625.25625.89125.73625 1.03 1.44125l.77 3.84875z"/><path d="m372.05346 624.35374-1.19625.40375-.17-.78125c-.24375.36875-.5075.65625-.79375.86125-.29375.21375-.66625.37-1.11375.46875-.67625.145-1.255.0812-1.73625-.195-.515-.295-.84875-.77875-.99375-1.4475l-.81125-3.71875 1.1775-.42125.8475 3.88125c.07.32625.25875.5575.5625.69.30375.13375.6625.15625 1.07625.0662.545-.12.9375-.3725 1.1725-.76125.24-.38625.3-.855.17875-1.4075l-.65375-2.99875 1.1925-.425 1.26125 5.785z"/><path d="m377.66621 621.95624.0275 1.1c-.0638.0325-.12125.0538-.175.0688-.30375.10875-.57875.195-.8225.2575-.64375.1625-1.175.13125-1.59625-.0962-.45125-.2475-.7625-.715-.94-1.405l-.73125-2.88-1.01625.2575.19-1.105.575-.145-.37125-1.455 1.13-.5925.4425 1.74125 1.835-.46625.2525.9925-1.83625.46625.73125 2.88c.17.665.64375.8975 1.4275.69875.25125-.0638.495-.145.73-.2425.0412-.0113.0925-.0362.1475-.075"/><path d="m382.44896 616.83724c-.39375-.1725-.8275-.1875-1.305-.0487-.5925.1725-1.05125.51-1.37375 1.01-.32875.5125-.41625 1.03125-.26375 1.55625l.0875.1975 2.855-2.715zm1.84375-.31875-4.0375 3.815c.29125.2275.58125.37875.87625.455.37625.095.7725.0812 1.19625-.0438.46375-.13375.89125-.3575 1.27875-.66375.30375-.24375.63-.58.98125-1.00875l.58375 1.03875c-.35.40875-.72125.75-1.11375 1.02625-.40625.27875-.86.49125-1.3625.6375-.98875.2875-1.91.245-2.76-.13125-.84875-.38-1.39375-.99-1.6375-1.82875-.24375-.8275-.1125-1.635.38625-2.42125.495-.78 1.2175-1.31 2.175-1.5875.62875-.185 1.25625-.21125 1.88375-.0825.625.12625 1.1425.3925 1.55.795"/><path d="m364.43259 637.91937c.09.51375-.0575.97375-.4425 1.37375-.39375.4075-.925.66875-1.59875.785-.49625.0862-.9375.0812-1.32625-.015-.40125-.0963-.7825-.29-1.15125-.58l.78375-.8c.205.13875.42875.2375.67875.2975.2475.0675.5025.08.76125.0337.30875-.0538.55875-.15125.7425-.29625.2275-.17625.32125-.38625.27625-.6325-.0612-.36875-.66375-.5925-1.79875-.675-1.13625-.0825-1.775-.53-1.915-1.34625-.0888-.5025.0675-.96375.46875-1.3825.3925-.40875.90375-.66875 1.5325-.7775.37125-.065.74625-.0587 1.12375.0213.37125.0775.7125.21125 1.02625.4l-.64625.9075c-.21375-.13-.4325-.2275-.6525-.29125-.23125-.065-.46-.075-.69375-.0362-.275.0475-.50625.14875-.68875.3-.1825.15625-.25375.35625-.20875.60375.0575.35.65625.56375 1.7925.64375 1.1375.0838 1.78125.57125 1.93625 1.46625"/><path d="m370.31997 636.28362c-.0675-.31375-.27625-.54-.635-.6775-.36875-.13-.73625-.15875-1.1075-.0825-.41375.0837-.7525.2425-1.01625.47375-.3125.2725-.43625.57625-.36625.9125.08.3975.295.66125.64375.78875.30625.1125.70375.11875 1.18875.0187.40625-.0825.7425-.2575 1.00875-.525.2575-.26.35375-.56375.28375-.90875m1.56125 1.725-1.17125.38375-.13625-.665c-.15.29375-.35875.53375-.6225.7175-.275.18875-.595.32125-.965.395-.77625.16-1.44125.085-1.99875-.22125-.56375-.29875-.915-.78375-1.05375-1.4575-.11875-.57375.0275-1.11375.43625-1.6225.41-.50875.9925-.84 1.75125-.995.35-.0713.675-.0937.975-.065.29125.0362.58.13125.8725.285l-.0962-.46875c-.0763-.36375-.2925-.5875-.645-.6675-.26875-.055-.65625-.03-1.16.0725-.31.0625-.625.15875-.9475.29125-.32875.13625-.63375.29875-.91625.485l.04-1.20625c.3025-.1375.63875-.265 1.01-.38625.37125-.11625.70375-.2075 1.0025-.26875.72375-.1475 1.3225-.11 1.8025.1125.5475.25125.89.73125 1.035 1.43625l.7875 3.845z"/><path d="m379.19209 633.20924c-.1425-.54625-.48625-.95875-1.03125-1.23625-.5475-.27875-1.13875-.335-1.775-.17-.62625.1625-1.1125.4975-1.4525 1.00625-.345.50875-.445 1.03625-.3 1.58125.1425.56.4875.975 1.03125 1.2475s1.1325.325 1.77.15875c.66375-.17125 1.16125-.49375 1.4925-.9675.33375-.475.4225-1.015.265-1.62m-.9675-3.66125-.96625.35875-1.3375-.3975-1.07125 1.02125-1.0675.16875 1.91875-2.035zm2.19875 3.3475c.2325.8925.0925 1.70875-.42375 2.4475-.5175.74625-1.2775 1.24875-2.275 1.5075-1.00875.26125-1.9275.1925-2.75375-.205-.825-.3975-1.35-1.03125-1.57875-1.90125-.215-.84-.0525-1.645.49-2.42.535-.7575 1.28-1.2625 2.235-1.51.98125-.25375 1.88875-.1825 2.725.215.835.3975 1.3625 1.02 1.58125 1.86625"/><path d="m388.72084 633.77449-1.17.48-1.05-3.82125c-.10875-.39875-.31375-.6525-.61875-.76625-.31-.1075-.68375-.10125-1.1275.02-.49375.135-.86125.395-1.10375.7775-.24.3825-.285.84125-.13875 1.3775l.86 3.1275-1.155.47375-1.56875-5.7075 1.155-.47875.215.7875c.195-.38125.4275-.685.70125-.915.275-.2225.6275-.39375 1.06125-.51125.72-.19875 1.34625-.1625 1.88.105.52375.2775.875.735 1.05 1.375z"/><path d="m393.94434 627.32249c-.39875-.1575-.835-.16125-1.305-.006-.58875.19-1.0375.54125-1.34125 1.0525-.3125.52125-.38375 1.0425-.215 1.56125l.0912.19625 2.77-2.80375zm1.83375-.37375-3.91625 3.93875c.295.21625.59375.35875.88875.42625.37875.0825.775.055 1.19625-.08.45875-.15.87875-.385 1.25625-.705.29375-.2525.61-.59875.95-1.03875l.61625 1.02125c-.3375.4175-.69875.77125-1.08375 1.06-.3975.29125-.8425.5175-1.34.67875-.9825.32-1.9025.305-2.765-.045-.85875-.35375-1.4225-.945-1.69375-1.77625-.2675-.81875-.16375-1.63.31125-2.43.47-.7975 1.17625-1.35 2.12375-1.65625.6225-.20375 1.25-.25125 1.88125-.14125.63.10625 1.155.35625 1.575.7475"/></g><path d="m401.06709 616.57599c-3.69625 2.185-16.2825 7.01-32.5675 10.4775-11.94875 2.94-32.41625 5.91875-36.715 4.9-.6025-.15125-.225.075-1.65625.6775 0 0 0 .755.97875 1.13375 2.6125 1.0025 19.45-.1525 35.585-3.9975 23.065-4.975 34.61625-10.27375 35.1275-11.2325 0 0-.5275-2.035-.7525-1.95875" fill="#f9b51d"/><path d="m401.06709 616.57599c-3.69625 2.185-16.2825 7.01-32.5675 10.4775-11.94875 2.94-32.41625 5.91875-36.715 4.9-.6025-.15125-.225.075-1.65625.6775 0 0 0 .755.97875 1.13375 2.6125 1.0025 19.45-.1525 35.585-3.9975 23.065-4.975 34.61625-10.27375 35.1275-11.2325 0 0-.5275-2.035-.7525-1.95875z" fill="none" stroke="#fff" stroke-width=".1075"/><path d="m340.77171 651.79024v-.20125c.1175-.0675.23-.14625.335-.2375.0263-.7.0412-1.43125.0412-2.19125 0-.5975-.005-1.16125-.0163-1.69125-.007-.3775-.0213-.595-.045-.6525-.0112-.0325-.0325-.0575-.0662-.075-.0325-.0163-.18875-.0388-.4675-.0675v-.32625c.41375.0137.7975.02 1.15.02.34375 0 .6675-.006.97375-.02v.32625c-.29375.0225-.46375.0538-.50875.0925-.0263.0238-.0462.0713-.0587.1425-.0113.07-.02.48875-.0263 1.255l-.02 1.88875c0 .355.008.76375.0225 1.23.27875.0175.48625.0263.62125.0263.4025 0 .7425-.0388 1.0175-.11625.0562-.2325.1125-.51125.1675-.83375h.2825c-.0475.3775-.0913.845-.12875 1.405-.20375.0175-.39.0263-.56125.0263l-1.1625-.0175-.52-.009c-.23875-.003-.58375.006-1.03.0263" fill="#39a642"/><path d="m344.73172 651.79024v-.20875c.11375-.0625.2175-.135.3125-.2175.0425-.40375.0638-1.25125.0638-2.545 0-.8825-.008-1.46625-.0225-1.75375-.007-.1525-.0288-.24875-.0662-.28875-.0375-.04-.19625-.0738-.47625-.1025v-.32625c.505.0237.90375.035 1.1975.035l1.76875-.035c.185 0 .35375.009.50375.0275l.0225.0438c-.0487.28375-.0825.6625-.1025 1.135h-.255c-.01-.3775-.0225-.57875-.0362-.605-.015-.0263-.0638-.05-.14625-.0738-.17875-.0462-.45-.07-.81625-.07-.18 0-.39.01-.63.0275-.0275.79875-.0437 1.435-.0475 1.90875.22875.0187.44375.0275.645.0275.29875 0 .47625-.0125.53625-.035.0362-.0162.0625-.0537.0775-.1125.0125-.0462.0275-.21.045-.48875h.27625c-.0113.4375-.015.7225-.015.855l.015.875h-.27625c-.015-.34-.035-.5375-.0575-.58875-.0125-.0312-.0425-.0538-.0875-.0663-.1075-.0287-.3475-.0437-.7225-.0437-.1175 0-.25625.01-.415.0275-.004.13625-.006.27625-.006.4175 0 .73625.0113 1.30375.0325 1.7l.6375.0125c.3625 0 .69375-.0238.99375-.07.0537-.24.105-.51125.155-.815h.26625c-.0487.46125-.0775.9025-.0863 1.3275-.195.0175-.3825.0263-.56125.0263-.11875 0-.35125-.004-.69875-.0138-.32375-.009-.62-.0125-.8925-.0125-.3575 0-.735.009-1.13125.0263" fill="#39a642"/><path d="m351.57984 651.30924c.18.0387.36375.0587.55125.0587.47875 0 .8425-.0838 1.0925-.24875.2525-.165.455-.435.61-.81125s.2325-.83875.2325-1.38625c0-.72125-.15375-1.27-.4625-1.6475-.2725-.33625-.71625-.50375-1.3325-.50375-.13375 0-.36375.0125-.69125.0388l-.0263 2.41625c0 1.0175.009 1.7125.0263 2.08375m-1.30125.48125v-.20125c.1475-.10375.2525-.18125.315-.2325.0288-.455.045-1.30625.045-2.555 0-.54-.005-.99125-.015-1.355-.009-.3625-.0238-.57-.0437-.62125-.009-.0262-.0213-.0462-.0412-.0587-.0312-.02-.18875-.0512-.4725-.0925v-.32625c.32375.0138.695.0188 1.115.0188l1.58375-.0188c.57625 0 1.01375.0875 1.3125.26375s.53625.445.71125.8075c.17625.36125.26375.80125.26375 1.3175 0 .66625-.13625 1.23875-.41125 1.71875-.275.48125-.6075.825-1.0025 1.02875-.39375.20375-.815.30625-1.2625.30625l-1.2175-.0275c-.195 0-.48875.01-.88.0275" fill="#39a642"/><path d="m357.10959 645.96749h-.3175l.74375-.86875c.175-.20375.29375-.3275.355-.37.06-.0425.125-.0638.19-.0638.0812 0 .1475.0288.1975.0863.05.0587.075.13125.075.22 0 .0775-.02.1425-.0625.1975-.0412.0538-.1725.15125-.3925.29125zm-1.43 5.8225v-.20875c.11375-.0625.2175-.135.3125-.2175.0437-.40375.0637-1.25125.0637-2.545 0-.88125-.007-1.46625-.0213-1.75375-.007-.1525-.03-.24875-.0662-.28875-.0375-.04-.19625-.0738-.4775-.1025v-.32625c.505.0237.905.0362 1.1975.0362l1.76875-.0362c.18625 0 .35375.01.50375.0275l.0225.0437c-.0475.28375-.0813.66375-.1025 1.13625h-.25375c-.0113-.37875-.0238-.58-.0362-.60625-.015-.025-.0638-.05-.1475-.0725-.1775-.0475-.45-.0713-.81625-.0713-.17875 0-.38875.01-.63.0275-.0263.8-.0437 1.435-.0475 1.90875.23.0188.445.0275.64625.0275.2975 0 .47625-.0125.535-.035.0375-.015.0625-.0538.0788-.1125.0125-.0462.0263-.20875.0437-.48875h.2775c-.0113.43875-.0163.72375-.0163.855l.0163.875h-.2775c-.015-.34-.0337-.53625-.0575-.58875-.0125-.0312-.0412-.0537-.0862-.0662-.1075-.0288-.34875-.0425-.7225-.0425-.11875 0-.25625.009-.415.0263-.004.13625-.006.27625-.006.4175 0 .73625.0112 1.30375.0312 1.7l.63875.0125c.3625 0 .69375-.0237.99375-.07.0537-.23875.105-.51125.155-.815h.26625c-.0487.46125-.0788.9025-.0875 1.3275-.195.0175-.38125.0263-.56125.0263-.11875 0-.35-.004-.6975-.0137-.32375-.009-.62125-.0125-.8925-.0125-.3575 0-.735.009-1.1325.0263" fill="#39a642"/><path d="m359.44109 651.79024v-.325c.255-.0237.4-.0488.435-.0738.025-.0163.0438-.0437.0575-.0825.0213-.0638.0362-.33125.0463-.8025.009-.47.0137-.9275.0137-1.37 0-.82375-.006-1.41375-.02-1.76875-.015-.35375-.0375-.55125-.0675-.59375-.0312-.04-.125-.0675-.27875-.0813l-.18625-.0187v-.32625l.36375.0162c.225.008.4025.0113.53625.0113.18125 0 .47625-.005.88-.0163.21875-.007.38-.0112.4825-.0112.3825 0 .66625.0437.84875.13125.18375.0875.3225.22.41875.39875.095.1775.1425.39875.1425.66375 0 .47875-.14125.88125-.42125 1.20375-.2825.32375-.64125.485-1.07625.485-.055 0-.115-.005-.17625-.015-.0613-.01-.12875-.025-.2-.0425-.0362-.0925-.0738-.1825-.115-.27l.0738-.095c.0475.0113.0913.0213.13125.0275.0387.008.0738.0113.1075.0113.21625 0 .3925-.09.53-.27.13625-.18.20625-.43125.20625-.75375 0-.36-.0725-.62875-.21375-.805-.1425-.1775-.35-.26625-.625-.26625-.11125 0-.2425.0187-.39375.0588-.02.795-.0312 1.47-.0312 2.0225 0 .18625.009.77875.025 1.78.006.395.0175.6225.0337.68125.009.0438.03.075.0612.0937.0463.0275.2275.0538.545.0775v.325c-.38-.0175-.69875-.0263-.9575-.0263-.115 0-.5075.009-1.17625.0263" fill="#39a642"/><path d="m365.45671 647.67336-.67875 1.995c.1975.0125.415.02.6525.02.24875 0 .48625-.007.71375-.02zm-2.10875 3.76375c.2025-.0125.32625-.0375.3725-.0738.0325-.025.0838-.12375.15125-.295.13125-.335.29875-.8025.50125-1.4l1.1375-3.36375h.4725l1.4525 4.1675c.1875.525.30375.81375.3475.86375.0437.05.18.0838.4075.10125v.3525c-.35-.0175-.67875-.0263-.98875-.0263-.37 0-.72375.009-1.0575.0263v-.3525c.255-.0125.4025-.03.44125-.0512.0412-.0213.06-.06.06-.115 0-.0487-.045-.2125-.135-.4925l-.21125-.64875c-.26625-.007-.5625-.0112-.89125-.0112-.28625 0-.54625.004-.77875.0112l-.14125.43625c-.0387.11875-.0863.295-.14125.53-.0125.0538-.0187.10125-.0187.145 0 .0575.02.0987.0612.1225.0425.0238.1925.0488.4525.0738v.3525c-.21-.0175-.47125-.0263-.78375-.0263-.2975 0-.53375.009-.71.0263v-.3525z" fill="#39a642"/><path d="m368.43047 651.79024v-.325c.2475-.0263.39125-.0512.4275-.0738.0225-.0163.04-.0412.0512-.0738.02-.0625.035-.2725.045-.62875.01-.55375.0162-.98875.0162-1.3075 0-.43-.005-.975-.0137-1.6375-.009-.49375-.03-.79625-.0613-.9075-.009-.0338-.025-.0588-.0512-.0775-.0337-.025-.1725-.0538-.41375-.085v-.32625c.4425.0187.72875.0275.8575.0275l1.61-.0275c.34875 0 .6025.0412.7625.1225.16.0812.28625.21125.38.39125.0925.17875.13875.39.13875.6325 0 .31125-.075.5825-.22375.81625s-.4075.44-.775.62125l.68375 1.245.53375.955c.10125.155.175.24875.225.28125s.12875.0488.24125.0525v.29875l-.19.002c-.54375.006-.89375.0138-1.05.0238-.1875-.35875-.465-.88-.83625-1.5625l-.6625-1.215c.02-.0438.0362-.09.05-.13875.085.0125.14875.0187.18875.0187.19875 0 .395-.0975.58875-.29125.1925-.195.28875-.47125.28875-.83125 0-.31375-.0762-.5575-.23-.73125-.1525-.17375-.38-.26-.685-.26-.0975 0-.2275.009-.39375.0263l-.02 1.14625-.0275 1.45125c0 .32875.0113.75.0312 1.2625.0175.385.035.60125.0512.64875.0125.0338.0375.06.07.0812.045.03.19.0538.435.07v.325c-.385-.0175-.725-.0263-1.02375-.0263-.315 0-.65625.009-1.01875.0263" fill="#39a642"/><path d="m373.98709 651.79024v-.325c.1225 0 .24875-.0137.3825-.04.0612-.0125.10625-.0338.13125-.0638.0263-.0288.045-.0838.0575-.165.0163-.11.0275-.51875.0387-1.22375.006-.50125.01-1.01375.01-1.535 0-1.02625-.003-1.54875-.009-1.56875-.005-.0188-.08-.0288-.22625-.0288-.29875 0-.55625.01-.77.0312-.12375.0137-.195.0263-.21125.0388-.015.0125-.0288.0362-.0375.0675-.009.0325-.0263.26-.0537.68125h-.27625c.004-.495-.006-.92125-.0325-1.28l.035-.0312c.675.0387 1.33125.0587 1.97.0587.635 0 1.34875-.02 2.1375-.0587l.0337.0625c-.04.355-.07.77125-.0863 1.24875h-.26625c-.02-.43625-.0401-.6725-.0575-.70875-.0163-.0288-.05-.0488-.10375-.0588-.17125-.0337-.51125-.0512-1.0225-.0512-.0425 0-.0675.008-.0762.0237-.009.0175-.0125.0863-.0125.20625l-.0187 2.60875c0 .75625.004 1.22.015 1.39125.0113.1725.0375.2775.0788.3125.0275.0237.19625.0512.50625.0825v.325c-.315-.0175-.65-.0263-1.00375-.0263-.46625 0-.84375.009-1.1325.0263" fill="#39a642"/><path d="m377.65034 651.79024v-.20875c.11375-.0625.2175-.135.3125-.2175.0425-.40375.0637-1.25125.0637-2.545 0-.8825-.007-1.46625-.0225-1.75375-.007-.1525-.0288-.24875-.0663-.28875s-.19625-.0738-.47625-.1025v-.32625c.505.0237.90375.035 1.1975.035l1.76875-.035c.185 0 .35375.009.50375.0275l.0225.0438c-.0487.28375-.0825.6625-.1025 1.135h-.255c-.01-.3775-.0225-.57875-.0362-.605-.015-.0263-.0637-.05-.14625-.0738-.17875-.0462-.45-.07-.81625-.07-.18 0-.39.01-.63.0275-.0275.79875-.0438 1.435-.0475 1.90875.22875.0187.44375.0275.645.0275.29875 0 .47625-.0125.53625-.035.0362-.0162.0625-.0537.0775-.1125.0125-.0462.0275-.21.045-.48875h.27625c-.0113.4375-.015.7225-.015.855l.015.875h-.27625c-.015-.34-.035-.5375-.0575-.58875-.0125-.0312-.0425-.0538-.0875-.0663-.1075-.0287-.3475-.0437-.7225-.0437-.1175 0-.25625.01-.415.0275-.004.13625-.006.27625-.006.4175 0 .73625.0113 1.30375.0325 1.7l.6375.0125c.3625 0 .69375-.0238.99375-.07.0537-.24.105-.51125.155-.815h.26625c-.0487.46125-.0775.9025-.0863 1.3275-.195.0175-.3825.0263-.56125.0263-.11875 0-.35125-.004-.69875-.0138-.32375-.009-.62-.0125-.8925-.0125-.3575 0-.735.009-1.13125.0263" fill="#39a642"/><path d="m381.36622 651.79024v-.325l.19125-.0163c.15625-.01.25375-.0425.29375-.0975.0387-.0538.0625-.2375.0675-.55.015-.63875.0238-1.32875.0238-2.07375 0-.395-.002-.845-.005-1.34875-.004-.305-.0188-.49-.0438-.5575-.0125-.0338-.0362-.0613-.0712-.0825-.0337-.02-.185-.0425-.45625-.065v-.32625c.25875.007.5125.0112.76.0112.29 0 .56875-.004.835-.0112.115.32875.23625.65375.36.9775.0888.23.47625 1.205 1.16625 2.92625.73-1.7675 1.24-3.06875 1.5325-3.90375.25625.0137.5.02.73125.02.27 0 .53125-.006.785-.02v.32625c-.28125.02-.44.05-.47625.0888-.0362.0387-.06.1575-.07.3575-.0163.325-.0238.94375-.0238 1.85625 0 .46.004.945.0112 1.4575.007.51125.0225.80125.0438.8675.015.0388.0375.0688.0637.09.0288.02.17875.045.45125.0738v.325c-.3475-.0175-.6575-.0263-.93-.0263s-.64625.009-1.1175.0263v-.325l.19-.009c.14875-.008.24375-.0325.28125-.075s.0613-.155.0713-.3375c.0112-.1825.0162-.6125.0162-1.28875v-2.34125c-.33.79875-.75 1.8475-1.26375 3.1425-.21.5325-.37375.9675-.49125 1.30375h-.2125c-.16-.445-.37625-1.0075-.64625-1.6875l-1.1125-2.75875v.52625c0 1.4575.006 2.4625.015 3.0125.007.2225.0325.36.075.41125.0425.0513.2025.085.47875.10125v.325c-.21875-.0175-.43625-.0263-.655-.0263-.32375 0-.61375.009-.86875.0263" fill="#39a642"/><path d="m388.11784 651.79024v-.20875c.11375-.0625.2175-.135.3125-.2175.0425-.40375.0638-1.25125.0638-2.545 0-.8825-.008-1.46625-.0225-1.75375-.007-.1525-.0288-.24875-.0662-.28875-.0375-.04-.19625-.0738-.47625-.1025v-.32625c.505.0237.90375.035 1.1975.035l1.76875-.035c.185 0 .35375.009.50375.0275l.0225.0438c-.0487.28375-.0825.6625-.1025 1.135h-.255c-.01-.3775-.0225-.57875-.0362-.605-.015-.0263-.0638-.05-.14625-.0738-.17875-.0462-.45-.07-.81625-.07-.18 0-.39.01-.63.0275-.0275.79875-.0437 1.435-.0475 1.90875.22875.0187.44375.0275.645.0275.29875 0 .47625-.0125.53625-.035.0362-.0162.0625-.0537.0775-.1125.0125-.0462.0275-.21.045-.48875h.27625c-.0113.4375-.015.7225-.015.855l.015.875h-.27625c-.015-.34-.035-.5375-.0575-.58875-.0125-.0312-.0425-.0538-.0875-.0663-.1075-.0287-.3475-.0437-.7225-.0437-.1175 0-.25625.01-.415.0275-.004.13625-.006.27625-.006.4175 0 .73625.0113 1.30375.0325 1.7l.6375.0125c.3625 0 .69375-.0238.99375-.07.0538-.24.105-.51125.155-.815h.26625c-.0488.46125-.0775.9025-.0863 1.3275-.195.0175-.3825.0263-.56125.0263-.11875 0-.35125-.004-.69875-.0138-.32375-.009-.62-.0125-.8925-.0125-.3575 0-.735.009-1.13125.0263" fill="#39a642"/><path d="m391.85084 651.79024v-.325c.26125-.0137.41375-.0337.45875-.0625.0312-.0213.0525-.055.0675-.10125.0238-.0612.0387-.28.0437-.655.0125-.62125.0175-1.08875.0175-1.405l-.006-1.64125c0-.43375-.0125-.685-.035-.7525-.0125-.0375-.0337-.0663-.0612-.085-.0425-.03-.20375-.06-.485-.0888v-.32625c.335.0137.5825.02.74375.02.1775 0 .38-.006.60625-.02.49625.7625 1.055 1.58875 1.67875 2.48.415.59625.7725 1.08875 1.07375 1.4775v-1.53875c0-.58375-.006-1.0875-.015-1.50875-.009-.2525-.0275-.40625-.0525-.46375-.0125-.03-.0362-.0525-.07-.0662-.035-.0125-.185-.0312-.45-.0538v-.32625c.2325.0137.465.02.695.02.31625 0 .60375-.006.86-.02v.32625c-.23875.0175-.3825.0388-.43125.0625-.0288.0125-.05.03-.0675.0538-.0163.0237-.03.0525-.0387.0888-.015.0625-.0238.26125-.0263.5975l-.0113 1.5525-.006 1.56375c0 .4175.007.83625.0213 1.25625l-.0412.0538c-.26125-.0562-.44375-.0937-.5525-.1125-.55125-.73625-1.21625-1.66125-1.995-2.775-.39375-.56375-.7125-1.0375-.955-1.4225v1.5075c0 .41125.005.90625.0163 1.485.006.42625.0225.67125.045.73625.009.0275.025.05.0475.0662.0425.0275.19625.0538.4625.0775v.325c-.345-.0175-.59125-.0263-.74125-.0263-.12375 0-.39.009-.79625.0263" fill="#39a642"/><path d="m398.14596 651.79024v-.325c.1225 0 .24875-.0137.3825-.04.0613-.0125.10625-.0338.13125-.0638.0263-.0288.045-.0838.0575-.165.0162-.11.0275-.51875.0387-1.22375.006-.50125.01-1.01375.01-1.535 0-1.02625-.002-1.54875-.009-1.56875-.005-.0188-.08-.0288-.22625-.0288-.29875 0-.55625.01-.77.0312-.12375.0137-.195.0263-.21125.0388-.015.0125-.0288.0362-.0375.0675-.009.0325-.0263.26-.0537.68125h-.27625c.004-.495-.006-.92125-.0325-1.28l.035-.0312c.675.0387 1.33125.0587 1.97.0587.635 0 1.34875-.02 2.1375-.0587l.0337.0625c-.04.355-.07.77125-.0863 1.24875h-.26625c-.02-.43625-.04-.6725-.0575-.70875-.0162-.0288-.05-.0488-.1037-.0588-.17125-.0337-.51125-.0512-1.0225-.0512-.0425 0-.0675.008-.0763.0237-.009.0175-.0125.0863-.0125.20625l-.0188 2.60875c0 .75625.004 1.22.015 1.39125.0113.1725.0375.2775.0788.3125.0275.0237.19625.0512.50625.0825v.325c-.315-.0175-.65-.0263-1.00375-.0263-.46625 0-.84375.009-1.1325.0263" fill="#39a642"/><path d="m349.32272 641.18537h-8.81875l1.85125-1.85875-1.65375-1.6425 4.06375-4.07 1.8775-.20875.82.82625 1.86-1.85625z" fill="#39a642"/></g></svg>