<?xml version="1.0" encoding="utf-8"?>
<!-- Generator: Adobe Illustrator 26.3.1, SVG Export Plug-In . SVG Version: 6.00 Build 0)  -->
<svg version="1.1" id="Calque_1" xmlns="http://www.w3.org/2000/svg" xmlns:xlink="http://www.w3.org/1999/xlink" x="0px" y="0px"
	 viewBox="0 0 324.83 240.69" style="enable-background:new 0 0 324.83 240.69;" xml:space="preserve">
<style type="text/css">
	.st0{fill:#E30613;}
	.st1{fill:#FFFFFF;}
</style>
<g>
	<path class="st0" d="M35.15,56.97l9.5-9.5v26.68h0.15c2.1-2.73,5.92-4.83,11.29-4.83c6.69,0,14.4,2.8,14.4,14.25v26.09H61V86.3
		c0-5.45-2.18-7.79-7.01-7.79c-7.16,0-9.34,6.07-9.34,10.9v20.25h-9.5V56.97z"/>
	<path class="st0" d="M64.04,135.79c-1.17-2.57-4.29-5.61-9.89-5.61c-4.44-0.08-7.24,1.48-7.24,3.82c0,6.85,24.85,1.01,24.85,15.88
		c0,9.5-8.49,13.79-17.52,13.79c-9.27,0-15.58-3.19-19.08-7.17l7.16-5.53c2.18,3.19,6.31,4.9,11.37,4.9c4.52,0,7.63-2.49,7.63-4.6
		c0-6.69-24.37-1.16-24.37-16.11c0-8.88,7.71-12.78,17.44-12.78c9.42,0,14.41,4.83,16.28,7.16L64.04,135.79z"/>
	<path class="st0" d="M165.25,143.03c0,6.15,3.43,11.92,10.2,11.92c6.77,0,10.2-5.77,10.2-11.92c0-6.15-3.43-11.92-10.2-11.92
		C168.68,131.12,165.25,136.88,165.25,143.03 M195.63,143.03c0,11.76-7.4,20.63-20.17,20.63c-12.77,0-20.17-8.88-20.17-20.63
		c0-11.76,7.4-20.64,20.17-20.64C188.23,122.39,195.63,131.27,195.63,143.03"/>
	<path class="st0" d="M210.8,77.11c6.39,0,8.96,5.69,8.96,7.79h-19.16C201.61,80.69,205.26,77.11,210.8,77.11 M216.71,100.74
		c-1.56,0.66-3.48,1.13-5.91,1.13c-5.14,0-10.05-3.81-10.2-9.66h29.12c0-14.09-5.77-22.89-18.92-22.89
		c-12.77,0-20.17,8.88-20.17,20.64c0,10.58,6,18.81,16.51,20.35L216.71,100.74z"/>
	<path class="st0" d="M239.22,130.18c6.39,0,8.96,5.68,8.96,7.79h-19.15C230.04,133.76,233.69,130.18,239.22,130.18 M245.14,153.81
		c-1.57,0.66-3.48,1.14-5.92,1.14c-5.13,0-10.04-3.81-10.2-9.66h29.12c0-14.1-5.76-22.89-18.92-22.89
		c-12.76,0-20.17,8.88-20.17,20.64c0,10.58,6.01,18.8,16.51,20.34L245.14,153.81z"/>
	<path class="st0" d="M103.28,89.82c-1.25,0.62-2.8,1.09-4.52,1.4l-5.22,1.09c-3.58,0.7-6.54,1.72-6.54,5.45
		c0,2.96,2.72,4.91,6.15,4.91c4.44,0,10.13-2.18,10.13-7.24V89.82z M112.78,102.9c0,4.05,0.93,5.76,1.48,6.62h-10.04
		c-0.62-0.94-0.93-2.58-0.93-3.59c-3.66,2.96-7.95,4.52-12.85,4.52c-7.48,0-13.4-4.75-13.4-12.39c0-7.71,6.15-11.14,11.99-12.3
		L93,84.99c3.42-0.7,7.86-1.48,10.28-2.34v-1.17c0-3.89-3.35-4.98-7.48-4.98c-5.53,0-7.32,1.63-7.32,5.92l-9.5-0.39
		c0-9.26,8.17-12.85,16.82-12.85c8.49,0,16.98,1.72,16.98,12.93V102.9z"/>
	<path class="st0" d="M103.45,142.89c-1.24,0.62-2.8,1.08-4.52,1.4l-5.21,1.09c-3.58,0.7-6.54,1.71-6.54,5.44
		c0,2.97,2.73,4.92,6.15,4.92c4.44,0,10.12-2.17,10.12-7.25V142.89z M112.95,155.97c0,4.05,0.93,5.77,1.48,6.63h-10.04
		c-0.62-0.94-0.94-2.57-0.94-3.59c-3.66,2.96-7.95,4.52-12.85,4.52c-7.48,0-13.4-4.75-13.4-12.38c0-7.71,6.15-11.14,11.99-12.31
		l3.98-0.78c3.42-0.7,7.86-1.47,10.28-2.33v-1.17c0-3.9-3.35-4.99-7.48-4.99c-5.53,0-7.32,1.63-7.32,5.92l-9.5-0.39
		c0-9.26,8.17-12.85,16.82-12.85c8.49,0,16.98,1.71,16.98,12.93V155.97z"/>
	<polygon class="st0" points="117.05,123.33 127.1,123.33 134.96,150.59 135.12,150.59 142.99,123.33 153.04,123.33 140.03,162.73 
		130.06,162.73 	"/>
	<path class="st0" d="M157.01,109.67h-9.5v-3.9h-0.15c-2.1,2.73-5.92,4.83-11.29,4.83c-6.69,0-14.4-2.8-14.4-14.25V70.26h9.5v23.36
		c0,5.46,2.18,7.79,7.01,7.79c7.16,0,9.34-5.22,9.34-9.97V70.26h9.5V109.67z"/>
	<polygon class="st0" points="211.97,155.45 211.97,134.57 202.47,134.57 202.47,164.96 	"/>
	<path class="st0" d="M170.07,101.52c0,3.75,1.04,6.53,3.74,8.08l7.39-7.39c-1.32-0.73-1.62-2.18-1.62-4.28V78h8.49v-6.85h-8.49
		V50.63l-9.5,9.5v11.01h-5.76V78h5.76V101.52z"/>
	<rect x="202.47" y="118.66" class="st0" width="9.5" height="9.5"/>
	<path class="st0" d="M39.48,178.07v25.29h-4.33v-25.29H39.48z"/>
	<path class="st0" d="M61.12,199.34c-2.22,2.98-5.09,4.55-8.74,4.55c-4.69,0-9.21-2.97-9.21-9.57c0-6.02,3.87-9.42,8.92-9.42
		c4.73,0,6.7,2.83,7.06,3.37c1.47,2.08,1.79,5.19,1.83,6.98H47.72c0.5,2.83,2.26,4.44,5.09,4.44c2.94,0,4.12-1.72,4.66-2.47
		L61.12,199.34z M56.25,192.11c-0.39-2.79-2.11-3.76-4.01-3.76c-2.29,0-3.87,1.33-4.37,3.76H56.25z"/>
	<path class="st0" d="M74.71,178.07h9.06c2.19,0.04,4.84,0.07,7.49,1.97c4.23,2.97,4.87,8.06,4.87,10.89
		c0,4.33-1.47,8.74-5.19,10.89c-2.51,1.47-5.16,1.51-8.13,1.54h-8.1V178.07z M79.44,182.37v16.73h2.01c3.58,0,4.84-0.18,5.91-0.57
		c1.83-0.72,3.76-2.29,3.76-7.56c0-2.37-0.36-6.23-3.87-7.92c-1.36-0.61-2.11-0.65-5.3-0.68H79.44z"/>
	<path class="st0" d="M116.89,199.34c-2.22,2.98-5.09,4.55-8.74,4.55c-4.69,0-9.21-2.97-9.21-9.57c0-6.02,3.87-9.42,8.92-9.42
		c4.73,0,6.7,2.83,7.06,3.37c1.47,2.08,1.79,5.19,1.83,6.98h-13.25c0.5,2.83,2.26,4.44,5.09,4.44c2.94,0,4.12-1.72,4.66-2.47
		L116.89,199.34z M112.02,192.11c-0.39-2.79-2.11-3.76-4.01-3.76c-2.29,0-3.87,1.33-4.37,3.76H112.02z M113.06,178.07l-3.87,4.77
		h-3.22l1.79-4.77H113.06z"/>
	<path class="st0" d="M120.38,185.45h4.26v1.65c0.68-0.71,2.11-2.18,4.91-2.18c5.26,0,8.13,4.73,8.13,9.67
		c0,5.34-3.33,9.31-8.13,9.31c-2.47,0-4.01-1.18-4.91-2.01v7.31h-4.26V185.45z M128.97,199.85c2.08,0,4.33-1.43,4.33-5.48
		c0-4.48-3.12-5.33-4.41-5.33c-1.97,0-4.23,1.43-4.3,5.27C124.53,197.99,126.57,199.85,128.97,199.85z"/>
	<path class="st0" d="M140.88,190.71c0.07-0.9,0.14-1.65,0.72-2.69c1.72-3.12,5.98-3.12,7.13-3.12c1.72,0,3.8,0.22,5.37,1.15
		c2.11,1.29,2.15,2.98,2.15,4.91v9.49c0,1.36,0,1.83,0.79,2.9h-5.09c-0.03-0.43-0.11-1.15-0.11-1.4c-0.93,0.79-2.83,1.83-5.3,1.83
		c-4.05,0-6.48-2.51-6.48-5.59c0-0.9,0.21-1.72,0.57-2.44c1.29-2.58,4.05-3.15,5.77-3.47c3.69-0.75,3.98-0.82,5.55-1.32
		c0-0.9-0.07-2.72-3.04-2.72c-1.79,0-2.76,0.57-3.19,1.14c-0.47,0.58-0.43,1.08-0.43,1.58L140.88,190.71z M151.95,194.44
		c-0.86,0.43-1.83,0.75-3.76,1.07c-1.54,0.22-3.58,0.57-3.58,2.47c0,1.4,1.18,2.11,2.9,2.11c2.19,0,3.72-1,4.19-2.08
		c0.25-0.54,0.25-1.07,0.25-1.61V194.44z"/>
	<path class="st0" d="M164.24,185.45v2.54c0.54-0.93,1.72-3.04,5.73-2.94v4.41c-0.93,0.04-2.54,0.07-3.87,1.07
		c-1.83,1.4-1.86,3.23-1.86,6.2v6.63h-4.15v-17.91H164.24z"/>
	<path class="st0" d="M179.15,188.53v8.09c0,2.22,0,3.19,2.04,3.19c0.65,0,1.18-0.03,1.79-0.22v3.62c-1.29,0.21-2.15,0.28-3.12,0.28
		c-0.9,0-3.9,0-4.73-2.18c-0.29-0.72-0.29-1.86-0.29-3.65v-9.13h-2.62v-3.08h2.62v-6.34h4.3v6.34h3.83v3.08H179.15z"/>
	<path class="st0" d="M203.23,199.34c-2.22,2.98-5.09,4.55-8.74,4.55c-4.69,0-9.2-2.97-9.2-9.57c0-6.02,3.87-9.42,8.92-9.42
		c4.73,0,6.7,2.83,7.06,3.37c1.47,2.08,1.79,5.19,1.83,6.98h-13.25c0.5,2.83,2.26,4.44,5.09,4.44c2.94,0,4.12-1.72,4.66-2.47
		L203.23,199.34z M198.36,192.11c-0.39-2.79-2.11-3.76-4.01-3.76c-2.29,0-3.87,1.33-4.37,3.76H198.36z"/>
	<path class="st0" d="M206.68,185.45h4.26v2.01c1.43-1.79,3.98-2.54,5.66-2.54c1.68,0,3.8,0.64,4.98,2.76
		c0.72-1,2.58-2.76,5.73-2.76c1.79,0,3.51,0.5,4.73,1.83c1.43,1.58,1.4,3.47,1.4,5.33v11.29h-4.26v-9.89c0-1.68,0.25-4.51-3.01-4.51
		c-1.36,0-2.47,0.75-3.05,1.68c-0.82,1.33-0.93,2.76-0.93,4.3v8.42h-4.26v-9.99c0-1.29,0-1.76-0.14-2.29
		c-0.32-1.19-1.25-2.11-2.76-2.11c-1.29,0-2.54,0.75-3.3,2.08c-0.75,1.4-0.79,3.08-0.79,4.84v7.49h-4.26V185.45z"/>
	<path class="st0" d="M255.09,199.34c-2.22,2.98-5.09,4.55-8.74,4.55c-4.69,0-9.21-2.97-9.21-9.57c0-6.02,3.87-9.42,8.92-9.42
		c4.73,0,6.7,2.83,7.06,3.37c1.47,2.08,1.79,5.19,1.83,6.98H241.7c0.5,2.83,2.26,4.44,5.08,4.44c2.94,0,4.12-1.72,4.66-2.47
		L255.09,199.34z M250.22,192.11c-0.39-2.79-2.12-3.76-4.01-3.76c-2.29,0-3.87,1.33-4.37,3.76H250.22z"/>
	<path class="st0" d="M258.51,185.45h4.33v2.11c0.22-0.32,0.65-0.9,1.4-1.4c1.08-0.79,2.72-1.25,4.12-1.25
		c2.04,0,3.8,0.93,4.69,2.15c1.11,1.51,1.11,3.44,1.11,5.77v10.53h-4.26v-9.13c0-1.32,0-2.22-0.14-2.72
		c-0.39-1.58-1.54-2.4-2.94-2.4c-1.4,0-2.69,0.83-3.3,2.01c-0.68,1.32-0.68,3.15-0.68,4.48v7.77h-4.33V185.45z"/>
	<path class="st0" d="M283.63,188.53v8.09c0,2.22,0,3.19,2.04,3.19c0.64,0,1.18-0.03,1.79-0.22v3.62c-1.29,0.21-2.15,0.28-3.12,0.28
		c-0.9,0-3.9,0-4.73-2.18c-0.29-0.72-0.29-1.86-0.29-3.65v-9.13h-2.62v-3.08h2.62v-6.34h4.3v6.34h3.83v3.08H283.63z"/>
</g>
<path class="st0" d="M35.15,56.97l9.5-9.5v26.68h0.15c2.1-2.73,5.92-4.83,11.29-4.83c6.69,0,14.4,2.8,14.4,14.25v26.09H61V86.3
	c0-5.45-2.18-7.79-7.01-7.79c-7.16,0-9.34,6.07-9.34,10.9v20.25h-9.5V56.97z"/>
<path class="st0" d="M64.04,135.79c-1.17-2.57-4.29-5.61-9.89-5.61c-4.44-0.08-7.24,1.48-7.24,3.82c0,6.85,24.85,1.01,24.85,15.88
	c0,9.5-8.49,13.79-17.52,13.79c-9.27,0-15.58-3.19-19.08-7.17l7.16-5.53c2.18,3.19,6.31,4.9,11.37,4.9c4.52,0,7.63-2.49,7.63-4.6
	c0-6.69-24.37-1.16-24.37-16.11c0-8.88,7.71-12.78,17.44-12.78c9.42,0,14.41,4.83,16.28,7.16L64.04,135.79z"/>
<path class="st0" d="M165.25,143.03c0,6.15,3.43,11.92,10.2,11.92c6.77,0,10.2-5.77,10.2-11.92c0-6.15-3.43-11.92-10.2-11.92
	C168.68,131.12,165.25,136.88,165.25,143.03 M195.63,143.03c0,11.76-7.4,20.63-20.17,20.63c-12.77,0-20.17-8.88-20.17-20.63
	c0-11.76,7.4-20.64,20.17-20.64C188.23,122.39,195.63,131.27,195.63,143.03"/>
<path class="st0" d="M210.8,77.11c6.39,0,8.96,5.69,8.96,7.79h-19.16C201.61,80.69,205.26,77.11,210.8,77.11 M216.71,100.74
	c-1.56,0.66-3.48,1.13-5.91,1.13c-5.14,0-10.05-3.81-10.2-9.66h29.12c0-14.09-5.77-22.89-18.92-22.89
	c-12.77,0-20.17,8.88-20.17,20.64c0,10.58,6,18.81,16.51,20.35L216.71,100.74z"/>
<path class="st0" d="M239.22,130.18c6.39,0,8.96,5.68,8.96,7.79h-19.15C230.04,133.76,233.69,130.18,239.22,130.18 M245.14,153.81
	c-1.57,0.66-3.48,1.14-5.92,1.14c-5.13,0-10.04-3.81-10.2-9.66h29.12c0-14.1-5.76-22.89-18.92-22.89
	c-12.76,0-20.17,8.88-20.17,20.64c0,10.58,6.01,18.8,16.51,20.34L245.14,153.81z"/>
<path class="st0" d="M103.28,89.82c-1.25,0.62-2.8,1.09-4.52,1.4l-5.22,1.09c-3.58,0.7-6.54,1.72-6.54,5.45
	c0,2.96,2.72,4.91,6.15,4.91c4.44,0,10.13-2.18,10.13-7.24V89.82z M112.78,102.9c0,4.05,0.93,5.76,1.48,6.62h-10.04
	c-0.62-0.94-0.93-2.58-0.93-3.59c-3.66,2.96-7.95,4.52-12.85,4.52c-7.48,0-13.4-4.75-13.4-12.39c0-7.71,6.15-11.14,11.99-12.3
	L93,84.99c3.42-0.7,7.86-1.48,10.28-2.34v-1.17c0-3.89-3.35-4.98-7.48-4.98c-5.53,0-7.32,1.63-7.32,5.92l-9.5-0.39
	c0-9.26,8.17-12.85,16.82-12.85c8.49,0,16.98,1.72,16.98,12.93V102.9z"/>
<path class="st0" d="M103.45,142.89c-1.24,0.62-2.8,1.08-4.52,1.4l-5.21,1.09c-3.58,0.7-6.54,1.71-6.54,5.44
	c0,2.97,2.73,4.92,6.15,4.92c4.44,0,10.12-2.17,10.12-7.25V142.89z M112.95,155.97c0,4.05,0.93,5.77,1.48,6.63h-10.04
	c-0.62-0.94-0.94-2.57-0.94-3.59c-3.66,2.96-7.95,4.52-12.85,4.52c-7.48,0-13.4-4.75-13.4-12.38c0-7.71,6.15-11.14,11.99-12.31
	l3.98-0.78c3.42-0.7,7.86-1.47,10.28-2.33v-1.17c0-3.9-3.35-4.99-7.48-4.99c-5.53,0-7.32,1.63-7.32,5.92l-9.5-0.39
	c0-9.26,8.17-12.85,16.82-12.85c8.49,0,16.98,1.71,16.98,12.93V155.97z"/>
<polygon class="st0" points="117.05,123.33 127.1,123.33 134.96,150.59 135.12,150.59 142.99,123.33 153.04,123.33 140.03,162.73 
	130.06,162.73 "/>
<path class="st0" d="M157.01,109.67h-9.5v-3.9h-0.15c-2.1,2.73-5.92,4.83-11.29,4.83c-6.69,0-14.4-2.8-14.4-14.25V70.26h9.5v23.36
	c0,5.46,2.18,7.79,7.01,7.79c7.16,0,9.34-5.22,9.34-9.97V70.26h9.5V109.67z"/>
<polygon class="st0" points="211.97,155.45 211.97,134.57 202.47,134.57 202.47,164.96 "/>
<path class="st0" d="M170.07,101.52c0,3.75,1.04,6.53,3.74,8.08l7.39-7.39c-1.32-0.73-1.62-2.18-1.62-4.28V78h8.49v-6.85h-8.49
	V50.63l-9.5,9.5v11.01h-5.76V78h5.76V101.52z"/>
<rect x="202.47" y="118.66" class="st0" width="9.5" height="9.5"/>
<path class="st0" d="M39.48,178.07v25.29h-4.33v-25.29H39.48z"/>
<path class="st0" d="M61.12,199.34c-2.22,2.98-5.09,4.55-8.74,4.55c-4.69,0-9.21-2.97-9.21-9.57c0-6.02,3.87-9.42,8.92-9.42
	c4.73,0,6.7,2.83,7.06,3.37c1.47,2.08,1.79,5.19,1.83,6.98H47.72c0.5,2.83,2.26,4.44,5.09,4.44c2.94,0,4.12-1.72,4.66-2.47
	L61.12,199.34z M56.25,192.11c-0.39-2.79-2.11-3.76-4.01-3.76c-2.29,0-3.87,1.33-4.37,3.76H56.25z"/>
<path class="st0" d="M74.71,178.07h9.06c2.19,0.04,4.84,0.07,7.49,1.97c4.23,2.97,4.87,8.06,4.87,10.89c0,4.33-1.47,8.74-5.19,10.89
	c-2.51,1.47-5.16,1.51-8.13,1.54h-8.1V178.07z M79.44,182.37v16.73h2.01c3.58,0,4.84-0.18,5.91-0.57c1.83-0.72,3.76-2.29,3.76-7.56
	c0-2.37-0.36-6.23-3.87-7.92c-1.36-0.61-2.11-0.65-5.3-0.68H79.44z"/>
<path class="st0" d="M116.89,199.34c-2.22,2.98-5.09,4.55-8.74,4.55c-4.69,0-9.21-2.97-9.21-9.57c0-6.02,3.87-9.42,8.92-9.42
	c4.73,0,6.7,2.83,7.06,3.37c1.47,2.08,1.79,5.19,1.83,6.98h-13.25c0.5,2.83,2.26,4.44,5.09,4.44c2.94,0,4.12-1.72,4.66-2.47
	L116.89,199.34z M112.02,192.11c-0.39-2.79-2.11-3.76-4.01-3.76c-2.29,0-3.87,1.33-4.37,3.76H112.02z M113.06,178.07l-3.87,4.77
	h-3.22l1.79-4.77H113.06z"/>
<path class="st0" d="M120.38,185.45h4.26v1.65c0.68-0.71,2.11-2.18,4.91-2.18c5.26,0,8.13,4.73,8.13,9.67
	c0,5.34-3.33,9.31-8.13,9.31c-2.47,0-4.01-1.18-4.91-2.01v7.31h-4.26V185.45z M128.97,199.85c2.08,0,4.33-1.43,4.33-5.48
	c0-4.48-3.12-5.33-4.41-5.33c-1.97,0-4.23,1.43-4.3,5.27C124.53,197.99,126.57,199.85,128.97,199.85z"/>
<path class="st0" d="M140.88,190.71c0.07-0.9,0.14-1.65,0.72-2.69c1.72-3.12,5.98-3.12,7.13-3.12c1.72,0,3.8,0.22,5.37,1.15
	c2.11,1.29,2.15,2.98,2.15,4.91v9.49c0,1.36,0,1.83,0.79,2.9h-5.09c-0.03-0.43-0.11-1.15-0.11-1.4c-0.93,0.79-2.83,1.83-5.3,1.83
	c-4.05,0-6.48-2.51-6.48-5.59c0-0.9,0.21-1.72,0.57-2.44c1.29-2.58,4.05-3.15,5.77-3.47c3.69-0.75,3.98-0.82,5.55-1.32
	c0-0.9-0.07-2.72-3.04-2.72c-1.79,0-2.76,0.57-3.19,1.14c-0.47,0.58-0.43,1.08-0.43,1.58L140.88,190.71z M151.95,194.44
	c-0.86,0.43-1.83,0.75-3.76,1.07c-1.54,0.22-3.58,0.57-3.58,2.47c0,1.4,1.18,2.11,2.9,2.11c2.19,0,3.72-1,4.19-2.08
	c0.25-0.54,0.25-1.07,0.25-1.61V194.44z"/>
<path class="st0" d="M164.24,185.45v2.54c0.54-0.93,1.72-3.04,5.73-2.94v4.41c-0.93,0.04-2.54,0.07-3.87,1.07
	c-1.83,1.4-1.86,3.23-1.86,6.2v6.63h-4.15v-17.91H164.24z"/>
<path class="st0" d="M179.15,188.53v8.09c0,2.22,0,3.19,2.04,3.19c0.65,0,1.18-0.03,1.79-0.22v3.62c-1.29,0.21-2.15,0.28-3.12,0.28
	c-0.9,0-3.9,0-4.73-2.18c-0.29-0.72-0.29-1.86-0.29-3.65v-9.13h-2.62v-3.08h2.62v-6.34h4.3v6.34h3.83v3.08H179.15z"/>
<path class="st0" d="M203.23,199.34c-2.22,2.98-5.09,4.55-8.74,4.55c-4.69,0-9.2-2.97-9.2-9.57c0-6.02,3.87-9.42,8.92-9.42
	c4.73,0,6.7,2.83,7.06,3.37c1.47,2.08,1.79,5.19,1.83,6.98h-13.25c0.5,2.83,2.26,4.44,5.09,4.44c2.94,0,4.12-1.72,4.66-2.47
	L203.23,199.34z M198.36,192.11c-0.39-2.79-2.11-3.76-4.01-3.76c-2.29,0-3.87,1.33-4.37,3.76H198.36z"/>
<path class="st0" d="M206.68,185.45h4.26v2.01c1.43-1.79,3.98-2.54,5.66-2.54c1.68,0,3.8,0.64,4.98,2.76c0.72-1,2.58-2.76,5.73-2.76
	c1.79,0,3.51,0.5,4.73,1.83c1.43,1.58,1.4,3.47,1.4,5.33v11.29h-4.26v-9.89c0-1.68,0.25-4.51-3.01-4.51c-1.36,0-2.47,0.75-3.05,1.68
	c-0.82,1.33-0.93,2.76-0.93,4.3v8.42h-4.26v-9.99c0-1.29,0-1.76-0.14-2.29c-0.32-1.19-1.25-2.11-2.76-2.11
	c-1.29,0-2.54,0.75-3.3,2.08c-0.75,1.4-0.79,3.08-0.79,4.84v7.49h-4.26V185.45z"/>
<path class="st0" d="M255.09,199.34c-2.22,2.98-5.09,4.55-8.74,4.55c-4.69,0-9.21-2.97-9.21-9.57c0-6.02,3.87-9.42,8.92-9.42
	c4.73,0,6.7,2.83,7.06,3.37c1.47,2.08,1.79,5.19,1.83,6.98H241.7c0.5,2.83,2.26,4.44,5.08,4.44c2.94,0,4.12-1.72,4.66-2.47
	L255.09,199.34z M250.22,192.11c-0.39-2.79-2.12-3.76-4.01-3.76c-2.29,0-3.87,1.33-4.37,3.76H250.22z"/>
<path class="st0" d="M258.51,185.45h4.33v2.11c0.22-0.32,0.65-0.9,1.4-1.4c1.08-0.79,2.72-1.25,4.12-1.25c2.04,0,3.8,0.93,4.69,2.15
	c1.11,1.51,1.11,3.44,1.11,5.77v10.53h-4.26v-9.13c0-1.32,0-2.22-0.14-2.72c-0.39-1.58-1.54-2.4-2.94-2.4c-1.4,0-2.69,0.83-3.3,2.01
	c-0.68,1.32-0.68,3.15-0.68,4.48v7.77h-4.33V185.45z"/>
<path class="st0" d="M283.63,188.53v8.09c0,2.22,0,3.19,2.04,3.19c0.64,0,1.18-0.03,1.79-0.22v3.62c-1.29,0.21-2.15,0.28-3.12,0.28
	c-0.9,0-3.9,0-4.73-2.18c-0.29-0.72-0.29-1.86-0.29-3.65v-9.13h-2.62v-3.08h2.62v-6.34h4.3v6.34h3.83v3.08H283.63z"/>
<g>
	<rect x="242.65" y="30.64" class="st0" width="48.76" height="48.76"/>
	<polygon class="st1" points="290.21,48.46 273.57,48.46 273.57,31.84 260.46,31.84 260.46,48.46 243.86,48.46 243.86,61.57 
		260.46,61.57 260.46,78.19 273.57,78.19 273.57,61.57 290.21,61.57 	"/>
</g>
</svg>
