<?xml version="1.0" encoding="UTF-8" standalone="no"?>
<!-- Created with Inkscape (http://www.inkscape.org/) -->

<svg
   xmlns:dc="http://purl.org/dc/elements/1.1/"
   xmlns:cc="http://creativecommons.org/ns#"
   xmlns:rdf="http://www.w3.org/1999/02/22-rdf-syntax-ns#"
   xmlns:svg="http://www.w3.org/2000/svg"
   xmlns="http://www.w3.org/2000/svg"
   xmlns:sodipodi="http://sodipodi.sourceforge.net/DTD/sodipodi-0.dtd"
   xmlns:inkscape="http://www.inkscape.org/namespaces/inkscape"
   width="112.88889mm"
   height="151.43774mm"
   viewBox="0 0 399.99998 536.59042"
   id="svg4991"
   version="1.1"
   inkscape:version="0.91 r13725"
   sodipodi:docname="Haute-Garonne (31) logo2 2015.svg">
  <defs
     id="defs4993">
    <clipPath
       clipPathUnits="userSpaceOnUse"
       id="clipPath224">
      <path
         d="m 447.921,155.009 0,-97.985 c 0,-3.068 2.494,-5.558 5.562,-5.558 l 0,0 81.859,0 c 3.067,0 5.56,2.49 5.56,5.558 l 0,0 0,86.59 c 0,3.073 -2.493,5.565 -5.56,5.565 l 0,0 -80.781,11.654 c -0.298,0.04 -0.591,0.06 -0.879,0.06 l 0,0 c -3.235,0 -5.761,-2.471 -5.761,-5.884"
         id="path226"
         inkscape:connector-curvature="0" />
    </clipPath>
    <clipPath
       clipPathUnits="userSpaceOnUse"
       id="clipPath46">
      <path
         d="m 14.173,14.175 586.77,0 0,788.03 -586.77,0 0,-788.03 z"
         id="path48"
         inkscape:connector-curvature="0" />
    </clipPath>
  </defs>
  <sodipodi:namedview
     id="base"
     pagecolor="#ffffff"
     bordercolor="#666666"
     borderopacity="1.0"
     inkscape:pageopacity="0.0"
     inkscape:pageshadow="2"
     inkscape:zoom="0.35"
     inkscape:cx="-489.74465"
     inkscape:cy="120.8137"
     inkscape:document-units="px"
     inkscape:current-layer="layer1"
     showgrid="false"
     fit-margin-top="0"
     fit-margin-left="0"
     fit-margin-right="0"
     fit-margin-bottom="0"
     inkscape:window-width="1366"
     inkscape:window-height="705"
     inkscape:window-x="-8"
     inkscape:window-y="-8"
     inkscape:window-maximized="1" />
  <metadata
     id="metadata4996">
    <rdf:RDF>
      <cc:Work
         rdf:about="">
        <dc:format>image/svg+xml</dc:format>
        <dc:type
           rdf:resource="http://purl.org/dc/dcmitype/StillImage" />
        <dc:title></dc:title>
      </cc:Work>
    </rdf:RDF>
  </metadata>
  <g
     inkscape:label="Calque 1"
     inkscape:groupmode="layer"
     id="layer1"
     transform="translate(-421.88751,-116.58548)">
    <g
       transform="matrix(4.3019999,0,0,-4.3019999,-1505.0716,808.74909)"
       id="g42">
      <g
         id="g44"
         clip-path="url(#clipPath46)">
        <g
           id="g50"
           transform="translate(540.9017,57.0247)">
          <path
             d="m 0,0 c 0,-3.068 -2.492,-5.559 -5.561,-5.559 l -81.857,0 c -3.068,0 -5.562,2.491 -5.562,5.559 l 0,97.984 c 0,3.717 2.995,6.317 6.64,5.825 L -5.561,92.154 C -2.492,92.154 0,89.662 0,86.59 L 0,0 Z"
             style="fill:#008db0;fill-opacity:1;fill-rule:nonzero;stroke:none"
             id="path52"
             inkscape:connector-curvature="0" />
        </g>
        <g
           id="g54"
           transform="translate(463.223,53.425)">
          <path
             d="M 0,0 0.395,-17.262 23.147,-0.389 0,0 Z"
             style="fill:#008db0;fill-opacity:1;fill-rule:nonzero;stroke:none"
             id="path56"
             inkscape:connector-curvature="0" />
        </g>
        <g
           id="g58"
           transform="translate(515.2904,116.55)">
          <path
             d="m 0,0 c 1.637,2.918 2.561,7.52 2.238,12.029 -0.324,4.508 -2.312,6.295 -4.213,6.617 -1.902,0.321 -8.908,0.868 -18.007,-20.966 -9.1,-21.84 -4.571,-29.412 2.154,-29.897 1.928,-0.053 5.017,0.389 7.223,3.481 -1.268,-3.534 -1.629,-6.477 -0.262,-8.811 1.637,1.697 2.687,1.637 3.24,2.799 0.551,1.156 6.838,24.928 6.838,24.928 0.66,0.05 1.268,0.822 1.654,1.599 0.387,0.772 1.985,3.305 1.985,3.305 -5.848,-0.883 -14.338,-3.195 -14.723,-3.689 -0.387,-0.499 -1.27,-2.487 -1.16,-3.645 0.113,-1.158 2.539,-0.934 3.918,-0.658 1.377,0.275 4.135,1.763 4.135,1.763 -2.151,-6.013 -5.956,-18.531 -12.465,-18.033 -6.506,0.496 -1.653,15.168 2.097,24.209 3.75,9.041 9.621,18.571 11.692,18.141 C -0.182,12.453 -3.656,1.318 0,0"
             style="fill:#ffffff;fill-opacity:1;fill-rule:nonzero;stroke:none"
             id="path60"
             inkscape:connector-curvature="0" />
        </g>
        <g
           id="g62"
           transform="translate(458.0189,65.6673)">
          <path
             d="m 0,0 c -0.096,-0.029 -0.53,-0.105 -1.031,-0.105 -0.789,0 -1.857,0.386 -1.857,2.005 l 0,0.963 c 0,1.645 1.068,2.006 1.857,2.006 C -0.53,4.869 -0.096,4.791 0,4.762 0.086,4.736 0.145,4.703 0.145,4.611 l 0,-0.437 C 0.145,4.096 0.113,4.035 0.018,4.035 L 0,4.035 c -0.229,0.022 -0.672,0.053 -1.019,0.053 -0.553,0 -0.951,-0.293 -0.951,-1.225 l 0,-0.963 c 0,-0.91 0.398,-1.224 0.951,-1.224 0.347,0 0.79,0.027 1.019,0.053 l 0.018,0 c 0.095,0 0.127,-0.061 0.127,-0.141 l 0,-0.44 C 0.145,0.057 0.086,0.025 0,0"
             style="fill:#ffffff;fill-opacity:1;fill-rule:nonzero;stroke:none"
             id="path64"
             inkscape:connector-curvature="0" />
        </g>
        <g
           id="g66"
           transform="translate(461.474,68.4895)">
          <path
             d="M 0,0 C 0,0.865 -0.309,1.252 -0.949,1.252 -1.59,1.252 -1.9,0.865 -1.9,0 l 0,-0.887 c 0,-0.863 0.31,-1.25 0.951,-1.25 0.64,0 0.949,0.387 0.949,1.25 L 0,0 Z m -0.949,-2.928 c -1.082,0 -1.867,0.602 -1.867,2.041 l 0,0.887 c 0,1.443 0.785,2.047 1.867,2.047 1.08,0 1.865,-0.604 1.865,-2.047 l 0,-0.887 c 0,-1.439 -0.785,-2.041 -1.865,-2.041"
             style="fill:#ffffff;fill-opacity:1;fill-rule:nonzero;stroke:none"
             id="path68"
             inkscape:connector-curvature="0" />
        </g>
        <g
           id="g70"
           transform="translate(466.6664,65.6125)">
          <path
             d="M 0,0 -0.664,0 C -0.822,0 -0.959,0 -1.062,0.24 L -2.519,3.428 C -2.538,3.465 -2.558,3.48 -2.576,3.48 -2.595,3.48 -2.608,3.465 -2.608,3.428 l 0,-3.295 C -2.608,0.062 -2.663,0 -2.735,0 l -0.557,0 c -0.07,0 -0.133,0.062 -0.133,0.133 l 0,4.474 c 0,0.145 0.119,0.262 0.265,0.262 l 0.708,0 c 0.139,0 0.208,-0.039 0.289,-0.213 l 1.529,-3.361 c 0.01,-0.035 0.03,-0.057 0.051,-0.057 0.011,0 0.031,0.022 0.031,0.063 l 0,3.445 c 0,0.07 0.053,0.123 0.123,0.123 l 0.565,0 c 0.072,0 0.125,-0.053 0.125,-0.123 l 0,-4.482 C 0.261,0.117 0.142,0 0,0"
             style="fill:#ffffff;fill-opacity:1;fill-rule:nonzero;stroke:none"
             id="path72"
             inkscape:connector-curvature="0" />
        </g>
        <g
           id="g74"
           transform="translate(469.1361,65.5618)">
          <path
             d="m 0,0 c -0.493,0 -0.845,0.047 -1.158,0.117 -0.069,0.014 -0.125,0.059 -0.125,0.129 l 0,0.471 c 0,0.074 0.056,0.133 0.125,0.133 l 0.012,0 c 0.261,-0.041 0.917,-0.069 1.159,-0.069 0.585,0 0.76,0.207 0.76,0.584 0,0.264 -0.124,0.389 -0.556,0.647 L -0.649,2.529 C -1.26,2.891 -1.422,3.27 -1.422,3.73 c 0,0.719 0.418,1.245 1.639,1.245 0.432,0 1.035,-0.065 1.258,-0.12 C 1.539,4.842 1.592,4.797 1.592,4.732 l 0,-0.486 C 1.592,4.18 1.548,4.127 1.48,4.127 l -0.012,0 C 1.035,4.168 0.604,4.193 0.177,4.193 c -0.485,0 -0.689,-0.17 -0.689,-0.463 0,-0.22 0.113,-0.347 0.539,-0.585 L 0.811,2.707 C 1.533,2.305 1.725,1.887 1.725,1.365 1.725,0.709 1.311,0 0,0"
             style="fill:#ffffff;fill-opacity:1;fill-rule:nonzero;stroke:none"
             id="path76"
             inkscape:connector-curvature="0" />
        </g>
        <g
           id="g78"
           transform="translate(474.4056,65.6517)">
          <path
             d="m 0,0 c -0.209,-0.033 -0.467,-0.09 -1.246,-0.09 -0.85,0 -1.513,0.229 -1.513,1.346 l 0,2.285 c 0,1.113 0.663,1.344 1.513,1.344 C -0.467,4.885 -0.209,4.824 0,4.791 0.098,4.777 0.129,4.746 0.129,4.654 l 0,-0.42 C 0.129,4.164 0.072,4.104 0,4.104 l -1.336,0 c -0.381,0 -0.518,-0.131 -0.518,-0.563 l 0,-0.707 1.776,0 c 0.07,0 0.131,-0.061 0.131,-0.133 l 0,-0.471 C 0.053,2.158 -0.008,2.1 -0.078,2.1 l -1.776,0 0,-0.844 c 0,-0.436 0.137,-0.565 0.518,-0.565 l 1.336,0 c 0.072,0 0.129,-0.064 0.129,-0.134 l 0,-0.418 C 0.129,0.049 0.098,0.016 0,0"
             style="fill:#ffffff;fill-opacity:1;fill-rule:nonzero;stroke:none"
             id="path80"
             inkscape:connector-curvature="0" />
        </g>
        <g
           id="g82"
           transform="translate(476.2005,65.6125)">
          <path
             d="m 0,0 -0.646,0 c -0.075,0 -0.133,0.062 -0.133,0.133 l 0,4.613 c 0,0.07 0.058,0.123 0.133,0.123 l 0.646,0 c 0.072,0 0.133,-0.053 0.133,-0.123 l 0,-4.613 C 0.133,0.062 0.072,0 0,0"
             style="fill:#ffffff;fill-opacity:1;fill-rule:nonzero;stroke:none"
             id="path84"
             inkscape:connector-curvature="0" />
        </g>
        <g
           id="g86"
           transform="translate(479.9427,65.6517)">
          <path
             d="m 0,0 c -0.195,-0.043 -0.766,-0.09 -1.113,-0.09 -0.852,0 -1.514,0.229 -1.514,1.346 l 0,3.441 c 0,0.074 0.059,0.133 0.129,0.133 l 0.652,0 c 0.067,0 0.129,-0.059 0.129,-0.133 l 0,-3.441 c 0,-0.436 0.133,-0.565 0.512,-0.565 l 1.205,0 c 0.074,0 0.131,-0.064 0.131,-0.134 l 0,-0.418 C 0.131,0.049 0.098,0.023 0,0"
             style="fill:#ffffff;fill-opacity:1;fill-rule:nonzero;stroke:none"
             id="path88"
             inkscape:connector-curvature="0" />
        </g>
        <g
           id="g90"
           transform="translate(484.9486,68.5305)">
          <path
             d="m 0,0 c 0,0.98 -0.496,1.238 -1.15,1.238 -0.245,0 -0.414,-0.013 -0.551,-0.019 l 0,-3.401 c 0.137,-0.006 0.306,-0.017 0.551,-0.017 0.654,0 1.15,0.252 1.15,1.236 L 0,0 Z m -1.15,-2.969 c -0.465,0 -1.096,0.047 -1.291,0.076 -0.114,0.024 -0.172,0.073 -0.172,0.207 l 0,4.411 c 0,0.129 0.058,0.177 0.172,0.203 0.195,0.029 0.826,0.078 1.291,0.078 1.308,0 2.056,-0.709 2.056,-2.006 l 0,-0.963 c 0,-1.297 -0.748,-2.006 -2.056,-2.006"
             style="fill:#ffffff;fill-opacity:1;fill-rule:nonzero;stroke:none"
             id="path92"
             inkscape:connector-curvature="0" />
        </g>
        <g
           id="g94"
           transform="translate(489.1634,71.7122)">
          <path
             d="m 0,0 -0.771,-0.809 c -0.053,-0.06 -0.079,-0.086 -0.161,-0.086 l -0.56,0 c -0.041,0 -0.059,0.02 -0.059,0.043 0,0.02 0.006,0.049 0.024,0.069 L -0.902,0 c 0.058,0.078 0.084,0.1 0.168,0.1 l 0.689,0 C 0,0.1 0.027,0.084 0.027,0.059 0.027,0.039 0.02,0.02 0,0 M 0.301,-6.061 C 0.092,-6.094 -0.164,-6.15 -0.943,-6.15 c -0.852,0 -1.514,0.228 -1.514,1.345 l 0,2.285 c 0,1.114 0.662,1.344 1.514,1.344 0.779,0 1.035,-0.06 1.244,-0.094 0.099,-0.013 0.135,-0.044 0.135,-0.136 l 0,-0.42 c 0,-0.07 -0.063,-0.131 -0.135,-0.131 l -1.336,0 c -0.379,0 -0.516,-0.131 -0.516,-0.563 l 0,-0.707 1.776,0 c 0.068,0 0.132,-0.06 0.132,-0.132 l 0,-0.471 c 0,-0.072 -0.064,-0.131 -0.132,-0.131 l -1.776,0 0,-0.844 c 0,-0.435 0.137,-0.564 0.516,-0.564 l 1.336,0 c 0.072,0 0.135,-0.065 0.135,-0.135 l 0,-0.418 c 0,-0.09 -0.036,-0.123 -0.135,-0.139"
             style="fill:#ffffff;fill-opacity:1;fill-rule:nonzero;stroke:none"
             id="path96"
             inkscape:connector-curvature="0" />
        </g>
        <g
           id="g98"
           transform="translate(492.9603,69.0228)">
          <path
             d="m 0,0 c 0,0.551 -0.328,0.758 -0.982,0.758 -0.139,0 -0.467,-0.012 -0.584,-0.026 l 0,-1.56 c 0.105,-0.006 0.47,-0.02 0.584,-0.02 0.705,0 0.982,0.262 0.982,0.787 L 0,0 Z m -0.982,-1.596 c -0.174,0 -0.432,0.022 -0.584,0.032 l 0,-1.713 c 0,-0.071 -0.053,-0.133 -0.123,-0.133 l -0.659,0 c -0.072,0 -0.131,0.062 -0.131,0.133 l 0,4.509 c 0,0.129 0.081,0.174 0.211,0.196 0.338,0.052 0.807,0.086 1.286,0.086 C 0.025,1.514 0.9,1.156 0.9,0 l 0,-0.061 c 0,-1.16 -0.875,-1.535 -1.882,-1.535"
             style="fill:#ffffff;fill-opacity:1;fill-rule:nonzero;stroke:none"
             id="path100"
             inkscape:connector-curvature="0" />
        </g>
        <g
           id="g102"
           transform="translate(495.9544,69.6653)">
          <path
             d="M 0,0 C -0.021,0.076 -0.039,0.104 -0.105,0.104 -0.172,0.104 -0.193,0.076 -0.209,0 l -0.473,-1.947 1.153,0 L 0,0 Z m 1.77,-4.053 -0.696,0 c -0.06,0 -0.111,0.055 -0.123,0.112 l -0.303,1.246 -1.505,0 -0.303,-1.246 c -0.012,-0.057 -0.067,-0.112 -0.127,-0.112 l -0.692,0 c -0.066,0 -0.121,0.049 -0.121,0.112 0,0.005 0.006,0.021 0.006,0.037 l 1.078,4.103 c 0.159,0.612 0.629,0.672 0.911,0.672 0.283,0 0.753,-0.06 0.912,-0.672 l 1.072,-4.103 c 0,-0.016 0.006,-0.032 0.006,-0.037 0,-0.063 -0.051,-0.112 -0.115,-0.112"
             style="fill:#ffffff;fill-opacity:1;fill-rule:nonzero;stroke:none"
             id="path104"
             inkscape:connector-curvature="0" />
        </g>
        <g
           id="g106"
           transform="translate(500.9349,69.054)">
          <path
             d="m 0,0 c 0,0.492 -0.328,0.701 -0.982,0.701 -0.139,0 -0.467,-0.014 -0.582,-0.025 l 0,-1.475 c 0.105,-0.008 0.47,-0.023 0.582,-0.023 0.673,0 0.982,0.183 0.982,0.76 L 0,0 Z m 0.982,-3.441 -0.796,0 c -0.075,0 -0.1,0.066 -0.133,0.132 l -0.946,1.747 -0.089,0 c -0.172,0 -0.432,0.019 -0.582,0.027 l 0,-1.774 c 0,-0.07 -0.055,-0.132 -0.125,-0.132 l -0.659,0 c -0.07,0 -0.129,0.062 -0.129,0.132 l 0,4.51 c 0,0.129 0.079,0.174 0.209,0.195 0.342,0.053 0.809,0.086 1.286,0.086 1.007,0 1.886,-0.361 1.886,-1.482 l 0,-0.062 c 0,-0.69 -0.347,-1.125 -0.884,-1.333 l 1.029,-1.914 c 0.013,-0.021 0.013,-0.041 0.013,-0.052 0,-0.049 -0.025,-0.08 -0.08,-0.08"
             style="fill:#ffffff;fill-opacity:1;fill-rule:nonzero;stroke:none"
             id="path108"
             inkscape:connector-curvature="0" />
        </g>
        <g
           id="g110"
           transform="translate(505.5091,69.7238)">
          <path
             d="m 0,0 -1.146,0 0,-3.979 c 0,-0.07 -0.059,-0.132 -0.131,-0.132 l -0.651,0 c -0.07,0 -0.129,0.062 -0.129,0.132 l 0,3.979 -1.146,0 c -0.074,0 -0.133,0.045 -0.133,0.117 l 0,0.518 c 0,0.07 0.059,0.123 0.133,0.123 l 3.203,0 c 0.072,0 0.131,-0.053 0.131,-0.123 l 0,-0.518 C 0.131,0.045 0.072,0 0,0"
             style="fill:#ffffff;fill-opacity:1;fill-rule:nonzero;stroke:none"
             id="path112"
             inkscape:connector-curvature="0" />
        </g>
        <g
           id="g114"
           transform="translate(508.8919,65.6517)">
          <path
             d="m 0,0 c -0.209,-0.033 -0.465,-0.09 -1.246,-0.09 -0.852,0 -1.514,0.229 -1.514,1.346 l 0,2.285 c 0,1.113 0.662,1.344 1.514,1.344 C -0.465,4.885 -0.209,4.824 0,4.791 0.1,4.777 0.131,4.746 0.131,4.654 l 0,-0.42 C 0.131,4.164 0.072,4.104 0,4.104 l -1.336,0 c -0.381,0 -0.519,-0.131 -0.519,-0.563 l 0,-0.707 1.775,0 c 0.074,0 0.131,-0.061 0.131,-0.133 l 0,-0.471 C 0.051,2.158 -0.006,2.1 -0.08,2.1 l -1.775,0 0,-0.844 c 0,-0.436 0.138,-0.565 0.519,-0.565 l 1.336,0 c 0.072,0 0.131,-0.064 0.131,-0.134 l 0,-0.418 C 0.131,0.049 0.1,0.016 0,0"
             style="fill:#ffffff;fill-opacity:1;fill-rule:nonzero;stroke:none"
             id="path116"
             inkscape:connector-curvature="0" />
        </g>
        <g
           id="g118"
           transform="translate(514.0033,65.6125)">
          <path
             d="m 0,0 -0.662,0 c -0.059,0 -0.106,0.066 -0.106,0.133 l 0,3.047 c 0,0.045 -0.005,0.064 -0.019,0.064 -0.004,0 -0.02,-0.019 -0.033,-0.035 L -1.449,1.955 C -1.488,1.879 -1.572,1.846 -1.656,1.846 l -0.664,0 c -0.084,0 -0.172,0.033 -0.211,0.109 l -0.635,1.254 c -0.012,0.016 -0.025,0.035 -0.031,0.035 -0.016,0 -0.02,-0.019 -0.02,-0.064 l 0,-3.047 C -3.217,0.066 -3.264,0 -3.322,0 l -0.662,0 c -0.059,0 -0.112,0.031 -0.112,0.098 l 0,4.509 c 0,0.145 0.119,0.262 0.264,0.262 l 0.535,0 c 0.106,0 0.197,-0.064 0.242,-0.156 l 0.991,-2.006 c 0.033,-0.059 0.044,-0.092 0.072,-0.092 0.025,0 0.037,0.033 0.072,0.092 l 0.99,2.006 c 0.047,0.092 0.139,0.156 0.243,0.156 l 0.535,0 c 0.144,0 0.261,-0.117 0.261,-0.262 l 0,-4.509 C 0.109,0.031 0.061,0 0,0"
             style="fill:#ffffff;fill-opacity:1;fill-rule:nonzero;stroke:none"
             id="path120"
             inkscape:connector-curvature="0" />
        </g>
        <g
           id="g122"
           transform="translate(517.8587,65.6517)">
          <path
             d="m 0,0 c -0.213,-0.033 -0.467,-0.09 -1.246,-0.09 -0.854,0 -1.516,0.229 -1.516,1.346 l 0,2.285 c 0,1.113 0.662,1.344 1.516,1.344 C -0.467,4.885 -0.213,4.824 0,4.791 0.096,4.777 0.129,4.746 0.129,4.654 l 0,-0.42 C 0.129,4.164 0.07,4.104 0,4.104 l -1.34,0 c -0.379,0 -0.515,-0.131 -0.515,-0.563 l 0,-0.707 1.773,0 c 0.074,0 0.133,-0.061 0.133,-0.133 l 0,-0.471 C 0.051,2.158 -0.008,2.1 -0.082,2.1 l -1.773,0 0,-0.844 c 0,-0.436 0.136,-0.565 0.515,-0.565 l 1.34,0 c 0.07,0 0.129,-0.064 0.129,-0.134 l 0,-0.418 C 0.129,0.049 0.096,0.016 0,0"
             style="fill:#ffffff;fill-opacity:1;fill-rule:nonzero;stroke:none"
             id="path124"
             inkscape:connector-curvature="0" />
        </g>
        <g
           id="g126"
           transform="translate(522.2943,65.6125)">
          <path
             d="m 0,0 -0.662,0 c -0.156,0 -0.295,0 -0.4,0.24 L -2.516,3.428 C -2.535,3.465 -2.557,3.48 -2.574,3.48 -2.598,3.48 -2.605,3.465 -2.605,3.428 l 0,-3.295 C -2.605,0.062 -2.66,0 -2.732,0 L -3.291,0 C -3.363,0 -3.42,0.062 -3.42,0.133 l 0,4.474 c 0,0.145 0.115,0.262 0.262,0.262 l 0.707,0 c 0.135,0 0.213,-0.039 0.289,-0.213 l 1.527,-3.361 c 0.012,-0.035 0.03,-0.057 0.051,-0.057 0.014,0 0.033,0.022 0.033,0.063 l 0,3.445 c 0,0.07 0.053,0.123 0.123,0.123 l 0.565,0 c 0.072,0 0.123,-0.053 0.123,-0.123 l 0,-4.482 C 0.26,0.117 0.145,0 0,0"
             style="fill:#ffffff;fill-opacity:1;fill-rule:nonzero;stroke:none"
             id="path128"
             inkscape:connector-curvature="0" />
        </g>
        <g
           id="g130"
           transform="translate(526.3568,69.7238)">
          <path
             d="m 0,0 -1.146,0 0,-3.979 c 0,-0.07 -0.061,-0.132 -0.131,-0.132 l -0.651,0 c -0.07,0 -0.131,0.062 -0.131,0.132 l 0,3.979 -1.146,0 c -0.07,0 -0.129,0.045 -0.129,0.117 l 0,0.518 c 0,0.07 0.059,0.123 0.129,0.123 l 3.205,0 c 0.072,0 0.131,-0.053 0.131,-0.123 l 0,-0.518 C 0.131,0.045 0.072,0 0,0"
             style="fill:#ffffff;fill-opacity:1;fill-rule:nonzero;stroke:none"
             id="path132"
             inkscape:connector-curvature="0" />
        </g>
        <g
           id="g134"
           transform="translate(528.3841,69.6653)">
          <path
             d="M 0,0 C -0.02,0.076 -0.041,0.104 -0.105,0.104 -0.172,0.104 -0.189,0.076 -0.211,0 l -0.473,-1.947 1.155,0 L 0,0 Z m 1.768,-4.053 -0.696,0 c -0.056,0 -0.109,0.055 -0.123,0.112 l -0.303,1.246 -1.505,0 -0.303,-1.246 c -0.014,-0.057 -0.065,-0.112 -0.123,-0.112 l -0.697,0 c -0.063,0 -0.116,0.049 -0.116,0.112 0,0.005 0.006,0.021 0.006,0.037 l 1.076,4.103 c 0.157,0.612 0.625,0.672 0.911,0.672 0.279,0 0.751,-0.06 0.912,-0.672 l 1.074,-4.103 c 0,-0.016 0.006,-0.032 0.006,-0.037 0,-0.063 -0.053,-0.112 -0.119,-0.112"
             style="fill:#ffffff;fill-opacity:1;fill-rule:nonzero;stroke:none"
             id="path136"
             inkscape:connector-curvature="0" />
        </g>
        <g
           id="g138"
           transform="translate(533.3861,65.6517)">
          <path
             d="m 0,0 c -0.201,-0.043 -0.77,-0.09 -1.119,-0.09 -0.85,0 -1.512,0.229 -1.512,1.346 l 0,3.441 c 0,0.074 0.059,0.133 0.131,0.133 l 0.648,0 c 0.073,0 0.131,-0.059 0.131,-0.133 l 0,-3.441 c 0,-0.436 0.131,-0.565 0.512,-0.565 l 1.209,0 c 0.068,0 0.129,-0.064 0.129,-0.134 l 0,-0.418 C 0.129,0.049 0.094,0.023 0,0"
             style="fill:#ffffff;fill-opacity:1;fill-rule:nonzero;stroke:none"
             id="path140"
             inkscape:connector-curvature="0" />
        </g>
        <g
           id="g142"
           transform="translate(460.3646,57.3958)">
          <path
             d="m 0,0 -0.896,0 c -0.102,0 -0.182,0.08 -0.182,0.182 l 0,2.769 -2.577,0 0,-2.769 C -3.655,0.08 -3.737,0 -3.837,0 l -0.895,0 c -0.1,0 -0.182,0.08 -0.182,0.182 l 0,6.382 c 0,0.1 0.082,0.17 0.182,0.17 l 0.895,0 c 0.1,0 0.182,-0.07 0.182,-0.17 l 0,-2.5 2.577,0 0,2.5 c 0,0.1 0.08,0.17 0.182,0.17 l 0.896,0 c 0.098,0 0.181,-0.07 0.181,-0.17 l 0,-6.382 C 0.181,0.08 0.098,0 0,0"
             style="fill:#ffffff;fill-opacity:1;fill-rule:nonzero;stroke:none"
             id="path144"
             inkscape:connector-curvature="0" />
        </g>
        <g
           id="g146"
           transform="translate(463.8431,62.9974)">
          <path
             d="M 0,0 C -0.025,0.107 -0.052,0.148 -0.144,0.148 -0.233,0.148 -0.264,0.107 -0.289,0 l -0.652,-2.689 1.593,0 L 0,0 Z m 2.449,-5.602 -0.96,0 c -0.083,0 -0.156,0.073 -0.175,0.153 l -0.416,1.722 -2.085,0 -0.417,-1.722 c -0.017,-0.08 -0.089,-0.153 -0.172,-0.153 l -0.96,0 c -0.091,0 -0.164,0.063 -0.164,0.153 0,0.008 0.007,0.029 0.007,0.047 l 1.491,5.681 c 0.215,0.846 0.869,0.928 1.258,0.928 0.389,0 1.042,-0.082 1.261,-0.928 l 1.487,-5.681 c 0,-0.018 0.009,-0.039 0.009,-0.047 0,-0.09 -0.073,-0.153 -0.164,-0.153"
             style="fill:#ffffff;fill-opacity:1;fill-rule:nonzero;stroke:none"
             id="path148"
             inkscape:connector-curvature="0" />
        </g>
        <g
           id="g150"
           transform="translate(469.1205,57.3255)">
          <path
             d="m 0,0 c -1.459,0 -2.494,0.633 -2.494,2.563 l 0,4.072 c 0,0.099 0.082,0.17 0.18,0.17 l 0.898,0 c 0.102,0 0.184,-0.071 0.184,-0.17 l 0,-4.072 c 0,-1.036 0.252,-1.52 1.232,-1.52 0.979,0 1.23,0.484 1.23,1.52 l 0,4.072 c 0,0.099 0.084,0.17 0.184,0.17 l 0.899,0 c 0.099,0 0.179,-0.071 0.179,-0.17 l 0,-4.072 C 2.492,0.633 1.459,0 0,0"
             style="fill:#ffffff;fill-opacity:1;fill-rule:nonzero;stroke:none"
             id="path152"
             inkscape:connector-curvature="0" />
        </g>
        <g
           id="g154"
           transform="translate(476.6341,63.0814)">
          <path
             d="m 0,0 -1.586,0 0,-5.504 c 0,-0.101 -0.082,-0.182 -0.182,-0.182 l -0.898,0 c -0.098,0 -0.18,0.081 -0.18,0.182 l 0,5.504 -1.586,0 c -0.103,0 -0.183,0.064 -0.183,0.164 l 0,0.715 c 0,0.1 0.08,0.17 0.183,0.17 l 4.432,0 c 0.098,0 0.182,-0.07 0.182,-0.17 l 0,-0.715 C 0.182,0.064 0.098,0 0,0"
             style="fill:#ffffff;fill-opacity:1;fill-rule:nonzero;stroke:none"
             id="path156"
             inkscape:connector-curvature="0" />
        </g>
        <g
           id="g158"
           transform="translate(480.8587,57.4505)">
          <path
             d="m 0,0 c -0.289,-0.043 -0.645,-0.125 -1.723,-0.125 -1.177,0 -2.093,0.312 -2.093,1.857 l 0,3.163 c 0,1.542 0.916,1.859 2.093,1.859 C -0.645,6.754 -0.289,6.672 0,6.625 0.137,6.609 0.18,6.561 0.18,6.437 l 0,-0.58 C 0.18,5.756 0.1,5.676 0,5.676 l -1.85,0 c -0.527,0 -0.716,-0.184 -0.716,-0.781 l 0,-0.977 2.457,0 c 0.097,0 0.179,-0.084 0.179,-0.184 l 0,-0.654 c 0,-0.101 -0.082,-0.184 -0.179,-0.184 l -2.457,0 0,-1.164 c 0,-0.599 0.189,-0.781 0.716,-0.781 l 1.85,0 c 0.1,0 0.18,-0.086 0.18,-0.183 l 0,-0.581 C 0.18,0.062 0.137,0.018 0,0"
             style="fill:#ffffff;fill-opacity:1;fill-rule:nonzero;stroke:none"
             id="path160"
             inkscape:connector-curvature="0" />
        </g>
        <g
           id="g162"
           transform="translate(483.4779,59.7355)">
          <path
             d="m 0,0 -1.777,0 c -0.1,0 -0.184,0.061 -0.184,0.16 l 0,0.578 c 0,0.096 0.084,0.168 0.184,0.168 l 1.777,0 c 0.1,0 0.174,-0.072 0.174,-0.168 l 0,-0.578 C 0.174,0.061 0.1,0 0,0"
             style="fill:#ffffff;fill-opacity:1;fill-rule:nonzero;stroke:none"
             id="path164"
             inkscape:connector-curvature="0" />
        </g>
        <g
           id="g166"
           transform="translate(488.4896,57.4758)">
          <path
             d="m 0,0 c -0.453,-0.09 -1.041,-0.15 -1.977,-0.15 -0.978,0 -2.425,0.642 -2.425,2.781 l 0,1.303 c 0,2.154 1.377,2.795 2.453,2.795 0.869,0 1.65,-0.11 1.949,-0.165 C 0.117,6.535 0.174,6.492 0.174,6.375 l 0,-0.605 c 0,-0.131 -0.037,-0.19 -0.182,-0.19 l -0.027,0 c -0.418,0.033 -1.045,0.07 -1.914,0.07 -0.606,0 -1.188,-0.427 -1.188,-1.716 l 0,-1.303 c 0,-1.285 0.625,-1.705 1.16,-1.705 0.336,0 0.62,0.006 0.897,0.029 l 0,2.313 c 0,0.097 0.074,0.179 0.174,0.179 l 0.898,0 c 0.098,0 0.182,-0.082 0.182,-0.179 l 0,-3.049 C 0.174,0.102 0.117,0.029 0,0"
             style="fill:#ffffff;fill-opacity:1;fill-rule:nonzero;stroke:none"
             id="path168"
             inkscape:connector-curvature="0" />
        </g>
        <g
           id="g170"
           transform="translate(491.9623,62.9974)">
          <path
             d="M 0,0 C -0.027,0.107 -0.055,0.148 -0.145,0.148 -0.236,0.148 -0.266,0.107 -0.291,0 l -0.652,-2.689 1.593,0 L 0,0 Z m 2.447,-5.602 -0.963,0 c -0.078,0 -0.154,0.073 -0.17,0.153 l -0.418,1.722 -2.085,0 -0.416,-1.722 c -0.02,-0.08 -0.092,-0.153 -0.172,-0.153 l -0.961,0 c -0.09,0 -0.164,0.063 -0.164,0.153 0,0.008 0.009,0.029 0.009,0.047 l 1.489,5.681 c 0.215,0.846 0.869,0.928 1.259,0.928 0.391,0 1.041,-0.082 1.258,-0.928 l 1.489,-5.681 c 0,-0.018 0.005,-0.039 0.005,-0.047 0,-0.09 -0.07,-0.153 -0.16,-0.153"
             style="fill:#ffffff;fill-opacity:1;fill-rule:nonzero;stroke:none"
             id="path172"
             inkscape:connector-curvature="0" />
        </g>
        <g
           id="g174"
           transform="translate(498.3959,62.1535)">
          <path
             d="m 0,0 c 0,0.682 -0.451,0.973 -1.357,0.973 -0.19,0 -0.645,-0.022 -0.807,-0.037 l 0,-2.041 c 0.144,-0.01 0.65,-0.028 0.807,-0.028 0.931,0 1.357,0.256 1.357,1.051 L 0,0 Z m 1.361,-4.758 -1.105,0 c -0.102,0 -0.135,0.09 -0.182,0.182 l -1.304,2.424 -0.127,0 c -0.237,0 -0.598,0.025 -0.807,0.031 l 0,-2.455 c 0,-0.102 -0.074,-0.182 -0.174,-0.182 l -0.906,0 c -0.1,0 -0.18,0.08 -0.18,0.182 l 0,6.238 c 0,0.18 0.106,0.244 0.289,0.268 0.473,0.076 1.115,0.121 1.778,0.121 1.396,0 2.611,-0.498 2.611,-2.051 l 0,-0.082 c 0,-0.961 -0.483,-1.559 -1.225,-1.848 l 1.424,-2.646 c 0.018,-0.029 0.018,-0.053 0.018,-0.072 0,-0.065 -0.037,-0.11 -0.11,-0.11"
             style="fill:#ffffff;fill-opacity:1;fill-rule:nonzero;stroke:none"
             id="path176"
             inkscape:connector-curvature="0" />
        </g>
        <g
           id="g178"
           transform="translate(503.974,61.3763)">
          <path
             d="M 0,0 C 0,1.195 -0.428,1.729 -1.318,1.729 -2.203,1.729 -2.631,1.195 -2.631,0 l 0,-1.225 c 0,-1.201 0.428,-1.732 1.313,-1.732 0.89,0 1.318,0.531 1.318,1.732 L 0,0 Z m -1.318,-4.051 c -1.493,0 -2.58,0.83 -2.58,2.826 l 0,1.225 c 0,1.994 1.087,2.828 2.58,2.828 C 0.18,2.828 1.268,1.994 1.268,0 l 0,-1.225 c 0,-1.996 -1.088,-2.826 -2.586,-2.826"
             style="fill:#ffffff;fill-opacity:1;fill-rule:nonzero;stroke:none"
             id="path180"
             inkscape:connector-curvature="0" />
        </g>
        <g
           id="g182"
           transform="translate(510.6966,57.3958)">
          <path
             d="M 0,0 -0.914,0 C -1.133,0 -1.32,0 -1.469,0.326 l -2.01,4.412 c -0.027,0.059 -0.056,0.076 -0.082,0.076 -0.027,0 -0.046,-0.017 -0.046,-0.076 l 0,-4.556 C -3.607,0.08 -3.68,0 -3.779,0 l -0.772,0 c -0.097,0 -0.181,0.08 -0.181,0.182 l 0,6.191 c 0,0.199 0.168,0.361 0.365,0.361 l 0.978,0 c 0.19,0 0.289,-0.054 0.399,-0.289 l 2.111,-4.658 c 0.018,-0.047 0.047,-0.076 0.072,-0.076 0.02,0 0.047,0.029 0.047,0.082 l 0,4.771 c 0,0.1 0.073,0.17 0.172,0.17 l 0.779,0 c 0.1,0 0.174,-0.07 0.174,-0.17 l 0,-6.203 C 0.365,0.16 0.201,0 0,0"
             style="fill:#ffffff;fill-opacity:1;fill-rule:nonzero;stroke:none"
             id="path184"
             inkscape:connector-curvature="0" />
        </g>
        <g
           id="g186"
           transform="translate(516.6966,57.3958)">
          <path
             d="M 0,0 -0.914,0 C -1.129,0 -1.322,0 -1.467,0.326 L -3.48,4.738 c -0.028,0.059 -0.053,0.076 -0.083,0.076 -0.025,0 -0.044,-0.017 -0.044,-0.076 l 0,-4.556 C -3.607,0.08 -3.68,0 -3.779,0 l -0.77,0 C -4.65,0 -4.732,0.08 -4.732,0.182 l 0,6.191 c 0,0.199 0.164,0.361 0.363,0.361 l 0.98,0 c 0.19,0 0.289,-0.054 0.399,-0.289 l 2.115,-4.658 c 0.014,-0.047 0.043,-0.076 0.07,-0.076 0.018,0 0.047,0.029 0.047,0.082 l 0,4.771 c 0,0.1 0.069,0.17 0.17,0.17 l 0.781,0 c 0.098,0 0.172,-0.07 0.172,-0.17 l 0,-6.203 C 0.365,0.16 0.203,0 0,0"
             style="fill:#ffffff;fill-opacity:1;fill-rule:nonzero;stroke:none"
             id="path188"
             inkscape:connector-curvature="0" />
        </g>
        <g
           id="g190"
           transform="translate(521.7826,57.4505)">
          <path
             d="m 0,0 c -0.289,-0.043 -0.645,-0.125 -1.721,-0.125 -1.179,0 -2.095,0.312 -2.095,1.857 l 0,3.163 c 0,1.542 0.916,1.859 2.095,1.859 C -0.645,6.754 -0.289,6.672 0,6.625 0.137,6.609 0.184,6.561 0.184,6.437 l 0,-0.58 C 0.184,5.756 0.1,5.676 0,5.676 l -1.848,0 c -0.527,0 -0.716,-0.184 -0.716,-0.781 l 0,-0.977 2.457,0 c 0.097,0 0.179,-0.084 0.179,-0.184 l 0,-0.654 c 0,-0.101 -0.082,-0.184 -0.179,-0.184 l -2.457,0 0,-1.164 c 0,-0.599 0.189,-0.781 0.716,-0.781 l 1.848,0 c 0.1,0 0.184,-0.086 0.184,-0.183 l 0,-0.581 C 0.184,0.062 0.137,0.018 0,0"
             style="fill:#ffffff;fill-opacity:1;fill-rule:nonzero;stroke:none"
             id="path192"
             inkscape:connector-curvature="0" />
        </g>
        <path
           d="m 465.43,73.724 -9.965,0 0,3.473 9.965,0 0,-3.473 z"
           style="fill:#8b338b;fill-opacity:1;fill-rule:nonzero;stroke:none"
           id="path194"
           inkscape:connector-curvature="0" />
        <path
           d="m 476.839,73.724 -9.965,0 0,3.473 9.965,0 0,-3.473 z"
           style="fill:#464295;fill-opacity:1;fill-rule:nonzero;stroke:none"
           id="path196"
           inkscape:connector-curvature="0" />
        <path
           d="m 488.249,73.724 -9.965,0 0,3.473 9.965,0 0,-3.473 z"
           style="fill:#00b0eb;fill-opacity:1;fill-rule:nonzero;stroke:none"
           id="path198"
           inkscape:connector-curvature="0" />
        <path
           d="m 499.659,73.724 -9.965,0 0,3.473 9.965,0 0,-3.473 z"
           style="fill:#afca00;fill-opacity:1;fill-rule:nonzero;stroke:none"
           id="path200"
           inkscape:connector-curvature="0" />
        <path
           d="m 511.068,73.724 -9.961,0 0,3.473 9.961,0 0,-3.473 z"
           style="fill:#ffdd00;fill-opacity:1;fill-rule:nonzero;stroke:none"
           id="path202"
           inkscape:connector-curvature="0" />
        <path
           d="m 522.48,73.724 -9.963,0 0,3.473 9.963,0 0,-3.473 z"
           style="fill:#f18700;fill-opacity:1;fill-rule:nonzero;stroke:none"
           id="path204"
           inkscape:connector-curvature="0" />
        <path
           d="m 533.892,73.724 -9.965,0 0,3.473 9.965,0 0,-3.473 z"
           style="fill:#ea4f55;fill-opacity:1;fill-rule:nonzero;stroke:none"
           id="path206"
           inkscape:connector-curvature="0" />
        <g
           id="g208"
           transform="translate(523.6322,57.3958)">
          <path
             d="m 0,0 -0.805,0 c -0.103,0 -0.183,0.08 -0.183,0.182 l 0,1.023 c 0,0.096 0.08,0.172 0.183,0.172 l 0.805,0 c 0.1,0 0.18,-0.076 0.18,-0.172 l 0,-1.023 C 0.18,0.08 0.1,0 0,0"
             style="fill:#c1dbe8;fill-opacity:1;fill-rule:nonzero;stroke:none"
             id="path210"
             inkscape:connector-curvature="0" />
        </g>
        <g
           id="g212"
           transform="translate(528.4466,63.1263)">
          <path
             d="m 0,0 -1.85,0 c -0.525,0 -0.716,-0.184 -0.716,-0.781 l 0,-0.977 2.457,0 c 0.097,0 0.181,-0.084 0.181,-0.183 l 0,-0.655 c 0,-0.101 -0.084,-0.183 -0.181,-0.183 l -2.457,0 0,-2.77 c 0,-0.101 -0.082,-0.181 -0.184,-0.181 l -0.887,0 c -0.097,0 -0.179,0.08 -0.179,0.181 l 0,4.768 c 0,1.543 0.916,1.859 2.093,1.859 C -0.645,1.078 -0.291,0.996 0,0.949 0.135,0.934 0.18,0.885 0.18,0.762 l 0,-0.58 C 0.18,0.08 0.098,0 0,0"
             style="fill:#c1dbe8;fill-opacity:1;fill-rule:nonzero;stroke:none"
             id="path214"
             inkscape:connector-curvature="0" />
        </g>
        <g
           id="g216"
           transform="translate(532.8236,62.1535)">
          <path
             d="m 0,0 c 0,0.682 -0.453,0.973 -1.359,0.973 -0.192,0 -0.643,-0.022 -0.807,-0.037 l 0,-2.041 c 0.145,-0.01 0.654,-0.028 0.807,-0.028 0.933,0 1.359,0.256 1.359,1.051 L 0,0 Z m 1.361,-4.758 -1.107,0 c -0.098,0 -0.137,0.09 -0.182,0.182 l -1.306,2.424 -0.125,0 c -0.237,0 -0.598,0.025 -0.807,0.031 l 0,-2.455 c 0,-0.102 -0.072,-0.182 -0.172,-0.182 l -0.906,0 c -0.1,0 -0.18,0.08 -0.18,0.182 l 0,6.238 c 0,0.18 0.106,0.244 0.287,0.268 0.471,0.076 1.116,0.121 1.778,0.121 C 0.035,2.051 1.25,1.553 1.25,0 l 0,-0.082 c 0,-0.961 -0.48,-1.559 -1.223,-1.848 l 1.424,-2.646 c 0.016,-0.029 0.016,-0.053 0.016,-0.072 0,-0.065 -0.035,-0.11 -0.106,-0.11"
             style="fill:#c1dbe8;fill-opacity:1;fill-rule:nonzero;stroke:none"
             id="path218"
             inkscape:connector-curvature="0" />
        </g>
      </g>
    </g>
    <g
       transform="matrix(4.3019999,0,0,-4.3019999,-1505.0716,808.74909)"
       id="g220">
      <g
         id="g222"
         clip-path="url(#clipPath224)">
        <g
           id="g228"
           transform="translate(516.433,141.3645)">
          <path
             d="m 0,0 c -3.596,-0.447 -8.445,-1.402 -13.613,-2.563 2.758,7.598 6.254,17.063 6.674,18.006 0.541,1.209 0.65,2.42 0.431,3.03 -4.211,-4.727 -8.631,-13.174 -12.721,-22.344 -2.857,-0.686 -5.707,-1.399 -8.402,-2.094 1.963,5.865 3.486,11.082 4.406,14.467 0,0 -1.041,0.98 -1.543,1.461 -0.502,0.482 -1.152,0.512 -1.539,0.404 -0.386,-0.115 -0.9,-0.185 -1.986,-0.885 -0.166,-0.218 -0.496,-0.935 -0.824,-2.207 -1.289,-5.459 -2.596,-10.279 -3.918,-14.648 -6.281,-1.666 -10.768,-2.941 -10.768,-2.941 -1.199,1.541 -6.217,3.308 -5.996,1.101 0.218,-2.205 0.218,-2.482 0.285,-3.469 0.073,-1.105 2.134,-2.81 7.491,-2.045 1.287,0.192 3.851,0.754 7.144,1.571 -3.732,-11.133 -7.619,-19.469 -11.668,-29.092 6.297,4.566 12.377,18.018 16.881,30.439 2.506,0.674 5.211,1.438 7.977,2.258 -2.426,-5.756 -4.684,-11.554 -6.659,-16.703 -1.16,-2.644 -1.213,-4.631 -0.828,-5.736 0.34,-0.961 0.717,-2.039 2.981,-3.199 0.607,3.365 7.871,19.48 10.468,26.765 0.092,0.258 0.19,0.526 0.289,0.803 4.95,1.59 9.756,3.301 13.62,4.969 L 0,0 Z"
             style="fill:#ffffff;fill-opacity:1;fill-rule:nonzero;stroke:none"
             id="path230"
             inkscape:connector-curvature="0" />
        </g>
      </g>
    </g>
  </g>
</svg>
