<?xml version="1.0" encoding="utf-8"?>
<!-- Generator: Adobe Illustrator 15.1.0, SVG Export Plug-In . SVG Version: 6.00 Build 0)  -->
<!DOCTYPE svg PUBLIC "-//W3C//DTD SVG 1.1//EN" "http://www.w3.org/Graphics/SVG/1.1/DTD/svg11.dtd">
<svg version="1.1" id="Calque_1" xmlns="http://www.w3.org/2000/svg" xmlns:xlink="http://www.w3.org/1999/xlink" x="0px" y="0px"
	 width="172.881px" height="95.338px" viewBox="0 0 172.881 95.338" enable-background="new 0 0 172.881 95.338"
	 xml:space="preserve">
<g>
	<defs>
		<rect id="SVGID_1_" x="-396.678" y="-390.905" width="566.929" height="793.701"/>
	</defs>
	<clipPath id="SVGID_2_">
		<use xlink:href="#SVGID_1_"  overflow="visible"/>
	</clipPath>
	<path clip-path="url(#SVGID_2_)" fill="#00485F" d="M184.425,29.387c-3.374-1.514-7.05-3.064-11.034-4.611
		C109.661,0.029,32.297,1.214,2.768,19.377L27.17,92.583c34.877-21.455,58.179-26.447,146.221-21.117
		c3.932,0.238,7.619,0.506,11.034,0.783V29.387z"/>
	<path clip-path="url(#SVGID_2_)" fill="#AAC737" d="M184.425,72.308c-3.415-0.289-7.104-0.574-11.034-0.842
		C90.229,65.827,64.031,72.147,39.038,85.702h145.387V72.308z"/>
	<path clip-path="url(#SVGID_2_)" fill="#FFFFFF" d="M54.03,31.428c-0.845,0.844-1.834,1.256-3.023,1.256
		c-1.19,0-2.179-0.412-3.026-1.256c-0.843-0.844-1.254-1.834-1.254-3.025c0-1.18,0.411-2.166,1.254-3.01
		c0.856-0.854,1.845-1.27,3.026-1.27c1.181,0,2.17,0.416,3.022,1.27c0.856,0.854,1.271,1.838,1.271,3.01
		C55.3,29.584,54.886,30.572,54.03,31.428 M51.007,20.471c-2.17,0-4.058,0.787-5.607,2.34c-1.541,1.541-2.324,3.422-2.324,5.592
		c0,2.168,0.783,4.053,2.325,5.596c1.54,1.531,3.429,2.309,5.606,2.309c2.169,0,4.053-0.777,5.605-2.309
		c1.554-1.555,2.339-3.438,2.339-5.596c0-2.16-0.785-4.041-2.339-5.592C55.062,21.258,53.177,20.471,51.007,20.471"/>
</g>
<rect x="61.179" y="20.707" fill="#FFFFFF" width="3.638" height="15.367"/>
<rect x="61.179" y="15.629" fill="#FFFFFF" width="3.638" height="3.639"/>
<g>
	<defs>
		<rect id="SVGID_3_" x="-396.678" y="-390.905" width="566.929" height="793.701"/>
	</defs>
	<clipPath id="SVGID_4_">
		<use xlink:href="#SVGID_3_"  overflow="visible"/>
	</clipPath>
	<path clip-path="url(#SVGID_4_)" fill="#FFFFFF" d="M69.734,22.471c-1.393,1.305-2.099,2.908-2.099,4.762v8.84h3.651v-8.84
		c0-0.904,0.312-1.629,0.968-2.215c0.651-0.602,1.429-0.895,2.376-0.895h0.415v-3.654l-0.417,0.002
		C72.785,20.48,71.137,21.154,69.734,22.471"/>
</g>
<polygon fill="#FFFFFF" points="52.877,41.68 49.225,41.68 49.225,46.754 46.884,46.754 46.884,50.406 49.225,50.406 49.225,62.122 
	52.877,62.122 52.877,50.406 55.229,50.406 55.229,46.754 52.877,46.754 "/>
<rect x="57.77" y="41.68" fill="#FFFFFF" width="3.639" height="20.442"/>
<g>
	<path fill="#FFFFFF" d="M74.591,57.478c-0.849,0.846-1.836,1.256-3.025,1.256s-2.181-0.41-3.024-1.256
		c-0.844-0.843-1.256-1.833-1.256-3.024c0-1.18,0.412-2.164,1.256-3.012c0.854-0.852,1.844-1.268,3.024-1.268
		s2.17,0.416,3.025,1.268c0.854,0.857,1.267,1.842,1.267,3.012C75.857,55.633,75.444,56.625,74.591,57.478 M71.565,46.521
		c-2.17,0-4.056,0.787-5.606,2.34c-1.543,1.541-2.325,3.422-2.325,5.592c0,2.146,0.752,4.019,2.236,5.562
		c1.496,1.555,3.335,2.342,5.46,2.342c1.691,0,3.213-0.502,4.527-1.488v1.256h3.653v-7.671c0-2.16-0.787-4.041-2.339-5.592
		C75.622,47.309,73.735,46.521,71.565,46.521"/>
	<path fill="#FFFFFF" d="M88.482,46.521c-1.783,0-3.376,0.686-4.727,2.037c-1.35,1.352-2.032,2.938-2.032,4.727v8.839h3.648v-8.839
		c0-0.85,0.304-1.564,0.926-2.186c0.624-0.623,1.337-0.926,2.185-0.926c0.85,0,1.565,0.303,2.184,0.926
		c0.623,0.619,0.927,1.336,0.927,2.186v8.839h3.652v-8.839c0-1.777-0.689-3.367-2.049-4.727
		C91.845,47.207,90.26,46.521,88.482,46.521"/>
</g>
<polygon fill="#FFFFFF" points="102.28,41.682 98.63,41.682 98.63,46.758 96.288,46.758 96.288,50.406 98.63,50.406 98.63,62.122 
	102.28,62.122 102.28,50.406 104.634,50.406 104.634,46.758 102.28,46.758 "/>
<rect x="106.268" y="46.758" fill="#FFFFFF" width="3.638" height="15.364"/>
<rect x="106.268" y="41.68" fill="#FFFFFF" width="3.638" height="3.639"/>
<g>
	<path fill="#FFFFFF" d="M123.088,57.478c-0.846,0.846-1.836,1.256-3.025,1.256c-1.19,0-2.18-0.41-3.024-1.256
		c-0.844-0.843-1.254-1.833-1.254-3.024c0-1.18,0.41-2.164,1.254-3.012c0.855-0.852,1.842-1.268,3.024-1.268
		c1.182,0,2.17,0.416,3.025,1.268c0.853,0.857,1.268,1.842,1.268,3.012C124.355,55.633,123.94,56.625,123.088,57.478
		 M120.062,46.521c-2.168,0-4.056,0.787-5.605,2.34c-1.542,1.541-2.324,3.422-2.324,5.592c0,2.146,0.752,4.019,2.234,5.562
		c1.498,1.555,3.338,2.342,5.464,2.342c1.69,0,3.21-0.502,4.524-1.488v8.582h3.654V54.453c0-2.16-0.787-4.041-2.34-5.592
		C124.12,47.309,122.232,46.521,120.062,46.521"/>
	<path fill="#FFFFFF" d="M140.092,55.623c0,0.85-0.301,1.564-0.924,2.187c-0.623,0.621-1.338,0.926-2.188,0.926
		c-0.845,0-1.557-0.305-2.184-0.926c-0.621-0.624-0.924-1.341-0.924-2.187v-8.867h-3.651v8.867c0,1.786,0.685,3.37,2.034,4.712
		c1.351,1.342,2.941,2.021,4.725,2.021c1.769,0,3.354-0.68,4.711-2.021c1.363-1.34,2.055-2.926,2.055-4.712v-8.867h-3.654V55.623z"
		/>
	<path fill="#FFFFFF" d="M79.148,28.43c0-1.191,0.404-2.186,1.242-3.041c0.835-0.85,1.824-1.266,3.023-1.266
		c0.821,0,1.564,0.213,2.262,0.645l-6.48,4.205C79.164,28.781,79.148,28.6,79.148,28.43 M86.467,31.385
		c-0.798,0.873-1.785,1.299-3.012,1.299c-0.829,0-1.575-0.213-2.265-0.643l9.737-6.332l-0.142-0.322
		c-0.652-1.488-1.652-2.693-2.971-3.578c-1.322-0.889-2.804-1.338-4.401-1.338c-2.191,0-4.076,0.787-5.611,2.34
		c-1.532,1.553-2.307,3.443-2.307,5.619c0,2.199,0.783,4.082,2.325,5.6c1.544,1.51,3.438,2.277,5.634,2.277
		c2.226,0,4.118-0.799,5.626-2.373c1.06-1.105,1.747-2.387,2.071-3.816h-3.864C87.087,30.57,86.824,30.994,86.467,31.385"/>
	<path fill="#FFFFFF" d="M148.962,54.48c0-1.191,0.406-2.186,1.243-3.041c0.836-0.852,1.823-1.266,3.021-1.266
		c0.823,0,1.566,0.209,2.262,0.645l-6.479,4.203C148.979,54.832,148.962,54.648,148.962,54.48 M157.102,56.166
		c-0.202,0.453-0.464,0.881-0.82,1.272c-0.798,0.871-1.783,1.297-3.014,1.297c-0.83,0-1.575-0.213-2.265-0.645l9.736-6.331
		l-0.138-0.324c-0.655-1.486-1.652-2.691-2.972-3.578c-1.323-0.885-2.805-1.336-4.403-1.336c-2.188,0-4.074,0.787-5.608,2.34
		c-1.532,1.553-2.309,3.441-2.309,5.619c0,2.197,0.781,4.081,2.327,5.595c1.54,1.516,3.437,2.281,5.631,2.281
		c2.226,0,4.12-0.797,5.628-2.371c1.057-1.105,1.746-2.387,2.07-3.819H157.102z"/>
</g>
<polygon fill="#FFFFFF" points="34.407,15.645 30.609,15.645 30.609,36.074 42.783,36.074 42.783,32.289 34.407,32.289 "/>
<path fill="#FFFFFF" d="M35.905,55.293l2.824-7.734l2.818,7.734H35.905z M44.031,62.11h4.066l-7.247-20.438h-4.227L29.405,62.11
	h4.011l1.242-3.402h8.134L44.031,62.11z"/>
</svg>
