<?xml version="1.0" encoding="UTF-8" standalone="no"?>
<!-- Created with Inkscape (http://www.inkscape.org/) -->

<svg
   xmlns:dc="http://purl.org/dc/elements/1.1/"
   xmlns:cc="http://creativecommons.org/ns#"
   xmlns:rdf="http://www.w3.org/1999/02/22-rdf-syntax-ns#"
   xmlns:svg="http://www.w3.org/2000/svg"
   xmlns="http://www.w3.org/2000/svg"
   xmlns:xlink="http://www.w3.org/1999/xlink"
   xmlns:sodipodi="http://sodipodi.sourceforge.net/DTD/sodipodi-0.dtd"
   xmlns:inkscape="http://www.inkscape.org/namespaces/inkscape"
   id="svg2"
   version="1.1"
   inkscape:version="0.91 r13725"
   xml:space="preserve"
   width="800"
   height="150"
   viewBox="0 0 800.00003 150"
   sodipodi:docname="Logo Lot Garonne.svg"><metadata
     id="metadata8"><rdf:RDF><cc:Work
         rdf:about=""><dc:format>image/svg+xml</dc:format><dc:type
           rdf:resource="http://purl.org/dc/dcmitype/StillImage" /><dc:title></dc:title></cc:Work></rdf:RDF></metadata><defs
     id="defs6"><linearGradient
       inkscape:collect="always"
       id="linearGradient5093"><stop
         style="stop-color:#00afcc;stop-opacity:1"
         offset="0"
         id="stop5095" /><stop
         style="stop-color:#00748b;stop-opacity:1"
         offset="1"
         id="stop5097" /></linearGradient><linearGradient
       inkscape:collect="always"
       xlink:href="#linearGradient5093"
       id="linearGradient5099"
       x1="545.00787"
       y1="65.737259"
       x2="639.79187"
       y2="62.679714"
       gradientUnits="userSpaceOnUse" /></defs><sodipodi:namedview
     pagecolor="#ffffff"
     bordercolor="#666666"
     borderopacity="1"
     objecttolerance="10"
     gridtolerance="10"
     guidetolerance="10"
     inkscape:pageopacity="0"
     inkscape:pageshadow="2"
     inkscape:window-width="1440"
     inkscape:window-height="790"
     id="namedview4"
     showgrid="false"
     inkscape:zoom="1.0465904"
     inkscape:cx="553.09398"
     inkscape:cy="26.28421"
     inkscape:window-x="0"
     inkscape:window-y="1"
     inkscape:window-maximized="1"
     inkscape:current-layer="g10" /><g
     id="g10"
     inkscape:groupmode="layer"
     inkscape:label="Logo Lot Garonne"
     transform="matrix(1.25,0,0,-1.25,0,149.99998)"><g
       id="g5105"><g
         id="g5037"><path
           d="m -2.546214e-5,102.67839 c 0,0.58921 0.15855638214,1.10336 0.46811883214,1.53495 0.30956246,0.43534 0.68330253,0.64925 1.11744493,0.64925 l 3.9676847,0 c 0.4341425,0 0.8041073,-0.21391 1.1061195,-0.64925 0.3020121,-0.43159 0.4530182,-0.94574 0.4530182,-1.53495 l 0,-42.543264 15.3535423,0 c 0.49077,0 0.868285,-0.187647 1.117445,-0.56294 0.256711,-0.375293 0.385066,-0.833151 0.385066,-1.38108 l 0,-3.76044 c 0,-0.521658 -0.128355,-0.97201 -0.385066,-1.34355 -0.24916,-0.379046 -0.626675,-0.566693 -1.117445,-0.566693 l -20.9067907,0 c -0.4341425,0 -0.80410738,0.21767 -1.10611953,0.65301 C 0.15098061,53.601268 -2.546214e-5,54.11542 -2.546214e-5,54.70463 l 0,47.97376 z"
           style="fill:#706f6f;fill-opacity:1;fill-rule:nonzero;stroke:none"
           id="path44"
           inkscape:connector-curvature="0" /><path
           d="m 34.541104,79.288601 c 0,-2.619548 0.256711,-5.096485 0.777682,-7.442069 0.517195,-2.341831 1.317528,-4.435968 2.393446,-6.282411 2.378346,-4.030652 5.730681,-6.045977 10.057005,-6.045977 4.345199,0 7.697534,1.925255 10.057004,5.772012 2.174488,3.550276 3.257956,8.151373 3.257956,13.795786 0,5.325414 -1.106119,9.716347 -3.314583,13.176552 -2.434973,3.76044 -5.760882,5.633154 -9.970176,5.633154 -4.062064,0 -7.293594,-1.748867 -9.690815,-5.254108 C 35.730277,89.2001 34.541104,84.752873 34.541104,79.288601 M 29.354046,65.444027 c -0.811658,2.037843 -1.427008,4.210792 -1.8536,6.522599 -0.426592,2.308055 -0.638001,5.040191 -0.638001,8.196408 0,3.148712 0.505871,6.353718 1.513836,9.607512 1.011741,3.253793 2.442524,6.068494 4.292348,8.436595 3.911057,5.006419 8.969761,7.509619 15.183661,7.509619 6.610291,0 11.79735,-2.5595 15.557401,-7.682254 3.567518,-4.84879 5.353165,-11.176237 5.353165,-18.986093 0,-7.73855 -1.963079,-14.216115 -5.893012,-19.425187 -1.849824,-2.458172 -4.069614,-4.398439 -6.655593,-5.820801 -2.589754,-1.422362 -5.209709,-2.131666 -7.863641,-2.131666 -2.653932,0 -4.915248,0.334011 -6.783948,1.002033 -1.8687,0.671775 -3.575069,1.621268 -5.115331,2.837218 -1.540262,1.215951 -2.903092,2.668336 -4.09604,4.353404 -1.189172,1.681314 -2.189588,3.54277 -3.001245,5.580613"
           style="fill:#706f6f;fill-opacity:1;fill-rule:nonzero;stroke:none"
           id="path46"
           inkscape:connector-curvature="0" /><path
           d="m 81.797323,97.419401 -10.226886,0 c -0.49077,0 -0.909812,0.187646 -1.260901,0.56294 -0.351089,0.375293 -0.524746,0.836904 -0.524746,1.381079 l 0,3.58781 c 0,0.52165 0.173657,0.97201 0.524746,1.3473 0.351089,0.37529 0.770131,0.56669 1.260901,0.56669 l 27.988976,0 c 0.490767,0 0.864507,-0.1914 1.121217,-0.56669 0.25294,-0.37529 0.38129,-0.83691 0.38129,-1.38108 l 0,-3.587806 c 0,-0.521658 -0.13213,-0.97201 -0.39639,-1.347303 -0.26426,-0.375294 -0.64177,-0.56294 -1.132543,-0.56294 l -10.596851,0 0,-42.712143 c 0,-0.592964 -0.154782,-1.103363 -0.468119,-1.538703 -0.309563,-0.431588 -0.683303,-0.649258 -1.117445,-0.649258 l -3.994111,0 c -0.434142,0 -0.804107,0.21767 -1.106119,0.649258 -0.298237,0.43534 -0.453019,0.945739 -0.453019,1.538703 l 0,42.712143 z"
           style="fill:#706f6f;fill-opacity:1;fill-rule:nonzero;stroke:none"
           id="path48"
           inkscape:connector-curvature="0" /><path
           d="m 105.99567,70.361872 c -0.30201,0.330258 -0.45302,0.720563 -0.45302,1.178421 l 0,3.242535 c 0,0.454105 0.15101,0.84441 0.45302,1.159657 0.30201,0.318999 0.67198,0.480375 1.10234,0.480375 l 17.22602,0 c 0.43414,0 0.81166,-0.165129 1.12122,-0.495387 0.31334,-0.330258 0.46812,-0.724316 0.46812,-1.178421 l 0,-3.246288 c 0,-0.454105 -0.15478,-0.840658 -0.46812,-1.159657 -0.30956,-0.319 -0.68708,-0.480376 -1.12122,-0.480376 l -17.22602,0 c -0.43036,0 -0.80033,0.168882 -1.10234,0.499141"
           style="fill:#706f6f;fill-opacity:1;fill-rule:nonzero;stroke:none"
           id="path50"
           inkscape:connector-curvature="0" /><path
           d="m 135.7752,102.67839 c 0,0.58921 0.15478,1.10336 0.46812,1.53495 0.30956,0.43534 0.6833,0.64925 1.11744,0.64925 l 24.90468,0 c 0.49077,0 0.86074,-0.18764 1.11745,-0.56294 0.25293,-0.37529 0.38129,-0.8369 0.38129,-1.38108 l 0,-3.689129 c 0,-0.525411 -0.12836,-0.97201 -0.38129,-1.347304 -0.25671,-0.375293 -0.62668,-0.566693 -1.11745,-0.566693 l -19.38163,0 0,-14.951689 15.41395,0 c 0.49077,0 0.86451,-0.187647 1.12122,-0.56294 0.24916,-0.375294 0.38129,-0.836905 0.38129,-1.38108 l 0,-3.692887 c 0,-0.525411 -0.13213,-0.97201 -0.38129,-1.347304 -0.25671,-0.375293 -0.63045,-0.56294 -1.12122,-0.56294 l -15.41395,0 0,-14.749031 19.52131,0 c 0.49077,0 0.86451,-0.187646 1.12122,-0.566693 0.25294,-0.37154 0.38129,-0.833151 0.38129,-1.381079 l 0,-3.689135 c 0,-0.521658 -0.12835,-0.97201 -0.38129,-1.34355 -0.25671,-0.379046 -0.63045,-0.566693 -1.12122,-0.566693 l -25.07456,0 c -0.43036,0 -0.80033,0.21767 -1.10234,0.65301 -0.30579,0.427835 -0.45302,0.941987 -0.45302,1.531197 l 0,47.97376 z"
           style="fill:#706f6f;fill-opacity:1;fill-rule:nonzero;stroke:none"
           id="path52"
           inkscape:connector-curvature="0" /><path
           d="m 177.50837,97.419401 -10.22688,0 c -0.49077,0 -0.90982,0.187646 -1.26091,0.56294 -0.34731,0.375293 -0.52474,0.836904 -0.52474,1.381079 l 0,3.58781 c 0,0.52165 0.17743,0.97201 0.52474,1.3473 0.35109,0.37529 0.77014,0.56669 1.26091,0.56669 l 27.99275,0 c 0.48699,0 0.86073,-0.1914 1.11744,-0.56669 0.25671,-0.37529 0.38129,-0.83691 0.38129,-1.38108 l 0,-3.587806 c 0,-0.521658 -0.13213,-0.97201 -0.39639,-1.347303 -0.26048,-0.375294 -0.64177,-0.56294 -1.13254,-0.56294 l -10.59308,0 0,-42.712143 c 0,-0.592964 -0.15856,-1.103363 -0.46812,-1.538703 -0.31334,-0.431588 -0.68708,-0.649258 -1.11744,-0.649258 l -3.99789,0 c -0.43414,0 -0.80411,0.21767 -1.10612,0.649258 -0.29824,0.43534 -0.45302,0.945739 -0.45302,1.538703 l 0,42.712143 z"
           style="fill:#706f6f;fill-opacity:1;fill-rule:nonzero;stroke:none"
           id="path54"
           inkscape:connector-curvature="0" /><path
           d="m 201.70823,70.361872 c -0.30579,0.330258 -0.45302,0.720563 -0.45302,1.178421 l 0,3.242535 c 0,0.454105 0.14723,0.84441 0.45302,1.159657 0.30201,0.318999 0.6682,0.480375 1.10234,0.480375 l 17.22602,0 c 0.43414,0 0.80788,-0.165129 1.11745,-0.495387 0.31333,-0.330258 0.47189,-0.724316 0.47189,-1.178421 l 0,-3.246288 c 0,-0.454105 -0.15856,-0.840658 -0.47189,-1.159657 -0.30957,-0.319 -0.68331,-0.480376 -1.11745,-0.480376 l -17.22602,0 c -0.43414,0 -0.80033,0.168882 -1.10234,0.499141"
           style="fill:#706f6f;fill-opacity:1;fill-rule:nonzero;stroke:none"
           id="path56"
           inkscape:connector-curvature="0" /><path
           d="m 234.22059,58.975094 c -1.71014,2.364349 -3.04277,5.257861 -3.99411,8.669278 -0.95511,3.418923 -1.43456,7.231904 -1.43456,11.442696 0,4.210792 0.5021,7.952467 1.49119,11.232532 0.98909,3.276311 2.37457,6.053483 4.14889,8.331514 3.70342,4.709936 8.61112,7.066776 14.73442,7.066776 4.9681,0 8.91313,-1.4111 11.83887,-4.23706 1.2458,-1.22721 2.16694,-2.548246 2.76342,-3.95935 0.59647,-1.411103 0.89471,-2.495701 0.89471,-3.261299 0,-0.761846 -0.0151,-1.369821 -0.0453,-1.827679 -0.0264,-0.454105 -0.1359,-0.896952 -0.32466,-1.328539 -0.47189,-1.028304 -1.35905,-1.538703 -2.66148,-1.538703 l -2.43875,0 c -0.56627,0 -0.93624,0.195153 -1.10234,0.581705 -0.21141,0.454105 -0.35109,1.06208 -0.4266,1.827679 -0.0755,0.761845 -0.26048,1.493668 -0.55494,2.199219 -0.29069,0.705552 -0.77013,1.366068 -1.42701,1.981549 -1.54781,1.433621 -3.59394,2.154185 -6.13462,2.154185 -2.54068,0 -4.59436,-0.484129 -6.16105,-1.452386 -1.57046,-0.968257 -2.87289,-2.304302 -3.91106,-4.011887 -2.03858,-3.392652 -3.06165,-7.922443 -3.06165,-13.589374 0,-5.66693 0.92869,-10.275533 2.77852,-13.829562 2.15561,-4.075687 5.31541,-6.109777 9.49073,-6.109777 4.51508,0 7.30114,1.467397 8.36196,4.402192 0.31711,0.84441 0.47567,1.670056 0.47567,2.476936 0,0.806881 -0.0906,1.610009 -0.28314,2.409384 -0.18876,0.791869 -0.51719,1.557468 -0.98909,2.285537 -1.05704,1.730103 -2.63505,2.901018 -4.73404,3.516499 -0.60025,0.180141 -1.14387,0.529164 -1.62709,1.043316 -0.47944,0.510399 -0.72105,1.230962 -0.72105,2.165443 l 0,1.197186 c 0,0.454105 0.14723,0.848163 0.45302,1.178421 0.30201,0.326505 0.6682,0.491635 1.10234,0.491635 l 13.25833,0 c 1.06082,0 1.58934,-0.555435 1.58934,-1.670056 l 0,-3.722911 c 0,-0.457858 -0.15478,-0.818139 -0.46812,-1.092104 -0.31333,-0.273964 -0.6833,-0.409069 -1.12122,-0.409069 l -4.13379,0 c 2.09521,-1.140892 3.50334,-3.039877 4.22062,-5.700707 0.26426,-0.979516 0.39639,-1.977797 0.39639,-2.991089 0,-1.009539 -0.11325,-1.985302 -0.33976,-2.91603 -0.22651,-0.93448 -0.59647,-1.88022 -1.10612,-2.833465 -0.50965,-0.956998 -1.17785,-1.887726 -1.99706,-2.784677 -0.8192,-0.896951 -1.82717,-1.700079 -3.01634,-2.409384 -2.62751,-1.523691 -5.61743,-2.285536 -8.97731,-2.285536 -3.36366,0 -6.24788,0.630492 -8.6451,1.876467 -2.39722,1.25348 -4.4509,3.062394 -6.16105,5.430495"
           style="fill:#706f6f;fill-opacity:1;fill-rule:nonzero;stroke:none"
           id="path58"
           inkscape:connector-curvature="0" /><path
           d="m 293.27869,72.460512 -6.77262,22.194853 c -0.0566,0.225176 -0.16611,0.337764 -0.33977,0.337764 -0.16988,0 -0.28313,-0.112588 -0.33976,-0.337764 l -6.57254,-22.194853 14.02469,0 z M 267.15841,53.151666 c -0.28313,0.424082 -0.42281,0.788117 -0.42281,1.095857 0,0.307741 0.0226,0.547929 0.0793,0.731822 l 14.3116,46.367505 c 0.638,2.02283 1.66861,3.16372 3.0843,3.41517 0.49077,0.0675 1.07969,0.10133 1.75922,0.10133 l 0.47944,0 c 1.28355,0 2.17449,-0.1914 2.66526,-0.58171 0.79278,-0.59296 1.40813,-1.5387 1.8385,-2.83346 l 15.38752,-46.502611 c 0.0566,-0.180141 0.0831,-0.439093 0.0831,-0.769352 0,-0.326505 -0.11326,-0.686787 -0.33976,-1.073339 -0.22651,-0.386552 -0.60403,-0.581705 -1.13255,-0.581705 l -3.96768,0 c -0.86829,0 -1.47231,0.487882 -1.81208,1.467398 l -3.51466,11.097426 -18.6115,0 -3.25796,-11.097426 c -0.26803,-0.979516 -0.84186,-1.467398 -1.72902,-1.467398 l -3.65435,0 c -0.54739,0 -0.96266,0.210165 -1.2458,0.630493"
           style="fill:#706f6f;fill-opacity:1;fill-rule:nonzero;stroke:none"
           id="path60"
           inkscape:connector-curvature="0" /><path
           d="m 318.52426,78.707646 c 2.13296,-0.58921 4.06584,-0.885692 5.79486,-0.885692 1.72902,0 3.27306,0.195153 4.63211,0.581705 1.35906,0.386552 2.56711,0.99828 3.62415,1.84269 2.34059,1.820173 3.51467,4.518533 3.51467,8.091326 0,3.208759 -1.01175,5.588119 -3.03145,7.134328 -1.69882,1.302268 -4.00166,1.947773 -6.9123,1.947773 l -7.62204,0 0,-18.71213 z m 21.98649,-18.843482 2.91442,0.476623 c 0.53229,0 0.90603,-0.21767 1.12122,-0.649258 0.21518,-0.431587 0.37751,-0.893198 0.47944,-1.381079 0.1057,-0.491635 0.20763,-0.930728 0.29824,-1.31728 0.0944,-0.386552 0.14723,-0.806881 0.14723,-1.264739 0,-0.454105 -0.18876,-0.915716 -0.55495,-1.38108 -0.36996,-0.465364 -0.83808,-0.881939 -1.40436,-1.245974 -1.20804,-0.773104 -2.46895,-1.159657 -3.77892,-1.159657 -1.31753,0 -2.49915,0.183894 -3.5562,0.547929 -1.06081,0.364034 -2.06123,0.863175 -3.00502,1.501173 -1.47608,1.002034 -2.98237,2.413137 -4.51885,4.23331 -1.54027,1.820173 -2.76342,3.377641 -3.66568,4.676156 l -4.67741,6.965446 c -0.66065,0.956998 -1.25713,1.730102 -1.78565,2.323066 l 0,-17.514944 c 0,-0.911963 -0.25293,-1.56122 -0.76258,-1.947772 -0.18875,-0.135106 -0.40771,-0.206412 -0.6531,-0.206412 l -4.05074,0 c -0.51342,0 -0.87206,0.183894 -1.07969,0.547929 -0.33976,0.592963 -0.50587,1.12588 -0.50587,1.606255 l 0,47.185644 c 0,0.79562 0.17366,1.49742 0.52097,2.10164 0.35109,0.59672 0.92114,0.90446 1.71392,0.90446 l 12.63543,0 c 11.23863,0 16.85606,-5.351687 16.85606,-16.051302 0,-4.916344 -1.51006,-9.048324 -4.53019,-12.392188 -2.85401,-3.163724 -6.21767,-4.743709 -10.0872,-4.743709 -0.67953,0 -1.32886,0.05254 -1.95553,0.168882 l 3.48824,-4.439721 c 2.00083,-2.525725 3.55997,-4.23331 4.67364,-5.119002 2.00083,-1.621268 3.90728,-2.424396 5.72313,-2.424396"
           style="fill:#706f6f;fill-opacity:1;fill-rule:nonzero;stroke:none"
           id="path62"
           inkscape:connector-curvature="0" /><path
           d="m 355.72386,79.288601 c 0,-2.619548 0.26048,-5.096485 0.78145,-7.442069 0.5172,-2.341831 1.31753,-4.435968 2.39345,-6.282411 2.37834,-4.030652 5.73068,-6.045977 10.057,-6.045977 4.34143,0 7.69754,1.925255 10.05701,5.772012 2.17448,3.550276 3.25795,8.151373 3.25795,13.795786 0,5.325414 -1.10234,9.716347 -3.31458,13.176552 -2.43497,3.76044 -5.76088,5.633154 -9.97018,5.633154 -4.06206,0 -7.28981,-1.748867 -9.69081,-5.254108 -2.37835,-3.44144 -3.57129,-7.888667 -3.57129,-13.352939 m -5.17951,-13.844574 c -0.81544,2.037843 -1.43456,4.210792 -1.85738,6.522599 -0.42659,2.308055 -0.64177,5.040191 -0.64177,8.196408 0,3.148712 0.50587,6.353718 1.51761,9.607512 1.01174,3.253793 2.44252,6.068494 4.29235,8.436595 3.91105,5.006419 8.97353,7.509619 15.18743,7.509619 6.61029,0 11.79358,-2.5595 15.54985,-7.682254 3.5713,-4.84879 5.35694,-11.176237 5.35694,-18.986093 0,-7.73855 -1.96308,-14.216115 -5.89301,-19.425187 -1.84982,-2.458172 -4.06961,-4.398439 -6.65559,-5.820801 -2.58976,-1.422362 -5.20971,-2.131666 -7.86364,-2.131666 -2.65394,0 -4.91903,0.334011 -6.78395,1.002033 -1.8687,0.671775 -3.57507,1.621268 -5.11533,2.837218 -1.53649,1.215951 -2.90309,2.668336 -4.09227,4.353404 -1.19295,1.681314 -2.18959,3.54277 -3.00124,5.580613"
           style="fill:#706f6f;fill-opacity:1;fill-rule:nonzero;stroke:none"
           id="path64"
           inkscape:connector-curvature="0" /><path
           d="m 396.55099,100.62853 c 0,2.82221 1.01929,4.23707 3.05787,4.23707 l 1.16275,0 c 0.77391,0 1.31375,-0.11634 1.61577,-0.34527 0.56627,-0.40907 1.09479,-1.05833 1.58933,-1.94402 l 18.24531,-32.369059 c 0.69841,-1.22721 1.2458,-2.35309 1.63842,-3.381394 l 1.16275,-2.934794 c 0.0189,-0.04504 0.0528,-0.07131 0.10193,-0.07131 0.0453,0 0.0529,0.300235 0.0113,0.889445 -0.0378,0.592964 -0.13213,1.452386 -0.28314,2.578266 -0.151,1.129633 -0.2265,2.25176 -0.2265,3.362629 l 0,32.128873 c 0,0.58921 0.14723,1.08835 0.44169,1.48616 0.29068,0.39781 0.64555,0.60047 1.05704,0.60047 l 3.74118,0 c 0.39639,0 0.73993,-0.20266 1.03816,-0.60047 0.28691,-0.39781 0.43792,-0.89695 0.43792,-1.48616 l 0,-46.840375 c 0,-0.911963 -0.23783,-1.617514 -0.70973,-2.120408 -0.79278,-0.863174 -1.51006,-1.298515 -2.15183,-1.298515 l -1.72902,0 c -0.94379,0 -1.63087,0.183894 -2.06879,0.547929 -0.64177,0.592963 -1.43456,1.707585 -2.37834,3.347617 -10.78561,19.004858 -16.56537,29.269133 -17.33928,30.796577 l -2.35192,4.743709 c -0.0378,0.06755 -0.0906,0.101329 -0.15478,0.101329 -0.0679,0 -0.0717,-0.168882 -0.0151,-0.510399 0.0566,-0.341517 0.13591,-0.915716 0.24161,-1.722597 0.10193,-0.806881 0.20386,-1.703832 0.29824,-2.683348 0.18876,-2.274278 0.28314,-4.390933 0.28314,-6.346211 l 0,-26.187974 c 0,-0.570446 -0.14724,-1.062081 -0.4417,-1.471151 -0.29068,-0.409069 -0.64555,-0.615481 -1.06081,-0.615481 l -3.74118,0 c -0.39262,0 -0.73993,0.206412 -1.03062,0.615481 -0.29823,0.40907 -0.44169,0.900705 -0.44169,1.471151 l 0,46.022226 z"
           style="fill:#706f6f;fill-opacity:1;fill-rule:nonzero;stroke:none"
           id="path66"
           inkscape:connector-curvature="0" /><path
           d="m 441.26162,100.62853 c 0,2.82221 1.0193,4.23707 3.05788,4.23707 l 1.16274,0 c 0.77391,0 1.31376,-0.11634 1.61577,-0.34527 0.56627,-0.40907 1.09479,-1.05833 1.58556,-1.94402 l 18.24531,-32.369059 c 0.69841,-1.22721 1.2458,-2.35309 1.64219,-3.381394 l 1.16275,-2.934794 c 0.0189,-0.04504 0.0529,-0.07131 0.10193,-0.07131 0.0453,0 0.0528,0.300235 0.0113,0.889445 -0.0377,0.592964 -0.13213,1.452386 -0.28313,2.578266 -0.15101,1.129633 -0.22651,2.25176 -0.22651,3.362629 l 0,32.128873 c 0,0.58921 0.14723,1.08835 0.43792,1.48616 0.29446,0.39781 0.64932,0.60047 1.06081,0.60047 l 3.74118,0 c 0.39639,0 0.73993,-0.20266 1.03817,-0.60047 0.29068,-0.39781 0.43414,-0.89695 0.43414,-1.48616 l 0,-46.840375 c 0,-0.911963 -0.23406,-1.617514 -0.70973,-2.120408 -0.78901,-0.863174 -1.50628,-1.298515 -2.14806,-1.298515 l -1.72902,0 c -0.94379,0 -1.63087,0.183894 -2.06878,0.547929 -0.64178,0.592963 -1.43456,1.707585 -2.38212,3.347617 -10.78184,19.004858 -16.5616,29.269133 -17.3355,30.796577 l -2.35192,4.743709 c -0.0378,0.06755 -0.0906,0.101329 -0.15478,0.101329 -0.068,0 -0.0717,-0.168882 -0.0151,-0.510399 0.0566,-0.341517 0.13968,-0.915716 0.24161,-1.722597 0.10193,-0.806881 0.20008,-1.703832 0.29823,-2.683348 0.18499,-2.274278 0.28314,-4.390933 0.28314,-6.346211 l 0,-26.187974 c 0,-0.570446 -0.15101,-1.062081 -0.44169,-1.471151 -0.29069,-0.409069 -0.64555,-0.615481 -1.06082,-0.615481 l -3.74118,0 c -0.39261,0 -0.73993,0.206412 -1.03061,0.615481 -0.29824,0.40907 -0.4417,0.900705 -0.4417,1.471151 l 0,46.022226 z"
           style="fill:#706f6f;fill-opacity:1;fill-rule:nonzero;stroke:none"
           id="path68"
           inkscape:connector-curvature="0" /><path
           d="m 485.77406,102.67839 c 0,0.58921 0.15478,1.10336 0.46435,1.53495 0.31333,0.43534 0.68707,0.64925 1.12122,0.64925 l 24.90467,0 c 0.49077,0 0.86074,-0.18764 1.11367,-0.56294 0.25671,-0.37529 0.38507,-0.8369 0.38507,-1.38108 l 0,-3.689129 c 0,-0.525411 -0.12836,-0.97201 -0.38507,-1.347304 -0.25293,-0.375293 -0.6229,-0.566693 -1.11367,-0.566693 l -19.38163,0 0,-14.951689 15.41395,0 c 0.49077,0 0.86073,-0.187647 1.12122,-0.56294 0.24916,-0.375294 0.38129,-0.836905 0.38129,-1.38108 l 0,-3.692887 c 0,-0.525411 -0.13213,-0.97201 -0.38129,-1.347304 -0.26049,-0.375293 -0.63045,-0.56294 -1.12122,-0.56294 l -15.41395,0 0,-14.749031 19.52131,0 c 0.49077,0 0.86451,-0.187646 1.12122,-0.566693 0.25294,-0.37154 0.38129,-0.833151 0.38129,-1.381079 l 0,-3.689135 c 0,-0.521658 -0.12835,-0.97201 -0.38129,-1.34355 -0.25671,-0.379046 -0.63045,-0.566693 -1.12122,-0.566693 l -25.07455,0 c -0.43415,0 -0.80034,0.21767 -1.10235,0.65301 -0.30201,0.427835 -0.45302,0.941987 -0.45302,1.531197 l 0,47.97376 z"
           style="fill:#706f6f;fill-opacity:1;fill-rule:nonzero;stroke:none"
           id="path70"
           inkscape:connector-curvature="0" /></g><g
         id="g5053"><path
           d="m 24.832924,32.880193 c 0,0.28147 0.07173,0.521658 0.215183,0.724316 0.143456,0.206411 0.313338,0.307741 0.513421,0.307741 l 1.830949,0 c 0.203858,0 0.37374,-0.10133 0.509645,-0.307741 0.143456,-0.202658 0.207634,-0.442846 0.207634,-0.724316 l 0,-20.153256 7.08596,0 c 0.226509,0 0.396391,-0.09007 0.51342,-0.266459 0.120805,-0.176388 0.181208,-0.394058 0.181208,-0.65301 l 0,-1.778891 c 0,-0.2476936 -0.0604,-0.4616108 -0.181208,-0.6379987 C 35.592107,9.2104375 35.422225,9.120367 35.195716,9.120367 l -9.645513,0 c -0.200083,0 -0.369965,0.1050822 -0.509646,0.3077406 -0.139681,0.2064114 -0.207633,0.4503521 -0.207633,0.7280694 l 0,22.724016 z"
           style="fill:#008ac0;fill-opacity:1;fill-rule:nonzero;stroke:none"
           id="path72"
           inkscape:connector-curvature="0" /><path
           d="m 48.35514,22.076621 c 0,1.542456 -0.834308,2.311808 -2.506701,2.311808 -1.596889,0 -2.710559,-0.724316 -3.348559,-2.169196 -0.22651,-0.502893 -0.37374,-1.129633 -0.445468,-1.872714 0.751255,-0.465364 1.706368,-0.698046 2.861565,-0.698046 2.295292,0 3.439163,0.810634 3.439163,2.428148 m -6.429083,-4.721191 -0.0151,-0.311493 c 0,-1.474903 0.38129,-2.66083 1.136321,-3.557782 0.792782,-0.945739 1.8687,-1.422362 3.23153,-1.422362 1.238249,0 2.385896,0.461611 3.450488,1.377327 0.196308,0.172635 0.377516,0.258953 0.536072,0.258953 0.320888,0 0.562498,-0.202659 0.728604,-0.60047 l 0.354865,-0.904457 c 0.07928,-0.213917 0.117029,-0.446599 0.117029,-0.698046 0,-0.247693 -0.0906,-0.502893 -0.268035,-0.765598 C 51.020397,10.465043 50.786338,10.228608 50.499426,10.010938 50.212515,9.7970211 49.880302,9.6093744 49.499011,9.4442453 49.117721,9.2828691 48.72888,9.1477635 48.328714,9.0426813 47.528382,8.8250111 46.690298,8.716176 45.818238,8.716176 c -0.868285,0 -1.747895,0.2064114 -2.631281,0.6154812 -0.883385,0.4090698 -1.649741,1.0095398 -2.295292,1.7939028 -1.385481,1.673808 -2.076334,3.929322 -2.076334,6.777799 0,4.991402 1.419457,8.098832 4.262147,9.314782 0.887161,0.379046 1.796972,0.566693 2.73321,0.566693 0.940013,0 1.73657,-0.123847 2.393446,-0.37154 0.660652,-0.247694 1.226924,-0.615481 1.706369,-1.09961 1.01174,-1.024551 1.517611,-2.454419 1.517611,-4.285851 0,-1.801408 -0.596474,-3.174982 -1.781872,-4.124474 -1.038167,-0.829399 -2.400996,-1.245974 -4.099815,-1.245974 -1.045717,0 -2.253766,0.232682 -3.62037,0.698045"
           style="fill:#008ac0;fill-opacity:1;fill-rule:nonzero;stroke:none"
           id="path74"
           inkscape:connector-curvature="0" /><path
           d="m 68.453671,30.354468 -0.653101,0 c -0.286911,0 -0.875835,-0.01501 -1.762996,-0.04879 l 0,-17.608767 2.129186,-0.04879 0.0755,0 c 3.374986,0 5.447544,1.801408 6.22145,5.400472 0.252935,1.16341 0.381291,2.454419 0.381291,3.873028 0,1.418609 -0.139681,2.642066 -0.411492,3.67037 -0.275586,1.032057 -0.679527,1.902737 -1.223149,2.615795 -1.087244,1.429868 -2.672808,2.146678 -4.756692,2.146678 m -5.696704,2.150431 c 0,0.379047 0.101929,0.709305 0.305787,0.987022 0.203859,0.28147 0.49077,0.420329 0.85696,0.420329 l 4.141342,0 c 3.450488,0 6.044018,-1.054575 7.788138,-3.167477 1.657292,-2.026584 2.48405,-4.923849 2.48405,-8.688042 0,-4.019393 -0.928687,-7.179363 -2.789837,-9.483665 -1.86115,-2.300548 -4.432029,-3.452699 -7.716411,-3.452699 l -3.907282,0 c -0.36619,0 -0.653101,0.1426115 -0.85696,0.4315875 -0.203858,0.285223 -0.305787,0.6154815 -0.305787,0.9945275 l 0,21.958417 z"
           style="fill:#008ac0;fill-opacity:1;fill-rule:nonzero;stroke:none"
           id="path76"
           inkscape:connector-curvature="0" /><path
           d="m 87.11387,29.967916 c -0.113255,-0.08632 -0.245385,-0.1276 -0.392616,-0.1276 -0.147231,0 -0.260486,0.07506 -0.339764,0.225176 l -0.638,1.09961 c -0.0604,0.108835 -0.0906,0.232682 -0.0906,0.379046 0,0.146365 0.08683,0.315247 0.260485,0.510399 l 4.035638,4.544804 c 0.218959,0.247693 0.426592,0.367787 0.61535,0.367787 0.305787,0 0.532296,-0.116341 0.679527,-0.352776 l 0.981539,-1.538703 c 0.101929,-0.157623 0.151006,-0.326505 0.143456,-0.49914 -0.0075,-0.442846 -0.181207,-0.788116 -0.509645,-1.03581 L 87.11387,29.967916 Z m 3.597719,-7.89242 c 0,1.542455 -0.838083,2.311807 -2.510476,2.311807 -1.596889,0 -2.710559,-0.720563 -3.348559,-2.169196 -0.226509,-0.502893 -0.37374,-1.129633 -0.445468,-1.872714 0.751255,-0.465364 1.706368,-0.698046 2.86534,-0.698046 2.291517,0 3.439163,0.810634 3.439163,2.428149 m -6.432858,-4.721192 -0.01133,-0.311493 c 0,-1.474903 0.377515,-2.66083 1.136321,-3.554029 0.789007,-0.949492 1.8687,-1.422362 3.227755,-1.422362 1.23825,0 2.385896,0.457858 3.450489,1.373574 0.200083,0.172635 0.377515,0.258953 0.536071,0.258953 0.320888,0 0.562498,-0.202659 0.728605,-0.60047 L 93.70151,12.19402 c 0.07928,-0.213917 0.117029,-0.446599 0.117029,-0.698046 0,-0.247693 -0.08683,-0.49914 -0.268035,-0.765598 C 93.373072,10.46767 93.139012,10.227483 92.852101,10.009812 92.565189,9.7958952 92.229201,9.6082485 91.855461,9.4468723 91.47417,9.2817432 91.08533,9.1503905 90.681388,9.0415554 89.881056,8.8238852 89.046747,8.7188031 88.170912,8.7188031 c -0.868285,0 -1.747895,0.2026584 -2.631281,0.6117282 -0.883385,0.4128228 -1.645966,1.0095397 -2.295292,1.7939027 -1.385481,1.673808 -2.076334,3.933075 -2.076334,6.781552 0,4.991402 1.419458,8.095079 4.258372,9.311029 0.890936,0.379047 1.804522,0.566693 2.74076,0.566693 0.936238,0 1.732795,-0.123847 2.393446,-0.37154 0.656877,-0.247694 1.22315,-0.615481 1.702594,-1.09961 1.011741,-1.024551 1.517611,-2.454419 1.517611,-4.285851 0,-1.801408 -0.592699,-3.174982 -1.778097,-4.120721 -1.038166,-0.833152 -2.404771,-1.249727 -4.10359,-1.249727 -1.045717,0 -2.253765,0.232682 -3.62037,0.698045"
           style="fill:#008ac0;fill-opacity:1;fill-rule:nonzero;stroke:none"
           id="path78"
           inkscape:connector-curvature="0" /><path
           d="m 100.79917,17.661294 c 0,-1.553714 0.41527,-2.889759 1.25335,-4.008133 0.79279,-1.062081 1.6875,-1.587491 2.69169,-1.587491 1.26467,0 2.20091,0.758092 2.80871,2.278031 0.48699,1.208444 0.73238,2.735889 0.73238,4.578579 0,1.489915 -0.28691,2.747148 -0.86074,3.782958 -0.61912,1.122127 -1.4421,1.681314 -2.46894,1.681314 -1.16275,0 -2.15184,-0.592963 -2.96727,-1.775137 -0.79656,-1.167163 -1.18918,-2.521972 -1.18918,-4.060675 l 0,-0.889446 z m 0.16988,-5.741989 c 0.0868,-1.077092 0.12836,-2.4243951 0.12836,-4.0419097 l 0,-6.6802227 c 0,-0.799375 -0.25671,-1.19718601048 -0.77013,-1.19718601048 l -1.619541,0 c -0.551172,0 -0.822983,0.42032862048 -0.822983,1.26473881048 l 0,17.9014956 c 0,3.028618 -0.132131,5.239096 -0.392616,6.631435 -0.02643,0.135105 -0.04153,0.330258 -0.04153,0.577951 0,0.247694 0.07928,0.476623 0.24161,0.683034 0.162331,0.202659 0.369965,0.307741 0.6229,0.307741 l 0.796557,0 c 0.479444,0 0.819208,-0.262705 1.01929,-0.776857 0.23784,-0.604223 0.41527,-1.388586 0.53607,-2.345584 0.61158,1.313527 1.44211,2.274278 2.49538,2.8785 0.75125,0.427835 1.60066,0.645505 2.55578,0.645505 0.95133,0 1.80829,-0.228929 2.55577,-0.686787 0.74748,-0.457858 1.37038,-1.088351 1.86493,-1.883973 0.98909,-1.583738 1.47986,-3.707899 1.47986,-6.372482 0,-2.780924 -0.55495,-5.134014 -1.66107,-7.051763 -1.16652,-2.0378434 -2.69546,-3.0586414 -4.58681,-3.0586414 -1.96685,0 -3.43539,1.0695862 -4.40183,3.2050054"
           style="fill:#008ac0;fill-opacity:1;fill-rule:nonzero;stroke:none"
           id="path80"
           inkscape:connector-curvature="0" /><path
           d="m 118.63639,16.84353 c -0.35487,-0.330258 -0.61158,-0.65301 -0.76258,-0.979516 -0.15478,-0.318999 -0.23029,-0.701798 -0.23029,-1.137139 0,-0.439093 0.0604,-0.825645 0.19254,-1.163409 0.12458,-0.341517 0.29823,-0.62674 0.52474,-0.848163 0.47945,-0.469117 1.01929,-0.698046 1.61577,-0.698046 0.59647,0 1.08724,0.08256 1.46853,0.258952 0.38507,0.172635 0.7135,0.390305 0.99287,0.660517 0.60025,0.581705 0.90226,1.197186 0.90226,1.84269 -0.0491,0.810634 -0.41149,1.448633 -1.08347,1.910244 -0.60403,0.431587 -1.31375,0.645504 -2.12919,0.645504 -0.638,0 -1.13254,-0.161376 -1.49118,-0.491634 m 8.75458,-6.8641163 c 0,-0.570446 -0.22651,-0.859422 -0.67953,-0.859422 l -1.26845,0 c -0.33599,0 -0.54362,0.082565 -0.61158,0.2514466 -0.068,0.1688821 -0.10948,0.3189994 -0.1208,0.4541051 -0.008,0.1351056 -0.0226,0.3002346 -0.0491,0.4916346 -0.0528,0.529163 -0.12835,1.099609 -0.22273,1.715091 -0.67953,-1.542456 -1.7479,-2.5595014 -3.20133,-3.0586417 -0.51342,-0.168882 -1.0797,-0.2551995 -1.7026,-0.2551995 -0.61535,0 -1.23447,0.1238468 -1.8536,0.3790463 -0.61535,0.2551996 -1.16652,0.62674 -1.64596,1.1221269 -1.0797,1.122128 -1.61954,2.593278 -1.61954,4.417204 0,1.996561 0.5927,3.516499 1.77809,4.574827 0.97399,0.851916 2.23112,1.27975 3.76383,1.27975 1.53271,0 2.82759,-0.555434 3.89218,-1.666303 0.0264,0.367788 0.0378,0.825646 0.0378,1.373574 0,0.551682 -0.0831,1.09961 -0.26048,1.651291 -0.16988,0.547929 -0.42282,1.009539 -0.74371,1.373574 -0.66065,0.724316 -1.58556,1.084598 -2.76718,1.084598 -1.06837,0 -2.14806,-0.360282 -3.24663,-1.084598 -0.20764,-0.142611 -0.38884,-0.210164 -0.54362,-0.210164 -0.23784,0 -0.46435,0.285223 -0.68331,0.855669 -0.23028,0.581705 -0.35109,1.005786 -0.35109,1.264739 0,0.472869 0.28692,0.930727 0.86074,1.373573 1.09857,0.836905 2.5671,1.260986 4.4056,1.260986 1.66862,0 3.0541,-0.566693 4.15267,-1.700079 1.29865,-1.358562 1.94798,-3.276311 1.94798,-5.753248 0,-1.103362 -0.14346,-2.488195 -0.43037,-4.158251 0.73993,-2.608289 1.12877,-4.66865 1.16275,-6.1773293"
           style="fill:#008ac0;fill-opacity:1;fill-rule:nonzero;stroke:none"
           id="path82"
           inkscape:connector-curvature="0" /><path
           d="m 130.82862,26.199595 c 0,0.776857 0.27181,1.167162 0.82298,1.167162 l 0.70218,0 c 0.47944,0 0.81921,-0.262705 1.01929,-0.776857 0.28691,-0.758093 0.49832,-1.797655 0.63045,-3.122441 0,-0.02252 0.004,-0.03378 0.0189,-0.03378 0.0113,0 0.0415,0.183894 0.083,0.551682 0.0453,0.364034 0.16988,0.814386 0.37752,1.347303 0.20763,0.53667 0.46811,0.983269 0.7739,1.351056 0.61535,0.724317 1.37416,1.084598 2.26887,1.084598 1.00041,0 1.69882,-0.202658 2.08766,-0.615481 0.18498,-0.183894 0.25671,-0.43534 0.22273,-0.758093 l -0.20763,-2.037843 c -0.0529,-0.551681 -0.27936,-0.825645 -0.67953,-0.825645 -0.19253,0 -0.42659,0.04879 -0.70595,0.146364 -0.53985,0.172635 -0.96644,0.258953 -1.27978,0.258953 -0.30956,0 -0.64178,-0.172635 -0.98909,-0.510399 -0.34731,-0.337765 -0.64933,-0.761846 -0.90226,-1.272245 -0.51342,-1.054575 -0.77013,-2.184208 -0.77013,-3.377641 l 0,-8.586713 c 0,-0.3002348 -0.0679,-0.5554343 -0.21141,-0.7580927 -0.13591,-0.2064114 -0.33976,-0.3114936 -0.59647,-0.3114936 l -1.51762,0 c -0.27936,0 -0.48699,0.1050822 -0.63422,0.3114936 -0.14346,0.2026584 -0.21141,0.4578579 -0.21141,0.7580927 l 0,11.138708 c 0,1.902738 -0.0529,3.156218 -0.15101,3.764193 -0.10192,0.607976 -0.151,0.975763 -0.151,1.107116"
           style="fill:#008ac0;fill-opacity:1;fill-rule:nonzero;stroke:none"
           id="path84"
           inkscape:connector-curvature="0" /><path
           d="m 150.28726,24.905583 c 0,-0.600469 -0.27181,-0.904457 -0.82298,-0.904457 l -3.68455,0 0,-10.15544 c 0,-1.103362 0.43792,-1.651291 1.3213,-1.651291 0.55495,0 1.28356,0.34527 2.18204,1.03581 0.17366,0.138859 0.35864,0.206412 0.56627,0.206412 0.20386,0 0.36997,-0.176388 0.49077,-0.529164 l 0.29824,-0.840657 c 0.11326,-0.322753 0.17366,-0.60047 0.17366,-0.829399 0,-0.221423 -0.13968,-0.484128 -0.41149,-0.78061 -0.27559,-0.296482 -0.63045,-0.5666932 -1.05327,-0.803128 -0.97022,-0.5366696 -1.84605,-0.8068809 -2.62751,-0.8068809 -0.78523,0 -1.40435,0.097576 -1.86115,0.3002348 -0.46057,0.1951525 -0.84941,0.4991402 -1.17029,0.8969511 -0.69841,0.836904 -1.04572,2.052855 -1.04572,3.636593 l 0,10.320569 -1.09857,0 c -0.5474,0 -0.82298,0.307741 -0.82298,0.919469 l 0,0.923222 c 0,0.247693 0.0528,0.442846 0.15855,0.581704 0.10193,0.138859 0.30579,0.247694 0.61158,0.322753 l 1.3062,0.472869 0.49832,3.79797 c 0.0944,0.713057 0.33221,1.065833 0.70595,1.065833 l 1.08347,0 c 0.20386,0 0.36619,-0.09758 0.49832,-0.296482 0.13213,-0.198905 0.19631,-0.457858 0.19631,-0.769351 l 0,-3.655358 3.68455,0 c 0.55117,0 0.82298,-0.296482 0.82298,-0.889445 l 0,-1.568727 z"
           style="fill:#008ac0;fill-opacity:1;fill-rule:nonzero;stroke:none"
           id="path86"
           inkscape:connector-curvature="0" /><path
           d="m 162.04837,22.076621 c 0,1.542456 -0.83431,2.311808 -2.5067,2.311808 -1.59689,0 -2.71056,-0.724316 -3.34856,-2.169196 -0.22651,-0.502893 -0.37374,-1.129633 -0.44547,-1.872714 0.75126,-0.465364 1.70259,-0.698046 2.86157,-0.698046 2.29529,0 3.43916,0.810634 3.43916,2.428148 m -6.42908,-4.721191 -0.0151,-0.311493 c 0,-1.474903 0.38129,-2.66083 1.13632,-3.557782 0.79278,-0.945739 1.8687,-1.422362 3.22775,-1.422362 1.23825,0 2.38967,0.461611 3.45049,1.377327 0.20008,0.172635 0.38129,0.258953 0.53607,0.258953 0.32466,0 0.56627,-0.202659 0.73238,-0.60047 l 0.35487,-0.904457 c 0.0793,-0.213917 0.11703,-0.446599 0.11703,-0.698046 0,-0.247693 -0.0906,-0.502893 -0.26804,-0.765598 -0.17743,-0.266459 -0.41149,-0.502894 -0.6984,-0.720564 -0.28692,-0.2139169 -0.61913,-0.4015636 -1.00042,-0.5666927 -0.38129,-0.1613762 -0.77013,-0.2964818 -1.1703,-0.401564 -0.80033,-0.2176702 -1.63841,-0.3265053 -2.51047,-0.3265053 -0.86829,0 -1.7479,0.2064114 -2.63128,0.6154812 -0.88339,0.4090698 -1.64974,1.0095398 -2.2953,1.7939028 -1.38548,1.673808 -2.07633,3.929322 -2.07633,6.777799 0,4.991402 1.41946,8.098832 4.26215,9.314782 0.88716,0.379046 1.79697,0.566693 2.73321,0.566693 0.94001,0 1.73279,-0.123847 2.39344,-0.37154 0.66066,-0.247694 1.22693,-0.615481 1.70637,-1.09961 1.01174,-1.024551 1.51761,-2.454419 1.51761,-4.285851 0,-1.801408 -0.59647,-3.174982 -1.78187,-4.124474 -1.03816,-0.829399 -2.40099,-1.245974 -4.09981,-1.245974 -1.04572,0 -2.25377,0.232682 -3.62037,0.698045"
           style="fill:#008ac0;fill-opacity:1;fill-rule:nonzero;stroke:none"
           id="path88"
           inkscape:connector-curvature="0" /><path
           d="m 177.08971,27.768697 c 2.19336,0 3.58639,-1.212198 4.17154,-3.640346 0.86829,1.737608 2.01971,2.870994 3.45804,3.396405 0.49077,0.172635 1.10234,0.258952 1.84605,0.258952 0.73993,0 1.45721,-0.225176 2.14806,-0.679281 0.69463,-0.454105 1.20805,-1.043315 1.54404,-1.771385 0.33221,-0.728069 0.54739,-1.527444 0.638,-2.401877 0.0906,-0.874434 0.13968,-1.808915 0.13968,-2.810948 l 0,-9.930264 c 0,-0.3039874 -0.0793,-0.555434 -0.23784,-0.7580924 C 190.6425,9.2254492 190.41222,9.120367 190.10643,9.120367 l -1.27978,0 c -0.33221,0 -0.57759,0.1050822 -0.73615,0.3114936 -0.15478,0.2026584 -0.23028,0.454105 -0.23028,0.7580924 l 0,10.072875 c 0,1.392339 -0.19631,2.428149 -0.58515,3.10743 -0.38884,0.675528 -1.00042,1.017045 -1.83473,1.017045 -0.95133,0 -1.78187,-0.517905 -2.49537,-1.549962 -0.76636,-1.077092 -1.15142,-2.416889 -1.15142,-4.011886 l 0,-8.635502 c 0,-0.3039874 -0.0793,-0.555434 -0.23406,-0.7580924 -0.15856,-0.2064114 -0.38884,-0.3114936 -0.69086,-0.3114936 l -1.28355,0 c -0.33221,0 -0.57382,0.1050822 -0.7286,0.3114936 -0.15856,0.2026584 -0.23784,0.454105 -0.23784,0.7580924 l 0,10.072875 c 0,1.392339 -0.19253,2.428149 -0.58137,3.10743 -0.38884,0.675528 -1.00041,1.017045 -1.8385,1.017045 -0.94756,0 -1.78565,-0.517905 -2.5067,-1.549962 -0.7588,-1.077092 -1.13632,-2.416889 -1.13632,-4.011886 l 0,-8.635502 c 0,-0.3039874 -0.0755,-0.555434 -0.22273,-0.7580924 -0.14723,-0.2064114 -0.37374,-0.3114936 -0.67953,-0.3114936 l -1.34773,0 c -0.30579,0 -0.5323,0.1050822 -0.69085,0.3114936 -0.15856,0.2026584 -0.23406,0.454105 -0.23406,0.7580924 l 0,9.930264 c 0,2.165443 -0.0566,3.677875 -0.16988,4.537297 -0.11703,0.855669 -0.16989,1.369821 -0.16989,1.542456 0,0.773105 0.30202,1.16341 0.90227,1.16341 l 0.7135,0 c 0.49077,0 0.81921,-0.225176 0.99664,-0.679281 0.20763,-0.547929 0.40772,-1.399845 0.60025,-2.555748 0.7588,1.692573 1.85737,2.8147 3.29193,3.366381 0.487,0.183894 1.00419,0.273965 1.54404,0.273965"
           style="fill:#008ac0;fill-opacity:1;fill-rule:nonzero;stroke:none"
           id="path90"
           inkscape:connector-curvature="0" /><path
           d="m 204.36367,22.076621 c 0,1.542456 -0.83431,2.311808 -2.51048,2.311808 -1.59689,0 -2.71056,-0.724316 -3.34478,-2.169196 -0.22651,-0.502893 -0.37374,-1.129633 -0.44547,-1.872714 0.75126,-0.465364 1.70637,-0.698046 2.86157,-0.698046 2.29151,0 3.43916,0.810634 3.43916,2.428148 m -6.42908,-4.721191 -0.0151,-0.311493 c 0,-1.474903 0.37751,-2.66083 1.13632,-3.557782 0.79278,-0.945739 1.8687,-1.422362 3.23153,-1.422362 1.23447,0 2.38589,0.461611 3.44671,1.377327 0.20008,0.172635 0.38129,0.258953 0.53607,0.258953 0.32089,0 0.56627,-0.202659 0.73238,-0.60047 l 0.35487,-0.904457 c 0.0755,-0.213917 0.11325,-0.446599 0.11325,-0.698046 0,-0.247693 -0.0868,-0.502893 -0.26426,-0.765598 -0.18121,-0.266459 -0.41149,-0.502894 -0.6984,-0.720564 -0.29069,-0.2139169 -0.6229,-0.4015636 -1.00042,-0.5666927 -0.38129,-0.1613762 -0.77013,-0.2964818 -1.17407,-0.401564 -0.80033,-0.2176702 -1.63464,-0.3265053 -2.5067,-0.3265053 -0.87206,0 -1.7479,0.2064114 -2.63506,0.6154812 -0.87961,0.4090698 -1.64596,1.0095398 -2.29152,1.7939028 -1.38548,1.673808 -2.0801,3.929322 -2.0801,6.777799 0,4.991402 1.42323,8.098832 4.26214,9.314782 0.89094,0.379046 1.80075,0.566693 2.74076,0.566693 0.93624,0 1.7328,-0.123847 2.38967,-0.37154 0.66066,-0.247694 1.22315,-0.615481 1.7026,-1.09961 1.01174,-1.024551 1.51761,-2.454419 1.51761,-4.285851 0,-1.801408 -0.5927,-3.174982 -1.7781,-4.124474 -1.03439,-0.829399 -2.40477,-1.245974 -4.09981,-1.245974 -1.0495,0 -2.25377,0.232682 -3.62037,0.698045"
           style="fill:#008ac0;fill-opacity:1;fill-rule:nonzero;stroke:none"
           id="path92"
           inkscape:connector-curvature="0" /><path
           d="m 211.35563,26.199595 c 0,0.776857 0.29824,1.167162 0.89848,1.167162 l 0.72106,0 c 0.48699,0 0.81921,-0.228929 0.99286,-0.683034 0.24161,-0.645504 0.45302,-1.49742 0.62668,-2.555748 0.78523,1.767632 1.95175,2.901018 3.50334,3.396406 0.48699,0.165129 1.09479,0.24394 1.8234,0.24394 0.72483,0 1.3968,-0.191399 2.0197,-0.574199 0.61535,-0.382799 1.10612,-0.90821 1.46099,-1.576232 0.66443,-1.219704 0.99286,-3.017359 0.99286,-5.38546 l 0,-10.042852 c 0,-0.3002348 -0.0793,-0.5554343 -0.23406,-0.7580927 -0.15855,-0.2064114 -0.38506,-0.3114936 -0.69085,-0.3114936 l -1.27978,0 c -0.33221,0 -0.57759,0.1050822 -0.73237,0.3114936 -0.15856,0.2026584 -0.23784,0.4578579 -0.23784,0.7580927 l 0,10.057863 c 0,2.76216 -0.81921,4.14324 -2.45385,4.14324 -0.95889,0 -1.83472,-0.499141 -2.63128,-1.489915 -0.84186,-1.065834 -1.26467,-2.308055 -1.26467,-3.719158 l 0,-8.99203 c 0,-0.3002348 -0.0755,-0.5554343 -0.22274,-0.7580927 -0.151,-0.2064114 -0.37751,-0.3114936 -0.67953,-0.3114936 l -1.34773,0 c -0.30201,0 -0.53607,0.1050822 -0.69085,0.3114936 -0.15855,0.2026584 -0.23406,0.4578579 -0.23406,0.7580927 l 0,9.930264 c 0,2.165443 -0.0566,3.677875 -0.17365,4.537297 -0.11326,0.855669 -0.16611,1.369821 -0.16611,1.542456"
           style="fill:#008ac0;fill-opacity:1;fill-rule:nonzero;stroke:none"
           id="path94"
           inkscape:connector-curvature="0" /><path
           d="m 237.16521,24.905583 c 0,-0.600469 -0.27559,-0.904457 -0.82298,-0.904457 l -3.68455,0 0,-10.15544 c 0,-1.103362 0.43792,-1.651291 1.31753,-1.651291 0.55494,0 1.28355,0.34527 2.18203,1.03581 0.17366,0.138859 0.36242,0.206412 0.56628,0.206412 0.20763,0 0.36996,-0.176388 0.49454,-0.529164 l 0.29824,-0.840657 c 0.11325,-0.322753 0.17366,-0.60047 0.17366,-0.829399 0,-0.221423 -0.13968,-0.484128 -0.41527,-0.78061 -0.27559,-0.296482 -0.62668,-0.5666932 -1.05327,-0.803128 -0.96644,-0.5366696 -1.84227,-0.8068809 -2.62373,-0.8068809 -0.78523,0 -1.40436,0.097576 -1.86492,0.3002348 -0.4568,0.1951525 -0.84564,0.4991402 -1.16653,0.8969511 -0.6984,0.836904 -1.04571,2.052855 -1.04571,3.636593 l 0,10.320569 -1.09857,0 c -0.5474,0 -0.82299,0.307741 -0.82299,0.919469 l 0,0.923222 c 0,0.247693 0.0529,0.442846 0.15479,0.581704 0.1057,0.138859 0.30956,0.247694 0.61535,0.322753 l 1.3062,0.472869 0.49832,3.79797 c 0.0944,0.713057 0.32844,1.065833 0.70218,1.065833 l 1.08724,0 c 0.20008,0 0.36619,-0.09758 0.49455,-0.296482 0.13213,-0.198905 0.20008,-0.457858 0.20008,-0.769351 l 0,-3.655358 3.68455,0 c 0.54739,0 0.82298,-0.296482 0.82298,-0.889445 l 0,-1.568727 z"
           style="fill:#008ac0;fill-opacity:1;fill-rule:nonzero;stroke:none"
           id="path96"
           inkscape:connector-curvature="0" /></g><g
         id="g5068"><path
           d="m 261.77052,28.657016 c 0,-1.336044 -0.47945,-2.004067 -1.43834,-2.004067 l -0.90226,0 c -0.27936,0 -0.49077,0.1276 -0.64555,0.379047 -0.151,0.255199 -0.23783,0.604222 -0.26048,1.050821 -0.0226,0.446599 -0.13213,0.855669 -0.33222,1.230963 -0.20385,0.37154 -0.46057,0.671775 -0.7739,0.896951 -0.58138,0.420328 -1.35528,0.630493 -2.3255,0.630493 -0.96644,0 -1.80829,-0.251447 -2.52557,-0.750587 -0.70973,-0.506646 -1.28733,-1.174668 -1.7177,-2.015326 -0.83808,-1.576232 -1.25712,-3.677875 -1.25712,-6.304929 0,-4.736203 1.24202,-7.71228 3.7374,-8.92823 0.76635,-0.367788 1.51761,-0.547929 2.24999,-0.547929 1.3213,0 2.48782,0.292729 3.49956,0.885693 l 0.73238,0.420328 c 0.23406,0.131353 0.44547,0.195153 0.62668,0.195153 0.18121,0 0.33221,-0.05254 0.44169,-0.161376 0.11326,-0.108835 0.25671,-0.364035 0.42659,-0.769352 0.17366,-0.405316 0.25671,-0.754339 0.25671,-1.050821 0,-0.296482 -0.0831,-0.585458 -0.24916,-0.870681 -0.1661,-0.285223 -0.37374,-0.540422 -0.61535,-0.75434 -0.42659,-0.3452696 -0.94001,-0.6342455 -1.54026,-0.8556686 -1.09857,-0.4128227 -2.38212,-0.6154812 -3.85065,-0.6154812 -1.46854,0 -2.77851,0.3302582 -3.93371,0.9870217 -1.1552,0.6567631 -2.12164,1.5649731 -2.90687,2.7321361 -1.61199,2.371854 -2.4161,5.483037 -2.4161,9.333547 0,3.794216 0.81544,6.822834 2.44253,9.085853 1.66484,2.330573 3.95636,3.493982 6.87455,3.493982 1.60066,0 3.0239,-0.442846 4.26215,-1.328539 1.427,-1.009539 2.14051,-2.465677 2.14051,-4.364662"
           style="fill:#afca0b;fill-opacity:1;fill-rule:nonzero;stroke:none"
           id="path98"
           inkscape:connector-curvature="0" /><path
           d="m 284.52374,22.07437 c 0,1.512432 -0.83431,2.266772 -2.51048,2.266772 -1.01174,0 -1.8234,-0.364035 -2.43497,-1.092104 -0.61913,-0.728069 -1.02684,-1.741361 -1.22315,-3.032371 0.43414,-0.240187 0.93623,-0.405317 1.50251,-0.502893 0.56627,-0.09758 1.02306,-0.142611 1.37038,-0.142611 0.34731,0 0.73238,0.03753 1.14387,0.127599 0.41527,0.08632 0.77768,0.225176 1.09102,0.420329 0.70595,0.442846 1.06082,1.095857 1.06082,1.955279 m -16.38039,0.349023 c -0.31711,-0.60047 -0.55117,-1.275998 -0.69463,-2.037844 -0.14345,-0.761845 -0.21896,-1.527444 -0.21896,-2.304301 0,-0.776858 0.0831,-1.519939 0.24161,-2.240502 0.16611,-0.71681 0.41527,-1.354809 0.75126,-1.917749 0.74748,-1.238468 1.78187,-1.857703 3.1145,-1.857703 1.34773,0 2.37835,0.60047 3.0843,1.808915 0.63422,1.099609 0.95134,2.540736 0.95134,4.319627 0,2.769665 -0.70973,4.653638 -2.12541,5.644413 -0.54363,0.379046 -1.19673,0.566693 -1.97063,0.566693 -0.77013,0 -1.40813,-0.180141 -1.90645,-0.540423 -0.5021,-0.360281 -0.90982,-0.840657 -1.22693,-1.441126 m 8.63,-10.421898 c -1.27223,-2.187961 -3.0843,-3.2838178 -5.43622,-3.2838178 -2.21979,0 -4.00921,0.8969513 -5.35694,2.7021128 -1.34395,1.75262 -2.01593,4.04191 -2.01593,6.852857 0,2.814701 0.70973,5.111497 2.13296,6.890387 1.38548,1.737609 3.13338,2.604537 5.23991,2.604537 2.6124,0 4.49621,-1.084598 5.64385,-3.250041 1.12122,2.176702 2.86534,3.268805 5.22859,3.268805 1.61199,0 2.89931,-0.495387 3.86575,-1.474903 1.01174,-1.024551 1.51761,-2.450666 1.51761,-4.28585 0,-1.808915 -0.58137,-3.182489 -1.75167,-4.124475 -1.01929,-0.81814 -2.38212,-1.227209 -4.08849,-1.227209 -1.01929,0 -2.19336,0.225176 -3.52976,0.679281 -0.0529,-1.531198 0.29068,-2.784678 1.03439,-3.767946 0.7739,-1.013292 1.8385,-1.519939 3.19755,-1.519939 1.125,0 2.26132,0.435341 3.41274,1.309774 0.21896,0.161377 0.40772,0.243941 0.5625,0.243941 0.31711,0 0.54362,-0.161376 0.67952,-0.487881 l 0.35109,-0.821893 c 0.0793,-0.172635 0.12081,-0.394058 0.12081,-0.664269 0,-0.270211 -0.0906,-0.540423 -0.26426,-0.810634 -0.17366,-0.266458 -0.40394,-0.514152 -0.69086,-0.743081 -0.28691,-0.225176 -0.61534,-0.4240815 -0.98908,-0.5892106 -0.36997,-0.168882 -0.75504,-0.3114935 -1.15143,-0.4315874 -0.8041,-0.2326819 -1.55913,-0.3527758 -2.26131,-0.3527758 -2.57466,0 -4.3905,1.0958568 -5.45132,3.2838178"
           style="fill:#afca0b;fill-opacity:1;fill-rule:nonzero;stroke:none"
           id="path100"
           inkscape:connector-curvature="0" /><path
           d="m 304.72533,10.220352 c 0,-0.7318221 -0.26804,-1.0996097 -0.80788,-1.0996097 l -0.58893,0 c -0.52474,0 -0.86828,0.2589525 -1.03439,0.7768574 -0.18121,0.5929633 -0.37751,1.4186093 -0.58515,2.4731833 -0.36996,-1.133386 -0.98909,-2.022831 -1.86492,-2.6758417 -0.87584,-0.6530106 -1.96308,-0.9795159 -3.27306,-0.9795159 -1.70637,0 -2.96349,0.6605165 -3.77515,1.9815496 -0.81166,1.321032 -1.21938,3.268805 -1.21938,5.847071 l 0,9.753876 c 0,0.300234 0.0793,0.555434 0.23406,0.758092 0.15101,0.202659 0.36619,0.307741 0.64178,0.307741 l 1.43833,0 c 0.57383,0 0.86451,-0.356529 0.86451,-1.065833 l 0,-9.573735 c 0,-2.578266 0.48322,-4.068181 1.44966,-4.465992 0.31334,-0.1276 0.68708,-0.191399 1.12122,-0.191399 0.42659,0 0.87206,0.123846 1.32885,0.367787 0.4568,0.251447 0.87206,0.577952 1.23825,0.987022 0.81544,0.941986 1.22693,2.011572 1.22693,3.220017 l 0,9.6563 c 0,0.300234 0.0717,0.555434 0.21896,0.758092 0.151,0.202659 0.38506,0.307741 0.70973,0.307741 l 1.37038,0 c 0.30578,0 0.52852,-0.105082 0.66442,-0.307741 0.13968,-0.202658 0.21141,-0.457858 0.21141,-0.758092 l 0,-10.106652 c 0,-2.278031 0.12836,-4.109463 0.38884,-5.501801 0.0302,-0.120094 0.0415,-0.273964 0.0415,-0.469117"
           style="fill:#afca0b;fill-opacity:1;fill-rule:nonzero;stroke:none"
           id="path102"
           inkscape:connector-curvature="0" /><path
           d="m 309.01315,26.199595 c 0,0.776857 0.27181,1.167162 0.8192,1.167162 l 0.70596,0 c 0.47944,0 0.81921,-0.262705 1.01929,-0.776857 0.28691,-0.758093 0.49454,-1.797655 0.62667,-3.122441 0,-0.02252 0.008,-0.03378 0.0189,-0.03378 0.0151,0 0.0415,0.183894 0.0868,0.551682 0.0415,0.364034 0.16988,0.814386 0.37751,1.347303 0.20764,0.53667 0.46812,0.983269 0.77013,1.351056 0.61913,0.724317 1.37793,1.084598 2.27265,1.084598 1.00041,0 1.69881,-0.202658 2.08765,-0.615481 0.18499,-0.183894 0.25671,-0.43534 0.22274,-0.758093 l -0.20764,-2.037843 c -0.0528,-0.551681 -0.27936,-0.825645 -0.67952,-0.825645 -0.19254,0 -0.42659,0.04879 -0.70596,0.146364 -0.53984,0.172635 -0.96643,0.258953 -1.27977,0.258953 -0.30956,0 -0.64178,-0.172635 -0.99287,-0.510399 -0.34731,-0.337765 -0.64555,-0.761846 -0.89848,-1.272245 -0.51342,-1.054575 -0.77391,-2.184208 -0.77391,-3.377641 l 0,-8.586713 c 0,-0.3002348 -0.0679,-0.5554343 -0.20386,-0.7580927 -0.14345,-0.2064114 -0.33976,-0.3114936 -0.60402,-0.3114936 l -1.51384,0 c -0.27936,0 -0.49077,0.1050822 -0.63422,0.3114936 -0.14346,0.2026584 -0.21519,0.4578579 -0.21519,0.7580927 l 0,11.138708 c 0,1.902738 -0.0491,3.156218 -0.151,3.764193 -0.0982,0.607976 -0.14723,0.975763 -0.14723,1.107116"
           style="fill:#afca0b;fill-opacity:1;fill-rule:nonzero;stroke:none"
           id="path104"
           inkscape:connector-curvature="0" /><path
           d="m 329.58055,17.966408 c 0,-0.731822 0.0717,-1.448633 0.21518,-2.150431 0.14346,-0.698046 0.36242,-1.324786 0.66066,-1.872714 0.66442,-1.25348 1.57423,-1.876467 2.74453,-1.876467 1.06082,0 1.99706,0.570446 2.79739,1.711338 0.85318,1.185927 1.27978,2.589524 1.27978,4.207039 0,1.959031 -0.41527,3.535264 -1.24203,4.721191 -0.79278,1.133386 -1.77055,1.696326 -2.92952,1.696326 -1.20805,0 -2.12918,-0.705552 -2.75586,-2.116655 -0.51342,-1.185927 -0.77013,-2.623301 -0.77013,-4.319627 m 7.37287,7.119316 0,11.69039 c 0,0.28147 0.0642,0.521658 0.20009,0.720563 0.1359,0.198906 0.30201,0.296482 0.50587,0.296482 l 1.81584,0 c 0.20009,0 0.36242,-0.09758 0.49455,-0.296482 0.13213,-0.198905 0.19631,-0.439093 0.19631,-0.720563 l 0,-20.734961 c 0,-2.176702 0.13968,-3.981863 0.41904,-5.415484 0.0264,-0.150117 0.0377,-0.341517 0.0377,-0.577952 0,-0.225176 -0.083,-0.4390932 -0.24161,-0.6379987 -0.15856,-0.1913997 -0.36996,-0.288976 -0.61912,-0.288976 l -0.64556,0 c -0.50964,0 -0.85695,0.2589525 -1.02684,0.7768574 -0.22651,0.6567633 -0.41526,1.5274443 -0.56249,2.6045363 -0.67198,-1.760126 -1.80075,-2.9272886 -3.38632,-3.5089934 -0.52097,-0.1838938 -1.17407,-0.2777172 -1.95175,-0.2777172 -0.78146,0 -1.55536,0.2514466 -2.32549,0.743081 -0.77391,0.4953873 -1.42701,1.1746686 -1.97063,2.0228316 -1.10235,1.767632 -1.65729,3.970604 -1.65729,6.601411 0,2.713371 0.53607,4.968885 1.60821,6.759034 1.15897,1.947773 2.70301,2.927289 4.63966,2.927289 1.92911,0 3.42407,-0.896951 4.46978,-2.683348"
           style="fill:#afca0b;fill-opacity:1;fill-rule:nonzero;stroke:none"
           id="path106"
           inkscape:connector-curvature="0" /><path
           d="m 358.22716,10.220352 c 0,-0.7318221 -0.27181,-1.0996097 -0.81166,-1.0996097 l -0.58515,0 c -0.52474,0 -0.86828,0.2589525 -1.03439,0.7768574 -0.18121,0.5929633 -0.37751,1.4186093 -0.58515,2.4731833 -0.36996,-1.133386 -0.98909,-2.022831 -1.86492,-2.6758417 -0.87584,-0.6530106 -1.96308,-0.9795159 -3.27306,-0.9795159 -1.70637,0 -2.96727,0.6605165 -3.77515,1.9815496 -0.81166,1.321032 -1.21938,3.268805 -1.21938,5.847071 l 0,9.753876 c 0,0.300234 0.0793,0.555434 0.23406,0.758092 0.14723,0.202659 0.36619,0.307741 0.64178,0.307741 l 1.43833,0 c 0.57383,0 0.86451,-0.356529 0.86451,-1.065833 l 0,-9.573735 c 0,-2.578266 0.48322,-4.068181 1.44966,-4.465992 0.31334,-0.1276 0.6833,-0.191399 1.11745,-0.191399 0.43036,0 0.87583,0.123846 1.33262,0.367787 0.4568,0.251447 0.86829,0.577952 1.23825,0.987022 0.81544,0.941986 1.22315,2.011572 1.22315,3.220017 l 0,9.6563 c 0,0.300234 0.0755,0.555434 0.22274,0.758092 0.151,0.202659 0.38506,0.307741 0.70595,0.307741 l 1.37416,0 c 0.30578,0 0.52852,-0.105082 0.66442,-0.307741 0.13968,-0.202658 0.21141,-0.457858 0.21141,-0.758092 l 0,-10.106652 c 0,-2.278031 0.12836,-4.109463 0.38884,-5.501801 0.0302,-0.120094 0.0415,-0.273964 0.0415,-0.469117"
           style="fill:#afca0b;fill-opacity:1;fill-rule:nonzero;stroke:none"
           id="path108"
           inkscape:connector-curvature="0" /><path
           d="m 368.57674,11.667859 c 0,0.382799 0.12458,0.836904 0.38129,1.369821 0.24916,0.52541 0.41904,0.848163 0.50964,0.968257 0.17366,0.255199 0.35109,0.390305 0.52852,0.390305 0.17744,0 0.36619,-0.07131 0.57005,-0.213917 0.19631,-0.138859 0.46812,-0.315247 0.80033,-0.525411 0.33977,-0.210165 0.69463,-0.405317 1.0797,-0.589211 0.85318,-0.401564 1.60066,-0.596716 2.24244,-0.596716 0.638,0 1.15897,0.07131 1.55914,0.210164 0.40016,0.138858 0.7437,0.349023 1.03061,0.62674 0.5927,0.596716 0.89094,1.426115 0.89094,2.491948 0,1.347303 -0.82298,2.499454 -2.46895,3.445194 -0.46812,0.270211 -1.00042,0.544175 -1.58934,0.814386 -0.58892,0.277717 -1.20427,0.645505 -1.8536,1.110869 -0.64933,0.461611 -1.2307,1.005786 -1.74789,1.632526 -1.13633,1.403598 -1.71015,3.051136 -1.71015,4.946367 0,2.019079 0.6682,3.632841 2.00083,4.856297 1.24203,1.140892 2.71056,1.715091 4.40183,1.715091 1.8838,0 3.43161,-0.510399 4.63966,-1.519938 0.66065,-0.540423 0.99287,-1.043316 0.99287,-1.50868 0,-0.247694 -0.11703,-0.645505 -0.35109,-1.197186 -0.23784,-0.547928 -0.4266,-0.919469 -0.57005,-1.114621 -0.14346,-0.1914 -0.27559,-0.288976 -0.40017,-0.288976 -0.21896,0 -0.50209,0.142611 -0.85318,0.43534 -0.35487,0.292729 -0.85696,0.607975 -1.51006,0.953245 -0.6531,0.34527 -1.27223,0.521658 -1.85738,0.521658 -0.58137,0 -1.04949,-0.0638 -1.40435,-0.180141 -0.35109,-0.120093 -0.66066,-0.296481 -0.92114,-0.532916 -0.53985,-0.510399 -0.80788,-1.249727 -0.80788,-2.217984 0,-1.399845 0.7739,-2.514466 2.32549,-3.332606 l 1.26468,-0.645504 c 1.70259,-0.806881 2.98992,-1.703833 3.86953,-2.687101 1.21182,-1.354809 1.81962,-3.021112 1.81962,-4.991403 0,-2.202972 -0.67198,-3.993121 -2.01593,-5.374201 -1.23448,-1.2835037 -2.68413,-1.9215025 -4.35275,-1.9215025 -2.12919,0 -3.94881,0.5441754 -5.44755,1.6287735 -0.6984,0.49914 -1.04571,0.938233 -1.04571,1.321033"
           style="fill:#afca0b;fill-opacity:1;fill-rule:nonzero;stroke:none"
           id="path110"
           inkscape:connector-curvature="0" /><path
           d="m 398.3608,10.220352 c 0,-0.7318221 -0.26804,-1.0996097 -0.81166,-1.0996097 l -0.58515,0 c -0.52097,0 -0.86828,0.2589525 -1.03439,0.7768574 -0.18121,0.5929633 -0.37751,1.4186093 -0.58515,2.4731833 -0.36619,-1.133386 -0.98909,-2.022831 -1.86492,-2.6758417 -0.87584,-0.6530106 -1.96308,-0.9795159 -3.26928,-0.9795159 -1.71015,0 -2.97105,0.6605165 -3.77893,1.9815496 -0.81166,1.321032 -1.2156,3.268805 -1.2156,5.847071 l 0,9.753876 c 0,0.300234 0.0755,0.555434 0.23028,0.758092 0.14723,0.202659 0.36619,0.307741 0.64555,0.307741 l 1.43456,0 c 0.5776,0 0.86451,-0.356529 0.86451,-1.065833 l 0,-9.573735 c 0,-2.578266 0.48322,-4.068181 1.44966,-4.465992 0.31334,-0.1276 0.6833,-0.191399 1.11745,-0.191399 0.43036,0 0.87583,0.123846 1.33262,0.367787 0.4568,0.251447 0.86829,0.577952 1.23825,0.987022 0.81544,0.941986 1.22693,2.011572 1.22693,3.220017 l 0,9.6563 c 0,0.300234 0.0717,0.555434 0.22273,0.758092 0.14723,0.202659 0.38507,0.307741 0.70218,0.307741 l 1.37416,0 c 0.30578,0 0.52852,-0.105082 0.66442,-0.307741 0.13968,-0.202658 0.21141,-0.457858 0.21141,-0.758092 l 0,-10.106652 c 0,-2.278031 0.12836,-4.109463 0.39262,-5.501801 0.0264,-0.120094 0.0377,-0.273964 0.0377,-0.469117"
           style="fill:#afca0b;fill-opacity:1;fill-rule:nonzero;stroke:none"
           id="path112"
           inkscape:connector-curvature="0" /><path
           d="m 405.36522,17.966408 c 0,-0.731822 0.0717,-1.448633 0.21895,-2.150431 0.14346,-0.698046 0.35864,-1.324786 0.65688,-1.872714 0.66443,-1.25348 1.57801,-1.876467 2.74454,-1.876467 1.06459,0 1.99705,0.570446 2.79738,1.711338 0.85319,1.185927 1.27978,2.589524 1.27978,4.207039 0,1.959031 -0.41527,3.535264 -1.24203,4.721191 -0.79278,1.133386 -1.76677,1.696326 -2.92951,1.696326 -1.20805,0 -2.12541,-0.705552 -2.75209,-2.116655 -0.51719,-1.185927 -0.7739,-2.623301 -0.7739,-4.319627 m 7.37287,7.119316 0,11.69039 c 0,0.28147 0.0642,0.521658 0.20385,0.720563 0.13591,0.198906 0.30202,0.296482 0.5021,0.296482 l 1.81585,0 c 0.20008,0 0.36619,-0.09758 0.49454,-0.296482 0.13213,-0.198905 0.20009,-0.439093 0.20009,-0.720563 l 0,-20.734961 c 0,-2.176702 0.1359,-3.981863 0.41526,-5.415484 0.0264,-0.150117 0.0378,-0.341517 0.0378,-0.577952 0,-0.225176 -0.0793,-0.4390932 -0.24161,-0.6379987 -0.15855,-0.1913997 -0.36619,-0.288976 -0.61912,-0.288976 l -0.64178,0 c -0.51342,0 -0.85696,0.2589525 -1.03061,0.7768574 -0.22651,0.6567633 -0.41527,1.5274443 -0.5625,2.6045363 -0.67198,-1.760126 -1.79697,-2.9272886 -3.38631,-3.5089934 -0.52097,-0.1838938 -1.17407,-0.2777172 -1.95175,-0.2777172 -0.78146,0 -1.55537,0.2514466 -2.3255,0.743081 -0.7739,0.4953873 -1.42701,1.1746686 -1.97063,2.0228316 -1.10234,1.767632 -1.65729,3.970604 -1.65729,6.601411 0,2.713371 0.53607,4.968885 1.60822,6.759034 1.15897,1.947773 2.703,2.927289 4.63966,2.927289 1.93287,0 3.42406,-0.896951 4.46978,-2.683348"
           style="fill:#afca0b;fill-opacity:1;fill-rule:nonzero;stroke:none"
           id="path114"
           inkscape:connector-curvature="0" /><path
           d="m 421.70181,17.571599 c -0.13968,0.157624 -0.20764,0.341517 -0.20764,0.559188 l 0,1.53495 c 0,0.21767 0.068,0.397811 0.20764,0.551681 0.13968,0.150117 0.30956,0.225176 0.50964,0.225176 l 7.9467,0 c 0.20008,0 0.36996,-0.07881 0.51719,-0.232682 0.14346,-0.157623 0.21519,-0.34527 0.21519,-0.559187 l 0,-1.53495 c 0,-0.21767 -0.0717,-0.397811 -0.21519,-0.551682 -0.14723,-0.15387 -0.31711,-0.228929 -0.51719,-0.228929 l -7.9467,0 c -0.20008,0 -0.36996,0.08257 -0.50964,0.236435"
           style="fill:#afca0b;fill-opacity:1;fill-rule:nonzero;stroke:none"
           id="path116"
           inkscape:connector-curvature="0" /><path
           d="m 439.03089,21.798904 c 0,-1.238468 0.11703,-2.413136 0.35864,-3.524005 0.23783,-1.110868 0.6078,-2.101643 1.10234,-2.976077 1.09857,-1.90649 2.64638,-2.863488 4.63966,-2.863488 2.00461,0 3.54865,0.911963 4.63966,2.735889 1.00042,1.681314 1.50251,3.858016 1.50251,6.530105 0,2.525725 -0.50587,4.608603 -1.52893,6.244882 -1.125,1.778891 -2.65771,2.668337 -4.59814,2.668337 -1.87247,0 -3.36366,-0.829399 -4.46978,-2.488196 -1.09479,-1.628773 -1.64596,-3.737922 -1.64596,-6.327447 m -2.39345,-6.556376 c -0.37374,0.964505 -0.66065,1.992808 -0.85318,3.088665 -0.20009,1.092104 -0.29447,2.390619 -0.29447,3.880534 0,1.493668 0.23029,3.013606 0.69841,4.552309 0.46434,1.542456 1.12499,2.874748 1.97818,3.996875 1.80452,2.371854 4.14134,3.557781 7.0029,3.557781 3.0541,0 5.44377,-1.21595 7.17657,-3.636593 1.64596,-2.296795 2.47272,-5.29539 2.47272,-8.995783 0,-3.662863 -0.90981,-6.732763 -2.72188,-9.202194 -0.85319,-1.16341 -1.87625,-2.082879 -3.0692,-2.7546538 -1.19295,-0.6755281 -2.40477,-1.0132922 -3.62792,-1.0132922 -1.22315,0 -2.26509,0.1613762 -3.1296,0.4766227 -0.86074,0.3189994 -1.64597,0.7655985 -2.3557,1.3473033 -0.70973,0.574199 -1.34395,1.260986 -1.89135,2.056608 -0.5474,0.799375 -1.01174,1.681314 -1.38548,2.645818"
           style="fill:#afca0b;fill-opacity:1;fill-rule:nonzero;stroke:none"
           id="path118"
           inkscape:connector-curvature="0" /><path
           d="m 471.93549,10.220352 c 0,-0.7318221 -0.27181,-1.0996097 -0.81166,-1.0996097 l -0.58892,0 c -0.52097,0 -0.86451,0.2589525 -1.03062,0.7768574 -0.18121,0.5929633 -0.38129,1.4186093 -0.58515,2.4731833 -0.36996,-1.133386 -0.99286,-2.022831 -1.8687,-2.6758417 -0.87206,-0.6530106 -1.96308,-0.9795159 -3.26928,-0.9795159 -1.70637,0 -2.96727,0.6605165 -3.77893,1.9815496 -0.80788,1.321032 -1.2156,3.268805 -1.2156,5.847071 l 0,9.753876 c 0,0.300234 0.0793,0.555434 0.23029,0.758092 0.151,0.202659 0.36996,0.307741 0.64933,0.307741 l 1.43455,0 c 0.57383,0 0.86451,-0.356529 0.86451,-1.065833 l 0,-9.573735 c 0,-2.578266 0.48322,-4.068181 1.44966,-4.465992 0.31334,-0.1276 0.6833,-0.191399 1.11367,-0.191399 0.43414,0 0.87584,0.123846 1.3364,0.367787 0.4568,0.251447 0.86829,0.577952 1.23448,0.987022 0.81921,0.941986 1.22692,2.011572 1.22692,3.220017 l 0,9.6563 c 0,0.300234 0.0755,0.555434 0.22274,0.758092 0.14723,0.202659 0.38506,0.307741 0.70595,0.307741 l 1.37416,0 c 0.30578,0 0.52852,-0.105082 0.66442,-0.307741 0.13968,-0.202658 0.21141,-0.457858 0.21141,-0.758092 l 0,-10.106652 c 0,-2.278031 0.12836,-4.109463 0.38884,-5.501801 0.0264,-0.120094 0.0415,-0.273964 0.0415,-0.469117"
           style="fill:#afca0b;fill-opacity:1;fill-rule:nonzero;stroke:none"
           id="path120"
           inkscape:connector-curvature="0" /><path
           d="m 485.17608,22.076621 c 0,1.542456 -0.83808,2.311808 -2.51048,2.311808 -1.59689,0 -2.71056,-0.724316 -3.34478,-2.169196 -0.23029,-0.502893 -0.37374,-1.129633 -0.44547,-1.872714 0.74748,-0.465364 1.70259,-0.698046 2.86157,-0.698046 2.29151,0 3.43916,0.810634 3.43916,2.428148 m -6.43286,-4.721191 -0.0151,-0.311493 c 0,-1.474903 0.38129,-2.66083 1.1401,-3.557782 0.79278,-0.945739 1.8687,-1.422362 3.22775,-1.422362 1.23447,0 2.3859,0.461611 3.45049,1.377327 0.20008,0.172635 0.38129,0.258953 0.5323,0.258953 0.32466,0 0.57004,-0.202659 0.73237,-0.60047 l 0.35487,-0.904457 c 0.0793,-0.213917 0.11703,-0.446599 0.11703,-0.698046 0,-0.247693 -0.0868,-0.502893 -0.26804,-0.765598 -0.17743,-0.266459 -0.41149,-0.502894 -0.6984,-0.720564 -0.28691,-0.2139169 -0.61912,-0.4015636 -1.00042,-0.5666927 -0.37751,-0.1613762 -0.77013,-0.2964818 -1.17029,-0.401564 -0.80033,-0.2176702 -1.63464,-0.3265053 -2.5067,-0.3265053 -0.87206,0 -1.75167,0.2064114 -2.63506,0.6154812 -0.87961,0.4090698 -1.64974,1.0095398 -2.29152,1.7939028 -1.38548,1.673808 -2.08011,3.929322 -2.08011,6.777799 0,4.991402 1.41946,8.098832 4.25838,9.314782 0.89471,0.379046 1.80452,0.566693 2.74076,0.566693 0.93623,0 1.73657,-0.123847 2.39344,-0.37154 0.65688,-0.247694 1.22315,-0.615481 1.7026,-1.09961 1.01174,-1.024551 1.51761,-2.454419 1.51761,-4.285851 0,-1.801408 -0.5927,-3.174982 -1.7781,-4.124474 -1.03817,-0.829399 -2.40477,-1.245974 -4.10359,-1.245974 -1.04572,0 -2.25376,0.232682 -3.62037,0.698045"
           style="fill:#afca0b;fill-opacity:1;fill-rule:nonzero;stroke:none"
           id="path122"
           inkscape:connector-curvature="0" /><path
           d="m 496.25502,12.033019 c 1.67239,0 2.51047,0.694293 2.51047,2.086632 0,0.765598 -0.47567,1.411103 -1.427,1.940266 -0.3964,0.225177 -0.83809,0.439094 -1.30998,0.630493 -0.47567,0.195153 -0.93246,0.424082 -1.36661,0.694293 -0.43791,0.270211 -0.84563,0.56294 -1.22315,0.88194 -0.38129,0.315246 -0.70595,0.683034 -0.98531,1.092104 -0.57382,0.859421 -0.86451,1.955278 -0.86451,3.283817 0,1.617514 0.5474,2.901018 1.63464,3.846757 0.97021,0.855669 2.15561,1.279751 3.56752,1.279751 1.51761,0 2.78606,-0.367788 3.80158,-1.103363 0.34731,-0.258952 0.52474,-0.555434 0.52474,-0.889445 0,-0.47287 -0.10193,-0.990775 -0.30956,-1.557468 -0.20386,-0.566693 -0.44169,-0.848163 -0.71728,-0.848163 -0.27181,0 -0.52097,0.06755 -0.7437,0.210164 -0.22274,0.138859 -0.42282,0.258953 -0.60403,0.360282 -0.17365,0.105082 -0.36619,0.187647 -0.56627,0.2552 -0.43414,0.161376 -0.83808,0.240187 -1.20805,0.240187 -0.36996,0 -0.6682,-0.03378 -0.89471,-0.09758 -0.22651,-0.0638 -0.43037,-0.165129 -0.61535,-0.30774 -0.44547,-0.330259 -0.66443,-0.743081 -0.66443,-1.22721 0,-0.487881 0.0868,-0.859422 0.26426,-1.114621 0.18121,-0.258953 0.4266,-0.499141 0.73993,-0.713058 0.31334,-0.21767 0.68708,-0.431587 1.125,-0.645505 l 1.40813,-0.728069 c 1.14387,-0.615481 1.914,-1.170915 2.31417,-1.666302 0.78523,-0.990775 1.17407,-2.142926 1.17407,-3.445194 0,-1.640032 -0.44924,-2.987336 -1.35528,-4.045663 -1.00419,-1.1521507 -2.42742,-1.7301026 -4.27347,-1.7301026 -1.87248,0 -3.28061,0.4465992 -4.22062,1.3435506 -0.46434,0.431587 -0.69085,0.821892 -0.69085,1.167162 0,0.341517 0.0453,0.653011 0.14723,0.926975 0.10193,0.277717 0.23028,0.60047 0.39261,0.97201 0.16234,0.37154 0.38129,0.555434 0.65311,0.555434 0.27558,0 0.56627,-0.15387 0.87583,-0.457858 0.30579,-0.30774 0.73615,-0.585457 1.276,-0.825645 0.53607,-0.243941 1.08347,-0.364035 1.63087,-0.364035"
           style="fill:#afca0b;fill-opacity:1;fill-rule:nonzero;stroke:none"
           id="path124"
           inkscape:connector-curvature="0" /><path
           d="m 513.53351,24.905583 c 0,-0.600469 -0.27559,-0.904457 -0.82298,-0.904457 l -3.68455,0 0,-10.15544 c 0,-1.103362 0.43792,-1.651291 1.31753,-1.651291 0.55872,0 1.28732,0.34527 2.18581,1.03581 0.16988,0.138859 0.35864,0.206412 0.5625,0.206412 0.20763,0 0.36996,-0.176388 0.49454,-0.529164 l 0.29824,-0.840657 c 0.11325,-0.322753 0.16988,-0.60047 0.16988,-0.829399 0,-0.221423 -0.1359,-0.484128 -0.41149,-0.78061 -0.27181,-0.296482 -0.6229,-0.5666932 -1.05327,-0.803128 -0.96644,-0.5366696 -1.84227,-0.8068809 -2.62373,-0.8068809 -0.78523,0 -1.40436,0.097576 -1.86492,0.3002348 -0.4568,0.1951525 -0.84564,0.4991402 -1.16653,0.8969511 -0.6984,0.836904 -1.04571,2.052855 -1.04571,3.636593 l 0,10.320569 -1.09857,0 c -0.5474,0 -0.82298,0.307741 -0.82298,0.919469 l 0,0.923222 c 0,0.247693 0.0528,0.442846 0.15855,0.581704 0.10193,0.138859 0.30579,0.247694 0.61158,0.322753 l 1.3062,0.472869 0.49832,3.79797 c 0.0944,0.713057 0.32844,1.065833 0.70218,1.065833 l 1.08724,0 c 0.20008,0 0.36619,-0.09758 0.49832,-0.296482 0.12836,-0.198905 0.19631,-0.457858 0.19631,-0.769351 l 0,-3.655358 3.68455,0 c 0.54739,0 0.82298,-0.296482 0.82298,-0.889445 l 0,-1.568727 z"
           style="fill:#afca0b;fill-opacity:1;fill-rule:nonzero;stroke:none"
           id="path126"
           inkscape:connector-curvature="0" /></g><g
         id="g5101"><path
           d="m 629.03692,102.69978 2.92575,-1.83143 c 0.35486,-0.22518 0.1057,-0.54043 0.1057,-0.54043 l -3.04277,-4.12447 c 0,0 -0.068,-0.09382 0.0377,-0.138859 l 3.0843,-1.441126 c 0.0944,-0.09382 -0.004,-0.168882 -0.004,-0.168882 -34.48978,-37.154048 -64.34746,-78.620217 -67.51481,-83.041173 -0.21896,-0.307741 -0.64933,-0.622987 -0.64933,-0.622987 l -4.04319,-2.5482425 -6.97648,0.4653638 -2.12163,0.1538703 c 0,0 -0.52097,0.1501174 -0.23784,0.6717752 l 1.66107,3.0286182 c 0,0 0.36242,0.574199 -0.30201,0.574199 l -11.47269,0 c 0,0 -0.69463,0.05254 -0.93624,0.739328 l -2.84646,7.98249 c 0,0 -0.13213,0.40907 0.19253,1.182175 4.43203,10.549497 35.46378,62.79034 75.65782,96.84822 0,0 0.6229,0.35277 0.94379,-0.19516 l 2.91442,-13.10524 -2.12919,-4.43222 0.45679,-1.3473 3.33724,2.30055 2.60863,-2.30055 7.85609,1.95903 c 0,0 0.22651,0.10133 0.49454,-0.0675"
           style="fill:#afca0b;fill-opacity:1;fill-rule:nonzero;stroke:none"
           id="path128"
           inkscape:connector-curvature="0" /><path
           inkscape:connector-curvature="0"
           id="path4992"
           d="m 617.25845,117.10579 c -8.63755,-7.2244 -18.5813,-16.32901 -27.8795,-30.526364 l 0,0 c -0.89471,4.128227 -7.08973,20.652394 -11.32923,30.526364 l 0,0 -14.26252,0 c -0.41904,-0.14636 -0.29446,-0.56294 -0.29446,-0.56294 l 0,0 c 0.1812,-1.20469 0.64555,-4.24457 1.09102,-6.9767 l 0,0 c 0.0226,-0.14261 -0.13213,-0.0863 -0.13213,-0.0863 l 0,0 -3.56375,1.61376 -2.97859,1.20845 c 0,0 -0.0831,0.0563 -0.24916,0.0525 l 0,0 -0.0377,0 -7.8712,-0.18014 c -0.35108,-0.0113 -0.31711,-0.31525 -0.31711,-0.31525 l 0,0 c 0.12081,-2.96107 1.06459,-26.094151 18.21511,-53.332947 l 0,0 C 556.24067,44.779246 548.67527,32.251952 544.99449,24.877436 l 0,0 0,-11.104932 0.90604,-2.548242 c 0.24161,-0.653011 0.77013,-0.622987 0.77013,-0.622987 l 0,0 12.08426,0 c 0.38884,-0.105082 0.13591,-0.514152 0.13591,-0.514152 l 0,0 -1.79697,-3.2838175 c -0.26804,-0.4841285 0.20385,-0.5629401 0.20385,-0.5629401 l 0,0 2.26887,-0.1613762 6.61407,-0.4428462 c 0.85318,0.086318 1.09101,0.3265053 1.09101,0.3265053 l 0,0 3.48447,2.1954664 c 0.33976,0.2101643 0.71728,0.6455047 0.71728,0.6455047 l 0,0 c 3.05787,4.2783446 33.37989,46.4125356 68.52656,84.3772176 l 0,0 0,1.013292 -2.59353,1.204692 c 0,0 -0.14346,0.03002 -0.0491,0.165129 l 0,0 2.64261,3.576546 0,1.399844 -2.60863,1.63628 c 0,0 -0.24916,0.15387 -0.54363,0.0826 l 0,0 -7.88251,-1.96278 c -0.18121,-0.0488 -0.22651,0.0413 -0.22651,0.0413 l 0,0 -3.6921,9.56623 -2.61618,7.20188 -5.17196,0 z"
           style="fill-opacity:1;fill:url(#linearGradient5099)" /></g></g></g></svg>