<?xml version="1.0" encoding="UTF-8" standalone="no"?>
<!-- Created with Inkscape (http://www.inkscape.org/) -->

<svg
   xmlns:dc="http://purl.org/dc/elements/1.1/"
   xmlns:cc="http://creativecommons.org/ns#"
   xmlns:rdf="http://www.w3.org/1999/02/22-rdf-syntax-ns#"
   xmlns:svg="http://www.w3.org/2000/svg"
   xmlns="http://www.w3.org/2000/svg"
   xmlns:xlink="http://www.w3.org/1999/xlink"
   xmlns:sodipodi="http://sodipodi.sourceforge.net/DTD/sodipodi-0.dtd"
   xmlns:inkscape="http://www.inkscape.org/namespaces/inkscape"
   id="svg2"
   version="1.1"
   inkscape:version="0.91 r13725"
   xml:space="preserve"
   width="800"
   height="718.5"
   viewBox="0 0 800 718.49997"
   sodipodi:docname="Logo Lozère.svg"><metadata
     id="metadata8"><rdf:RDF><cc:Work
         rdf:about=""><dc:format>image/svg+xml</dc:format><dc:type
           rdf:resource="http://purl.org/dc/dcmitype/StillImage" /><dc:title></dc:title></cc:Work></rdf:RDF></metadata><defs
     id="defs6"><linearGradient
       inkscape:collect="always"
       id="linearGradient5777"><stop
         style="stop-color:#48881f;stop-opacity:0.93039215"
         offset="0"
         id="stop5779" /><stop
         style="stop-color:#b1d918;stop-opacity:1"
         offset="1"
         id="stop5781" /></linearGradient><linearGradient
       inkscape:collect="always"
       xlink:href="#linearGradient5777"
       id="linearGradient5783"
       x1="522.83691"
       y1="57.300209"
       x2="574.78613"
       y2="57.300209"
       gradientUnits="userSpaceOnUse"
       gradientTransform="matrix(8.7571961,0,0,8.7571961,-4486.8558,-95.388673)" /></defs><sodipodi:namedview
     pagecolor="#ffffff"
     bordercolor="#666666"
     borderopacity="1"
     objecttolerance="10"
     gridtolerance="10"
     guidetolerance="10"
     inkscape:pageopacity="0"
     inkscape:pageshadow="2"
     inkscape:window-width="1440"
     inkscape:window-height="790"
     id="namedview4"
     showgrid="false"
     inkscape:zoom="0.31714774"
     inkscape:cx="695.33683"
     inkscape:cy="21.028204"
     inkscape:window-x="0"
     inkscape:window-y="1"
     inkscape:window-maximized="1"
     inkscape:current-layer="g10" /><g
     id="g10"
     inkscape:groupmode="layer"
     inkscape:label="Logo Lozère"
     transform="matrix(1.25,0,0,-1.25,0,718.49995)"><path
       inkscape:connector-curvature="0"
       id="path5769"
       d="M 450.56517,574.59813 C 397.84685,570.07066 352.92243,503.07811 310.20483,436.09431 l 0,0 C 265.692,366.29946 223.56113,296.51337 177.49828,297.35406 l 0,0 c -67.4129,1.226 -88.946845,130.31583 -24.19613,143.4779 l 0,0 c 32.79569,6.67298 76.35399,-28.84621 105.15641,-62.09728 l 0,0 -0.009,0.009 c 0.34153,-0.40283 0.8582,-0.64804 1.42742,-0.66555 l 0,0 c 0.60425,-0.009 1.15595,0.25396 1.515,0.69182 l 0,0 c 1.62008,1.97037 3.06502,4.24724 4.22097,5.98116 l 0,0 0,0.009 c 0.2452,0.41159 0.43785,0.74436 0.44661,1.20849 l 0,0 c 0.009,0.37656 -0.0963,0.72685 -0.27147,1.03335 l 0,0 0,0 c -29.95837,47.90187 -74.11215,83.38602 -110.13926,84.03406 l 0,0 C 111.12725,471.85043 73.707745,427.48647 91.922715,355.55486 l 0,0 c 10.263435,-40.5283 38.111325,-84.54197 91.661575,-85.51402 l 0,0 c 47.94565,-0.87572 98.10687,58.34044 144.76521,117.56536 l 0,0 c 46.40438,58.9009 89.34967,117.8018 123.23126,117.58287 l 0,0 c 58.25291,-0.38532 63.34951,-99.17524 33.70645,-158.43519 l 0,0 c -21.12236,-42.23596 -57.23703,-66.82616 -93.1503,-66.30949 l 0,0 c -35.1689,0.52543 -61.97467,18.29378 -89.02565,52.65702 l 0,0 c -0.53419,0.64803 -1.38364,1.00708 -2.29439,1.01584 l 0,0 c -1.77771,0.0438 -3.25767,-1.37488 -3.28395,-3.15259 l 0,0 c -0.0175,-0.67431 0.17515,-1.29607 0.51668,-1.8215 l 0,0 c 33.80278,-49.7146 77.49243,-65.08348 105.95331,-65.60016 l 0,0 c 82.10748,-1.50624 129.72036,97.08228 137.59306,160.69455 l 0,0 c 9.6592,78.20176 -10.2109,137.08515 -72.38697,149.32771 l 0,0 c -2.44326,0.48164 -4.88652,0.83193 -7.3035,1.03335 l 0,0 -11.34057,0 z"
       style="fill:url(#linearGradient5783);fill-opacity:1" /><g
       id="g5734"
       transform="matrix(8.7571961,0,0,8.7571961,-4486.8558,-95.388673)"><path
         inkscape:connector-curvature="0"
         id="path364"
         style="fill:#656263;fill-opacity:1;fill-rule:nonzero;stroke:none"
         d="m 513.3022,14.6706 -0.438,0 0,-3.778 2.349,0 0,0.397 -1.911,0 0,3.381 z" /><path
         inkscape:connector-curvature="0"
         id="path366"
         style="fill:#656263;fill-opacity:1;fill-rule:nonzero;stroke:none"
         d="m 518.0795,10.8929 2.36,0 0,0.396 -1.922,0 0,1.311 1.639,0 0,0.396 -1.639,0 0,1.279 1.922,0 0,0.396 -2.36,0 0,-3.778 z" /><path
         inkscape:connector-curvature="0"
         id="path372"
         style="fill:#656263;fill-opacity:1;fill-rule:nonzero;stroke:none"
         d="m 529.2108,14.3182 c -0.23,0.231 -0.562,0.352 -0.959,0.352 l -1.302,0 0,-3.777 1.302,0 c 0.396,0 0.728,0.121 0.959,0.352 0.376,0.376 0.374,1 0.373,1.502 l 0,0.076 0,0.077 c 10e-4,0.513 0.002,1.043 -0.373,1.418 m -0.065,-1.548 c 0,-0.451 10e-4,-0.962 -0.241,-1.214 -0.175,-0.18 -0.411,-0.267 -0.722,-0.267 l -0.794,0 0,2.986 0.794,0 c 0.311,0 0.547,-0.088 0.721,-0.267 0.243,-0.252 0.242,-0.699 0.242,-1.131 l 0,-0.054 0,-0.053 z" /><path
         inkscape:connector-curvature="0"
         id="path378"
         style="fill:#656263;fill-opacity:1;fill-rule:nonzero;stroke:none"
         d="m 534.0078,15.8364 -0.485,-0.841 0.39,0 0.595,0.841 -0.5,0 z" /><path
         inkscape:connector-curvature="0"
         id="path380"
         style="fill:#656263;fill-opacity:1;fill-rule:nonzero;stroke:none"
         d="m 532.6915,10.8929 2.36,0 0,0.396 -1.922,0 0,1.311 1.638,0 0,0.396 -1.638,0 0,1.279 1.922,0 0,0.396 -2.36,0 0,-3.778 z" /><path
         inkscape:connector-curvature="0"
         id="path386"
         style="fill:#656263;fill-opacity:1;fill-rule:nonzero;stroke:none"
         d="m 539.4602,14.6706 -1.411,0 0,-3.778 0.438,0 0,1.539 0.973,0 c 0.703,0 1.174,0.451 1.174,1.123 0,0.667 -0.471,1.116 -1.174,1.116 m -0.973,-0.396 0.936,0 c 0.484,0 0.773,-0.269 0.773,-0.72 0,-0.455 -0.289,-0.727 -0.773,-0.727 l -0.936,0 0,1.447 z" /><path
         inkscape:connector-curvature="0"
         id="path392"
         style="fill:#656263;fill-opacity:1;fill-rule:nonzero;stroke:none"
         d="m 544.5681,14.6706 -0.363,0 -1.39,-3.778 0.467,0 0.299,0.846 1.606,0 0.299,-0.846 0.467,0 -1.38,3.765 -0.005,0.013 z m 0.489,-2.547 -1.341,0 0.676,1.897 0.665,-1.897 z" /><path
         inkscape:connector-curvature="0"
         id="path398"
         style="fill:#656263;fill-opacity:1;fill-rule:nonzero;stroke:none"
         d="m 551.2969,13.611 c 0,0.644 -0.443,1.06 -1.128,1.06 l -1.453,0 0,-3.778 0.439,0 0,1.66 0.866,0 0.851,-1.66 0.511,0 -0.891,1.702 c 0.505,0.114 0.805,0.492 0.805,1.016 m -2.142,0.664 0.977,0 c 0.455,0 0.727,-0.25 0.727,-0.668 0,-0.415 -0.272,-0.663 -0.727,-0.663 l -0.977,0 0,1.331 z" /><path
         inkscape:connector-curvature="0"
         id="path404"
         style="fill:#656263;fill-opacity:1;fill-rule:nonzero;stroke:none"
         d="m 553.9844,14.2749 1.082,0 0,-3.382 0.438,0 0,3.382 1.081,0 0,0.396 -2.601,0 0,-0.396 z" /><path
         inkscape:connector-curvature="0"
         id="path406"
         style="fill:#656263;fill-opacity:1;fill-rule:nonzero;stroke:none"
         d="m 559.4514,10.8929 2.361,0 0,0.396 -1.923,0 0,1.311 1.639,0 0,0.396 -1.639,0 0,1.279 1.923,0 0,0.396 -2.361,0 0,-3.778 z" /><path
         inkscape:connector-curvature="0"
         id="path408"
         style="fill:#656263;fill-opacity:1;fill-rule:nonzero;stroke:none"
         d="m 566.4458,12.0468 -1.206,2.624 -0.431,0 0,-3.778 0.438,0 0,2.772 1.003,-2.173 0.005,-0.011 0.366,0 0.992,2.183 0,-2.771 0.438,0 0,3.778 -0.431,0 -1.174,-2.624 z" /><path
         inkscape:connector-curvature="0"
         id="path410"
         style="fill:#656263;fill-opacity:1;fill-rule:nonzero;stroke:none"
         d="m 571.3004,10.8929 2.361,0 0,0.396 -1.923,0 0,1.311 1.639,0 0,0.396 -1.639,0 0,1.279 1.923,0 0,0.396 -2.361,0 0,-3.778 z" /><path
         inkscape:connector-curvature="0"
         id="path412"
         style="fill:#656263;fill-opacity:1;fill-rule:nonzero;stroke:none"
         d="m 579.0217,11.7279 -1.95,2.934 -0.414,0.009 0,-3.778 0.439,0 0,2.953 1.948,-2.944 0.414,-0.009 0,3.778 -0.437,0 0,-2.943 z" /><path
         inkscape:connector-curvature="0"
         id="path414"
         style="fill:#656263;fill-opacity:1;fill-rule:nonzero;stroke:none"
         d="m 582.3257,14.2749 1.082,0 0,-3.382 0.437,0 0,3.382 1.082,0 0,0.396 -2.601,0 0,-0.396 z" /></g><g
       id="g5810"
       transform="matrix(8.7571961,0,0,8.7571961,-4486.8558,-95.388673)"><path
         inkscape:connector-curvature="0"
         id="path422"
         style="fill:#656263;fill-opacity:1;fill-rule:nonzero;stroke:none"
         d="m 570.5701,34.0789 0,0.002 c -3.916,-0.007 -7.12,-3.129 -7.12,-7.059 0,-0.026 10e-4,-6.373 10e-4,-6.373 0,-0.509 0.41,-0.921 0.911,-0.921 0.514,0 0.927,0.412 0.927,0.921 0,0 -10e-4,6.479 -10e-4,6.491 0,2.841 2.397,5.095 5.282,5.1 0.507,0 0.923,0.41 0.923,0.922 0,0.506 -0.416,0.917 -0.923,0.917" /><path
         inkscape:connector-curvature="0"
         id="path420"
         style="fill:#656263;fill-opacity:1;fill-rule:nonzero;stroke:none"
         d="m 558.5227,21.6125 -5.067,0 c -2.802,0.004 -5.026,2.091 -5.169,4.648 l 11.234,0 c 0.233,0 0.451,0.087 0.619,0.251 0.167,0.17 0.259,0.388 0.259,0.626 -0.007,3.694 -3.143,6.616 -6.943,6.624 -3.8,-0.008 -6.931,-2.93 -6.939,-6.624 l 0,-0.633 c 0,-3.707 3.135,-6.643 6.939,-6.649 l 5.067,0 c 0.483,0 0.879,0.391 0.879,0.878 0,0.485 -0.396,0.879 -0.879,0.879 m -5.067,10.393 c 2.572,-0.005 4.657,-1.75 5.099,-3.995 l -10.196,0 c 0.44,2.245 2.528,3.99 5.097,3.995" /><path
         inkscape:connector-curvature="0"
         id="path424"
         style="fill:#656263;fill-opacity:1;fill-rule:nonzero;stroke:none"
         d="m 524.939,34.0728 c -3.933,0 -7.121,-3.184 -7.121,-7.118 0,-3.932 3.188,-7.119 7.121,-7.119 3.926,0 7.114,3.187 7.117,7.119 -0.003,3.934 -3.191,7.118 -7.117,7.118 m 0,-12.393 c -2.916,0.003 -5.273,2.362 -5.276,5.275 0.003,2.915 2.36,5.272 5.276,5.277 2.91,-0.005 5.268,-2.362 5.277,-5.277 -0.009,-2.913 -2.367,-5.272 -5.277,-5.275" /><path
         inkscape:connector-curvature="0"
         id="path426"
         style="fill:#656263;fill-opacity:1;fill-rule:nonzero;stroke:none"
         d="m 516.0958,21.2501 c -1.08,1.203 -1.808,2.463 -1.89,5.607 l -0.003,0.165 0.003,8.631 c 0,0.509 -0.413,0.919 -0.927,0.913 -0.51,-0.002 -0.915,-0.42 -0.911,-0.927 l -0.004,-8.602 c -0.003,-0.07 -10e-4,-0.148 -10e-4,-0.212 0.039,-3.424 1.029,-5.395 2.379,-6.822 0.182,-0.202 0.44,-0.303 0.692,-0.298 0.219,0.003 0.438,0.085 0.609,0.245 0.373,0.345 0.395,0.929 0.059,1.3 l -0.006,0 z" /><path
         inkscape:connector-curvature="0"
         id="path428"
         style="fill:#656263;fill-opacity:1;fill-rule:nonzero;stroke:none"
         d="m 552.1062,35.5851 2.574,-0.564 c 0.468,-0.104 0.94,0.195 1.041,0.666 0.103,0.465 -0.198,0.932 -0.668,1.036 l -2.572,0.563 c -0.469,0.105 -0.937,-0.194 -1.04,-0.663 -0.102,-0.468 0.198,-0.936 0.665,-1.038" /><path
         inkscape:connector-curvature="0"
         id="path430"
         style="fill:#656263;fill-opacity:1;fill-rule:nonzero;stroke:none"
         d="m 578.5009,33.7611 c -3.8,-0.008 -6.93,-2.93 -6.938,-6.624 l 0,-0.633 c 0,-3.706 3.135,-6.643 6.938,-6.649 l 5.068,0 c 0.483,0 0.879,0.392 0.879,0.878 0,0.486 -0.396,0.879 -0.879,0.879 l -5.068,0 c -2.801,0.005 -5.025,2.091 -5.168,4.648 l 11.234,0 c 0.233,0 0.45,0.088 0.618,0.252 0.169,0.169 0.26,0.388 0.26,0.625 -0.006,3.694 -3.143,6.616 -6.944,6.624 m -5.096,-5.75 c 0.44,2.244 2.528,3.99 5.096,3.994 2.572,-0.004 4.658,-1.75 5.1,-3.994 l -10.196,0 z" /><path
         inkscape:connector-curvature="0"
         id="path432"
         style="fill:#656263;fill-opacity:1;fill-rule:nonzero;stroke:none"
         d="m 535.8744,19.8551 0.016,0 c -0.002,0 -0.004,0 -0.006,0 l -0.01,0 z" /><path
         inkscape:connector-curvature="0"
         id="path434"
         style="fill:#656263;fill-opacity:1;fill-rule:nonzero;stroke:none"
         d="m 544.4158,20.7272 c 0,0.488 -0.375,0.881 -0.84,0.881 l -7.695,0 c -0.321,0.001 -0.581,0.261 -0.581,0.583 0,0.184 0.084,0.348 0.217,0.455 l 0,0 8.418,6.965 c 0.517,0.431 0.846,1.079 0.846,1.805 0,1.296 -1.05,2.345 -2.346,2.345 l -0.017,10e-4 -6.917,0 c -0.464,0 -0.839,-0.392 -0.839,-0.872 0,-0.488 0.375,-0.881 0.839,-0.881 l 6.942,0 c 0.322,-10e-4 0.582,-0.262 0.582,-0.583 0,-0.184 -0.084,-0.348 -0.217,-0.455 l -8.418,-6.966 0,0 c -0.517,-0.43 -0.846,-1.078 -0.846,-1.804 0,-1.294 1.047,-2.342 2.34,-2.346 l 7.692,0 c 0.465,0 0.84,0.391 0.84,0.872" /></g></g></svg>