<?xml version="1.0" encoding="UTF-8" standalone="no"?>
<!-- Created with Inkscape (http://www.inkscape.org/) -->

<svg
   xmlns:dc="http://purl.org/dc/elements/1.1/"
   xmlns:cc="http://creativecommons.org/ns#"
   xmlns:rdf="http://www.w3.org/1999/02/22-rdf-syntax-ns#"
   xmlns:svg="http://www.w3.org/2000/svg"
   xmlns="http://www.w3.org/2000/svg"
   xmlns:xlink="http://www.w3.org/1999/xlink"
   xmlns:sodipodi="http://sodipodi.sourceforge.net/DTD/sodipodi-0.dtd"
   xmlns:inkscape="http://www.inkscape.org/namespaces/inkscape"
   id="svg2"
   version="1.1"
   inkscape:version="0.91 r13725"
   xml:space="preserve"
   width="800"
   height="663"
   viewBox="0 0 800 663.00003"
   sodipodi:docname="Logo Département Manche 2009.svg"><metadata
     id="metadata8"><rdf:RDF><cc:Work
         rdf:about=""><dc:format>image/svg+xml</dc:format><dc:type
           rdf:resource="http://purl.org/dc/dcmitype/StillImage" /><dc:title /></cc:Work></rdf:RDF></metadata><defs
     id="defs6"><linearGradient
       inkscape:collect="always"
       id="linearGradient4390"><stop
         style="stop-color:#f69f22;stop-opacity:1"
         offset="0"
         id="stop4392" /><stop
         style="stop-color:#ffd808;stop-opacity:1"
         offset="1"
         id="stop4394" /></linearGradient><linearGradient
       id="linearGradient4384"
       inkscape:collect="always"><stop
         id="stop4386"
         offset="0"
         style="stop-color:#2461a9;stop-opacity:1" /><stop
         id="stop4388"
         offset="1"
         style="stop-color:#221f48;stop-opacity:1" /></linearGradient><linearGradient
       inkscape:collect="always"
       id="linearGradient4374"><stop
         style="stop-color:#2461a9;stop-opacity:1"
         offset="0"
         id="stop4376" /><stop
         style="stop-color:#221f48;stop-opacity:1"
         offset="1"
         id="stop4378" /></linearGradient><linearGradient
       id="linearGradient4296"
       spreadMethod="pad"
       gradientTransform="matrix(14.27289,5.994598,5.994598,-14.27289,604.0936,36.56398)"
       gradientUnits="userSpaceOnUse"
       y2="0"
       x2="1"
       y1="0"
       x1="0"><stop
         id="stop4298"
         offset="0"
         style="stop-opacity:1;stop-color:#2464ae" /><stop
         id="stop4300"
         offset="1"
         style="stop-opacity:1;stop-color:#221f48" /></linearGradient><linearGradient
       id="linearGradient4290"
       spreadMethod="pad"
       gradientTransform="matrix(14.27289,5.994598,5.994598,-14.27289,604.0936,36.56398)"
       gradientUnits="userSpaceOnUse"
       y2="0"
       x2="1"
       y1="0"
       x1="0"><stop
         id="stop4292"
         offset="0"
         style="stop-opacity:1;stop-color:#2464ae" /><stop
         id="stop4294"
         offset="1"
         style="stop-opacity:1;stop-color:#221f48" /></linearGradient><linearGradient
       id="linearGradient6423"
       spreadMethod="pad"
       gradientTransform="matrix(14.27289,5.994598,5.994598,-14.27289,604.0936,36.56398)"
       gradientUnits="userSpaceOnUse"
       y2="0"
       x2="1"
       y1="0"
       x1="0"><stop
         id="stop6425"
         offset="0"
         style="stop-opacity:1;stop-color:#038d49" /><stop
         id="stop6427"
         offset="1"
         style="stop-opacity:1;stop-color:#8abf44" /></linearGradient><linearGradient
       inkscape:collect="always"
       xlink:href="#linearGradient6423"
       id="linearGradient6421"
       x1="604.34509"
       y1="52.073963"
       x2="625.68433"
       y2="43.793079"
       gradientUnits="userSpaceOnUse"
       gradientTransform="matrix(12.915647,0,0,12.915647,-7571.8253,-222.02647)" /><linearGradient
       inkscape:collect="always"
       xlink:href="#linearGradient4296"
       id="linearGradient4286"
       x1="160.34973"
       y1="194.58165"
       x2="440.51132"
       y2="260.34305"
       gradientUnits="userSpaceOnUse" /><linearGradient
       inkscape:collect="always"
       xlink:href="#linearGradient4290"
       id="linearGradient4288"
       x1="160.34973"
       y1="194.58165"
       x2="440.51132"
       y2="260.34305"
       gradientUnits="userSpaceOnUse" /><linearGradient
       inkscape:collect="always"
       xlink:href="#linearGradient4374"
       id="linearGradient4380"
       x1="156.69975"
       y1="189.82324"
       x2="453.53751"
       y2="245.87845"
       gradientUnits="userSpaceOnUse" /><linearGradient
       inkscape:collect="always"
       xlink:href="#linearGradient4384"
       id="linearGradient4382"
       x1="156.69975"
       y1="189.82324"
       x2="453.53751"
       y2="245.87845"
       gradientUnits="userSpaceOnUse" /><linearGradient
       inkscape:collect="always"
       xlink:href="#linearGradient4390"
       id="linearGradient4396"
       x1="310.85156"
       y1="331.23523"
       x2="449.71555"
       y2="282.82391"
       gradientUnits="userSpaceOnUse" /></defs><sodipodi:namedview
     pagecolor="#ffffff"
     bordercolor="#666666"
     borderopacity="1"
     objecttolerance="10"
     gridtolerance="10"
     guidetolerance="10"
     inkscape:pageopacity="0"
     inkscape:pageshadow="2"
     inkscape:window-width="1440"
     inkscape:window-height="790"
     id="namedview4"
     showgrid="false"
     inkscape:zoom="0.62795247"
     inkscape:cx="130.21176"
     inkscape:cy="252.00966"
     inkscape:window-x="0"
     inkscape:window-y="1"
     inkscape:window-maximized="1"
     inkscape:current-layer="g10"
     showguides="false" /><g
     id="g10"
     inkscape:groupmode="layer"
     inkscape:label="Logo Département Manche 2009"
     transform="matrix(1.25,0,0,-1.25,0,662.99995)"><g
       id="g4406"><g
         id="g4340"><path
           d="m 48.72028,61.692839 c -3.642212,-0.607035 -14.194296,-1.252818 -20.626288,-1.252818 -15.731258,0 -28.01403838,3.17725 -28.01403838,18.650195 l 0,47.852474 c 0,0.9945 1.11074568,1.80819 2.42814168,1.80819 l 12.0244677,0 c 1.330311,0 2.415226,-0.81369 2.415226,-1.80819 l 0,-47.852474 c 0,-6.005776 2.428141,-7.839798 9.454253,-7.839798 l 22.318238,0 c 1.317396,0 2.415226,-0.813686 2.415226,-1.808191 l 0,-5.824956 c 0,-1.278649 -0.59412,-1.640288 -2.415226,-1.924432"
           style="fill:#2259a5;fill-opacity:1;fill-rule:nonzero;stroke:none"
           id="path146"
           inkscape:connector-curvature="0" /><path
           d="m 94.679319,117.38382 c -0.374554,1.09783 -0.723277,1.45947 -1.937348,1.45947 -1.226986,0 -1.575708,-0.36164 -1.937347,-1.45947 l -8.730977,-27.00662 21.323733,0 -8.718061,27.00662 z m 32.728251,-56.23473 -12.83816,0 c -1.11074,0 -2.0665,0.762024 -2.32481,1.549878 l -5.56665,17.294051 -27.871962,0 -5.592475,-17.294051 C 72.968116,61.911114 72.012358,61.14909 70.901612,61.14909 l -12.851068,0 c -1.201156,0 -2.182745,0.645783 -2.182745,1.549878 l 0.129157,0.477879 19.864265,57.022583 c 2.944767,8.47266 11.649913,9.29926 16.88075,9.29926 5.205006,0 13.935979,-0.8266 16.854919,-9.29926 l 19.8901,-57.022583 0.11624,-0.477879 c 0,-0.904095 -0.98159,-1.549878 -2.19566,-1.549878"
           style="fill:#2259a5;fill-opacity:1;fill-rule:nonzero;stroke:none"
           id="path148"
           inkscape:connector-curvature="0" /><path
           d="m 247.09558,61.152965 -12.24404,0 c -1.11074,0 -1.95026,0.917011 -1.95026,1.834022 l 0,42.311663 c 0,0.61995 -0.10332,0.89118 -0.36164,0.89118 l -0.60703,-0.55538 -11.62408,-17.34571 c -0.7362,-1.007421 -2.32482,-1.575709 -3.90053,-1.575709 l -12.23112,0 c -1.57571,0 -3.16433,0.568288 -3.88761,1.575709 l -11.76615,17.34571 -0.59412,0.55538 c -0.2454,0 -0.37456,-0.27123 -0.37456,-0.89118 l 0,-42.311663 c 0,-0.917011 -0.85243,-1.834022 -1.95026,-1.834022 l -12.24403,0 c -1.08492,0 -2.04067,0.452048 -2.04067,1.356143 l 0,62.615052 c 0,2.00193 2.18274,3.6293 4.83045,3.6293 l 9.94505,0 c 1.93734,0 3.64221,-0.90409 4.48173,-2.16983 l 18.3273,-27.846132 c 0.59412,-0.813686 0.8266,-1.265733 1.3174,-1.265733 0.49079,0 0.7491,0.452047 1.34322,1.265733 l 18.30147,27.846132 c 0.85244,1.26574 2.5573,2.16983 4.48173,2.16983 l 9.95797,0 c 2.66062,0 4.84337,-1.62737 4.84337,-3.6293 l 0,-62.615052 c 0,-0.904095 -0.98159,-1.356143 -2.05359,-1.356143"
           style="fill:#2259a5;fill-opacity:1;fill-rule:nonzero;stroke:none"
           id="path150"
           inkscape:connector-curvature="0" /><path
           d="m 299.35228,117.38382 c -0.36163,1.09783 -0.72327,1.45947 -1.93734,1.45947 -1.22699,0 -1.58863,-0.36164 -1.93735,-1.45947 l -8.73098,-27.00662 21.32374,0 -8.71807,27.00662 z m 32.74117,-56.23473 -12.86398,0 c -1.072,0 -2.05359,0.762024 -2.31191,1.549878 l -5.56664,17.294051 -27.8978,0 -5.55372,-17.294051 c -0.25832,-0.787854 -1.22699,-1.549878 -2.31191,-1.549878 l -12.85106,0 c -1.22699,0 -2.18275,0.645783 -2.18275,1.549878 l 0.11624,0.477879 19.8901,57.022583 c 2.8931,8.47266 11.64991,9.29926 16.85492,9.29926 5.21792,0 13.93598,-0.8266 16.85492,-9.29926 l 19.89009,-57.022583 0.11624,-0.477879 c 0,-0.904095 -0.98158,-1.549878 -2.18274,-1.549878"
           style="fill:#2259a5;fill-opacity:1;fill-rule:nonzero;stroke:none"
           id="path152"
           inkscape:connector-curvature="0" /><path
           d="m 408.96221,61.152965 -12.24403,0 c -2.90602,0 -5.43749,0 -7.40066,3.280575 l -26.92913,44.31358 -1.072,0.72328 -0.60703,-0.72328 0,-45.760133 c 0,-1.00742 -0.98159,-1.834022 -2.3119,-1.834022 l -10.29377,0 c -1.34323,0 -2.44106,0.826602 -2.44106,1.834022 l 0,62.137173 c 0,2.00193 2.19566,3.6293 4.84337,3.6293 l 13.12229,0 c 2.53147,0 3.86178,-0.54246 5.32125,-2.90602 l 28.24652,-46.754641 0.98159,-0.749108 0.60703,0.813686 0,47.878303 c 0,0.99451 0.96868,1.71778 2.29899,1.71778 l 10.41001,0 c 1.35614,0 2.3119,-0.72327 2.3119,-1.71778 l 0,-62.253418 c 0,-1.98901 -2.16983,-3.629297 -4.84337,-3.629297"
           style="fill:#2259a5;fill-opacity:1;fill-rule:nonzero;stroke:none"
           id="path154"
           inkscape:connector-curvature="0" /><path
           d="m 483.05153,61.903364 c -1.8211,-0.387469 -9.81589,-1.459468 -19.1539,-1.459468 -14.55594,0 -34.31688,5.347078 -34.31688,27.833219 l 0,13.367695 c 0,22.84778 19.76094,27.85905 34.31688,27.85905 9.33801,0 17.3328,-1.09783 19.1539,-1.47238 1.58863,-0.34873 2.67354,-0.8266 2.67354,-2.07942 l 0,-6.1091 c 0,-1.08492 -0.60703,-1.91152 -2.42814,-1.91152 l -0.2454,0 c -4.23633,0.28415 -12.48943,0.73619 -18.93434,0.73619 -10.16461,0 -17.56528,-4.10717 -17.56528,-17.02282 l 0,-13.367695 c 0,-12.657334 7.40067,-17.022822 17.56528,-17.022822 6.44491,0 14.69801,0.464963 18.93434,0.723276 l 0.2454,0 c 1.82111,0 2.42814,-0.813686 2.42814,-1.8986 l 0,-6.109101 c 0,-1.278649 -1.08491,-1.730697 -2.67354,-2.066504"
           style="fill:#2259a5;fill-opacity:1;fill-rule:nonzero;stroke:none"
           id="path156"
           inkscape:connector-curvature="0" /><path
           d="m 565.98161,61.152965 -11.98572,0 c -1.34323,0 -2.41523,0.826602 -2.41523,1.834022 l 0,27.833219 -34.44603,0 0,-27.833219 c 0,-1.00742 -1.12366,-1.834022 -2.41522,-1.834022 l -12.03739,0 c -1.33031,0 -2.41522,0.826602 -2.41522,1.834022 l 0,64.048693 c 0,0.99451 1.08491,1.71778 2.41522,1.71778 l 12.03739,0 c 1.29156,0 2.41522,-0.72327 2.41522,-1.71778 l 0,-25.12093 34.44603,0 0,25.12093 c 0,0.99451 1.072,1.71778 2.41523,1.71778 l 11.98572,0 c 1.34323,0 2.42814,-0.72327 2.42814,-1.71778 l 0,-64.048693 c 0,-1.00742 -1.08491,-1.834022 -2.42814,-1.834022"
           style="fill:#2259a5;fill-opacity:1;fill-rule:nonzero;stroke:none"
           id="path158"
           inkscape:connector-curvature="0" /><path
           d="m 637.65183,61.692839 c -3.8747,-0.439132 -8.60182,-1.252818 -23.04152,-1.252818 -15.75709,0 -28.00112,3.17725 -28.00112,18.650195 l 0,31.746664 c 0,15.46003 12.24403,18.66311 28.00112,18.66311 14.4397,0 19.16682,-0.82661 23.04152,-1.29157 1.8211,-0.18082 2.42814,-0.63287 2.42814,-1.91151 l 0,-5.82496 c 0,-0.99451 -1.08492,-1.80819 -2.42814,-1.80819 l -24.73347,0 c -7.05194,0 -9.59632,-1.82111 -9.59632,-7.82688 l 0,-9.82881 32.87032,0 c 1.34323,0 2.42814,-0.8266 2.42814,-1.821108 l 0,-6.548233 c 0,-1.00742 -1.08491,-1.80819 -2.42814,-1.80819 l -32.87032,0 0,-11.740323 c 0,-6.005776 2.54438,-7.839798 9.59632,-7.839798 l 24.73347,0 c 1.34322,0 2.42814,-0.813686 2.42814,-1.808191 l 0,-5.824956 c 0,-1.278649 -0.60704,-1.717781 -2.42814,-1.924432"
           style="fill:#2259a5;fill-opacity:1;fill-rule:nonzero;stroke:none"
           id="path160"
           inkscape:connector-curvature="0" /></g><g
         id="g4324"><path
           d="m 99.166214,19.140949 0,-6.08327 c 0,-12.11487702 11.443266,-13.0577192465 14.956316,-13.0577192465 4.17176,0 7.58149,0.5424571765 8.21435,0.6716136465 0.4908,0.12915647 1.45947,0.3745538 1.45947,1.3561429 l 0,2.7897798 c 0,0.7878545 -0.54245,1.2657334 -1.44655,1.2657334 l -8.12394,-0.3228912 c -4.72713,0 -7.02611,2.3764791 -7.02611,7.2973407 l 0,6.08327 c 0,4.972524 2.22149,7.29734 7.02611,7.29734 l 7.99478,-0.322891 c 1.03326,0 1.57571,0.477879 1.57571,1.265733 l 0,2.776864 c 0,0.994505 -0.96867,1.239903 -1.44655,1.356143 -0.64578,0.142073 -4.0426,0.68453 -8.22727,0.68453 -4.48173,0 -14.956316,-1.278649 -14.956316,-13.057719"
           style="fill:#5da245;fill-opacity:1;fill-rule:nonzero;stroke:none"
           id="path260"
           inkscape:connector-curvature="0" /><path
           d="m 134.85215,13.321158 0,5.566644 c 0,5.166259 2.14399,7.47816 7.02611,7.47816 4.8692,0 7.03903,-2.311901 7.03903,-7.47816 l 0,-5.566644 c 0,-5.1791744 -2.16983,-7.4781595 -7.03903,-7.4781595 -4.88212,0 -7.02611,2.2989851 -7.02611,7.4781595 m -8.03354,5.566644 0,-5.566644 c 0,-8.5759895 5.34708,-13.31603199 15.05965,-13.31603199 9.71257,0 15.05964,4.74004249 15.05964,13.31603199 l 0,5.566644 c 0,8.57599 -5.34707,13.303116 -15.05964,13.303116 -9.71257,0 -15.05965,-4.727126 -15.05965,-13.303116"
           style="fill:#5da245;fill-opacity:1;fill-rule:nonzero;stroke:none"
           id="path262"
           inkscape:connector-curvature="0" /><path
           d="m 186.6878,31.860278 c -0.80077,0 -1.39489,-0.516626 -1.39489,-1.214071 l 0,-21.3883115 -11.86947,21.0654205 c -0.64579,1.136577 -1.30449,1.536962 -2.59605,1.536962 l -5.56664,0 c -1.36906,0 -2.46689,-0.942842 -2.46689,-2.066504 l 0,-28.2077728 c 0,-0.68452929 0.64578,-1.25281775 1.43363,-1.25281775 l 4.36549,0 c 0.80077,0 1.40781,0.56828846 1.40781,1.25281775 l 0,20.4583848 11.33994,-20.0063371 c 0.94284,-1.70486545 2.26023,-1.70486545 3.50014,-1.70486545 l 5.19209,0 c 1.36906,0 2.4798,0.92992655 2.4798,2.07941915 l 0,28.2336044 c 0,0.697445 -0.59412,1.214071 -1.39489,1.214071 l -4.43007,0"
           style="fill:#5da245;fill-opacity:1;fill-rule:nonzero;stroke:none"
           id="path264"
           inkscape:connector-curvature="0" /><path
           d="m 197.83788,23.927487 c 0,-3.461393 1.88569,-5.837872 6.28992,-7.930207 l 6.79363,-3.267659 c 3.53889,-1.666118 4.13301,-2.376479 4.13301,-3.6680433 0,-1.976094 -0.94284,-3.3064056 -5.54081,-3.3064056 -1.83402,0 -6.98737,0.2066503 -9.05387,0.4262163 -0.91701,0 -1.54988,-0.5424572 -1.54988,-1.2140708 l 0,-2.9576832 c 0,-0.6457823 0.52954,-1.11074562 1.33031,-1.23990209 2.81561,-0.51662588 5.63123,-0.76202317 9.17011,-0.76202317 12.91565,0 13.93599,6.93570246 13.93599,9.05386856 0,3.9134413 -2.144,6.4707393 -7.38775,8.8084713 l -6.1866,2.763948 c -3.3839,1.511131 -3.95219,2.234407 -3.95219,3.29349 0,0.632867 0,2.505636 4.97253,2.505636 3.00934,0 6.30283,-0.129157 10.10003,-0.413301 0.87827,0 1.40781,0.50371 1.40781,1.18824 l 0,3.035177 c 0,0.59412 -0.4908,1.084914 -1.26574,1.188239 -1.8211,0.361638 -6.56114,0.762023 -9.93213,0.762023 -8.79555,0 -13.26437,-2.789779 -13.26437,-8.266014"
           style="fill:#5da245;fill-opacity:1;fill-rule:nonzero;stroke:none"
           id="path266"
           inkscape:connector-curvature="0" /><path
           d="m 228.66366,23.299787 0,-14.4009465 c 0,-7.826882 6.22534,-8.8859651 12.29569,-8.8859651 5.46332,0 7.64607,0.29705988 9.23469,0.50371023 l 0.56829,0.0774939 c 0.71036,0.0774939 1.39489,0.28414423 1.39489,1.27864908 l 0,2.634792 c 0,0.6974449 -0.63287,1.2528177 -1.42072,1.2528177 l -10.48751,0 c -2.82852,0 -3.64221,0.697445 -3.64221,3.1385022 l 0,4.9079455 13.50977,0 c 0.78785,0 1.43363,0.555373 1.43363,1.252818 l 0,2.957683 c 0,0.697445 -0.64578,1.252818 -1.43363,1.252818 l -13.50977,0 0,4.029682 c 0,2.441057 0.81369,3.138502 3.64221,3.138502 l 10.48751,0 c 0.78785,0 1.42072,0.555373 1.42072,1.252818 l 0,2.634792 c 0,1.00742 -0.68453,1.188239 -1.39489,1.291565 l -0.55537,0.06458 c -1.60154,0.219566 -3.78429,0.50371 -9.24761,0.50371 -6.07035,0 -12.29569,-1.059083 -12.29569,-8.885965"
           style="fill:#5da245;fill-opacity:1;fill-rule:nonzero;stroke:none"
           id="path268"
           inkscape:connector-curvature="0" /><path
           d="m 259.73354,31.860278 c -0.8266,0 -1.45947,-0.529542 -1.45947,-1.214071 l 0,-29.0602058 c 0,-0.68452929 0.64578,-1.25281775 1.45947,-1.25281775 l 5.07585,0 c 0.80077,0 1.44655,0.56828846 1.44655,1.25281775 l 0,29.0602058 c 0,0.684529 -0.64578,1.214071 -1.44655,1.214071 l -5.07585,0"
           style="fill:#5da245;fill-opacity:1;fill-rule:nonzero;stroke:none"
           id="path270"
           inkscape:connector-curvature="0" /><path
           d="m 274.5607,31.860278 c -0.77494,0 -1.43364,-0.568289 -1.43364,-1.252818 l 0,-21.7112026 c 0,-7.8268821 6.21243,-8.88596513 12.26987,-8.88596513 2.84144,0 7.29734,0.30997553 8.82139,0.59411976 0.69744,0.0904095 1.38197,0.29705988 1.38197,1.26573337 l 0,2.6477077 c 0,0.6974449 -0.64578,1.2399021 -1.44655,1.2399021 l -9.45426,0 c -2.81561,0 -3.59055,0.6845293 -3.59055,3.1385022 l 0,21.7112026 c 0,0.684529 -0.64578,1.252818 -1.45946,1.252818 l -5.08877,0"
           style="fill:#5da245;fill-opacity:1;fill-rule:nonzero;stroke:none"
           id="path272"
           inkscape:connector-curvature="0" /><path
           d="m 311.46458,19.053122 0,-5.941197 c 0,-10.332518 8.92471,-13.10938212 14.18138,-13.10938212 4.70129,0 8.29184,0.23248165 11.26244,0.71036059 1.16241,0.219566 1.34323,0.98158913 1.34323,1.40780553 l 0,13.871405 c 0,0.697445 -0.64578,1.239902 -1.44655,1.239902 l -5.07585,0 c -0.78786,0 -1.40781,-0.529542 -1.40781,-1.239902 l 0,-10.1000361 c -0.67161,-0.038747 -4.67546,-0.1291565 -4.67546,-0.1291565 -2.9706,0 -6.14785,1.9244314 -6.14785,7.3490036 l 0,5.941197 c 0,6.419077 3.95219,7.38775 6.30284,7.38775 4.05551,0 7.68481,-0.116241 10.81039,-0.335807 l 0.19374,0 c 0.98159,0 1.44655,0.413301 1.44655,1.291565 l 0,2.763949 c 0,1.033251 -0.91701,1.201155 -1.33031,1.278649 -0.51663,0.07749 -5.25667,0.749107 -11.12037,0.749107 -6.92279,0 -14.33637,-3.461393 -14.33637,-13.135213"
           style="fill:#5da245;fill-opacity:1;fill-rule:nonzero;stroke:none"
           id="path274"
           inkscape:connector-curvature="0" /><path
           d="m 345.12534,23.299787 0,-14.4009465 c 0,-7.826882 6.19951,-8.8859651 12.28278,-8.8859651 5.4504,0 7.64606,0.29705988 9.23469,0.50371023 l 0.5812,0.0774939 c 0.71036,0.0774939 1.40781,0.28414423 1.40781,1.27864908 l 0,2.634792 c 0,0.6974449 -0.6587,1.2528177 -1.47239,1.2528177 l -10.47459,0 c -2.80269,0 -3.64221,0.697445 -3.64221,3.1385022 l 0,4.9079455 13.52268,0 c 0.80077,0 1.44655,0.555373 1.44655,1.252818 l 0,2.957683 c 0,0.697445 -0.64578,1.252818 -1.44655,1.252818 l -13.52268,0 0,4.029682 c 0,2.441057 0.83952,3.138502 3.64221,3.138502 l 10.47459,0 c 0.81369,0 1.47239,0.555373 1.47239,1.252818 l 0,2.634792 c 0,1.00742 -0.69745,1.188239 -1.42073,1.291565 l -0.55537,0.06458 c -1.58862,0.219566 -3.7972,0.50371 -9.2476,0.50371 -6.08327,0 -12.28278,-1.059083 -12.28278,-8.885965 m 14.43969,17.939834 c -0.83952,0 -1.14949,-0.271229 -1.64029,-0.736192 l -4.88211,-4.959609 -0.32289,-0.71036 0.87826,-0.710361 4.41715,0 c 0.76203,0 1.05909,0.245397 1.52405,0.658698 l 6.04452,5.101681 0.36164,0.658698 c 0,0.335807 -0.30997,0.697445 -0.98159,0.697445 l -5.39874,0"
           style="fill:#5da245;fill-opacity:1;fill-rule:nonzero;stroke:none"
           id="path276"
           inkscape:connector-curvature="0" /><path
           d="m 398.63357,31.860278 c -0.80077,0 -1.4078,-0.516626 -1.4078,-1.214071 l 0,-21.3883115 -11.85657,21.0654205 c -0.6587,1.136577 -1.30448,1.536962 -2.60896,1.536962 l -5.55373,0 c -1.36906,0 -2.46689,-0.942842 -2.46689,-2.066504 l 0,-28.2077728 c 0,-0.68452929 0.63287,-1.25281775 1.42073,-1.25281775 l 4.3784,0 c 0.78785,0 1.40781,0.56828846 1.40781,1.25281775 l 0,20.4583848 11.32702,-20.0063371 c 0.95576,-1.70486545 2.26024,-1.70486545 3.51305,-1.70486545 l 5.17918,0 c 1.36906,0 2.4798,0.92992655 2.4798,2.07941915 l 0,28.2336044 c 0,0.697445 -0.59412,1.214071 -1.39489,1.214071 l -4.41715,0"
           style="fill:#5da245;fill-opacity:1;fill-rule:nonzero;stroke:none"
           id="path278"
           inkscape:connector-curvature="0" /><path
           d="m 411.31157,23.299787 0,-14.4009465 c 0,-7.826882 6.22534,-8.8859651 12.2957,-8.8859651 5.46332,0 7.63314,0.29705988 9.23468,0.50371023 l 0.58121,0.0774939 c 0.69744,0.0774939 1.39489,0.28414423 1.39489,1.27864908 l 0,2.634792 c 0,0.6974449 -0.64578,1.2528177 -1.44655,1.2528177 l -10.48751,0 c -2.82853,0 -3.6293,0.697445 -3.6293,3.1385022 l 0,4.9079455 13.49685,0 c 0.80078,0 1.47239,0.555373 1.47239,1.252818 l 0,2.957683 c 0,0.697445 -0.67161,1.252818 -1.47239,1.252818 l -13.49685,0 0,4.029682 c 0,2.441057 0.80077,3.138502 3.6293,3.138502 l 10.48751,0 c 0.80077,0 1.44655,0.555373 1.44655,1.252818 l 0,2.634792 c 0,1.00742 -0.69745,1.188239 -1.39489,1.291565 l -0.56829,0.06458 c -1.58862,0.219566 -3.78428,0.50371 -9.2476,0.50371 -6.07036,0 -12.2957,-1.059083 -12.2957,-8.885965 m 14.45261,17.939834 c -0.85243,0 -1.14949,-0.271229 -1.64029,-0.736192 l -4.88211,-4.959609 -0.32289,-0.71036 0.87826,-0.710361 4.40424,0 c 0.77494,0 1.072,0.245397 1.53696,0.658698 l 6.04452,5.101681 0.34872,0.658698 c 0,0.335807 -0.29706,0.697445 -0.98159,0.697445 l -5.38582,0"
           style="fill:#5da245;fill-opacity:1;fill-rule:nonzero;stroke:none"
           id="path280"
           inkscape:connector-curvature="0" /><path
           d="m 453.04719,26.438289 c 6.48366,0 7.31026,-2.143997 7.31026,-4.00385 l 0,-0.361639 c 0,-3.20308 -1.98901,-4.39132 -7.31026,-4.39132 0,0 -3.48722,0.103326 -4.14592,0.129157 l 0,8.48558 c 0.63287,0.01292 4.14592,0.142072 4.14592,0.142072 m -10.11295,5.217922 c -0.60703,-0.07749 -2.02776,-0.245398 -2.02776,-1.666119 l 0,-28.4015077 c 0,-0.68452926 0.67162,-1.25281772 1.44656,-1.25281772 l 5.14042,0 c 0.78786,0 1.40781,0.55537282 1.40781,1.25281772 l 0,10.7458187 0.89118,-0.03875 3.25474,-0.103325 0.50371,0 7.27151,-10.8362283 c 0.28415,-0.47787895 0.61995,-1.02033612 1.36906,-1.02033612 l 6.27701,0 c 0.71036,0 1.03325,0.46496329 1.03325,0.92992662 l -0.19374,0.5812041 c 0,0 -7.27151,10.8491437 -7.77522,11.6240827 4.39132,1.536962 6.74197,4.481729 6.74197,8.60182 l 0,0.361639 c 0,6.28992 -5.41166,9.751313 -15.22755,9.751313 -3.62929,0 -7.31025,-0.193735 -10.11295,-0.529541"
           style="fill:#5da245;fill-opacity:1;fill-rule:nonzero;stroke:none"
           id="path282"
           inkscape:connector-curvature="0" /><path
           d="m 487.64046,26.519658 0.42622,-0.361638 c 0,0 3.22891,-10.732903 3.52597,-11.727408 l -7.91729,0 c 0.29706,0.994505 3.5518,11.727408 3.5518,11.727408 l 0.4133,0.361638 m -7.52982,1.175324 -8.43392,-25.8958726 -0.0775,-0.3487225 c 0,-0.61995104 0.5812,-1.11074563 1.34323,-1.11074563 l 5.4504,0 c 0.63287,0 1.22698,0.439132 1.38197,1.00742043 l 2.26024,7.5427379 11.21078,0 2.27316,-7.5427379 1.36905,-1.00742043 5.43749,0 c 0.77494,0 1.35615,0.49079459 1.35615,1.11074563 l 0,0.038747 -0.0646,0.2066503 0.0258,-0.038747 -8.47267,26.0379447 c -1.43363,4.494645 -6.01869,4.494645 -7.52982,4.494645 -1.51113,0 -6.08327,0 -7.52982,-4.494645"
           style="fill:#5da245;fill-opacity:1;fill-rule:nonzero;stroke:none"
           id="path284"
           inkscape:connector-curvature="0" /><path
           d="m 508.11176,31.860278 c -0.81368,0 -1.47238,-0.568289 -1.47238,-1.252818 l 0,-21.7112026 c 0,-7.8268821 6.22534,-8.88596513 12.30861,-8.88596513 2.81561,0 7.27151,0.30997553 8.80847,0.59411976 0.68453,0.0904095 1.36906,0.29705988 1.36906,1.26573337 l 0,2.6477077 c 0,0.6974449 -0.6587,1.2399021 -1.45947,1.2399021 l -9.45425,0 c -2.8027,0 -3.57764,0.6845293 -3.57764,3.1385022 l 0,21.7112026 c 0,0.684529 -0.64578,1.252818 -1.44655,1.252818 l -5.07585,0"
           style="fill:#5da245;fill-opacity:1;fill-rule:nonzero;stroke:none"
           id="path286"
           inkscape:connector-curvature="0" /></g><g
         id="g4398"><path
           inkscape:connector-curvature="0"
           id="path6413"
           d="M 225.10534,425.25408 C 363.26401,408.39916 474.9973,356.90447 485.8077,288.56779 l 0,0 c 2.1052,6.9357 3.4872,14.06514 4.0684,21.45289 l 0,0 c 7.801,97.95226 -125.86298,194.65171 -298.55809,215.97544 l 0,0 c -18.66311,2.3119 -37.05499,3.6293 -54.94317,4.05551 l 0,0 88.7305,-104.79755 z"
           style="fill:url(#linearGradient6421);fill-opacity:1" /><path
           inkscape:connector-curvature="0"
           id="path6614"
           d="m 328.40474,310.71814 c 74.30372,-3.43556 131.46837,-33.65818 131.23589,-71.68184 l 0,0 c -0.0517,-6.96154 -2.04067,-13.7035 -5.63122,-20.14841 l 0,0 c 14.71092,12.39902 23.66146,27.17452 25.19843,43.79696 l 0,0 c 5.64413,60.74228 -89.89291,122.8278 -213.36649,138.66238 l 0,0 c -5.61831,0.73619 -11.18495,1.33031 -16.69993,1.82111 l 0,0 79.26332,-92.4502 z"
           style="fill-opacity:1;fill:url(#linearGradient4396)" /><path
           inkscape:connector-curvature="0"
           id="path4282"
           d="m 283.80701,184.98431 c -8.21435,-2.18274 -16.36412,-3.87469 -24.38474,-5.19209 l 0,0 c 83.97754,-8.1756 157.53215,7.87855 194.58714,39.09567 l 0,0 c 3.59055,6.44491 5.60539,13.2127 5.64414,20.16132 l 0,0 c 0.0904,18.8181 -13.87141,35.72468 -36.99042,48.42076 l 0,0 C 403.38007,243.5826 350.27093,202.4721 283.80701,184.98431"
           style="fill-opacity:1;fill:url(#linearGradient4286)" /><path
           inkscape:connector-curvature="0"
           id="path4284"
           d="m 273.6424,307.19217 -0.45205,0 0,-12.26987 -4.72713,-10.41001 0,-15.39545 -8.18852,0.0387 -13.56143,-9.4026 0,-5.39874 -1.26573,0 0,-1.80819 -3.42265,0 0,-3.00934 -11.92114,-0.0129 -1.14949,8.22727 -1.38197,-8.2531 c 0,0 -7.86563,-22.57655 -35.06599,-43.86154 l 0,0 -7.80105,0 0,-5.74746 c 0,0 -5.83787,-2.77686 -13.17396,-3.5518 l 0,0 0,-3.3839 -3.19016,0 0,-2.18275 -4.75296,0 -8.6664,-8.1756 c 97.12567,7.23276 161.13561,33.28362 202.32361,60.19983 l 0,0 c -15.07256,-4.52048 -24.46223,-1.44655 -24.46223,-1.44655 l 0,0 0.0129,2.10525 -11.70157,0.0258 c -7.10361,4.28799 -7.99479,9.40259 -7.99479,9.40259 l 0,0 -4.53339,0 -0.0129,11.00413 -2.22149,3.50014 -21.56913,0.0258 0,17.10032 -4.66255,10.33252 0,12.34736 -0.52954,0 -2.95768,29.93847 -2.9706,-29.93847 z"
           style="fill-opacity:1;fill:url(#linearGradient4288)" /><path
           style="fill-opacity:1;fill:url(#linearGradient4380)"
           d="m 283.80701,184.98431 c -8.21435,-2.18274 -16.36412,-3.87469 -24.38474,-5.19209 l 0,0 c 83.97754,-8.1756 157.53215,7.87855 194.58714,39.09567 l 0,0 c 3.59055,6.44491 5.60539,13.2127 5.64414,20.16132 l 0,0 c 0.0904,18.8181 -13.87141,35.72468 -36.99042,48.42076 l 0,0 C 403.38007,243.5826 350.27093,202.4721 283.80701,184.98431"
           id="path4350"
           inkscape:connector-curvature="0" /><path
           style="fill-opacity:1;fill:url(#linearGradient4382)"
           d="m 273.6424,307.19217 -0.45205,0 0,-12.26987 -4.72713,-10.41001 0,-15.39545 -8.18852,0.0387 -13.56143,-9.4026 0,-5.39874 -1.26573,0 0,-1.80819 -3.42265,0 0,-3.00934 -11.92114,-0.0129 -1.14949,8.22727 -1.38197,-8.2531 c 0,0 -7.86563,-22.57655 -35.06599,-43.86154 l 0,0 -7.80105,0 0,-5.74746 c 0,0 -5.83787,-2.77686 -13.17396,-3.5518 l 0,0 0,-3.3839 -3.19016,0 0,-2.18275 -4.75296,0 -8.6664,-8.1756 c 97.12567,7.23276 161.13561,33.28362 202.32361,60.19983 l 0,0 c -15.07256,-4.52048 -24.46223,-1.44655 -24.46223,-1.44655 l 0,0 0.0129,2.10525 -11.70157,0.0258 c -7.10361,4.28799 -7.99479,9.40259 -7.99479,9.40259 l 0,0 -4.53339,0 -0.0129,11.00413 -2.22149,3.50014 -21.56913,0.0258 0,17.10032 -4.66255,10.33252 0,12.34736 -0.52954,0 -2.95768,29.93847 -2.9706,-29.93847 z"
           id="path4352"
           inkscape:connector-curvature="0" /></g></g></g></svg>