<?xml version="1.0" encoding="UTF-8" standalone="no"?>
<!-- Created with Inkscape (http://www.inkscape.org/) -->

<svg
   xmlns:dc="http://purl.org/dc/elements/1.1/"
   xmlns:cc="http://creativecommons.org/ns#"
   xmlns:rdf="http://www.w3.org/1999/02/22-rdf-syntax-ns#"
   xmlns:svg="http://www.w3.org/2000/svg"
   xmlns="http://www.w3.org/2000/svg"
   xmlns:sodipodi="http://sodipodi.sourceforge.net/DTD/sodipodi-0.dtd"
   xmlns:inkscape="http://www.inkscape.org/namespaces/inkscape"
   id="svg2"
   version="1.1"
   inkscape:version="0.91 r13725"
   xml:space="preserve"
   width="500"
   height="613.05176"
   viewBox="0 0 500 613.05174"
   sodipodi:docname="Meurthe-et-Moselle_(54)_logo_2017.svg"><metadata
     id="metadata8"><rdf:RDF><cc:Work
         rdf:about=""><dc:format>image/svg+xml</dc:format><dc:type
           rdf:resource="http://purl.org/dc/dcmitype/StillImage" /><dc:title></dc:title></cc:Work></rdf:RDF></metadata><defs
     id="defs6"><clipPath
       clipPathUnits="userSpaceOnUse"
       id="clipPath28"><path
         d="m 0,126.333 104,0 L 104,0 0,0 0,126.333 Z"
         id="path30"
         inkscape:connector-curvature="0" /></clipPath></defs><sodipodi:namedview
     pagecolor="#ffffff"
     bordercolor="#666666"
     borderopacity="1"
     objecttolerance="10"
     gridtolerance="10"
     guidetolerance="10"
     inkscape:pageopacity="0"
     inkscape:pageshadow="2"
     inkscape:window-width="1366"
     inkscape:window-height="705"
     id="namedview4"
     showgrid="false"
     inkscape:zoom="0.76434372"
     inkscape:cx="251.59537"
     inkscape:cy="299.77321"
     inkscape:window-x="-8"
     inkscape:window-y="-8"
     inkscape:window-maximized="1"
     inkscape:current-layer="g10"
     fit-margin-top="0"
     fit-margin-left="0"
     fit-margin-right="0"
     fit-margin-bottom="0" /><g
     id="g10"
     inkscape:groupmode="layer"
     inkscape:label="Vertical-couleur"
     transform="matrix(1.25,0,0,-1.25,-2.10875,614.85714)"><g
       id="g12"
       transform="matrix(3.9589497,0,0,3.9589497,1.687,246.18142)"><path
         d="M 0,0 39.75,-36.629 76.38,3.121 76.379,3.122 48.967,-4.518 36.63,39.75 l 0,10e-4 L 0,0 Z"
         style="fill:#fff200;fill-opacity:1;fill-rule:nonzero;stroke:none"
         id="path14"
         inkscape:connector-curvature="0" /></g><g
       id="g16"
       transform="matrix(3.9589497,0,0,3.9589497,344.23868,491.88571)"><path
         d="m 0,0 -52.07,-14.511 2.174,-7.802 39.75,-36.628 24.657,6.871 L 0,0 Z"
         style="fill:#2d71c1;fill-opacity:1;fill-rule:nonzero;stroke:none"
         id="path18"
         inkscape:connector-curvature="0" /></g><g
       id="g20"
       transform="matrix(3.9589497,0,0,3.9589497,304.0692,258.54166)"><path
         d="M 0,0 -39.75,36.629 -27.412,-7.639 0,0 Z"
         style="fill:#141111;fill-opacity:1;fill-rule:nonzero;stroke:none"
         id="path22"
         inkscape:connector-curvature="0" /></g><g
       id="g24"
       transform="matrix(3.9589497,0,0,3.9589497,-4.9917481,-4.273611)"><g
         id="g26"
         clip-path="url(#clipPath28)"><g
           id="g32"
           transform="translate(50.5967,29.2777)"><path
             d="m 0,0 0,18.433 0,1.529 c 0,0.46 0.011,0.905 0.032,1.334 l -0.129,0 C -0.118,21.082 -0.15,20.819 -0.193,20.508 -0.236,20.197 -0.295,19.747 -0.37,19.157 -0.445,18.567 -0.552,17.801 -0.692,16.857 -0.832,15.913 -1.014,14.686 -1.239,13.174 -1.464,11.662 -1.737,9.833 -2.059,7.688 -2.381,5.544 -2.767,2.98 -3.217,0 L -4.15,0 c -0.45,2.98 -0.842,5.549 -1.174,7.704 -0.333,2.155 -0.611,3.99 -0.836,5.502 -0.226,1.512 -0.408,2.745 -0.547,3.699 -0.14,0.954 -0.253,1.721 -0.338,2.3 -0.086,0.579 -0.15,1.019 -0.193,1.32 -0.043,0.3 -0.064,0.557 -0.064,0.771 l -0.129,0 c 0.021,-0.429 0.032,-0.874 0.032,-1.334 l 0,-1.529 0,-18.433 -1.576,0 0,24.352 2.959,0 c 0.343,-2.744 0.643,-5.077 0.901,-6.996 0.257,-1.92 0.467,-3.523 0.627,-4.809 0.161,-1.288 0.29,-2.307 0.387,-3.057 0.096,-0.751 0.166,-1.33 0.208,-1.737 0.043,-0.408 0.075,-0.687 0.097,-0.836 0.021,-0.151 0.032,-0.28 0.032,-0.386 l 0.129,0 c 0,0.106 0.011,0.235 0.032,0.386 0.021,0.149 0.053,0.428 0.097,0.836 0.042,0.407 0.112,0.986 0.208,1.737 0.098,0.75 0.231,1.769 0.403,3.057 0.171,1.286 0.386,2.889 0.643,4.809 0.258,1.919 0.568,4.252 0.933,6.996 l 2.928,0 L 1.609,0 0,0 Z"
             style="fill:#141111;fill-opacity:1;fill-rule:nonzero;stroke:none"
             id="path34"
             inkscape:connector-curvature="0" /></g><g
           id="g36"
           transform="translate(54.2314,29.2777)"><path
             d="m 0,0 0,24.352 5.919,0 0,-1.768 -4.182,0 0,-9.33 4.118,0 0,-1.705 -4.118,0 0,-9.715 4.15,0 L 5.887,0 0,0 Z"
             style="fill:#141111;fill-opacity:1;fill-rule:nonzero;stroke:none"
             id="path38"
             inkscape:connector-curvature="0" /></g><g
           id="g40"
           transform="translate(67.3564,53.6302)"><path
             d="m 0,0 1.737,0 0,-18.016 c 0,-0.814 -0.005,-1.495 -0.016,-2.043 -0.011,-0.546 -0.038,-1.007 -0.08,-1.383 -0.044,-0.375 -0.097,-0.697 -0.161,-0.965 -0.065,-0.268 -0.161,-0.53 -0.29,-0.788 -0.257,-0.578 -0.638,-0.986 -1.142,-1.222 -0.504,-0.236 -1.141,-0.354 -1.914,-0.354 -0.772,0 -1.41,0.113 -1.914,0.337 -0.504,0.226 -0.884,0.639 -1.142,1.239 -0.129,0.258 -0.231,0.52 -0.306,0.788 -0.075,0.268 -0.134,0.59 -0.177,0.965 -0.043,0.376 -0.069,0.837 -0.08,1.383 -0.011,0.548 -0.016,1.229 -0.016,2.043 l 0,18.016 1.801,0 0,-18.016 c 0,-0.708 0.005,-1.292 0.016,-1.754 0.011,-0.46 0.032,-0.835 0.065,-1.126 0.032,-0.289 0.069,-0.529 0.113,-0.722 0.042,-0.194 0.106,-0.376 0.192,-0.547 0.129,-0.301 0.322,-0.504 0.579,-0.611 0.258,-0.108 0.558,-0.161 0.901,-0.161 0.343,0 0.638,0.053 0.885,0.161 0.246,0.107 0.435,0.31 0.563,0.611 0.085,0.171 0.149,0.353 0.193,0.547 0.042,0.193 0.08,0.433 0.112,0.722 0.033,0.291 0.054,0.666 0.065,1.126 0.011,0.462 0.016,1.046 0.016,1.754 L 0,0 Z"
             style="fill:#141111;fill-opacity:1;fill-rule:nonzero;stroke:none"
             id="path42"
             inkscape:connector-curvature="0" /></g><g
           id="g44"
           transform="translate(74.3369,41.598)"><path
             d="m 0,0 c 0.387,0 0.692,0.037 0.917,0.113 0.226,0.075 0.424,0.262 0.596,0.563 0.085,0.15 0.161,0.332 0.224,0.547 0.065,0.214 0.117,0.493 0.161,0.836 0.042,0.343 0.07,0.788 0.081,1.335 0.01,0.547 0.015,1.239 0.015,2.075 0,0.773 -0.005,1.388 -0.015,1.85 C 1.968,7.78 1.946,8.155 1.914,8.445 1.883,8.734 1.839,8.96 1.785,9.121 1.732,9.282 1.662,9.447 1.577,9.619 c -0.236,0.45 -0.6,0.676 -1.095,0.676 l -2.058,0 L -1.576,0 0,0 Z m 2.252,-12.321 c -0.044,0.15 -0.079,0.306 -0.112,0.467 -0.033,0.161 -0.065,0.402 -0.098,0.723 -0.031,0.322 -0.068,0.745 -0.111,1.272 -0.043,0.525 -0.077,1.227 -0.097,2.107 -0.043,0.943 -0.075,1.71 -0.097,2.299 -0.021,0.59 -0.048,1.067 -0.08,1.432 -0.032,0.365 -0.07,0.654 -0.113,0.869 -0.043,0.214 -0.097,0.419 -0.16,0.611 -0.215,0.622 -0.655,0.934 -1.32,0.934 l -1.64,0 0,-10.714 -1.737,0 0,24.352 3.924,0 c 0.558,0 1.018,-0.095 1.383,-0.289 C 2.359,11.55 2.659,11.271 2.896,10.906 3.024,10.713 3.142,10.493 3.249,10.246 3.356,10 3.447,9.673 3.522,9.266 3.599,8.858 3.656,8.354 3.7,7.754 3.742,7.153 3.765,6.391 3.765,5.469 3.765,4.654 3.753,3.984 3.732,3.458 3.71,2.933 3.684,2.488 3.651,2.124 3.619,1.758 3.576,1.448 3.522,1.191 3.47,0.934 3.399,0.686 3.313,0.45 3.077,-0.257 2.714,-0.675 2.221,-0.804 l 0,-0.129 c 0.235,-0.107 0.418,-0.273 0.547,-0.498 0.128,-0.226 0.224,-0.456 0.289,-0.692 0.085,-0.301 0.154,-0.584 0.209,-0.852 0.052,-0.269 0.096,-0.59 0.129,-0.965 0.032,-0.375 0.063,-0.836 0.095,-1.384 0.032,-0.547 0.071,-1.238 0.114,-2.073 0.042,-0.967 0.08,-1.734 0.113,-2.302 0.031,-0.569 0.063,-1.013 0.095,-1.335 0.033,-0.321 0.064,-0.558 0.097,-0.708 0.032,-0.15 0.07,-0.3 0.112,-0.449 l 0,-0.13 -1.769,0 z"
             style="fill:#141111;fill-opacity:1;fill-rule:nonzero;stroke:none"
             id="path46"
             inkscape:connector-curvature="0" /></g><g
           id="g48"
           transform="translate(81.2539,29.2777)"><path
             d="m 0,0 0,22.584 -2.639,0 0,1.768 6.982,0 0,-1.768 -2.574,0 L 1.769,0 0,0 Z"
             style="fill:#141111;fill-opacity:1;fill-rule:nonzero;stroke:none"
             id="path50"
             inkscape:connector-curvature="0" /></g><g
           id="g52"
           transform="translate(92.6406,29.2777)"><path
             d="m 0,0 0,11.549 -3.892,0 0,-11.549 -1.768,0 0,24.352 1.768,0 0,-11.098 3.892,0 0,11.098 1.77,0 L 1.77,0 0,0 Z"
             style="fill:#141111;fill-opacity:1;fill-rule:nonzero;stroke:none"
             id="path54"
             inkscape:connector-curvature="0" /></g><g
           id="g56"
           transform="translate(96.4365,53.6292)"><path
             d="m 0,0 0,-24.352 5.889,0 0,1.834 -4.151,0 0,9.715 4.117,0 0,1.705 -4.117,0 0,9.329 4.181,0 L 5.919,0 0,0 Z"
             style="fill:#141111;fill-opacity:1;fill-rule:nonzero;stroke:none"
             id="path58"
             inkscape:connector-curvature="0" /></g><g
           id="g60"
           transform="translate(42.4702,22.8226)"><path
             d="M 0,0 C 0.089,0.082 0.16,0.152 0.213,0.213 0.265,0.271 0.304,0.35 0.33,0.446 0.356,0.544 0.372,0.671 0.381,0.828 0.388,0.983 0.391,1.2 0.391,1.477 0.391,1.774 0.384,2.012 0.369,2.187 0.354,2.361 0.33,2.495 0.297,2.584 0.263,2.674 0.216,2.73 0.157,2.758 0.097,2.783 0.019,2.797 -0.079,2.797 -0.191,2.797 -0.282,2.783 -0.352,2.758 -0.424,2.73 -0.478,2.677 -0.515,2.595 -0.552,2.513 -0.576,2.388 -0.588,2.221 -0.599,2.053 -0.604,1.83 -0.604,1.555 c 0,-0.179 0.002,-0.33 0.005,-0.454 0.004,-0.122 0.017,-0.246 0.039,-0.37 0.023,-0.123 0.06,-0.254 0.112,-0.396 0.052,-0.143 0.124,-0.324 0.213,-0.548 L 0,0 Z m 0.358,-3.368 -0.828,2.327 -0.202,-0.225 c -0.067,-0.073 -0.119,-0.148 -0.156,-0.223 -0.038,-0.074 -0.066,-0.168 -0.084,-0.28 -0.019,-0.111 -0.032,-0.252 -0.04,-0.419 -0.007,-0.168 -0.01,-0.382 -0.01,-0.643 0,-0.447 0.009,-0.802 0.028,-1.059 0.018,-0.256 0.05,-0.452 0.094,-0.582 0.045,-0.13 0.105,-0.212 0.18,-0.246 0.074,-0.032 0.168,-0.05 0.28,-0.05 0.149,0 0.259,0.046 0.329,0.141 0.072,0.093 0.144,0.273 0.218,0.542 l 0.191,0.717 z m 0.705,-1.892 -0.358,1.053 -0.045,0 C 0.622,-4.432 0.576,-4.62 0.52,-4.772 0.464,-4.927 0.393,-5.05 0.307,-5.143 c -0.085,-0.092 -0.19,-0.16 -0.313,-0.201 -0.123,-0.041 -0.266,-0.061 -0.43,-0.061 -0.232,0 -0.42,0.024 -0.566,0.073 -0.145,0.049 -0.261,0.157 -0.347,0.33 -0.086,0.171 -0.143,0.422 -0.173,0.749 -0.03,0.328 -0.045,0.776 -0.045,1.343 0,0.321 0.008,0.588 0.022,0.8 0.016,0.213 0.046,0.395 0.09,0.548 0.045,0.153 0.11,0.289 0.196,0.409 0.086,0.12 0.2,0.246 0.341,0.381 L -0.672,-0.537 -0.862,0 C -0.922,0.171 -0.97,0.318 -1.007,0.441 -1.045,0.563 -1.073,0.684 -1.091,0.8 -1.11,0.916 -1.123,1.038 -1.13,1.169 c -0.008,0.13 -0.011,0.293 -0.011,0.486 0,0.366 0.014,0.66 0.044,0.884 0.03,0.224 0.084,0.398 0.163,0.521 0.078,0.123 0.188,0.203 0.33,0.24 0.142,0.038 0.324,0.055 0.548,0.055 0.186,0 0.343,-0.019 0.47,-0.06 C 0.54,3.254 0.64,3.17 0.71,3.043 0.781,2.916 0.832,2.73 0.862,2.489 0.891,2.247 0.906,1.92 0.906,1.51 0.906,1.196 0.897,0.939 0.878,0.737 0.86,0.536 0.828,0.369 0.783,0.234 0.738,0.101 0.675,-0.016 0.593,-0.113 0.51,-0.209 0.41,-0.314 0.291,-0.427 l -0.336,-0.29 0.615,-1.857 0.045,0 0.392,1.611 0.57,0 0,-0.057 -0.649,-2.36 0.683,-1.835 0,-0.045 -0.548,0 z"
             style="fill:#141111;fill-opacity:1;fill-rule:nonzero;stroke:none"
             id="path62"
             inkscape:connector-curvature="0" /></g><g
           id="g64"
           transform="translate(54.2109,1.8626)"><path
             d="m 0,0 0,18.434 0,1.529 c 0,0.46 0.011,0.904 0.032,1.334 l -0.129,0 C -0.118,21.082 -0.151,20.819 -0.193,20.509 -0.236,20.197 -0.295,19.747 -0.37,19.158 -0.445,18.567 -0.552,17.801 -0.692,16.857 -0.832,15.913 -1.014,14.687 -1.239,13.175 -1.464,11.662 -1.737,9.833 -2.059,7.689 -2.381,5.544 -2.767,2.981 -3.217,0 L -4.15,0 c -0.45,2.981 -0.842,5.55 -1.174,7.705 -0.333,2.155 -0.611,3.989 -0.836,5.501 -0.226,1.513 -0.408,2.744 -0.547,3.699 -0.14,0.954 -0.253,1.721 -0.338,2.3 -0.086,0.579 -0.15,1.02 -0.194,1.32 -0.043,0.299 -0.063,0.557 -0.063,0.772 l -0.129,0 c 0.021,-0.43 0.032,-0.874 0.032,-1.334 l 0,-1.529 0,-18.434 -1.577,0 0,24.353 2.96,0 c 0.343,-2.746 0.644,-5.078 0.901,-6.997 0.257,-1.919 0.467,-3.523 0.627,-4.808 0.161,-1.288 0.29,-2.308 0.387,-3.058 0.096,-0.751 0.165,-1.33 0.208,-1.736 0.043,-0.408 0.076,-0.688 0.097,-0.837 0.021,-0.15 0.032,-0.279 0.032,-0.386 l 0.129,0 c 0,0.107 0.01,0.236 0.032,0.386 0.021,0.149 0.053,0.429 0.097,0.837 0.042,0.406 0.112,0.985 0.208,1.736 0.098,0.75 0.231,1.77 0.403,3.058 0.171,1.285 0.386,2.889 0.643,4.808 0.258,1.919 0.568,4.251 0.933,6.997 l 2.928,0 L 1.609,0 0,0 Z"
             style="fill:#141111;fill-opacity:1;fill-rule:nonzero;stroke:none"
             id="path66"
             inkscape:connector-curvature="0" /></g><g
           id="g68"
           transform="translate(62.6714,4.5335)"><path
             d="m 0,0 c 0.065,0.3 0.123,0.632 0.177,0.997 0.053,0.364 0.096,0.885 0.128,1.56 0.033,0.675 0.059,1.565 0.081,2.67 0.021,1.104 0.032,2.546 0.032,4.328 0,1.78 -0.006,3.22 -0.016,4.326 -0.011,1.103 -0.032,1.988 -0.064,2.653 -0.033,0.665 -0.075,1.175 -0.129,1.528 -0.054,0.355 -0.112,0.693 -0.177,1.014 -0.107,0.472 -0.273,0.805 -0.498,0.997 -0.226,0.194 -0.553,0.29 -0.982,0.29 -0.429,0 -0.751,-0.096 -0.965,-0.29 -0.214,-0.192 -0.375,-0.514 -0.482,-0.965 -0.065,-0.321 -0.124,-0.665 -0.177,-1.03 -0.054,-0.364 -0.097,-0.873 -0.129,-1.527 -0.032,-0.655 -0.059,-1.533 -0.08,-2.639 -0.022,-1.104 -0.033,-2.557 -0.033,-4.357 0,-1.802 0.006,-3.255 0.016,-4.36 C -3.287,4.091 -3.265,3.2 -3.233,2.524 -3.201,1.85 -3.158,1.335 -3.105,0.98 -3.051,0.628 -2.981,0.3 -2.895,0 c 0.107,-0.494 0.268,-0.826 0.482,-0.997 0.214,-0.173 0.536,-0.259 0.965,-0.259 0.429,0 0.751,0.086 0.966,0.259 C -0.269,-0.826 -0.107,-0.494 0,0 M 1.512,-1.095 C 1.275,-1.845 0.938,-2.364 0.498,-2.653 0.059,-2.943 -0.59,-3.089 -1.448,-3.089 c -0.858,0 -1.507,0.146 -1.946,0.436 -0.44,0.289 -0.777,0.808 -1.013,1.558 -0.108,0.365 -0.204,0.768 -0.29,1.207 -0.086,0.44 -0.156,1.034 -0.209,1.785 -0.054,0.751 -0.092,1.733 -0.112,2.945 -0.022,1.211 -0.033,2.77 -0.033,4.679 0,1.91 0.011,3.464 0.033,4.666 0.02,1.201 0.058,2.175 0.112,2.926 0.053,0.751 0.118,1.34 0.193,1.771 0.075,0.428 0.177,0.836 0.306,1.221 0.236,0.751 0.573,1.272 1.013,1.561 0.439,0.289 1.088,0.435 1.946,0.435 0.858,0 1.507,-0.146 1.946,-0.435 0.44,-0.289 0.777,-0.81 1.014,-1.561 C 1.619,19.72 1.715,19.312 1.801,18.884 1.887,18.453 1.957,17.864 2.01,17.113 2.064,16.362 2.102,15.388 2.123,14.187 2.144,12.985 2.156,11.431 2.156,9.521 2.156,7.612 2.144,6.053 2.123,4.842 2.102,3.63 2.064,2.648 2.01,1.897 1.957,1.146 1.887,0.552 1.801,0.112 1.715,-0.327 1.619,-0.73 1.512,-1.095"
             style="fill:#141111;fill-opacity:1;fill-rule:nonzero;stroke:none"
             id="path70"
             inkscape:connector-curvature="0" /></g><g
           id="g72"
           transform="translate(68.043,10.0023)"><path
             d="m 0,0 c -0.043,-0.279 -0.07,-0.611 -0.081,-0.998 -0.01,-0.385 -0.016,-0.868 -0.016,-1.447 0,-0.558 0.011,-1.03 0.033,-1.416 0.021,-0.386 0.048,-0.718 0.08,-0.997 0.032,-0.278 0.075,-0.51 0.129,-0.691 0.053,-0.183 0.123,-0.36 0.209,-0.531 0.128,-0.279 0.29,-0.467 0.482,-0.564 0.194,-0.096 0.429,-0.144 0.708,-0.144 0.322,0 0.595,0.037 0.82,0.112 0.225,0.075 0.403,0.263 0.531,0.564 0.171,0.364 0.3,0.888 0.386,1.576 0.086,0.685 0.129,1.609 0.129,2.766 0,0.73 -0.006,1.309 -0.016,1.738 C 3.383,0.396 3.367,0.729 3.346,0.965 3.324,1.201 3.297,1.373 3.265,1.479 3.233,1.587 3.206,1.683 3.184,1.769 3.121,1.94 3.04,2.086 2.944,2.204 2.847,2.322 2.702,2.477 2.509,2.67 2.338,2.842 2.112,3.034 1.834,3.249 1.555,3.464 1.275,3.678 0.998,3.893 0.718,4.106 0.456,4.315 0.209,4.52 -0.037,4.724 -0.225,4.89 -0.354,5.018 -0.547,5.211 -0.735,5.426 -0.917,5.662 -1.099,5.897 -1.244,6.166 -1.351,6.466 -1.415,6.659 -1.469,6.862 -1.512,7.077 -1.555,7.291 -1.593,7.564 -1.625,7.896 -1.657,8.229 -1.679,8.659 -1.689,9.184 -1.7,9.71 -1.705,10.369 -1.705,11.163 c 0,0.772 0.026,1.441 0.08,2.011 0.054,0.567 0.145,1.066 0.274,1.496 0.214,0.707 0.547,1.211 0.997,1.512 0.451,0.298 1.094,0.45 1.931,0.45 0.857,0 1.496,-0.135 1.913,-0.403 0.419,-0.267 0.736,-0.66 0.949,-1.174 C 4.61,14.647 4.734,14.16 4.81,13.591 4.884,13.022 4.922,12.331 4.922,11.517 4.922,10.809 4.906,10.219 4.874,9.747 4.842,9.275 4.804,8.911 4.761,8.653 l -1.544,0 c 0.043,0.237 0.075,0.553 0.096,0.95 0.021,0.396 0.033,0.905 0.033,1.528 0,0.557 -0.022,1.034 -0.065,1.431 -0.043,0.397 -0.107,0.755 -0.192,1.078 -0.108,0.47 -0.28,0.798 -0.516,0.981 -0.235,0.183 -0.568,0.274 -0.996,0.274 -0.408,0 -0.719,-0.091 -0.933,-0.274 C 0.428,14.438 0.268,14.101 0.161,13.607 0.075,13.243 0.016,12.861 -0.016,12.466 -0.048,12.068 -0.064,11.569 -0.064,10.97 c 0,-0.817 0.005,-1.453 0.016,-1.914 C -0.037,8.594 -0.027,8.234 -0.016,7.978 -0.005,7.721 0.016,7.533 0.048,7.415 0.081,7.297 0.129,7.174 0.193,7.045 0.3,6.766 0.493,6.487 0.772,6.209 0.901,6.058 1.099,5.887 1.367,5.693 1.635,5.501 1.914,5.297 2.204,5.083 2.493,4.868 2.777,4.659 3.056,4.456 3.334,4.251 3.56,4.063 3.732,3.893 3.989,3.656 4.187,3.441 4.327,3.249 4.466,3.056 4.589,2.819 4.696,2.541 4.761,2.413 4.814,2.272 4.858,2.123 4.9,1.973 4.938,1.753 4.97,1.464 5.002,1.174 5.024,0.771 5.035,0.257 5.045,-0.257 5.05,-0.934 5.05,-1.77 5.05,-3.121 4.992,-4.221 4.874,-5.066 4.756,-5.914 4.578,-6.596 4.343,-7.109 4.085,-7.689 3.742,-8.075 3.313,-8.268 2.884,-8.461 2.294,-8.558 1.544,-8.558 c -0.794,0 -1.394,0.145 -1.801,0.435 -0.408,0.29 -0.73,0.756 -0.966,1.399 -0.15,0.408 -0.262,0.912 -0.337,1.512 -0.076,0.601 -0.113,1.426 -0.113,2.477 0,0.644 0.01,1.186 0.032,1.625 0.022,0.44 0.054,0.809 0.097,1.11 L 0,0 Z"
             style="fill:#141111;fill-opacity:1;fill-rule:nonzero;stroke:none"
             id="path74"
             inkscape:connector-curvature="0" /></g><g
           id="g76"
           transform="translate(74.9268,26.2152)"><path
             d="m 0,0 0,-24.352 5.887,0 0,1.833 -4.15,0 0,9.716 4.118,0 0,1.704 -4.118,0 0,9.33 4.182,0 L 5.919,0 0,0 Z"
             style="fill:#141111;fill-opacity:1;fill-rule:nonzero;stroke:none"
             id="path78"
             inkscape:connector-curvature="0" /></g><g
           id="g80"
           transform="translate(82.7119,26.2152)"><path
             d="m 0,0 0,-24.352 5.63,0 0,1.833 -3.893,0 L 1.737,0 0,0 Z"
             style="fill:#141111;fill-opacity:1;fill-rule:nonzero;stroke:none"
             id="path82"
             inkscape:connector-curvature="0" /></g><g
           id="g84"
           transform="translate(89.7559,26.2152)"><path
             d="m 0,0 0,-24.352 5.63,0 0,1.833 -3.892,0 L 1.738,0 0,0 Z"
             style="fill:#141111;fill-opacity:1;fill-rule:nonzero;stroke:none"
             id="path86"
             inkscape:connector-curvature="0" /></g><g
           id="g88"
           transform="translate(96.8018,26.2152)"><path
             d="m 0,0 0,-24.352 5.888,0 0,1.833 -4.151,0 0,9.716 4.117,0 0,1.704 -4.117,0 0,9.33 4.182,0 L 5.919,0 0,0 Z"
             style="fill:#141111;fill-opacity:1;fill-rule:nonzero;stroke:none"
             id="path90"
             inkscape:connector-curvature="0" /></g><g
           id="g92"
           transform="translate(36.127,3.3265)"><path
             d="m 0,0 c 0,0.169 -0.031,0.298 -0.095,0.386 -0.062,0.089 -0.182,0.155 -0.357,0.197 -0.108,0.025 -0.23,0.049 -0.364,0.069 -0.133,0.022 -0.326,0.038 -0.577,0.052 -0.25,0.013 -0.585,0.021 -1.003,0.025 -0.419,0.003 -0.97,0.005 -1.656,0.005 -0.653,0 -1.185,-0.002 -1.6,-0.005 C -6.066,0.725 -6.398,0.718 -6.649,0.71 -6.9,0.702 -7.095,0.686 -7.233,0.665 -7.37,0.644 -7.498,0.617 -7.616,0.583 -7.799,0.523 -7.926,0.455 -7.997,0.374 -8.069,0.294 -8.104,0.169 -8.104,0 l 0,-0.774 8.104,0 L 0,0 Z m 0.702,-1.458 -9.496,0 0,1.471 c 0,0.329 0.054,0.58 0.163,0.754 0.108,0.172 0.305,0.31 0.59,0.412 0.141,0.05 0.294,0.092 0.457,0.127 0.164,0.033 0.387,0.059 0.671,0.076 0.285,0.016 0.653,0.029 1.104,0.037 0.452,0.009 1.037,0.014 1.757,0.014 0.752,0 1.361,-0.005 1.825,-0.014 C -1.762,1.411 -1.391,1.396 -1.11,1.376 -0.83,1.354 -0.613,1.329 -0.458,1.299 -0.303,1.27 -0.159,1.233 -0.025,1.191 0.259,1.099 0.451,0.965 0.552,0.792 0.652,0.619 0.702,0.358 0.702,0.013 l 0,-1.471 z"
             style="fill:#141111;fill-opacity:1;fill-rule:nonzero;stroke:none"
             id="path94"
             inkscape:connector-curvature="0" /></g><g
           id="g96"
           transform="translate(36.8291,7.0023)"><path
             d="m 0,0 -9.497,0 0,2.333 0.691,0 0,-1.647 3.637,0 0,1.623 0.665,0 0,-1.623 3.789,0 0,1.635 L 0,2.321 0,0 Z"
             style="fill:#141111;fill-opacity:1;fill-rule:nonzero;stroke:none"
             id="path98"
             inkscape:connector-curvature="0" /></g><g
           id="g100"
           transform="translate(32.9775,13.0374)"><path
             d="m 0,0 c 0,0.119 -0.029,0.214 -0.088,0.285 -0.058,0.071 -0.184,0.133 -0.376,0.184 -0.142,0.034 -0.28,0.064 -0.414,0.089 -0.134,0.025 -0.278,0.042 -0.433,0.05 -0.154,0.009 -0.332,0.015 -0.533,0.02 -0.201,0.004 -0.435,0.006 -0.703,0.006 -0.226,0 -0.424,-0.002 -0.596,-0.006 C -3.314,0.623 -3.475,0.615 -3.626,0.602 -3.776,0.589 -3.92,0.572 -4.058,0.551 -4.196,0.531 -4.341,0.503 -4.491,0.469 -4.683,0.426 -4.809,0.366 -4.867,0.285 -4.926,0.205 -4.955,0.109 -4.955,0 l 0,-0.761 4.955,0 L 0,0 Z m 3.851,-1.445 -9.496,0 0,1.547 c 0,0.294 0.06,0.524 0.182,0.684 0.121,0.161 0.345,0.278 0.671,0.355 0.192,0.042 0.376,0.076 0.552,0.101 0.175,0.026 0.351,0.045 0.526,0.058 0.176,0.012 0.36,0.021 0.553,0.025 0.192,0.004 0.401,0.006 0.627,0.006 0.251,0 0.476,-0.002 0.678,-0.006 C -1.656,1.321 -1.463,1.312 -1.279,1.3 -1.096,1.287 -0.916,1.268 -0.74,1.242 -0.564,1.217 -0.381,1.183 -0.188,1.141 0.13,1.073 0.353,0.959 0.483,0.799 0.613,0.638 0.678,0.4 0.678,0.089 l 0,-0.85 3.173,0 0,-0.684 z"
             style="fill:#141111;fill-opacity:1;fill-rule:nonzero;stroke:none"
             id="path102"
             inkscape:connector-curvature="0" /></g><g
           id="g104"
           transform="translate(29.0889,17.4613)"><path
             d="M 0,0 C -0.293,-0.025 -0.534,-0.044 -0.722,-0.057 -0.91,-0.069 -1.075,-0.075 -1.217,-0.075 l 0,-0.051 c 0.142,0 0.307,-0.007 0.495,-0.02 0.188,-0.012 0.429,-0.031 0.722,-0.056 l 4.291,-0.406 0,0.989 L 0,0 Z m 7.74,0.646 -2.785,-0.227 0,-1.065 2.785,-0.241 0,-0.697 -9.497,0.913 0,1.179 9.497,0.848 0,-0.71 z"
             style="fill:#141111;fill-opacity:1;fill-rule:nonzero;stroke:none"
             id="path106"
             inkscape:connector-curvature="0" /></g><g
           id="g108"
           transform="translate(32.0239,22.2786)"><path
             d="M 0,0 C 0,0.152 -0.014,0.273 -0.044,0.361 -0.073,0.45 -0.146,0.529 -0.263,0.597 -0.322,0.63 -0.393,0.66 -0.476,0.686 -0.56,0.71 -0.669,0.731 -0.803,0.748 -0.936,0.766 -1.11,0.776 -1.323,0.78 -1.537,0.784 -1.807,0.787 -2.132,0.787 -2.434,0.787 -2.674,0.784 -2.854,0.78 -3.034,0.776 -3.18,0.768 -3.293,0.755 -3.406,0.742 -3.494,0.726 -3.556,0.704 -3.619,0.684 -3.684,0.655 -3.751,0.622 -3.927,0.529 -4.014,0.385 -4.014,0.191 l 0,-0.812 4.014,0 L 0,0 Z M 4.805,0.889 C 4.746,0.871 4.686,0.856 4.623,0.845 4.56,0.83 4.466,0.818 4.341,0.806 4.215,0.793 4.051,0.778 3.846,0.762 3.64,0.744 3.366,0.731 3.023,0.724 2.655,0.706 2.357,0.693 2.126,0.686 1.896,0.678 1.71,0.666 1.569,0.653 1.427,0.641 1.313,0.626 1.229,0.609 1.146,0.593 1.067,0.571 0.992,0.545 0.749,0.461 0.628,0.287 0.628,0.026 l 0,-0.647 4.177,0 0,-0.685 -9.497,0 0,1.547 c 0,0.22 0.038,0.402 0.114,0.546 0.074,0.144 0.183,0.261 0.325,0.355 0.076,0.05 0.162,0.096 0.258,0.139 0.096,0.042 0.223,0.078 0.382,0.109 0.159,0.028 0.356,0.051 0.59,0.068 0.234,0.018 0.531,0.026 0.891,0.026 0.318,0 0.579,-0.005 0.784,-0.012 0.205,-0.009 0.378,-0.02 0.52,-0.033 0.142,-0.012 0.264,-0.03 0.364,-0.049 0.1,-0.023 0.197,-0.05 0.289,-0.083 C 0.101,1.213 0.264,1.069 0.314,0.875 l 0.05,0 C 0.406,0.969 0.47,1.04 0.558,1.092 0.646,1.142 0.736,1.18 0.828,1.205 0.946,1.238 1.056,1.266 1.161,1.287 1.265,1.309 1.391,1.325 1.537,1.337 1.684,1.351 1.863,1.363 2.076,1.376 2.29,1.39 2.559,1.403 2.885,1.42 3.262,1.437 3.561,1.452 3.782,1.465 4.004,1.478 4.178,1.49 4.303,1.502 4.429,1.516 4.52,1.528 4.579,1.541 l 0.176,0.044 0.05,0 0,-0.696 z"
             style="fill:#141111;fill-opacity:1;fill-rule:nonzero;stroke:none"
             id="path110"
             inkscape:connector-curvature="0" /></g><g
           id="g112"
           transform="translate(36.8291,26.5257)"><path
             d="m 0,0 -8.806,0 0,-1.04 -0.691,0 0,2.752 0.691,0 0,-1.014 L 0,0.698 0,0 Z"
             style="fill:#141111;fill-opacity:1;fill-rule:nonzero;stroke:none"
             id="path114"
             inkscape:connector-curvature="0" /></g><g
           id="g116"
           transform="translate(36.8291,30.3167)"><path
             d="m 0,0 -9.497,0 0,2.333 0.691,0 0,-1.648 3.637,0 0,1.623 0.665,0 0,-1.623 3.789,0 0,1.635 L 0,2.32 0,0 Z"
             style="fill:#141111;fill-opacity:1;fill-rule:nonzero;stroke:none"
             id="path118"
             inkscape:connector-curvature="0" /></g><g
           id="g120"
           transform="translate(36.8291,38.43)"><path
             d="m 0,0 -7.189,0 -0.595,0 c -0.18,0 -0.353,0.005 -0.521,0.014 l 0,-0.051 c 0.084,-0.009 0.186,-0.022 0.307,-0.038 0.122,-0.018 0.297,-0.04 0.527,-0.07 0.23,-0.03 0.529,-0.073 0.897,-0.127 0.368,-0.055 0.847,-0.126 1.436,-0.215 0.591,-0.088 1.303,-0.198 2.139,-0.324 C -2.162,-0.937 -1.163,-1.09 0,-1.268 L 0,-1.636 C -1.163,-1.812 -2.164,-1.968 -3.005,-2.098 -3.846,-2.229 -4.561,-2.339 -5.15,-2.428 -5.739,-2.517 -6.22,-2.589 -6.592,-2.643 -6.965,-2.697 -7.264,-2.742 -7.49,-2.775 -7.716,-2.81 -7.887,-2.836 -8.004,-2.852 -8.121,-2.868 -8.221,-2.878 -8.305,-2.878 l 0,-0.051 c 0.168,0.009 0.341,0.013 0.521,0.013 l 0.595,0 7.189,0 0,-0.62 -9.497,0 0,1.167 c 1.071,0.134 1.981,0.253 2.729,0.354 0.748,0.102 1.374,0.183 1.876,0.247 0.501,0.064 0.899,0.114 1.191,0.152 0.293,0.039 0.519,0.065 0.678,0.083 0.158,0.016 0.268,0.029 0.326,0.038 l 0.15,0.013 0,0.049 -0.15,0.013 c -0.058,0.01 -0.168,0.022 -0.326,0.038 -0.159,0.018 -0.385,0.045 -0.678,0.083 -0.292,0.038 -0.69,0.09 -1.191,0.158 -0.502,0.069 -1.128,0.153 -1.876,0.253 -0.748,0.103 -1.658,0.226 -2.729,0.368 l 0,1.155 L 0,0.635 0,0 Z"
             style="fill:#141111;fill-opacity:1;fill-rule:nonzero;stroke:none"
             id="path122"
             inkscape:connector-curvature="0" /></g><g
           id="g124"
           transform="translate(36.8291,41.3846)"><path
             d="m 0,0 -9.497,0 0,2.333 0.691,0 0,-1.648 3.637,0 0,1.623 0.665,0 0,-1.623 3.789,0 0,1.635 L 0,2.32 0,0 Z"
             style="fill:#141111;fill-opacity:1;fill-rule:nonzero;stroke:none"
             id="path126"
             inkscape:connector-curvature="0" /></g><g
           id="g128"
           transform="translate(36.8291,48.4329)"><path
             d="M 0,0 C -1.071,-0.245 -1.99,-0.459 -2.76,-0.64 -3.53,-0.822 -4.186,-0.976 -4.73,-1.103 -5.273,-1.23 -5.719,-1.333 -6.066,-1.414 -6.413,-1.494 -6.699,-1.559 -6.925,-1.61 -7.151,-1.661 -7.331,-1.701 -7.464,-1.731 -7.598,-1.76 -7.724,-1.783 -7.841,-1.8 l 0,-0.051 c 0.176,0.009 0.347,0.015 0.515,0.019 0.167,0.004 0.338,0.006 0.514,0.006 l 0.564,0 0.678,0 5.57,0 0,-0.646 -9.497,0 0,0.9 c 0.903,0.194 1.677,0.359 2.321,0.494 0.644,0.136 1.188,0.25 1.631,0.343 0.443,0.093 0.803,0.167 1.078,0.222 0.277,0.054 0.496,0.099 0.659,0.132 0.164,0.034 0.285,0.058 0.364,0.07 0.08,0.013 0.149,0.023 0.208,0.032 l 0,0.051 C -3.42,-0.236 -3.64,-0.243 -3.895,-0.247 -4.15,-0.251 -4.491,-0.253 -4.918,-0.253 l -4.579,0 0,0.646 L 0,0.393 0,0 Z"
             style="fill:#141111;fill-opacity:1;fill-rule:nonzero;stroke:none"
             id="path130"
             inkscape:connector-curvature="0" /></g><g
           id="g132"
           transform="translate(36.8291,51.9066)"><path
             d="m 0,0 -8.806,0 0,-1.04 -0.691,0 0,2.752 0.691,0 0,-1.014 L 0,0.698 0,0 Z"
             style="fill:#141111;fill-opacity:1;fill-rule:nonzero;stroke:none"
             id="path134"
             inkscape:connector-curvature="0" /></g></g></g></g></svg>