<?xml version="1.0" encoding="UTF-8" standalone="no"?>
<svg
   xmlns:dc="http://purl.org/dc/elements/1.1/"
   xmlns:cc="http://creativecommons.org/ns#"
   xmlns:rdf="http://www.w3.org/1999/02/22-rdf-syntax-ns#"
   xmlns:svg="http://www.w3.org/2000/svg"
   xmlns="http://www.w3.org/2000/svg"
   viewBox="0 0 800.00005 350.88669"
   height="350.88669"
   width="800.00006"
   xml:space="preserve"
   id="svg833"
   version="1.1"><metadata
     id="metadata839"><rdf:RDF><cc:Work
         rdf:about=""><dc:format>image/svg+xml</dc:format><dc:type
           rdf:resource="http://purl.org/dc/dcmitype/StillImage" /><dc:title></dc:title></cc:Work></rdf:RDF></metadata><defs
     id="defs837" /><g
     transform="matrix(1.3333333,0,0,-1.3333333,-649.47869,59.598536)"
     id="g841"><g
       id="g2483"><path
         d="m 829.82366,-128.18348 c -90.07584,-23.65648 -209.69765,-19.17534 -314.10329,-2.58034 v -87.70231 h 542.77933 v 77.06575 c -41.2561,17.16622 -124.11282,40.67497 -228.67604,13.2169"
         style="fill:#254aa5;fill-opacity:1;fill-rule:nonzero;stroke:none;stroke-width:9.84866"
         id="path1703" /><path
         d="m 487.10903,-116.93729 c 110.58075,-20.42612 244.28615,-28.16717 342.71365,-2.32429 151.37389,39.749193 257.28642,-27.31033 257.28642,-27.31033 V 44.698903 H 487.10903 Z"
         style="fill:#00a650;fill-opacity:1;fill-rule:nonzero;stroke:none;stroke-width:9.84866"
         id="path1705" /><g
         id="g2431"><path
           id="path1707"
           style="fill:#ffffff;fill-opacity:1;fill-rule:nonzero;stroke:none;stroke-width:9.84866"
           d="m 533.96895,-10.392527 26.69972,-81.999937 h 18.69275 l 27.2217,80.808249 v -88.667475 h 21.42083 V 17.232962 H 601.00878 L 573.33405,-65.397289 546.4866,17.232962 H 515.71939 V -100.25169 h 18.24956 z" /><path
           id="path1709"
           style="fill:#ffffff;fill-opacity:1;fill-rule:nonzero;stroke:none;stroke-width:9.84866"
           d="m 670.32857,-34.049007 c 3.38793,5.505401 8.02665,8.253177 13.91615,8.253177 5.92889,0 10.58731,-2.747776 13.9851,-8.253177 3.38794,-5.5054 5.09175,-12.990381 5.09175,-22.464791 0,-20.692033 -6.41147,-31.033125 -19.23443,-31.033125 -5.8304,0 -10.42973,2.777322 -13.79797,8.331965 -3.36824,5.554644 -5.05236,13.069171 -5.05236,22.543581 0,9.572897 1.69397,17.11697 5.09176,22.62237 m 13.38432,-68.182263 c 13.52221,0 24.12922,4.047795 31.82102,12.143393 7.6918,8.095597 11.53278,19.293523 11.53278,33.574079 0,13.975247 -3.83113,25.035292 -11.49338,33.180133 -7.67211,8.15469 -18.11169,12.222186 -31.32859,12.222186 -13.1775,0 -23.59739,-4.067496 -31.25964,-12.222186 -7.66226,-8.144841 -11.50324,-19.263978 -11.50324,-33.337712 0,-13.916155 3.81143,-24.986048 11.42445,-33.219527 7.62286,-8.223631 17.88516,-12.340366 30.8066,-12.340366" /><path
           id="path1711"
           style="fill:#ffffff;fill-opacity:1;fill-rule:nonzero;stroke:none;stroke-width:9.84866"
           d="m 793.83568,-94.573942 c 6.46072,5.111454 9.69108,11.759299 9.69108,19.963233 0,6.24405 -1.90079,11.355504 -5.69253,15.314665 -3.80158,3.978858 -10.54791,7.888776 -20.24884,11.74945 l -6.49027,2.629592 c -6.83497,2.747776 -10.25245,6.106169 -10.25245,10.075178 0,6.037229 4.62887,9.050918 13.87676,9.050918 5.87965,0 13.29569,-1.644726 22.23827,-4.924329 v 16.506352 c -9.29713,2.068219 -17.31394,3.102328 -24.05042,3.102328 -10.76459,0 -19.1261,-2.294738 -25.10424,-6.864515 -5.98798,-4.579627 -8.98197,-11.000953 -8.98197,-19.254129 0,-5.928893 1.76291,-10.892617 5.28873,-14.920719 3.50612,-4.018253 9.36607,-7.780441 17.56016,-11.266866 l 7.54407,-3.181117 c 7.53422,-3.171268 11.31611,-6.884213 11.31611,-11.109287 0,-6.569056 -4.57963,-9.84866 -13.72903,-9.84866 -7.83954,0 -17.29425,2.442468 -28.35429,7.307706 v -17.225305 c 10.15396,-3.181113 20.20945,-4.766753 30.15659,-4.766753 10.36079,0 18.77155,2.560653 25.23227,7.662258" /><path
           id="path1713"
           style="fill:#ffffff;fill-opacity:1;fill-rule:nonzero;stroke:none;stroke-width:9.84866"
           d="m 852.82816,-25.794845 c 9.10016,0 13.65024,-7.435738 13.65024,-22.307213 H 836.765 c 1.4576,14.871475 6.81527,22.307213 16.06316,22.307213 m 35.59305,-55.004762 c -9.40547,-3.653852 -17.84577,-5.475854 -25.3406,-5.475854 -15.83664,0 -24.50346,8.302419 -26.0103,24.917107 h 51.3509 c 0,17.41243 -2.78717,30.136898 -8.37136,38.183252 -5.58419,8.046355 -14.42828,12.064608 -26.54213,12.064608 -12.01537,0 -21.68675,-4.11674 -28.99446,-12.34037 -7.31755,-8.233479 -10.9714,-19.086702 -10.9714,-32.579365 0,-14.300253 3.98871,-25.567119 11.98582,-33.820296 4.79629,-4.944027 10.65625,-8.381209 17.54046,-10.360785 13.39418,3.437178 28.54141,6.372078 45.35307,8.243324 z" /><path
           id="path1715"
           style="fill:#ffffff;fill-opacity:1;fill-rule:nonzero;stroke:none;stroke-width:9.84866"
           d="M 926.86546,-89.833782 V 25.090222 H 904.54839 V -90.562583 c 7.16983,0.462887 14.61541,0.709104 22.31707,0.728801" /><path
           id="path1717"
           style="fill:#ffffff;fill-opacity:1;fill-rule:nonzero;stroke:none;stroke-width:9.84866"
           d="M 970.13751,25.086283 H 947.82045 V -90.369549 c 7.23876,-0.393946 14.6745,-0.984866 22.31706,-1.822002 z" /><path
           id="path1719"
           style="fill:#ffffff;fill-opacity:1;fill-rule:nonzero;stroke:none;stroke-width:9.84866"
           d="m 1022.9125,-25.794845 c 9.0903,0 13.6503,-7.435738 13.6503,-22.307213 h -29.7134 c 1.4576,14.871475 6.8054,22.307213 16.0631,22.307213 m 5.4266,-76.435445 c 9.4942,0 19.5595,1.63488 30.1665,4.914482 v 16.516201 c -9.4055,-3.653852 -17.8458,-5.475854 -25.3406,-5.475854 -15.8367,0 -24.5035,8.302419 -26.0103,24.917107 h 51.3509 c 0,17.41243 -2.7872,30.136898 -8.3714,38.183252 -5.5842,8.046355 -14.4283,12.064608 -26.5421,12.064608 -12.0154,0 -21.6868,-4.11674 -28.99446,-12.34037 -7.31755,-8.233479 -10.97141,-19.086702 -10.97141,-32.579365 0,-14.300253 3.99856,-25.567119 11.98582,-33.820296 3.35839,-3.466728 7.25845,-6.16526 11.65095,-8.164538 6.0175,-1.221234 12.1336,-2.590197 18.3579,-4.116737 0.9061,-0.0394 1.7925,-0.0985 2.7182,-0.0985" /></g><g
         id="g2439"><path
           id="path1721"
           style="fill:#ffffff;fill-opacity:1;fill-rule:nonzero;stroke:none;stroke-width:9.84866"
           d="m 541.54356,-157.91264 h 10.11457 v -33.26877 h 17.03818 v -6.6183 h -27.15275 z" /><path
           id="path1723"
           style="fill:#ffffff;fill-opacity:1;fill-rule:nonzero;stroke:none;stroke-width:9.84866"
           d="m 566.28831,-165.91073 v 10.6464 h 10.11458 v -9.2085 c 0,-5.19024 -4.40235,-9.43502 -10.11458,-9.43502 v 4.02811 c 1.20154,0.0492 2.09777,0.27576 2.72808,0.81743 0.63032,0.56138 0.99472,1.43791 1.04396,2.70839 v 0.44319 z" /><path
           id="path1725"
           style="fill:#ffffff;fill-opacity:1;fill-rule:nonzero;stroke:none;stroke-width:9.84866"
           d="m 582.69618,-157.91264 h 25.89213 v -6.6183 h -15.77756 v -9.71078 h 12.95099 v -5.95843 h -12.95099 v -10.98126 h 17.03818 v -6.6183 h -27.15275 z" /><path
           id="path1727"
           style="fill:#ffffff;fill-opacity:1;fill-rule:nonzero;stroke:none;stroke-width:9.84866"
           d="m 634.54051,-192.16923 h -0.63032 c -1.72351,-3.75234 -5.23948,-6.29329 -9.27743,-6.29329 -5.77132,0 -8.4403,4.08719 -8.4403,9.32668 v 21.23371 h 10.12442 v -17.92456 c 0,-1.97958 -0.10834,-4.68797 2.46216,-4.68797 2.30459,0 4.03795,2.48187 5.13115,4.35311 v 18.25942 h 10.11458 v -29.89068 h -10.11458 z" /><path
           id="path1729"
           style="fill:#ffffff;fill-opacity:1;fill-rule:nonzero;stroke:none;stroke-width:9.84866"
           d="m 662.32358,-173.52375 h 0.63031 c 1.73336,3.75234 5.23949,6.29329 9.27744,6.29329 h 1.15229 v -9.38577 c -1.20154,0.55153 -2.51141,0.77805 -3.82128,0.77805 -2.77732,0 -5.09176,-1.16215 -6.60845,-3.69325 v -18.25941 h -10.11457 v 29.89068 h 10.11457 z" /><path
           id="path1731"
           style="fill:#ffffff;fill-opacity:1;fill-rule:nonzero;stroke:none;stroke-width:9.84866"
           d="m 692.31176,-192.50113 c 4.08719,0 5.08191,6.45087 5.08191,9.65169 0,3.20081 -0.99472,9.66153 -5.08191,9.66153 -4.03795,0 -5.03267,-6.46072 -5.03267,-9.66153 0,-3.20082 0.99472,-9.65169 5.03267,-9.65169 m -15.77755,9.65169 c 0,5.466 2.30458,15.61997 15.77755,15.61997 13.46312,0 15.82679,-10.15397 15.82679,-15.61997 0,-5.45616 -2.36367,-15.61013 -15.82679,-15.61013 -13.47297,0 -15.77755,10.15397 -15.77755,15.61013" /></g><g
         id="g2452"><path
           id="path1733"
           style="fill:#ffffff;fill-opacity:1;fill-rule:nonzero;stroke:none;stroke-width:9.84866"
           d="m 732.91286,-175.50825 c -2.6099,2.42277 -5.08191,3.63415 -7.42589,3.63415 -4.82585,0 -7.23877,-3.89022 -7.23877,-11.67066 0,-6.84482 2.14701,-10.2623 6.45087,-10.2623 2.79702,0 5.53495,1.60533 8.21379,4.82584 z m 0,-22.28752 v 5.49555 c -2.04853,-4.10689 -5.141,-6.16526 -9.26759,-6.16526 -3.34855,0 -5.97814,1.28033 -7.89863,3.85083 -1.91064,2.5705 -2.87581,6.07662 -2.87581,10.52821 0,4.87509 1.08336,8.79486 3.25991,11.74946 2.17655,2.97429 5.04251,4.45159 8.58803,4.45159 3.28945,0 6.02738,-1.32957 8.19409,-3.98871 v 16.62454 h 5.06221 v -42.54621 z" /><path
           id="path1735"
           style="fill:#ffffff;fill-opacity:1;fill-rule:nonzero;stroke:none;stroke-width:9.84866"
           d="m 753.79694,-163.22402 6.17511,8.64712 h 5.8304 l -8.21378,-8.64712 z m -2.56065,-16.79196 h 12.26158 c 0,5.4463 -1.92049,8.17438 -5.78117,8.17438 -3.88037,0 -6.03722,-2.72808 -6.48041,-8.17438 m 17.2056,-16.84121 c -3.37809,-1.07351 -6.27359,-1.61518 -8.67667,-1.61518 -4.09704,0 -7.43573,1.4379 -10.02593,4.30386 -2.58035,2.86596 -3.87052,6.57891 -3.87052,11.13884 0,4.43189 1.13259,8.0759 3.40763,10.91231 2.28489,2.83641 5.20009,4.25462 8.74561,4.25462 3.35839,0 5.95844,-1.26063 7.79029,-3.77204 1.83185,-2.5114 2.75763,-6.08647 2.75763,-10.72519 l -0.0295,-1.63487 h -17.53061 c 0.7288,-6.963 3.96901,-10.42973 9.70093,-10.42973 2.09776,0 4.67811,0.59092 7.73119,1.77276 z" /><path
           id="path1737"
           style="fill:#ffffff;fill-opacity:1;fill-rule:nonzero;stroke:none;stroke-width:9.84866"
           d="m 782.31767,-190.81701 c 2.60005,-2.44247 5.07206,-3.6637 7.42589,-3.6637 4.84554,0 7.26831,3.89022 7.26831,11.66081 0,6.86452 -2.14701,10.3017 -6.45087,10.3017 -2.81672,0 -5.5645,-1.60533 -8.24333,-4.82584 z m -5.04251,-17.61925 v 39.90677 h 5.04251 v -5.5054 c 2.06822,4.09704 5.1607,6.14556 9.29713,6.14556 3.3387,0 5.96829,-1.28033 7.88878,-3.85083 1.92049,-2.5705 2.88566,-6.07662 2.88566,-10.53806 0,-4.84554 -1.0932,-8.76531 -3.26976,-11.72975 -2.1667,-2.9743 -5.03266,-4.46145 -8.58803,-4.46145 -3.28945,0 -6.02738,1.32957 -8.21378,3.98871 v -13.95555 z" /><path
           id="path1739"
           style="fill:#ffffff;fill-opacity:1;fill-rule:nonzero;stroke:none;stroke-width:9.84866"
           d="m 823.86128,-191.19224 v 7.56377 l -1.69397,0.0591 c -2.75762,0 -4.99327,-0.55153 -6.69708,-1.65458 -1.71367,-1.11289 -2.56066,-2.56065 -2.56066,-4.3531 0,-1.28033 0.4235,-2.35383 1.28033,-3.23036 0.84699,-0.88638 1.89094,-1.32957 3.12203,-1.32957 2.09776,0 4.28416,0.98486 6.54935,2.94475 m 0.73865,-2.88566 c -3.01369,-2.92505 -5.92889,-4.3925 -8.72591,-4.3925 -2.30459,0 -4.21523,0.75834 -5.73192,2.27504 -1.51669,1.51669 -2.27504,3.43718 -2.27504,5.75162 0,3.20081 1.27048,5.66297 3.82128,7.36679 2.5508,1.72352 6.2145,2.58035 10.97141,2.58035 h 1.20153 v 3.52582 c 0,3.39779 -1.65457,5.09176 -4.96372,5.09176 -2.65914,0 -5.53495,-0.85684 -8.62743,-2.58035 v 4.3925 c 3.39779,1.44775 6.57891,2.1864 9.5532,2.1864 3.10233,0 5.38722,-0.73865 6.86452,-2.21594 1.4773,-1.4773 2.21595,-3.76219 2.21595,-6.87437 v -13.25629 c 0,-3.03339 0.88638,-4.55008 2.65914,-4.55008 0.22651,0 0.55152,0.0394 0.97501,0.10833 l 0.3644,-2.9349 c -1.15229,-0.57122 -2.41292,-0.86668 -3.79173,-0.86668 -2.35383,0 -3.86068,1.46745 -4.51069,4.3925" /><path
           id="path1741"
           style="fill:#ffffff;fill-opacity:1;fill-rule:nonzero;stroke:none;stroke-width:9.84866"
           d="m 839.2183,-197.79577 v 29.26037 h 5.04251 v -5.49555 c 1.98943,4.09704 4.89479,6.14556 8.70622,6.14556 0.51213,0 1.04395,-0.0492 1.60533,-0.13788 v -4.96373 c -0.86668,0.31516 -1.63488,0.46289 -2.30459,0.46289 -3.19096,0 -5.85995,-1.98943 -8.00696,-5.97814 v -19.29352 z" /><path
           id="path1743"
           style="fill:#ffffff;fill-opacity:1;fill-rule:nonzero;stroke:none;stroke-width:9.84866"
           d="m 869.01345,-198.46942 c -2.56065,0 -4.55993,0.77805 -5.98799,2.31444 -1.4379,1.54624 -2.14701,3.69324 -2.14701,6.44102 v 17.19576 h -3.48642 v 3.98871 h 3.48642 v 5.30842 l 5.03267,0.51213 v -5.82055 h 7.27816 v -3.98871 h -7.27816 v -16.22074 c 0,-3.83113 1.57578,-5.74177 4.71751,-5.74177 0.65986,0 1.4773,0.11818 2.42277,0.3447 v -3.6637 c -1.54624,-0.44319 -2.89551,-0.66971 -4.03795,-0.66971" /><path
           id="path1745"
           style="fill:#ffffff;fill-opacity:1;fill-rule:nonzero;stroke:none;stroke-width:9.84866"
           d="m 883.44961,-180.01205 h 12.26158 c 0,5.43646 -1.93034,8.16454 -5.78116,8.16454 -3.88037,0 -6.03723,-2.72808 -6.48042,-8.16454 m 17.20561,-16.8412 c -3.38794,-1.08335 -6.2736,-1.61518 -8.68652,-1.61518 -4.08719,0 -7.43574,1.42805 -10.01608,4.29401 -2.5902,2.86596 -3.88038,6.57891 -3.88038,11.13884 0,4.44174 1.14245,8.0759 3.41749,10.92216 2.27504,2.83641 5.19024,4.25462 8.74561,4.25462 3.35839,0 5.95844,-1.26063 7.79029,-3.77204 1.83185,-2.52125 2.74777,-6.08647 2.74777,-10.72519 l -0.0197,-1.64472 h -17.53062 c 0.7288,-6.95316 3.95916,-10.41988 9.70093,-10.41988 2.09777,0 4.66827,0.59092 7.7312,1.77276 z" /><path
           id="path1747"
           style="fill:#ffffff;fill-opacity:1;fill-rule:nonzero;stroke:none;stroke-width:9.84866"
           d="m 909.48257,-197.79577 v 29.26037 h 5.04252 v -5.49555 c 2.45231,4.09704 5.61373,6.14556 9.46456,6.14556 3.72279,0 6.2539,-2.04852 7.60316,-6.14556 2.39323,4.10689 5.5054,6.1751 9.31683,6.1751 2.46217,0 4.36296,-0.76819 5.71223,-2.28488 1.34926,-1.5167 2.01897,-3.64401 2.01897,-6.37209 v -21.28295 h -5.06221 v 20.45567 c 0,3.33869 -1.26063,5.00312 -3.76219,5.00312 -2.60989,0 -5.34782,-1.95004 -8.22363,-5.84026 v -19.61853 h -5.06221 v 20.45567 c 0,3.34854 -1.28032,5.03266 -3.84098,5.03266 -2.54095,0 -5.26903,-1.95988 -8.16453,-5.8698 v -19.61853 z" /><path
           id="path1749"
           style="fill:#ffffff;fill-opacity:1;fill-rule:nonzero;stroke:none;stroke-width:9.84866"
           d="m 961.59774,-180.01205 h 12.26158 c 0,5.43646 -1.93034,8.16454 -5.78117,8.16454 -3.88037,0 -6.03722,-2.72808 -6.48041,-8.16454 m 17.2056,-16.8412 c -3.38793,-1.08335 -6.27359,-1.61518 -8.68651,-1.61518 -4.0872,0 -7.43574,1.42805 -10.01609,4.29401 -2.58035,2.86596 -3.87052,6.57891 -3.87052,11.13884 0,4.44174 1.13259,8.0759 3.40763,10.92216 2.27504,2.83641 5.19025,4.25462 8.74561,4.25462 3.3584,0 5.95844,-1.26063 7.79029,-3.77204 1.83185,-2.52125 2.74778,-6.08647 2.74778,-10.72519 l -0.0197,-1.64472 h -17.53061 c 0.7288,-6.95316 3.95916,-10.41988 9.70093,-10.41988 2.09776,0 4.66826,0.59092 7.73119,1.77276 z" /><path
           id="path1751"
           style="fill:#ffffff;fill-opacity:1;fill-rule:nonzero;stroke:none;stroke-width:9.84866"
           d="m 987.6307,-197.79577 v 29.26037 h 5.04251 v -5.49555 c 2.65914,4.09704 5.91905,6.14556 9.77969,6.14556 2.4031,0 4.3236,-0.80759 5.7615,-2.41292 1.4281,-1.60533 2.147,-3.77204 2.147,-6.48042 v -21.01704 h -5.0425 v 19.29352 c 0,2.16671 -0.3053,3.7228 -0.9061,4.63872 -0.6106,0.93563 -1.6152,1.39851 -3.0137,1.39851 -3.08261,0 -5.99781,-2.13716 -8.72589,-6.39178 v -18.93897 z" /><path
           id="path1753"
           style="fill:#ffffff;fill-opacity:1;fill-rule:nonzero;stroke:none;stroke-width:9.84866"
           d="m 1028.5076,-198.46942 c -2.5607,0 -4.56,0.77805 -5.988,2.31444 -1.4379,1.54624 -2.147,3.69324 -2.147,6.44102 v 17.19576 h -3.4865 v 3.98871 h 3.4865 v 5.30842 l 5.0425,0.51213 v -5.82055 h 7.2584 v -3.98871 h -7.2584 v -16.22074 c 0,-3.83113 1.5659,-5.74177 4.7076,-5.74177 0.6599,0 1.4675,0.11818 2.4228,0.3447 v -3.6637 c -1.5462,-0.44319 -2.8955,-0.66971 -4.0379,-0.66971" /></g></g></g></svg>
