<?xml version="1.0" encoding="UTF-8" standalone="no"?>
<svg
   xmlns:dc="http://purl.org/dc/elements/1.1/"
   xmlns:cc="http://creativecommons.org/ns#"
   xmlns:rdf="http://www.w3.org/1999/02/22-rdf-syntax-ns#"
   xmlns:svg="http://www.w3.org/2000/svg"
   xmlns="http://www.w3.org/2000/svg"
   viewBox="0 0 455 599.99997"
   height="600"
   width="455"
   xml:space="preserve"
   version="1.1"
   id="svg2"><metadata
     id="metadata8"><rdf:RDF><cc:Work
         rdf:about=""><dc:format>image/svg+xml</dc:format><dc:type
           rdf:resource="http://purl.org/dc/dcmitype/StillImage" /><dc:title></dc:title></cc:Work></rdf:RDF></metadata><defs
     id="defs6" /><g
     transform="matrix(1.25,0,0,-1.25,0,599.99995)"
     id="g10"><g
       transform="matrix(4.7989442,0,0,4.7989442,-2366.817,-163.23853)"
       id="g7253"><g
         id="g7246"><path
           id="path292"
           style="fill:#475c6f;fill-opacity:1;fill-rule:nonzero;stroke:none"
           d="m 534.6223,58.3777 c 0,-0.003 10e-4,-0.007 10e-4,-0.011 2.557,0.237 5.047,0.725 7.433,1.446 l -0.173,0.072 c -1.205,0.487 -2.947,0.87 -3.647,0.87 -1.744,0 -3.614,-0.621 -3.614,-2.377" /><path
           id="path294"
           style="fill:#475c6f;fill-opacity:1;fill-rule:nonzero;stroke:none"
           d="m 520.4307,59.7555 0,2.561 c -14.333,4.554 -24.748,17.989 -24.748,33.809 0,19.553 15.908,35.46 35.457,35.46 19.554,0 35.467,-15.907 35.467,-35.46 0,-15.239 -9.665,-28.267 -23.186,-33.271 l -0.271,-2.687 c 15.038,5.031 25.908,19.244 25.908,35.958 0,20.905 -17.009,37.912 -37.918,37.912 -20.903,0 -37.911,-17.007 -37.911,-37.912 0,-17.19 11.497,-31.739 27.202,-36.37" /><path
           id="path296"
           style="fill:#475c6f;fill-opacity:1;fill-rule:nonzero;stroke:none"
           d="m 525.8892,61.047 0,-2.472 c 1.11,-0.156 2.232,-0.268 3.37,-0.323 0.068,0.888 0.264,1.708 0.581,2.441 -1.337,0.049 -2.655,0.166 -3.951,0.354" /><path
           id="path298"
           style="fill:#475c6f;fill-opacity:1;fill-rule:nonzero;stroke:none"
           d="m 510.4216,81.9922 c 0,0.697 0.053,1.393 0.153,2.085 3.623,-6.161 9.927,-10.564 17.297,-11.581 0.017,-0.002 0.035,-0.005 0.053,-0.007 0.493,-0.068 0.99,-0.119 1.492,-0.155 0.032,-0.003 0.064,-0.006 0.097,-0.008 0.264,-0.018 0.529,-0.032 0.796,-0.041 0.005,0 0.009,0 0.014,0 0.271,-0.009 0.544,-0.015 0.818,-0.015 1.99,0 3.917,0.25 5.765,0.71 -2.772,-3.58 -7.09,-5.77 -11.698,-5.77 -8.153,0 -14.787,6.634 -14.787,14.782 m 20.72,35.523 c 11.797,0 21.387,-9.596 21.387,-21.389 0,-11.796 -9.59,-21.402 -21.387,-21.402 -11.793,0 -21.388,9.606 -21.388,21.402 0,11.793 9.595,21.389 21.388,21.389 m -23.846,-21.389 c 0,-1.986 0.248,-3.916 0.709,-5.762 -3.581,2.768 -5.775,7.087 -5.775,11.697 0,8.154 6.634,14.788 14.79,14.788 0.693,0 1.39,-0.053 2.081,-0.156 l 0,0 c -7.054,-4.143 -11.805,-11.81 -11.805,-20.567 m 29.777,28.911 c 8.159,0 14.791,-6.631 14.791,-14.783 0,-0.699 -0.052,-1.395 -0.151,-2.087 -4.147,7.054 -11.808,11.803 -20.571,11.803 -1.985,0 -3.916,-0.247 -5.762,-0.707 2.764,3.582 7.085,5.774 11.693,5.774 m 17.205,-23.146 c 3.582,-2.768 5.778,-7.088 5.778,-11.7 0,-8.16 -6.631,-14.795 -14.788,-14.795 -0.696,0 -1.388,0.053 -2.075,0.154 -0.006,-0.003 -0.013,-0.008 -0.02,-0.01 7.063,4.147 11.815,11.818 11.815,20.586 0,1.987 -0.249,3.917 -0.71,5.765 m -14.009,-28.172 c 1.64,-0.505 3.316,-0.777 4.999,-0.777 9.508,0 17.24,7.738 17.24,17.249 0,6.269 -3.499,12.043 -8.956,15.055 0.505,1.638 0.77,3.316 0.77,5.008 0,9.506 -7.736,17.239 -17.249,17.239 -6.265,0 -12.038,-3.5 -15.049,-8.963 -1.642,0.505 -3.319,0.775 -5.004,0.775 -9.51,0 -17.243,-7.737 -17.243,-17.244 0,-6.268 3.499,-12.041 8.962,-15.057 -0.502,-1.644 -0.771,-3.317 -0.771,-5.012 0,-9.505 7.732,-17.24 17.241,-17.24 6.269,0 12.042,3.497 15.06,8.967" /><path
           id="path300"
           style="fill:#475c6f;fill-opacity:1;fill-rule:nonzero;stroke:none"
           d="m 513.1582,93.7972 0,0.008 c -0.574,4.63 2.717,8.859 7.356,9.46 0.006,0 1.41,0.063 1.41,0.063 l -0.021,0.093 -0.282,1.253 c -0.272,2.211 0.363,4.443 1.763,6.223 1.384,1.794 3.397,2.931 5.67,3.203 4.644,0.571 8.892,-2.766 9.471,-7.425 l 0,-0.004 c 0,-0.014 -0.002,-0.029 0,-0.041 0,-0.01 0.157,-1.15 0.157,-1.15 l 1.129,0.111 c 4.592,0.498 8.773,-2.816 9.346,-7.404 l 0,-0.016 c 0.554,-4.58 -2.731,-8.806 -7.313,-9.43 l -1.132,-0.141 0.121,-1.131 c 0.474,-4.57 -2.85,-8.744 -7.401,-9.298 -4.556,-0.556 -8.812,2.683 -9.443,7.229 l -0.153,1.114 -1.12,-0.111 c -0.008,0 -0.117,-0.025 -0.117,-0.025 -4.637,-0.539 -8.886,2.783 -9.441,7.419 m 8.735,-9.785 c 1.292,-5.22 6.377,-8.834 11.814,-8.165 l 0.009,0 c 5.451,0.673 9.508,5.378 9.502,10.771 5.284,1.263 8.896,6.358 8.221,11.842 l 0,0.005 c -0.005,0 -0.005,0.007 -0.005,0.01 -0.665,5.475 -5.391,9.525 -10.805,9.496 -0.518,2.47 -1.865,4.635 -3.883,6.209 -2.278,1.798 -5.121,2.577 -7.974,2.216 -2.89,-0.335 -5.433,-1.777 -7.231,-4.066 -1.571,-1.985 -2.375,-4.427 -2.306,-6.922 -5.373,-1.206 -9.072,-6.318 -8.388,-11.881 l 0,-0.007 c 0.686,-5.58 5.525,-9.644 11.046,-9.508" /></g><g
         id="g7223"><path
           id="path302"
           style="fill:#475c6f;fill-opacity:1;fill-rule:nonzero;stroke:none"
           d="m 496.6882,38.7508 -0.949,0 0,-4.735 2.785,0 0,0.747 -1.836,0 0,3.988 z" /><path
           id="path304"
           style="fill:#475c6f;fill-opacity:1;fill-rule:nonzero;stroke:none"
           d="m 501.245,36.0924 1.687,0 0,0.746 -1.687,0 0,1.164 1.843,0 0,0.748 -2.795,0 0,-4.734 2.807,0 0,0.746 -1.855,0 0,1.33 z" /><path
           id="path306"
           style="fill:#475c6f;fill-opacity:1;fill-rule:nonzero;stroke:none"
           d="m 509.7598,34.7626 -0.531,0 0,3.24 0.531,0 c 0.791,0 1.558,-0.593 1.558,-1.621 0,-1.028 -0.767,-1.619 -1.558,-1.619 m -0.184,3.988 -1.295,0 0,-4.735 1.295,0 c 1.448,0 2.73,0.491 2.73,2.366 0,1.878 -1.282,2.369 -2.73,2.369" /><path
           id="path308"
           style="fill:#475c6f;fill-opacity:1;fill-rule:nonzero;stroke:none"
           d="m 515.2899,36.0924 1.69,0 0,0.746 -1.69,0 0,1.164 1.846,0 0,0.748 -2.795,0 0,-4.734 2.804,0 0,0.746 -1.855,0 0,1.33 z" /><path
           id="path310"
           style="fill:#475c6f;fill-opacity:1;fill-rule:nonzero;stroke:none"
           d="m 515.6819,40.044 -0.562,-0.986 0.562,0 0.93,0.986 -0.93,0 z" /><path
           id="path312"
           style="fill:#475c6f;fill-opacity:1;fill-rule:nonzero;stroke:none"
           d="m 520.4779,36.5585 -0.332,0 0,1.444 0.332,0 c 0.484,0 0.902,-0.19 0.902,-0.741 0,-0.546 -0.431,-0.703 -0.902,-0.703 m -0.083,2.192 -1.202,0 0,-4.735 0.953,0 0,1.799 0.399,0 c 1.017,0 1.82,0.399 1.82,1.504 0,1.13 -0.941,1.432 -1.97,1.432" /><path
           id="path314"
           style="fill:#475c6f;fill-opacity:1;fill-rule:nonzero;stroke:none"
           d="m 524.8895,35.8505 0.685,1.948 0.011,0 0.687,-1.948 -1.383,0 z m 0.174,2.9 -1.84,-4.735 0.982,0 0.411,1.086 1.918,0 0.41,-1.086 1.049,0 -1.861,4.735 -1.069,0 z" /><path
           id="path316"
           style="fill:#475c6f;fill-opacity:1;fill-rule:nonzero;stroke:none"
           d="m 530.9471,36.731 -0.309,0 0,1.272 0.309,0 c 0.475,0 1.004,-0.047 1.004,-0.621 0,-0.587 -0.535,-0.651 -1.004,-0.651 m 1.019,-0.377 0,0.015 c 0.604,0.082 0.973,0.546 0.973,1.098 0,1.316 -1.214,1.284 -2.228,1.284 l -1.023,0 0,-4.735 0.95,0 0,1.967 0.303,0 c 0.401,0 0.522,-0.132 0.657,-0.489 l 0.57,-1.478 1.061,0 -0.761,1.853 c -0.096,0.213 -0.245,0.465 -0.502,0.485" /><path
           id="path318"
           style="fill:#475c6f;fill-opacity:1;fill-rule:nonzero;stroke:none"
           d="m 534.4609,38.0027 1.359,0 0,-3.987 0.946,0 0,3.987 1.351,0 0,0.748 -3.656,0 0,-0.748 z" /><path
           id="path320"
           style="fill:#475c6f;fill-opacity:1;fill-rule:nonzero;stroke:none"
           d="m 540.8335,36.0924 1.694,0 0,0.746 -1.694,0 0,1.164 1.85,0 0,0.748 -2.788,0 0,-4.734 2.801,0 0,0.746 -1.863,0 0,1.33 z" /><path
           id="path322"
           style="fill:#475c6f;fill-opacity:1;fill-rule:nonzero;stroke:none"
           d="m 547.481,35.1639 -0.015,0 -1.122,3.587 -1.519,0 0,-4.735 0.91,0 0,3.892 0.015,0.014 1.273,-3.906 0.903,0 1.278,3.906 0.012,0 0,-3.906 0.911,0 0,4.735 -1.519,0 -1.127,-3.587 z" /><path
           id="path324"
           style="fill:#475c6f;fill-opacity:1;fill-rule:nonzero;stroke:none"
           d="m 553.3447,36.0924 1.684,0 0,0.746 -1.684,0 0,1.164 1.837,0 0,0.748 -2.791,0 0,-4.734 2.802,0 0,0.746 -1.848,0 0,1.33 z" /><path
           id="path326"
           style="fill:#475c6f;fill-opacity:1;fill-rule:nonzero;stroke:none"
           d="m 560.2638,35.2131 -0.015,0 -1.804,3.538 -1.166,0 0,-4.735 0.91,0 0,3.535 0.011,0 1.811,-3.535 1.153,0 0,4.735 -0.9,0 0,-3.538 z" /><path
           id="path328"
           style="fill:#475c6f;fill-opacity:1;fill-rule:nonzero;stroke:none"
           d="m 562.8909,38.0027 1.358,0 0,-3.987 0.944,0 0,3.987 1.362,0 0,0.748 -3.664,0 0,-0.748 z" /></g><g
         id="g7239"><path
           id="path330"
           style="fill:#475c6f;fill-opacity:1;fill-rule:nonzero;stroke:none"
           d="m 506.6462,43.4198 c -5.31,0 -7.746,4.739 -7.746,9.133 0,4.453 2.727,9.158 7.746,9.158 5.005,0 7.682,-4.705 7.682,-9.158 0,-4.394 -2.39,-9.133 -7.682,-9.133 m 0,20.658 c -6.597,0 -11.201,-4.736 -11.201,-11.525 0,-6.55 4.818,-11.489 11.201,-11.489 6.366,0 11.16,4.939 11.16,11.489 0,6.789 -4.584,11.525 -11.16,11.525" /><path
           id="path332"
           style="fill:#475c6f;fill-opacity:1;fill-rule:nonzero;stroke:none"
           d="m 538.1135,53.939 c -2.188,0.992 -4.456,2.029 -4.456,4.439 0,2.009 1.785,3.333 4.579,3.333 0.887,0 2.76,-0.433 4.008,-0.936 0.052,0.472 0.226,2.207 0.258,2.54 -1.326,0.378 -2.841,0.763 -4.722,0.763 -4.74,0 -7.596,-2.444 -7.596,-6.555 0,-3.248 2.804,-4.604 5.489,-5.892 2.314,-1.127 4.49,-2.176 4.49,-4.399 0,-2.798 -2.625,-3.812 -4.869,-3.812 -1.134,0 -3.143,0.482 -4.789,1.336 -0.034,-0.549 -0.154,-2.616 -0.154,-2.635 1.948,-0.923 4.106,-1.057 5.768,-1.057 3.464,0 7.505,1.719 7.505,6.623 0,3.766 -2.819,5.013 -5.511,6.252" /><path
           id="path334"
           style="fill:#475c6f;fill-opacity:1;fill-rule:nonzero;stroke:none"
           d="m 563.4025,54.236 -12.985,0 0.06,0.593 c 0.343,3.323 2.273,6.882 6.671,6.882 3.699,0 6.254,-2.855 6.254,-6.941 l 0,-0.534 z m -6.165,9.842 c -6.135,0 -10.233,-4.473 -10.233,-11.117 0,-7.669 4.025,-11.897 11.365,-11.897 3.226,0 5.007,0.655 6.468,1.211 0,0 0.146,0.051 0.276,0.092 l 0,2.96 c -1.423,-0.842 -4.05,-1.907 -6.555,-1.907 -4.545,0 -8.083,3.597 -8.083,8.211 l 0,0.534 16.37,0 c -0.135,7.883 -3.373,11.913 -9.608,11.913" /><path
           id="path336"
           style="fill:#475c6f;fill-opacity:1;fill-rule:nonzero;stroke:none"
           d="m 521.389,60.106 3.54,0 0,3.608 -3.54,0 0,-3.608 z" /><path
           id="path338"
           style="fill:#475c6f;fill-opacity:1;fill-rule:nonzero;stroke:none"
           d="m 521.565,41.588 3.193,0 0,16.643 -3.193,0 0,-16.643 z" /></g></g></g></svg>