<?xml version="1.0" encoding="UTF-8" standalone="no"?>
<svg xmlns:dc="http://purl.org/dc/elements/1.1/" xmlns:cc="http://creativecommons.org/ns#" xmlns:rdf="http://www.w3.org/1999/02/22-rdf-syntax-ns#" xmlns:svg="http://www.w3.org/2000/svg" xmlns="http://www.w3.org/2000/svg" xmlns:sodipodi="http://sodipodi.sourceforge.net/DTD/sodipodi-0.dtd" xmlns:inkscape="http://www.inkscape.org/namespaces/inkscape" width="118.03461mm" height="158.75mm" viewBox="0 0 118.03461 158.75" version="1.1" id="svg8" inkscape:version="1.0beta1 (76ce730, 2019-10-19)" sodipodi:docname="Logo Romainville.svg">
  <defs id="defs2">
    <rect id="rect36" height="138.33929" width="263.07143" y="133.40334" x="-198.02885"/>
  </defs>
  <sodipodi:namedview id="base" pagecolor="#ffffff" bordercolor="#666666" borderopacity="1.0" inkscape:pageopacity="0.0" inkscape:pageshadow="2" inkscape:zoom="0.7" inkscape:cx="200" inkscape:cy="272.85714" inkscape:document-units="mm" inkscape:current-layer="layer1" inkscape:document-rotation="0" showgrid="false" inkscape:window-width="1440" inkscape:window-height="788" inkscape:window-x="0" inkscape:window-y="23" inkscape:window-maximized="0"/>
  <metadata id="metadata5">
    <rdf:RDF>
      <cc:Work rdf:about="">
        <dc:format>image/svg+xml</dc:format>
        <dc:type rdf:resource="http://purl.org/dc/dcmitype/StillImage"/>
        <dc:title/>
      </cc:Work>
    </rdf:RDF>
  </metadata>
  <g inkscape:label="Calque 1" inkscape:groupmode="layer" id="layer1" transform="translate(70.272896,-16.986675)">
    <rect style="fill:#c3bdb1;fill-opacity:1;stroke:none;stroke-width:0.288347;stroke-linecap:round;stroke-linejoin:round;stroke-miterlimit:4;stroke-dasharray:none" id="rect1058" width="118.03461" height="158.75" x="-70.272896" y="16.986675"/>
    <g transform="translate(-4.8461914e-6,0.56482086)" id="g166">
      <g id="g132" transform="translate(2.624798,3.7041668)">
        <path d="m -51.131843,146.58045 q 0.860933,-2.10266 1.672196,-4.22188 0.811264,-2.13578 1.456964,-4.08943 0.41391,0.0828 0.728481,0.0828 0.314572,0 0.728482,-0.0828 -0.41391,0.97682 -0.993384,2.351 -0.579474,1.37419 -1.208617,2.91393 -0.629144,1.53975 -1.24173,3.12916 -0.612587,1.58942 -1.092723,2.98015 -0.331128,-0.0331 -0.728482,-0.0331 -0.397353,0 -0.728481,0.0331 -0.248346,-0.66225 -0.612587,-1.60597 -0.347684,-0.94371 -0.761594,-2.00332 -0.397354,-1.05961 -0.844377,-2.16889 -0.447023,-1.10928 -0.860933,-2.13578 -0.41391,-1.04305 -0.77815,-1.9371 -0.364241,-0.89404 -0.629144,-1.52318 0.380798,0.0331 0.745038,0.0662 0.380798,0.0166 0.745038,0.0166 0.364241,0 0.728482,-0.0166 0.364241,-0.0331 0.728482,-0.0662 0.281459,0.92715 0.629143,1.95365 0.364241,1.0265 0.745038,2.10266 0.380797,1.05961 0.778151,2.13578 0.41391,1.07617 0.794707,2.11922 z" style="font-style:normal;font-variant:normal;font-weight:bold;font-stretch:normal;font-size:16.5564px;line-height:1;font-family:Optima;-inkscape-font-specification:'Optima Bold';shape-inside:url(#rect12);opacity:1;fill:#ffffff;fill-opacity:1;stroke:none;stroke-width:1.56439;stop-opacity:1" id="path54" inkscape:connector-curvature="0"/>
        <path d="m -45.918378,138.5506 q 0,-0.54637 0.380798,-0.92716 0.380797,-0.3808 0.927158,-0.3808 0.546361,0 0.927159,0.3808 0.380797,0.38079 0.380797,0.92716 0,0.54636 -0.380797,0.92715 -0.380798,0.3808 -0.927159,0.3808 -0.546361,0 -0.927158,-0.3808 -0.380798,-0.38079 -0.380798,-0.92715 z m 0.198677,6.80468 q 0,-1.00995 -0.03311,-1.88743 -0.01656,-0.89405 -0.09934,-1.7881 0.23179,0.0331 0.546361,0.0662 0.314572,0.0166 0.695369,0.0166 0.778151,0 1.24173,-0.0828 -0.08278,0.89405 -0.115895,1.7881 -0.01656,0.87748 -0.01656,1.88743 v 0.66225 q 0,1.00994 0.01656,1.90399 0.03311,0.89404 0.115895,1.72186 -0.215234,-0.0331 -0.546362,-0.0331 -0.314572,0 -0.695369,0 -0.380797,0 -0.695369,0 -0.314571,0 -0.546361,0.0331 0.08278,-0.82782 0.09934,-1.72186 0.03311,-0.89405 0.03311,-1.90399 z" style="font-style:normal;font-variant:normal;font-weight:bold;font-stretch:normal;font-size:16.5564px;line-height:1;font-family:Optima;-inkscape-font-specification:'Optima Bold';shape-inside:url(#rect12);opacity:1;fill:#ffffff;fill-opacity:1;stroke:none;stroke-width:1.56439;stop-opacity:1" id="path56" inkscape:connector-curvature="0"/>
        <path d="m -41.112635,142.88837 q 0,-1.62253 -0.03311,-2.98015 -0.03311,-1.35762 -0.09934,-2.74836 0.215233,0.0331 0.546361,0.0662 0.331128,0.0166 0.695369,0.0166 0.364241,0 0.695369,-0.0166 0.331128,-0.0331 0.546361,-0.0662 -0.06622,1.39074 -0.09934,2.74836 -0.03311,1.35762 -0.03311,2.98015 v 1.07617 q 0,1.62252 0.03311,2.98015 0.03311,1.35762 0.09934,2.69869 -0.215234,-0.0331 -0.546362,-0.0331 -0.331128,0 -0.695369,0 -0.364241,0 -0.695369,0 -0.331128,0 -0.546361,0.0331 0.06623,-1.34107 0.09934,-2.69869 0.03311,-1.35763 0.03311,-2.98015 z" style="font-style:normal;font-variant:normal;font-weight:bold;font-stretch:normal;font-size:16.5564px;line-height:1;font-family:Optima;-inkscape-font-specification:'Optima Bold';shape-inside:url(#rect12);opacity:1;fill:#ffffff;fill-opacity:1;stroke:none;stroke-width:1.56439;stop-opacity:1" id="path58" inkscape:connector-curvature="0"/>
        <path d="m -36.520821,142.88837 q 0,-1.62253 -0.03311,-2.98015 -0.03311,-1.35762 -0.09934,-2.74836 0.215233,0.0331 0.546361,0.0662 0.331128,0.0166 0.695369,0.0166 0.364241,0 0.695369,-0.0166 0.331128,-0.0331 0.546361,-0.0662 -0.06622,1.39074 -0.09934,2.74836 -0.03311,1.35762 -0.03311,2.98015 v 1.07617 q 0,1.62252 0.03311,2.98015 0.03311,1.35762 0.09934,2.69869 -0.215234,-0.0331 -0.546362,-0.0331 -0.331128,0 -0.695369,0 -0.364241,0 -0.695369,0 -0.331128,0 -0.546361,0.0331 0.06623,-1.34107 0.09934,-2.69869 0.03311,-1.35763 0.03311,-2.98015 z" style="font-style:normal;font-variant:normal;font-weight:bold;font-stretch:normal;font-size:16.5564px;line-height:1;font-family:Optima;-inkscape-font-specification:'Optima Bold';shape-inside:url(#rect12);opacity:1;fill:#ffffff;fill-opacity:1;stroke:none;stroke-width:1.56439;stop-opacity:1" id="path60" inkscape:connector-curvature="0"/>
        <path d="m -30.124359,145.6864 q 0,0.66226 0.132451,1.24173 0.132452,0.57948 0.397354,1.00994 0.281459,0.41391 0.695369,0.66226 0.430466,0.23179 0.993384,0.23179 1.142391,0 2.036437,-0.74504 l 0.198677,0.14901 -0.364241,0.92716 q -0.41391,0.31457 -0.993384,0.49669 -0.579474,0.19868 -1.523189,0.19868 -0.811263,0 -1.539745,-0.23179 -0.728482,-0.21524 -1.291399,-0.72849 -0.546361,-0.51324 -0.87749,-1.29139 -0.314571,-0.79471 -0.314571,-1.88743 0,-1.07617 0.281459,-1.87088 0.298015,-0.7947 0.811263,-1.32451 0.513249,-0.5298 1.208618,-0.79471 0.711925,-0.2649 1.539745,-0.2649 1.639083,0 2.500016,0.96027 0.877489,0.96027 0.877489,2.71525 v 0.34769 q 0,0.149 -0.01656,0.19867 z m 2.549686,-0.74503 q -0.03311,-1.24173 -0.314572,-1.98677 -0.264902,-0.74504 -0.910602,-0.74504 -0.364241,0 -0.612587,0.24835 -0.248346,0.24834 -0.397353,0.64569 -0.149008,0.3808 -0.23179,0.87749 -0.06622,0.48014 -0.08278,0.96028 z" style="font-style:normal;font-variant:normal;font-weight:bold;font-stretch:normal;font-size:16.5564px;line-height:1;font-family:Optima;-inkscape-font-specification:'Optima Bold';shape-inside:url(#rect12);opacity:1;fill:#ffffff;fill-opacity:1;stroke:none;stroke-width:1.56439;stop-opacity:1" id="path62" inkscape:connector-curvature="0"/>
        <path d="m -17.254343,145.85197 q 0,0.84437 0.115895,1.42385 0.115895,0.57947 0.314572,0.94371 0.198676,0.34769 0.447022,0.51325 0.264903,0.14901 0.546362,0.14901 0.678812,0 1.109278,-0.7616 0.447023,-0.77815 0.447023,-2.56624 0,-1.53974 -0.41391,-2.23511 -0.41391,-0.71193 -1.059609,-0.71193 -0.264903,0 -0.529805,0.14901 -0.264903,0.14901 -0.480136,0.52981 -0.215233,0.36424 -0.364241,0.99338 -0.132451,0.62914 -0.132451,1.57286 z m 5.19871,-1.88743 q 0,1.62252 0.03311,2.98015 0.03311,1.35762 0.09934,2.69869 -0.215232,-0.0331 -0.54636,-0.0331 -0.331128,0 -0.695369,0 -0.331128,0 -0.6457,0 -0.298015,0 -0.463579,0.0331 0.01656,-0.0331 0.03311,-0.21523 0.01656,-0.18212 0.03311,-0.41391 0.03311,-0.23179 0.04967,-0.43047 0.01656,-0.19867 0.01656,-0.24834 l -0.03311,-0.0331 q -0.314572,0.74504 -0.860933,1.15895 -0.546361,0.39736 -1.506633,0.39736 -0.844376,0 -1.440406,-0.31458 -0.596031,-0.33112 -0.976828,-0.9106 -0.380797,-0.57947 -0.562918,-1.35762 -0.18212,-0.77815 -0.18212,-1.6722 0,-0.89404 0.248346,-1.63908 0.248346,-0.7616 0.678812,-1.30796 0.430467,-0.56292 1.009941,-0.87749 0.59603,-0.31457 1.258286,-0.31457 0.745038,0 1.324512,0.34769 0.596031,0.34768 0.877489,0.87748 h 0.03311 q 0,-1.49007 -0.03311,-2.79803 -0.03311,-1.32451 -0.09934,-2.7318 0.215233,0.0331 0.546361,0.0662 0.331128,0.0166 0.695369,0.0166 0.364241,0 0.695369,-0.0166 0.331128,-0.0331 0.546361,-0.0662 -0.06622,1.39074 -0.09934,2.74836 -0.03311,1.35762 -0.03311,2.98015 z" style="font-style:normal;font-variant:normal;font-weight:bold;font-stretch:normal;font-size:16.5564px;line-height:1;font-family:Optima;-inkscape-font-specification:'Optima Bold';shape-inside:url(#rect12);opacity:1;fill:#ffffff;fill-opacity:1;stroke:none;stroke-width:1.56439;stop-opacity:1" id="path64" inkscape:connector-curvature="0"/>
        <path d="m -8.038377,145.6864 q 0,0.66226 0.132451,1.24173 0.132451,0.57948 0.397353,1.00994 0.281459,0.41391 0.695369,0.66226 0.430467,0.23179 0.993384,0.23179 1.142392,0 2.036437,-0.74504 l 0.198677,0.14901 -0.364241,0.92716 q -0.41391,0.31457 -0.993384,0.49669 -0.579474,0.19868 -1.523188,0.19868 -0.811264,0 -1.539746,-0.23179 -0.728481,-0.21524 -1.291399,-0.72849 -0.546361,-0.51324 -0.877489,-1.29139 -0.314572,-0.79471 -0.314572,-1.88743 0,-1.07617 0.281459,-1.87088 0.298015,-0.7947 0.811264,-1.32451 0.513248,-0.5298 1.208617,-0.79471 0.711925,-0.2649 1.539745,-0.2649 1.639084,0 2.500017,0.96027 0.877489,0.96027 0.877489,2.71525 v 0.34769 q 0,0.149 -0.01656,0.19867 z m 2.549685,-0.74503 q -0.03311,-1.24173 -0.314571,-1.98677 -0.264903,-0.74504 -0.910602,-0.74504 -0.364241,0 -0.612587,0.24835 -0.248346,0.24834 -0.397354,0.64569 -0.149007,0.3808 -0.231789,0.87749 -0.06623,0.48014 -0.08278,0.96028 z" style="font-style:normal;font-variant:normal;font-weight:bold;font-stretch:normal;font-size:16.5564px;line-height:1;font-family:Optima;-inkscape-font-specification:'Optima Bold';shape-inside:url(#rect12);opacity:1;fill:#ffffff;fill-opacity:1;stroke:none;stroke-width:1.56439;stop-opacity:1" id="path66" inkscape:connector-curvature="0"/>
        <path d="m -50.833828,158.18118 q 0,-0.72849 -0.149007,-1.15895 -0.149008,-0.43047 -0.46358,-0.6457 -0.298015,-0.23179 -0.794707,-0.29802 -0.480135,-0.0662 -1.158948,-0.0662 -0.04967,2.25167 -0.04967,4.50334 0.09934,0.0166 0.18212,0.0331 0.09934,0 0.182121,0 1.092722,0 1.672196,-0.57948 0.579474,-0.59603 0.579474,-1.78809 z m -2.615911,3.04637 v 0.67882 q 0,1.37418 0.03311,2.45034 0.03311,1.05961 0.09934,2.08611 -0.281459,-0.0331 -0.612587,-0.0331 -0.331128,0 -0.745038,0 -0.41391,0 -0.745038,0 -0.331128,0 -0.612587,0.0331 0.06623,-1.0265 0.09934,-2.08611 0.03311,-1.07616 0.03311,-2.45034 v -2.25167 q 0,-1.37419 -0.03311,-2.4338 -0.03311,-1.07616 -0.09934,-2.15233 0.281459,0.0331 0.612587,0.0662 0.331128,0.0165 0.745038,0.0165 0.447023,0 1.00994,-0.0331 0.579475,-0.0497 1.423851,-0.0497 0.629143,0 1.076166,0.0331 0.447023,0.0331 0.761594,0.0993 0.331128,0.0662 0.562918,0.18212 0.248346,0.0993 0.463579,0.24835 0.496692,0.36424 0.778151,0.9106 0.298015,0.52981 0.298015,1.27484 0,1.20862 -0.662256,1.97022 -0.662256,0.76159 -1.903986,1.07616 0.794707,1.4073 1.705309,2.81459 0.910602,1.39074 1.821205,2.76492 -0.380798,-0.0331 -0.745039,-0.0331 -0.36424,0 -0.745038,0 -0.380797,0 -0.761594,0 -0.364241,0 -0.745038,0.0331 l -2.963596,-5.21527 z" style="font-style:normal;font-variant:normal;font-weight:bold;font-stretch:normal;font-size:16.5564px;line-height:1;font-family:Optima;-inkscape-font-specification:'Optima Bold';shape-inside:url(#rect12);opacity:1;fill:#ffffff;fill-opacity:1;stroke:none;stroke-width:1.56439;stop-opacity:1" id="path68" inkscape:connector-curvature="0"/>
        <path d="m -41.043563,162.07193 q 0,-1.45696 -0.36424,-2.25167 -0.364241,-0.81126 -1.208618,-0.81126 -0.761594,0 -1.208617,0.89404 -0.430466,0.89405 -0.430466,2.79803 0,0.69537 0.08278,1.2914 0.08278,0.59603 0.264902,1.04306 0.198677,0.43046 0.496692,0.67881 0.314572,0.24834 0.778151,0.24834 1.589414,0 1.589414,-3.89075 z m -5.662289,0.61259 q 0,-1.10928 0.331128,-1.9371 0.347685,-0.82782 0.910602,-1.37418 0.562918,-0.56292 1.2914,-0.82782 0.745038,-0.28146 1.523188,-0.28146 1.937099,0 2.996709,1.09272 1.05961,1.09272 1.05961,2.9636 0,1.00994 -0.298016,1.8212 -0.298015,0.81126 -0.844376,1.39074 -0.529805,0.56292 -1.274843,0.84437 -0.745038,0.28146 -1.639084,0.28146 -0.745038,0 -1.473519,-0.19867 -0.711925,-0.19868 -1.291399,-0.66226 -0.579474,-0.48014 -0.943715,-1.24173 -0.347685,-0.76159 -0.347685,-1.87087 z" style="font-style:normal;font-variant:normal;font-weight:bold;font-stretch:normal;font-size:16.5564px;line-height:1;font-family:Optima;-inkscape-font-specification:'Optima Bold';shape-inside:url(#rect12);opacity:1;fill:#ffffff;fill-opacity:1;stroke:none;stroke-width:1.56439;stop-opacity:1" id="path70" inkscape:connector-curvature="0"/>
        <path d="m -34.857419,159.72092 q 0.46358,-0.69537 1.076166,-1.07616 0.629144,-0.3808 1.423851,-0.3808 0.745038,0 1.274843,0.41391 0.546361,0.39735 0.844376,1.15895 0.496692,-0.7616 1.158948,-1.15895 0.662256,-0.41391 1.407294,-0.41391 1.24173,0 1.903986,0.72848 0.678813,0.71193 0.678813,2.3179 0,0.84437 -0.03311,1.49007 -0.03311,0.6457 -0.03311,1.2914 0,0.52981 0.01656,1.15895 0.03311,0.61259 0.06623,1.19206 -0.215233,-0.0331 -0.546361,-0.0331 -0.331128,0 -0.695369,0 -0.364241,0 -0.695369,0 -0.331128,0 -0.546361,0.0331 0.115895,-0.86093 0.149007,-2.01988 0.03311,-1.17551 0.03311,-2.68214 0,-1.04305 -0.347684,-1.52319 -0.347685,-0.49669 -0.976828,-0.49669 -0.397353,0 -0.662256,0.18212 -0.248346,0.18212 -0.397353,0.48014 -0.149008,0.28146 -0.198677,0.61258 -0.04967,0.33113 -0.04967,0.62915 v 1.19206 q 0,1.00994 0.01656,1.90398 0.03311,0.89405 0.115895,1.72187 -0.215233,-0.0331 -0.546361,-0.0331 -0.314572,0 -0.695369,0 -0.380797,0 -0.695369,0 -0.314572,0 -0.546361,0.0331 0.08278,-0.82782 0.09934,-1.72187 0.03311,-0.89404 0.03311,-1.90398 v -1.00994 q 0,-0.99339 -0.248346,-1.53975 -0.248346,-0.54636 -0.943715,-0.54636 -0.745038,0 -1.092722,0.6457 -0.347685,0.6457 -0.347685,1.78809 v 0.66226 q 0,1.00994 0.01656,1.90398 0.03311,0.89405 0.115895,1.72187 -0.215234,-0.0331 -0.546362,-0.0331 -0.314571,0 -0.695368,0 -0.380798,0 -0.695369,0 -0.314572,0 -0.546362,0.0331 0.08278,-0.82782 0.09934,-1.72187 0.03311,-0.89404 0.03311,-1.90398 v -0.66226 q 0,-1.00994 -0.03311,-1.88743 -0.01656,-0.89404 -0.09934,-1.78809 0.298016,0.0331 0.579475,0.0662 0.298015,0.0165 0.59603,0.0165 0.298015,0 0.579474,-0.0165 0.298015,-0.0331 0.629143,-0.0662 l -0.06622,1.24173 z" style="font-style:normal;font-variant:normal;font-weight:bold;font-stretch:normal;font-size:16.5564px;line-height:1;font-family:Optima;-inkscape-font-specification:'Optima Bold';shape-inside:url(#rect12);opacity:1;fill:#ffffff;fill-opacity:1;stroke:none;stroke-width:1.56439;stop-opacity:1" id="path72" inkscape:connector-curvature="0"/>
        <path d="m -19.34433,163.92625 q 0,-0.71193 0,-1.07617 0.01656,-0.3808 0.01656,-0.66226 -0.347684,0.19868 -0.745038,0.33113 -0.380797,0.1159 -0.711925,0.31457 -0.314572,0.18212 -0.529805,0.51325 -0.198677,0.33113 -0.198677,0.96027 0,0.61259 0.248346,0.94372 0.264903,0.31457 0.695369,0.31457 0.546361,0 0.877489,-0.41391 0.347685,-0.41391 0.347685,-1.22517 z m -3.923867,-4.50334 q 0.695369,-0.56292 1.490076,-0.86094 0.811264,-0.29801 1.605971,-0.29801 0.662256,0 1.208617,0.14901 0.562918,0.149 0.960271,0.48013 0.41391,0.31457 0.629144,0.82782 0.231789,0.51325 0.231789,1.24173 0,1.05961 -0.03311,1.97021 -0.01656,0.89405 -0.01656,1.78809 0,0.39736 0.04967,0.62915 0.06623,0.21523 0.182121,0.33112 0.115894,0.1159 0.298015,0.14901 0.198677,0.0331 0.447023,0.0331 v 0.39736 q -0.480136,0.19867 -0.811264,0.29801 -0.331128,0.0993 -0.711925,0.0993 -0.612587,0 -0.993384,-0.29801 -0.380798,-0.29802 -0.579474,-0.86094 -0.380798,0.52981 -0.894046,0.84438 -0.496692,0.31457 -1.258286,0.31457 -0.629144,0 -1.076166,-0.16556 -0.447023,-0.16557 -0.745038,-0.46358 -0.281459,-0.31457 -0.41391,-0.69537 -0.132452,-0.39735 -0.132452,-0.79471 0,-0.54636 0.165564,-0.94371 0.182121,-0.39736 0.496692,-0.67882 0.331128,-0.28145 0.778151,-0.46357 0.447023,-0.19868 1.009941,-0.33113 0.695368,-0.16557 1.092722,-0.28146 0.41391,-0.13245 0.612587,-0.24835 0.198677,-0.13245 0.248346,-0.28146 0.06622,-0.149 0.06622,-0.36424 0,-0.59603 -0.430466,-1.00994 -0.41391,-0.43046 -1.158948,-0.43046 -0.281459,0 -0.579474,0.0828 -0.298015,0.0662 -0.579474,0.19867 -0.264902,0.13246 -0.496692,0.29802 -0.215233,0.14901 -0.331128,0.33113 h -0.115895 z" style="font-style:normal;font-variant:normal;font-weight:bold;font-stretch:normal;font-size:16.5564px;line-height:1;font-family:Optima;-inkscape-font-specification:'Optima Bold';shape-inside:url(#rect12);opacity:1;fill:#ffffff;fill-opacity:1;stroke:none;stroke-width:1.56439;stop-opacity:1" id="path74" inkscape:connector-curvature="0"/>
        <path d="m -14.956882,155.35003 q 0,-0.54636 0.380797,-0.92716 0.380797,-0.38079 0.927158,-0.38079 0.546362,0 0.927159,0.38079 0.380797,0.3808 0.380797,0.92716 0,0.54636 -0.380797,0.92716 -0.380797,0.3808 -0.927159,0.3808 -0.546361,0 -0.927158,-0.3808 -0.380797,-0.3808 -0.380797,-0.92716 z m 0.198677,6.80468 q 0,-1.00994 -0.03311,-1.88743 -0.01656,-0.89404 -0.09934,-1.78809 0.23179,0.0331 0.546362,0.0662 0.314571,0.0165 0.695368,0.0165 0.778151,0 1.241731,-0.0828 -0.08278,0.89405 -0.115895,1.78809 -0.01656,0.87749 -0.01656,1.88743 v 0.66226 q 0,1.00994 0.01656,1.90398 0.03311,0.89405 0.115895,1.72187 -0.215234,-0.0331 -0.546362,-0.0331 -0.314571,0 -0.695369,0 -0.380797,0 -0.695368,0 -0.314572,0 -0.546362,0.0331 0.08278,-0.82782 0.09934,-1.72187 0.03311,-0.89404 0.03311,-1.90398 z" style="font-style:normal;font-variant:normal;font-weight:bold;font-stretch:normal;font-size:16.5564px;line-height:1;font-family:Optima;-inkscape-font-specification:'Optima Bold';shape-inside:url(#rect12);opacity:1;fill:#ffffff;fill-opacity:1;stroke:none;stroke-width:1.56439;stop-opacity:1" id="path76" inkscape:connector-curvature="0"/>
        <path d="m -8.129956,159.72092 q 0.463579,-0.69537 1.076166,-1.07616 0.629143,-0.3808 1.42385,-0.3808 1.241731,0 1.903987,0.72848 0.678812,0.71193 0.678812,2.3179 0,0.84437 -0.03311,1.49007 -0.03311,0.6457 -0.03311,1.2914 0,0.52981 0.01656,1.15895 0.03311,0.61259 0.06623,1.19206 -0.215233,-0.0331 -0.546361,-0.0331 -0.331128,0 -0.695369,0 -0.364241,0 -0.695369,0 -0.331128,0 -0.546361,0.0331 0.115895,-0.86093 0.149008,-2.01988 0.03311,-1.17551 0.03311,-2.68214 0,-1.04305 -0.364241,-1.52319 -0.347685,-0.49669 -0.993384,-0.49669 -0.745038,0 -1.092723,0.6457 -0.347684,0.6457 -0.347684,1.78809 v 0.66226 q 0,1.00994 0.01656,1.90398 0.03311,0.89405 0.115895,1.72187 -0.215233,-0.0331 -0.546361,-0.0331 -0.314572,0 -0.695369,0 -0.380797,0 -0.695369,0 -0.314571,0 -0.546361,0.0331 0.08278,-0.82782 0.09934,-1.72187 0.03311,-0.89404 0.03311,-1.90398 v -0.66226 q 0,-1.00994 -0.03311,-1.88743 -0.01656,-0.89404 -0.09934,-1.78809 0.298015,0.0331 0.579474,0.0662 0.298015,0.0165 0.596031,0.0165 0.298015,0 0.579474,-0.0165 0.298015,-0.0331 0.629143,-0.0662 l -0.06623,1.24173 z" style="font-style:normal;font-variant:normal;font-weight:bold;font-stretch:normal;font-size:16.5564px;line-height:1;font-family:Optima;-inkscape-font-specification:'Optima Bold';shape-inside:url(#rect12);opacity:1;fill:#ffffff;fill-opacity:1;stroke:none;stroke-width:1.56439;stop-opacity:1" id="path78" inkscape:connector-curvature="0"/>
        <path d="m 2.330089,164.27393 q 0.529805,-1.45696 1.00994,-2.89737 0.496692,-1.44041 0.976828,-2.89737 0.18212,0.0331 0.347684,0.0662 0.165564,0.0165 0.331128,0.0165 0.165564,0 0.331128,-0.0165 0.165564,-0.0331 0.364241,-0.0662 -0.264902,0.6457 -0.645699,1.50663 -0.380798,0.84438 -0.811264,1.87088 -0.41391,1.00994 -0.860933,2.18544 -0.430466,1.15895 -0.811263,2.40068 -0.23179,-0.0331 -0.447023,-0.0331 -0.215233,0 -0.447023,0 -0.23179,0 -0.447023,0 -0.215233,0 -0.447023,0.0331 -0.331128,-0.94371 -0.745038,-2.08611 -0.397353,-1.14239 -0.794707,-2.23511 -0.397354,-1.10928 -0.745038,-2.06955 -0.347684,-0.96027 -0.579474,-1.57286 0.347684,0.0331 0.662256,0.0662 0.331128,0.0165 0.6457,0.0165 0.314571,0 0.612586,-0.0165 0.314572,-0.0331 0.629144,-0.0662 0.447022,1.45696 0.894045,2.89737 0.46358,1.44041 0.943715,2.89737 h 0.03311 z" style="font-style:normal;font-variant:normal;font-weight:bold;font-stretch:normal;font-size:16.5564px;line-height:1;font-family:Optima;-inkscape-font-specification:'Optima Bold';shape-inside:url(#rect12);opacity:1;fill:#ffffff;fill-opacity:1;stroke:none;stroke-width:1.56439;stop-opacity:1" id="path80" inkscape:connector-curvature="0"/>
        <path d="m 6.935074,155.35003 q 0,-0.54636 0.380797,-0.92716 0.380798,-0.38079 0.927159,-0.38079 0.546361,0 0.927158,0.38079 0.380797,0.3808 0.380797,0.92716 0,0.54636 -0.380797,0.92716 -0.380797,0.3808 -0.927158,0.3808 -0.546361,0 -0.927159,-0.3808 -0.380797,-0.3808 -0.380797,-0.92716 z m 0.198677,6.80468 q 0,-1.00994 -0.03311,-1.88743 -0.01656,-0.89404 -0.09934,-1.78809 0.231789,0.0331 0.546361,0.0662 0.314572,0.0165 0.695369,0.0165 0.778151,0 1.24173,-0.0828 -0.08278,0.89405 -0.115895,1.78809 -0.01656,0.87749 -0.01656,1.88743 v 0.66226 q 0,1.00994 0.01656,1.90398 0.03311,0.89405 0.115895,1.72187 -0.215233,-0.0331 -0.546361,-0.0331 -0.314572,0 -0.695369,0 -0.380797,0 -0.695369,0 -0.314572,0 -0.546361,0.0331 0.08278,-0.82782 0.09934,-1.72187 0.03311,-0.89404 0.03311,-1.90398 z" style="font-style:normal;font-variant:normal;font-weight:bold;font-stretch:normal;font-size:16.5564px;line-height:1;font-family:Optima;-inkscape-font-specification:'Optima Bold';shape-inside:url(#rect12);opacity:1;fill:#ffffff;fill-opacity:1;stroke:none;stroke-width:1.56439;stop-opacity:1" id="path82" inkscape:connector-curvature="0"/>
        <path d="m 11.725567,159.68781 q 0,-1.62253 -0.03311,-2.98015 -0.03311,-1.35763 -0.09934,-2.74837 0.215233,0.0331 0.546361,0.0662 0.331128,0.0166 0.695369,0.0166 0.364241,0 0.695369,-0.0166 0.331128,-0.0331 0.546361,-0.0662 -0.06623,1.39074 -0.09934,2.74837 -0.03311,1.35762 -0.03311,2.98015 v 1.07616 q 0,1.62253 0.03311,2.98016 0.03311,1.35762 0.09934,2.69869 -0.215233,-0.0331 -0.546361,-0.0331 -0.331128,0 -0.695369,0 -0.364241,0 -0.695369,0 -0.331128,0 -0.546361,0.0331 0.06622,-1.34107 0.09934,-2.69869 0.03311,-1.35763 0.03311,-2.98016 z" style="font-style:normal;font-variant:normal;font-weight:bold;font-stretch:normal;font-size:16.5564px;line-height:1;font-family:Optima;-inkscape-font-specification:'Optima Bold';shape-inside:url(#rect12);opacity:1;fill:#ffffff;fill-opacity:1;stroke:none;stroke-width:1.56439;stop-opacity:1" id="path84" inkscape:connector-curvature="0"/>
        <path d="m 16.317379,159.68781 q 0,-1.62253 -0.03311,-2.98015 -0.03311,-1.35763 -0.09934,-2.74837 0.215233,0.0331 0.546361,0.0662 0.331128,0.0166 0.695369,0.0166 0.364241,0 0.695369,-0.0166 0.331128,-0.0331 0.546361,-0.0662 -0.06623,1.39074 -0.09934,2.74837 -0.03311,1.35762 -0.03311,2.98015 v 1.07616 q 0,1.62253 0.03311,2.98016 0.03311,1.35762 0.09934,2.69869 -0.215233,-0.0331 -0.546361,-0.0331 -0.331128,0 -0.695369,0 -0.364241,0 -0.695369,0 -0.331128,0 -0.546361,0.0331 0.06623,-1.34107 0.09934,-2.69869 0.03311,-1.35763 0.03311,-2.98016 z" style="font-style:normal;font-variant:normal;font-weight:bold;font-stretch:normal;font-size:16.5564px;line-height:1;font-family:Optima;-inkscape-font-specification:'Optima Bold';shape-inside:url(#rect12);opacity:1;fill:#ffffff;fill-opacity:1;stroke:none;stroke-width:1.56439;stop-opacity:1" id="path86" inkscape:connector-curvature="0"/>
        <path d="m 22.713839,162.48584 q 0,0.66226 0.132451,1.24173 0.132451,0.57947 0.397354,1.00994 0.281458,0.41391 0.695368,0.66226 0.430467,0.23179 0.993384,0.23179 1.142392,0 2.036438,-0.74504 l 0.198677,0.14901 -0.364241,0.92715 q -0.41391,0.31458 -0.993384,0.4967 -0.579474,0.19867 -1.523189,0.19867 -0.811264,0 -1.539745,-0.23179 -0.728482,-0.21523 -1.2914,-0.72848 -0.546361,-0.51325 -0.877489,-1.2914 -0.314571,-0.7947 -0.314571,-1.88743 0,-1.07616 0.281458,-1.87087 0.298016,-0.79471 0.811264,-1.32451 0.513248,-0.52981 1.208617,-0.79471 0.711925,-0.2649 1.539745,-0.2649 1.639084,0 2.500017,0.96027 0.877489,0.96027 0.877489,2.71525 v 0.34768 q 0,0.14901 -0.01656,0.19868 z m 2.549685,-0.74504 q -0.03311,-1.24173 -0.314571,-1.98677 -0.264903,-0.74503 -0.910602,-0.74503 -0.364241,0 -0.612587,0.24834 -0.248346,0.24835 -0.397354,0.6457 -0.149007,0.3808 -0.231789,0.87749 -0.06623,0.48014 -0.08278,0.96027 z" style="font-style:normal;font-variant:normal;font-weight:bold;font-stretch:normal;font-size:16.5564px;line-height:1;font-family:Optima;-inkscape-font-specification:'Optima Bold';shape-inside:url(#rect12);opacity:1;fill:#ffffff;fill-opacity:1;stroke:none;stroke-width:1.56439;stop-opacity:1" id="path88" inkscape:connector-curvature="0"/>
      </g>
      <g id="g139">
        <rect style="opacity:1;fill:#017acd;fill-opacity:1;stroke:none;stroke-width:0.359033;stroke-linecap:round;stroke-linejoin:round;stroke-miterlimit:4;stroke-dasharray:none;stop-opacity:1" id="rect1049" width="66.650017" height="57.153412" x="-54.401127" y="39.686359"/>
        <path style="opacity:1;fill:#ffffff;fill-opacity:1;stroke:none;stroke-width:0.354761;stroke-linecap:butt;stroke-linejoin:miter;stroke-miterlimit:4;stroke-dasharray:none;stroke-opacity:1;stop-opacity:1" d="m -54.401124,135.62329 h 7.855404 c -1.965426,-24.1531 -0.308363,-48.722839 9.744345,-69.779158 -14.566457,11.530266 -17.390363,39.032258 -17.599749,69.779158 z" id="path202" inkscape:connector-curvature="0" sodipodi:nodetypes="cccc"/>
        <path sodipodi:nodetypes="cccc" inkscape:connector-curvature="0" id="path1045" d="m 42.985536,125.45347 v -9.61999 C 14.486433,110.20063 -5.7949277,90.549584 -20.938272,67.058301 c 3.646301,28.363395 38.731523,52.272809 63.923808,58.395169 z" style="opacity:1;fill:#ffffff;fill-opacity:1;stroke:none;stroke-width:0.354761;stroke-linecap:butt;stroke-linejoin:miter;stroke-miterlimit:4;stroke-dasharray:none;stroke-opacity:1;stop-opacity:1"/>
        <path sodipodi:nodetypes="cccsc" inkscape:connector-curvature="0" id="path1047" d="m -65.496711,52.872381 v 9.274447 C -31.841107,43.45699 -7.3980678,45.468811 -7.2472651,62.743426 0.11994469,54.838885 -8.0962655,44.031714 -27.053274,44.456836 c -10.884098,0.244084 -27.482368,5.197713 -38.443437,8.415545 z" style="opacity:1;fill:#ffffff;fill-opacity:1;stroke:none;stroke-width:0.354761;stroke-linecap:butt;stroke-linejoin:miter;stroke-miterlimit:4;stroke-dasharray:none;stroke-opacity:1;stop-opacity:1"/>
        <path id="rect1051" style="opacity:1;fill:#f29905;fill-opacity:1;stroke:none;stroke-width:0.427142;stroke-linecap:round;stroke-linejoin:round;stroke-miterlimit:4;stroke-dasharray:none;stop-opacity:1" d="m -41.5001,21.231492 v 4.257124 h 67.051074 v 71.351157 h 4.257123 V 21.231492 Z" inkscape:connector-curvature="0"/>
      </g>
    </g>
  </g>
</svg>