<?xml version="1.0" encoding="UTF-8" standalone="no"?>
<!-- Created with Inkscape (http://www.inkscape.org/) -->

<svg
   xmlns:dc="http://purl.org/dc/elements/1.1/"
   xmlns:cc="http://creativecommons.org/ns#"
   xmlns:rdf="http://www.w3.org/1999/02/22-rdf-syntax-ns#"
   xmlns:svg="http://www.w3.org/2000/svg"
   xmlns="http://www.w3.org/2000/svg"
   xmlns:sodipodi="http://sodipodi.sourceforge.net/DTD/sodipodi-0.dtd"
   xmlns:inkscape="http://www.inkscape.org/namespaces/inkscape"
   id="svg2"
   version="1.1"
   inkscape:version="0.91 r13725"
   xml:space="preserve"
   width="600"
   height="480"
   viewBox="0 0 600 480"
   sodipodi:docname="Logo Pôle Emploi 2008.svg"><metadata
     id="metadata8"><rdf:RDF><cc:Work
         rdf:about=""><dc:format>image/svg+xml</dc:format><dc:type
           rdf:resource="http://purl.org/dc/dcmitype/StillImage" /><dc:title></dc:title></cc:Work></rdf:RDF></metadata><defs
     id="defs6"><clipPath
       clipPathUnits="userSpaceOnUse"
       id="clipPath104"><path
         d="m 226.504,73.185 c -1.596,-0.624 -2.925,-1.514 -4.007,-2.674 l 0,0 c -1.084,-1.163 -1.912,-2.557 -2.48,-4.195 l 0,0 c -0.571,-1.64 -0.858,-3.422 -0.858,-5.354 l 0,0 c 0.003,-4.111 1.159,-7.303 3.454,-9.663 l 0,0 c 2.293,-2.352 5.494,-3.541 9.705,-3.544 l 0,0 c 1.795,-0.001 3.377,0.231 4.746,0.682 l 0,0 c 2.504,0.882 5.322,3.379 5.802,5.734 l 0,0 c 0.313,1.54 -0.63,1.874 -1.139,1.944 l 0,0 c -0.098,0.01 -0.198,0.017 -0.304,0.017 l 0,0 c -0.58,0 -1.04,-0.187 -1.333,-0.454 l 0,0 c -0.352,-0.323 -1.376,-1.284 -1.903,-1.745 l 0,0 c -0.536,-0.468 -1.12,-0.906 -1.753,-1.315 l 0,0 c -0.648,-0.418 -1.323,-0.728 -2.02,-0.926 l 0,0 c -0.699,-0.199 -1.464,-0.295 -2.291,-0.295 l 0,0 c -1.251,-10e-4 -2.414,0.312 -3.457,0.934 l 0,0 c -1.053,0.624 -1.895,1.558 -2.514,2.768 l 0,0 c -0.578,1.12 -0.888,2.398 -0.947,3.813 l 0,0 c -0.016,0.473 0.344,0.755 0.762,0.755 l 0,0 12.648,0 c 1.706,-0.001 2.999,0.248 3.875,0.701 l 0,0 c 0.779,0.403 1.222,1.295 1.229,2.914 l 0,0 c 0,1.74 -0.444,3.446 -1.345,5.139 l 0,0 c -0.894,1.675 -2.231,3.039 -4.041,4.107 l 0,0 c -1.795,1.058 -3.953,1.593 -6.503,1.594 l 0,0 c -1.96,0 -3.732,-0.315 -5.326,-0.937 m 9.599,-4.743 c 1.104,-1.174 1.725,-2.884 1.921,-5.08 l 0,0 c 0.027,-0.367 -0.36,-0.688 -0.755,-0.688 l 0,0 -11.279,0 c -0.41,0.003 -0.819,0.333 -0.755,0.737 l 0,0 c 0.26,2.145 0.911,3.83 2.001,5.004 l 0,0 c 1.133,1.226 2.626,1.85 4.375,1.846 l 0,0 c 1.822,0.004 3.355,-0.606 4.492,-1.819"
         id="path106"
         inkscape:connector-curvature="0" /></clipPath><clipPath
       clipPathUnits="userSpaceOnUse"
       id="clipPath114"><path
         d="m 219.15859,74.122154 24.56033,0 0,-26.368158 -24.56033,0 0,26.368158 z"
         id="path116"
         inkscape:connector-curvature="0" /></clipPath><radialGradient
       fx="0"
       fy="0"
       cx="0"
       cy="0"
       r="1"
       gradientUnits="userSpaceOnUse"
       gradientTransform="matrix(46.681732,0,0,-46.681732,227.06946,73.261688)"
       spreadMethod="pad"
       id="radialGradient118"><stop
         style="stop-opacity:1;stop-color:#e65d1b"
         offset="0"
         id="stop120" /><stop
         style="stop-opacity:1;stop-color:#e65d1b"
         offset="0.04722741"
         id="stop122" /><stop
         style="stop-opacity:1;stop-color:#ed1c24"
         offset="0.350006"
         id="stop124" /><stop
         style="stop-opacity:1;stop-color:#a61217"
         offset="1"
         id="stop126" /></radialGradient><clipPath
       clipPathUnits="userSpaceOnUse"
       id="clipPath134"><path
         d="m 201.468,60.936 c 0,-11.015 8.927,-19.942 19.942,-19.942 l 0,0 c 11.014,0 19.942,8.927 19.942,19.942 l 0,0 c 0,11.015 -8.928,19.943 -19.942,19.943 l 0,0 c -11.015,0 -19.942,-8.928 -19.942,-19.943"
         id="path136"
         inkscape:connector-curvature="0" /></clipPath><clipPath
       clipPathUnits="userSpaceOnUse"
       id="clipPath144"><path
         d="m 241.3524,80.878036 0,-39.883987 -39.88518,0 0,39.883987 39.88518,0 z"
         id="path146"
         inkscape:connector-curvature="0" /></clipPath><linearGradient
       x1="0"
       y1="0"
       x2="1"
       y2="0"
       gradientUnits="userSpaceOnUse"
       gradientTransform="matrix(0,-39.883987,-39.883987,0,221.40981,80.878036)"
       spreadMethod="pad"
       id="linearGradient148"><stop
         style="stop-opacity:1;stop-color:#65cdeb"
         offset="0"
         id="stop150" /><stop
         style="stop-opacity:1;stop-color:#65cdeb"
         offset="0.05486192"
         id="stop152" /><stop
         style="stop-opacity:1;stop-color:#164789"
         offset="0.406586"
         id="stop154" /><stop
         style="stop-opacity:1;stop-color:#06172f"
         offset="1"
         id="stop156" /></linearGradient><clipPath
       clipPathUnits="userSpaceOnUse"
       id="clipPath164"><path
         d="m 202.952,62.812 c -0.295,-2.906 0.1,-5.727 1.053,-8.297 l 0,0 c 3.53,8.194 12.409,8.387 19.208,5.992 l 0,0 c 8.173,-1.684 17.505,-1.299 16.173,4.792 l 0,0 c -1.525,7.044 -7.783,13.25 -16.101,14.095 l 0,0 c -0.635,0.065 -1.265,0.097 -1.89,0.097 l 0,0 c -9.394,0 -17.474,-7.136 -18.443,-16.679"
         id="path166"
         inkscape:connector-curvature="0" /></clipPath><clipPath
       clipPathUnits="userSpaceOnUse"
       id="clipPath174"><path
         d="m 243.22925,79.235449 -2.90107,-28.548636 -40.18403,4.083441 2.90107,28.548636 40.18403,-4.083441 z"
         id="path176"
         inkscape:connector-curvature="0" /></clipPath><linearGradient
       x1="0"
       y1="0"
       x2="1"
       y2="0"
       gradientUnits="userSpaceOnUse"
       gradientTransform="matrix(-2.6994476,-26.564529,-26.564529,2.6994476,222.86266,79.437622)"
       spreadMethod="pad"
       id="linearGradient178"><stop
         style="stop-opacity:1;stop-color:#99def9"
         offset="0"
         id="stop180" /><stop
         style="stop-opacity:1;stop-color:#103568"
         offset="1"
         id="stop182" /></linearGradient><clipPath
       clipPathUnits="userSpaceOnUse"
       id="clipPath190"><path
         d="m 226.504,73.185 c -1.596,-0.624 -2.925,-1.514 -4.007,-2.674 l 0,0 c -1.084,-1.163 -1.912,-2.557 -2.48,-4.195 l 0,0 c -0.571,-1.64 -0.858,-3.422 -0.858,-5.354 l 0,0 c 0.003,-4.111 1.159,-7.303 3.454,-9.663 l 0,0 c 2.293,-2.352 5.494,-3.541 9.705,-3.544 l 0,0 c 1.731,-0.001 3.259,0.216 4.593,0.635 l 0,0 c 1.789,2.208 3.116,4.805 3.834,7.644 l 0,0 c -0.266,-0.08 -0.488,-0.204 -0.655,-0.356 l 0,0 c -0.352,-0.323 -1.376,-1.284 -1.903,-1.745 l 0,0 c -0.536,-0.468 -1.12,-0.906 -1.753,-1.315 l 0,0 c -0.648,-0.418 -1.323,-0.728 -2.02,-0.926 l 0,0 c -0.699,-0.199 -1.464,-0.295 -2.291,-0.295 l 0,0 c -1.251,-10e-4 -2.414,0.312 -3.457,0.934 l 0,0 c -1.053,0.624 -1.895,1.558 -2.514,2.768 l 0,0 c -0.578,1.12 -0.888,2.398 -0.947,3.813 l 0,0 c -0.016,0.473 0.344,0.755 0.762,0.755 l 0,0 12.648,0 c 1.066,-0.001 1.97,0.097 2.713,0.279 l 0,0 c 0.016,0.329 0.024,0.658 0.024,0.99 l 0,0 c 0,4.579 -1.543,8.795 -4.137,12.161 l 0,0 c -1.555,0.68 -3.344,1.024 -5.385,1.025 l 0,0 c -1.96,0 -3.732,-0.315 -5.326,-0.937 m 9.599,-4.743 c 1.104,-1.174 1.725,-2.884 1.921,-5.08 l 0,0 c 0.027,-0.367 -0.36,-0.688 -0.755,-0.688 l 0,0 -11.279,0 c -0.41,0.003 -0.819,0.333 -0.755,0.737 l 0,0 c 0.26,2.145 0.911,3.83 2.001,5.004 l 0,0 c 1.133,1.226 2.626,1.85 4.375,1.846 l 0,0 c 1.822,0.004 3.355,-0.606 4.492,-1.819"
         id="path192"
         inkscape:connector-curvature="0" /></clipPath><clipPath
       clipPathUnits="userSpaceOnUse"
       id="clipPath200"><path
         d="m 219.15882,74.122116 22.19337,0 0,-26.367685 -22.19337,0 0,26.367685 z"
         id="path202"
         inkscape:connector-curvature="0" /></clipPath><radialGradient
       fx="0"
       fy="0"
       cx="0"
       cy="0"
       r="1"
       gradientUnits="userSpaceOnUse"
       gradientTransform="matrix(26.770447,0,0,-26.770447,227.81255,71.235352)"
       spreadMethod="pad"
       id="radialGradient204"><stop
         style="stop-opacity:1;stop-color:#ffffff"
         offset="0"
         id="stop206" /><stop
         style="stop-opacity:1;stop-color:#ffffff"
         offset="0.252747"
         id="stop208" /><stop
         style="stop-opacity:1;stop-color:#ffffff"
         offset="0.45717098"
         id="stop210" /><stop
         style="stop-opacity:1;stop-color:#cedde3"
         offset="1"
         id="stop212" /></radialGradient><clipPath
       clipPathUnits="userSpaceOnUse"
       id="clipPath220"><path
         d="m 183.236,19.828 76.348,0 0,61.051 -76.348,0 0,-61.051 z"
         id="path222"
         inkscape:connector-curvature="0" /></clipPath></defs><sodipodi:namedview
     pagecolor="#ffffff"
     bordercolor="#666666"
     borderopacity="1"
     objecttolerance="10"
     gridtolerance="10"
     guidetolerance="10"
     inkscape:pageopacity="0"
     inkscape:pageshadow="2"
     inkscape:window-width="1440"
     inkscape:window-height="788"
     id="namedview4"
     showgrid="false"
     inkscape:zoom="0.75202514"
     inkscape:cx="294.11444"
     inkscape:cy="116.55283"
     inkscape:window-x="0"
     inkscape:window-y="1"
     inkscape:window-maximized="1"
     inkscape:current-layer="g10" /><g
     id="g10"
     inkscape:groupmode="layer"
     inkscape:label="Logo"
     transform="matrix(1.25,0,0,-1.25,0,480.00003)"><g
       id="g4614"
       transform="matrix(0.99999331,0,0,1,0.00318258,0)"><g
         id="g4588"><g
           id="g100"
           transform="matrix(6.287084,0,0,6.2899745,-1152.0201,-124.72076)"><g
             id="g102"
             clip-path="url(#clipPath104)"><g
               id="g108"><g
                 id="g110"><g
                   id="g112"
                   clip-path="url(#clipPath114)"><path
                     d="m 226.504,73.185 c -1.596,-0.624 -2.925,-1.514 -4.007,-2.674 l 0,0 c -1.084,-1.163 -1.912,-2.557 -2.48,-4.195 l 0,0 c -0.571,-1.64 -0.858,-3.422 -0.858,-5.354 l 0,0 c 0.003,-4.111 1.159,-7.303 3.454,-9.663 l 0,0 c 2.293,-2.352 5.494,-3.541 9.705,-3.544 l 0,0 c 1.795,-0.001 3.377,0.231 4.746,0.682 l 0,0 c 2.504,0.882 5.322,3.379 5.802,5.734 l 0,0 c 0.313,1.54 -0.63,1.874 -1.139,1.944 l 0,0 c -0.098,0.01 -0.198,0.017 -0.304,0.017 l 0,0 c -0.58,0 -1.04,-0.187 -1.333,-0.454 l 0,0 c -0.352,-0.323 -1.376,-1.284 -1.903,-1.745 l 0,0 c -0.536,-0.468 -1.12,-0.906 -1.753,-1.315 l 0,0 c -0.648,-0.418 -1.323,-0.728 -2.02,-0.926 l 0,0 c -0.699,-0.199 -1.464,-0.295 -2.291,-0.295 l 0,0 c -1.251,-10e-4 -2.414,0.312 -3.457,0.934 l 0,0 c -1.053,0.624 -1.895,1.558 -2.514,2.768 l 0,0 c -0.578,1.12 -0.888,2.398 -0.947,3.813 l 0,0 c -0.016,0.473 0.344,0.755 0.762,0.755 l 0,0 12.648,0 c 1.706,-0.001 2.999,0.248 3.875,0.701 l 0,0 c 0.779,0.403 1.222,1.295 1.229,2.914 l 0,0 c 0,1.74 -0.444,3.446 -1.345,5.139 l 0,0 c -0.894,1.675 -2.231,3.039 -4.041,4.107 l 0,0 c -1.795,1.058 -3.953,1.593 -6.503,1.594 l 0,0 c -1.96,0 -3.732,-0.315 -5.326,-0.937 m 9.599,-4.743 c 1.104,-1.174 1.725,-2.884 1.921,-5.08 l 0,0 c 0.027,-0.367 -0.36,-0.688 -0.755,-0.688 l 0,0 -11.279,0 c -0.41,0.003 -0.819,0.333 -0.755,0.737 l 0,0 c 0.26,2.145 0.911,3.83 2.001,5.004 l 0,0 c 1.133,1.226 2.626,1.85 4.375,1.846 l 0,0 c 1.822,0.004 3.355,-0.606 4.492,-1.819"
                     style="fill:url(#radialGradient118);stroke:none"
                     id="path128"
                     inkscape:connector-curvature="0" /></g></g></g></g></g><g
           id="g130"
           transform="matrix(6.287084,0,0,6.2899745,-1152.0201,-124.72076)"><g
             id="g132"
             clip-path="url(#clipPath134)"><g
               id="g138"><g
                 id="g140"><g
                   id="g142"
                   clip-path="url(#clipPath144)"><path
                     d="m 201.468,60.936 c 0,-11.015 8.927,-19.942 19.942,-19.942 l 0,0 c 11.014,0 19.942,8.927 19.942,19.942 l 0,0 c 0,11.015 -8.928,19.943 -19.942,19.943 l 0,0 c -11.015,0 -19.942,-8.928 -19.942,-19.943"
                     style="fill:url(#linearGradient148);stroke:none"
                     id="path158"
                     inkscape:connector-curvature="0" /></g></g></g></g></g><g
           id="g160"
           transform="matrix(6.287084,0,0,6.2899745,-1152.0201,-124.72076)"><g
             id="g162"
             clip-path="url(#clipPath164)"><g
               id="g168"><g
                 id="g170"><g
                   id="g172"
                   clip-path="url(#clipPath174)"><path
                     d="m 202.952,62.812 c -0.295,-2.906 0.1,-5.727 1.053,-8.297 l 0,0 c 3.53,8.194 12.409,8.387 19.208,5.992 l 0,0 c 8.173,-1.684 17.505,-1.299 16.173,4.792 l 0,0 c -1.525,7.044 -7.783,13.25 -16.101,14.095 l 0,0 c -0.635,0.065 -1.265,0.097 -1.89,0.097 l 0,0 c -9.394,0 -17.474,-7.136 -18.443,-16.679"
                     style="fill:url(#linearGradient178);stroke:none"
                     id="path184"
                     inkscape:connector-curvature="0" /></g></g></g></g></g><g
           id="g186"
           transform="matrix(6.287084,0,0,6.2899745,-1152.0201,-124.72076)"><g
             id="g188"
             clip-path="url(#clipPath190)"><g
               id="g194"><g
                 id="g196"><g
                   id="g198"
                   clip-path="url(#clipPath200)"><path
                     d="m 222.496,70.5095 c -1.083,-1.1615 -1.911,-2.5555 -2.4805,-4.1945 -0.5695,-1.639 -0.8565,-3.421 -0.8565,-5.353 l 0,0 c 0.003,-4.111 1.159,-7.303 3.454,-9.663 l 0,0 c 2.293,-2.352 5.494,-3.541 9.705,-3.544 l 0,0 c 1.731,-0.001 3.259,0.216 4.593,0.635 l 0,0 c 1.789,2.208 3.116,4.805 3.834,7.644 l 0,0 c -0.266,-0.08 -0.488,-0.204 -0.7475,-0.4415 -0.2595,-0.2375 -1.2835,-1.1985 -1.815,-1.663 -0.5315,-0.4645 -1.1155,-0.9025 -1.756,-1.316 -0.6405,-0.4135 -1.3155,-0.7235 -2.0135,-0.922 -0.698,-0.1985 -1.463,-0.2945 -2.502,-0.295 -1.039,-5e-4 -2.202,0.3125 -3.25,0.9355 -1.048,0.623 -1.89,1.557 -2.4885,2.722 -0.5985,1.165 -0.9085,2.443 -0.9675,3.858 l 0,0 c -0.016,0.473 0.344,0.755 0.553,0.755 l 12.857,0 c 1.066,-0.001 1.97,0.097 2.713,0.279 l 0,0 c 0.016,0.329 0.024,0.658 0.024,0.99 l 0,0 c 0,4.579 -1.543,8.795 -4.137,12.161 l 0,0 c -1.555,0.68 -3.344,1.024 -5.3445,1.0245 -2.0005,5e-4 -3.7725,-0.3145 -5.3665,-0.9365 -1.596,-0.624 -2.925,-1.514 -4.008,-2.6755 z m 15.528,-7.1475 0,0 c 0.027,-0.367 -0.36,-0.688 -0.755,-0.688 l 0,0 -11.279,0 c -0.41,0.003 -0.819,0.333 -0.755,0.737 l 0,0 c 0.26,2.145 0.911,3.83 2.0225,5.03 1.1115,1.2 2.6045,1.824 4.39,1.824 1.7855,0 3.3185,-0.61 4.4555,-1.823 1.104,-1.174 1.725,-2.884 1.921,-5.08 z"
                     style="fill:url(#radialGradient204);stroke:none"
                     id="path214"
                     inkscape:connector-curvature="0"
                     sodipodi:nodetypes="ccccccccccccccccccccccccccccccccccccccccccc" /></g></g></g></g></g></g><g
         id="g4564"><g
           id="g4540"><path
             d="m 34.770679,47.199993 c 0,5.396798 -0.79846,9.296582 -2.401666,11.699353 -2.018154,3.000317 -5.482337,4.497331 -10.405124,4.497331 -4.922787,0 -8.361822,-1.497014 -10.317105,-4.497331 C 10.043578,56.496575 9.245118,52.596791 9.245118,47.199993 l 0,-16.102335 12.718771,0 c 4.922787,0 8.38697,1.465564 10.405124,4.402982 1.603206,2.46567 2.401666,6.365455 2.401666,11.699353 m 9.248301,0 c 0,-17.580479 -7.349602,-26.367573 -22.055091,-26.367573 l -12.718771,0 0,-20.832395648 -9.2483006,0 0,47.187388648 c 0,17.649668 7.3181658,26.480793 21.9670716,26.480793 14.705489,0 22.055091,-8.824835 22.055091,-26.468213"
             style="fill:#18397a;fill-opacity:1;fill-rule:nonzero;stroke:none"
             id="path226"
             inkscape:connector-curvature="0" /><path
             d="m 85.128399,47.199993 c 0,5.396798 -0.792173,9.296582 -2.382805,11.699353 -1.942709,3.000317 -5.362882,4.497331 -10.247947,4.497331 -4.885064,0 -8.330386,-1.497014 -10.335966,-4.497331 -1.584345,-2.402771 -2.382805,-6.302555 -2.382805,-11.699353 0,-5.333898 0.79846,-9.233683 2.382805,-11.699353 2.00558,-2.937418 5.450902,-4.402982 10.335966,-4.402982 4.885065,0 8.305238,1.465564 10.247947,4.402982 1.590632,2.396481 2.382805,6.296265 2.382805,11.699353 m 5.872136,36.538462 -4.18091,-5.667267 -14.762074,8.371956 -14.76836,-8.371956 -4.180911,5.667267 18.949271,10.762146 18.942984,-10.762146 z m 3.464184,-36.538462 c 0,-17.580479 -7.324453,-26.367573 -21.967072,-26.367573 -14.705489,0 -22.05509,8.787094 -22.05509,26.367573 0,17.643378 7.349601,26.468213 22.05509,26.468213 14.642619,0 21.967072,-8.824835 21.967072,-26.468213"
             style="fill:#18397a;fill-opacity:1;fill-rule:nonzero;stroke:none"
             id="path230"
             inkscape:connector-curvature="0" /><path
             d="m 125.57956,20.831168 c -15.77429,0 -23.6583,6.384324 -23.6583,19.140392 l 0,54.534079 9.2483,0 0,-54.622138 c 0,-2.723559 0.8299,-4.761511 2.48969,-6.088696 2.19419,-1.792642 6.16763,-2.692109 11.92031,-2.692109 l 0,-10.271528 z"
             style="fill:#18397a;fill-opacity:1;fill-rule:nonzero;stroke:none"
             id="path234"
             inkscape:connector-curvature="0" /><path
             d="m 161.19143,58.321857 c -1.64722,3.912364 -5.35031,6.591893 -10.29196,6.591893 -4.94164,0 -8.75162,-2.679529 -10.39883,-6.591893 -1.03109,-2.36503 -1.23227,-3.912364 -1.33915,-7.107671 l 23.46968,0 c -0.10059,3.195307 -0.40866,4.742641 -1.43974,7.107671 M 139.16149,43.905235 c 0,-8.956923 4.74046,-14.62419 13.27832,-14.62419 5.87214,0 8.95909,1.647973 12.66219,5.359058 l 6.68945,-6.283685 c -5.3503,-5.359058 -10.39255,-8.139227 -19.55283,-8.139227 -13.07713,0 -23.46968,6.900103 -23.46968,26.776422 0,16.888581 8.74533,26.675782 22.13053,26.675782 13.99505,0 22.13054,-10.296688 22.13054,-25.128448 l 0,-4.635712 -33.86852,0 z"
             style="fill:#18397a;fill-opacity:1;fill-rule:nonzero;stroke:none"
             id="path256"
             inkscape:connector-curvature="0" /><path
             d="m 34.770679,47.199993 c 0,5.396798 -0.79846,9.296582 -2.401666,11.699353 -2.018154,3.000317 -5.482337,4.497331 -10.405124,4.497331 -4.922787,0 -8.361822,-1.497014 -10.317105,-4.497331 C 10.043578,56.496575 9.245118,52.596791 9.245118,47.199993 l 0,-16.102335 12.718771,0 c 4.922787,0 8.38697,1.465564 10.405124,4.402982 1.603206,2.46567 2.401666,6.365455 2.401666,11.699353 m 9.248301,0 c 0,-17.580479 -7.349602,-26.367573 -22.055091,-26.367573 l -12.718771,0 0,-20.832395648 -9.2483006,0 0,47.187388648 c 0,17.649668 7.3181658,26.480793 21.9670716,26.480793 14.705489,0 22.055091,-8.824835 22.055091,-26.468213"
             style="fill:#18397a;fill-opacity:1;fill-rule:nonzero;stroke:none"
             id="path264"
             inkscape:connector-curvature="0" /><path
             d="m 85.128399,47.199993 c 0,5.396798 -0.792173,9.296582 -2.382805,11.699353 -1.942709,3.000317 -5.362882,4.497331 -10.247947,4.497331 -4.885064,0 -8.330386,-1.497014 -10.335966,-4.497331 -1.584345,-2.402771 -2.382805,-6.302555 -2.382805,-11.699353 0,-5.333898 0.79846,-9.233683 2.382805,-11.699353 2.00558,-2.937418 5.450902,-4.402982 10.335966,-4.402982 4.885065,0 8.305238,1.465564 10.247947,4.402982 1.590632,2.396481 2.382805,6.296265 2.382805,11.699353 m 5.872136,36.538462 -4.18091,-5.667267 -14.762074,8.371956 -14.76836,-8.371956 -4.180911,5.667267 18.949271,10.762146 18.942984,-10.762146 z m 3.464184,-36.538462 c 0,-17.580479 -7.324453,-26.367573 -21.967072,-26.367573 -14.705489,0 -22.05509,8.787094 -22.05509,26.367573 0,17.643378 7.349601,26.468213 22.05509,26.468213 14.642619,0 21.967072,-8.824835 21.967072,-26.468213"
             style="fill:#18397a;fill-opacity:1;fill-rule:nonzero;stroke:none"
             id="path268"
             inkscape:connector-curvature="0" /><path
             d="m 125.57956,20.831168 c -15.77429,0 -23.6583,6.384324 -23.6583,19.140392 l 0,54.534079 9.2483,0 0,-54.622138 c 0,-2.723559 0.8299,-4.761511 2.48969,-6.088696 2.19419,-1.792642 6.16763,-2.692109 11.92031,-2.692109 l 0,-10.271528 z"
             style="fill:#18397a;fill-opacity:1;fill-rule:nonzero;stroke:none"
             id="path272"
             inkscape:connector-curvature="0" /><path
             d="m 161.19143,58.321857 c -1.64722,3.912364 -5.35031,6.591893 -10.29196,6.591893 -4.94164,0 -8.75162,-2.679529 -10.39883,-6.591893 -1.03109,-2.36503 -1.23227,-3.912364 -1.33915,-7.107671 l 23.46968,0 c -0.10059,3.195307 -0.40866,4.742641 -1.43974,7.107671 M 139.16149,43.905235 c 0,-8.956923 4.74046,-14.62419 13.27832,-14.62419 5.87214,0 8.95909,1.647973 12.66219,5.359058 l 6.68945,-6.283685 c -5.3503,-5.359058 -10.39255,-8.139227 -19.55283,-8.139227 -13.07713,0 -23.46968,6.900103 -23.46968,26.776422 0,16.888581 8.74533,26.675782 22.13053,26.675782 13.99505,0 22.13054,-10.296688 22.13054,-25.128448 l 0,-4.635712 -33.86852,0 z"
             style="fill:#18397a;fill-opacity:1;fill-rule:nonzero;stroke:none"
             id="path294"
             inkscape:connector-curvature="0" /></g><g
           id="g4550"><path
             d="m 335.2965,20.831168 -9.2483,0 0,26.417893 c 0,5.384218 -0.80475,9.271422 -2.40167,11.661613 -2.01815,2.994027 -5.48233,4.491041 -10.40512,4.491041 -4.92279,0 -8.36182,-1.497014 -10.31711,-4.491041 -1.6032,-2.390191 -2.40166,-6.277395 -2.40166,-11.661613 l 0,-26.417893 -9.2483,0 0,26.417893 c 0,5.384218 -0.79846,9.271422 -2.40167,11.661613 -2.01815,2.994027 -5.48234,4.491041 -10.41141,4.491041 -4.9165,0 -8.35553,-1.497014 -10.3171,-4.491041 -1.59692,-2.390191 -2.39538,-6.277395 -2.39538,-11.661613 l 0,-26.417893 -9.2483,0 0,26.367573 c 0,17.649669 7.31816,26.468213 21.96078,26.468213 7.83371,0 13.63669,-2.660659 17.43408,-7.975688 3.74082,5.315029 9.51865,7.975688 17.34607,7.975688 14.6992,0 22.05509,-8.818544 22.05509,-26.468213 l 0,-26.367573 z"
             style="fill:#e31927;fill-opacity:1;fill-rule:nonzero;stroke:none"
             id="path238"
             inkscape:connector-curvature="0" /><path
             d="m 377.54256,47.199993 c 0,5.396798 -0.79846,9.296582 -2.40167,11.699353 -2.01186,3.000317 -5.48233,4.497331 -10.40512,4.497331 -4.92279,0 -8.36182,-1.497014 -10.3171,-4.497331 -1.60321,-2.402771 -2.40167,-6.302555 -2.40167,-11.699353 l 0,-16.102335 12.71877,0 c 4.92279,0 8.39326,1.465564 10.40512,4.402982 1.60321,2.46567 2.40167,6.365455 2.40167,11.699353 m 9.25459,0 c 0,-17.580479 -7.35589,-26.367573 -22.06138,-26.367573 l -12.71877,0 0,-20.832395648 -9.2483,0 0,47.187388648 c 0,17.649668 7.32445,26.480793 21.96707,26.480793 14.70549,0 22.06138,-8.824835 22.06138,-26.468213"
             style="fill:#e31927;fill-opacity:1;fill-rule:nonzero;stroke:none"
             id="path242"
             inkscape:connector-curvature="0" /><path
             d="m 417.21029,20.831168 c -15.77429,0 -23.6583,6.384324 -23.6583,19.140392 l 0,54.534079 9.2483,0 0,-54.622138 c 0,-2.723559 0.8299,-4.761511 2.49598,-6.088696 2.1879,-1.792642 6.16134,-2.692109 11.91402,-2.692109 l 0,-10.271528 z"
             style="fill:#e31927;fill-opacity:1;fill-rule:nonzero;stroke:none"
             id="path246"
             inkscape:connector-curvature="0" /><path
             d="m 454.65434,47.199993 c 0,5.396798 -0.79846,9.296582 -2.40167,11.699353 -1.95528,3.000317 -5.39431,4.497331 -10.3171,4.497331 -4.92279,0 -8.36182,-1.497014 -10.31711,-4.497331 -1.6032,-2.402771 -2.40166,-6.302555 -2.40166,-11.699353 0,-5.403088 0.79846,-9.302872 2.40166,-11.699353 1.95529,-2.937418 5.39432,-4.402982 10.31711,-4.402982 4.92279,0 8.36182,1.465564 10.3171,4.402982 1.60321,2.396481 2.40167,6.296265 2.40167,11.699353 m 9.2483,0 c 0,-17.580479 -7.32445,-26.367573 -21.96707,-26.367573 -14.70549,0 -22.06138,8.787094 -22.06138,26.367573 0,17.643378 7.35589,26.468213 22.06138,26.468213 14.64262,0 21.96707,-8.824835 21.96707,-26.468213"
             style="fill:#e31927;fill-opacity:1;fill-rule:nonzero;stroke:none"
             id="path250"
             inkscape:connector-curvature="0" /><path
             inkscape:connector-curvature="0"
             id="path252"
             style="fill:#e31927;fill-opacity:1;fill-rule:nonzero;stroke:none"
             d="m 470.75173,73.665036 9.2483,0 0,-52.835786 -9.2483,0 0,52.835786 z m 9.2483,10.567157 -9.2483,0 0,10.271528 9.2483,0 0,-10.271528 z" /><path
             d="m 237.25383,58.321857 c -1.64722,3.912364 -5.35031,6.591893 -10.29196,6.591893 -4.94164,0 -8.75162,-2.679529 -10.39883,-6.591893 -1.03109,-2.36503 -1.23227,-3.912364 -1.33915,-7.107671 l 23.46968,0 c -0.10059,3.195307 -0.40866,4.742641 -1.43974,7.107671 M 215.22389,43.905235 c 0,-8.956923 4.73417,-14.62419 13.27832,-14.62419 5.87214,0 8.95909,1.647973 12.66219,5.359058 l 6.69574,-6.283685 c -5.35659,-5.359058 -10.39884,-8.139227 -19.55912,-8.139227 -13.07713,0 -23.46968,6.900103 -23.46968,26.776422 0,16.888581 8.74533,26.675782 22.13053,26.675782 13.99505,0 22.13054,-10.296688 22.13054,-25.128448 l 0,-4.635712 -33.86852,0 z"
             style="fill:#e31927;fill-opacity:1;fill-rule:nonzero;stroke:none"
             id="path260"
             inkscape:connector-curvature="0" /><path
             d="m 335.2965,20.831168 -9.2483,0 0,26.417893 c 0,5.384218 -0.80475,9.271422 -2.40167,11.661613 -2.01815,2.994027 -5.48233,4.491041 -10.40512,4.491041 -4.92279,0 -8.36182,-1.497014 -10.31711,-4.491041 -1.6032,-2.390191 -2.40166,-6.277395 -2.40166,-11.661613 l 0,-26.417893 -9.2483,0 0,26.417893 c 0,5.384218 -0.79846,9.271422 -2.40167,11.661613 -2.01815,2.994027 -5.48234,4.491041 -10.41141,4.491041 -4.9165,0 -8.35553,-1.497014 -10.3171,-4.491041 -1.59692,-2.390191 -2.39538,-6.277395 -2.39538,-11.661613 l 0,-26.417893 -9.2483,0 0,26.367573 c 0,17.649669 7.31816,26.468213 21.96078,26.468213 7.83371,0 13.63669,-2.660659 17.43408,-7.975688 3.74082,5.315029 9.51865,7.975688 17.34607,7.975688 14.6992,0 22.05509,-8.818544 22.05509,-26.468213 l 0,-26.367573 z"
             style="fill:#e31927;fill-opacity:1;fill-rule:nonzero;stroke:none"
             id="path276"
             inkscape:connector-curvature="0" /><path
             d="m 377.54256,47.199993 c 0,5.396798 -0.79846,9.296582 -2.40167,11.699353 -2.01186,3.000317 -5.48233,4.497331 -10.40512,4.497331 -4.92279,0 -8.36182,-1.497014 -10.3171,-4.497331 -1.60321,-2.402771 -2.40167,-6.302555 -2.40167,-11.699353 l 0,-16.102335 12.71877,0 c 4.92279,0 8.39326,1.465564 10.40512,4.402982 1.60321,2.46567 2.40167,6.365455 2.40167,11.699353 m 9.25459,0 c 0,-17.580479 -7.35589,-26.367573 -22.06138,-26.367573 l -12.71877,0 0,-20.832395648 -9.2483,0 0,47.187388648 c 0,17.649668 7.32445,26.480793 21.96707,26.480793 14.70549,0 22.06138,-8.824835 22.06138,-26.468213"
             style="fill:#e31927;fill-opacity:1;fill-rule:nonzero;stroke:none"
             id="path280"
             inkscape:connector-curvature="0" /><path
             d="m 417.21029,20.831168 c -15.77429,0 -23.6583,6.384324 -23.6583,19.140392 l 0,54.534079 9.2483,0 0,-54.622138 c 0,-2.723559 0.8299,-4.761511 2.49598,-6.088696 2.1879,-1.792642 6.16134,-2.692109 11.91402,-2.692109 l 0,-10.271528 z"
             style="fill:#e31927;fill-opacity:1;fill-rule:nonzero;stroke:none"
             id="path284"
             inkscape:connector-curvature="0" /><path
             d="m 454.65434,47.199993 c 0,5.396798 -0.79846,9.296582 -2.40167,11.699353 -1.95528,3.000317 -5.39431,4.497331 -10.3171,4.497331 -4.92279,0 -8.36182,-1.497014 -10.31711,-4.497331 -1.6032,-2.402771 -2.40166,-6.302555 -2.40166,-11.699353 0,-5.403088 0.79846,-9.302872 2.40166,-11.699353 1.95529,-2.937418 5.39432,-4.402982 10.31711,-4.402982 4.92279,0 8.36182,1.465564 10.3171,4.402982 1.60321,2.396481 2.40167,6.296265 2.40167,11.699353 m 9.2483,0 c 0,-17.580479 -7.32445,-26.367573 -21.96707,-26.367573 -14.70549,0 -22.06138,8.787094 -22.06138,26.367573 0,17.643378 7.35589,26.468213 22.06138,26.468213 14.64262,0 21.96707,-8.824835 21.96707,-26.468213"
             style="fill:#e31927;fill-opacity:1;fill-rule:nonzero;stroke:none"
             id="path288"
             inkscape:connector-curvature="0" /><path
             inkscape:connector-curvature="0"
             id="path290"
             style="fill:#e31927;fill-opacity:1;fill-rule:nonzero;stroke:none"
             d="m 470.75173,73.665036 9.2483,0 0,-52.835786 -9.2483,0 0,52.835786 z m 9.2483,10.567157 -9.2483,0 0,10.271528 9.2483,0 0,-10.271528 z" /><path
             d="m 237.25383,58.321857 c -1.64722,3.912364 -5.35031,6.591893 -10.29196,6.591893 -4.94164,0 -8.75162,-2.679529 -10.39883,-6.591893 -1.03109,-2.36503 -1.23227,-3.912364 -1.33915,-7.107671 l 23.46968,0 c -0.10059,3.195307 -0.40866,4.742641 -1.43974,7.107671 M 215.22389,43.905235 c 0,-8.956923 4.73417,-14.62419 13.27832,-14.62419 5.87214,0 8.95909,1.647973 12.66219,5.359058 l 6.69574,-6.283685 c -5.35659,-5.359058 -10.39884,-8.139227 -19.55912,-8.139227 -13.07713,0 -23.46968,6.900103 -23.46968,26.776422 0,16.888581 8.74533,26.675782 22.13053,26.675782 13.99505,0 22.13054,-10.296688 22.13054,-25.128448 l 0,-4.635712 -33.86852,0 z"
             style="fill:#e31927;fill-opacity:1;fill-rule:nonzero;stroke:none"
             id="path298"
             inkscape:connector-curvature="0" /></g></g></g></g></svg>