<?xml version="1.0" encoding="UTF-8" standalone="no"?>
<!-- Created with Inkscape (http://www.inkscape.org/) -->

<svg
   xmlns:dc="http://purl.org/dc/elements/1.1/"
   xmlns:cc="http://creativecommons.org/ns#"
   xmlns:rdf="http://www.w3.org/1999/02/22-rdf-syntax-ns#"
   xmlns:svg="http://www.w3.org/2000/svg"
   xmlns="http://www.w3.org/2000/svg"
   xmlns:sodipodi="http://sodipodi.sourceforge.net/DTD/sodipodi-0.dtd"
   xmlns:inkscape="http://www.inkscape.org/namespaces/inkscape"
   width="141.11134mm"
   height="54.096638mm"
   viewBox="0 0 500.00082 191.681"
   id="svg4367"
   version="1.1"
   inkscape:version="0.91 r13725"
   sodipodi:docname="Puy-de-Dôme (63) logo 2022.svg">
  <defs
     id="defs4369" />
  <sodipodi:namedview
     id="base"
     pagecolor="#ffffff"
     bordercolor="#666666"
     borderopacity="1.0"
     inkscape:pageopacity="0.0"
     inkscape:pageshadow="2"
     inkscape:zoom="1.5016667"
     inkscape:cx="254.28571"
     inkscape:cy="91.428571"
     inkscape:document-units="px"
     inkscape:current-layer="layer1"
     showgrid="false"
     fit-margin-top="0"
     fit-margin-left="0"
     fit-margin-right="0"
     fit-margin-bottom="0"
     inkscape:window-width="1366"
     inkscape:window-height="705"
     inkscape:window-x="-8"
     inkscape:window-y="-8"
     inkscape:window-maximized="1" />
  <metadata
     id="metadata4372">
    <rdf:RDF>
      <cc:Work
         rdf:about="">
        <dc:format>image/svg+xml</dc:format>
        <dc:type
           rdf:resource="http://purl.org/dc/dcmitype/StillImage" />
        <dc:title></dc:title>
      </cc:Work>
    </rdf:RDF>
  </metadata>
  <g
     inkscape:label="Calque 1"
     inkscape:groupmode="layer"
     id="layer1"
     transform="translate(-15.828826,-727.43586)">
    <path
       d="m 178.33595,855.29582 10.50268,-0.003 0,3.85237 -10.50268,0.003 0,-3.85168 z"
       style="fill:#44526c;fill-opacity:1;fill-rule:nonzero;stroke:none"
       id="path14"
       inkscape:connector-curvature="0" />
    <path
       d="m 204.93995,852.41676 c -1.26074,-0.73491 -2.20612,-0.97942 -3.46685,-0.97942 -2.93964,5.6e-4 -5.21591,2.66248 -5.21383,6.12934 0.001,3.43073 2.27697,6.0564 5.25203,6.05571 1.3309,-5.6e-4 2.24085,-0.35148 3.43212,-1.22671 l -0.003,-9.97892 z m -0.003,-10.74857 4.55185,-5.6e-4 0.008,25.24323 -4.55116,0.001 0,-1.22531 c -1.60944,1.19128 -2.87017,1.64625 -4.76232,1.64695 -5.00683,0.001 -8.82378,-4.16356 -8.82517,-9.62606 -0.001,-5.63685 3.98852,-9.87404 9.38017,-9.87543 1.53997,-5.6e-4 2.69582,0.27923 4.20107,0.94329 l -0.002,-7.10736 z"
       style="fill:#44526c;fill-opacity:1;fill-rule:nonzero;stroke:none"
       id="path26"
       inkscape:connector-curvature="0" />
    <path
       d="m 217.5758,855.24908 8.50772,-0.002 c -0.24728,-2.62636 -1.82199,-4.16633 -4.06284,-4.16564 -2.24085,5.6e-4 -3.92183,1.54137 -4.44488,4.16773 m -0.10628,3.22165 c 0.45706,3.25569 2.55829,5.25064 5.63894,5.24995 1.99495,-5.6e-4 4.16634,-0.80646 6.47665,-2.38255 l 0,3.29111 c -2.30892,1.8213 -4.65396,2.66179 -7.41995,2.66249 -5.63754,0.003 -9.41976,-3.91836 -9.42114,-9.72956 -0.002,-5.70771 3.74261,-9.73512 9.02938,-9.73651 5.28745,-10e-4 8.5098,3.74331 8.51119,9.94003 l 0,0.70087 -12.81507,0.004 z"
       style="fill:#44526c;fill-opacity:1;fill-rule:nonzero;stroke:none"
       id="path30"
       inkscape:connector-curvature="0" />
    <path
       d="m 232.80142,855.27922 10.50267,-0.003 0,3.85237 -10.50267,0.003 0,-3.85168 z"
       style="fill:#44526c;fill-opacity:1;fill-rule:nonzero;stroke:none"
       id="path34"
       inkscape:connector-curvature="0" />
    <path
       d="m 15.828826,892.7878 5.822315,-0.002 6.796175,9.27111 c 0.575146,0.79047 0.755053,1.22253 0.755053,2.11998 0.03612,-0.89745 0.179907,-1.32951 0.754359,-2.11998 l 6.826042,-9.27528 5.822316,-0.002 0.0083,25.91424 -6.146703,0.002 -0.0048,-17.68297 c -0.07155,0.86202 -0.286878,1.43717 -0.682118,1.94077 l -6.575312,8.62803 -6.615573,-8.62372 c -0.359814,-0.5036 -0.575146,-1.07875 -0.647387,-1.94077 l 0.0056,17.68297 -6.110583,0.002 -0.0076,-25.91437 z"
       style="fill:#80cc28;fill-opacity:1;fill-rule:nonzero;stroke:none"
       id="path38"
       inkscape:connector-curvature="0" />
    <path
       d="m 61.998077,905.74887 c 0.0014,4.92348 2.877818,8.2653 7.083055,8.26391 4.169117,-5.5e-4 7.07958,-3.3446 7.077496,-8.16041 -0.0011,-5.03183 -2.805575,-8.40978 -7.083052,-8.40839 -4.204543,10e-4 -7.078888,3.3446 -7.077499,8.30489 m 7.076109,-13.40896 c 7.763782,-0.002 13.264488,5.56739 13.266571,13.40271 0.0028,7.83533 -5.495148,13.37216 -13.258235,13.37424 -7.763784,0.003 -13.263795,-5.53127 -13.266574,-13.3659 -0.0021,-7.83533 5.495149,-13.40828 13.258238,-13.41105"
       style="fill:#80cc28;fill-opacity:1;fill-rule:nonzero;stroke:none"
       id="path42"
       inkscape:connector-curvature="0" />
    <path
       d="m 96.17629,892.76341 5.6431,-10e-4 12.79979,15.5234 c 0.43136,0.53833 0.68351,1.1496 0.79117,1.94077 l -0.005,-17.46833 6.14532,-0.002 0.008,25.91424 -5.6431,0.002 -12.94357,-15.63106 c -0.43136,-0.53903 -0.57515,-1.00581 -0.64739,-1.76017 l 0.005,17.3954 -6.146009,10e-4 -0.0077,-25.91424 z"
       style="fill:#80cc28;fill-opacity:1;fill-rule:nonzero;stroke:none"
       id="path46"
       inkscape:connector-curvature="0" />
    <path
       d="m 163.57622,914.02056 3.3064,-5.5e-4 c 4.74426,-10e-4 7.79851,-3.20082 7.79643,-8.3042 -10e-4,-5.17562 -3.12927,-8.40978 -8.19653,-8.40908 l -2.91116,5.5e-4 0.005,16.71328 z m -6.2245,-21.27555 10.53115,-0.003 c 7.54776,-0.003 13.12001,5.63894 13.12209,13.15127 0.003,7.58318 -5.27912,12.76019 -12.97066,12.76297 l -10.67494,0.003 -0.008,-25.91423 z"
       style="fill:#80cc28;fill-opacity:1;fill-rule:nonzero;stroke:none"
       id="path50"
       inkscape:connector-curvature="0" />
    <path
       d="m 205.18841,882.27221 2.80419,3.16191 -5.92929,4.38653 -1.79698,-1.90465 4.92208,-5.64379 z m -10.31234,10.46238 16.31804,-0.006 5.6e-4,4.52824 -10.0991,0.003 0.001,5.9668 9.48922,-0.003 5.6e-4,4.38515 -9.48853,0.002 0.002,6.54125 10.35125,-0.003 0.001,4.49211 -16.5688,0.006 -0.008,-25.91354 z"
       style="fill:#80cc28;fill-opacity:1;fill-rule:nonzero;stroke:none"
       id="path54"
       inkscape:connector-curvature="0" />
    <path
       d="m 231.28992,903.93702 2.55204,-10e-4 c 2.4798,-5.5e-4 3.8093,-1.18641 3.80861,-3.41475 -5.6e-4,-2.19223 -1.47468,-3.487 -4.06215,-3.48561 l -2.30058,5.5e-4 0.002,6.90106 z m -6.22172,-11.21257 10.67494,-0.003 c 4.85193,-10e-4 8.23195,3.19665 8.23334,7.72558 0.002,4.67202 -3.30501,7.69223 -8.37296,7.69432 l -4.31291,10e-4 0.003,10.49434 -6.21756,10e-4 -0.008,-25.91424 z"
       style="fill:#80cc28;fill-opacity:1;fill-rule:nonzero;stroke:none"
       id="path58"
       inkscape:connector-curvature="0" />
    <path
       d="m 260.76458,908.88821 7.00873,-0.003 -3.09385,-8.30072 c -0.35912,-0.86272 -0.46748,-1.43787 -0.46748,-2.4798 0,1.04193 -0.10766,1.79629 -0.39454,2.4798 l -3.05286,8.3035 z m 0.24659,-16.17425 6.36203,-0.001 10.8611,25.91076 -6.75727,0.002 -2.08595,-5.67853 -10.13453,0.003 -2.04704,5.67922 -6.72116,0.002 10.52282,-25.91702 z"
       style="fill:#80cc28;fill-opacity:1;fill-rule:nonzero;stroke:none"
       id="path62"
       inkscape:connector-curvature="0" />
    <path
       d="m 296.38183,903.77358 2.4798,-5.6e-4 c 2.40825,-5.5e-4 3.77388,-1.25865 3.77318,-3.37933 -5.5e-4,-2.26447 -1.43856,-3.52242 -3.95378,-3.52173 l -2.30128,5.6e-4 0.002,6.90106 z m -6.22103,-11.0681 10.67494,-0.003 c 4.77969,-0.001 8.05136,3.01605 8.05275,7.32895 5.5e-4,2.9834 -1.36424,5.06865 -4.05937,6.11128 0.8266,0.39524 1.22184,0.68281 1.90535,1.61708 0.39593,0.5029 0.75505,1.07805 1.07874,1.61708 0.28688,0.53972 0.71894,1.40105 2.73334,5.39026 l 1.94146,3.84542 -6.50582,0.002 -1.22184,-2.55203 c -0.43205,-0.89815 -0.89953,-1.79699 -1.36701,-2.69444 -1.04263,-2.08456 -1.69002,-3.19873 -2.30198,-3.98921 -0.8259,-1.11417 -1.86853,-1.6525 -3.23415,-1.6525 l -1.47399,5.5e-4 0.003,10.89027 -6.21756,0.002 -0.008,-25.91424 z"
       style="fill:#80cc28;fill-opacity:1;fill-rule:nonzero;stroke:none"
       id="path66"
       inkscape:connector-curvature="0" />
    <path
       d="m 321.28783,892.69625 21.74511,-0.007 0.002,4.6366 -7.72766,0.003 0.006,21.27763 -6.21756,10e-4 -0.006,-21.34988 -7.7992,0.003 -0.002,-4.56436 z"
       style="fill:#80cc28;fill-opacity:1;fill-rule:nonzero;stroke:none"
       id="path70"
       inkscape:connector-curvature="0" />
    <path
       d="m 354.93021,892.68603 16.31735,-0.005 0.002,4.52893 -10.0998,0.003 0.002,5.9661 9.48852,-0.002 5.6e-4,4.38445 -9.48853,0.003 0.002,6.54125 10.35125,-0.003 0.002,4.49281 -16.5688,0.005 -0.008,-25.91424 z"
       style="fill:#80cc28;fill-opacity:1;fill-rule:nonzero;stroke:none"
       id="path74"
       inkscape:connector-curvature="0" />
    <path
       d="m 385.1231,892.67721 5.82301,-0.002 6.79548,9.27111 c 0.57445,0.79048 0.75505,1.22253 0.75505,2.11999 0.0361,-0.89746 0.17922,-1.32951 0.75436,-2.12068 l 6.82605,-9.27528 5.82301,-10e-4 0.008,25.91423 -6.1467,10e-4 -0.005,-17.68297 c -0.0715,0.86203 -0.28757,1.43787 -0.68211,1.94147 l -6.57529,8.62789 -6.61627,-8.62372 c -0.35911,-0.50361 -0.57445,-1.07875 -0.64599,-1.94078 l 0.005,17.68298 -6.11058,0.002 -0.008,-25.91424 z"
       style="fill:#80cc28;fill-opacity:1;fill-rule:nonzero;stroke:none"
       id="path78"
       inkscape:connector-curvature="0" />
    <path
       d="m 426.38527,892.66436 16.31735,-0.005 0.002,4.52893 -10.0998,0.003 0.002,5.96611 9.48852,-0.003 5.6e-4,4.38445 -9.48853,0.003 0.002,6.54125 10.35125,-0.003 0.002,4.49281 -16.5688,0.005 -0.008,-25.91424 z"
       style="fill:#80cc28;fill-opacity:1;fill-rule:nonzero;stroke:none"
       id="path82"
       inkscape:connector-curvature="0" />
    <path
       d="m 456.57754,892.65554 5.6431,-0.002 12.79979,15.52409 c 0.43136,0.53833 0.68281,1.1489 0.79117,1.94008 l -0.005,-17.46834 6.14531,-10e-4 0.008,25.91424 -5.64241,0.001 -12.94427,-15.63037 c -0.43136,-0.53903 -0.57445,-1.00651 -0.646,-1.76087 l 0.004,17.3954 -6.14601,0.002 -0.008,-25.91424 z"
       style="fill:#80cc28;fill-opacity:1;fill-rule:nonzero;stroke:none"
       id="path86"
       inkscape:connector-curvature="0" />
    <path
       d="m 493.85168,892.64401 21.74512,-0.006 10e-4,4.6366 -7.72766,0.002 0.006,21.27764 -6.21756,0.002 -0.006,-21.34988 -7.7992,0.002 -0.002,-4.56436 z"
       style="fill:#80cc28;fill-opacity:1;fill-rule:nonzero;stroke:none"
       id="path90"
       inkscape:connector-curvature="0" />
    <path
       d="m 28.965225,844.57879 7.94091,-0.002 c 2.335317,-5.6e-4 4.203848,-0.3751 5.697978,-0.84327 3.550209,-1.40175 5.884137,-4.85888 5.882748,-9.06342 -0.0014,-6.63225 -4.39348,-10.08799 -12.427469,-10.08521 l -7.100418,0.002 0.0063,19.9919 z m -12.900506,-29.61032 24.662528,-0.008 c 12.425385,-0.003 21.022017,7.93466 21.02549,19.61194 0.0042,11.67797 -8.495218,19.34034 -21.387388,19.34381 l -11.490425,0.003 0.0083,28.40029 -12.798397,0.004 -0.02014,-67.35603 z"
       style="fill:#44526c;fill-opacity:1;fill-rule:nonzero;stroke:none"
       id="path94"
       inkscape:connector-curvature="0" />
    <path
       d="m 130.60888,855.1046 c 0.002,6.07237 -0.83772,10.55685 -2.51801,13.92021 -4.20176,8.59593 -15.22331,14.29808 -27.55493,14.30225 -12.424686,0.003 -22.889155,-5.50557 -27.563261,-14.28558 -1.589294,-2.98896 -2.524254,-7.93952 -2.526338,-13.91882 l -0.01178,-40.17065 12.798397,-0.003 0.01184,39.51631 c 5.56e-4,3.45643 0.468869,6.44539 1.497603,8.7814 2.617333,5.79106 8.597328,9.43296 15.790829,9.43087 7.1935,-0.003 13.1714,-3.64745 15.78527,-9.44059 1.02665,-2.33602 1.49273,-5.32567 1.49205,-8.7821 l -0.0118,-39.51631 12.79839,-0.004 0.0118,40.17064 z"
       style="fill:#44526c;fill-opacity:1;fill-rule:nonzero;stroke:none"
       id="path98"
       inkscape:connector-curvature="0" />
    <path
       d="m 151.52316,814.92784 13.64583,19.98773 c 0.93427,1.40105 1.49552,3.64329 1.68307,6.35161 0.37231,-2.61594 1.02595,-5.23119 1.86644,-6.353 l 13.91396,-19.99537 14.94686,-0.005 -24.83965,34.19968 0.0104,33.16399 -12.70531,0.003 -0.0105,-33.35155 -24.01931,-33.99684 15.50812,-0.005 z"
       style="fill:#44526c;fill-opacity:1;fill-rule:nonzero;stroke:none"
       id="path102"
       inkscape:connector-curvature="0" />
    <path
       d="m 260.72658,872.41789 10.08937,-0.003 c 4.76441,-10e-4 8.7814,-0.84397 11.67659,-2.43257 7.28588,-3.9253 11.58072,-12.05445 11.57725,-21.39641 -0.003,-14.48008 -9.34891,-23.72618 -24.10892,-23.72132 l -9.24888,0.003 0.0146,47.55099 z m -12.90884,-57.45004 25.03554,-0.007 c 19.99258,-0.006 34.5706,14.46896 34.57685,34.08714 0.004,13.63959 -7.27963,25.31964 -18.86174,30.36746 -4.3907,1.86992 -9.80944,2.89934 -15.78805,2.90073 l -24.94246,0.008 -0.0201,-67.35604 z"
       style="fill:#44526c;fill-opacity:1;fill-rule:nonzero;stroke:none"
       id="path106"
       inkscape:connector-curvature="0" />
    <path
       d="m 329.75623,848.66782 c 0.0986,14.20014 8.78904,24.0068 21.49436,24.00333 12.61224,-0.004 21.39017,-9.81569 21.38531,-24.01653 -0.003,-14.38561 -8.78766,-24.09919 -21.3992,-24.09572 -12.70532,0.004 -21.48464,9.72262 -21.48047,24.10892 m 21.477,-34.75885 c 19.9912,-0.006 34.28858,14.47035 34.29484,34.74287 0.006,20.27183 -14.28211,34.66299 -34.27401,34.66924 -20.08566,0.006 -34.28997,-14.37727 -34.29622,-34.64909 -0.006,-20.27183 14.18972,-34.75677 34.27539,-34.76302"
       style="fill:#44526c;fill-opacity:1;fill-rule:nonzero;stroke:none"
       id="path110"
       inkscape:connector-curvature="0" />
    <path
       d="m 395.29555,814.92374 12.33161,-0.003 18.69226,25.03067 c 1.40105,1.96161 1.96231,3.26959 2.05608,5.51182 0.0931,-2.24223 0.55986,-3.5509 1.96022,-5.51321 l 18.67628,-25.04179 12.42539,-0.003 0.0201,67.35534 -12.79909,0.004 -0.0146,-50.54064 c -0.18616,2.14846 -0.65295,3.64398 -1.68029,4.95196 l -18.5832,24.29507 -18.59849,-24.28396 c -1.02734,-1.30728 -1.49482,-2.8021 -1.68237,-4.95057 l 0.0146,50.54065 -12.7984,0.003 -0.0201,-67.35603 z"
       style="fill:#44526c;fill-opacity:1;fill-rule:nonzero;stroke:none"
       id="path114"
       inkscape:connector-curvature="0" />
    <path
       d="m 474.98368,814.90006 39.98448,-0.0118 0.003,9.80874 -27.09231,0.008 0.006,18.40329 25.22378,-0.007 0.003,9.52812 -25.31756,0.008 0.006,19.80573 28.02658,-0.008 0.003,9.80874 -40.82498,0.0125 -0.0201,-67.35604 z"
       style="fill:#44526c;fill-opacity:1;fill-rule:nonzero;stroke:none"
       id="path118"
       inkscape:connector-curvature="0" />
    <path
       d="m 424.11636,803.03023 c 2.17278,0 3.96073,-1.76712 3.98574,-3.9392 0.0118,-1.06485 -0.39107,-2.07066 -1.13501,-2.83197 -0.74325,-0.7613 -1.73934,-1.18711 -2.8035,-1.19961 -14.61205,-0.17018 -31.27323,-20.73653 -36.45997,-28.64687 -0.66823,-1.0211 -1.74767,-1.67126 -2.96187,-1.78449 -0.12781,-0.0118 -0.25423,-0.0181 -0.37995,-0.0181 -1.08986,0 -2.10679,0.43345 -2.86184,1.22045 -5.98625,6.21825 -12.29897,9.37114 -18.76381,9.37114 -0.22644,0 -0.45497,-0.004 -0.68211,-0.0118 -11.75994,-0.38134 -20.78863,-10.89791 -20.87893,-11.00419 -0.75227,-0.90092 -1.89562,-1.43647 -3.06328,-1.43647 -0.17227,0 -0.34592,0.0118 -0.5168,0.0347 -1.36354,0.1799 -2.52078,1.03082 -3.09801,2.27697 -9.51561,20.54134 -33.14663,33.60647 -33.38419,33.73567 -1.92896,1.05096 -2.64581,3.47519 -1.59832,5.40484 0.69948,1.28505 2.04288,2.08387 3.50506,2.08387 0.66683,0 1.30449,-0.16185 1.89492,-0.48207 0.88981,-0.48276 21.93614,-12.04821 33.71206,-31.57123 l 0.52304,-0.86619 0.77798,0.64669 c 4.79497,3.98851 12.46706,8.81196 21.78402,9.14191 0.35634,0.0132 0.7099,0.0195 1.06346,0.0195 7.09903,0 13.92855,-2.67012 20.29822,-7.93605 l 0.70018,-0.57931 0.54736,0.72449 c 6.24118,8.24654 22.60645,27.44726 39.74901,27.64662 l 0.0466,5.5e-4 z"
       style="fill:#80cc28;fill-opacity:1;fill-rule:nonzero;stroke:none"
       id="path122"
       inkscape:connector-curvature="0" />
    <path
       d="m 277.57719,784.94361 c 7.30672,-6.68712 15.09065,-14.39047 20.13985,-20.87406 3.6155,-4.64632 7.8381,-8.80433 14.22515,-7.75684 9.48088,1.54762 17.35719,0.38968 24.782,-3.6419 2.60552,-1.41703 4.60951,-0.94885 6.70032,1.56082 2.4659,2.96047 5.07073,5.82717 7.83324,8.61469 1.08014,1.08986 7.06569,6.10016 8.56051,7.32131 3.21888,0.77242 7.29561,0.0854 10.64299,-1.97412 0.0285,-0.0181 -12.66017,-13.52983 -17.06268,-18.0282 -5.01655,-5.127 -10.60895,-8.6515 -10.18384,-15.03299 0.0639,-0.95649 0.034,-7.66376 -0.76408,-7.66376 -0.7627,0 -1.5247,-0.0327 -1.9505,-0.0327 -1.30797,0 -0.92037,10.84026 -0.92037,13.37215 0,0.29661 -0.0431,0.39941 -0.0403,0.39941 -0.007,0.0111 -0.75297,0.44108 -1.3691,0.72241 -6.73574,3.07439 -16.09507,5.72923 -24.24159,4.3386 -12.03153,-2.04844 -19.66542,5.41527 -24.96955,12.14754 -3.56966,4.53032 -8.27363,9.59966 -13.03318,14.36893 0,0 -17.03766,15.93253 -17.18284,16.03742 -2.12693,1.53303 -2.61317,4.51226 -1.08361,6.64058 1.0204,1.41702 2.73125,2.16235 4.46364,1.94355 0.78978,-0.10003 1.52052,-0.3876 2.17138,-0.85508 0.46609,-0.33412 13.28255,-11.60782 13.28255,-11.60782"
       style="fill:#44526c;fill-opacity:1;fill-rule:nonzero;stroke:none"
       id="path126"
       inkscape:connector-curvature="0" />
    <path
       d="m 326.56611,808.50482 c -1.37326,0 -2.5958,-0.97525 -2.85975,-2.37352 -0.2973,-1.57888 0.73908,-3.1001 2.31587,-3.40087 0.0952,-0.0187 9.63856,-1.94355 16.02074,-9.56354 3.07092,-3.66621 6.54125,-5.53405 10.31443,-5.55003 l 0.0472,0 c 5.66672,0 9.75456,4.35806 10.33804,5.01378 2.28253,2.40478 9.10718,8.75014 13.81046,9.82403 1.56915,0.35773 2.54996,1.91993 2.19223,3.48838 -0.35843,1.56776 -1.91646,2.54996 -3.48839,2.19223 -7.29491,-1.6657 -15.83459,-10.53393 -16.78413,-11.53974 l -0.0993,-0.11045 c -0.0159,-0.0187 -2.69097,-3.04174 -5.96888,-3.04174 -0.0173,0 -0.0347,0 -0.0521,0 -1.96856,0.0194 -3.93364,1.18502 -5.84316,3.46407 -7.75544,9.26069 -18.92843,11.45778 -19.40007,11.54669 -0.18269,0.0341 -0.36399,0.0507 -0.5432,0.0507"
       style="fill:#44526c;fill-opacity:1;fill-rule:nonzero;stroke:none"
       id="path130"
       inkscape:connector-curvature="0" />
    <path
       d="m 386.74261,800.37775 c 2.23251,1.98662 3.69538,3.13274 3.92391,3.30987 0.63211,0.48901 1.35035,0.80229 2.13388,0.9301 1.71849,0.28062 3.45088,-0.4001 4.51921,-1.77615 1.6011,-2.0665 1.22392,-5.05337 -0.8405,-6.65864 -0.0521,-0.0403 -4.93875,-4.13855 -4.93875,-4.13855 -2.19501,-1.88451 -5.54655,-4.89152 -9.57883,-9.26069 -2.61733,1.63097 -4.29137,3.43351 -8.75431,3.43351 3.64746,3.98574 13.53539,14.16055 13.53539,14.16055"
       style="fill:#44526c;fill-opacity:1;fill-rule:nonzero;stroke:none"
       id="path134"
       inkscape:connector-curvature="0" />
  </g>
</svg>
