<?xml version="1.0" encoding="UTF-8" standalone="no"?>
<svg
   xmlns:dc="http://purl.org/dc/elements/1.1/"
   xmlns:cc="http://creativecommons.org/ns#"
   xmlns:rdf="http://www.w3.org/1999/02/22-rdf-syntax-ns#"
   xmlns:svg="http://www.w3.org/2000/svg"
   xmlns="http://www.w3.org/2000/svg"
   viewBox="0 0 800 725"
   height="725"
   width="800"
   xml:space="preserve"
   version="1.1"
   id="svg2"><metadata
     id="metadata8"><rdf:RDF><cc:Work
         rdf:about=""><dc:format>image/svg+xml</dc:format><dc:type
           rdf:resource="http://purl.org/dc/dcmitype/StillImage" /><dc:title></dc:title></cc:Work></rdf:RDF></metadata><defs
     id="defs6" /><g
     transform="matrix(1.25,0,0,-1.25,0,725)"
     id="g10"><g
       transform="matrix(8.7773796,0,0,8.7696485,-3452.907,-401.94807)"
       id="g5428"><path
         style="fill:#004982;fill-opacity:1;fill-rule:nonzero;stroke:none"
         d="m 393.388,45.834 72.912,0 0,7.326 -72.912,0 0,-7.326 z"
         id="path5384" /><g
         id="g5390"><path
           id="path5382"
           d="m 460.283,52.074 4.299,0 0,-0.773 -1.713,0 0,-4.383 -0.873,0 0,4.383 -1.713,0 0,0.773 z"
           style="fill:#ffffff;fill-opacity:1;fill-rule:nonzero;stroke:none" /><path
           id="path5380"
           d="m 454.789,52.074 0.824,0 2.486,-3.577 0,3.577 0.839,0 0,-5.156 -0.672,0 -2.636,3.754 0,-3.754 -0.841,0 0,5.156 z"
           style="fill:#ffffff;fill-opacity:1;fill-rule:nonzero;stroke:none" /><path
           id="path5378"
           d="m 449.951,52.074 3.369,0 0,-0.773 -2.511,0 0,-1.361 2.275,0 0,-0.764 -2.275,0 0,-1.478 2.511,0 0,-0.78 -3.369,0 0,5.156 z"
           style="fill:#ffffff;fill-opacity:1;fill-rule:nonzero;stroke:none" /><path
           id="path5376"
           d="m 443.358,52.074 0.814,0 1.672,-2.688 1.663,2.688 0.78,0 0,-5.156 -0.855,0 0,3.61 -1.58,-2.502 -0.033,0 -1.604,2.502 0,-3.61 -0.857,0 0,5.156 z"
           style="fill:#ffffff;fill-opacity:1;fill-rule:nonzero;stroke:none" /><path
           id="path5374"
           d="m 438.52,52.074 3.367,0 0,-0.773 -2.511,0 0,-1.361 2.276,0 0,-0.764 -2.276,0 0,-1.478 2.511,0 0,-0.78 -3.367,0 0,5.156 z"
           style="fill:#ffffff;fill-opacity:1;fill-rule:nonzero;stroke:none" /><path
           id="path5372"
           d="m 432.875,52.074 4.299,0 0,-0.773 -1.712,0 0,-4.383 -0.873,0 0,4.383 -1.714,0 0,0.773 z"
           style="fill:#ffffff;fill-opacity:1;fill-rule:nonzero;stroke:none" /><path
           id="path5370"
           transform="matrix(0.8,0,0,-0.8,0,765.354)"
           d="m 535.11914,891.59961 0,6.44531 1.0918,0 0,-2.61328 0.77539,0 1.79687,2.61328 1.23828,0 -1.86914,-2.6543 c 1.02,-0.1575 1.64844,-0.77742 1.64844,-1.85742 0,-1.25875 -0.86156,-1.93359 -2.19531,-1.93359 l -2.48633,0 z m 1.0918,0.94531 1.375,0 c 0.725,0 1.13281,0.38828 1.13281,0.98828 0,0.59875 -0.40781,0.98438 -1.13281,0.98438 l -1.375,0 0,-1.97266 z"
           style="fill:#ffffff;fill-opacity:1;fill-rule:nonzero;stroke:none" /><path
           id="path5368"
           transform="matrix(0.8,0,0,-0.8,0,765.354)"
           d="m 530.01367,891.59961 -2.47656,6.44531 1.10351,0 0.66016,-1.78515 2.4668,0 0.66211,1.78515 1.11328,0 -2.47656,-6.44531 -1.05274,0 z m 0.51563,1.33398 0.88086,2.38282 -1.76368,0 0.88282,-2.38282 z"
           style="fill:#ffffff;fill-opacity:1;fill-rule:nonzero;stroke:none" /><path
           id="path5366"
           transform="matrix(0.8,0,0,-0.8,0,765.354)"
           d="m 522.14062,891.59961 0,6.44531 1.0918,0 0,-2.4043 1.39649,0 c 1.33375,0 2.20507,-0.70117 2.20507,-2.01367 0,-1.33375 -0.87132,-2.02734 -2.20507,-2.02734 l -2.48829,0 z m 1.0918,0.94336 1.37696,0 c 0.755,0 1.14257,0.44398 1.14257,1.08398 0,0.61875 -0.38758,1.07032 -1.14257,1.07032 l -1.37696,0 0,-2.1543 z"
           style="fill:#ffffff;fill-opacity:1;fill-rule:nonzero;stroke:none" /><path
           id="path5364"
           d="m 412.876,52.074 3.366,0 0,-0.773 -2.511,0 0,-1.361 2.276,0 0,-0.764 -2.276,0 0,-1.478 2.511,0 0,-0.78 -3.366,0 0,5.156 z"
           style="fill:#ffffff;fill-opacity:1;fill-rule:nonzero;stroke:none" /><path
           id="path5362"
           transform="matrix(0.8,0,0,-0.8,0,765.354)"
           d="m 509.06055,891.59961 0,6.44531 2.17187,0 c 1.9,0 3.12696,-1.2582 3.12696,-3.2207 0,-1.9625 -1.22696,-3.22461 -3.12696,-3.22461 l -2.17187,0 z m 1.09179,0.9668 1.03711,0 c 1.35375,0 2.08008,0.87156 2.08008,2.25781 0,1.375 -0.72633,2.24609 -2.08008,2.24609 l -1.03711,0 0,-4.5039 z"
           style="fill:#ffffff;fill-opacity:1;fill-rule:nonzero;stroke:none" /><path
           id="path5360"
           d="m 400.032,52.074 3.367,0 0,-0.773 -2.511,0 0,-1.361 2.276,0 0,-0.764 -2.276,0 0,-1.478 2.511,0 0,-0.78 -3.367,0 0,5.156 z"
           style="fill:#ffffff;fill-opacity:1;fill-rule:nonzero;stroke:none" /><path
           id="path742"
           d="m 395.269,52.074 0.874,0 0,-4.376 2.477,0 0,-0.78 -3.351,0 0,5.156 z"
           style="fill:#ffffff;fill-opacity:1;fill-rule:nonzero;stroke:none" /></g><path
         d="m 396.5815,76.3372 c 0.273,0.179 6.021,3.773 8.358,5.118 1.952,1.12 4.461,2.217 7.672,3.352 1.442,0.51 3.196,0.769 5.212,0.769 1.973,0 3.824,-0.244 5.047,-0.405 0.211,-0.028 0.403,-0.055 0.579,-0.078 1.216,-0.151 2.606,-0.414 4.213,-0.719 3.601,-0.683 8.083,-1.535 13.469,-1.666 0.163,-0.005 0.352,-0.007 0.558,-0.007 1.047,0 2.464,0.05 3.396,0.13 l 3.356,-3.859 3.145,5.301 0,10e-4 c 0.327,0.105 0.65,0.213 0.969,0.323 0.034,0.011 0.064,0.024 0.097,0.036 0.26,0.091 0.516,0.186 0.77,0.282 0.125,0.046 0.246,0.095 0.37,0.145 0.154,0.059 0.308,0.121 0.459,0.185 0.157,0.063 0.309,0.127 0.463,0.195 0.107,0.045 0.213,0.091 0.318,0.138 0.177,0.079 0.355,0.159 0.529,0.241 0.049,0.022 0.097,0.047 0.146,0.069 1.052,0.499 2.051,1.046 2.984,1.646 1.692,1.085 3.004,2.218 4.011,3.264 0.034,0.035 0.068,0.07 0.102,0.107 0.016,0.015 0.031,0.034 0.048,0.049 0.77,0.817 1.353,1.573 1.778,2.203 0.193,0.282 0.643,0.944 0.631,1.965 -0.013,1.082 -0.429,2.245 -1.115,3.109 -0.589,0.743 -1.651,1.628 -3.368,1.628 -1.552,0 -3.302,-0.731 -5.199,-2.173 -0.331,-0.25 -0.667,-0.494 -1.008,-0.728 -0.121,-0.085 -0.248,-0.164 -0.37,-0.246 -0.217,-0.144 -0.432,-0.29 -0.652,-0.429 -0.23,-0.144 -0.464,-0.279 -0.696,-0.417 -0.117,-0.07 -0.232,-0.142 -0.351,-0.21 -0.292,-0.166 -0.591,-0.325 -0.89,-0.483 -0.06,-0.031 -0.12,-0.065 -0.18,-0.096 -0.338,-0.174 -0.681,-0.341 -1.028,-0.502 -0.023,-0.013 -0.044,-0.023 -0.069,-0.034 -0.367,-0.17 -0.738,-0.333 -1.116,-0.488 -10e-4,-0.001 -0.005,-0.001 -0.008,-0.004 -0.757,-0.311 -1.536,-0.595 -2.33,-0.85 -0.005,-0.001 -0.01,-0.002 -0.014,-0.005 l -13.23,16.095 -0.106,0.13 -0.699,-0.713 -1.387,1.706 -1.161,-0.961 -2.18,2.52 -21.321,-21.782 -0.002,-0.002 c -0.546,-0.284 -1.082,-0.589 -1.605,-0.916 -0.05,-0.032 -0.1,-0.063 -0.15,-0.095 -0.15,-0.093 -0.298,-0.19 -0.447,-0.291 -0.115,-0.077 -0.231,-0.158 -0.344,-0.238 -0.158,-0.11 -0.315,-0.223 -0.471,-0.337 -0.14,-0.102 -0.277,-0.207 -0.413,-0.312 -0.082,-0.063 -0.162,-0.125 -0.241,-0.19 -0.195,-0.155 -0.388,-0.313 -0.577,-0.474 -0.014,-0.014 -0.031,-0.025 -0.045,-0.039 -0.937,-0.804 -1.833,-1.744 -2.642,-2.748 -1.288,-1.602 -2.352,-3.375 -2.998,-5.05 l -0.004,-0.005 -10e-4,-0.005 0,-0.003 c -0.361,-1.098 -0.726,-2.771 -0.742,-2.842 l -0.186,-0.854 0,-0.001 0.662,0.548 0.004,0.002 z m 40.885,15.258 -0.004,0 c -0.202,-0.007 -0.407,-0.012 -0.612,-0.018 -0.371,-0.012 -0.746,-0.018 -1.123,-0.018 -0.313,0 -0.634,0.002 -0.953,0.008 -0.815,0.019 -3.086,0.205 -5.717,0.422 -3.936,0.324 -8.763,0.721 -11.401,0.778 l 0.002,10e-4 9.949,10.167 9.859,-11.34 z m -34.782,-4.529 c 4.576,3.93 9.537,5.017 12.732,5.319 l 0.325,0.326 10.992,11.234 0.676,-0.78 -10.17,-10.389 0,0 -0.279,-0.306 c 3.863,0.022 15.658,-1.157 17.81,-1.206 4.297,-0.09 7.99,0.448 11.161,1.357 l -0.192,0.236 -12.713,15.613 0.483,0.495 13.037,-15.857 0.201,-0.242 c 3.702,1.168 6.665,2.839 9.016,4.581 7.726,5.722 10.156,-1.99 8.865,-3.709 -2.673,-3.556 -10.232,-5.199 -17.997,-5.466 -4.552,-0.158 -8.291,0.547 -14.352,1.488 -3.843,0.596 -12.101,1.674 -17.241,0.785 -5.142,-0.892 -14.236,-4.865 -17.952,-11.51 -0.1,-0.179 -0.184,-0.359 -0.264,-0.536 0.728,2.513 2.925,6.042 5.862,8.567"
         style="fill:#004982;fill-opacity:1;fill-rule:nonzero;stroke:none"
         id="path694" /><g
         id="g5405"><path
           id="path696"
           style="fill:#004982;fill-opacity:1;fill-rule:nonzero;stroke:none"
           d="m 395.247,68.2395 2.378,0 c 2.27,0 3.754,1.197 3.754,3.431 0,2.27 -1.484,3.451 -3.754,3.451 l -4.238,0 0,-10.978 1.86,0 0,4.096 z m 0,5.272 2.341,0 c 1.288,0 1.948,-0.75 1.948,-1.841 0,-1.054 -0.66,-1.823 -1.948,-1.823 l -2.341,0 0,3.664 z" /><path
           id="path698"
           style="fill:#004982;fill-opacity:1;fill-rule:nonzero;stroke:none"
           d="m 407.298,68.524 3.986,6.598 -1.966,0 -2.896,-4.917 -2.914,4.917 -2.021,0 3.971,-6.598 0,-4.38 1.84,0 0,4.38 z" /><path
           id="path700"
           style="fill:#004982;fill-opacity:1;fill-rule:nonzero;stroke:none"
           d="m 417.5233,68.6678 c 1.735,0.266 2.807,1.322 2.807,3.162 0,2.147 -1.465,3.291 -3.737,3.291 l -4.236,0 0,-10.977 1.859,0 0,4.451 1.323,0 3.058,-4.451 2.109,0 -3.183,4.524 z m -3.307,1.484 0,3.359 2.341,0 c 1.235,0 1.932,-0.66 1.932,-1.681 0,-1.017 -0.697,-1.678 -1.932,-1.678 l -2.341,0 z" /><path
           id="path702"
           style="fill:#004982;fill-opacity:1;fill-rule:nonzero;stroke:none"
           d="m 429.081,73.4763 0,1.645 -7.168,0 0,-10.978 7.168,0 0,1.663 -5.343,0 0,3.147 4.844,0 0,1.627 -4.844,0 0,2.896 5.343,0 z" /><path
           id="path704"
           style="fill:#004982;fill-opacity:1;fill-rule:nonzero;stroke:none"
           d="m 439.591,64.1438 0,10.978 -1.788,0 0,-7.616 -5.291,7.616 -1.752,0 0,-10.978 1.787,0 0,7.992 5.614,-7.992 1.43,0 z" /><path
           id="path706"
           style="fill:#004982;fill-opacity:1;fill-rule:nonzero;stroke:none"
           d="m 448.8725,65.8062 -5.345,0 0,3.147 4.846,0 0,1.628 -4.846,0 0,2.895 5.345,0 0,1.645 -7.168,0 0,-10.977 7.168,0 0,1.662 z" /><path
           id="path708"
           style="fill:#004982;fill-opacity:1;fill-rule:nonzero;stroke:none"
           d="m 457.718,65.8062 -5.345,0 0,3.147 4.846,0 0,1.628 -4.846,0 0,2.895 5.345,0 0,1.645 -7.168,0 0,-10.977 7.168,0 0,1.662 z" /><path
           id="path710"
           style="fill:#004982;fill-opacity:1;fill-rule:nonzero;stroke:none"
           d="m 462.5287,73.6722 c 1.288,0 2.288,-0.481 3.201,-1.179 l 0,1.912 c -0.877,0.573 -2.003,0.894 -3.236,0.894 -2.021,0 -3.701,-1.054 -3.701,-2.985 0,-1.805 1.109,-2.593 2.575,-3.127 l 1.59,-0.574 c 0.983,-0.374 1.537,-0.714 1.537,-1.574 0,-0.981 -0.876,-1.429 -2.127,-1.429 -1.287,0 -2.484,0.465 -3.486,1.269 l 0,-1.949 c 0.769,-0.535 2.021,-0.964 3.486,-0.964 2.234,0 3.934,1.108 3.934,3.109 0,1.592 -0.787,2.558 -2.503,3.182 l -1.772,0.645 c -0.911,0.323 -1.428,0.643 -1.428,1.447 0,0.895 0.822,1.323 1.93,1.323" /></g><g
         id="g5415"><path
           id="path712"
           style="fill:#004982;fill-opacity:1;fill-rule:nonzero;stroke:none"
           d="m 395.471,57.0801 2.914,0 0.783,-2.109 1.313,0 -2.926,7.615 -1.24,0 -2.928,-7.615 1.303,0 0.781,2.109 z m 1.451,3.931 1.041,-2.815 -2.083,0 1.042,2.815 z" /><path
           id="path714"
           style="fill:#004982;fill-opacity:1;fill-rule:nonzero;stroke:none"
           d="m 404.1776,54.9713 0,6.474 2.529,0 0,1.141 -6.35,0 0,-1.141 2.531,0 0,-6.474 1.29,0 z" /><path
           id="path716"
           style="fill:#004982;fill-opacity:1;fill-rule:nonzero;stroke:none"
           d="m 412.8704,56.1251 -3.658,0 0,6.462 -1.29,0 0,-7.616 4.948,0 0,1.154 z" /><path
           id="path718"
           style="fill:#004982;fill-opacity:1;fill-rule:nonzero;stroke:none"
           d="m 416.5167,62.5868 -2.925,-7.615 1.301,0 0.782,2.109 2.914,0 0.78,-2.109 1.315,0 -2.926,7.615 -1.241,0 z m -0.433,-4.39 1.041,2.814 1.042,-2.814 -2.083,0 z" /><path
           id="path720"
           style="fill:#004982;fill-opacity:1;fill-rule:nonzero;stroke:none"
           d="m 422.9917,62.5868 -1.216,0 0,-7.615 1.239,0 0,5.544 3.896,-5.544 0.992,0 0,7.615 -1.24,0 0,-5.283 -3.671,5.283 z" /><path
           id="path722"
           style="fill:#004982;fill-opacity:1;fill-rule:nonzero;stroke:none"
           d="m 432.9387,54.9713 0,6.474 2.53,0 0,1.141 -6.35,0 0,-1.141 2.53,0 0,-6.474 1.29,0 z" /><path
           id="path724"
           style="fill:#004982;fill-opacity:1;fill-rule:nonzero;stroke:none"
           d="m 436.684,54.972 1.29,0 0,7.615 -1.29,0 0,-7.615 z" /><path
           id="path726"
           style="fill:#004982;fill-opacity:1;fill-rule:nonzero;stroke:none"
           d="m 442.7615,62.7104 c -2.06,0 -3.509,-1.649 -3.509,-3.931 0,-2.271 1.449,-3.931 3.509,-3.931 0.582,0 1.128,0.135 1.6,0.384 l 0.62,-0.769 0.88,0.67 -0.633,0.781 c 0.658,0.695 1.054,1.699 1.054,2.865 0,2.282 -1.462,3.931 -3.521,3.931 m 1.736,-5.879 -0.608,0.758 -0.892,-0.658 0.631,-0.782 c -0.26,-0.098 -0.545,-0.149 -0.867,-0.149 -1.339,0 -2.209,1.167 -2.209,2.779 0,1.613 0.87,2.777 2.209,2.777 1.339,0 2.22,-1.164 2.22,-2.777 0,-0.844 -0.174,-1.489 -0.484,-1.948" /><path
           id="path728"
           style="fill:#004982;fill-opacity:1;fill-rule:nonzero;stroke:none"
           d="m 450.4749,54.8484 c 1.824,0 3.052,1.066 3.052,3.15 l 0,4.589 -1.291,0 0,-4.44 c 0,-1.464 -0.62,-2.146 -1.761,-2.146 -1.139,0 -1.76,0.682 -1.76,2.146 l 0,4.44 -1.291,0 0,-4.577 c 0,-2.096 1.241,-3.162 3.051,-3.162" /><path
           id="path730"
           style="fill:#004982;fill-opacity:1;fill-rule:nonzero;stroke:none"
           d="m 460.0618,61.4449 0,1.142 -4.973,0 0,-7.616 4.973,0 0,1.154 -3.708,0 0,2.183 3.361,0 0,1.128 -3.361,0 0,2.009 3.708,0 z" /><path
           id="path732"
           style="fill:#004982;fill-opacity:1;fill-rule:nonzero;stroke:none"
           d="m 464.5641,59.2133 -1.228,0.447 c -0.633,0.223 -0.991,0.446 -0.991,1.003 0,0.622 0.569,0.92 1.339,0.92 0.892,0 1.588,-0.337 2.219,-0.821 l 0,1.329 c -0.606,0.396 -1.388,0.619 -2.244,0.619 -1.401,0 -2.568,-0.733 -2.568,-2.072 0,-1.251 0.77,-1.797 1.787,-2.169 l 1.103,-0.399 c 0.682,-0.258 1.067,-0.495 1.067,-1.089 0,-0.682 -0.608,-0.991 -1.476,-0.991 -0.892,0 -1.725,0.321 -2.419,0.879 l 0,-1.353 c 0.535,-0.37 1.402,-0.667 2.419,-0.667 1.55,0 2.729,0.768 2.729,2.157 0,1.104 -0.546,1.773 -1.737,2.207" /></g></g></g></svg>