<svg xmlns="http://www.w3.org/2000/svg" xmlns:xlink="http://www.w3.org/1999/xlink" style="" data-svgdocument="" id="_u3rYugtTdbOIixfmeLH_9" class="fl-svgdocument" x="0" y="0" overflow="hidden" data-bbox="56.02673814795418 167.58857282157794 399.9465237040917 100.24371771145013" viewBox="48.7 205.95 414.59 100.11">
  <defs id="_TalAbqNc3W0CmzKFmhq4c" transform="matrix(0.9291672110557556, 0, 0, 0.9291672110557556, 21.60029411315918, 18.506458282470703)"/>
  <g id="_yhKftlJO5k3FGe_HqkKAW" transform="matrix(0.7561948036325067, 0, 0, 0.7284836361759751, -39.968071947268854, 69.8007707625268)">
    <path id="_6y6w9qskfNP9aZBePAvix" fill="#083b66" transform="matrix(0.4642426669597626, -0.3131462335586548, 0.3131462335586548, 0.4642426669597626, 218.6826171875, 242.23971557617188)" data-type="rect" data-x="-0.013" data-y="0" data-width="176.769" data-height="176.769" d="M-0.013 0H176.756 V176.769 H-0.013 Z"/>
    <path id="_x1G6V-Hsr1jq7qBPtG3DG" d="M11.476,66.845c-1.025,0-1.898-0.783-1.99-1.824c-0.04-0.45-0.095-0.914-0.149-1.387    c-0.277-2.371-0.623-5.322,0.688-8.052c1.57-3.272,5.917-3.191,8.238-2.626c1.074,0.261,1.732,1.342,1.472,2.415    c-0.26,1.072-1.34,1.727-2.409,1.474c-1.055-0.25-3.291-0.372-3.695,0.469c-0.809,1.685-0.561,3.805-0.32,5.855    c0.06,0.512,0.118,1.013,0.161,1.5c0.098,1.1-0.716,2.07-1.816,2.168C11.594,66.842,11.534,66.845,11.476,66.845z" fill="#ffffff" transform="matrix(1.2331511974334717, 0, 0, 1.2331511974334717, 226.48904418945312, 194.9276580810547)"/>
    <path id="_88dj5PyOrhbmGkKPu85Rz" d="M18.598,63.696c-1.026,0-1.899-0.785-1.99-1.826c-0.04-0.453-0.095-0.921-0.15-1.397c-0.276-2.367-0.62-5.313,0.689-8.04    c1.572-3.269,5.919-3.189,8.238-2.627c1.073,0.26,1.733,1.341,1.473,2.414c-0.259,1.071-1.335,1.728-2.409,1.475    c-1.053-0.248-3.293-0.37-3.696,0.472c-0.808,1.681-0.561,3.797-0.321,5.843c0.06,0.517,0.118,1.022,0.161,1.514    c0.097,1.101-0.718,2.07-1.818,2.166C18.715,63.694,18.655,63.696,18.598,63.696z" fill="#ffffff" transform="matrix(1.2331511974334717, 0, 0, 1.2331511974334717, 226.48973083496094, 194.9267578125)"/>
    <path id="_9zBy5JYkTvaUmxi2mVirs" d="M38.22,75.45c-0.929,0-1.762-0.65-1.957-1.596c-0.477-2.311-7.649-34.64-8.795-39.804c-0.19-0.046-0.497-0.075-0.94-0.021    c-0.259,0.031-0.602,0.532-0.796,0.945c0.263,2.861,1.684,18.308,2.343,23.794c0.132,1.097-0.65,2.092-1.747,2.224    c-1.085,0.131-2.092-0.649-2.224-1.747c-0.731-6.082-2.381-24.184-2.397-24.365c-0.022-0.256,0.003-0.513,0.077-0.758    c0.113-0.377,1.197-3.695,4.27-4.064c3.552-0.425,4.826,1.654,4.959,1.893c0.096,0.17,0.165,0.353,0.207,0.543    c0.345,1.552,8.44,38.025,8.962,40.553c0.223,1.082-0.473,2.14-1.555,2.363C38.489,75.438,38.354,75.45,38.22,75.45z" fill="#ffffff" transform="matrix(1.2331511974334717, 0, 0, 1.2331511974334717, 226.37237548828125, 195.08717346191406)"/>
    <path id="_9IXZ23jXr_jGdKbKtA1CV" d="M36.462,94.681c-0.747,0-1.465-0.421-1.808-1.142c-0.474-0.997-0.05-2.19,0.948-2.665    c2.774-1.318,4.439-4.622,4.837-6.394c0.07-0.318,0.119-0.635,0.17-0.956c0.267-1.694,0.598-3.803,3.318-7.169    c3.45-4.269,6.869-5.123,8.512-5.534c1.149-0.289,2.416,0.01,3.642,0.298c0.293,0.069,0.693,0.163,1.045,0.229    c-0.064-0.514-0.418-1.048-1.471-1.977c-1.757-1.551-6.261-0.682-8.471,0.573c-5.374,3.054-8.939,1.729-10.985,0.079    c-0.859-0.693-0.994-1.953-0.301-2.812c0.694-0.86,1.952-0.993,2.812-0.301c1.567,1.266,3.755,1.116,6.497-0.443    c2.516-1.431,9.309-3.438,13.094-0.095c2.06,1.815,3.3,3.643,2.656,6.66c-0.173,0.81-0.618,1.463-1.289,1.888    c-1.323,0.84-2.939,0.461-4.503,0.094c-0.554-0.131-1.481-0.353-1.78-0.307c-1.383,0.347-3.738,0.936-6.347,4.162    c-2.047,2.533-2.257,3.865-2.479,5.276c-0.063,0.405-0.128,0.802-0.218,1.207c-0.701,3.126-3.197,7.316-7.023,9.135    C37.042,94.619,36.75,94.681,36.462,94.681z" fill="#ffffff" transform="matrix(1.2331511974334717, 0, 0, 1.2331511974334717, 226.46092224121094, 194.8919219970703)"/>
    <path id="_-y56rPu53oofsph_5kt5p" d="M85.429,46.693c-0.952,0-1.852-0.127-2.562-0.3c-1.074-0.261-1.732-1.342-1.472-2.415c0.26-1.071,1.34-1.728,2.409-1.474    c1.053,0.249,3.291,0.371,3.695-0.469c0.809-1.685,0.561-3.805,0.32-5.855c-0.06-0.512-0.118-1.013-0.161-1.5    c-0.098-1.1,0.716-2.07,1.816-2.168c1.104-0.089,2.071,0.716,2.168,1.816c0.04,0.45,0.095,0.914,0.149,1.387    c0.277,2.371,0.623,5.322-0.688,8.052C90.016,46.038,87.588,46.693,85.429,46.693z" fill="#ffffff" transform="matrix(1.2331511974334717, 0, 0, 1.2331511974334717, 226.75164794921875, 195.1887969970703)"/>
    <path id="_WXZqcyn8m42I2UIskguQh" d="M78.299,49.843c-0.949,0-1.847-0.127-2.555-0.299c-1.073-0.26-1.733-1.341-1.473-2.414    c0.259-1.071,1.335-1.729,2.409-1.475c1.053,0.248,3.294,0.369,3.696-0.472c0.808-1.681,0.561-3.797,0.321-5.843    c-0.06-0.517-0.118-1.022-0.161-1.514c-0.097-1.101,0.718-2.07,1.818-2.166c1.097-0.112,2.07,0.719,2.166,1.818    c0.04,0.453,0.095,0.921,0.15,1.397c0.276,2.367,0.62,5.313-0.689,8.04C82.891,49.188,80.459,49.843,78.299,49.843z" fill="#ffffff" transform="matrix(1.2331511974334717, 0, 0, 1.2331511974334717, 226.4897918701172, 194.92942810058594)"/>
    <path id="_JKs9eDBk10ntuoRlGScD_" d="M74.154,69.349c-2.856,0-3.916-1.732-4.037-1.949c-0.096-0.17-0.165-0.353-0.207-0.543    c-0.345-1.552-8.44-38.025-8.962-40.553c-0.223-1.082,0.473-2.14,1.555-2.363c1.083-0.227,2.14,0.474,2.363,1.555    c0.477,2.311,7.649,34.64,8.795,39.804c0.19,0.046,0.497,0.075,0.94,0.021c0.259-0.031,0.602-0.532,0.796-0.945    c-0.263-2.861-1.684-18.308-2.343-23.794c-0.132-1.097,0.65-2.092,1.747-2.224c1.093-0.13,2.092,0.65,2.224,1.747    c0.731,6.082,2.381,24.184,2.397,24.365c0.022,0.256-0.003,0.513-0.077,0.758c-0.113,0.377-1.197,3.695-4.27,4.064    C74.75,69.331,74.443,69.349,74.154,69.349z" fill="#ffffff" transform="matrix(1.2331511974334717, 0, 0, 1.2331511974334717, 226.37274169921875, 195.08804321289062)"/>
    <path id="_eaqEJLqxmAiupka-qJKo7" d="M48.375,34.801c-2.021,0-4.026-0.479-5.548-1.823c-2.06-1.815-3.3-3.643-2.656-6.66c0.173-0.81,0.618-1.463,1.289-1.888    c1.323-0.839,2.939-0.461,4.503-0.094c0.553,0.131,1.484,0.354,1.78,0.307c1.383-0.347,3.738-0.936,6.347-4.162    c2.047-2.533,2.257-3.865,2.479-5.276c0.063-0.405,0.128-0.802,0.218-1.207c0.701-3.126,3.197-7.316,7.023-9.135    C64.806,4.39,66,4.812,66.475,5.811c0.474,0.997,0.05,2.19-0.948,2.665c-2.774,1.318-4.439,4.622-4.837,6.394    c-0.07,0.318-0.119,0.635-0.17,0.956c-0.267,1.694-0.598,3.803-3.318,7.169c-3.45,4.269-6.869,5.123-8.512,5.534    c-1.15,0.288-2.416-0.01-3.642-0.298c-0.293-0.069-0.693-0.163-1.045-0.229c0.064,0.514,0.418,1.048,1.471,1.977    c1.759,1.551,6.262,0.684,8.471-0.573c5.375-3.054,8.939-1.729,10.985-0.079c0.859,0.693,0.994,1.953,0.301,2.812    c-0.695,0.861-1.952,0.992-2.812,0.301c-1.566-1.266-3.755-1.115-6.497,0.443C54.416,33.738,51.381,34.801,48.375,34.801z" fill="#ffffff" transform="matrix(1.2331511974334717, 0, 0, 1.2331511974334717, 226.4622344970703, 194.8911895751953)"/>
    <path id="_gaNJvBAefjbOp1k_C3Jxf" d="M93.308,14.563h-1.593h-0.105v-3.087h-1.389H88.63h-0.106v-0.105V8.969V8.391h-1.39h-1.591h-0.105V8.284V6.392V5.305H57.769  v1.509v1.471v0.106h-3.087v1.49v1.49v0.105h-3.085v1.779v1.201v0.106h-1.261H48.51h-0.105v-3.087h-0.858h-2.122h-0.106v-0.105v-0.4  v-2.58h-3.086V8.305h0.002l0.009-2.98h-27.66l-0.02,3.066h-0.106h-1.489h-1.49v3.084H8.375v2.362v0.616v0.11H8.284H6.161H5.305  v3.085v2.98v0.106v2.98v0.106v2.979v0.106v2.979v0.106v2.979v0.106v2.98v0.105v2.98v0.106v2.979v0.105v2.979v0.107v2.98v0.102v2.98  h1.264v0.004h1.822v0.104v0.548v2.43h3.086v0.004v0.107v2.98h3.086v0.105v2.979h3.086v0.105V61.4v0.397v2.037h3.087v0.106v0.547  v2.432h3.085v0.104v1.063v1.917h3.087v0.109v1.061v1.92h3.086v0.104v1.062v1.915h3.087v0.005v0.106v1.059v1.922h3.085v0.104v1.061  v1.921h3.086v0.104v1.061v1.921h3.087v0.105v1.06v1.921h3.086v0.105v1.06v1.921h3.086v3.085h2.979V91.61h0.107h1.805h1.175v-0.95  v-2.03v-0.105h3.086v-0.947v-2.033v-0.105h3.085v-1.12v-1.861v-0.104h3.087v-1.491v-1.49v-0.104h3.086v-1.49v-1.49v-0.111h3.087  v-1.921v-1.057v-0.104h3.085v-1.709v-1.271v-0.109h3.088v-1.242v-1.738V66.92h3.085v-1.489v-1.489v-0.106h3.087v-1.49v-1.49v-0.105  h3.086v-0.846V57.77v-0.105h3.086v-0.523v-2.457v-0.111h3.086v-0.884v-2.094v-0.104h1.166v-0.004h1.92v-2.98v-0.102v-2.98v-0.107  v-2.979v-0.105v-2.979v-0.106v-2.98v-0.105v-2.98v-0.106v-2.979v-0.106v-2.979v-0.106v-2.979v-0.106v-2.98v-0.106v-2.98v-3.085  H93.308z M26.8,11.371h-9.258v0.019v3.067h-3.086v0.02v3.066H11.37v12.345H8.284V17.562v-0.02h0.857v-0.004h2.213v0.004h0.016  v-3.069h-0.016v-0.021h0.122v0.004h2.979V11.39v-0.019h3.086V8.305H26.8V11.371z" fill="#ec4c4c" transform="matrix(0.3571043014526367, 0, 0, 0.3571043014526367, 269.3044738769531, 237.75625610351562)"/>
  </g>
  <path id="_QN3aWTmr5MxUrYcaTIly0" fill="#ec4c4c" transform="matrix(0.5196128461089918, 0, 0, 0.5005713524066775, 125.13808074553666, 283.0209735018976)" text="rdv" text-anchor="end" font-size="100" letter-spacing="0" side="left" offset="1" dx="0" dy="0" space="preserve" href="" font-family="Baloo Bhai" font-scale="contain" x="0" y="0" data-fl-textpath="" font-weight="400" font-style="normal" d="M-130.10000000000002-34.2L-130.10000000000002-0.1Q-131.10000000000002 0.2 -133.25 0.5Q-135.4 0.8 -137.70000000000002 0.8L-137.70000000000002 0.8Q-139.9 0.8 -141.65 0.5Q-143.4 0.2 -144.60000000000002-0.7Q-145.8-1.6 -146.45000000000002-3.15Q-147.10000000000002-4.7 -147.10000000000002-7.2L-147.10000000000002-7.2L-147.10000000000002-37.2Q-147.10000000000002-39.5 -146.25-41.15Q-145.4-42.8 -143.8-44.1L-143.8-44.1Q-142.20000000000002-45.4 -139.85000000000002-46.45Q-137.5-47.5 -134.8-48.3Q-132.10000000000002-49.1 -129.20000000000002-49.55Q-126.30000000000001-50 -123.4-50L-123.4-50Q-118.60000000000001-50 -115.80000000000001-48.15Q-113.00000000000001-46.3 -113.00000000000001-42.1L-113.00000000000001-42.1Q-113.00000000000001-40.7 -113.4-39.35Q-113.80000000000001-38 -114.4-36.9L-114.4-36.9Q-116.50000000000001-36.9 -118.70000000000002-36.7Q-120.9-36.5 -123.00000000000001-36.1Q-125.10000000000001-35.7 -126.95000000000002-35.25Q-128.8-34.8 -130.10000000000002-34.2L-130.10000000000002-34.2ZM-110.00000000000001-24.3L-110.00000000000001-24.3Q-110.00000000000001-30.9 -108.00000000000001-35.75Q-106.00000000000001-40.6 -102.45-43.8Q-98.9-47 -94.15-48.55Q-89.4-50.1 -83.9-50.1L-83.9-50.1Q-81.9-50.1 -80-49.75Q-78.10000000000001-49.4 -76.9-48.9L-76.9-48.9L-76.9-65.1Q-75.9-65.4 -73.70000000000002-65.75Q-71.5-66.1 -69.20000000000002-66.1L-69.20000000000002-66.1Q-67-66.1 -65.25-65.8Q-63.50000000000001-65.5 -62.30000000000001-64.6Q-61.10000000000001-63.7 -60.50000000000001-62.15Q-59.900000000000006-60.6 -59.900000000000006-58.1L-59.900000000000006-58.1L-59.900000000000006-10.7Q-59.900000000000006-6 -64.30000000000001-3.2L-64.30000000000001-3.2Q-67.20000000000002-1.3 -71.80000000000001 0.15Q-76.4 1.6 -82.4 1.6L-82.4 1.6Q-88.9 1.6 -94.05000000000001-0.2Q-99.2-2 -102.75000000000001-5.4Q-106.30000000000001-8.8 -108.15-13.55Q-110.00000000000001-18.3 -110.00000000000001-24.3ZM-81.60000000000001-36.8L-81.60000000000001-36.8Q-87-36.8 -89.9-33.7Q-92.80000000000001-30.6 -92.80000000000001-24.3L-92.80000000000001-24.3Q-92.80000000000001-18.1 -90.10000000000001-14.95Q-87.4-11.8 -82.30000000000001-11.8L-82.30000000000001-11.8Q-80.5-11.8 -79.05000000000001-12.35Q-77.60000000000001-12.9 -76.80000000000001-13.6L-76.80000000000001-13.6L-76.80000000000001-35.6Q-78.80000000000001-36.8 -81.60000000000001-36.8ZM-16.800000000000004-1.3L-16.800000000000004-1.3Q-18.20000000000001-0.2 -20.900000000000006 0.5Q-23.60000000000001 1.2 -27.000000000000007 1.2L-27.000000000000007 1.2Q-30.900000000000006 1.2 -33.75000000000001 0.2Q-36.60000000000001-0.8 -37.7-3L-37.7-3Q-38.60000000000001-4.7 -39.85000000000001-7.75Q-41.10000000000001-10.8 -42.50000000000001-14.55Q-43.900000000000006-18.3 -45.400000000000006-22.6Q-46.900000000000006-26.9 -48.25000000000001-31.1Q-49.60000000000001-35.3 -50.70000000000001-39.2Q-51.800000000000004-43.1 -52.50000000000001-46.1L-52.50000000000001-46.1Q-51.10000000000001-47.5 -48.75000000000001-48.55Q-46.400000000000006-49.6 -43.60000000000001-49.6L-43.60000000000001-49.6Q-40.10000000000001-49.6 -37.85000000000001-48.15Q-35.60000000000001-46.7 -34.50000000000001-42.7L-34.50000000000001-42.7L-30.60000000000001-27.4Q-29.500000000000007-22.9 -28.500000000000007-19.25Q-27.500000000000007-15.6 -27.000000000000007-13.6L-27.000000000000007-13.6L-26.500000000000007-13.6Q-24.60000000000001-21 -22.500000000000007-30Q-20.400000000000006-39 -18.70000000000001-47.7L-18.70000000000001-47.7Q-17.000000000000007-48.6 -14.850000000000009-49.1Q-12.70000000000001-49.6 -10.70000000000001-49.6L-10.70000000000001-49.6Q-7.20000000000001-49.6 -4.800000000000004-48.1Q-2.4000000000000057-46.6 -2.4000000000000057-42.9L-2.4000000000000057-42.9Q-2.4000000000000057-41.3 -3.1500000000000057-38.25Q-3.9000000000000057-35.2 -5.050000000000004-31.35Q-6.20000000000001-27.5 -7.750000000000007-23.2Q-9.300000000000004-18.9 -10.900000000000006-14.8Q-12.500000000000007-10.7 -14.050000000000004-7.15Q-15.600000000000009-3.6 -16.800000000000004-1.3Z"/>
  <path id="_Mi6vVcmW2YaLirRYVWwIr" fill="#ec4c4c" transform="matrix(0.5603353667564934, 0, 0, 0.5398015742662289, 232.43879403797905, 283.61836300829845)" text="insertion" text-anchor="start" font-size="100" letter-spacing="0" side="left" offset="0" dx="0" dy="0" space="preserve" href="" font-family="Baloo Bhai" font-scale="contain" x="0" y="0" data-fl-textpath="" font-weight="400" font-style="normal" d="M 4.8-62.1L 4.8-62.1Q 4.8-65.9  7.35-68.5Q 9.9-71.1  14.1-71.1L 14.1-71.1Q 18.3-71.1  20.85-68.5Q 23.4-65.9  23.4-62.1L 23.4-62.1Q 23.4-58.3  20.85-55.7Q 18.3-53.1  14.1-53.1L 14.1-53.1Q 9.9-53.1  7.35-55.7Q 4.8-58.3  4.8-62.1ZM 22.6-40.8L 22.6-0.1Q 21.5 0.1  19.35 0.45Q 17.2 0.8  15 0.8L 15 0.8Q 12.8 0.8  11.05 0.5Q 9.3 0.2  8.1-0.7Q 6.9-1.6  6.25-3.15Q 5.6-4.7  5.6-7.2L 5.6-7.2L 5.6-47.9Q 6.7-48.1  8.85-48.45Q 11-48.8  13.2-48.8L 13.2-48.8Q 15.4-48.8  17.15-48.5Q 18.9-48.2  20.1-47.3Q 21.3-46.4  21.95-44.85Q 22.6-43.3  22.6-40.8L 22.6-40.8ZM 64.2-7.2L 64.2-30.8Q 64.2-33.9  62.45-35.35Q 60.7-36.8  57.7-36.8L 57.7-36.8Q 55.7-36.8  53.75000000000001-36.3Q 51.80000000000001-35.8  50.400000000000006-34.8L 50.400000000000006-34.8L 50.400000000000006-0.1Q 49.400000000000006 0.2  47.25000000000001 0.5Q 45.10000000000001 0.8  42.800000000000004 0.8L 42.800000000000004 0.8Q 40.60000000000001 0.8  38.85000000000001 0.5Q 37.10000000000001 0.2  35.900000000000006-0.7Q 34.7-1.6  34.050000000000004-3.15Q 33.400000000000006-4.7  33.400000000000006-7.2L 33.400000000000006-7.2L 33.400000000000006-37.2Q 33.400000000000006-39.9  34.550000000000004-41.6Q 35.7-43.3  37.7-44.7L 37.7-44.7Q 41.10000000000001-47.1  46.25000000000001-48.6Q 51.400000000000006-50.1  57.7-50.1L 57.7-50.1Q 69-50.1  75.10000000000001-45.15Q 81.2-40.2  81.2-31.4L 81.2-31.4L 81.2-0.1Q 80.2 0.2  78.05000000000001 0.5Q 75.9 0.8  73.60000000000001 0.8L 73.60000000000001 0.8Q 71.4 0.8  69.65 0.5Q 67.9 0.2  66.7-0.7Q 65.5-1.6  64.85000000000001-3.15Q 64.2-4.7  64.2-7.2L 64.2-7.2ZM 132.7-14.5L 132.7-14.5Q 132.7-6.9  127-2.6Q 121.3 1.7  110.2 1.7L 110.2 1.7Q 106 1.7  102.4 1.1Q 98.8 0.5  96.25-0.75Q 93.7-2  92.25-3.9Q 90.8-5.8  90.8-8.4L 90.8-8.4Q 90.8-10.8  91.8-12.45Q 92.8-14.1  94.2-15.2L 94.2-15.2Q 97.1-13.6  100.85-12.35Q 104.6-11.1  109.5-11.1L 109.5-11.1Q 112.6-11.1  114.25-12Q 115.9-12.9  115.9-14.4L 115.9-14.4Q 115.9-15.8  114.7-16.6Q 113.5-17.4  110.7-17.9L 110.7-17.9L 107.7-18.5Q 99-20.2  94.75-23.85Q 90.5-27.5  90.5-34.3L 90.5-34.3Q 90.5-38  92.1-41Q 93.7-44  96.6-46Q 99.5-48  103.55-49.1Q 107.6-50.2  112.5-50.2L 112.5-50.2Q 116.2-50.2  119.45-49.65Q 122.7-49.1  125.1-48Q 127.5-46.9  128.9-45.15Q 130.3-43.4  130.3-41L 130.3-41Q 130.3-38.7  129.45-37.05Q 128.6-35.4  127.3-34.3L 127.3-34.3Q 126.5-34.8  124.9-35.35Q 123.3-35.9  121.4-36.35Q 119.5-36.8  117.55-37.1Q 115.6-37.4  114-37.4L 114-37.4Q 110.7-37.4  108.9-36.65Q 107.1-35.9  107.1-34.3L 107.1-34.3Q 107.1-33.2  108.1-32.5Q 109.1-31.8  111.9-31.2L 111.9-31.2L 115-30.5Q 124.6-28.3  128.65-24.45Q 132.7-20.6  132.7-14.5ZM 167.1 1.6L 167.1 1.6Q 161.2 1.6  156.14999999999998-0.05Q 151.1-1.7  147.35-5Q 143.6-8.3  141.45-13.3Q 139.29999999999998-18.3  139.29999999999998-25L 139.29999999999998-25Q 139.29999999999998-31.6  141.45-36.35Q 143.6-41.1  147.1-44.15Q 150.6-47.2  155.1-48.65Q 159.6-50.1  164.29999999999998-50.1L 164.29999999999998-50.1Q 169.6-50.1  173.95-48.5Q 178.29999999999998-46.9  181.45-44.1Q 184.6-41.3  186.35-37.4Q 188.1-33.5  188.1-28.9L 188.1-28.9Q 188.1-25.5  186.2-23.7Q 184.29999999999998-21.9  180.89999999999998-21.4L 180.89999999999998-21.4L 156.2-17.7Q 157.29999999999998-14.4  160.7-12.75Q 164.1-11.1  168.5-11.1L 168.5-11.1Q 172.6-11.1  176.25-12.15Q 179.89999999999998-13.2  182.2-14.6L 182.2-14.6Q 183.79999999999998-13.6  184.89999999999998-11.8Q 186-10  186-8L 186-8Q 186-3.5  181.79999999999998-1.3L 181.79999999999998-1.3Q 178.6 0.4  174.6 1Q 170.6 1.6  167.1 1.6ZM 164.29999999999998-37.7L 164.29999999999998-37.7Q 161.89999999999998-37.7  160.14999999999998-36.9Q 158.39999999999998-36.1  157.29999999999998-34.85Q 156.2-33.6  155.64999999999998-32.05Q 155.1-30.5  155-28.9L 155-28.9L 172.1-31.7Q 171.79999999999998-33.7  169.89999999999998-35.7Q 168-37.7  164.29999999999998-37.7ZM 213.29999999999998-34.2L 213.29999999999998-0.1Q 212.29999999999998 0.2  210.15 0.5Q 208 0.8  205.7 0.8L 205.7 0.8Q 203.5 0.8  201.75 0.5Q 200 0.2  198.79999999999998-0.7Q 197.6-1.6  196.95-3.15Q 196.29999999999998-4.7  196.29999999999998-7.2L 196.29999999999998-7.2L 196.29999999999998-37.2Q 196.29999999999998-39.5  197.15-41.15Q 198-42.8  199.6-44.1L 199.6-44.1Q 201.2-45.4  203.54999999999998-46.45Q 205.9-47.5  208.6-48.3Q 211.29999999999998-49.1  214.2-49.55Q 217.1-50  220-50L 220-50Q 224.8-50  227.6-48.15Q 230.39999999999998-46.3  230.39999999999998-42.1L 230.39999999999998-42.1Q 230.39999999999998-40.7  230-39.35Q 229.6-38  229-36.9L 229-36.9Q 226.89999999999998-36.9  224.7-36.7Q 222.5-36.5  220.4-36.1Q 218.29999999999998-35.7  216.45-35.25Q 214.6-34.8  213.29999999999998-34.2L 213.29999999999998-34.2ZM 254.39999999999998-31.8L 254.39999999999998-16.7Q 254.39999999999998-14.1  256.05-13Q 257.7-11.9  260.7-11.9L 260.7-11.9Q 262.2-11.9  263.8-12.15Q 265.4-12.4  266.59999999999997-12.8L 266.59999999999997-12.8Q 267.5-11.7  268.15-10.35Q 268.8-9  268.8-7.1L 268.8-7.1Q 268.8-3.3  265.95-0.9Q 263.09999999999997 1.5  255.89999999999998 1.5L 255.89999999999998 1.5Q 247.1 1.5  242.35-2.5Q 237.6-6.5  237.6-15.5L 237.6-15.5L 237.6-58.3Q 238.7-58.6  240.75-58.95Q 242.79999999999998-59.3  245.1-59.3L 245.1-59.3Q 249.5-59.3  251.95-57.75Q 254.39999999999998-56.2  254.39999999999998-51.2L 254.39999999999998-51.2L 254.39999999999998-44.8L 267.5-44.8Q 268.09999999999997-43.7  268.65-42.05Q 269.2-40.4  269.2-38.4L 269.2-38.4Q 269.2-34.9  267.65-33.35Q 266.09999999999997-31.8  263.5-31.8L 263.5-31.8L 254.39999999999998-31.8ZM 277-62.1L 277-62.1Q 277-65.9  279.55-68.5Q 282.09999999999997-71.1  286.3-71.1L 286.3-71.1Q 290.5-71.1  293.05-68.5Q 295.59999999999997-65.9  295.59999999999997-62.1L 295.59999999999997-62.1Q 295.59999999999997-58.3  293.05-55.7Q 290.5-53.1  286.3-53.1L 286.3-53.1Q 282.09999999999997-53.1  279.55-55.7Q 277-58.3  277-62.1ZM 294.8-40.8L 294.8-0.1Q 293.7 0.1  291.55 0.45Q 289.4 0.8  287.2 0.8L 287.2 0.8Q 285 0.8  283.25 0.5Q 281.5 0.2  280.3-0.7Q 279.09999999999997-1.6  278.45-3.15Q 277.8-4.7  277.8-7.2L 277.8-7.2L 277.8-47.9Q 278.9-48.1  281.05-48.45Q 283.2-48.8  285.4-48.8L 285.4-48.8Q 287.59999999999997-48.8  289.34999999999997-48.5Q 291.09999999999997-48.2  292.3-47.3Q 293.5-46.4  294.15-44.85Q 294.8-43.3  294.8-40.8L 294.8-40.8ZM 355.9-24.3L 355.9-24.3Q 355.9-18.1  354-13.25Q 352.09999999999997-8.4  348.65-5.1Q 345.2-1.8  340.4-0.1Q 335.59999999999997 1.6  329.7 1.6L 329.7 1.6Q 323.79999999999995 1.6  319-0.2Q 314.2-2  310.75-5.35Q 307.29999999999995-8.7  305.4-13.5Q 303.5-18.3  303.5-24.3L 303.5-24.3Q 303.5-30.2  305.4-35Q 307.29999999999995-39.8  310.75-43.15Q 314.2-46.5  319-48.3Q 323.79999999999995-50.1  329.7-50.1L 329.7-50.1Q 335.59999999999997-50.1  340.4-48.25Q 345.2-46.4  348.65-43.05Q 352.09999999999997-39.7  354-34.9Q 355.9-30.1  355.9-24.3ZM 320.9-24.3L 320.9-24.3Q 320.9-18.2  323.25-14.95Q 325.59999999999997-11.7  329.79999999999995-11.7L 329.79999999999995-11.7Q 334-11.7  336.25-15Q 338.5-18.3  338.5-24.3L 338.5-24.3Q 338.5-30.3  336.2-33.55Q 333.9-36.8  329.7-36.8L 329.7-36.8Q 325.5-36.8  323.2-33.55Q 320.9-30.3  320.9-24.3ZM 395-7.2L 395-30.8Q 395-33.9  393.25-35.35Q 391.5-36.8  388.5-36.8L 388.5-36.8Q 386.5-36.8  384.55-36.3Q 382.6-35.8  381.2-34.8L 381.2-34.8L 381.2-0.1Q 380.2 0.2  378.05 0.5Q 375.9 0.8  373.6 0.8L 373.6 0.8Q 371.4 0.8  369.65 0.5Q 367.9 0.2  366.7-0.7Q 365.5-1.6  364.85-3.15Q 364.2-4.7  364.2-7.2L 364.2-7.2L 364.2-37.2Q 364.2-39.9  365.35-41.6Q 366.5-43.3  368.5-44.7L 368.5-44.7Q 371.9-47.1  377.05-48.6Q 382.2-50.1  388.5-50.1L 388.5-50.1Q 399.8-50.1  405.9-45.15Q 412-40.2  412-31.4L 412-31.4L 412-0.1Q 411 0.2  408.85 0.5Q 406.7 0.8  404.4 0.8L 404.4 0.8Q 402.2 0.8  400.45 0.5Q 398.7 0.2  397.5-0.7Q 396.3-1.6  395.65-3.15Q 395-4.7  395-7.2L 395-7.2Z"/>
</svg>