<?xml version="1.0" encoding="UTF-8"?>
<svg id="Logo_couleur" xmlns="http://www.w3.org/2000/svg" viewBox="0 0 859.18 337.32"><defs><style>.cls-1{fill:#fff;}.cls-2{fill:#e4002b;}</style></defs><g id="GRAND"><path class="cls-2" d="M315.39,240.19c.31,0,.57,.25,.57,.57v3.86c0,18.14-8.28,25.92-21.25,25.92s-21.58-7.78-21.58-25.92v-6.94c0-18.56,8.7-26.33,21.58-26.33,11.49,0,18.88,6.28,20.89,17.98,.06,.35-.21,.67-.56,.67h-8.25c-.26,0-.49-.19-.55-.44-1.49-6.4-5.15-9.76-11.53-9.76-7.7,0-11.88,5.02-11.88,17.47v7.36c0,12.46,4.18,17.47,11.88,17.47s11-4.3,11.7-13.3c0-.08-.06-.16-.14-.16h-10.74c-.31,0-.57-.25-.57-.57v-7.31c0-.31,.25-.57,.57-.57h19.86Z"/><path class="cls-2" d="M355.99,269.38l-10.9-22.94s-.07-.08-.13-.08h-10.95c-.08,0-.14,.06-.14,.14v22.63c0,.31-.25,.57-.57,.57h-8.54c-.31,0-.57-.25-.57-.57v-56.39c0-.31,.25-.57,.57-.57h19.04c13.26,0,21.19,5.75,21.19,17.17,0,7.86-3.7,12.93-10.28,15.37-.08,.03-.12,.12-.08,.19l11.79,23.97c.19,.38-.09,.82-.51,.82h-9.41c-.22,0-.42-.13-.51-.32Zm-12.86-31.36c8.18,0,12.18-2.17,12.18-8.67s-4-8.75-12.18-8.75h-9.12c-.08,0-.14,.06-.14,.14v17.14c0,.08,.06,.14,.14,.14h9.12Z"/><path class="cls-2" d="M373.6,268.95l19.63-56.39c.08-.23,.29-.38,.54-.38h8.37c.24,0,.46,.15,.54,.38l19.63,56.39c.13,.37-.15,.75-.54,.75h-9.05c-.24,0-.46-.16-.54-.39l-3.76-11.43c-.02-.06-.07-.1-.13-.1h-20.57c-.06,0-.12,.04-.13,.1l-3.76,11.43c-.08,.23-.29,.39-.54,.39h-9.14c-.39,0-.66-.38-.54-.75Zm16.87-19.5h14.96c.1,0,.16-.09,.13-.19l-7.48-22.67c-.04-.13-.23-.13-.27,0l-7.48,22.67c-.03,.09,.04,.19,.13,.19Z"/><path class="cls-2" d="M470.92,212.75v56.39c0,.31-.25,.57-.57,.57h-7.7c-.2,0-.38-.1-.49-.28l-23.01-38.38c-.07-.12-.26-.07-.26,.07v38.02c0,.31-.25,.57-.57,.57h-8.21c-.31,0-.57-.25-.57-.57v-56.39c0-.31,.25-.57,.57-.57h7.45c.2,0,.38,.1,.49,.28l23.26,38.88c.07,.12,.26,.07,.26-.07v-38.52c0-.31,.25-.57,.57-.57h8.21c.31,0,.57,.25,.57,.57Z"/><path class="cls-2" d="M479.37,269.14v-56.39c0-.31,.25-.57,.57-.57h18.87c12.93,0,21.6,6.92,21.6,25.34v6.84c0,18.42-8.68,25.34-21.6,25.34h-18.87c-.31,0-.57-.25-.57-.57Zm31.36-24.78v-6.84c0-11.84-3.67-16.92-11.93-16.92h-9.62c-.08,0-.14,.06-.14,.14v40.48c0,.08,.06,.14,.14,.14h9.62c8.26,0,11.93-5.17,11.93-17.01Z"/></g><g id="METROPOLE"><rect class="cls-2" x="28.35" y="32.6" width="543.09" height="144.57"/><g><path class="cls-1" d="M100.42,105.06l15.22-28.64c.1-.19,.29-.3,.5-.3h12.01c.31,0,.57,.25,.57,.57v56.39c0,.31-.25,.57-.57,.57h-11.87c-.31,0-.57-.25-.57-.57v-31.36c0-.15-.2-.2-.27-.06l-11.41,22.18c-.1,.19-.29,.31-.5,.31h-6.73c-.21,0-.41-.12-.51-.31l-11.16-21.92c-.07-.13-.27-.08-.27,.06v31.11c0,.31-.25,.57-.57,.57h-11.87c-.31,0-.57-.25-.57-.57v-56.39c0-.31,.25-.57,.57-.57h11.93c.21,0,.4,.12,.5,.3l15.3,28.64c.05,.1,.2,.1,.25,0Z"/><path class="cls-1" d="M151.33,87.77v10.22c0,.08,.06,.14,.14,.14h19.3c.31,0,.56,.25,.56,.56v10.38c0,.31-.26,.57-.57,.57h-19.29c-.08,0-.14,.06-.14,.14v12.22c0,.08,.06,.14,.14,.14h21.8c.31,0,.56,.25,.56,.56v10.38c0,.31-.26,.57-.57,.57h-35.21c-.31,0-.56-.25-.56-.56v-56.4c0-.31,.26-.57,.57-.57h7.46c.05,0,.1-.03,.12-.07l5.4-9.09c.11-.16,.29-.26,.49-.26h14.02c.48,0,.74,.55,.45,.92l-6.03,8.27c-.07,.09,0,.23,.11,.23h13.18c.31,0,.56,.25,.56,.56v10.38c0,.31-.26,.57-.57,.57h-21.79c-.08,0-.14,.06-.14,.14Z"/><path class="cls-1" d="M226.42,76.69v10.37c0,.31-.25,.57-.57,.57h-14.3c-.08,0-.14,.06-.14,.14v45.31c0,.31-.25,.57-.57,.57h-12.7c-.31,0-.57-.25-.57-.57v-45.31c0-.08-.06-.14-.14-.14h-14.3c-.31,0-.57-.25-.57-.57v-10.37c0-.31,.25-.57,.57-.57h42.72c.31,0,.57,.25,.57,.57Z"/><path class="cls-1" d="M265.66,133.3l-9.4-21.34c-.02-.05-.07-.08-.13-.08h-6.94c-.08,0-.14,.06-.14,.14v21.05c0,.31-.25,.57-.57,.57h-12.7c-.31,0-.57-.25-.57-.57v-56.39c0-.31,.25-.57,.57-.57h21.11c13.26,0,21.76,6.09,21.76,18.09,0,7.45-3.29,12.51-9.04,15.2-.07,.03-.1,.12-.07,.19l11.06,23.24c.18,.38-.1,.81-.51,.81h-13.91c-.22,0-.43-.13-.52-.34Zm-10.44-32.92c5.59,0,9.59-.75,9.59-6.17s-4-6.59-9.59-6.59h-6.03c-.08,0-.14,.06-.14,.14v12.47c0,.08,.06,.14,.14,.14h6.03Z"/><path class="cls-1" d="M309.63,134.48c-13.09,0-22.68-7.92-22.68-25.09v-9c0-17.34,9.59-25.09,22.68-25.09s22.68,7.75,22.68,25.09v9c0,17.17-9.59,25.09-22.68,25.09Zm-8.84-25.09c0,9.42,3.08,13.59,8.84,13.59s8.84-4.17,8.84-13.59v-9c0-9.42-3.08-13.59-8.84-13.59s-8.84,4.17-8.84,13.59v9Z"/><path class="cls-1" d="M354.69,114.36v18.72c0,.31-.25,.57-.57,.57h-12.7c-.31,0-.57-.25-.57-.57v-56.39c0-.31,.25-.57,.57-.57h21.11c13.26,0,21.76,5.84,21.76,18.67s-8.42,19.42-21.76,19.42h-7.69c-.08,0-.14,.06-.14,.14Zm5.34-11.65c7.25,0,10.42-2.17,10.42-7.92,0-4.67-3.17-7.17-10.42-7.17h-5.19c-.08,0-.14,.06-.14,.14v14.81c0,.08,.06,.14,.14,.14h5.19Z"/><path class="cls-1" d="M415.01,134.48c-13.09,0-22.68-7.92-22.68-25.09v-9c0-17.34,9.59-25.09,22.68-25.09s22.68,7.75,22.68,25.09v9c0,17.17-9.59,25.09-22.68,25.09Zm-8.84-25.09c0,9.42,3.08,13.59,8.84,13.59s8.84-4.17,8.84-13.59v-9c0-9.42-3.08-13.59-8.84-13.59s-8.84,4.17-8.84,13.59v9Z"/><path class="cls-1" d="M460.38,122.14h21.8c.31,0,.57,.25,.57,.57v10.37c0,.31-.25,.57-.57,.57h-35.21c-.31,0-.57-.25-.57-.57v-56.39c0-.31,.25-.57,.57-.57h12.7c.31,0,.57,.25,.57,.57v45.31c0,.08,.06,.14,.14,.14Z"/><path class="cls-1" d="M527.91,76.69v10.37c0,.31-.25,.57-.57,.57h-21.8c-.08,0-.14,.06-.14,.14v10.22c0,.08,.06,.14,.14,.14h19.3c.31,0,.57,.25,.57,.57v10.37c0,.31-.25,.57-.57,.57h-19.3c-.08,0-.14,.06-.14,.14v12.22c0,.08,.06,.14,.14,.14h21.8c.31,0,.57,.25,.57,.57v10.37c0,.31-.25,.57-.57,.57h-35.21c-.31,0-.57-.25-.57-.57v-56.39c0-.31,.25-.57,.57-.57h35.21c.31,0,.57,.25,.57,.57Z"/></g></g><g id="LYON"><rect class="cls-2" x="562.93" y="168.66" width="267.9" height="144.57"/><g><path class="cls-1" d="M620.44,258.2h21.8c.31,0,.57,.25,.57,.57v10.37c0,.31-.25,.57-.57,.57h-35.21c-.31,0-.57-.25-.57-.57v-56.39c0-.31,.25-.57,.57-.57h12.7c.31,0,.57,.25,.57,.57v45.31c0,.08,.06,.14,.14,.14Z"/><path class="cls-1" d="M652.21,212.52l8.64,19.14c.05,.11,.21,.11,.26,0l8.64-19.14c.09-.2,.29-.33,.52-.33h14.62c.43,0,.7,.45,.5,.83l-17.48,33.65s-.02,.04-.02,.07v22.41c0,.31-.25,.57-.57,.57h-12.71c-.31,0-.57-.25-.57-.57v-22.41s0-.05-.02-.07l-17.48-33.65c-.2-.38,.08-.83,.5-.83h14.62c.22,0,.43,.13,.52,.33Z"/><path class="cls-1" d="M710.74,270.54c-13.09,0-22.68-7.92-22.68-25.09v-9c0-17.34,9.59-25.09,22.68-25.09s22.68,7.75,22.68,25.09v9c0,17.17-9.59,25.09-22.68,25.09Zm-8.84-25.09c0,9.42,3.08,13.59,8.84,13.59s8.84-4.17,8.84-13.59v-9c0-9.42-3.08-13.59-8.84-13.59s-8.84,4.17-8.84,13.59v9Z"/><path class="cls-1" d="M787.31,212.75v56.39c0,.31-.25,.57-.57,.57h-10.3c-.19,0-.37-.09-.47-.25l-20.75-31.2c-.08-.12-.26-.06-.26,.08v30.81c0,.31-.25,.57-.57,.57h-11.87c-.31,0-.57-.25-.57-.57v-56.39c0-.31,.25-.57,.57-.57h10.13c.19,0,.37,.1,.47,.25l20.91,31.62c.08,.12,.26,.06,.26-.08v-31.23c0-.31,.25-.57,.57-.57h11.87c.31,0,.57,.25,.57,.57Z"/></g></g></svg>