<?xml version="1.0" encoding="UTF-8" standalone="no"?>
<!-- Created with Inkscape (http://www.inkscape.org/) -->

<svg
   xmlns:dc="http://purl.org/dc/elements/1.1/"
   xmlns:cc="http://creativecommons.org/ns#"
   xmlns:rdf="http://www.w3.org/1999/02/22-rdf-syntax-ns#"
   xmlns:svg="http://www.w3.org/2000/svg"
   xmlns="http://www.w3.org/2000/svg"
   xmlns:sodipodi="http://sodipodi.sourceforge.net/DTD/sodipodi-0.dtd"
   xmlns:inkscape="http://www.inkscape.org/namespaces/inkscape"
   id="svg2"
   version="1.1"
   inkscape:version="0.91 r13725"
   xml:space="preserve"
   width="1025"
   height="400"
   viewBox="0 0 1025 400.00001"
   sodipodi:docname="Logo Pantin.svg"><metadata
     id="metadata8"><rdf:RDF><cc:Work
         rdf:about=""><dc:format>image/svg+xml</dc:format><dc:type
           rdf:resource="http://purl.org/dc/dcmitype/StillImage" /><dc:title></dc:title></cc:Work></rdf:RDF></metadata><defs
     id="defs6"><clipPath
       clipPathUnits="userSpaceOnUse"
       id="clipPath18"><path
         d="m 0,0 1303.94,0 0,850.394 L 0,850.394 0,0 Z"
         id="path20"
         inkscape:connector-curvature="0" /></clipPath><clipPath
       clipPathUnits="userSpaceOnUse"
       id="clipPath34"><path
         d="m 456.99,850.394 c 27.478,-11.63 48.405,-35.719 55.693,-65.183 l 0,0 c 77.348,-22.943 133.771,-94.56 133.771,-179.354 l 0,0 c 0,-24.274 -4.621,-47.463 -13.037,-68.744 l 0,0 18.551,0 0,313.281 -194.978,0 z m -225.256,0 0,-120.681 -205.199,0 0,120.681 -26.535,0 0,-633.283 651.968,0 0,169.522 -117.765,0 0,47.729 c -22.908,-10.006 -48.205,-15.557 -74.801,-15.557 l 0,0 c -103.306,0 -187.052,83.746 -187.052,187.052 l 0,0 c 0,51.565 20.867,98.258 54.615,132.095 l 0,0 c -2.01,7.724 -3.078,15.828 -3.078,24.181 l 0,0 c 0,39.674 24.116,73.714 58.491,88.261 l 0,0 -150.644,0 z"
         id="path36"
         inkscape:connector-curvature="0" /></clipPath><clipPath
       clipPathUnits="userSpaceOnUse"
       id="clipPath40"><path
         d="m 0,0 1303.94,0 0,850.394 L 0,850.394 0,0 Z"
         id="path42"
         inkscape:connector-curvature="0" /></clipPath><clipPath
       clipPathUnits="userSpaceOnUse"
       id="clipPath52"><path
         d="m 515.481,762.133 c 0,-10.773 -1.779,-21.132 -5.058,-30.797 l 0,0 0,-213.044 23.78,0 0,18.821 14.586,0 c -2.314,2.963 -3.618,6.764 -3.618,11.173 l 0,0 c 0,9.9 6.95,18.205 17.734,18.205 l 0,0 c 8.431,0 13.82,-4.264 15.963,-10.331 l 0,0 0,193.635 c -19.199,15.953 -41.636,28.135 -66.185,35.416 l 0,0 c 1.828,-7.391 2.798,-15.121 2.798,-23.078 m 20.582,-195.642 c 4.314,0 6.471,-2.636 6.471,-5.75 l 0,0 c 0,-2.953 -2.316,-5.428 -5.192,-5.428 l 0,0 c -2.637,0 -4.394,1.515 -5.113,3.114 l 0,0 c -2.476,-0.88 -5.353,-3.593 -6.952,-6.628 l 0,0 0,-13.731 6.073,0 0,-7.187 -19.972,0 0,7.187 5.192,0 0,20.439 -5.192,0 0,7.345 13.581,0 0,-7.904 c 2.955,4.709 6.631,8.543 11.104,8.543 m 18.135,-15.011 17.015,0 c -0.158,4.79 -3.273,7.984 -8.388,7.984 l 0,0 c -3.835,0 -7.669,-2.235 -8.627,-7.984 m 0.081,-6.067 c 1.197,-5.429 5.671,-7.825 11.503,-7.825 l 0,0 c 4.233,0 8.627,1.357 12.702,3.672 l 0,0 -0.381,-4.147 0.765,0 0,8.3 -24.589,0 z"
         id="path54"
         inkscape:connector-curvature="0" /></clipPath><clipPath
       clipPathUnits="userSpaceOnUse"
       id="clipPath58"><path
         d="m 0,0 1303.94,0 0,850.394 L 0,850.394 0,0 Z"
         id="path60"
         inkscape:connector-curvature="0" /></clipPath><clipPath
       clipPathUnits="userSpaceOnUse"
       id="clipPath70"><path
         d="m 305.861,712.718 0,-119.069 6.914,0 0,-55.581 5.193,0 0,-7.187 -12.107,0 0,-31.885 c 9.814,-14.077 21.515,-26.739 34.736,-37.624 l 0,0 0,68.917 c -10.568,0.633 -17.757,7.646 -17.757,17.997 l 0,0 c 0,9.9 6.952,18.205 17.737,18.205 l 0,0 0.02,0 0,141.569 c -6.153,8.981 -10.815,19.064 -13.632,29.892 l 0,0 c -7.745,-7.766 -14.813,-16.21 -21.104,-25.234 m 26.007,-161.238 8.729,0 0,7.983 c -0.033,0 -0.067,0.001 -0.101,0.001 l 0,0 c -3.834,0 -7.669,-2.235 -8.628,-7.984 m 0.08,-6.067 c 0.994,-4.504 4.242,-6.92 8.649,-7.613 l 0,0 0,7.613 -8.649,0 z"
         id="path72"
         inkscape:connector-curvature="0" /></clipPath><clipPath
       clipPathUnits="userSpaceOnUse"
       id="clipPath76"><path
         d="m 0,0 1303.94,0 0,850.394 L 0,850.394 0,0 Z"
         id="path78"
         inkscape:connector-curvature="0" /></clipPath><clipPath
       clipPathUnits="userSpaceOnUse"
       id="clipPath88"><path
         d="m 476.201,684.776 0,-124.201 c 1.258,-2.074 1.865,-4.66 1.865,-7.577 l 0,0 0,-14.93 5.192,0 0,-7.187 -7.057,0 0,-111.332 c 11.937,1.063 23.551,3.248 34.737,6.446 l 0,0 0,306.902 c -6.244,-19.506 -18.562,-36.285 -34.737,-48.121 m 13.927,-107.827 c 0,3.194 2.796,5.749 5.911,5.749 l 0,0 c 3.116,0 5.753,-2.555 5.753,-5.749 l 0,0 c 0,-3.194 -2.797,-5.749 -5.912,-5.749 l 0,0 c -3.116,0 -5.752,2.555 -5.752,5.749 m -3.035,-11.097 14.059,0 0,-27.784 5.193,0 0,-7.187 -19.252,0 0,7.187 5.351,0 0,20.439 -5.351,0 0,7.345 z"
         id="path90"
         inkscape:connector-curvature="0" /></clipPath><clipPath
       clipPathUnits="userSpaceOnUse"
       id="clipPath94"><path
         d="m 0,0 1303.94,0 0,850.394 L 0,850.394 0,0 Z"
         id="path96"
         inkscape:connector-curvature="0" /></clipPath><clipPath
       clipPathUnits="userSpaceOnUse"
       id="clipPath106"><path
         d="m 578.354,557.444 c 1.041,-2.311 1.568,-4.937 1.568,-7.72 l 0,0 c 0,-1.358 -0.16,-3.114 -0.399,-4.311 l 0,0 -1.169,0 0,-4.226 c 0.044,0.024 0.086,0.05 0.13,0.073 l 0,0 -0.13,-1.411 0,-2.736 34.737,0 0,175.395 c -9.81,14.109 -21.508,26.801 -34.737,37.712 l 0,0 0,-192.776 z"
         id="path108"
         inkscape:connector-curvature="0" /></clipPath><clipPath
       clipPathUnits="userSpaceOnUse"
       id="clipPath112"><path
         d="m 0,0 1303.94,0 0,850.394 L 0,850.394 0,0 Z"
         id="path114"
         inkscape:connector-curvature="0" /></clipPath><clipPath
       clipPathUnits="userSpaceOnUse"
       id="clipPath124"><path
         d="m 272.35,605.857 c 0,-40.05 12.589,-77.163 34.024,-107.594 l 0,0 0,32.618 -7.739,0 0,7.187 5.433,0 0,48.234 -5.433,0 0,7.347 7.739,0 0,119.803 C 284.937,683.02 272.35,645.909 272.35,605.857"
         id="path126"
         inkscape:connector-curvature="0" /></clipPath><clipPath
       clipPathUnits="userSpaceOnUse"
       id="clipPath130"><path
         d="m 0,0 1303.94,0 0,850.394 L 0,850.394 0,0 Z"
         id="path132"
         inkscape:connector-curvature="0" /></clipPath><clipPath
       clipPathUnits="userSpaceOnUse"
       id="clipPath142"><path
         d="m 340.083,566.484 c 0.164,0.005 0.329,0.007 0.494,0.007 l 0,0 c 11.184,0 17.016,-7.506 17.016,-16.767 l 0,0 c 0,-1.358 -0.16,-3.114 -0.4,-4.311 l 0,0 -17.11,0 0,-7.523 c 1.057,-0.203 2.186,-0.302 3.37,-0.302 l 0,0 c 4.234,0 8.627,1.357 12.702,3.672 l 0,0 -0.719,-7.824 c -3.675,-2.155 -8.148,-3.194 -13.263,-3.194 l 0,0 c -0.711,0 -1.407,0.028 -2.09,0.083 l 0,0 0,-68.528 c 10.576,-8.768 22.131,-16.394 34.479,-22.69 l 0,0 0,238.5 c -13.894,7.433 -25.74,18.19 -34.479,31.21 l 0,0 0,-142.333 z m 0,-7.029 0,-7.975 8.801,0 c -0.16,4.79 -3.275,7.984 -8.388,7.984 l 0,0 c -0.137,0 -0.276,-0.002 -0.413,-0.009"
         id="path144"
         inkscape:connector-curvature="0" /></clipPath><clipPath
       clipPathUnits="userSpaceOnUse"
       id="clipPath148"><path
         d="m 0,0 1303.94,0 0,850.394 L 0,850.394 0,0 Z"
         id="path150"
         inkscape:connector-curvature="0" /></clipPath><clipPath
       clipPathUnits="userSpaceOnUse"
       id="clipPath160"><path
         d="m 612.577,537.113 20.84,0 c 8.416,21.281 13.037,44.47 13.037,68.744 l 0,0 c 0,39.96 -12.531,76.993 -33.877,107.385 l 0,0 0,-176.129 z"
         id="path162"
         inkscape:connector-curvature="0" /></clipPath><clipPath
       clipPathUnits="userSpaceOnUse"
       id="clipPath166"><path
         d="m 0,0 1303.94,0 0,850.394 L 0,850.394 0,0 Z"
         id="path168"
         inkscape:connector-curvature="0" /></clipPath><clipPath
       clipPathUnits="userSpaceOnUse"
       id="clipPath178"><path
         d="m 419.684,666.337 c -16.523,0 -32.068,4.183 -45.636,11.547 l 0,0 0,-238.513 c 25.592,-13.147 54.603,-20.566 85.354,-20.566 l 0,0 c 5.837,0 11.612,0.268 17.314,0.791 l 0,0 0,111.285 -6.96,0 0,3.832 c -2.795,-2.395 -7.03,-4.471 -11.742,-4.471 l 0,0 c -5.992,0 -11.345,3.274 -11.345,9.821 l 0,0 c 0,6.547 5.751,10.539 14.06,10.539 l 0,0 c 3.596,0 6.951,-0.48 8.869,-0.959 l 0,0 0,2.795 c 0,2.076 -0.481,3.672 -1.359,4.791 l 0,0 c -1.438,1.837 -3.756,2.555 -6.871,2.555 l 0,0 c -1.517,0 -2.637,-0.24 -3.434,-0.56 l 0,0 c 0.158,-0.479 0.318,-1.276 0.318,-1.757 l 0,0 c 0,-2.633 -2.077,-4.549 -4.714,-4.549 l 0,0 c -2.636,0 -4.632,1.836 -4.632,4.709 l 0,0 c 0,4.312 4.394,8.864 13.901,8.864 l 0,0 c 5.991,0 10.067,-1.678 12.542,-4.713 l 0,0 c 0.536,-0.651 0.991,-1.371 1.367,-2.153 l 0,0 0,125.53 c -15.934,-11.823 -35.667,-18.818 -57.032,-18.818 m 6.852,-99.846 c 4.874,0 8.228,-1.757 9.986,-5.03 l 0,0 c 0.958,-1.757 1.437,-3.994 1.437,-6.548 l 0,0 0,-16.845 5.193,0 0,-7.187 -18.613,0 0,7.187 4.713,0 0,14.77 c 0,1.357 -0.16,2.394 -0.559,3.272 l 0,0 c -0.719,1.678 -2.157,2.477 -4.154,2.477 l 0,0 c -2.876,0 -5.913,-1.678 -8.549,-3.913 l 0,0 0,-16.606 4.714,0 0,-7.187 -18.215,0 0,7.187 4.794,0 0,14.77 c 0,1.357 -0.16,2.394 -0.559,3.272 l 0,0 c -0.719,1.678 -2.077,2.477 -4.155,2.477 l 0,0 c -2.876,0 -5.912,-1.678 -8.549,-3.913 l 0,0 0,-16.606 4.635,0 0,-7.187 -18.534,0 0,7.187 5.192,0 0,20.439 -5.192,0 0,7.345 13.581,0 0,-5.509 c 2.716,2.954 6.551,6.148 11.743,6.148 l 0,0 c 3.755,0 6.552,-1.438 8.309,-3.753 l 0,0 c 0.479,-0.639 0.799,-1.277 1.118,-1.997 l 0,0 c 3.276,3.194 7.19,5.75 11.664,5.75 m 29.08,-25.63 c 0,-2.793 2.078,-4.311 5.192,-4.311 l 0,0 c 3.116,0 6.153,1.197 8.79,3.113 l 0,0 0,5.509 c -1.998,0.478 -4.476,0.799 -7.191,0.799 l 0,0 c -4.235,0 -6.791,-1.916 -6.791,-5.11"
         id="path180"
         inkscape:connector-curvature="0" /></clipPath><clipPath
       clipPathUnits="userSpaceOnUse"
       id="clipPath184"><path
         d="m 0,0 1303.94,0 0,850.394 L 0,850.394 0,0 Z"
         id="path186"
         inkscape:connector-curvature="0" /></clipPath><clipPath
       clipPathUnits="userSpaceOnUse"
       id="clipPath196"><path
         d="m 510.423,518.807 0,-92.959 c 8.167,2.312 16.108,5.162 23.78,8.514 l 0,0 0,84.445 -23.78,0 z"
         id="path198"
         inkscape:connector-curvature="0" /></clipPath><clipPath
       clipPathUnits="userSpaceOnUse"
       id="clipPath202"><path
         d="m 0,0 1303.94,0 0,850.394 L 0,850.394 0,0 Z"
         id="path204"
         inkscape:connector-curvature="0" /></clipPath><clipPath
       clipPathUnits="userSpaceOnUse"
       id="clipPath214"><path
         d="m 0,0 651.968,0 0,850.394 L 0,850.394 0,0 Z"
         id="path216"
         inkscape:connector-curvature="0" /></clipPath><clipPath
       clipPathUnits="userSpaceOnUse"
       id="clipPath228"><path
         d="m 382.378,850.394 c -34.375,-14.547 -58.491,-48.587 -58.491,-88.261 l 0,0 0,-0.179 0,-0.055 c 0,-0.042 10e-4,-0.085 10e-4,-0.126 l 0,0 0,-0.059 c 0,-0.042 0,-0.085 0.001,-0.13 l 0,0 0,-0.053 c 0,-0.06 10e-4,-0.117 10e-4,-0.176 l 0,0 0,-0.032 c 0.001,-0.047 0.001,-0.097 0.002,-0.143 l 0,0 0,-0.068 c 10e-4,-0.038 10e-4,-0.076 0.002,-0.113 l 0,0 0,-0.071 c 0.002,-0.037 0.002,-0.078 0.002,-0.117 l 0,0 c 0,-0.019 0,-0.039 10e-4,-0.059 l 0,0 c 0.001,-0.059 0.001,-0.115 0.002,-0.174 l 0,0 c 10e-4,-0.016 10e-4,-0.03 10e-4,-0.047 l 0,0 c 0.001,-0.042 0.002,-0.085 0.002,-0.126 l 0,0 c 0.002,-0.027 0.002,-0.054 0.003,-0.08 l 0,0 c 0,-0.03 0,-0.062 0,-0.092 l 0,0 c 0.001,-0.028 0.002,-0.06 0.002,-0.089 l 0,0 c 0.001,-0.028 0.001,-0.058 0.002,-0.087 l 0,0 c 0.001,-0.048 0.002,-0.1 0.004,-0.147 l 0,0 c 10e-4,-0.034 10e-4,-0.065 0.002,-0.098 l 0,0 c 0,-0.038 10e-4,-0.072 0.002,-0.109 l 0,0 c 0.001,-0.019 0.001,-0.037 0.002,-0.056 l 0,0 c 0.001,-0.04 0.003,-0.078 0.004,-0.116 l 0,0 c 0,-0.018 0,-0.037 0,-0.055 l 0,0 c 10e-4,-0.04 0.002,-0.077 0.003,-0.115 l 0,0 c 0.001,-0.014 0.001,-0.027 0.002,-0.042 l 0,0 c 0.004,-0.135 0.007,-0.262 0.013,-0.397 l 0,0 c 0,-0.016 0,-0.03 0,-0.047 l 0,0 c 0.002,-0.042 0.003,-0.081 0.005,-0.124 l 0,0 c 0,-0.011 0,-0.022 10e-4,-0.035 l 0,0 c 0.238,-6.799 1.186,-13.421 2.77,-19.79 l 0,0 c 0.002,-0.006 0.005,-0.014 0.006,-0.022 l 0,0 c 0.009,-0.033 0.018,-0.072 0.026,-0.106 l 0,0 c 0.006,-0.024 0.012,-0.048 0.018,-0.073 l 0,0 c 0.006,-0.024 0.013,-0.048 0.019,-0.073 l 0,0 c 0.011,-0.045 0.023,-0.092 0.036,-0.139 l 0,0 c 10e-4,-0.009 0.002,-0.012 0.004,-0.021 l 0,0 c 0.046,-0.18 0.092,-0.361 0.139,-0.54 l 0,0 c 33.863,33.951 80.696,54.957 132.437,54.957 l 0,0 c 18.512,0 36.395,-2.687 53.28,-7.697 l 0,0 c -2.729,11.04 -7.372,21.321 -13.56,30.48 l 0,0 c -0.003,0.003 -0.004,0.007 -0.007,0.01 l 0,0 c -0.051,0.074 -0.1,0.147 -0.15,0.222 l 0,0 c -0.002,0.004 -0.008,0.011 -0.01,0.015 l 0,0 c -0.133,0.194 -0.265,0.387 -0.398,0.581 l 0,0 c -0.005,0.005 -0.007,0.01 -0.013,0.017 l 0,0 c -0.051,0.073 -0.102,0.148 -0.154,0.222 l 0,0 c -0.002,0.003 -0.002,0.004 -0.004,0.006 l 0,0 c -0.079,0.114 -0.159,0.228 -0.239,0.341 l 0,0 c -0.007,0.011 -0.014,0.021 -0.022,0.033 l 0,0 c -0.046,0.065 -0.096,0.136 -0.142,0.201 l 0,0 c -0.005,0.007 -0.009,0.013 -0.014,0.019 l 0,0 c -0.08,0.114 -0.16,0.227 -0.24,0.34 l 0,0 c -0.007,0.009 -0.013,0.018 -0.021,0.028 l 0,0 c -0.045,0.063 -0.093,0.13 -0.139,0.195 l 0,0 c -0.009,0.011 -0.015,0.021 -0.024,0.033 l 0,0 c -0.079,0.111 -0.159,0.222 -0.238,0.33 l 0,0 c -0.008,0.011 -0.017,0.024 -0.025,0.035 l 0,0 c -0.042,0.057 -0.084,0.116 -0.127,0.173 l 0,0 c -0.013,0.019 -0.031,0.043 -0.044,0.062 l 0,0 c -0.041,0.055 -0.079,0.107 -0.119,0.163 l 0,0 c -0.013,0.016 -0.026,0.035 -0.038,0.051 l 0,0 c -0.024,0.033 -0.049,0.067 -0.074,0.101 l 0,0 c -0.008,0.01 -0.018,0.025 -0.026,0.035 l 0,0 c -0.042,0.057 -0.089,0.12 -0.131,0.179 l 0,0 c -0.016,0.02 -0.027,0.036 -0.043,0.056 l 0,0 c -0.037,0.051 -0.073,0.1 -0.112,0.151 l 0,0 c -0.016,0.022 -0.033,0.044 -0.049,0.066 l 0,0 c -0.021,0.028 -0.044,0.059 -0.065,0.088 l 0,0 c -0.032,0.043 -0.063,0.083 -0.096,0.126 l 0,0 c -0.021,0.029 -0.042,0.057 -0.064,0.085 l 0,0 c -0.02,0.027 -0.041,0.054 -0.06,0.081 l 0,0 c -0.032,0.043 -0.064,0.086 -0.096,0.129 l 0,0 c -0.021,0.025 -0.042,0.054 -0.062,0.079 l 0,0 c -0.025,0.033 -0.05,0.067 -0.074,0.099 l 0,0 c -0.026,0.035 -0.056,0.072 -0.082,0.106 l 0,0 c -0.022,0.029 -0.047,0.062 -0.069,0.091 l 0,0 c -0.021,0.028 -0.042,0.055 -0.063,0.084 l 0,0 c -0.032,0.04 -0.064,0.084 -0.096,0.124 l 0,0 c -0.017,0.022 -0.034,0.044 -0.051,0.067 l 0,0 c -0.033,0.043 -0.069,0.091 -0.103,0.133 l 0,0 c -0.02,0.027 -0.041,0.054 -0.062,0.079 l 0,0 c -0.02,0.026 -0.044,0.058 -0.064,0.084 l 0,0 c -0.033,0.041 -0.066,0.084 -0.099,0.127 l 0,0 c -0.02,0.026 -0.04,0.053 -0.061,0.079 l 0,0 c -0.023,0.029 -0.046,0.058 -0.07,0.088 l 0,0 c -0.025,0.033 -0.054,0.069 -0.079,0.103 l 0,0 c -0.026,0.034 -0.054,0.066 -0.08,0.1 l 0,0 c -0.019,0.025 -0.039,0.051 -0.058,0.073 l 0,0 c -0.033,0.043 -0.068,0.087 -0.101,0.128 l 0,0 c -0.02,0.026 -0.04,0.053 -0.062,0.079 l 0,0 c -0.024,0.033 -0.055,0.07 -0.08,0.101 l 0,0 c -0.024,0.031 -0.05,0.062 -0.074,0.094 l 0,0 c -0.025,0.031 -0.053,0.065 -0.078,0.098 l 0,0 c -0.019,0.022 -0.037,0.045 -0.055,0.068 l 0,0 c -0.035,0.043 -0.072,0.089 -0.106,0.133 l 0,0 c -0.017,0.021 -0.039,0.046 -0.055,0.067 l 0,0 c -0.037,0.047 -0.077,0.095 -0.113,0.14 l 0,0 c -0.015,0.019 -0.029,0.037 -0.045,0.055 l 0,0 c -0.032,0.041 -0.061,0.077 -0.092,0.116 l 0,0 c -0.014,0.016 -0.029,0.035 -0.042,0.051 l 0,0 c -0.042,0.05 -0.08,0.097 -0.122,0.149 l 0,0 c -0.013,0.016 -0.025,0.033 -0.04,0.049 l 0,0 c -0.039,0.048 -0.082,0.1 -0.122,0.148 l 0,0 c -0.011,0.015 -0.025,0.033 -0.038,0.046 l 0,0 c -0.04,0.05 -0.083,0.101 -0.122,0.151 l 0,0 c -0.005,0.004 -0.007,0.008 -0.011,0.012 l 0,0 c -0.046,0.055 -0.087,0.105 -0.132,0.159 l 0,0 c -0.012,0.015 -0.025,0.03 -0.036,0.045 l 0,0 c -0.043,0.051 -0.084,0.1 -0.127,0.152 l 0,0 c -0.01,0.013 -0.025,0.029 -0.036,0.044 l 0,0 c -0.041,0.047 -0.081,0.095 -0.122,0.145 l 0,0 c -0.011,0.013 -0.024,0.028 -0.036,0.043 l 0,0 c -0.038,0.045 -0.075,0.091 -0.113,0.135 l 0,0 c -0.012,0.013 -0.021,0.024 -0.033,0.038 l 0,0 c -0.044,0.053 -0.086,0.102 -0.13,0.154 l 0,0 c -0.01,0.012 -0.024,0.029 -0.034,0.042 l 0,0 c -0.045,0.051 -0.089,0.103 -0.134,0.156 l 0,0 c -0.008,0.009 -0.015,0.018 -0.023,0.026 l 0,0 c -0.04,0.049 -0.082,0.098 -0.122,0.145 l 0,0 c -0.008,0.009 -0.019,0.022 -0.026,0.031 l 0,0 c -0.046,0.052 -0.091,0.106 -0.136,0.158 l 0,0 c -0.01,0.012 -0.021,0.024 -0.03,0.035 l 0,0 c -0.045,0.052 -0.092,0.106 -0.137,0.157 l 0,0 c -0.01,0.013 -0.016,0.019 -0.026,0.031 l 0,0 c -0.045,0.051 -0.09,0.103 -0.135,0.155 l 0,0 c -0.004,0.006 -0.007,0.009 -0.011,0.013 l 0,0 c -0.045,0.052 -0.093,0.107 -0.137,0.159 l 0,0 c -0.013,0.014 -0.023,0.025 -0.035,0.038 l 0,0 c -0.045,0.052 -0.09,0.104 -0.135,0.156 l 0,0 c -0.008,0.009 -0.019,0.022 -0.028,0.031 l 0,0 c -0.049,0.055 -0.094,0.107 -0.142,0.161 l 0,0 c -0.003,0.006 -0.007,0.008 -0.011,0.012 l 0,0 c -0.046,0.053 -0.095,0.108 -0.142,0.161 l 0,0 c -0.006,0.007 -0.011,0.014 -0.017,0.02 l 0,0 c -0.048,0.053 -0.095,0.108 -0.144,0.161 l 0,0 c -0.01,0.012 -0.017,0.021 -0.027,0.032 l 0,0 c -0.049,0.055 -0.097,0.108 -0.146,0.162 l 0,0 c -0.002,0.002 -0.006,0.007 -0.008,0.01 l 0,0 c -0.051,0.055 -0.099,0.109 -0.15,0.166 l 0,0 c -0.004,0.005 -0.006,0.008 -0.011,0.013 l 0,0 c -0.049,0.055 -0.101,0.111 -0.15,0.165 l 0,0 c -0.006,0.007 -0.014,0.015 -0.02,0.023 l 0,0 c -0.049,0.055 -0.1,0.11 -0.149,0.164 l 0,0 c -0.005,0.006 -0.009,0.011 -0.014,0.016 l 0,0 c -0.102,0.112 -0.208,0.227 -0.31,0.339 l 0,0 c -0.005,0.004 -0.013,0.014 -0.017,0.018 l 0,0 c -0.052,0.057 -0.104,0.113 -0.156,0.169 l 0,0 c -0.002,0.002 -0.006,0.006 -0.007,0.008 l 0,0 c -0.107,0.116 -0.218,0.235 -0.324,0.35 l 0,0 c -0.003,0.002 -0.004,0.003 -0.006,0.006 l 0,0 c -0.054,0.057 -0.105,0.112 -0.159,0.169 l 0,0 c -0.004,0.005 -0.009,0.011 -0.013,0.014 l 0,0 c -0.109,0.117 -0.216,0.231 -0.326,0.346 l 0,0 -0.003,0.003 c -0.222,0.236 -0.447,0.47 -0.674,0.704 l 0,0 0,10e-4 c -8.894,9.2 -19.615,16.623 -31.577,21.686 l 0,0 -74.612,0 z"
         id="path230"
         inkscape:connector-curvature="0" /></clipPath><clipPath
       clipPathUnits="userSpaceOnUse"
       id="clipPath234"><path
         d="m 0,0 1303.94,0 0,850.394 L 0,850.394 0,0 Z"
         id="path236"
         inkscape:connector-curvature="0" /></clipPath><clipPath
       clipPathUnits="userSpaceOnUse"
       id="clipPath246"><path
         d="m 326.965,737.952 c 10.026,-38.544 43.449,-67.65 84.198,-71.242 l 0,0 c 0.255,-0.022 0.51,-0.044 0.766,-0.065 l 0,0 c 0.257,-0.02 0.509,-0.038 0.765,-0.057 l 0,0 0.007,0 c 0.256,-0.019 0.506,-0.036 0.764,-0.053 l 0,0 c 0.002,0 0.002,0 0.005,0 l 0,0 c 0.086,-0.006 0.167,-0.01 0.254,-0.017 l 0,0 0.003,0 c 0.169,-0.01 0.334,-0.019 0.503,-0.028 l 0,0 c 0.007,-10e-4 0.009,-10e-4 0.017,-10e-4 l 0,0 c 0.08,-0.006 0.163,-0.009 0.244,-0.015 l 0,0 c 0.006,0 0.009,0 0.015,-0.001 l 0,0 c 0.165,-0.008 0.329,-0.017 0.493,-0.025 l 0,0 c 0.007,0 0.015,0 0.022,-10e-4 l 0,0 c 0.081,-0.002 0.162,-0.007 0.242,-0.011 l 0,0 c 0.006,0 0.012,0 0.019,0 l 0,0 c 0.166,-0.008 0.326,-0.015 0.493,-0.022 l 0,0 c 0.003,0 0.015,0 0.02,-10e-4 l 0,0 c 0.077,-0.003 0.157,-0.005 0.235,-0.009 l 0,0 c 0.013,0 0.021,-10e-4 0.035,-10e-4 l 0,0 c 0.081,-0.002 0.157,-0.005 0.238,-0.009 l 0,0 0.006,0 c 0.08,-0.003 0.158,-0.004 0.238,-0.008 l 0,0 c 0.007,0 0.018,0 0.024,-10e-4 l 0,0 c 0.079,-0.002 0.154,-0.003 0.233,-0.007 l 0,0 c 0.012,0 0.027,0 0.038,-0.001 l 0,0 c 0.079,-0.002 0.154,-0.004 0.232,-0.005 l 0,0 c 0.007,0 0.02,-10e-4 0.026,-10e-4 l 0,0 c 0.076,-0.003 0.147,-0.005 0.223,-0.006 l 0,0 0.025,0 c 0.079,-0.002 0.157,-0.005 0.236,-0.007 l 0,0 0.033,0 c 0.078,-0.002 0.154,-0.003 0.233,-0.004 l 0,0 0.033,0 c 0.075,-0.003 0.153,-0.004 0.229,-0.005 l 0,0 c 0.006,-0.001 0.005,-0.001 0.013,-0.001 l 0,0 c 0.077,-10e-4 0.154,-0.002 0.232,-0.002 l 0,0 c 0.013,0 0.031,-10e-4 0.044,-10e-4 l 0,0 c 0.079,-10e-4 0.151,-0.003 0.23,-0.003 l 0,0 c 0.009,-10e-4 0.019,-10e-4 0.029,-10e-4 l 0,0 c 0.079,-10e-4 0.151,-10e-4 0.231,-0.002 l 0,0 0.014,0 c 0.079,-0.001 0.155,-0.001 0.234,-0.002 l 0,0 0.04,0 c 0.076,0 0.152,0 0.227,0 l 0,0 0.043,0 0.235,0 c 52.907,0 95.797,42.888 95.797,95.796 l 0,0 0,0.172 c 0,0.018 0,0.042 -10e-4,0.061 l 0,0 0,0.111 0,0.07 c 0,0.035 0,0.068 -10e-4,0.103 l 0,0 0,0.07 c 0,0.036 0,0.072 0,0.108 l 0,0 0,0.068 c -0.002,0.055 -0.002,0.111 -0.003,0.166 l 0,0 0,0.023 c 0,0.049 -10e-4,0.101 -10e-4,0.15 l 0,0 c -10e-4,0.019 -10e-4,0.036 -10e-4,0.055 l 0,0 c -0.001,0.041 -0.001,0.08 -0.002,0.121 l 0,0 0,0.063 c -10e-4,0.036 -10e-4,0.071 -0.002,0.106 l 0,0 c 0,0.022 0,0.048 0,0.07 l 0,0 c -0.002,0.038 -0.002,0.075 -0.003,0.112 l 0,0 c 0,0.021 0,0.037 -10e-4,0.059 l 0,0 c -10e-4,0.058 -0.002,0.113 -0.003,0.17 l 0,0 0,0.023 c -10e-4,0.052 -0.002,0.1 -0.002,0.151 l 0,0 c -0.002,0.019 -0.002,0.033 -0.003,0.054 l 0,0 c 0,0.039 -10e-4,0.078 -0.002,0.118 l 0,0 c -10e-4,0.021 -10e-4,0.041 -0.002,0.064 l 0,0 c 0,0.038 -10e-4,0.076 -0.002,0.115 l 0,0 c 0,0.015 0,0.039 -0.002,0.055 l 0,0 c -0.001,0.044 -0.002,0.087 -0.003,0.13 l 0,0 c 0,0.016 -10e-4,0.028 -10e-4,0.044 l 0,0 c -0.002,0.059 -0.003,0.117 -0.005,0.176 l 0,0 0,0.009 c -0.002,0.051 -0.003,0.105 -0.005,0.157 l 0,0 c -0.001,0.019 -0.001,0.042 -0.001,0.061 l 0,0 c -10e-4,0.039 -0.003,0.079 -0.004,0.118 l 0,0 c -0.001,0.016 -0.002,0.039 -0.002,0.055 l 0,0 c -0.002,0.041 -0.003,0.08 -0.004,0.119 l 0,0 c 0,0.021 0,0.036 -10e-4,0.057 l 0,0 c -0.003,0.047 -0.005,0.094 -0.006,0.141 l 0,0 c -10e-4,0.01 -10e-4,0.019 -10e-4,0.028 l 0,0 c -10e-4,0.06 -0.005,0.12 -0.007,0.178 l 0,0 0,0.009 c -0.002,0.054 -0.003,0.108 -0.006,0.161 l 0,0 c -10e-4,0.017 -0.002,0.035 -0.003,0.052 l 0,0 c -10e-4,0.041 -0.003,0.081 -0.005,0.124 l 0,0 c 0,0.019 -10e-4,0.036 -0.002,0.055 l 0,0 c -0.002,0.041 -0.003,0.083 -0.005,0.125 l 0,0 c 0,0.012 -10e-4,0.033 -10e-4,0.047 l 0,0 c -0.003,0.045 -0.005,0.091 -0.007,0.135 l 0,0 c -10e-4,0.013 -10e-4,0.027 -10e-4,0.04 l 0,0 c -0.004,0.059 -0.007,0.117 -0.009,0.176 l 0,0 0,0.002 c -0.003,0.056 -0.006,0.111 -0.009,0.169 l 0,0 c 0,0.011 0,0.029 -0.002,0.043 l 0,0 c -0.002,0.046 -0.004,0.091 -0.007,0.137 l 0,0 c 0,0.012 0,0.027 -0.002,0.039 l 0,0 c -0.002,0.044 -0.004,0.087 -0.007,0.131 l 0,0 c 0,0.014 0,0.033 -0.002,0.049 l 0,0 c -0.003,0.05 -0.006,0.098 -0.007,0.148 l 0,0 c -0.002,0.009 -0.002,0.014 -0.003,0.023 l 0,0 c -0.003,0.06 -0.006,0.119 -0.01,0.178 l 0,0 0,0.01 c -0.003,0.054 -0.005,0.109 -0.01,0.163 l 0,0 c 0,0.014 -10e-4,0.026 -0.002,0.04 l 0,0 c -0.002,0.042 -0.005,0.085 -0.008,0.129 l 0,0 c -10e-4,0.019 -0.002,0.036 -0.003,0.055 l 0,0 c -0.003,0.045 -0.006,0.09 -0.008,0.135 l 0,0 c -0.001,0.01 -0.001,0.02 -0.001,0.029 l 0,0 c -0.005,0.059 -0.009,0.116 -0.012,0.175 l 0,0 c 0,0 0,10e-4 0,10e-4 l 0,0 c -0.007,0.118 -0.015,0.235 -0.024,0.353 l 0,0 c 0,0.01 -0.002,0.026 -0.003,0.036 l 0,0 c -0.003,0.048 -0.006,0.097 -0.01,0.144 l 0,0 c 0,0.01 -10e-4,0.024 -0.002,0.033 l 0,0 c -0.002,0.049 -0.007,0.101 -0.011,0.15 l 0,0 c 0,0.006 -10e-4,0.017 -10e-4,0.024 l 0,0 c -0.013,0.178 -0.026,0.357 -0.041,0.534 l 0,0 c 0,0.007 -0.001,0.013 -0.001,0.02 l 0,0 c -0.003,0.051 -0.008,0.102 -0.012,0.155 l 0,0 c 0,0.009 -10e-4,0.021 -0.003,0.03 l 0,0 c -0.004,0.055 -0.009,0.112 -0.013,0.167 l 0,0 -0.001,0.002 c -0.014,0.179 -0.029,0.36 -0.045,0.54 l 0,0 c -10e-4,0.006 -10e-4,0.011 -10e-4,0.018 l 0,0 c -0.006,0.054 -0.011,0.108 -0.015,0.163 l 0,0 c -10e-4,0.007 -10e-4,0.009 -0.002,0.016 l 0,0 c -0.005,0.054 -0.009,0.107 -0.014,0.161 l 0,0 c -10e-4,0.005 -0.002,0.012 -0.002,0.02 l 0,0 c -0.017,0.178 -0.033,0.357 -0.051,0.534 l 0,0 c 0,0.007 0,0.005 -10e-4,0.013 l 0,0 c -0.004,0.054 -0.01,0.108 -0.015,0.163 l 0,0 c -0.002,0.005 -0.002,0.014 -0.003,0.02 l 0,0 c -0.023,0.236 -0.048,0.471 -0.073,0.707 l 0,0 c -10e-4,0.01 -0.002,0.015 -0.002,0.024 l 0,0 c -0.006,0.052 -0.011,0.104 -0.017,0.156 l 0,0 c -10e-4,0.005 -0.002,0.015 -0.003,0.021 l 0,0 c -0.005,0.054 -0.011,0.107 -0.017,0.16 l 0,0 c -10e-4,0.006 -10e-4,0.01 -10e-4,0.015 l 0,0 c -0.014,0.12 -0.027,0.239 -0.041,0.356 l 0,0 c 0,0.003 -10e-4,0.008 -10e-4,0.011 l 0,0 c -0.006,0.052 -0.012,0.104 -0.018,0.155 l 0,0 c -0.002,0.016 -0.003,0.025 -0.005,0.041 l 0,0 c -0.005,0.045 -0.01,0.09 -0.016,0.135 l 0,0 c 0,0.013 -0.003,0.026 -0.004,0.037 l 0,0 c -0.005,0.053 -0.012,0.104 -0.019,0.155 l 0,0 c 0,0.004 -10e-4,0.012 -10e-4,0.014 l 0,0 c -0.015,0.118 -0.029,0.237 -0.044,0.355 l 0,0 c 0,0.004 -10e-4,0.007 -10e-4,0.01 l 0,0 c -0.007,0.054 -0.012,0.107 -0.02,0.161 l 0,0 c 0,0.009 -0.001,0.018 -0.004,0.028 l 0,0 c -0.006,0.05 -0.012,0.101 -0.019,0.15 l 0,0 c -10e-4,0.01 -0.002,0.016 -0.003,0.025 l 0,0 c -0.006,0.05 -0.013,0.102 -0.02,0.153 l 0,0 c 0,0.01 0,0.013 -0.003,0.022 l 0,0 c -0.015,0.116 -0.03,0.233 -0.046,0.349 l 0,0 c 0,0.007 -10e-4,0.014 -0.002,0.02 l 0,0 c -0.007,0.05 -0.013,0.099 -0.02,0.15 l 0,0 c -10e-4,0.011 -0.004,0.026 -0.006,0.038 l 0,0 c -0.004,0.043 -0.011,0.086 -0.017,0.128 l 0,0 c -0.002,0.015 -0.005,0.033 -0.006,0.049 l 0,0 c -0.007,0.047 -0.014,0.094 -0.021,0.143 l 0,0 c -10e-4,0.009 -10e-4,0.012 -0.003,0.021 l 0,0 c -0.016,0.116 -0.032,0.231 -0.047,0.345 l 0,0 c -0.003,0.009 -0.005,0.025 -0.006,0.034 l 0,0 c -0.007,0.045 -0.012,0.09 -0.02,0.135 l 0,0 c -10e-4,0.016 -0.004,0.028 -0.006,0.044 l 0,0 c -0.007,0.044 -0.013,0.088 -0.02,0.132 l 0,0 c -0.001,0.011 -0.002,0.027 -0.005,0.038 l 0,0 c -0.006,0.047 -0.014,0.092 -0.021,0.139 l 0,0 c -10e-4,0.009 -0.003,0.023 -0.005,0.033 l 0,0 c -0.007,0.057 -0.016,0.114 -0.025,0.17 l 0,0 0,0.007 c -0.008,0.053 -0.017,0.105 -0.025,0.158 l 0,0 c -0.002,0.019 -0.006,0.039 -0.009,0.057 l 0,0 c -0.006,0.036 -0.011,0.07 -0.016,0.106 l 0,0 c -0.004,0.022 -0.008,0.045 -0.011,0.067 l 0,0 c -0.005,0.035 -0.01,0.067 -0.016,0.101 l 0,0 c -0.003,0.023 -0.006,0.043 -0.01,0.065 l 0,0 c -0.006,0.04 -0.012,0.08 -0.019,0.12 l 0,0 c -10e-4,0.015 -0.004,0.029 -0.007,0.045 l 0,0 c -0.008,0.054 -0.017,0.106 -0.026,0.16 l 0,0 c -0.003,0.022 -0.005,0.039 -0.009,0.06 l 0,0 c -0.005,0.035 -0.012,0.071 -0.018,0.106 l 0,0 c -0.003,0.022 -0.007,0.045 -0.01,0.066 l 0,0 c -0.006,0.033 -0.011,0.068 -0.017,0.101 l 0,0 c -0.003,0.022 -0.006,0.045 -0.011,0.067 l 0,0 c -0.005,0.034 -0.011,0.065 -0.016,0.099 l 0,0 c -0.004,0.025 -0.008,0.049 -0.012,0.073 l 0,0 c -0.005,0.026 -0.009,0.052 -0.013,0.078 l 0,0 c -0.005,0.03 -0.01,0.058 -0.015,0.088 l 0,0 c -0.006,0.035 -0.012,0.071 -0.018,0.106 l 0,0 c -0.008,0.043 -0.014,0.082 -0.022,0.125 l 0,0 c -0.004,0.027 -0.009,0.053 -0.013,0.079 l 0,0 c -0.006,0.035 -0.01,0.062 -0.016,0.094 l 0,0 c -0.004,0.023 -0.008,0.043 -0.011,0.064 l 0,0 c -0.006,0.034 -0.012,0.069 -0.018,0.103 l 0,0 c -0.002,0.018 -0.006,0.032 -0.009,0.049 l 0,0 c -0.007,0.041 -0.013,0.077 -0.019,0.116 l 0,0 c -0.003,0.007 -0.004,0.015 -0.005,0.023 l 0,0 c -0.024,0.14 -0.05,0.279 -0.076,0.419 l 0,0 c 0,0.003 0,0.005 -10e-4,0.005 l 0,0 c -0.009,0.049 -0.017,0.095 -0.026,0.145 l 0,0 c 0,0 0,0.001 -10e-4,0.003 l 0,0 c -0.351,1.914 -0.759,3.806 -1.222,5.678 l 0,0 c -16.885,5.01 -34.768,7.697 -53.28,7.697 l 0,0 c -51.741,0 -98.574,-21.006 -132.437,-54.957"
         id="path248"
         inkscape:connector-curvature="0" /></clipPath><clipPath
       clipPathUnits="userSpaceOnUse"
       id="clipPath252"><path
         d="m 0,0 1303.94,0 0,850.394 L 0,850.394 0,0 Z"
         id="path254"
         inkscape:connector-curvature="0" /></clipPath><clipPath
       clipPathUnits="userSpaceOnUse"
       id="clipPath264"><path
         d="m 0,0 651.968,0 0,850.394 L 0,850.394 0,0 Z"
         id="path266"
         inkscape:connector-curvature="0" /></clipPath><clipPath
       clipPathUnits="userSpaceOnUse"
       id="clipPath282"><path
         d="m 633.417,537.113 c -1.806,-4.568 -3.791,-9.06 -5.938,-13.441 l 0,0 c 0.142,-0.043 0.287,-0.084 0.429,-0.128 l 0,0 c 0.189,-0.056 0.375,-0.114 0.564,-0.172 l 0,0 c 1.244,-0.387 2.468,-0.81 3.677,-1.268 l 0,0 c 0.178,-0.068 0.356,-0.135 0.533,-0.205 l 0,0 c 1.174,-0.457 2.332,-0.948 3.472,-1.47 l 0,0 c 0.169,-0.079 0.335,-0.157 0.503,-0.234 l 0,0 c 5.591,-2.626 10.741,-6.031 15.311,-10.078 l 0,0 0,26.996 -18.551,0 z m -99.214,-102.751 0,-47.729 117.765,0 0,27.167 c -9.54,-8.446 -21.606,-14.101 -34.924,-15.688 l 0,0 c -2.52,-0.3 -5.085,-0.454 -7.686,-0.454 l 0,0 c -2.601,0 -5.166,0.154 -7.686,0.454 l 0,0 c -24.894,2.964 -45.422,20.15 -53.231,43.203 l 0,0 c -4.63,-2.509 -9.382,-4.833 -14.238,-6.953"
         id="path284"
         inkscape:connector-curvature="0" /></clipPath><clipPath
       clipPathUnits="userSpaceOnUse"
       id="clipPath288"><path
         d="m 0,0 1303.94,0 0,850.394 L 0,850.394 0,0 Z"
         id="path290"
         inkscape:connector-curvature="0" /></clipPath><clipPath
       clipPathUnits="userSpaceOnUse"
       id="clipPath300"><path
         d="m 578.103,537.113 -0.339,-3.677 c -3.674,-2.155 -8.147,-3.194 -13.26,-3.194 l 0,0 c -6.786,0 -12.332,2.536 -15.715,6.871 l 0,0 -14.586,0 0,-102.751 c 4.856,2.12 9.608,4.444 14.238,6.953 l 0,0 c -2.195,6.479 -3.385,13.423 -3.385,20.643 l 0,0 c 0,23.109 12.187,43.369 30.488,54.703 l 0,0 10e-4,0.001 c 0.603,0.375 1.215,0.741 1.832,1.095 l 0,0 0,-10e-4 c 2.982,1.712 6.111,3.193 9.369,4.417 l 0,0 c 0.386,0.145 0.774,0.285 1.162,0.424 l 0,0 c 2.272,0.802 4.602,1.481 6.983,2.029 l 0,0 c 0.316,0.073 0.63,0.143 0.949,0.212 l 0,0 0,-10e-4 c 1.326,0.283 2.669,0.526 4.025,0.727 l 0,0 c 0.63,0.095 1.265,0.178 1.901,0.252 l 0,0 0.001,0.002 c 0.278,0.031 0.551,0.063 0.829,0.092 l 0,0 c 1.741,0.181 3.504,0.293 5.281,0.333 l 0,0 0,10e-4 c 0.033,10e-4 0.066,10e-4 0.099,10e-4 l 0,0 0.008,0 -0.001,0 c 0.215,0.006 0.425,0.009 0.639,0.011 l 0,0 0,-10e-4 c 0.244,0.004 0.49,0.006 0.736,0.006 l 0,0 c 1.373,0 2.739,-0.044 4.091,-0.128 l 0,0 c 0.116,-0.007 0.232,-0.016 0.347,-0.023 l 0,0 0,-10e-4 0.009,0 c 0.108,-0.008 0.221,-0.016 0.33,-0.024 l 0,0 -10e-4,0 c 1.506,-0.11 2.995,-0.272 4.468,-0.484 l 0,0 c 0.216,-0.031 0.427,-0.062 0.642,-0.096 l 0,0 c 1.402,-0.216 2.789,-0.477 4.159,-0.783 l 0,0 0,0 c 0.202,-0.045 0.4,-0.09 0.601,-0.136 l 0,0 0,-10e-4 c 1.171,-0.274 2.328,-0.578 3.475,-0.913 l 0,0 c 2.147,4.381 4.132,8.873 5.938,13.441 l 0,0 -55.314,0 z"
         id="path302"
         inkscape:connector-curvature="0" /></clipPath><clipPath
       clipPathUnits="userSpaceOnUse"
       id="clipPath306"><path
         d="m 0,0 1303.94,0 0,850.394 L 0,850.394 0,0 Z"
         id="path308"
         inkscape:connector-curvature="0" /></clipPath><clipPath
       clipPathUnits="userSpaceOnUse"
       id="clipPath318"><path
         d="m 548.789,537.113 c 3.383,-4.335 8.929,-6.871 15.715,-6.871 l 0,0 c 5.113,0 9.586,1.039 13.26,3.194 l 0,0 0.339,3.677 -29.314,0 z"
         id="path320"
         inkscape:connector-curvature="0" /></clipPath><clipPath
       clipPathUnits="userSpaceOnUse"
       id="clipPath324"><path
         d="m 0,0 1303.94,0 0,850.394 L 0,850.394 0,0 Z"
         id="path326"
         inkscape:connector-curvature="0" /></clipPath><clipPath
       clipPathUnits="userSpaceOnUse"
       id="clipPath336"><path
         d="m 0,0 651.968,0 0,850.394 L 0,850.394 0,0 Z"
         id="path338"
         inkscape:connector-curvature="0" /></clipPath><clipPath
       clipPathUnits="userSpaceOnUse"
       id="clipPath346"><path
         d="m 601.672,398.112 c -24.894,2.964 -45.422,20.15 -53.231,43.203 l 0,0 c 7.809,-23.053 28.337,-40.239 53.231,-43.203 m 15.372,0 c 13.318,1.587 25.384,7.242 34.924,15.688 l 0,0 c -9.54,-8.446 -21.606,-14.101 -34.924,-15.688"
         id="path348"
         inkscape:connector-curvature="0" /></clipPath><clipPath
       clipPathUnits="userSpaceOnUse"
       id="clipPath352"><path
         d="m 0,0 1303.94,0 0,850.394 L 0,850.394 0,0 Z"
         id="path354"
         inkscape:connector-curvature="0" /></clipPath><clipPath
       clipPathUnits="userSpaceOnUse"
       id="clipPath364"><path
         d="m 548.441,441.315 c -2.195,6.479 -3.385,13.424 -3.385,20.643 l 0,0 c 0,-7.22 1.19,-14.164 3.385,-20.643"
         id="path366"
         inkscape:connector-curvature="0" /></clipPath><clipPath
       clipPathUnits="userSpaceOnUse"
       id="clipPath370"><path
         d="m 0,0 1303.94,0 0,850.394 L 0,850.394 0,0 Z"
         id="path372"
         inkscape:connector-curvature="0" /></clipPath><clipPath
       clipPathUnits="userSpaceOnUse"
       id="clipPath382"><path
         d="m 544.056,396.657 107.912,0 0,130.604 -107.912,0 0,-130.604 z"
         id="path384"
         inkscape:connector-curvature="0" /></clipPath><clipPath
       clipPathUnits="userSpaceOnUse"
       id="clipPath392"><path
         d="m 608.464,526.254 c 0.053,0 0.105,10e-4 0.158,10e-4 l 0,0 0,10e-4 c -0.052,-10e-4 -0.106,-0.002 -0.158,-0.002"
         id="path394"
         inkscape:connector-curvature="0" /></clipPath><clipPath
       clipPathUnits="userSpaceOnUse"
       id="clipPath398"><path
         d="m 0,0 1303.94,0 0,850.394 L 0,850.394 0,0 Z"
         id="path400"
         inkscape:connector-curvature="0" /></clipPath><clipPath
       clipPathUnits="userSpaceOnUse"
       id="clipPath410"><path
         d="m 545.056,461.958 c 0,-35.512 28.788,-64.3 64.302,-64.3 l 0,0 c 16.345,0 31.265,6.098 42.61,16.144 l 0,0 0,96.314 c -11.345,10.046 -26.265,16.145 -42.61,16.145 l 0,0 c -35.514,0 -64.302,-28.79 -64.302,-64.303"
         id="path412"
         inkscape:connector-curvature="0" /></clipPath><clipPath
       clipPathUnits="userSpaceOnUse"
       id="clipPath416"><path
         d="m 0,0 1303.94,0 0,850.394 L 0,850.394 0,0 Z"
         id="path418"
         inkscape:connector-curvature="0" /></clipPath><clipPath
       clipPathUnits="userSpaceOnUse"
       id="clipPath426"><path
         d="m 614.135,526.085 c -0.095,0.007 -0.193,0.014 -0.288,0.021 l 0,0 c 0.095,-0.007 0.193,-0.014 0.288,-0.021"
         id="path428"
         inkscape:connector-curvature="0" /></clipPath><clipPath
       clipPathUnits="userSpaceOnUse"
       id="clipPath432"><path
         d="m 0,0 1303.94,0 0,850.394 L 0,850.394 0,0 Z"
         id="path434"
         inkscape:connector-curvature="0" /></clipPath><clipPath
       clipPathUnits="userSpaceOnUse"
       id="clipPath444"><path
         d="m 545.056,461.958 c 0,-35.512 28.788,-64.3 64.302,-64.3 l 0,0 c 16.345,0 31.265,6.098 42.61,16.144 l 0,0 0,96.314 c -11.345,10.046 -26.265,16.145 -42.61,16.145 l 0,0 c -35.514,0 -64.302,-28.79 -64.302,-64.303"
         id="path446"
         inkscape:connector-curvature="0" /></clipPath><clipPath
       clipPathUnits="userSpaceOnUse"
       id="clipPath450"><path
         d="m 0,0 1303.94,0 0,850.394 L 0,850.394 0,0 Z"
         id="path452"
         inkscape:connector-curvature="0" /></clipPath><clipPath
       clipPathUnits="userSpaceOnUse"
       id="clipPath460"><path
         d="m 607.877,526.243 c 0.024,0 0.046,10e-4 0.069,0.002 l 0,0 c -0.022,-10e-4 -0.046,-10e-4 -0.069,-0.002"
         id="path462"
         inkscape:connector-curvature="0" /></clipPath><clipPath
       clipPathUnits="userSpaceOnUse"
       id="clipPath466"><path
         d="m 0,0 1303.94,0 0,850.394 L 0,850.394 0,0 Z"
         id="path468"
         inkscape:connector-curvature="0" /></clipPath><clipPath
       clipPathUnits="userSpaceOnUse"
       id="clipPath478"><path
         d="m 545.056,461.958 c 0,-35.512 28.788,-64.3 64.302,-64.3 l 0,0 c 16.345,0 31.265,6.098 42.61,16.144 l 0,0 0,96.314 c -11.345,10.046 -26.265,16.145 -42.61,16.145 l 0,0 c -35.514,0 -64.302,-28.79 -64.302,-64.303"
         id="path480"
         inkscape:connector-curvature="0" /></clipPath><clipPath
       clipPathUnits="userSpaceOnUse"
       id="clipPath484"><path
         d="m 0,0 1303.94,0 0,850.394 L 0,850.394 0,0 Z"
         id="path486"
         inkscape:connector-curvature="0" /></clipPath><clipPath
       clipPathUnits="userSpaceOnUse"
       id="clipPath494"><path
         d="m 613.796,526.109 c -0.044,0.003 -0.089,0.007 -0.133,0.009 l 0,0 c 0.044,-0.002 0.089,-0.006 0.133,-0.009"
         id="path496"
         inkscape:connector-curvature="0" /></clipPath><clipPath
       clipPathUnits="userSpaceOnUse"
       id="clipPath500"><path
         d="m 0,0 1303.94,0 0,850.394 L 0,850.394 0,0 Z"
         id="path502"
         inkscape:connector-curvature="0" /></clipPath><clipPath
       clipPathUnits="userSpaceOnUse"
       id="clipPath512"><path
         d="m 545.056,461.958 c 0,-35.512 28.788,-64.3 64.302,-64.3 l 0,0 c 16.345,0 31.265,6.098 42.61,16.144 l 0,0 0,96.314 c -11.345,10.046 -26.265,16.145 -42.61,16.145 l 0,0 c -35.514,0 -64.302,-28.79 -64.302,-64.303"
         id="path514"
         inkscape:connector-curvature="0" /></clipPath><clipPath
       clipPathUnits="userSpaceOnUse"
       id="clipPath518"><path
         d="m 0,0 1303.94,0 0,850.394 L 0,850.394 0,0 Z"
         id="path520"
         inkscape:connector-curvature="0" /></clipPath><clipPath
       clipPathUnits="userSpaceOnUse"
       id="clipPath528"><path
         d="m 602.329,525.881 c 0.036,0.003 0.072,0.008 0.109,0.011 l 0,0 c -0.037,-0.003 -0.073,-0.008 -0.109,-0.011 m -0.087,-0.01 c 0.029,0.003 0.058,0.007 0.087,0.01 l 0,0 c -0.029,-0.003 -0.058,-0.007 -0.087,-0.01 m -0.475,-0.053 -0.001,-0.002 c 0.16,0.019 0.318,0.037 0.476,0.055 l 0,0 c -0.159,-0.018 -0.318,-0.036 -0.475,-0.053"
         id="path530"
         inkscape:connector-curvature="0" /></clipPath><clipPath
       clipPathUnits="userSpaceOnUse"
       id="clipPath534"><path
         d="m 0,0 1303.94,0 0,850.394 L 0,850.394 0,0 Z"
         id="path536"
         inkscape:connector-curvature="0" /></clipPath><clipPath
       clipPathUnits="userSpaceOnUse"
       id="clipPath546"><path
         d="m 545.056,461.958 c 0,-35.512 28.788,-64.3 64.302,-64.3 l 0,0 c 16.345,0 31.265,6.098 42.61,16.144 l 0,0 0,96.314 c -11.345,10.046 -26.265,16.145 -42.61,16.145 l 0,0 c -35.514,0 -64.302,-28.79 -64.302,-64.303"
         id="path548"
         inkscape:connector-curvature="0" /></clipPath><clipPath
       clipPathUnits="userSpaceOnUse"
       id="clipPath552"><path
         d="m 0,0 1303.94,0 0,850.394 L 0,850.394 0,0 Z"
         id="path554"
         inkscape:connector-curvature="0" /></clipPath><clipPath
       clipPathUnits="userSpaceOnUse"
       id="clipPath562"><path
         d="m 618.627,525.597 c -0.008,10e-4 -0.017,0.002 -0.025,0.004 l 0,0 c 0.008,-0.002 0.016,-0.003 0.025,-0.004 m 0.01,-0.002 c 0.002,0 0.005,0 0.009,0 l 0,0 c -0.007,0 -0.013,10e-4 -0.019,0.002 l 0,0 c 0.003,-10e-4 0.006,-0.002 0.01,-0.002 m 0.272,-0.04 c -0.01,0.003 -0.02,0.004 -0.031,0.005 l 0,0 c 0.011,-10e-4 0.021,-0.002 0.031,-0.005 m 0.172,-0.025 c -0.045,0.006 -0.089,0.013 -0.134,0.02 l 0,0 c 0.045,-0.007 0.089,-0.014 0.134,-0.02"
         id="path564"
         inkscape:connector-curvature="0" /></clipPath><clipPath
       clipPathUnits="userSpaceOnUse"
       id="clipPath568"><path
         d="m 0,0 1303.94,0 0,850.394 L 0,850.394 0,0 Z"
         id="path570"
         inkscape:connector-curvature="0" /></clipPath><clipPath
       clipPathUnits="userSpaceOnUse"
       id="clipPath580"><path
         d="m 545.056,461.958 c 0,-35.512 28.788,-64.3 64.302,-64.3 l 0,0 c 16.345,0 31.265,6.098 42.61,16.144 l 0,0 0,96.314 c -11.345,10.046 -26.265,16.145 -42.61,16.145 l 0,0 c -35.514,0 -64.302,-28.79 -64.302,-64.303"
         id="path582"
         inkscape:connector-curvature="0" /></clipPath><clipPath
       clipPathUnits="userSpaceOnUse"
       id="clipPath586"><path
         d="m 0,0 1303.94,0 0,850.394 L 0,850.394 0,0 Z"
         id="path588"
         inkscape:connector-curvature="0" /></clipPath><clipPath
       clipPathUnits="userSpaceOnUse"
       id="clipPath596"><path
         d="m 595.721,524.811 c 0.04,0.009 0.079,0.017 0.119,0.026 l 0,0 0,10e-4 c -0.039,-0.009 -0.079,-0.018 -0.119,-0.027 m -0.151,-0.033 c 0.05,0.011 0.101,0.022 0.151,0.033 l 0,0 c -0.05,-0.011 -0.101,-0.022 -0.151,-0.033 m -0.553,-0.123 c 0.184,0.041 0.368,0.083 0.553,0.123 l 0,0 c -0.185,-0.04 -0.369,-0.082 -0.553,-0.123"
         id="path598"
         inkscape:connector-curvature="0" /></clipPath><clipPath
       clipPathUnits="userSpaceOnUse"
       id="clipPath602"><path
         d="m 0,0 1303.94,0 0,850.394 L 0,850.394 0,0 Z"
         id="path604"
         inkscape:connector-curvature="0" /></clipPath><clipPath
       clipPathUnits="userSpaceOnUse"
       id="clipPath614"><path
         d="m 545.056,461.958 c 0,-35.512 28.788,-64.3 64.302,-64.3 l 0,0 c 16.345,0 31.265,6.098 42.61,16.144 l 0,0 0,96.314 c -11.345,10.046 -26.265,16.145 -42.61,16.145 l 0,0 c -35.514,0 -64.302,-28.79 -64.302,-64.303"
         id="path616"
         inkscape:connector-curvature="0" /></clipPath><clipPath
       clipPathUnits="userSpaceOnUse"
       id="clipPath620"><path
         d="m 0,0 1303.94,0 0,850.394 L 0,850.394 0,0 Z"
         id="path622"
         inkscape:connector-curvature="0" /></clipPath><clipPath
       clipPathUnits="userSpaceOnUse"
       id="clipPath630"><path
         d="m 623.716,524.651 c -0.102,0.024 -0.209,0.047 -0.313,0.071 l 0,0 c 0.104,-0.024 0.209,-0.047 0.313,-0.071 m 0.288,-0.066 c -0.064,0.014 -0.127,0.03 -0.191,0.043 l 0,0 c 0.064,-0.013 0.127,-0.029 0.191,-0.043"
         id="path632"
         inkscape:connector-curvature="0" /></clipPath><clipPath
       clipPathUnits="userSpaceOnUse"
       id="clipPath636"><path
         d="m 0,0 1303.94,0 0,850.394 L 0,850.394 0,0 Z"
         id="path638"
         inkscape:connector-curvature="0" /></clipPath><clipPath
       clipPathUnits="userSpaceOnUse"
       id="clipPath648"><path
         d="m 545.056,461.958 c 0,-35.512 28.788,-64.3 64.302,-64.3 l 0,0 c 16.345,0 31.265,6.098 42.61,16.144 l 0,0 0,96.314 c -11.345,10.046 -26.265,16.145 -42.61,16.145 l 0,0 c -35.514,0 -64.302,-28.79 -64.302,-64.303"
         id="path650"
         inkscape:connector-curvature="0" /></clipPath><clipPath
       clipPathUnits="userSpaceOnUse"
       id="clipPath654"><path
         d="m 0,0 1303.94,0 0,850.394 L 0,850.394 0,0 Z"
         id="path656"
         inkscape:connector-curvature="0" /></clipPath><clipPath
       clipPathUnits="userSpaceOnUse"
       id="clipPath664"><path
         d="m 628.377,523.401 c -0.054,0.016 -0.108,0.034 -0.163,0.05 l 0,0 c 0.054,-0.016 0.109,-0.034 0.163,-0.05 m 0.087,-0.027 c 0,0 -0.001,0 -0.001,0 l 0,0 c -0.029,0.009 -0.057,0.018 -0.086,0.027 l 0,0 c 0.03,-0.01 0.058,-0.018 0.087,-0.027 m 0.002,-10e-4 c -10e-4,0 -10e-4,10e-4 -0.002,10e-4 l 0,0 c 10e-4,0 10e-4,-10e-4 0.002,-10e-4 m 0.006,-0.001 c -0.002,0 -0.005,0.001 -0.006,0.001 l 0,0 c 10e-4,-0.001 0.004,-0.001 0.006,-0.001"
         id="path666"
         inkscape:connector-curvature="0" /></clipPath><clipPath
       clipPathUnits="userSpaceOnUse"
       id="clipPath670"><path
         d="m 0,0 1303.94,0 0,850.394 L 0,850.394 0,0 Z"
         id="path672"
         inkscape:connector-curvature="0" /></clipPath><clipPath
       clipPathUnits="userSpaceOnUse"
       id="clipPath682"><path
         d="m 545.056,461.958 c 0,-35.512 28.788,-64.3 64.302,-64.3 l 0,0 c 16.345,0 31.265,6.098 42.61,16.144 l 0,0 0,96.314 c -11.345,10.046 -26.265,16.145 -42.61,16.145 l 0,0 c -35.514,0 -64.302,-28.79 -64.302,-64.303"
         id="path684"
         inkscape:connector-curvature="0" /></clipPath><clipPath
       clipPathUnits="userSpaceOnUse"
       id="clipPath688"><path
         d="m 0,0 1303.94,0 0,850.394 L 0,850.394 0,0 Z"
         id="path690"
         inkscape:connector-curvature="0" /></clipPath><clipPath
       clipPathUnits="userSpaceOnUse"
       id="clipPath698"><path
         d="m 587.417,522.419 c 0.007,0.003 0.012,0.006 0.019,0.008 l 0,0 c -0.007,-0.002 -0.012,-0.005 -0.019,-0.008 m -0.175,-0.064 c 0.018,0.008 0.037,0.014 0.057,0.021 l 0,0 c -0.02,-0.007 -0.039,-0.013 -0.057,-0.021 m -0.056,-0.019 c 0.019,0.006 0.037,0.013 0.056,0.019 l 0,0 c -0.019,-0.006 -0.038,-0.013 -0.056,-0.019 m -0.274,-0.102 c 0.086,0.032 0.173,0.065 0.26,0.096 l 0,0 c -0.087,-0.031 -0.174,-0.064 -0.26,-0.096 m -0.048,-0.018 c 0.008,0.004 0.017,0.006 0.025,0.01 l 0,0 c -0.01,-0.004 -0.014,-0.006 -0.025,-0.01"
         id="path700"
         inkscape:connector-curvature="0" /></clipPath><clipPath
       clipPathUnits="userSpaceOnUse"
       id="clipPath704"><path
         d="m 0,0 1303.94,0 0,850.394 L 0,850.394 0,0 Z"
         id="path706"
         inkscape:connector-curvature="0" /></clipPath><clipPath
       clipPathUnits="userSpaceOnUse"
       id="clipPath716"><path
         d="m 545.056,461.958 c 0,-35.512 28.788,-64.3 64.302,-64.3 l 0,0 c 16.345,0 31.265,6.098 42.61,16.144 l 0,0 0,96.314 c -11.345,10.046 -26.265,16.145 -42.61,16.145 l 0,0 c -35.514,0 -64.302,-28.79 -64.302,-64.303"
         id="path718"
         inkscape:connector-curvature="0" /></clipPath><clipPath
       clipPathUnits="userSpaceOnUse"
       id="clipPath722"><path
         d="m 0,0 1303.94,0 0,850.394 L 0,850.394 0,0 Z"
         id="path724"
         inkscape:connector-curvature="0" /></clipPath><clipPath
       clipPathUnits="userSpaceOnUse"
       id="clipPath732"><path
         d="m 632.174,522.095 c -0.008,0.003 -0.017,0.006 -0.025,0.009 l 0,0 c 0.008,-0.003 0.017,-0.006 0.025,-0.009 m 0.041,-0.016 c -0.007,0.002 -0.013,0.005 -0.019,0.007 l 0,0 c -0.007,0.003 -0.015,0.006 -0.022,0.009 l 0,0 c 0.014,-0.006 0.027,-0.011 0.041,-0.016 m 0.011,-0.004 c -0.004,10e-4 -0.008,0.003 -0.011,0.004 l 0,0 c 0.003,-0.002 0.007,-0.003 0.011,-0.004 m 0.108,-0.042 c -0.036,0.015 -0.071,0.028 -0.108,0.042 l 0,0 c 0.036,-0.014 0.072,-0.028 0.108,-0.042 m 0.138,-0.053 c -0.046,0.018 -0.092,0.035 -0.138,0.053 l 0,0 c 0.046,-0.018 0.092,-0.035 0.138,-0.053"
         id="path734"
         inkscape:connector-curvature="0" /></clipPath><clipPath
       clipPathUnits="userSpaceOnUse"
       id="clipPath738"><path
         d="m 0,0 1303.94,0 0,850.394 L 0,850.394 0,0 Z"
         id="path740"
         inkscape:connector-curvature="0" /></clipPath><clipPath
       clipPathUnits="userSpaceOnUse"
       id="clipPath750"><path
         d="m 545.056,461.958 c 0,-35.512 28.788,-64.3 64.302,-64.3 l 0,0 c 16.345,0 31.265,6.098 42.61,16.144 l 0,0 0,96.314 c -11.345,10.046 -26.265,16.145 -42.61,16.145 l 0,0 c -35.514,0 -64.302,-28.79 -64.302,-64.303"
         id="path752"
         inkscape:connector-curvature="0" /></clipPath><clipPath
       clipPathUnits="userSpaceOnUse"
       id="clipPath756"><path
         d="m 0,0 1303.94,0 0,850.394 L 0,850.394 0,0 Z"
         id="path758"
         inkscape:connector-curvature="0" /></clipPath><clipPath
       clipPathUnits="userSpaceOnUse"
       id="clipPath766"><path
         d="m 636.606,520.218 c -0.043,0.021 -0.085,0.04 -0.129,0.06 l 0,0 c 0.044,-0.02 0.086,-0.039 0.129,-0.06"
         id="path768"
         inkscape:connector-curvature="0" /></clipPath><clipPath
       clipPathUnits="userSpaceOnUse"
       id="clipPath772"><path
         d="m 0,0 1303.94,0 0,850.394 L 0,850.394 0,0 Z"
         id="path774"
         inkscape:connector-curvature="0" /></clipPath><clipPath
       clipPathUnits="userSpaceOnUse"
       id="clipPath784"><path
         d="m 545.056,461.958 c 0,-35.512 28.788,-64.3 64.302,-64.3 l 0,0 c 16.345,0 31.265,6.098 42.61,16.144 l 0,0 0,96.314 c -11.345,10.046 -26.265,16.145 -42.61,16.145 l 0,0 c -35.514,0 -64.302,-28.79 -64.302,-64.303"
         id="path786"
         inkscape:connector-curvature="0" /></clipPath><clipPath
       clipPathUnits="userSpaceOnUse"
       id="clipPath790"><path
         d="m 0,0 1303.94,0 0,850.394 L 0,850.394 0,0 Z"
         id="path792"
         inkscape:connector-curvature="0" /></clipPath><clipPath
       clipPathUnits="userSpaceOnUse"
       id="clipPath800"><path
         d="m 576.119,517.014 c 0.417,0.252 0.836,0.499 1.258,0.742 l 0,0 c -0.422,-0.243 -0.842,-0.49 -1.258,-0.742 m -0.159,-0.096 c 0.046,0.028 0.093,0.056 0.139,0.084 l 0,0 c -0.046,-0.028 -0.093,-0.056 -0.139,-0.084 m -0.001,0 0.001,0 -0.001,0 z m -0.414,-0.256 -10e-4,-0.001 c 0.138,0.087 0.277,0.172 0.415,0.257 l 0,0 c -0.138,-0.085 -0.278,-0.17 -0.414,-0.256"
         id="path802"
         inkscape:connector-curvature="0" /></clipPath><clipPath
       clipPathUnits="userSpaceOnUse"
       id="clipPath806"><path
         d="m 0,0 1303.94,0 0,850.394 L 0,850.394 0,0 Z"
         id="path808"
         inkscape:connector-curvature="0" /></clipPath><clipPath
       clipPathUnits="userSpaceOnUse"
       id="clipPath818"><path
         d="m 545.056,461.958 c 0,-35.512 28.788,-64.3 64.302,-64.3 l 0,0 c 16.345,0 31.265,6.098 42.61,16.144 l 0,0 0,96.314 c -11.345,10.046 -26.265,16.145 -42.61,16.145 l 0,0 c -35.514,0 -64.302,-28.79 -64.302,-64.303"
         id="path820"
         inkscape:connector-curvature="0" /></clipPath><clipPath
       clipPathUnits="userSpaceOnUse"
       id="clipPath824"><path
         d="m 0,0 1303.94,0 0,850.394 L 0,850.394 0,0 Z"
         id="path826"
         inkscape:connector-curvature="0" /></clipPath><clipPath
       clipPathUnits="userSpaceOnUse"
       id="clipPath834"><path
         d="m 0,0 1303.94,0 0,850.394 L 0,850.394 0,0 Z"
         id="path836"
         inkscape:connector-curvature="0" /></clipPath><clipPath
       clipPathUnits="userSpaceOnUse"
       id="clipPath896"><path
         d="m 26.535,729.713 205.199,0 0,120.681 -205.199,0 0,-120.681 z"
         id="path898"
         inkscape:connector-curvature="0" /></clipPath><clipPath
       clipPathUnits="userSpaceOnUse"
       id="clipPath908"><path
         d="m 0,0 651.968,0 0,850.394 L 0,850.394 0,0 Z"
         id="path910"
         inkscape:connector-curvature="0" /></clipPath><clipPath
       clipPathUnits="userSpaceOnUse"
       id="clipPath964"><path
         d="m 0,0 651.968,0 0,850.394 L 0,850.394 0,0 Z"
         id="path966"
         inkscape:connector-curvature="0" /></clipPath><clipPath
       clipPathUnits="userSpaceOnUse"
       id="clipPath978"><path
         d="m 0,0 1303.94,0 0,850.394 L 0,850.394 0,0 Z"
         id="path980"
         inkscape:connector-curvature="0" /></clipPath><clipPath
       clipPathUnits="userSpaceOnUse"
       id="clipPath990"><path
         d="m 0,0 651.968,0 0,850.394 L 0,850.394 0,0 Z"
         id="path992"
         inkscape:connector-curvature="0" /></clipPath><clipPath
       clipPathUnits="userSpaceOnUse"
       id="clipPath1000"><path
         d="m 0,0 1303.94,0 0,850.394 L 0,850.394 0,0 Z"
         id="path1002"
         inkscape:connector-curvature="0" /></clipPath><clipPath
       clipPathUnits="userSpaceOnUse"
       id="clipPath1016"><path
         d="m 0,0 651.968,0 0,850.394 L 0,850.394 0,0 Z"
         id="path1018"
         inkscape:connector-curvature="0" /></clipPath><clipPath
       clipPathUnits="userSpaceOnUse"
       id="clipPath1190"><path
         d="m 0,0 1303.94,0 0,850.394 L 0,850.394 0,0 Z"
         id="path1192"
         inkscape:connector-curvature="0" /></clipPath><clipPath
       clipPathUnits="userSpaceOnUse"
       id="clipPath1644"><path
         d="m 1080.023,72.968 41.102,0 0,41.103 -41.102,0 0,-41.103 z"
         id="path1646"
         inkscape:connector-curvature="0" /></clipPath><clipPath
       clipPathUnits="userSpaceOnUse"
       id="clipPath1656"><path
         d="m 1246.985,584.339 29.764,0 0,69.803 -29.764,0 0,-69.803 z"
         id="path1658"
         inkscape:connector-curvature="0" /></clipPath><clipPath
       clipPathUnits="userSpaceOnUse"
       id="clipPath1686"><path
         d="m 651.968,0 651.969,0 0,850.394 -651.969,0 0,-850.394 z"
         id="path1688"
         inkscape:connector-curvature="0" /></clipPath><clipPath
       clipPathUnits="userSpaceOnUse"
       id="clipPath1698"><path
         d="m 0,0 1303.94,0 0,850.394 L 0,850.394 0,0 Z"
         id="path1700"
         inkscape:connector-curvature="0" /></clipPath><clipPath
       clipPathUnits="userSpaceOnUse"
       id="clipPath1720"><path
         d="m 718.323,314.751 517.171,0 0,472.124 -517.171,0 0,-472.124 z"
         id="path1722"
         inkscape:connector-curvature="0" /></clipPath><clipPath
       clipPathUnits="userSpaceOnUse"
       id="clipPath1732"><path
         d="m 0,0 1303.94,0 0,850.394 L 0,850.394 0,0 Z"
         id="path1734"
         inkscape:connector-curvature="0" /></clipPath><clipPath
       clipPathUnits="userSpaceOnUse"
       id="clipPath1748"><path
         d="m 651.968,0 651.969,0 0,850.394 -651.969,0 0,-850.394 z"
         id="path1750"
         inkscape:connector-curvature="0" /></clipPath></defs><sodipodi:namedview
     pagecolor="#ffffff"
     bordercolor="#666666"
     borderopacity="1"
     objecttolerance="10"
     gridtolerance="10"
     guidetolerance="10"
     inkscape:pageopacity="0"
     inkscape:pageshadow="2"
     inkscape:window-width="1280"
     inkscape:window-height="691"
     id="namedview4"
     showgrid="false"
     inkscape:zoom="1.8468709"
     inkscape:cx="99.303429"
     inkscape:cy="51.090374"
     inkscape:window-x="0"
     inkscape:window-y="1"
     inkscape:window-maximized="1"
     inkscape:current-layer="g10" /><g
     id="g10"
     inkscape:groupmode="layer"
     inkscape:label="Logo Pantin"
     transform="matrix(1.25,0,0,-1.25,-61.5829,1343.0572)"><g
       id="g5342"
       transform="matrix(6.277058,0,0,6.277058,-350.90461,-4060.2062)"><g
         id="g5321"><path
           d="m 166.359,799.207 -6.925,0 0,-30.969 6.925,0 0,30.969 z m -6.925,2.398 6.86,0 0,6.518 -6.86,0 0,-6.518 z"
           style="fill:#0084bf;fill-opacity:1;fill-rule:nonzero;stroke:none"
           id="path914"
           inkscape:connector-curvature="0" /><g
           id="g5306"><path
             inkscape:connector-curvature="0"
             id="path920"
             style="fill:#006fb7;fill-opacity:1;fill-rule:nonzero;stroke:none"
             d="m 187.3472,793.2711 0,-25.033 6.925,0 0,23.098 c 0,4.86 -3.921,8.263 -11.33,8.263 -7.408,0 -11.329,-3.403 -11.329,-8.263 l 0,-23.098 6.925,0 0,22.061 c 0,1.645 1.03,2.972 4.404,2.972 l 4.405,0 z" /><path
             inkscape:connector-curvature="0"
             id="path922"
             style="fill:#005091;fill-opacity:1;fill-rule:nonzero;stroke:none"
             d="m 194.2724,790.2993 0,1.037 c 0,4.86 -3.921,8.263 -11.33,8.263 3.374,0 4.405,-1.327 4.405,-2.972 l 0,-3.356 2.52,0 c 3.374,0 4.405,-1.328 4.405,-2.972" /></g><g
           id="g5289"><path
             inkscape:connector-curvature="0"
             id="path924"
             style="fill:#00748f;fill-opacity:1;fill-rule:nonzero;stroke:none"
             d="m 126.7421,799.5703 0.002,0 -0.002,0 z" /><path
             inkscape:connector-curvature="0"
             id="path926"
             style="fill:#0e9dbf;fill-opacity:1;fill-rule:nonzero;stroke:none"
             d="m 130.7917,793.2711 0,-25.033 6.925,0 0,23.098 c 0,4.86 -3.921,8.263 -11.329,8.263 -7.409,0 -11.33,-3.403 -11.33,-8.263 l 0,-23.098 6.925,0 0,22.061 c 0,1.645 1.031,2.972 4.405,2.972 l 4.404,0 z" /><path
             inkscape:connector-curvature="0"
             id="path928"
             style="fill:#01748f;fill-opacity:1;fill-rule:nonzero;stroke:none"
             d="m 137.7169,790.2993 0,1.037 c 0,4.86 -3.921,8.263 -11.33,8.263 3.374,0 4.405,-1.327 4.405,-2.972 l 0,-3.356 2.52,0 c 3.374,0 4.405,-1.328 4.405,-2.972" /></g><g
           id="g5284"><path
             inkscape:connector-curvature="0"
             id="path930"
             style="fill:#40baca;fill-opacity:1;fill-rule:nonzero;stroke:none"
             d="m 103.0921,780.4771 0,-4.395 c 0,-2.067 -1.581,-2.941 -4.354,-2.941 l -2.628,0 0,2.563 c 0,1.08 0.18,1.693 2.166,2.597 l 4.816,2.176 z m -3.353,19.099 c -11.034,0 -10.598,-7.57 -10.598,-7.57 l 6.969,-3.119 0,1.346 c 0,2.225 0.815,2.94 3.589,2.94 l 3.393,0 0,-3.835 c 0,-1.08 -0.18,-1.693 -2.166,-2.597 l -6.05,-2.588 c -2.237,-0.955 -5.722,-2.92 -5.722,-8.071 0,-6.442 4.614,-8.931 10.938,-8.931 6.324,0 9.925,3.565 9.925,8.931 l 0,15.769 c 0,1.279 0,7.725 -10.278,7.725" /><path
             inkscape:connector-curvature="0"
             id="path932"
             style="fill:#0095ab;fill-opacity:1;fill-rule:nonzero;stroke:none"
             d="m 96.11,770.2902 0,2.854 -2.52,0 c -3.374,0 -4.435,1.293 -4.435,2.938 0,-6.442 4.614,-8.931 10.937,-8.931 -3.373,0 -3.982,1.494 -3.982,3.139" /><path
             inkscape:connector-curvature="0"
             id="path934"
             style="fill:#008da2;fill-opacity:1;fill-rule:nonzero;stroke:none"
             d="m 97.0273,799.4026 c 4.135,-0.666 6.065,-2.595 6.065,-6.229 l 0,-12.696 1.203,0.512 c 2.237,0.956 5.722,2.921 5.722,8.072 l 0,2.79 c 0,1.279 0,7.725 -10.278,7.725 -0.995,0 -1.895,-0.062 -2.712,-0.174" /></g><g
           id="g5279"><path
             inkscape:connector-curvature="0"
             id="path936"
             style="fill:#64c3d3;fill-opacity:1;fill-rule:nonzero;stroke:none"
             d="m 70.8038,768.2382 -6.925,0 0,37.621 c 0,4.861 3.921,8.263 11.33,8.263 7.408,0 11.33,-3.402 11.33,-8.263 l 0,-8.988 0,-2.789 c 0,-5.151 -3.485,-7.116 -5.721,-8.072 l -7.848,-2.964 c -1.956,-0.771 -2.166,-1.516 -2.166,-2.597 l 0,-12.211 z m 6.644,23.524 c 1.993,0.793 2.166,1.517 2.166,2.597 l 0,3.835 -0.001,9.6 -4.404,0 c -3.374,0 -4.405,-1.327 -4.405,-2.972 l 0,-15.526 6.644,2.466 z" /><path
             inkscape:connector-curvature="0"
             id="path938"
             style="fill:#009ca8;fill-opacity:1;fill-rule:nonzero;stroke:none"
             d="m 86.5385,804.8224 0,1.037 c 0,4.86 -3.921,8.263 -11.33,8.263 3.374,0 4.405,-1.327 4.405,-2.972 l 0,-3.356 2.52,0 c 3.374,0 4.405,-1.327 4.405,-2.972" /><path
             inkscape:connector-curvature="0"
             id="path940"
             style="fill:#00a2ae;fill-opacity:1;fill-rule:nonzero;stroke:none"
             d="m 69.5999,788.8986 c -2.22,-0.787 -5.721,-2.921 -5.721,-8.071 l 0,-12.59 6.925,0 0,21.058 -1.204,-0.397 z" /></g><g
           id="g5302"><path
             inkscape:connector-curvature="0"
             id="path916"
             style="fill:#008fbe;fill-opacity:1;fill-rule:nonzero;stroke:none"
             d="m 156.2211,793.183 0,6.023 -5.79,0 0,8.918 -6.926,-2.35 0,-37.536 6.926,0 0,24.945 5.79,0 z" /><path
             inkscape:connector-curvature="0"
             id="path918"
             style="fill:#006487;fill-opacity:1;fill-rule:nonzero;stroke:none"
             d="m 150.4306,793.183 0,6.023 -6.926,0 6.926,-6.023 z" /></g></g><g
         id="g5310"><path
           d="m 102.899,804.398 1.561,0 0,13.477 -1.561,0 0,-13.477 z"
           style="fill:#707172;fill-opacity:1;fill-rule:nonzero;stroke:none"
           id="path942"
           inkscape:connector-curvature="0" /><path
           d="m 106.765,804.398 1.561,0 0,13.477 -1.561,0 0,-13.477 z"
           style="fill:#707172;fill-opacity:1;fill-rule:nonzero;stroke:none"
           id="path944"
           inkscape:connector-curvature="0" /><path
           d="m 102.899,804.398 1.561,0 0,13.477 -1.561,0 0,-13.477 z"
           style="fill:#707172;fill-opacity:1;fill-rule:nonzero;stroke:none"
           id="path946"
           inkscape:connector-curvature="0" /><path
           d="m 99.031,815.998 1.561,0 0,1.877 -1.561,0 0,-1.877 z"
           style="fill:#707172;fill-opacity:1;fill-rule:nonzero;stroke:none"
           id="path948"
           inkscape:connector-curvature="0" /><path
           d="m 99.031,804.399 1.561,0 0,9.722 -1.561,0 0,-9.722 z"
           style="fill:#707172;fill-opacity:1;fill-rule:nonzero;stroke:none"
           id="path950"
           inkscape:connector-curvature="0" /><path
           d="m 94.6194,804.2784 c 0,0 -1.593,0.531 -2.826,0.961 -1.178,0.411 -1.148,1.241 -1.148,2.391 l 0,6.491 1.561,0 0,-6.468 c 0,-0.579 0.372,-1.044 0.993,-1.255 0.621,-0.211 1.42,-0.444 1.42,-0.444 0.375,-0.096 0.791,-0.162 0.791,0.787 l 0,7.38 1.56,0 0,-8.293 c 0,-1.344 -1.307,-1.894 -2.351,-1.55"
           style="fill:#707172;fill-opacity:1;fill-rule:nonzero;stroke:none"
           id="path952"
           inkscape:connector-curvature="0" /><path
           d="m 110.1701,806.5493 0,5.451 c 0,0.829 0.448,2.258 3.201,2.258 2.753,0 3.118,-1.548 3.118,-2.258 l 0,-0.667 c 0,-1.072 -0.51,-2.345 -2.409,-2.345 -1.76,0 -0.535,-0.002 -1,-0.002 -0.465,0 -1.349,-0.243 -1.349,-1.363 l 0,-0.659 c 0,-0.652 0.264,-1.325 1.583,-1.325 1.319,0 1.596,0.661 1.596,1.288 l 1.579,0 c 0.089,-1.102 -0.272,-2.682 -3.161,-2.682 -2.872,0 -3.158,1.623 -3.158,2.304 m 3.6,3.783 c 1.184,0 1.134,1.088 1.134,1.088 l 0,0.185 c 0,0.572 -0.186,1.25 -1.539,1.25 -1.271,0 -1.634,-0.558 -1.634,-1.268 l 0,-1.781 c 0.196,0.445 0.715,0.527 1.055,0.527 l 0.984,-10e-4 z"
           style="fill:#707172;fill-opacity:1;fill-rule:nonzero;stroke:none"
           id="path954"
           inkscape:connector-curvature="0" /><path
           d="m 129.8596,806.5493 0,5.451 c 0,0.829 0.448,2.258 3.201,2.258 2.753,0 3.117,-1.548 3.117,-2.258 0,-0.709 10e-4,-0.504 10e-4,-0.667 0,-1.072 -0.511,-2.345 -2.409,-2.345 -1.76,0 -0.535,-0.002 -1,-0.002 -0.466,0 -1.349,-0.243 -1.349,-1.363 l 0,-0.659 c 0,-0.652 0.264,-1.325 1.583,-1.325 1.319,0 1.595,0.661 1.595,1.288 l 1.579,0 c 0.09,-1.102 -0.271,-2.682 -3.16,-2.682 -2.873,0 -3.158,1.623 -3.158,2.304 m 3.6,3.783 c 1.184,0 1.134,1.088 1.134,1.088 l 0,0.185 c 0,0.572 -0.187,1.25 -1.54,1.25 -1.271,0 -1.633,-0.558 -1.633,-1.268 l 0,-1.781 c 0.196,0.445 0.715,0.527 1.055,0.527 l 0.984,-10e-4 z"
           style="fill:#707172;fill-opacity:1;fill-rule:nonzero;stroke:none"
           id="path956"
           inkscape:connector-curvature="0" /><path
           d="m 126.4548,817.8755 1.561,0 0,-11.326 c 0,-0.681 -0.272,-2.304 -3.144,-2.304 -2.873,0 -3.145,1.623 -3.145,2.304 l 0,4.125 c 0,1.128 0.14,2.114 1.562,2.619 1.423,0.504 2.088,0.749 2.088,0.749 0.596,0.23 1.078,0.475 1.078,1.323 l 0,2.51 z m -3.167,-7.201 0,-3.711 c 0,-0.651 0.265,-1.324 1.584,-1.324 1.318,0 1.583,0.673 1.583,1.324 l 0,6.129 c 0,0 0.004,-0.258 -0.498,-0.428 -0.502,-0.171 -1.773,-0.604 -1.773,-0.604 -0.254,-0.092 -0.896,-0.454 -0.896,-1.386"
           style="fill:#707172;fill-opacity:1;fill-rule:nonzero;stroke:none"
           id="path958"
           inkscape:connector-curvature="0" /></g></g></g></svg>