<?xml version="1.0" encoding="UTF-8" standalone="no"?>
<svg
   xmlns:dc="http://purl.org/dc/elements/1.1/"
   xmlns:cc="http://creativecommons.org/ns#"
   xmlns:rdf="http://www.w3.org/1999/02/22-rdf-syntax-ns#"
   xmlns:svg="http://www.w3.org/2000/svg"
   xmlns="http://www.w3.org/2000/svg"
   viewBox="0 0 800 263"
   height="263"
   width="800"
   xml:space="preserve"
   version="1.1"
   id="svg2"><metadata
     id="metadata8"><rdf:RDF><cc:Work
         rdf:about=""><dc:format>image/svg+xml</dc:format><dc:type
           rdf:resource="http://purl.org/dc/dcmitype/StillImage" /><dc:title></dc:title></cc:Work></rdf:RDF></metadata><defs
     id="defs6" /><g
     transform="matrix(1.25,0,0,-1.25,0,263.00003)"
     id="g10"><g
       transform="matrix(6.3101684,0,0,6.3101684,-1037.5785,-3222.6741)"
       id="g4924"><g
         id="g4895"><path
           id="path110"
           style="fill:#231f20;fill-opacity:1;fill-rule:nonzero;stroke:none"
           d="m 182.9209,512.067 1.899,0 c 3.462,0 5.132,1.723 5.132,5.326 0,2.742 -1.529,4.517 -4.764,4.517 l -2.267,0 0,-9.843 z m 2.232,11.074 c 4.957,0 6.68,-2.83 6.68,-5.783 0,-4.079 -2.601,-6.521 -6.961,-6.521 l -3.656,0 0,12.304" /><path
           d="m 182.9209,512.067 1.899,0 c 3.462,0 5.132,1.723 5.132,5.326 0,2.742 -1.529,4.517 -4.764,4.517 l -2.267,0 0,-9.843 z m 2.232,11.074 c 4.957,0 6.68,-2.83 6.68,-5.783 0,-4.079 -2.601,-6.521 -6.961,-6.521 l -3.656,0 0,12.304 3.937,0 z"
           style="fill:none;stroke:#231f20;stroke-width:0.154;stroke-linecap:butt;stroke-linejoin:miter;stroke-miterlimit:4;stroke-dasharray:none;stroke-opacity:1"
           id="path114" /><path
           id="path116"
           style="fill:#231f20;fill-opacity:1;fill-rule:nonzero;stroke:none"
           d="m 197.6706,517.9078 -2.744,0 0,-2.501 2.689,0 0,-0.775 -2.689,0 0,-2.922 3.22,0 0,-0.775 -4.294,0 0,7.747 3.818,0" /><path
           d="m 197.6706,517.9078 -2.744,0 0,-2.501 2.689,0 0,-0.775 -2.689,0 0,-2.922 3.22,0 0,-0.775 -4.294,0 0,7.747 3.818,0 0,-0.774 z"
           style="fill:none;stroke:#231f20;stroke-width:0.154;stroke-linecap:butt;stroke-linejoin:miter;stroke-miterlimit:4;stroke-dasharray:none;stroke-opacity:1"
           id="path120" /><path
           id="path122"
           style="fill:#231f20;fill-opacity:1;fill-rule:nonzero;stroke:none"
           d="m 201.1531,510.9351 -1.073,0 0,7.747 1.948,0 c 1.638,0 2.645,-0.73 2.645,-2.235 0,-1.307 -1.118,-2.49 -2.856,-2.49 l -0.343,0 0,0.708 0.354,0.011 c 1.04,0.056 1.694,0.609 1.694,1.759 0,0.853 -0.476,1.473 -1.627,1.473 l -0.742,0" /><path
           d="m 201.1531,510.9351 -1.073,0 0,7.747 1.948,0 c 1.638,0 2.645,-0.73 2.645,-2.235 0,-1.307 -1.118,-2.49 -2.856,-2.49 l -0.343,0 0,0.708 0.354,0.011 c 1.04,0.056 1.694,0.609 1.694,1.759 0,0.853 -0.476,1.473 -1.627,1.473 l -0.742,0 0,-6.973 z"
           style="fill:none;stroke:#231f20;stroke-width:0.154;stroke-linecap:butt;stroke-linejoin:miter;stroke-miterlimit:4;stroke-dasharray:none;stroke-opacity:1"
           id="path126" /><path
           id="path128"
           style="fill:#231f20;fill-opacity:1;fill-rule:nonzero;stroke:none"
           d="m 209.625,513.9896 c -0.387,1.074 -0.764,2.147 -1.151,3.542 l -0.022,0 c -0.398,-1.395 -0.808,-2.468 -1.229,-3.542 l 2.402,0 z m -0.598,4.692 2.889,-7.747 -1.239,0 -0.797,2.281 -2.956,0 -0.829,-2.281 -1.041,0 3.154,7.747" /><path
           d="m 209.625,513.9896 c -0.387,1.074 -0.764,2.147 -1.151,3.542 l -0.022,0 c -0.398,-1.395 -0.808,-2.468 -1.229,-3.542 l 2.402,0 z m -0.598,4.692 2.889,-7.747 -1.239,0 -0.797,2.281 -2.956,0 -0.829,-2.281 -1.041,0 3.154,7.747 0.819,0 z"
           style="fill:none;stroke:#231f20;stroke-width:0.154;stroke-linecap:butt;stroke-linejoin:miter;stroke-miterlimit:4;stroke-dasharray:none;stroke-opacity:1"
           id="path132" /><path
           id="path134"
           style="fill:#231f20;fill-opacity:1;fill-rule:nonzero;stroke:none"
           d="m 214.704,514.9194 0.609,0 c 1.373,0 1.626,1.018 1.626,1.672 0,0.951 -0.597,1.316 -1.316,1.316 l -0.919,0 0,-2.988 z m -1.073,3.763 2.213,0 c 1.262,0 2.247,-0.653 2.247,-1.992 0,-1.14 -0.554,-1.781 -1.295,-2.258 l 1.926,-3.297 -1.085,-0.332 -1.793,3.342 -1.14,0 0,-3.21 -1.073,0" /><path
           d="m 214.704,514.9194 0.609,0 c 1.373,0 1.626,1.018 1.626,1.672 0,0.951 -0.597,1.316 -1.316,1.316 l -0.919,0 0,-2.988 z m -1.073,3.763 2.213,0 c 1.262,0 2.247,-0.653 2.247,-1.992 0,-1.14 -0.554,-1.781 -1.295,-2.258 l 1.926,-3.297 -1.085,-0.332 -1.793,3.342 -1.14,0 0,-3.21 -1.073,0 0,7.747 z"
           style="fill:none;stroke:#231f20;stroke-width:0.154;stroke-linecap:butt;stroke-linejoin:miter;stroke-miterlimit:4;stroke-dasharray:none;stroke-opacity:1"
           id="path138" /><path
           id="path140"
           style="fill:#231f20;fill-opacity:1;fill-rule:nonzero;stroke:none"
           d="m 221.8329,510.9351 0,6.973 -2.479,0 0,0.774 6.042,0 0,-0.774 -2.489,0 0,-6.973" /><path
           d="m 221.8329,510.9351 0,6.973 -2.479,0 0,0.774 6.042,0 0,-0.774 -2.489,0 0,-6.973 -1.074,0 z"
           style="fill:none;stroke:#231f20;stroke-width:0.154;stroke-linecap:butt;stroke-linejoin:miter;stroke-miterlimit:4;stroke-dasharray:none;stroke-opacity:1"
           id="path144" /><path
           id="path146"
           style="fill:#231f20;fill-opacity:1;fill-rule:nonzero;stroke:none"
           d="m 230.6443,517.9078 -2.745,0 0,-2.501 2.689,0 0,-0.775 -2.689,0 0,-2.922 3.221,0 0,-0.775 -4.294,0 0,7.747 3.818,0" /><path
           d="m 230.6443,517.9078 -2.745,0 0,-2.501 2.689,0 0,-0.775 -2.689,0 0,-2.922 3.221,0 0,-0.775 -4.294,0 0,7.747 3.818,0 0,-0.774 z"
           style="fill:none;stroke:#231f20;stroke-width:0.154;stroke-linecap:butt;stroke-linejoin:miter;stroke-miterlimit:4;stroke-dasharray:none;stroke-opacity:1"
           id="path150" /><path
           id="path152"
           style="fill:#231f20;fill-opacity:1;fill-rule:nonzero;stroke:none"
           d="m 241.5156,510.9351 -1.074,0 0,6.309 -0.021,0 c -0.311,-0.909 -2.071,-4.328 -3.111,-6.309 l -0.43,0 c -0.964,1.981 -2.568,5.29 -2.867,6.309 l -0.022,0 0,-6.309 -0.886,0 0,7.747 1.151,0 c 0.997,-2.058 1.991,-4.127 2.978,-6.308 1.094,2.181 2.19,4.25 3.275,6.308 l 1.007,0" /><path
           d="m 241.5156,510.9351 -1.074,0 0,6.309 -0.021,0 c -0.311,-0.909 -2.071,-4.328 -3.111,-6.309 l -0.43,0 c -0.964,1.981 -2.568,5.29 -2.867,6.309 l -0.022,0 0,-6.309 -0.886,0 0,7.747 1.151,0 c 0.997,-2.058 1.991,-4.127 2.978,-6.308 1.094,2.181 2.19,4.25 3.275,6.308 l 1.007,0 0,-7.747 z"
           style="fill:none;stroke:#231f20;stroke-width:0.154;stroke-linecap:butt;stroke-linejoin:miter;stroke-miterlimit:4;stroke-dasharray:none;stroke-opacity:1"
           id="path156" /><path
           id="path158"
           style="fill:#231f20;fill-opacity:1;fill-rule:nonzero;stroke:none"
           d="m 247.9711,517.9078 -2.744,0 0,-2.501 2.689,0 0,-0.775 -2.689,0 0,-2.922 3.22,0 0,-0.775 -4.295,0 0,7.747 3.819,0" /><path
           d="m 247.9711,517.9078 -2.744,0 0,-2.501 2.689,0 0,-0.775 -2.689,0 0,-2.922 3.22,0 0,-0.775 -4.295,0 0,7.747 3.819,0 0,-0.774 z"
           style="fill:none;stroke:#231f20;stroke-width:0.154;stroke-linecap:butt;stroke-linejoin:miter;stroke-miterlimit:4;stroke-dasharray:none;stroke-opacity:1"
           id="path162" /><path
           id="path164"
           style="fill:#231f20;fill-opacity:1;fill-rule:nonzero;stroke:none"
           d="m 257.215,510.9351 -0.84,0 c -1.683,2.015 -4.571,5.489 -5.036,6.165 l -0.023,0 0,-6.165 -0.884,0 0,7.747 0.796,0 c 1.705,-2.014 4.56,-5.4 5.079,-6.175 l 0.024,0 0,6.175 0.884,0" /><path
           d="m 257.215,510.9351 -0.84,0 c -1.683,2.015 -4.571,5.489 -5.036,6.165 l -0.023,0 0,-6.165 -0.884,0 0,7.747 0.796,0 c 1.705,-2.014 4.56,-5.4 5.079,-6.175 l 0.024,0 0,6.175 0.884,0 0,-7.747 z"
           style="fill:none;stroke:#231f20;stroke-width:0.154;stroke-linecap:butt;stroke-linejoin:miter;stroke-miterlimit:4;stroke-dasharray:none;stroke-opacity:1"
           id="path168" /><path
           id="path170"
           style="fill:#231f20;fill-opacity:1;fill-rule:nonzero;stroke:none"
           d="m 260.1162,510.9486 0,11.074 -3.938,0 0,1.229 9.598,0 0,-1.229 -3.955,0 0,-11.074" /><path
           d="m 260.1162,510.9486 0,11.074 -3.938,0 0,1.229 9.598,0 0,-1.229 -3.955,0 0,-11.074 -1.705,0 z"
           style="fill:none;stroke:#231f20;stroke-width:0.154;stroke-linecap:butt;stroke-linejoin:miter;stroke-miterlimit:4;stroke-dasharray:none;stroke-opacity:1"
           id="path174" /><path
           d="m 194.3825,520.437 2.722,0"
           style="fill:none;stroke:#231f20;stroke-width:0.76999998;stroke-linecap:butt;stroke-linejoin:miter;stroke-miterlimit:4;stroke-dasharray:none;stroke-opacity:1"
           id="path178" /><path
           id="path180"
           style="fill:#231f20;fill-opacity:1;fill-rule:nonzero;stroke:none"
           d="m 176.4638,517.8826 -2.745,0 0,-2.501 2.69,0 0,-0.775 -2.69,0 0,-2.921 3.221,0 0,-0.776 -4.294,0 0,7.748 3.818,0" /><path
           d="m 176.4638,517.8826 -2.745,0 0,-2.501 2.69,0 0,-0.775 -2.69,0 0,-2.921 3.221,0 0,-0.776 -4.294,0 0,7.748 3.818,0 0,-0.775 z"
           style="fill:none;stroke:#231f20;stroke-width:0.154;stroke-linecap:butt;stroke-linejoin:miter;stroke-miterlimit:4;stroke-dasharray:none;stroke-opacity:1"
           id="path184" /><path
           id="path186"
           style="fill:#231f20;fill-opacity:1;fill-rule:nonzero;stroke:none"
           d="m 166.1496,512.1734 4.864,0 0,-1.248 -6.507,0 m 0,12.351 1.643,0 0,-11.103 4.928,0 0,-1.248 -6.571,0" /><path
           d="m 166.1496,512.1734 4.864,0 0,-1.248 -6.507,0 m 0,12.351 1.643,0 0,-11.103 4.928,0 0,-1.248 -6.571,0 0,12.351 z"
           style="fill:none;stroke:#231f20;stroke-width:0.154;stroke-linecap:butt;stroke-linejoin:miter;stroke-miterlimit:4;stroke-dasharray:none;stroke-opacity:1"
           id="path190" /></g><g
         id="g4881"><path
           id="path192"
           style="fill:#2056ae;fill-opacity:1;fill-rule:nonzero;stroke:none"
           d="m 192.851,526.417 16.801,0 0,17.22382 -16.801,0 z" /><path
           id="path194"
           style="fill:#609d7f;fill-opacity:1;fill-rule:nonzero;stroke:none"
           d="m 208.5822,536.9186 c -0.022,-0.169 -0.228,-0.178 -0.105,-0.299 -0.047,-0.126 -0.134,-0.323 -0.166,-0.332 0,0 -4.033,-1.245 -4.364,-3.84 -0.332,-2.595 -7.694,-2.296 -9.451,-1.907 -0.084,0.065 -0.21,0.073 -0.314,0.08 -0.092,0.006 -0.208,0.055 -0.295,0.097 -0.112,-0.085 -0.14,-0.229 -0.232,-0.332 -0.054,0.025 -0.188,0 -0.2,-0.011 -0.016,0.023 -0.53,0.282 -0.621,0.386 l 0.003,12.805 16.804,-0.022 0,-3.956 0,-2.431 c -0.024,0.057 -0.228,-0.057 -0.276,-0.005 -0.124,-0.007 -0.364,0 -0.484,0.033 -0.118,-0.069 -0.201,-0.175 -0.299,-0.266" /><path
           id="path196"
           style="fill:#2056ae;fill-opacity:1;fill-rule:nonzero;stroke:none"
           d="m 209.4165,531.6159 -0.104,-0.148 0,-1.343 -0.167,-0.294 0.185,-1.546 -0.167,-0.424 0,-1.172 -0.606,0.037 -0.147,-0.129 -1.123,0.055 -1.933,-0.073 -2.447,0.036 -0.515,-0.091 -0.166,0.091 -3.166,-0.055 -0.146,0.129 -3.516,-0.11 -0.331,0.018 -0.055,0.129 -0.626,-0.092 -0.239,0.129 -1.067,-0.148 -0.061,1.817 -0.055,0.846 0.129,0.148 -0.111,0.846 0,1.767 -0.128,0.883 0,0.626 0,2.834 0.147,0.092 -0.093,1.196 0,3.092 0.056,0.166 0.037,1.859 0.079,0.428 0.239,0.037 0.037,0.111 2.889,-0.092 0.24,0.092 1.085,0.018 2.522,-0.147 0.883,0.22 0.183,-0.073 4.178,-0.073 0.405,0.055 3.533,-0.098 0.123,-0.239 -0.183,-4.601 0.091,-0.994 0.111,-0.883 0,-4.932 z m 28.695,10.07 0.019,0.496 -0.123,1.251 -0.066,0.489 -2.104,0.049 -0.148,-0.129 -1.122,0.055 -1.933,-0.073 -2.447,0.036 -0.515,-0.092 -0.166,0.092 -3.165,-0.055 -0.147,0.129 -3.516,-0.11 -0.331,0.018 -0.055,0.129 -0.625,-0.092 -0.24,0.129 -1.11,-0.138 -1.208,-0.028 -0.59,-0.092 -0.036,0.11 -1.473,0 -0.827,-0.074 -0.627,0.148 -0.092,-0.074 -5.906,-0.007 -1.473,0.11 -0.239,-0.092 -4.509,-0.055 -0.331,0.11 -2.19,-0.037 -1.233,-0.055 -0.313,0.092 -2.245,-0.055 -3.276,-0.018 -0.202,0.128 -1.254,-0.049 0.1,-1.071 -0.02,-0.166 -0.041,-2.632 0.052,-0.423 -0.071,-1.749 0,-1.472 0.09,-1.435 -0.145,-1.344 0.079,-2.669 0.092,-0.147 -0.018,-1.362 -0.092,-0.883 0.055,-0.755 -0.092,-0.275 0.018,-0.478 0.037,-1.104 1.679,-0.075 0.239,0.036 0.037,0.11 2.89,-0.092 0.238,0.092 1.086,0.019 2.522,-0.147 0.883,0.221 0.184,-0.074 4.177,-0.074 0.405,0.055 3.602,-0.115 0.716,0.063 1.123,-0.036 0.129,0.092 1.344,-0.129 1.877,0.147 0.073,-0.165 1.102,0.034 0.239,0.148 1.086,-0.167 0.313,0.074 2.134,0.111 0.129,-0.166 2.834,0.111 0.184,-0.148 0.994,0 0.239,0.129 0.57,-0.018 3.809,0.074 2.743,-0.019 0.717,-0.092 0.13,0.111 0.828,-0.037 1.03,-0.111 0.202,0.111 0.829,0 0.184,-0.13 0.147,0.13 0.46,0 0.313,-0.074 0.093,0.074 1.106,0 0.064,2.506 -0.093,0.993 0.111,0.369 0,0.81 -0.166,0.165 0.129,0.625 0.037,1.528 0.054,0.202 0,0.423 -0.109,0.829 0,0.92 0.055,2.687 -0.092,0.939 0.092,2.043" /><path
           id="path198"
           style="fill:#ffffff;fill-opacity:1;fill-rule:nonzero;stroke:none"
           d="m 209.8578,543.1861 0.65,0.082 1.123,-0.037 0.128,0.092 1.344,-0.129 1.876,0.147 0.074,-0.165 1.102,0.034 0.239,0.147 1.086,-0.165 0.313,0.073 2.134,0.111 0.129,-0.166 2.834,0.111 0.184,-0.147 0.994,0 0.24,0.128 0.57,-0.018 0.81,0.073 2.751,-0.018 3.708,-0.092 0.129,0.11 0.828,-0.036 1.03,-0.111 0.203,0.111 0.828,0 0.184,-0.129 0.147,0.129 0.46,0 0.314,-0.074 0.091,0.074 1.114,0 -0.073,-0.442 0.073,-0.166 -0.135,-2.632 0.147,-0.423 -0.166,-1.748 0,-1.472 0.184,-1.436 -0.239,-1.344 0.08,-2.668 0.092,-0.147 -0.019,-1.362 -0.092,-0.883 0.055,-0.755 -0.092,-0.276 0.019,-0.478 0.037,-0.421 -1.166,-0.037 -0.589,-0.092 -0.036,0.11 -1.472,0 -0.829,-0.074 -0.625,0.148 -1.485,-0.074 -4.515,-0.007 -1.473,0.11 -0.239,-0.092 -4.508,-0.055 -0.332,0.11 -2.19,-0.037 -1.232,-0.055 -0.313,0.092 -2.246,-0.055 -3.275,-0.018 -0.203,0.129 -0.815,-0.124 0.072,2.335 -0.092,0.993 0.11,0.368 0,0.81 -0.166,0.166 0.129,0.626 0.037,1.527 0.055,0.202 0,0.424 -0.11,0.828 0,0.92 0.055,2.687 -0.092,0.938 0.092,2.044 0.073,0.607 0.019,0.496 -0.074,0.185" /><g
           id="g4871"><path
             d="m 210.8846,534.9189 0.912,1.463 0.248,0.721 0.9,-0.059 0.259,0.111 1.838,0 0.322,-0.304 1.401,-3.497 0.11,-0.56 0.497,1.029 0.939,1.491 0.966,2.42 1.346,2.336 0.117,0.453 0.498,0.773 0.358,0.884 2.831,0.094 -0.181,-0.426 -0.221,-0.304 0,-0.22 -3.738,-7.205 -0.043,-0.304 -0.308,-0.374 -1.608,-3.224 -0.35,-0.454 -0.08,-0.254 -1.685,0 -1.021,-0.028 -0.387,1.085 -0.303,1.573 -1.27,2.65"
             style="fill:#2056ae;fill-opacity:1;fill-rule:nonzero;stroke:none"
             id="path200" /><path
             d="m 223.3349,537.182 -0.166,-0.331 -0.027,-0.359 -0.276,-0.359 -1.298,-2.373 -0.138,-0.442 -0.193,-0.221 -0.966,-2.567 -0.441,-0.58 -0.029,-0.248 2.292,-0.055 0.134,0.15 0.114,0.402 0.386,0.745 0.746,0.134 0.193,-0.051 1.289,0 0.229,0.138 -0.138,0.366 0,0.379 -0.386,0.829 -1.112,-0.103 -0.004,0.158 0.315,0.414 0.359,0.856 0.111,0.431 0.165,0.038 0,-0.186 0.239,-0.302 0.479,-1.482 0.203,-0.203 0.165,-0.92 0.736,-1.517 0.193,-0.276 2.099,0.082 0.077,0.231 -0.256,0.618 0.003,0.236 -0.441,1.214 -0.663,1.271 -0.35,1.214 -0.633,1.257 -0.02,0.279 -0.395,0.83 0.027,0.276 -0.201,0.091 -0.864,-0.115"
             style="fill:#2056ae;fill-opacity:1;fill-rule:nonzero;stroke:none"
             id="path202" /><path
             d="m 229.2427,529.7846 0,0.331 0.073,0.109 -0.165,0.627 0.184,2.023 -0.092,1.584 0.165,0.847 -0.11,0.469 0.027,1.215 0,0.193 0.745,0.028 0.958,0.063 0.146,-0.312 0.249,-0.828 -0.082,-0.22 0.192,-0.249 0.193,-0.442 0.636,0.856 0.496,0.525 0.249,0.082 0.331,0.387 1.712,0.027 0.634,0.111 0,-0.221 -0.836,-2.366 -0.626,-0.119 -0.295,0.138 -1.058,-0.138 -0.496,-1.132 -0.354,-0.506 0.028,-0.277 -0.181,-0.543 -0.129,-0.744 -0.469,-0.966 -0.138,-0.524"
             style="fill:#2056ae;fill-opacity:1;fill-rule:nonzero;stroke:none"
             id="path204" /></g><g
           id="g4876"><path
             d="m 205.933,532.9692 c -0.023,-0.067 -0.178,-0.319 -0.21,-0.389 l 0.025,-0.245 -0.313,-0.513 -0.032,-0.281 -0.283,-0.407 c -0.055,-0.059 -0.762,-0.212 -0.835,-0.255 -0.073,-0.043 -0.303,0.043 -0.379,0.004 -0.075,-0.039 -0.377,-0.267 -0.455,-0.298 -0.077,-0.031 -1.321,-0.289 -1.321,-0.289 l -0.51,-0.353 c -0.089,-0.016 -0.206,-0.262 -0.292,-0.274 -0.088,-0.011 -0.688,0.022 -0.772,0.017 -0.092,-0.006 -0.087,0.155 -0.168,0.156 -0.1,10e-4 -0.055,0.016 -0.174,-0.024 0,0 -0.193,-0.21 -0.272,-0.365 -0.102,-0.2 -0.057,-0.22 -0.139,-0.43 l 0.411,-0.156 -0.053,-0.243 c -0.107,-0.009 -0.298,-0.023 -0.391,-0.031 -0.127,-0.013 -0.161,0.089 -0.256,0.078 -0.199,-0.022 -0.152,-0.139 -0.313,-0.13 -0.053,0.026 -0.079,0.395 -0.079,0.395 0.379,0.12 0.421,0.514 0.421,0.514 -0.078,0.022 -0.158,0.006 -0.235,0.021 -0.086,0.017 -0.158,0.164 -0.243,0.172 -0.086,0.01 -0.755,-0.207 -0.843,-0.219 -0.089,-0.013 -0.181,0.128 -0.262,0.105 -0.09,-0.027 -0.644,-0.263 -0.72,-0.296 0,0 0,-0.073 -0.011,-0.208 0,0 -0.401,0.074 -0.458,0.021 -0.184,-0.174 -0.235,-0.191 -0.187,-0.223 -0.068,0.038 -0.345,0.27 -0.415,0.314 -0.071,0.047 -0.181,0.029 -0.248,0.074 -0.073,0.052 -0.324,0.432 -0.39,0.489 -0.069,0.059 -0.143,-0.013 -0.203,0.043 -0.068,0.065 -0.866,0.937 -0.866,0.937 0.017,0.075 0.103,0.406 0.103,0.406 l 0.132,0.111 c 0.016,0.217 0.123,0.865 0.093,0.945 0.051,0.061 0.161,0.298 0.193,0.314 0.127,0.068 -0.085,0.458 -0.085,0.458 0.003,0.024 -0.019,0.176 -0.02,0.312 -10e-4,0.179 -0.351,0.841 -0.354,0.891 -0.005,0.092 0.13,0.042 0.132,0.106 0.003,0.132 -0.171,0.38 -0.171,0.38 0.041,0.038 0.278,0.006 0.431,0.045 0.103,0.026 0.034,0.086 0.115,0.116 0.085,0.031 0.338,0.057 0.338,0.057 -0.017,0.074 -0.056,0.255 -0.075,0.328 -0.021,0.075 -0.182,0.138 -0.21,0.209 -0.031,0.08 -0.088,0.779 -0.088,0.779 l -0.204,0.021 c -0.042,0.076 -0.242,0.413 -0.285,0.477 -0.053,0.079 -0.011,0.117 -0.053,0.174 -0.092,0.126 -0.302,0.233 -0.339,0.298 0.007,0.069 0.16,0.26 0.173,0.342 0.015,0.082 0.307,0.845 0.328,0.923 0.025,0.088 -0.096,0.2 -0.071,0.28 0.027,0.083 0.163,0.477 0.193,0.55 0.037,0.089 0.199,0.037 0.233,0.108 0.041,0.088 0.156,0.55 0.152,0.562 l 0.398,-0.142 0.17,0.144 c 0.082,-0.01 0.996,-0.15 1.075,-0.171 0.086,-0.021 0.172,-0.183 0.172,-0.183 0.08,-0.026 0.815,-0.094 0.89,-0.123 0.085,-0.033 0.051,-0.11 0.123,-0.14 0.087,-0.036 0.385,-0.122 0.472,-0.208 0.047,0.055 0.098,0.349 0.145,0.407 0.053,0.067 0.092,-0.074 0.14,-0.011 0.05,0.065 0.217,0.337 0.26,0.403 0.048,0.068 0.136,0.625 0.172,0.694 l 0.244,-0.019 c 0.039,0.088 0.314,0.966 0.314,0.966 0,0 0.657,-0.158 0.732,-0.144 0.075,0.014 0.355,0.269 0.436,0.281 l 0.188,-0.165 0.341,0.314 0.735,-0.115 1.283,0.02 c 0,0 0.022,-0.158 0.106,-0.167 0.086,-0.01 0.523,-0.015 0.603,-0.037 0.083,-0.022 0.81,-0.527 0.81,-0.527 0.083,-0.035 0.416,0.131 0.491,0.096 0.083,-0.039 0.304,-0.388 0.304,-0.388 l 0.291,-0.044 c 0.078,-0.061 0.444,-0.425 0.444,-0.425 -0.016,-0.087 -0.358,-0.751 -0.358,-0.751 0,0 0.25,-0.155 0.324,-0.203 0.069,-0.045 0.065,-0.236 0.137,-0.28 0.079,-0.047 0.207,-0.019 0.285,-0.064 l 0.577,-0.445 c 0.138,-0.071 0.393,-0.053 0.393,-0.053 0.002,-0.076 0.188,-1.111 0.21,-1.182 0.025,-0.085 0.061,-0.389 0.097,-0.445 0.095,-0.146 0.244,-0.305 0.244,-0.305 -0.007,-0.074 -0.346,-0.546 -0.346,-0.546 l 0.03,-0.197 c 0,-0.089 -0.752,-0.891 -0.752,-0.891 -0.078,-0.049 -0.165,0.101 -0.244,0.06 -0.08,-0.041 -0.554,-0.379 -0.628,-0.366 -0.21,0.034 -0.376,-0.028 -0.376,-0.028 0.011,-0.211 -0.132,-0.571 -0.132,-0.725 0,-0.14 0.017,-0.263 0.017,-0.263 -0.061,-0.013 0.069,0.029 0,0"
             style="fill:#f89c0e;fill-opacity:1;fill-rule:nonzero;stroke:none"
             id="path206" /><path
             d="m 200.1633,528.1071 c 0.117,0.003 0.215,0.136 0.322,0.149 0.134,0.015 0.258,-0.019 0.372,0.004 0.141,0.03 0.29,-0.035 0.395,-0.004 0.224,0.068 0.164,0.105 0.336,0.184 l 0.069,-0.388 c -0.117,-0.013 -0.169,-0.064 -0.276,-0.102 -0.134,-0.047 -0.329,-0.043 -0.425,-0.096 -0.139,-0.078 -0.216,-0.184 -0.216,-0.184 -0.308,0.272 -0.557,0.225 -0.557,0.225 l -0.02,0.215"
             style="fill:#f89c0e;fill-opacity:1;fill-rule:nonzero;stroke:none"
             id="path208" /><path
             d="m 203.8796,528.8019 c -0.072,-0.106 -0.04,-0.292 -0.111,-0.369 -0.098,-0.105 -0.255,-0.157 -0.349,-0.218 -0.129,-0.082 -0.273,-0.209 -0.388,-0.228 -0.14,-0.024 -0.286,0.168 -0.391,0.197 -0.207,0.055 -0.236,-0.021 -0.378,0.103 l 0.117,0.344 c 0.13,-0.055 0.237,-0.065 0.344,-0.07 0.14,-0.005 0.231,0.04 0.334,0.091 0.122,0.06 0.229,0.105 0.305,0.193 0.145,0.168 0.241,0.121 0.313,0.308 l 0.259,-0.013 0.328,0.053 0.011,-0.305"
             style="fill:#f89c0e;fill-opacity:1;fill-rule:nonzero;stroke:none"
             id="path210" /></g></g></g></g></svg>