<?xml version="1.0" encoding="UTF-8" standalone="no"?>
<!-- Created with Inkscape (http://www.inkscape.org/) -->

<svg
   xmlns:dc="http://purl.org/dc/elements/1.1/"
   xmlns:cc="http://creativecommons.org/ns#"
   xmlns:rdf="http://www.w3.org/1999/02/22-rdf-syntax-ns#"
   xmlns:svg="http://www.w3.org/2000/svg"
   xmlns="http://www.w3.org/2000/svg"
   xmlns:sodipodi="http://sodipodi.sourceforge.net/DTD/sodipodi-0.dtd"
   xmlns:inkscape="http://www.inkscape.org/namespaces/inkscape"
   id="svg2"
   version="1.1"
   inkscape:version="0.48.2 r9819"
   width="327.35162"
   height="327.1926"
   xml:space="preserve"
   sodipodi:docname="Logo CD89.pdf"><metadata
     id="metadata8"><rdf:RDF><cc:Work
         rdf:about=""><dc:format>image/svg+xml</dc:format><dc:type
           rdf:resource="http://purl.org/dc/dcmitype/StillImage" /><dc:title></dc:title></cc:Work></rdf:RDF></metadata><defs
     id="defs6"><clipPath
       clipPathUnits="userSpaceOnUse"
       id="clipPath24"><path
         d="m 0,283.465 283.465,0 L 283.465,0 0,0 0,283.465 z"
         id="path26"
         inkscape:connector-curvature="0" /></clipPath></defs><sodipodi:namedview
     pagecolor="#ffffff"
     bordercolor="#666666"
     borderopacity="1"
     objecttolerance="10"
     gridtolerance="10"
     guidetolerance="10"
     inkscape:pageopacity="0"
     inkscape:pageshadow="2"
     inkscape:window-width="1366"
     inkscape:window-height="706"
     id="namedview4"
     showgrid="false"
     fit-margin-top="0"
     fit-margin-left="0"
     fit-margin-right="0"
     fit-margin-bottom="0"
     inkscape:zoom="1.5407615"
     inkscape:cx="164.40369"
     inkscape:cy="167.4065"
     inkscape:window-x="-8"
     inkscape:window-y="-8"
     inkscape:window-maximized="1"
     inkscape:current-layer="g10" /><g
     id="g10"
     inkscape:groupmode="layer"
     inkscape:label="Logo CD89"
     transform="matrix(1.25,0,0,-1.25,-11.382,347.42224)"><g
       id="g12"
       transform="translate(52.5744,149.6879)"><path
         d="m 0,0 3.158,7.078 171.237,0 L 171.235,0 0,0 z"
         style="fill:#f25c19;fill-opacity:1;fill-rule:nonzero;stroke:none"
         id="path14"
         inkscape:connector-curvature="0" /></g><g
       id="g16"
       transform="translate(147.2186,159.5006)"><path
         d="m 0,0 -41.252,0 28.041,48.397 -27.618,49.018 41.55,0 L 27.965,48.203 0,0 z"
         style="fill:#127bca;fill-opacity:1;fill-rule:nonzero;stroke:none"
         id="path18"
         inkscape:connector-curvature="0" /></g><g
       id="g20"><g
         id="g22"
         clip-path="url(#clipPath24)"><g
           id="g28"
           transform="translate(228.4239,266.4115)"><path
             d="m 0,0 c -0.461,-0.945 -0.657,-2.152 -1.496,-3.718 -37.013,-65.613 -41.493,-75.57 -69.092,-119.96 -3.514,-5.63 -2.877,-3.037 -3.763,-4.138 -0.918,-1.527 -2.693,-0.644 -3.359,-1.307 -1.328,-1.326 -3.253,-1.063 -3.336,-1.028 -0.703,-0.109 -5.289,1.411 -5.83,0.679 -0.159,-0.097 -0.312,-0.21 -0.516,-0.176 -0.857,-0.503 -1.281,-1.541 -2.222,-1.885 -0.073,-0.174 0.199,-0.336 -0.347,-0.513 -0.828,-1.727 -6.669,-4.394 -7.722,-3.942 -0.063,0.109 -0.118,0.23 -0.171,0.336 -0.199,-0.035 -0.36,0.088 -0.513,0.18 -0.151,0.541 -0.915,0.455 -1.019,1.02 -0.373,0.027 -0.669,0.256 -1.04,0.179 -0.125,0.529 -0.843,0.31 -1.205,0.683 0.123,0.545 -0.23,1.218 -0.856,1.2 -0.061,0.118 -0.114,0.229 -0.162,0.344 -1.435,0.12 -2.877,-0.234 -4.298,0.169 -0.683,0.823 -0.877,1.91 -1.545,2.749 -0.915,0.485 -1.566,-0.136 -2.226,-0.687 0,-0.12 -0.044,-0.395 -0.21,-0.426 -0.956,-0.793 -2.201,-0.932 -2.707,-2.149 -0.611,-0.454 -1.248,0.074 -1.889,0 -0.055,0.118 -0.116,0.229 -0.162,0.344 -0.431,-0.115 -0.794,0.22 -1.206,0.169 -0.093,0.54 -0.648,0.3 -1.029,0.688 -0.058,0.116 -0.115,0.232 -0.167,0.349 -0.47,-0.073 -0.556,0.351 -0.688,0.689 -0.122,0.057 -0.236,0.106 -0.341,0.162 -0.04,0.725 -0.245,1.357 0,2.057 0.105,0.06 0.219,0.116 0.341,0.172 0.095,0.905 0.141,0.859 1.032,2.407 3.961,6.784 9.165,15.725 9.165,15.725 l 28.902,0 29.455,50.945 -12.252,22.318 c 0,0 3.482,5.079 9.727,16.919 6.372,12.071 8.045,14.919 7.892,16.385 0.642,0.148 0.846,1.033 1.544,0.853 0.335,-0.684 1.114,-0.837 1.709,-0.342 1.086,1.221 4.388,5.454 4.636,6.512 0.99,0.813 2.194,1.903 3.597,1.204 0.207,0.081 0.381,0.165 0.519,0.34 0.504,0.942 0.827,1.974 1.54,2.742 0.849,0.38 1.72,0.093 2.58,0.182 0.275,-0.392 0.556,-0.673 1.033,-0.857 0.244,-0.681 0.736,-0.954 1.36,-1.21 0.512,0.181 1.025,0.2 1.55,0.181 0.829,-0.58 1.389,-1.384 1.889,-2.246 0.397,0.08 0.701,-0.191 1.024,-0.336 0.388,-0.412 0.7,-0.92 1.201,-1.202 l 0,-0.502 c 0.821,-0.97 0.603,-1.186 -0.677,-3.266 0,-0.112 -0.625,-1.226 -0.781,-1.504 -0.142,-0.275 -0.28,-0.486 -0.426,-0.73 -0.162,-0.399 1.023,-0.397 1.549,0.345 0.482,1.592 1.593,2.861 2.401,4.286 0,0.177 -0.302,0.36 -0.198,0.512 0.178,0.432 0.828,1.225 1.048,1.893 -0.033,0.421 -0.019,0.552 -0.107,0.924 0.059,0.233 0.149,0.78 0.348,0.709 0.103,-0.18 0.048,0.332 0.353,0.74 0.23,-0.024 0.955,0.769 0.955,0.881 0.506,0.747 3.461,3.952 4.283,4.462 0.477,0.053 0.927,-0.029 1.38,-0.164 0.048,-0.126 0.111,-0.227 0.172,-0.341 l 0.859,0 C -9.14,10.658 -8.907,10.225 -8.66,9.797 -7.687,9.594 -6.742,9.381 -5.745,9.461 -5.73,9 -5.308,9.172 -5.061,8.946 -4.79,8.184 -4.459,7.465 -4.2,6.712 -3.101,6.155 -2.212,7.503 -1.97,8.43 -1.332,8.533 -0.726,8.173 -0.088,8.248 0.194,8.309 0.178,8.061 0.265,7.91 1.406,7.648 2.102,8.081 2.671,6.712 2.83,6.093 2.689,5.559 2.457,5.033 2.225,4.506 1.917,3.995 1.706,3.402 1.661,2.839 0.965,1.973 0,0"
             style="fill:#59c134;fill-opacity:1;fill-rule:nonzero;stroke:none"
             id="path30"
             inkscape:connector-curvature="0" /></g><g
           id="g32"
           transform="translate(49.0774,107.1347)"><path
             d="m 0,0 c -0.861,-7.052 -3.59,-11.695 -9.363,-17.033 l -4.785,2.359 c 4.706,4.841 6.795,8.68 8.014,15.534 L 0,0"
             style="fill:#231f20;fill-opacity:1;fill-rule:nonzero;stroke:none"
             id="path34"
             inkscape:connector-curvature="0" /></g><g
           id="g36"
           transform="translate(99.5399,116.5193)"><path
             d="m 0,0 11.194,-2.217 -29.131,-36.947 -4.753,-31.149 -11.619,0 4.646,31.149 -18.05,36.947 L -35.678,0 -22.69,-28.927 0,0 z"
             style="fill:#231f20;fill-opacity:1;fill-rule:nonzero;stroke:none"
             id="path38"
             inkscape:connector-curvature="0" /></g><g
           id="g40"
           transform="translate(101.3648,64.3707)"><path
             d="m 0,0 c 0,-6.762 2.539,-10.674 6.969,-10.674 6.652,0 12.044,9.405 12.044,21.024 0,7.489 -2.534,11.396 -7.293,11.396 C 5.277,21.746 0,12.035 0,0 m 30.41,11.185 c 0,-17.312 -10.767,-30.819 -24.495,-30.819 -10.868,0 -17.208,7.276 -17.208,19.844 0,17.103 10.762,30.513 24.589,30.513 10.567,0 17.114,-7.501 17.114,-19.538"
             style="fill:#231f20;fill-opacity:1;fill-rule:nonzero;stroke:none"
             id="path42"
             inkscape:connector-curvature="0" /></g><g
           id="g44"
           transform="translate(160.49,46.2062)"><path
             d="m 0,0 4.543,29.984 c 0.214,1.589 0.421,3.486 0.421,4.229 0,3.062 -1.275,4.428 -4.331,4.428 -4.016,0 -8.444,-4.534 -12.352,-12.567 L -15.623,0 l -10.983,0 4.335,28.93 c 0.529,3.588 0.843,7.497 0.843,10.663 0,3.274 -0.212,4.435 -1.37,6.443 l 9.397,2.433 c 1.786,-1.587 2.641,-4.233 2.641,-7.924 0,-0.529 -0.111,-2.114 -0.225,-3.378 5.603,8.13 10.67,11.506 17.11,11.506 6.437,0 10.346,-4.008 10.346,-10.452 0,-1.159 -0.214,-3.913 -0.63,-6.015 L 11.093,0 0,0"
             style="fill:#231f20;fill-opacity:1;fill-rule:nonzero;stroke:none"
             id="path46"
             inkscape:connector-curvature="0" /></g><g
           id="g48"
           transform="translate(206.0014,46.2062)"><path
             d="m 0,0 4.535,29.984 c 0.211,1.589 0.419,3.486 0.419,4.229 0,3.062 -1.256,4.428 -4.329,4.428 -4.009,0 -8.446,-4.534 -12.351,-12.567 L -15.633,0 l -10.978,0 4.323,28.93 c 0.535,3.588 0.849,7.497 0.849,10.663 0,3.274 -0.212,4.435 -1.37,6.443 l 9.388,2.433 c 1.801,-1.587 2.645,-4.233 2.645,-7.924 0,-0.529 -0.106,-2.114 -0.219,-3.378 5.603,8.13 10.675,11.506 17.11,11.506 6.439,0 10.35,-4.008 10.35,-10.452 0,-1.159 -0.216,-3.913 -0.632,-6.015 L 11.078,0 0,0"
             style="fill:#231f20;fill-opacity:1;fill-rule:nonzero;stroke:none"
             id="path50"
             inkscape:connector-curvature="0" /></g><g
           id="g52"
           transform="translate(254.1375,82.7372)"><path
             d="m 0,0 c 0,2.637 -1.688,4.331 -4.536,4.331 -5.916,0 -10.77,-7.073 -12.355,-18.166 C -6.118,-10.241 0,-5.283 0,0 m 7.287,-28.08 c -6.017,-6.862 -12.031,-9.921 -19.325,-9.921 -10.134,0 -16.249,7.277 -16.249,19.314 0,16.782 11.396,31.043 24.91,31.043 7.609,0 12.989,-4.543 12.989,-10.986 0,-9.073 -8.77,-16.154 -26.503,-21.538 0.529,-6.336 3.268,-9.392 8.345,-9.392 4.117,0 7.807,2.113 13.403,7.709 l 2.43,-6.229"
             style="fill:#231f20;fill-opacity:1;fill-rule:nonzero;stroke:none"
             id="path54"
             inkscape:connector-curvature="0" /></g><g
           id="g56"
           transform="translate(221.9256,64.7794)"><path
             d="M 0,0 4.746,-4.126 5.795,1.817 0,0 z"
             style="fill:#231f20;fill-opacity:1;fill-rule:nonzero;stroke:none"
             id="path58"
             inkscape:connector-curvature="0" /></g><g
           id="g60"
           transform="translate(22.7435,44.6774)"><path
             d="m 0,0 c -3.545,1.174 -6.9,4.801 -5.796,11.949 l 8.024,51.921 7.64,0 L 1.943,12.538 C 1.363,8.816 2.672,6.458 4.885,5.583 L 0,0"
             style="fill:#231f20;fill-opacity:1;fill-rule:nonzero;stroke:none"
             id="path62"
             inkscape:connector-curvature="0" /></g><g
           id="g64"
           transform="translate(19.6586,28.0335)"><path
             d="m 0,0 c -1.274,0.722 -2.272,1.019 -3.461,1.019 -3.057,0 -5.075,-2.187 -5.075,-5.457 0,-3.27 2.229,-5.627 5.351,-5.627 1.253,0 2.421,0.361 3.441,1.062 l 0.722,-1.445 c -1.402,-0.955 -2.782,-1.401 -4.481,-1.401 -4.077,0 -7.05,3.058 -7.05,7.22 0,4.247 3.037,7.347 7.177,7.347 1.593,0 2.867,-0.34 4.247,-1.147 L 0,0 z"
             style="fill:#231f20;fill-opacity:1;fill-rule:nonzero;stroke:none"
             id="path66"
             inkscape:connector-curvature="0" /></g><g
           id="g68"
           transform="translate(24.2472,23.8497)"><path
             d="m 0,0 c 0,-3.439 2.251,-5.967 5.309,-5.967 2.866,0 4.863,2.167 4.863,5.246 0,3.376 -2.294,5.988 -5.246,5.988 C 2.017,5.267 0,3.101 0,0 m 12.189,-0.488 c 0,-4.226 -2.952,-7.178 -7.199,-7.178 -4.056,0 -7.05,3.122 -7.05,7.369 0,4.141 3.1,7.199 7.305,7.199 3.992,0 6.944,-3.143 6.944,-7.39"
             style="fill:#231f20;fill-opacity:1;fill-rule:nonzero;stroke:none"
             id="path70"
             inkscape:connector-curvature="0" /></g><g
           id="g72"
           transform="translate(41.0765,30.6452)"><path
             d="m 0,0 9.28,-10.724 0,10.512 1.699,0 0,-13.781 -0.935,-0.34 -9.386,10.851 0,-10.661 -1.699,0 0,13.782 L 0,0 z"
             style="fill:#231f20;fill-opacity:1;fill-rule:nonzero;stroke:none"
             id="path74"
             inkscape:connector-curvature="0" /></g><g
           id="g76"
           transform="translate(62.6435,27.8429)"><path
             d="m 0,0 c -1.126,0.934 -1.932,1.295 -2.887,1.295 -1.297,0 -2.231,-0.871 -2.231,-2.081 0,-0.68 0.34,-1.253 0.956,-1.678 0.488,-0.318 0.7,-0.425 2.463,-1.232 2.167,-1.018 2.973,-2.039 2.973,-3.822 0,-2.421 -1.911,-4.141 -4.565,-4.141 -1.444,0 -2.697,0.447 -4.035,1.445 l 0.381,1.932 c 1.212,-1.189 2.507,-1.784 3.844,-1.784 1.466,0 2.485,0.955 2.485,2.357 0,0.998 -0.615,1.656 -2.123,2.335 l -1.253,0.553 c -1.933,0.828 -2.889,2.082 -2.889,3.78 0,2.272 1.742,3.95 4.12,3.95 1.338,0 2.57,-0.468 3.526,-1.338 L 0,0 z"
             style="fill:#231f20;fill-opacity:1;fill-rule:nonzero;stroke:none"
             id="path78"
             inkscape:connector-curvature="0" /></g><g
           id="g80"
           transform="translate(69.3481,24.5932)"><path
             d="m 0,0 5.138,0 0,-1.528 -5.138,0 0,-4.97 6.561,0 -0.254,-1.593 -8.155,0 0,13.931 7.454,0 0,-1.53 L 0,4.31 0,0 z"
             style="fill:#231f20;fill-opacity:1;fill-rule:nonzero;stroke:none"
             id="path82"
             inkscape:connector-curvature="0" /></g><path
           d="m 80.956,16.503 -1.848,0 0,13.931 1.848,0 0,-13.931 z"
           style="fill:#231f20;fill-opacity:1;fill-rule:nonzero;stroke:none"
           id="path84"
           inkscape:connector-curvature="0" /><g
           id="g86"
           transform="translate(86.9411,18.095)"><path
             d="m 0,0 6.2,0 -0.276,-1.592 -7.772,0 0,13.93 1.848,0 L 0,0 z"
             style="fill:#231f20;fill-opacity:1;fill-rule:nonzero;stroke:none"
             id="path88"
             inkscape:connector-curvature="0" /></g><g
           id="g90"
           transform="translate(103.9195,18.1163)"><path
             d="m 0,0 c 0.785,-0.105 1.295,-0.148 1.953,-0.148 2.357,0 3.865,0.509 4.821,1.635 0.828,0.934 1.274,2.208 1.274,3.588 0,2.188 -1.147,4.163 -2.91,4.991 -1.061,0.51 -2.378,0.764 -3.949,0.764 -0.383,0 -0.637,0 -1.189,-0.043 L 0,0 z m -0.978,12.296 c 0.935,0.064 1.891,0.085 2.634,0.085 2.761,0 4.926,-0.68 6.328,-1.975 1.317,-1.253 2.081,-3.122 2.081,-5.118 0,-2.91 -1.592,-5.436 -3.97,-6.307 -1.318,-0.467 -2.783,-0.68 -4.906,-0.68 -1.02,0 -1.763,0.043 -3.037,0.149 l 0,13.803 0.87,0.043 z"
             style="fill:#231f20;fill-opacity:1;fill-rule:nonzero;stroke:none"
             id="path92"
             inkscape:connector-curvature="0" /></g><g
           id="g94"
           transform="translate(124.4673,33.4699)"><path
             d="M 0,0 -3.589,-2.612 -4.651,-2.187 -1.656,0.489 0,0 z m -5.033,-8.877 5.138,0 0,-1.528 -5.138,0 0,-4.97 6.561,0 -0.254,-1.592 -8.155,0 0,13.93 7.454,0 0,-1.529 -5.606,0 0,-4.311 z"
             style="fill:#231f20;fill-opacity:1;fill-rule:nonzero;stroke:none"
             id="path96"
             inkscape:connector-curvature="0" /></g><g
           id="g98"
           transform="translate(131.0429,23.5313)"><path
             d="m 0,0 c 0.573,-0.021 0.87,-0.021 1.486,-0.021 2.209,0 3.504,0.998 3.504,2.718 C 4.99,4.524 3.8,5.479 1.507,5.479 1.253,5.479 0.552,5.458 0,5.415 L 0,0 z m -1.083,6.902 c 0.998,0.064 2.102,0.128 2.761,0.128 3.333,0 5.265,-1.53 5.265,-4.205 0,-2.718 -1.953,-4.332 -5.244,-4.332 -0.34,0 -1.083,0.021 -1.699,0.064 l 0,-5.586 -1.848,0 0,13.867 0.765,0.064 z"
             style="fill:#231f20;fill-opacity:1;fill-rule:nonzero;stroke:none"
             id="path100"
             inkscape:connector-curvature="0" /></g><g
           id="g102"
           transform="translate(144.5608,28.0122)"><path
             d="m 0,0 -2.273,-5.67 4.524,0 L 0,0 z m 2.845,-7.093 -5.691,0 -1.784,-4.417 -1.847,0 5.924,14.228 1.275,0 5.839,-14.228 -1.953,0 -1.763,4.417 z"
             style="fill:#231f20;fill-opacity:1;fill-rule:nonzero;stroke:none"
             id="path104"
             inkscape:connector-curvature="0" /></g><g
           id="g106"
           transform="translate(155.8506,23.6165)"><path
             d="m 0,0 2.676,0 c 1.231,0 2.25,1.19 2.25,2.654 0,1.933 -1.189,2.804 -3.78,2.804 -0.361,0 -0.637,0 -1.146,-0.043 L 0,0 z m -1.848,6.753 c 1.316,0.149 2.166,0.213 3.186,0.213 3.545,0 5.479,-1.423 5.479,-4.015 0,-1.825 -0.935,-3.142 -2.761,-3.864 l 4.353,-6.201 -2.23,0 -3.95,5.734 -2.229,0 0,-5.734 -1.848,0 0,13.867 z"
             style="fill:#231f20;fill-opacity:1;fill-rule:nonzero;stroke:none"
             id="path108"
             inkscape:connector-curvature="0" /></g><g
           id="g110"
           transform="translate(171.2883,16.5026)"><path
             d="m 0,0 -1.848,0 0,12.401 -4.798,0 0,1.53 11.445,0 0,-1.53 L 0,12.401 0,0 z"
             style="fill:#231f20;fill-opacity:1;fill-rule:nonzero;stroke:none"
             id="path112"
             inkscape:connector-curvature="0" /></g><g
           id="g114"
           transform="translate(181.2404,24.5932)"><path
             d="m 0,0 5.138,0 0,-1.528 -5.138,0 0,-4.97 6.562,0 -0.255,-1.593 -8.155,0 0,13.931 7.455,0 0,-1.53 L 0,4.31 0,0 z"
             style="fill:#231f20;fill-opacity:1;fill-rule:nonzero;stroke:none"
             id="path116"
             inkscape:connector-curvature="0" /></g><g
           id="g118"
           transform="translate(206.5247,16.5026)"><path
             d="M 0,0 -1.846,0 -2.909,10.257 -7.643,0 -8.769,0 -13.441,10.044 -14.566,0 l -1.7,0 1.7,13.931 1.253,0 5.224,-11.298 5.18,11.298 1.274,0 L 0,0 z"
             style="fill:#231f20;fill-opacity:1;fill-rule:nonzero;stroke:none"
             id="path120"
             inkscape:connector-curvature="0" /></g><g
           id="g122"
           transform="translate(211.8041,24.5932)"><path
             d="m 0,0 5.138,0 0,-1.528 -5.138,0 0,-4.97 6.562,0 -0.255,-1.593 -8.155,0 0,13.931 7.455,0 0,-1.53 L 0,4.31 0,0 z"
             style="fill:#231f20;fill-opacity:1;fill-rule:nonzero;stroke:none"
             id="path124"
             inkscape:connector-curvature="0" /></g><g
           id="g126"
           transform="translate(222.605,30.6452)"><path
             d="m 0,0 9.28,-10.724 0,10.512 1.7,0 0,-13.781 -0.935,-0.34 -9.386,10.851 0,-10.661 -1.7,0 0,13.782 L 0,0 z"
             style="fill:#231f20;fill-opacity:1;fill-rule:nonzero;stroke:none"
             id="path128"
             inkscape:connector-curvature="0" /></g><g
           id="g130"
           transform="translate(243.4913,16.5026)"><path
             d="m 0,0 -1.848,0 0,12.401 -4.799,0 0,1.53 11.446,0 0,-1.53 L 0,12.401 0,0 z"
             style="fill:#231f20;fill-opacity:1;fill-rule:nonzero;stroke:none"
             id="path132"
             inkscape:connector-curvature="0" /></g><g
           id="g134"
           transform="translate(253.4961,28.0122)"><path
             d="m 0,0 -2.272,-5.67 4.524,0 L 0,0 z m 2.846,-7.093 -5.69,0 -1.785,-4.417 -1.848,0 5.925,14.228 1.274,0 5.84,-14.228 -1.953,0 -1.763,4.417 z"
             style="fill:#231f20;fill-opacity:1;fill-rule:nonzero;stroke:none"
             id="path136"
             inkscape:connector-curvature="0" /></g><g
           id="g138"
           transform="translate(264.7859,18.095)"><path
             d="m 0,0 6.201,0 -0.276,-1.592 -7.773,0 0,13.93 1.848,0 L 0,0 z"
             style="fill:#231f20;fill-opacity:1;fill-rule:nonzero;stroke:none"
             id="path140"
             inkscape:connector-curvature="0" /></g></g></g></g></svg>