<svg width="60" height="60" viewBox="0 0 60 60" fill="none" xmlns="http://www.w3.org/2000/svg">
<path d="M30.7272 19.7964C31.4688 20.5368 31.4688 21.7368 30.7272 22.5126C29.9868 23.2542 28.7514 23.2542 28.0116 22.5126C27.27 21.7722 27.27 20.5368 28.0116 19.7964C28.752 19.0548 29.9874 19.0548 30.7272 19.7964Z" fill="#5B12EB"/>
<path d="M30.2106 10.9493L20.877 10.9493C20.4048 10.9493 20.0214 11.3327 20.0214 11.8049L20.0214 31.9505C20.0214 32.4227 20.4048 32.8061 20.877 32.8061H30.2106C35.6052 32.8061 39.978 28.4327 39.978 23.0375V20.7173C39.978 15.3221 35.6052 10.9487 30.2106 10.9487V10.9493ZM29.3508 28.2293C29.3508 28.2293 23.7426 25.7597 23.7426 21.1373C23.7426 18.0323 26.2464 15.5273 29.3508 15.5273C32.4552 15.5273 34.9602 18.0329 34.9602 21.1373C34.9602 25.7597 29.3508 28.2293 29.3508 28.2293Z" fill="#5B12EB"/>
<path d="M18.7692 37.3696H20.8506C22.5306 37.3696 23.6658 38.5882 23.6658 40.0186C23.6658 41.449 22.5306 42.6676 20.8506 42.6676H18.7692V37.3702V37.3696ZM19.8438 38.3458V41.6908H20.8656C21.8496 41.6908 22.5606 40.957 22.5606 40.0186C22.5606 39.0802 21.849 38.3464 20.8656 38.3464H19.8438V38.3458Z" fill="black"/>
<path d="M30.0834 40.0187C30.0834 41.5325 28.9404 42.8189 27.276 42.8189C25.6116 42.8189 24.4608 41.5325 24.4608 40.0187C24.4608 38.5049 25.6038 37.2185 27.276 37.2185C28.9482 37.2185 30.0834 38.5049 30.0834 40.0187ZM28.9782 40.0187C28.9782 39.0047 28.2666 38.2253 27.2754 38.2253C26.2842 38.2253 25.5654 39.0047 25.5654 40.0187C25.5654 41.0327 26.277 41.8121 27.2754 41.8121C28.2738 41.8121 28.9782 41.0327 28.9782 40.0187Z" fill="black"/>
<path d="M31.188 37.3696H32.8074C33.9726 37.3696 34.6921 37.9672 34.6921 38.9512C34.6921 39.5944 34.3819 40.0714 33.8371 40.321L35.4943 42.667H34.2307L32.8152 40.5256H32.2627V42.667H31.188V37.3696ZM32.2627 38.2624V39.6322H32.868C33.3222 39.6322 33.5869 39.3676 33.5869 38.9362C33.5869 38.5348 33.3216 38.2624 32.868 38.2624H32.2627Z" fill="black"/>
<path d="M37.8174 37.3696H39.225L41.2302 42.667H40.0878L39.5808 41.2894H37.4616L36.9546 42.667H35.8116L37.8168 37.3696H37.8174ZM39.2478 40.3738L38.5212 38.3836L37.7946 40.3738H39.2478Z" fill="black"/>
</svg>
