<?xml version="1.0" encoding="UTF-8" standalone="no"?>
<!-- Created with Inkscape (http://www.inkscape.org/) -->

<svg
   xmlns:dc="http://purl.org/dc/elements/1.1/"
   xmlns:cc="http://creativecommons.org/ns#"
   xmlns:rdf="http://www.w3.org/1999/02/22-rdf-syntax-ns#"
   xmlns:svg="http://www.w3.org/2000/svg"
   xmlns="http://www.w3.org/2000/svg"
   xmlns:sodipodi="http://sodipodi.sourceforge.net/DTD/sodipodi-0.dtd"
   xmlns:inkscape="http://www.inkscape.org/namespaces/inkscape"
   id="svg2"
   version="1.1"
   inkscape:version="0.48.2 r9819"
   width="744.095"
   height="744.095"
   xml:space="preserve"
   sodipodi:docname="logocd-aisne-fondbleutrame.pdf"><metadata
     id="metadata8"><rdf:RDF><cc:Work
         rdf:about=""><dc:format>image/svg+xml</dc:format><dc:type
           rdf:resource="http://purl.org/dc/dcmitype/StillImage" /><dc:title></dc:title></cc:Work></rdf:RDF></metadata><defs
     id="defs6"><clipPath
       clipPathUnits="userSpaceOnUse"
       id="clipPath16"><path
         d="m 0,595.276 595.276,0 L 595.276,0 0,0 0,595.276 z"
         id="path18" /></clipPath></defs><sodipodi:namedview
     pagecolor="#ffffff"
     bordercolor="#666666"
     borderopacity="1"
     objecttolerance="10"
     gridtolerance="10"
     guidetolerance="10"
     inkscape:pageopacity="0"
     inkscape:pageshadow="2"
     inkscape:window-width="1366"
     inkscape:window-height="706"
     id="namedview4"
     showgrid="false"
     inkscape:zoom="0.31716382"
     inkscape:cx="372.04749"
     inkscape:cy="372.04749"
     inkscape:window-x="-8"
     inkscape:window-y="-8"
     inkscape:window-maximized="1"
     inkscape:current-layer="g10" /><g
     id="g10"
     inkscape:groupmode="layer"
     inkscape:label="logocd-aisne-fondbleutrame"
     transform="matrix(1.25,0,0,-1.25,0,744.095)"><g
       id="g12"><g
         id="g14"
         clip-path="url(#clipPath16)"><g
           id="g20"
           transform="translate(336.8999,53.4541)"><path
             d="m 0,0 c 0,3.588 -2.347,5.29 -5.889,5.29 l -3.22,0 0,-10.949 3.129,0 C -1.656,-5.659 0,-2.807 0,0"
             style="fill:#1c4f9c;fill-opacity:1;fill-rule:nonzero;stroke:none"
             id="path22" /></g><g
           id="g24"
           transform="translate(282.3438,58.7441)"><path
             d="m 0,0 -2.3,0 0,-12.053 2.208,0 c 4.923,0 6.717,2.3 6.717,5.889 C 6.625,-1.748 4.141,0 0,0"
             style="fill:#1c4f9c;fill-opacity:1;fill-rule:nonzero;stroke:none"
             id="path26" /></g><g
           id="g28"
           transform="translate(181.4106,116.6748)"><path
             d="M 0,0 35.586,0 17.793,44.291 0,0 z"
             style="fill:#1c4f9c;fill-opacity:1;fill-rule:nonzero;stroke:none"
             id="path30" /></g><g
           id="g32"
           transform="translate(306.3101,57.8242)"><path
             d="m 0,0 -5.061,-16.01 10.075,0 L 0.092,0 0,0 z"
             style="fill:#1c4f9c;fill-opacity:1;fill-rule:nonzero;stroke:none"
             id="path34" /></g><g
           id="g36"
           transform="translate(233.0327,58.5605)"><path
             d="m 0,0 -2.438,0 0,-25.119 2.438,0 c 7.084,0 10.765,4.831 10.765,13.065 C 10.765,-5.337 7.913,0 0,0"
             style="fill:#1c4f9c;fill-opacity:1;fill-rule:nonzero;stroke:none"
             id="path38" /></g><g
           id="g40"
           transform="translate(537.6333,161.7334)"><path
             d="m 0,0 -37.25,0 0,-26.113 33.922,0 0,-11.264 -33.922,0 0,-29.441 37.25,0 0,-11.266 -50.051,0 0,89.35 L 0,11.266 0,0 z m -0.268,-131.788 -14.584,0 0,32.111 4.049,0 0,-28.615 10.535,0 0,-3.496 z m -23.366,0 -2.576,8.373 -12.237,0 -2.577,-8.373 -4.048,0 10.764,32.111 4.417,0 10.49,-32.111 -4.233,0 z m -28.567,0 -4.049,0 0,28.615 -7.36,0 0,3.496 18.77,0 0,-3.496 -7.361,0 0,-28.615 z m -16.42,0 -5.015,0 -12.099,26.315 -0.092,0 0,-26.315 -3.865,0 0,32.111 5.014,0 12.1,-26.499 0.092,0 0,26.499 3.865,0 0,-32.111 z m -27.462,0 -15.551,0 0,32.111 14.952,0 0,-3.496 -10.903,0 0,-10.213 10.397,0 0,-3.497 -10.397,0 0,-11.409 11.502,0 0,-3.496 z m -23.275,0 -3.865,0 0,27.695 -0.091,0 -9.11,-27.695 -2.944,0 -8.74,27.695 -0.093,0 0,-27.695 -3.864,0 0,32.111 6.256,0 8.051,-25.532 0.092,0 8.235,25.532 6.073,0 0,-32.111 z m -33.346,143.054 17.408,0 39.427,-71.94 0.256,0 0,71.94 12.8,0 0,-89.35 -16.384,0 -40.45,73.477 -0.256,0 0,-73.477 -12.801,0 0,89.35 z m -1.754,-143.054 -15.549,0 0,32.111 14.951,0 0,-3.496 -10.903,0 0,-10.213 10.397,0 0,-3.497 -10.397,0 0,-11.409 11.501,0 0,-3.496 z m -20.561,28.615 -7.361,0 0,-28.615 -4.049,0 0,28.615 -7.36,0 0,3.496 18.77,0 0,-3.496 z m -24.197,-28.615 -3.68,10.857 c -0.919,2.668 -2.07,3.681 -5.107,3.681 l -1.84,0 0,-14.538 -4.049,0 0,32.111 8.236,0 c 3.404,0 5.29,-0.828 6.762,-2.208 1.657,-1.564 2.393,-3.772 2.393,-6.118 0,-3.405 -1.61,-6.671 -6.35,-7.684 l 0,-0.091 c 1.934,-0.368 2.854,-1.288 3.497,-3.128 l 4.509,-12.882 -4.371,0 z m -23.459,0 -2.576,8.373 -12.237,0 -2.576,-8.373 -4.049,0 10.765,32.111 4.417,0 10.489,-32.111 -4.233,0 z m -32.2,13.434 -2.715,0 0,-13.434 -4.048,0 0,32.111 7.729,0 c 3.22,0 5.244,-0.874 6.947,-2.484 1.609,-1.564 2.53,-3.818 2.53,-6.624 0,-6.257 -3.635,-9.569 -10.443,-9.569 m -13.155,-13.434 -15.55,0 0,32.111 14.952,0 0,-3.496 -10.904,0 0,-10.213 10.398,0 0,-3.497 -10.398,0 0,-11.409 11.502,0 0,-3.496 z m -38.043,0 -5.014,0 0,32.111 6.992,0 c 4.279,0 6.717,-1.011 8.557,-2.3 2.852,-1.978 5.935,-6.026 5.935,-13.25 0,-9.293 -4.417,-16.561 -16.47,-16.561 m -54.246,76.233 -9.088,-22.529 -13.441,0 38.146,89.35 13.441,0 37.761,-89.35 -13.952,0 -9.089,22.529 -43.778,0 z m 33.226,-76.233 -14.584,0 0,32.111 4.049,0 0,-28.615 10.535,0 0,-3.496 z m -22.31,0 -4.048,0 0,32.111 4.048,0 0,-32.111 z m -10.441,0 -15.55,0 0,32.111 14.952,0 0,-3.496 -10.903,0 0,-10.213 10.397,0 0,-3.497 -10.397,0 0,-11.409 11.501,0 0,-3.496 z m -31.142,-0.322 c -2.577,0 -5.015,0.552 -6.717,1.381 l 0,4.185 c 1.84,-1.103 4.232,-2.069 6.119,-2.069 3.634,0 5.704,2.437 5.704,5.06 0,2.484 -0.644,3.91 -4.968,6.532 -5.797,3.497 -7.085,5.475 -7.085,9.616 0,5.291 4.048,8.051 8.925,8.051 2.116,0 4.37,-0.46 5.797,-1.058 l 0,-3.911 c -1.518,0.92 -3.497,1.472 -5.475,1.472 -3.037,0 -5.015,-2.07 -5.015,-4.785 0,-2.069 0.828,-3.358 5.429,-6.026 4.968,-2.853 6.625,-5.658 6.625,-9.339 0,-5.106 -3.175,-9.109 -9.339,-9.109 m -20.788,112.012 -11.009,0 7.936,31.364 14.337,0 -11.264,-31.364 z m 7.587,-111.69 -5.014,0 -12.099,26.315 -0.093,0 0,-26.315 -3.864,0 0,32.111 5.015,0 12.099,-26.499 0.092,0 0,26.499 3.864,0 0,-32.111 z m -25.506,53.704 -50.179,0 0,89.35 12.801,0 0,-78.084 37.378,0 0,-11.266 z m -14.009,-54.026 c -7.131,0 -11.685,6.119 -11.685,16.055 0,11.088 4.463,16.701 12.054,16.701 7.13,0 11.685,-6.119 11.685,-16.056 0,-11.087 -4.463,-16.7 -12.054,-16.7 m -16.742,27.649 c -1.748,1.105 -3.773,1.61 -6.027,1.61 -5.245,0 -10.029,-4.186 -10.029,-12.007 0,-8.281 3.312,-13.755 10.305,-13.755 2.07,0 4.094,0.551 5.751,1.517 l 0,-4.048 c -1.932,-0.598 -3.957,-0.966 -5.843,-0.966 -10.167,0 -14.445,7.729 -14.445,16.423 0,10.03 5.842,16.333 14.215,16.333 2.3,0 4.6,-0.415 6.073,-1.151 l 0,-3.956 z m -17.932,211.092 c 4.649,8.365 19.997,40.135 57.588,59.841 0,0 23.833,14.899 79.23,20.5 0,0 48.326,5.188 50.842,5.537 35.839,4.991 73.718,5.089 103.418,23.093 l 6.104,4.047 c 26.702,18.17 38.491,57.255 40.067,65.749 0.051,0.237 0.377,1.475 0.433,1.706 1.73,7.697 9.143,7.385 9.143,7.385 l 10.614,0 45.692,0 c -21.148,-82.33 -107.988,-102.174 -168.743,-109.764 -62.303,-7.787 -135.732,-11.13 -170.224,-86.782 l -28.995,-0.159 -32.186,-0.213 c 0,0 -7.636,0.687 -2.983,9.06 m 146.818,174.662 3.118,8.434 11.54,31.22 c 0,0 3.386,11.632 14.643,10.64 l 56.775,0 c 0,0 10.585,0.521 7.373,-8.347 l -12.13,-33.475 -3.191,-8.806 -29.496,-81.402 c -33.378,-1.481 -81.595,-7.423 -81.595,-7.423 l 32.963,89.159 z m 88.279,122.611 66.072,0 c 0,0 9.714,0.767 13.657,-10.032 l 15.418,-42.25 18.004,-49.333 -10.613,0 c 0,0 -8.232,0 -9.198,-8.542 -0.026,-0.237 -0.449,-2.337 -0.504,-2.572 -2.763,-12.285 -9.142,-43.295 -38.293,-63.058 l -45.33,123.491 -15.694,42.751 c 0,0 -5.023,9.545 6.481,9.545 m -27.834,-495.345 -4.692,-6.671 -2.945,0 3.083,6.671 4.554,0 z m 12.809,13.357 -12.801,0 0,89.35 12.801,0 0,-89.35 z m 26.879,66.564 c 0,15.872 12.544,24.321 28.673,24.321 5.889,0 12.929,-1.024 19.073,-3.199 l -1.792,-11.778 c -6.528,2.561 -10.112,3.713 -16.769,3.713 -7.168,0 -15.616,-2.56 -15.616,-11.906 0,-17.152 38.401,-13.184 38.401,-42.625 0,-19.072 -14.721,-26.625 -32.642,-26.625 -6.271,0 -12.416,1.791 -18.304,3.711 l 1.28,11.906 c 4.352,-1.793 12.032,-4.353 18.56,-4.353 7.297,0 17.538,4.095 17.538,14.593 0,19.969 -38.402,14.465 -38.402,42.242 m 189.308,40.103 -69.913,0 c -7.823,-0.365 -10.442,7.948 -10.442,7.948 l -43.637,127.494 c 0.791,0.135 1.573,0.27 2.349,0.402 l 1.71,0.194 c 11.96,1.657 47.808,7.07 69.376,15.088 0,0 5.81,1.823 7.682,-3.675 L -37.793,40.32 c 5.178,-11.711 -4.324,-11.737 -4.324,-11.737 m -14.749,266.01 46.645,-0.006 c 0,0 10.583,0.524 7.373,-8.345 -35.671,-115.71 -150.688,-109.592 -237.068,-122.656 -35.128,-5.313 -61.116,-31.703 -76.573,-57.434 -15.507,-25.814 -26.148,-65.048 -26.148,-65.048 -2.201,-12.464 -12.723,-11.403 -12.723,-11.403 l -64.215,-0.022 c 0,0 -7.168,0.712 -4.703,9.143 0,0 11.52,44.747 24.782,66.604 l 1.166,2.07 c 23.381,39.197 64.795,61.684 166.589,71.666 153.258,15.027 166.379,115.431 166.379,115.431 l 8.496,0 z m -480.767,-456.326 595.276,0 0,595.276 -595.276,0 0,-595.276 z"
             style="fill:#1c4f9c;fill-opacity:1;fill-rule:nonzero;stroke:none"
             id="path42" /></g><g
           id="g44"
           transform="translate(94.2998,59.0664)"><path
             d="m 0,0 c -4.232,0 -7.821,-3.496 -7.821,-13.388 0,-6.486 2.024,-12.743 7.453,-12.743 4.232,0 7.821,3.496 7.821,13.388 C 7.453,-6.257 5.429,0 0,0"
             style="fill:#1c4f9c;fill-opacity:1;fill-rule:nonzero;stroke:none"
             id="path46" /></g><g
           id="g48"
           transform="translate(505.3501,57.8242)"><path
             d="m 0,0 -5.061,-16.01 10.076,0 L 0.093,0 0,0 z"
             style="fill:#1c4f9c;fill-opacity:1;fill-rule:nonzero;stroke:none"
             id="path50" /></g><g
           id="g52"
           transform="translate(284.2036,442.6924)"><path
             d="M 0,0 3.191,8.806 15.32,42.281 c 3.212,8.868 -7.373,8.347 -7.373,8.347 l -56.774,0 C -60.084,51.62 -63.47,39.988 -63.47,39.988 l -11.541,-31.22 -3.117,-8.434 -32.963,-89.159 c 0,0 48.216,5.942 81.594,7.423 L 0,0 z"
             style="fill:#ffffff;fill-opacity:1;fill-rule:nonzero;stroke:none"
             id="path54" /></g><g
           id="g56"
           transform="translate(303.5669,513.3413)"><path
             d="m 0,0 45.33,-123.491 c 29.151,19.763 35.53,50.773 38.293,63.058 0.056,0.235 0.479,2.335 0.504,2.572 0.967,8.542 9.198,8.542 9.198,8.542 l 10.613,0 L 85.935,0.014 70.517,42.264 C 66.573,53.063 56.859,52.296 56.859,52.296 l -66.072,0 c -11.503,0 -6.481,-9.545 -6.481,-9.545 L 0,0 z"
             style="fill:#ffffff;fill-opacity:1;fill-rule:nonzero;stroke:none"
             id="path58" /></g><g
           id="g60"
           transform="translate(62.2402,259.3047)"><path
             d="M 0,0 32.186,0.213 61.181,0.372 C 95.673,76.024 169.103,79.366 231.405,87.154 292.16,94.744 379,114.587 400.148,196.918 l -45.691,0 -10.615,0 c 0,0 -7.413,0.311 -9.143,-7.385 -0.056,-0.231 -0.382,-1.47 -0.433,-1.706 -1.576,-8.494 -13.365,-47.579 -40.067,-65.749 l -6.104,-4.048 C 258.395,100.026 220.516,99.928 184.677,94.938 182.161,94.589 133.835,89.4 133.835,89.4 78.438,83.8 54.605,68.9 54.605,68.9 17.014,49.194 1.667,17.425 -2.983,9.06 -7.636,0.687 0,0 0,0"
             style="fill:#adb4dd;fill-opacity:1;fill-rule:nonzero;stroke:none"
             id="path62" /></g><g
           id="g64"
           transform="translate(305.8921,340.8955)"><path
             d="m 0,0 c -101.793,-9.982 -143.208,-32.469 -166.589,-71.666 l -1.166,-2.07 c -13.262,-21.857 -24.782,-66.604 -24.782,-66.604 -2.465,-8.431 4.704,-9.143 4.704,-9.143 l 64.214,0.022 c 0,0 10.522,-1.061 12.723,11.402 0,0 10.642,39.235 26.148,65.049 15.457,25.731 41.445,52.121 76.574,57.434 86.379,13.064 201.397,6.946 237.068,122.656 3.21,8.869 -7.373,8.345 -7.373,8.345 l -46.646,0.006 -8.496,0 C 166.379,115.431 153.258,15.027 0,0"
             style="fill:#ffffff;fill-opacity:1;fill-rule:nonzero;stroke:none"
             id="path66" /></g><g
           id="g68"
           transform="translate(444.9595,341.4424)"><path
             d="m 0,0 c -21.568,-8.018 -57.416,-13.431 -69.376,-15.088 l -1.71,-0.194 c -0.776,-0.132 -1.559,-0.267 -2.35,-0.402 l 43.638,-127.494 c 0,0 2.619,-8.313 10.442,-7.948 l 69.913,0 c 0,0 9.502,0.026 4.324,11.737 L 7.682,-3.675 C 5.81,1.823 0,0 0,0"
             style="fill:#ffffff;fill-opacity:1;fill-rule:nonzero;stroke:none"
             id="path70" /></g><g
           id="g72"
           transform="translate(56.9009,46.0469)"><path
             d="m 0,0 c 0,-8.694 4.278,-16.424 14.445,-16.424 1.887,0 3.911,0.368 5.843,0.967 l 0,4.048 c -1.656,-0.966 -3.681,-1.518 -5.75,-1.518 -6.994,0 -10.306,5.475 -10.306,13.755 0,7.821 4.785,12.008 10.029,12.008 2.255,0 4.279,-0.506 6.027,-1.61 l 0,3.956 c -1.472,0.736 -3.772,1.15 -6.073,1.15 C 5.842,16.332 0,10.029 0,0"
             style="fill:#ffffff;fill-opacity:1;fill-rule:nonzero;stroke:none"
             id="path74" /></g><g
           id="g76"
           transform="translate(93.9316,32.9355)"><path
             d="m 0,0 c -5.429,0 -7.453,6.257 -7.453,12.743 0,9.892 3.589,13.388 7.821,13.388 5.429,0 7.453,-6.257 7.453,-12.743 C 7.821,3.496 4.232,0 0,0 m 0.368,29.443 c -7.591,0 -12.053,-5.612 -12.053,-16.7 0,-9.936 4.554,-16.056 11.685,-16.056 7.591,0 12.053,5.614 12.053,16.701 0,9.937 -4.554,16.055 -11.685,16.055"
             style="fill:#ffffff;fill-opacity:1;fill-rule:nonzero;stroke:none"
             id="path78" /></g><g
           id="g80"
           transform="translate(129.5825,35.5576)"><path
             d="m 0,0 -0.092,0 -12.099,26.499 -5.015,0 0,-32.111 3.864,0 0,26.315 0.092,0 12.1,-26.315 5.014,0 0,32.111 L 0,26.499 0,0 z"
             style="fill:#ffffff;fill-opacity:1;fill-rule:nonzero;stroke:none"
             id="path82" /></g><g
           id="g84"
           transform="translate(149.3613,48.0713)"><path
             d="m 0,0 c -4.601,2.668 -5.429,3.957 -5.429,6.026 0,2.715 1.978,4.786 5.015,4.786 1.978,0 3.956,-0.553 5.475,-1.473 l 0,3.911 c -1.427,0.598 -3.681,1.058 -5.797,1.058 -4.877,0 -8.925,-2.76 -8.925,-8.051 0,-4.141 1.288,-6.119 7.085,-9.615 4.324,-2.622 4.968,-4.049 4.968,-6.533 0,-2.623 -2.07,-5.06 -5.705,-5.06 -1.886,0 -4.278,0.966 -6.118,2.069 l 0,-4.185 c 1.702,-0.829 4.14,-1.381 6.717,-1.381 6.164,0 9.339,4.003 9.339,9.109 C 6.625,-5.658 4.968,-2.853 0,0"
             style="fill:#ffffff;fill-opacity:1;fill-rule:nonzero;stroke:none"
             id="path86" /></g><g
           id="g88"
           transform="translate(166.2881,44.8506)"><path
             d="m 0,0 10.397,0 0,3.497 -10.397,0 0,10.213 10.903,0 0,3.496 -14.951,0 0,-32.111 15.549,0 0,3.496 L 0,-11.409 0,0 z"
             style="fill:#ffffff;fill-opacity:1;fill-rule:nonzero;stroke:none"
             id="path90" /></g><path
           d="m 184.182,29.945 4.048,0 0,32.111 -4.048,0 0,-32.111 z"
           style="fill:#ffffff;fill-opacity:1;fill-rule:nonzero;stroke:none"
           id="path92" /><g
           id="g94"
           transform="translate(200.0049,62.0566)"><path
             d="m 0,0 -4.048,0 0,-32.111 14.583,0 0,3.496 L 0,-28.615 0,0 z"
             style="fill:#ffffff;fill-opacity:1;fill-rule:nonzero;stroke:none"
             id="path96" /></g><g
           id="g98"
           transform="translate(233.0327,33.4414)"><path
             d="m 0,0 -2.438,0 0,25.119 2.438,0 c 7.913,0 10.765,-5.337 10.765,-12.054 C 10.765,4.831 7.084,0 0,0 m 9.063,26.315 c -1.84,1.289 -4.279,2.3 -8.557,2.3 l -6.993,0 0,-32.111 5.014,0 c 12.054,0 16.471,7.268 16.471,16.561 0,7.224 -3.083,11.272 -5.935,13.25"
             style="fill:#ffffff;fill-opacity:1;fill-rule:nonzero;stroke:none"
             id="path100" /></g><g
           id="g102"
           transform="translate(258.1016,44.8506)"><path
             d="m 0,0 10.397,0 0,3.497 -10.397,0 0,10.213 10.903,0 0,3.496 -14.951,0 0,-32.111 15.549,0 0,3.496 L 0,-11.409 0,0 z"
             style="fill:#ffffff;fill-opacity:1;fill-rule:nonzero;stroke:none"
             id="path104" /></g><g
           id="g106"
           transform="translate(261.8281,63.6211)"><path
             d="m 0,0 4.692,6.671 -4.554,0 L -2.944,0 0,0 z"
             style="fill:#ffffff;fill-opacity:1;fill-rule:nonzero;stroke:none"
             id="path108" /></g><g
           id="g110"
           transform="translate(282.252,46.6914)"><path
             d="m 0,0 -2.208,0 0,12.053 2.3,0 c 4.14,0 6.625,-1.748 6.625,-6.164 C 6.717,2.3 4.922,0 0,0 m 1.472,15.365 -7.729,0 0,-32.111 4.049,0 0,13.433 2.714,0 c 6.808,0 10.443,3.313 10.443,9.57 0,2.806 -0.92,5.06 -2.53,6.624 -1.702,1.61 -3.727,2.484 -6.947,2.484"
             style="fill:#ffffff;fill-opacity:1;fill-rule:nonzero;stroke:none"
             id="path112" /></g><g
           id="g114"
           transform="translate(301.2495,41.8145)"><path
             d="m 0,0 5.061,16.01 0.091,0 L 10.074,0 0,0 z m 3.036,20.242 -10.765,-32.111 4.048,0 2.577,8.373 12.237,0 2.576,-8.373 4.232,0 -10.488,32.111 -4.417,0 z"
             style="fill:#ffffff;fill-opacity:1;fill-rule:nonzero;stroke:none"
             id="path116" /></g><g
           id="g118"
           transform="translate(330.9194,47.7949)"><path
             d="m 0,0 -3.129,0 0,10.949 3.221,0 C 3.634,10.949 5.98,9.247 5.98,5.659 5.98,2.853 4.324,0 0,0 m 3.863,-1.84 0,0.092 c 4.74,1.013 6.35,4.278 6.35,7.684 0,2.345 -0.736,4.553 -2.393,6.118 -1.472,1.38 -3.358,2.208 -6.762,2.208 l -8.236,0 0,-32.112 4.049,0 0,14.538 1.84,0 c 3.037,0 4.187,-1.012 5.107,-3.68 l 3.68,-10.858 4.371,0 -4.509,12.882 c -0.643,1.84 -1.563,2.76 -3.497,3.128"
             style="fill:#ffffff;fill-opacity:1;fill-rule:nonzero;stroke:none"
             id="path120" /></g><g
           id="g122"
           transform="translate(343.8442,58.5605)"><path
             d="m 0,0 7.36,0 0,-28.615 4.049,0 0,28.615 7.362,0 0,3.496 L 0,3.496 0,0 z"
             style="fill:#ffffff;fill-opacity:1;fill-rule:nonzero;stroke:none"
             id="path124" /></g><g
           id="g126"
           transform="translate(371.6743,44.8506)"><path
             d="m 0,0 10.397,0 0,3.497 -10.397,0 0,10.213 10.903,0 0,3.496 -14.951,0 0,-32.111 15.549,0 0,3.496 L 0,-11.409 0,0 z"
             style="fill:#ffffff;fill-opacity:1;fill-rule:nonzero;stroke:none"
             id="path128" /></g><g
           id="g130"
           transform="translate(403.9673,36.5244)"><path
             d="m 0,0 -0.092,0 -8.051,25.532 -6.256,0 0,-32.111 3.864,0 0,27.695 0.093,0 8.74,-27.695 2.944,0 9.11,27.695 0.091,0 0,-27.695 3.865,0 0,32.111 -6.073,0 L 0,0 z"
             style="fill:#ffffff;fill-opacity:1;fill-rule:nonzero;stroke:none"
             id="path132" /></g><g
           id="g134"
           transform="translate(430.0483,44.8506)"><path
             d="m 0,0 10.397,0 0,3.497 -10.397,0 0,10.213 10.903,0 0,3.496 -14.952,0 0,-32.111 15.551,0 0,3.496 L 0,-11.409 0,0 z"
             style="fill:#ffffff;fill-opacity:1;fill-rule:nonzero;stroke:none"
             id="path136" /></g><g
           id="g138"
           transform="translate(465.147,35.5576)"><path
             d="m 0,0 -0.092,0 -12.099,26.499 -5.015,0 0,-32.111 3.865,0 0,26.315 0.092,0 12.1,-26.315 5.014,0 0,32.111 L 0,26.499 0,0 z"
             style="fill:#ffffff;fill-opacity:1;fill-rule:nonzero;stroke:none"
             id="path140" /></g><g
           id="g142"
           transform="translate(492.7935,62.0566)"><path
             d="m 0,0 -18.771,0 0,-3.496 7.361,0 0,-28.615 4.049,0 0,28.615 7.361,0 L 0,0 z"
             style="fill:#ffffff;fill-opacity:1;fill-rule:nonzero;stroke:none"
             id="path144" /></g><g
           id="g146"
           transform="translate(500.2896,41.8145)"><path
             d="m 0,0 5.061,16.01 0.092,0 L 10.075,0 0,0 z m 3.036,20.242 -10.765,-32.111 4.048,0 2.577,8.373 12.238,0 2.576,-8.373 4.232,0 -10.489,32.111 -4.417,0 z"
             style="fill:#ffffff;fill-opacity:1;fill-rule:nonzero;stroke:none"
             id="path148" /></g><g
           id="g150"
           transform="translate(526.8306,62.0566)"><path
             d="m 0,0 -4.049,0 0,-32.111 14.584,0 0,3.496 L 0,-28.615 0,0 z"
             style="fill:#ffffff;fill-opacity:1;fill-rule:nonzero;stroke:none"
             id="path152" /></g><g
           id="g154"
           transform="translate(70.562,172.999)"><path
             d="m 0,0 -12.8,0 0,-89.35 50.178,0 0,11.266 L 0,-78.084 0,0 z"
             style="fill:#ffffff;fill-opacity:1;fill-rule:nonzero;stroke:none"
             id="path156" /></g><g
           id="g158"
           transform="translate(114.8501,141.6357)"><path
             d="m 0,0 11.009,0 11.264,31.363 -14.336,0 L 0,0 z"
             style="fill:#ffffff;fill-opacity:1;fill-rule:nonzero;stroke:none"
             id="path160" /></g><g
           id="g162"
           transform="translate(181.4106,116.6748)"><path
             d="M 0,0 17.793,44.291 35.586,0 0,0 z m 62.723,-33.025 -37.762,89.349 -13.44,0 -38.146,-89.349 13.44,0 9.089,22.529 43.778,0 9.089,-22.529 13.952,0 z"
             style="fill:#ffffff;fill-opacity:1;fill-rule:nonzero;stroke:none"
             id="path164" /></g><path
           d="m 279.329,172.999 -12.801,0 0,-89.35 12.801,0 0,89.35 z"
           style="fill:#ffffff;fill-opacity:1;fill-rule:nonzero;stroke:none"
           id="path166" /><g
           id="g168"
           transform="translate(327.0728,93.3779)"><path
             d="m 0,0 c -6.528,0 -14.208,2.561 -18.561,4.354 l -1.28,-11.907 c 5.889,-1.92 12.033,-3.711 18.305,-3.711 17.921,0 32.641,7.553 32.641,26.625 0,29.442 -38.401,25.473 -38.401,42.625 0,9.346 8.448,11.907 15.616,11.907 6.658,0 10.242,-1.153 16.77,-3.713 l 1.792,11.777 c -6.145,2.176 -13.185,3.199 -19.073,3.199 -16.129,0 -28.673,-8.449 -28.673,-24.32 0,-27.777 38.401,-22.273 38.401,-42.242 C 17.537,4.096 7.297,0 0,0"
             style="fill:#ffffff;fill-opacity:1;fill-rule:nonzero;stroke:none"
             id="path170" /></g><g
           id="g172"
           transform="translate(397.73,157.126)"><path
             d="m 0,0 0.256,0 40.45,-73.477 16.385,0 0,89.35 -12.801,0 0,-71.939 -0.256,0 -39.427,71.939 -17.408,0 0,-89.35 12.801,0 L 0,0 z"
             style="fill:#ffffff;fill-opacity:1;fill-rule:nonzero;stroke:none"
             id="path174" /></g><g
           id="g176"
           transform="translate(487.5825,83.6494)"><path
             d="m 0,0 50.051,0 0,11.266 -37.25,0 0,29.441 33.922,0 0,11.264 -33.922,0 0,26.113 37.25,0 0,11.266 L 0,89.35 0,0 z"
             style="fill:#ffffff;fill-opacity:1;fill-rule:nonzero;stroke:none"
             id="path178" /></g></g></g></g></svg>