<?xml version="1.0" encoding="UTF-8" standalone="no"?>
<!-- Created with Inkscape (http://www.inkscape.org/) -->

<svg
   xmlns:dc="http://purl.org/dc/elements/1.1/"
   xmlns:cc="http://creativecommons.org/ns#"
   xmlns:rdf="http://www.w3.org/1999/02/22-rdf-syntax-ns#"
   xmlns:svg="http://www.w3.org/2000/svg"
   xmlns="http://www.w3.org/2000/svg"
   xmlns:sodipodi="http://sodipodi.sourceforge.net/DTD/sodipodi-0.dtd"
   xmlns:inkscape="http://www.inkscape.org/namespaces/inkscape"
   id="svg2"
   version="1.1"
   inkscape:version="0.91 r13725"
   xml:space="preserve"
   width="300"
   height="89.438789"
   viewBox="0 0 300 89.438789"
   sodipodi:docname="Ardèche (07) logo.svg"><metadata
     id="metadata8"><rdf:RDF><cc:Work
         rdf:about=""><dc:format>image/svg+xml</dc:format><dc:type
           rdf:resource="http://purl.org/dc/dcmitype/StillImage" /><dc:title></dc:title></cc:Work></rdf:RDF></metadata><defs
     id="defs6"><clipPath
       clipPathUnits="userSpaceOnUse"
       id="clipPath16"><path
         d="m 0,65.197 155.906,0 L 155.906,0 0,0 0,65.197 Z"
         id="path18"
         inkscape:connector-curvature="0" /></clipPath></defs><sodipodi:namedview
     pagecolor="#ffffff"
     bordercolor="#666666"
     borderopacity="1"
     objecttolerance="10"
     gridtolerance="10"
     guidetolerance="10"
     inkscape:pageopacity="0"
     inkscape:pageshadow="2"
     inkscape:window-width="1366"
     inkscape:window-height="705"
     id="namedview4"
     showgrid="false"
     fit-margin-top="0"
     fit-margin-left="0"
     fit-margin-right="0"
     fit-margin-bottom="0"
     inkscape:zoom="2.1032616"
     inkscape:cx="148.37588"
     inkscape:cy="45.496306"
     inkscape:window-x="-8"
     inkscape:window-y="-8"
     inkscape:window-maximized="1"
     inkscape:current-layer="g10" /><g
     id="g10"
     inkscape:groupmode="layer"
     inkscape:label="Ardeche le Departement_2021_Q"
     transform="matrix(1.25,0,0,-1.25,-26.247876,108.61717)"><g
       id="g12"
       transform="matrix(2.0637439,0,0,2.0637439,-22.336813,-16.320703)"><g
         id="g14"
         clip-path="url(#clipPath16)"><g
           id="g20"
           transform="translate(31.5473,37.2733)"><path
             d="M 0,0 -1.175,4.001 C -1.511,5.12 -1.847,6.52 -2.127,7.639 l -0.056,0 C -2.462,6.52 -2.742,5.093 -3.05,4.001 L -4.169,0 0,0 Z m -4.785,-3.19 -1.343,-4.841 -4.421,0 5.764,18.86 5.596,0 5.848,-18.86 -4.588,0 -1.455,4.841 -5.401,0 z"
             style="fill:#2c71b6;fill-opacity:1;fill-rule:nonzero;stroke:none"
             id="path22"
             inkscape:connector-curvature="0" /></g><g
           id="g24"
           transform="translate(40.2506,38.4205)"><path
             d="m 0,0 c 0,2.015 -0.056,3.33 -0.112,4.505 l 3.666,0 0.139,-2.518 0.112,0 c 0.7,1.986 2.379,2.826 3.694,2.826 0.392,0 0.588,0 0.895,-0.056 l 0,-4.029 C 8.087,0.811 7.723,0.867 7.247,0.867 5.68,0.867 4.617,0.028 4.337,-1.287 4.281,-1.567 4.253,-1.903 4.253,-2.238 l 0,-6.94 L 0,-9.178 0,0 Z"
             style="fill:#2c71b6;fill-opacity:1;fill-rule:nonzero;stroke:none"
             id="path26"
             inkscape:connector-curvature="0" /></g><g
           id="g28"
           transform="translate(59.5022,37.1334)"><path
             d="m 0,0 c 0,0.224 -0.028,0.532 -0.056,0.755 -0.252,1.148 -1.175,2.099 -2.49,2.099 -1.931,0 -2.938,-1.735 -2.938,-3.889 0,-2.323 1.147,-3.778 2.91,-3.778 1.231,0 2.21,0.84 2.462,2.043 C -0.028,-2.462 0,-2.155 0,-1.791 L 0,0 Z m 4.253,11.976 0,-15.781 c 0,-1.539 0.056,-3.162 0.112,-4.086 l -3.777,0 -0.196,2.015 -0.056,0 c -0.868,-1.539 -2.519,-2.323 -4.281,-2.323 -3.246,0 -5.849,2.771 -5.849,7.024 -0.027,4.617 2.855,7.275 6.128,7.275 1.679,0 2.994,-0.588 3.61,-1.539 l 0.056,0 0,7.415 4.253,0 z"
             style="fill:#2c71b6;fill-opacity:1;fill-rule:nonzero;stroke:none"
             id="path30"
             inkscape:connector-curvature="0" /></g><g
           id="g32"
           transform="translate(75.2847,37.6371)"><path
             d="M 0,0 C 0,1.035 -0.448,2.77 -2.406,2.77 -4.197,2.77 -4.925,1.147 -5.037,0 L 0,0 Z m -2.714,11.248 2.406,-4.253 -2.91,0 -3.414,4.253 3.918,0 z M -5.009,-2.91 c 0.14,-1.763 1.875,-2.602 3.862,-2.602 1.455,0 2.63,0.195 3.777,0.559 l 0.56,-2.882 c -1.399,-0.559 -3.106,-0.867 -4.953,-0.867 -4.645,0 -7.303,2.714 -7.303,6.995 0,3.47 2.155,7.303 6.911,7.303 4.421,0 6.1,-3.442 6.1,-6.827 0,-0.728 -0.084,-1.371 -0.14,-1.679 l -8.814,0 z"
             style="fill:#2c71b6;fill-opacity:1;fill-rule:nonzero;stroke:none"
             id="path34"
             inkscape:connector-curvature="0" /></g><g
           id="g36"
           transform="translate(91.8787,29.5785)"><path
             d="m 0,0 c -0.756,-0.336 -2.183,-0.644 -3.806,-0.644 -4.421,0 -7.247,2.714 -7.247,7.024 0,4.001 2.742,7.275 7.835,7.275 1.119,0 2.351,-0.196 3.246,-0.532 L -0.644,9.961 c -0.503,0.224 -1.259,0.42 -2.378,0.42 -2.239,0 -3.693,-1.595 -3.666,-3.834 0,-2.518 1.679,-3.833 3.75,-3.833 1.007,0 1.791,0.168 2.434,0.448 L 0,0 Z"
             style="fill:#2c71b6;fill-opacity:1;fill-rule:nonzero;stroke:none"
             id="path38"
             inkscape:connector-curvature="0" /></g><g
           id="g40"
           transform="translate(94.0618,49.1093)"><path
             d="m 0,0 4.253,0 0,-7.807 0.056,0 c 0.448,0.588 1.007,1.064 1.679,1.399 0.644,0.336 1.427,0.532 2.211,0.532 2.714,0 4.784,-1.875 4.784,-5.988 l 0,-8.003 -4.253,0 0,7.527 c 0,1.791 -0.615,3.022 -2.21,3.022 -1.12,0 -1.819,-0.727 -2.127,-1.483 -0.112,-0.279 -0.14,-0.643 -0.14,-0.951 l 0,-8.115 -4.253,0 L 0,0 Z"
             style="fill:#2c71b6;fill-opacity:1;fill-rule:nonzero;stroke:none"
             id="path42"
             inkscape:connector-curvature="0" /></g><g
           id="g44"
           transform="translate(118.5745,37.6371)"><path
             d="M 0,0 C 0,1.035 -0.448,2.77 -2.406,2.77 -4.197,2.77 -4.925,1.147 -5.037,0 L 0,0 Z m -5.009,-2.91 c 0.14,-1.763 1.875,-2.602 3.862,-2.602 1.455,0 2.63,0.195 3.777,0.559 l 0.56,-2.882 c -1.399,-0.559 -3.106,-0.867 -4.953,-0.867 -4.645,0 -7.303,2.714 -7.303,6.995 0,3.47 2.155,7.303 6.911,7.303 4.421,0 6.1,-3.442 6.1,-6.827 0,-0.728 -0.084,-1.371 -0.14,-1.679 l -8.814,0 z"
             style="fill:#2c71b6;fill-opacity:1;fill-rule:nonzero;stroke:none"
             id="path46"
             inkscape:connector-curvature="0" /></g><g
           id="g48"
           transform="translate(21.8877,24.1885)"><path
             d="m 0,0 1.987,0 0,-7.092 3.481,0 0,-1.662 L 0,-8.754 0,0 Z"
             style="fill:#2c71b6;fill-opacity:1;fill-rule:nonzero;stroke:none"
             id="path50"
             inkscape:connector-curvature="0" /></g><g
           id="g52"
           transform="translate(33.7092,19.1356)"><path
             d="m 0,0 -3.221,0 0,-2.078 3.597,0 0,-1.624 -5.584,0 0,8.755 5.403,0 0,-1.624 -3.416,0 0,-1.818 L 0,1.611 0,0 Z"
             style="fill:#2c71b6;fill-opacity:1;fill-rule:nonzero;stroke:none"
             id="path54"
             inkscape:connector-curvature="0" /></g><g
           id="g56"
           transform="translate(40.0505,16.9277)"><path
             d="M 0,0 C 0.169,-0.039 0.441,-0.039 0.688,-0.039 2.481,-0.052 3.65,0.935 3.65,3.027 3.663,4.845 2.598,5.806 0.896,5.806 0.454,5.806 0.169,5.767 0,5.728 L 0,0 Z M -1.987,7.144 C -1.26,7.261 -0.312,7.326 0.688,7.326 2.351,7.326 3.429,7.027 4.273,6.39 5.182,5.715 5.754,4.637 5.754,3.091 5.754,1.416 5.143,0.26 4.299,-0.455 3.377,-1.221 1.974,-1.585 0.26,-1.585 c -1.026,0 -1.754,0.065 -2.247,0.131 l 0,8.598 z"
             style="fill:#2c71b6;fill-opacity:1;fill-rule:nonzero;stroke:none"
             id="path58"
             inkscape:connector-curvature="0" /></g><g
           id="g60"
           transform="translate(51.99,26.2536)"><path
             d="m 0,0 -1.598,-1.598 -1.571,0 L -2.078,0 0,0 Z m 0.234,-7.118 -3.221,0 0,-2.078 3.597,0 0,-1.624 -5.585,0 0,8.755 5.404,0 0,-1.624 -3.416,0 0,-1.818 3.221,0 0,-1.611 z"
             style="fill:#2c71b6;fill-opacity:1;fill-rule:nonzero;stroke:none"
             id="path62"
             inkscape:connector-curvature="0" /></g><g
           id="g64"
           transform="translate(55.6934,20.097)"><path
             d="m 0,0 c 0.169,-0.039 0.377,-0.052 0.662,-0.052 1.052,0 1.702,0.532 1.702,1.429 0,0.805 -0.559,1.286 -1.546,1.286 C 0.416,2.663 0.143,2.623 0,2.585 L 0,0 Z m -1.961,3.974 c 0.61,0.104 1.467,0.182 2.675,0.182 1.221,0 2.091,-0.233 2.676,-0.701 C 3.949,3.013 4.325,2.286 4.325,1.429 4.325,0.571 4.039,-0.156 3.52,-0.649 2.845,-1.286 1.844,-1.572 0.675,-1.572 0.416,-1.572 0.182,-1.559 0,-1.533 l 0,-3.13 -1.961,0 0,8.637 z"
             style="fill:#2c71b6;fill-opacity:1;fill-rule:nonzero;stroke:none"
             id="path66"
             inkscape:connector-curvature="0" /></g><g
           id="g68"
           transform="translate(64.8527,19.1617)"><path
             d="m 0,0 -0.545,1.858 c -0.156,0.519 -0.312,1.169 -0.442,1.688 l -0.026,0 C -1.143,3.027 -1.273,2.364 -1.416,1.858 L -1.935,0 0,0 Z m -2.221,-1.481 -0.623,-2.247 -2.053,0 2.676,8.755 2.598,0 2.714,-8.755 -2.13,0 -0.675,2.247 -2.507,0 z"
             style="fill:#2c71b6;fill-opacity:1;fill-rule:nonzero;stroke:none"
             id="path70"
             inkscape:connector-curvature="0" /></g><g
           id="g72"
           transform="translate(71.0769,20.3046)"><path
             d="M 0,0 0.779,0 C 1.767,0 2.351,0.494 2.351,1.26 2.351,2.066 1.805,2.468 0.896,2.481 0.416,2.481 0.143,2.442 0,2.416 L 0,0 Z m -1.961,3.767 c 0.636,0.104 1.585,0.182 2.636,0.182 1.299,0 2.208,-0.195 2.832,-0.689 0.52,-0.415 0.805,-1.026 0.805,-1.831 0,-1.117 -0.792,-1.883 -1.545,-2.156 l 0,-0.039 C 3.377,-1.013 3.715,-1.597 3.936,-2.403 4.208,-3.39 4.481,-4.533 4.65,-4.87 l -2.026,0 C 2.481,-4.624 2.273,-3.91 2.013,-2.832 1.78,-1.74 1.403,-1.441 0.598,-1.428 l -0.598,0 0,-3.442 -1.961,0 0,8.637 z"
             style="fill:#2c71b6;fill-opacity:1;fill-rule:nonzero;stroke:none"
             id="path74"
             inkscape:connector-curvature="0" /></g><g
           id="g76"
           transform="translate(78.5084,22.5259)"><path
             d="m 0,0 -2.351,0 0,1.663 6.729,0 0,-1.663 -2.391,0 0,-7.092 L 0,-7.092 0,0 Z"
             style="fill:#2c71b6;fill-opacity:1;fill-rule:nonzero;stroke:none"
             id="path78"
             inkscape:connector-curvature="0" /></g><g
           id="g80"
           transform="translate(89.1352,19.1356)"><path
             d="m 0,0 -3.221,0 0,-2.078 3.598,0 0,-1.624 -5.585,0 0,8.755 5.403,0 0,-1.624 -3.416,0 0,-1.818 L 0,1.611 0,0 Z"
             style="fill:#2c71b6;fill-opacity:1;fill-rule:nonzero;stroke:none"
             id="path82"
             inkscape:connector-curvature="0" /></g><g
           id="g84"
           transform="translate(98.1905,18.7852)"><path
             d="m 0,0 c -0.039,1.052 -0.078,2.325 -0.078,3.597 l -0.04,0 C -0.39,2.481 -0.754,1.234 -1.092,0.208 l -1.064,-3.416 -1.546,0 -0.935,3.389 C -4.922,1.208 -5.222,2.455 -5.43,3.597 l -0.026,0 C -5.507,2.416 -5.546,1.065 -5.611,-0.026 l -0.157,-3.325 -1.83,0 0.558,8.754 2.636,0 0.858,-2.922 C -3.273,1.468 -3,0.376 -2.806,-0.65 l 0.039,0 c 0.247,1.013 0.546,2.169 0.832,3.144 L -1,5.403 l 2.584,0 0.482,-8.754 -1.936,0 L 0,0 Z"
             style="fill:#2c71b6;fill-opacity:1;fill-rule:nonzero;stroke:none"
             id="path86"
             inkscape:connector-curvature="0" /></g><g
           id="g88"
           transform="translate(106.8838,19.1356)"><path
             d="m 0,0 -3.221,0 0,-2.078 3.598,0 0,-1.624 -5.586,0 0,8.755 5.403,0 0,-1.624 -3.415,0 0,-1.818 L 0,1.611 0,0 Z"
             style="fill:#2c71b6;fill-opacity:1;fill-rule:nonzero;stroke:none"
             id="path90"
             inkscape:connector-curvature="0" /></g><g
           id="g92"
           transform="translate(108.3793,15.4341)"><path
             d="m 0,0 0,8.754 2.312,0 1.818,-3.208 c 0.52,-0.922 1.04,-2.013 1.429,-3 l 0.039,0 C 5.468,3.702 5.429,4.884 5.429,6.195 l 0,2.559 1.819,0 L 7.248,0 5.17,0 3.299,3.377 C 2.779,4.312 2.208,5.442 1.779,6.468 L 1.74,6.455 C 1.792,5.299 1.818,4.065 1.818,2.637 L 1.818,0 0,0 Z"
             style="fill:#2c71b6;fill-opacity:1;fill-rule:nonzero;stroke:none"
             id="path94"
             inkscape:connector-curvature="0" /></g><g
           id="g96"
           transform="translate(119.0327,22.5259)"><path
             d="m 0,0 -2.351,0 0,1.663 6.728,0 0,-1.663 -2.39,0 0,-7.092 L 0,-7.092 0,0 Z"
             style="fill:#2c71b6;fill-opacity:1;fill-rule:nonzero;stroke:none"
             id="path98"
             inkscape:connector-curvature="0" /></g><g
           id="g100"
           transform="translate(126.5326,42.3022)"><path
             d="m 0,0 c 0.841,0 1.302,1.055 1.302,3.153 0,2.046 -0.447,3.121 -1.307,3.121 -0.794,0 -1.332,-0.995 -1.33,-3.144 C -1.34,1.005 -0.826,0 0,0"
             style="fill:#2c71b6;fill-opacity:1;fill-rule:nonzero;stroke:none"
             id="path102"
             inkscape:connector-curvature="0" /></g><g
           id="g104"
           transform="translate(137.1808,44.1692)"><path
             d="m 0,0 -3.31,-6.849 -2.291,0 3.804,7.424 0,0.028 -4.232,0 0,1.779 5.15,0 c -1.228,2.07 -3.479,3.462 -6.061,3.462 -0.68,0 -1.336,-0.102 -1.958,-0.281 1.203,-0.783 1.713,-2.429 1.713,-4.25 0,-2.845 -1.155,-4.81 -3.508,-4.81 -1.821,0 -2.865,1.247 -3.262,2.997 -0.023,-0.233 -0.036,-0.468 -0.036,-0.706 0,-3.894 3.157,-7.051 7.051,-7.051 3.894,0 7.051,3.157 7.051,7.051 C 0.111,-0.788 0.072,-0.398 0,0"
             style="fill:#2c71b6;fill-opacity:1;fill-rule:nonzero;stroke:none"
             id="path106"
             inkscape:connector-curvature="0" /></g><g
           id="g108"
           transform="translate(123.226,43.669)"><path
             d="M 0,0 0,0 0,0 Z"
             style="fill:#2c71b6;fill-opacity:1;fill-rule:nonzero;stroke:none"
             id="path110"
             inkscape:connector-curvature="0" /></g><g
           id="g112"
           transform="translate(128.2827,49.7319)"><path
             d="M 0,0 C 0,0 0,0 0,0 0,0 0,0 0,0"
             style="fill:#2c71b6;fill-opacity:1;fill-rule:nonzero;stroke:none"
             id="path114"
             inkscape:connector-curvature="0" /></g><g
           id="g116"
           transform="translate(136.3019,46.5514)"><path
             d="M 0,0 0,0 C 0,0 0,0 0,0 Z"
             style="fill:#2c71b6;fill-opacity:1;fill-rule:nonzero;stroke:none"
             id="path118"
             inkscape:connector-curvature="0" /></g></g></g></g></svg>