<?xml version="1.0" encoding="UTF-8" standalone="no"?>
<!-- Created with Inkscape (http://www.inkscape.org/) -->

<svg
   version="1.1"
   id="svg132"
   width="711.10004"
   height="700"
   viewBox="0 0 711.10004 700"
   xmlns="http://www.w3.org/2000/svg"
   xmlns:svg="http://www.w3.org/2000/svg">
  <defs
     id="defs136" />
  <g
     id="g140"
     transform="matrix(1.3333333,0,0,-1.3333333,-989.19106,160.61891)">
    <g
       id="g1167"
       transform="matrix(1.5410656,0,0,1.5410656,-401.41295,-65.17903)"
       style="stroke-width:0.648902">
      <path
         d="m 789.12964,-84.343306 c 1.44597,-0.005 4.50742,-0.169527 8.1722,-0.94237 2.5429,-0.583372 3.90909,-2.966722 3.06145,-5.001045 -0.94237,-2.208837 -3.74455,-2.991652 -6.20767,-1.804964 -1.70026,0.947357 -4.09358,1.550673 -7.49409,1.550673 -17.61585,0 -24.43183,-17.964868 -24.43183,-32.010678 0,-10.80983 4.85645,-18.54824 16.76323,-18.54824 2.82212,-0.005 5.11572,0.35401 8.3467,1.52574 h -0.0848 l 1.3612,0.60332 c 1.78502,0.69805 3.99884,-0.26426 3.4055,-1.76508 -1.19666,-2.83209 -3.74455,-5.21046 -7.40434,-5.71904 -2.20883,-0.26925 -4.93124,-0.51855 -8.08244,-0.51356 -9.2841,0 -17.45131,2.29858 -21.87895,9.27412 -2.2936,3.58001 -3.73957,8.51125 -3.73458,14.55438 -0.005,15.65632 7.9927,38.791758 38.20838,38.796744"
         style="fill:#186dbf;fill-opacity:1;fill-rule:nonzero;stroke:none;stroke-width:0.648902"
         id="path416" />
      <path
         d="m 806.29225,-106.04475 c 1.70026,9.024817 2.38834,13.626975 2.29859,16.174865 -0.0848,1.94956 0.6781,4.083605 3.1512,4.337895 0.9324,0.09972 1.79001,0.179499 2.81216,0.339054 2.63764,0.513567 5.28026,-1.196661 4.75672,-3.390539 -0.51356,-2.488057 -0.93738,-4.602158 -1.77504,-8.85529 -0.6831,-3.575025 -1.37118,-7.324565 -2.04929,-10.979365 1.53073,2.72241 3.58001,5.78386 6.46197,7.57885 3.6548,2.378368 7.2398,2.797199 9.79268,2.802185 5.87361,0 11.57769,-2.552875 11.57769,-9.279105 -0.005,-1.86978 -0.34404,-4.08361 -1.1119,-8.41652 l -3.32073,-19.07178 c -0.33906,-2.21382 -0.59335,-4.67695 -0.76287,-6.29742 -0.16454,-2.46812 -2.71742,-4.34289 -5.78386,-4.3379 -2.55787,0 -4.77169,2.03432 -4.3379,4.09358 0.41385,1.52574 0.85262,3.73458 1.44098,7.0603 l 3.31575,19.32108 c 0.26426,1.44597 0.51356,3.13126 0.51855,4.41269 0.005,3.32572 -1.19666,5.77887 -5.44979,5.77887 -3.23099,0 -6.55671,-1.60552 -9.18437,-4.49745 -1.53572,-1.6105 -3.83929,-5.44979 -5.86863,-13.61201 -0.43379,-1.95954 -2.48307,-12.34057 -3.24594,-17.95989 -0.42382,-2.72739 -3.06146,-4.67196 -6.29244,-4.67695 -2.4731,0.005 -4.42765,1.94956 -3.82932,3.99386 0.67811,2.04429 1.436,5.69411 2.54789,11.66744 z"
         style="fill:#186dbf;fill-opacity:1;fill-rule:nonzero;stroke:none;stroke-width:0.648902"
         id="path420" />
      <path
         d="m 900.59311,-114.02648 c 0.84763,4.57224 1.1119,7.47913 1.01716,9.43866 -0.16953,2.03931 1.02714,4.1584 3.57004,4.50742 0.85262,0.09973 1.62048,0.174517 2.29859,0.254295 l -0.0698,-0.005 c 2.53792,0.518553 4.92127,-1.181695 4.76171,-3.230985 -0.0897,-0.50359 -0.34902,-1.52574 -0.60331,-2.71243 -0.24931,-1.19167 -0.6831,-2.56285 -0.93739,-3.92903 1.70524,3.07641 4.08859,6.72623 7.15005,8.76554 1.61549,1.032113 3.32572,1.789998 4.85645,2.303565 2.5429,0.772844 4.50742,-1.450945 3.81934,-3.575015 -0.83268,-2.30358 -3.72959,-3.72461 -6.54174,-4.41768 -3.58001,-0.94237 -8.26195,-4.68692 -10.56054,-13.02366 -1.28142,-4.50243 -3.23098,-15.74107 -3.6548,-21.37036 -0.26925,-2.45316 -2.63265,-4.42266 -5.61932,-4.32294 l -0.41883,-0.005 c -2.55287,0.005 -4.86143,1.87477 -4.2631,4.00383 0.4288,1.44098 0.85262,2.96174 1.02713,4.23319 z"
         style="fill:#186dbf;fill-opacity:1;fill-rule:nonzero;stroke:none;stroke-width:0.648902"
         id="path424" />
      <path
         d="m 945.77752,-141.27245 c 3.32073,0.005 5.96336,0.85761 8.00267,1.69527 1.61549,0.77284 3.49026,-0.41385 3.06644,-1.94956 -0.58836,-1.94956 -2.22379,-3.81934 -4.85146,-4.50244 -2.13405,-0.42381 -4.7667,-0.8576 -8.16721,-0.86758 -14.21533,0.43878 -17.71058,8.25696 -17.87512,18.90226 0,9.27911 4.51739,16.86294 7.31957,20.32827 5.87361,7.2398 13.8713,9.628137 19.74491,9.633123 8.59601,-0.005 12.93391,-4.427643 12.93889,-10.206523 0,-2.56284 -1.10691,-5.87859 -2.89691,-8.601 -2.12906,-3.16117 -5.70409,-5.54452 -8.50128,-7.00046 -5.70907,-2.78722 -11.41814,-3.0465 -18.04465,-3.30578 -0.0897,-0.24431 -0.25928,-1.52574 -0.26426,-3.24095 0.005,-4.15341 1.28142,-10.96441 9.52841,-10.88463 m -3.14123,33.36191 c -3.40052,-3.92904 -5.18055,-12.43032 -5.87361,-17.27181 5.28026,0.5036 10.97936,3.82433 15.39204,8.00267 2.2238,2.1141 3.83929,5.10575 3.83929,8.50128 0,3.82433 -2.2936,5.61433 -4.84647,5.61433 -1.52575,0.005 -4.77169,-0.58337 -8.43148,-4.84647 z"
         style="fill:#186dbf;fill-opacity:1;fill-rule:nonzero;stroke:none;stroke-width:0.648902"
         id="path428" />
      <path
         d="m 973.18854,-115.40114 c 0.59334,3.48527 1.28142,7.83314 1.28142,11.06911 v 0.5036 c -0.0798,1.95454 0.85263,4.093574 3.32074,4.352851 1.01217,0.06981 1.87477,0.249304 2.81215,0.408859 2.37836,0.349026 4.75174,-1.36619 4.51241,-3.31575 -0.18449,-1.02713 -0.6083,-3.13126 -1.03212,-5.28525 1.03711,1.9695 2.20884,4.01879 3.82931,5.37999 3.41049,2.627665 7.7434,4.25313 12.42535,4.25313 5.026,-0.005 11.8419,-1.874769 11.837,-8.86526 0,-1.51577 -0.2593,-3.39553 -1.0222,-7.39437 -0.6831,-3.83929 -1.4559,-8.08743 -2.1291,-11.92672 -0.688,-3.63486 -1.8747,-10.5356 -2.124,-14.87848 -0.1745,-2.46811 -2.7324,-4.24815 -5.6193,-4.24815 h -0.7729 c -2.47309,-0.0947 -4.5124,1.78004 -3.99883,3.74455 0.75788,2.63266 1.70524,6.80103 3.14622,15.14275 l 1.02711,5.68912 c 0.7629,4.18333 1.2715,7.50407 1.2715,9.96719 0,4.26311 -1.446,6.03317 -5.95341,6.03317 -3.57503,0.005 -7.83315,-2.6177 -10.30624,-5.85866 -2.87698,-3.74455 -3.89912,-9.78768 -4.66698,-14.46463 l -1.53572,-9.95722 c -0.4288,-2.6526 -0.59334,-4.59218 -0.68808,-6.21765 -0.16454,-2.38833 -2.7922,-4.00382 -5.60934,-4.00382 h -0.67811 c -2.46313,-0.0798 -4.60216,1.79499 -4.17336,3.66975 0.93739,3.05648 1.53073,6.29743 2.13405,10.21151 z"
         style="fill:#186dbf;fill-opacity:1;fill-rule:nonzero;stroke:none;stroke-width:0.648902"
         id="path432" />
      <path
         d="m 1038.2221,-98.203629 c 1.1917,0.005 2.2936,0 3.1412,0.08476 2.0493,0.169527 3.6598,-1.356215 3.3258,-2.981681 -0.4388,-1.79499 -2.5579,-2.89691 -4.9413,-2.89691 -1.6952,0.0848 -3.9041,0.0848 -5.1057,0.0898 -0.4288,-2.21382 -1.0172,-5.44979 -1.7003,-8.601 -0.8526,-4.24316 -1.785,-9.27412 -2.3833,-12.25082 -0.9274,-4.41767 -1.6255,-8.26194 -1.6205,-10.73005 -0.01,-3.31575 1.7102,-4.67695 4.0886,-4.68194 0.7629,0 1.446,0.10471 2.1241,0.26426 1.7999,0.25429 3.4105,-1.0371 3.0714,-2.38833 -0.5136,-2.03931 -2.3833,-3.90411 -5.021,-4.24815 -0.5983,-0.0897 -1.446,-0.0848 -2.134,-0.0798 -5.2753,-0.005 -8.7606,1.59555 -10.042,3.30079 -1.1817,1.7202 -1.785,3.25093 -1.785,5.11573 0,1.62048 0.334,3.4753 0.7678,5.88358 l 5.5346,28.41571 h 0.6831 l -0.6033,0.0798 c -1.8698,0.005 -3.3208,1.36618 -3.0615,2.81215 0.2543,1.710223 1.9545,3.071425 4.1684,2.817134 l -0.08,-0.005 c 0.4288,2.298586 0.6781,4.083605 0.8476,5.953387 0.2593,2.732376 2.5529,5.030962 5.7889,5.793833 2.4681,0.498609 5.016,-1.027134 4.5074,-3.066443 -0.7629,-2.72739 -1.2814,-5.025976 -1.9545,-8.775513 0.7628,0 1.5357,0.09474 2.3833,0.09474"
         style="fill:#186dbf;fill-opacity:1;fill-rule:nonzero;stroke:none;stroke-width:0.648902"
         id="path436" />
      <path
         d="m 1064.7785,-141.26846 c 3.3207,-0.005 5.9484,0.85262 7.9927,1.69028 1.6155,0.76287 3.4853,-0.41384 3.0714,-1.93958 -0.6033,-1.95954 -2.2188,-3.82932 -4.8514,-4.52238 -2.1391,-0.41385 -4.7717,-0.85263 -8.1772,-0.84764 -14.2104,0.43379 -17.7006,8.24699 -17.8702,18.89228 0,9.2841 4.5125,16.86295 7.3196,20.32828 5.8736,7.2398 13.8663,9.628131 19.7449,9.633117 8.5861,-0.005 12.9439,-4.427647 12.9439,-10.206517 0,-2.56285 -1.1069,-5.8786 -2.9069,-8.601 -2.1191,-3.16617 -5.6891,-5.53954 -8.5062,-6.99548 -5.7041,-2.78722 -11.4032,-3.05149 -18.0397,-3.31076 -0.09,-0.24931 -0.2593,-1.52575 -0.2593,-3.23597 0,-4.1584 1.2765,-10.96441 9.5384,-10.88463 m -3.1562,33.35692 c -3.4105,-3.92405 -5.1855,-12.42533 -5.8686,-17.2718 5.2753,0.50359 10.9694,3.82432 15.407,7.99768 2.2088,2.11909 3.8243,5.11074 3.8243,8.50626 0,3.81934 -2.2986,5.61932 -4.8514,5.61434 -1.5308,0 -4.7667,-0.58836 -8.4215,-4.85147 z"
         style="fill:#186dbf;fill-opacity:1;fill-rule:nonzero;stroke:none;stroke-width:0.648902"
         id="path440" />
      <path
         d="m 888.64296,-115.50136 c -0.16953,10.36109 -3.65979,17.994787 -17.86515,18.42359 -3.4055,0.01 -6.04812,-0.43379 -8.17219,-0.82769 -2.64263,-0.668136 -4.26311,-2.49803 -4.85147,-4.39274 -0.4288,-1.49084 1.44597,-2.66756 3.06645,-1.91965 2.03931,0.83767 4.68193,1.66037 7.99768,1.66037 8.24699,0.0947 9.52343,-6.56169 9.52841,-10.63034 -0.005,-1.65538 -0.1795,-2.89193 -0.25928,-3.15619 -6.63149,-0.24432 -12.27574,-0.61329 -18.03966,-3.22101 -4.53235,-2.08917 -6.7013,-4.10355 -9.25417,-6.85587 -2.53294,-2.71742 -3.12129,-6.25255 -2.94678,-9.31401 0.0698,-1.38115 0.42382,-2.63764 1.05705,-3.72461 l -0.0548,-0.0249 c 2.30856,-4.75672 7.0254,-7.05531 11.78213,-7.0603 7.21985,0 12.08627,6.96557 15.83082,12.20594 l 0.25429,0.40388 c 0,-0.49861 -0.005,-0.0648 -0.25429,-1.48586 -0.34903,-2.15399 -0.76786,-4.80658 -0.94237,-6.64146 -0.16454,-1.98945 2.05427,-3.6548 4.59717,-3.57004 2.46811,0.0947 4.84149,1.49084 4.84648,3.48527 0,2.56784 0.51357,7.63869 1.87975,15.02308 l 1.52575,8.23203 0.0149,0.71301 c 0.14959,0.82769 0.25928,1.7202 0.25928,2.67753 m -26.21186,-10.55056 c 4.41768,4.06366 10.13173,7.29963 15.40701,7.80821 -0.68309,-4.74177 -2.4731,-13.02864 -5.8786,-16.83801 h -0.0848 c -3.6548,-4.17834 -6.88578,-4.75174 -8.42649,-4.75673 -2.55287,0.005 -4.84647,1.7551 -4.84149,5.48968 -0.005,3.31575 1.61051,6.22264 3.82433,8.29685"
         style="fill:#186dbf;fill-opacity:1;fill-rule:nonzero;stroke:none;stroke-width:0.648902"
         id="path472" />
    </g>
    <g
       id="g1177"
       transform="matrix(1.5410656,0,0,1.5410656,-401.41295,-65.17903)"
       style="stroke-width:0.648902">
      <path
         d="m 771.56316,-177.00374 c 1.28641,-7.55392 2.72739,-15.47681 3.99884,-23.05068 1.27644,2.30357 2.63764,4.5174 3.75452,6.48191 l 0.3241,0.58836 11.66246,19.91443 c 1.79997,2.88695 3.8343,6.80601 5.28525,9.78769 1.35621,2.63265 4.50742,4.07363 8.08245,3.99386 h 4.34288 c 2.46312,0.0848 4.24814,-1.96951 3.6548,-3.82433 -0.9324,-2.80717 -1.96452,-7.47913 -3.39054,-14.81367 -4.08859,-21.61967 -5.54453,-30.29047 -5.96835,-34.80787 l -0.0848,-1.02214 v -0.76288 c -0.0848,-2.47309 -2.4731,-4.34288 -5.44979,-4.24814 l -2.21383,-0.005 c -2.55287,-0.0848 -4.07861,2.11909 -3.49026,4.08859 0.52354,1.61051 1.19666,4.5872 2.13405,9.53839 l 6.72124,34.62837 c -6.29742,-10.64031 -12.51009,-21.6097 -18.80253,-32.24004 -1.18669,-2.13404 -2.04928,-3.5102 -2.56783,-4.43263 -1.18669,-2.05925 -1.18669,-2.22878 -2.71243,-5.20547 -0.76288,-1.69527 -2.80717,-2.62268 -5.10576,-2.6177 -1.95454,-0.005 -3.57502,1.18669 -3.74953,2.62268 -0.24931,1.87477 -0.58836,4.07862 -1.44098,9.5334 -1.52575,7.81818 -3.07143,16.33941 -4.59219,24.16258 -0.17451,1.11688 -0.34902,2.13404 -0.51357,2.97669 -0.51356,2.72739 -0.60331,3.06644 -0.60331,3.06644 0,0.17452 0,0.42881 -0.0798,0.94237 -2.12906,-10.62535 -4.33291,-21.18588 -6.38219,-31.83117 -0.84764,-4.67695 -1.45095,-8.52122 -1.70524,-10.88962 -0.25928,-2.63265 -3.14622,-4.42764 -6.29244,-4.42764 l -0.84764,0.005 c -2.38833,-0.0997 -4.17335,2.0393 -3.49026,3.98388 1.01716,2.9019 2.12407,6.82096 3.49525,11.93669 1.52574,5.69411 4.15341,16.75325 4.50243,18.46846 2.4731,11.56773 3.23099,17.60588 3.31575,21.10112 0,2.37338 2.38335,4.15341 5.2703,4.07364 0.68808,-0.0897 1.45095,-0.0848 2.21382,-0.0848 0.94237,-0.005 1.70524,0 2.4731,0.0848 3.23597,0.0748 6.04313,-1.79001 6.39216,-4.5872 0.33407,-3.83929 1.01716,-8.00267 1.85981,-13.12837"
         style="fill:#186dbf;fill-opacity:1;fill-rule:nonzero;stroke:none;stroke-width:0.648902"
         id="path444" />
      <path
         d="m 867.83701,-187.38128 c 0.84763,4.60216 1.10193,7.51403 1.01716,9.45861 -0.17451,2.03931 1.01716,4.17335 3.57503,4.50742 0.84763,0.0848 1.62546,0.17451 2.29858,0.25928 h -0.0848 c 2.54789,0.50359 4.93124,-1.20165 4.7667,-3.24096 -0.0798,-0.50858 -0.33407,-1.53073 -0.59833,-2.71243 -0.25429,-1.20165 -0.67811,-2.56285 -0.9324,-3.91907 1.69527,3.07143 4.07862,6.72623 7.14007,8.77053 1.6155,1.01716 3.32572,1.78003 4.85645,2.2936 2.55288,0.76786 4.50743,-1.45095 3.82433,-3.585 -0.84763,-2.28861 -3.73956,-3.73458 -6.54673,-4.4077 -3.58001,-0.95234 -8.25696,-4.68692 -10.55555,-13.02864 -1.27643,-4.50742 -3.23098,-15.74606 -3.64483,-21.35541 -0.26924,-2.46811 -2.65758,-4.42266 -5.6243,-4.33291 l -0.43379,-0.005 c -2.54789,-0.005 -4.84648,1.86979 -4.24316,3.99386 0.42382,1.45095 0.84265,2.97669 1.01218,4.24815 z"
         style="fill:#186dbf;fill-opacity:1;fill-rule:nonzero;stroke:none;stroke-width:0.648902"
         id="path448" />
      <path
         d="m 905.35831,-198.17417 c -1.53073,-8.52122 -2.20884,-13.53224 -2.46313,-16.51392 -0.16454,-2.37338 -2.79221,-3.99884 -5.60934,-3.98887 l -0.67811,-0.005 c -2.46811,-0.0947 -4.26809,2.19886 -3.84427,4.25313 l 0.0897,0.4288 c 0.43878,1.79499 1.02714,4.24316 1.62048,7.73342 l 1.53572,8.34172 c 2.03931,11.30845 2.80716,16.94273 2.7224,19.9992 -0.0798,1.95953 0.68309,4.34288 3.32073,4.50742 1.18171,0.1795 2.12906,0.34903 3.05149,0.52354 2.55786,0.59833 4.69689,-1.46092 4.26809,-3.58998 -0.0947,-0.41385 -0.1795,-0.84265 -0.2493,-1.35622 -0.34903,-1.53073 -0.77783,-3.58001 -1.28641,-6.45199 z m 6.90573,37.62501 c 0,-2.73736 -2.29859,-7.07526 -6.71626,-7.07027 -2.47808,-0.01 -5.03096,1.35123 -5.03096,4.41767 0.005,2.54789 2.12906,6.80102 6.81598,6.80102 2.63764,0.005 4.92625,-1.3612 4.93124,-4.14842"
         style="fill:#186dbf;fill-opacity:1;fill-rule:nonzero;stroke:none;stroke-width:0.648902"
         id="path452" />
      <path
         d="m 934.22526,-171.54148 c 1.18669,-0.005 2.28861,-0.005 3.14123,0.0898 2.0443,0.16454 3.65979,-1.35622 3.33071,-2.97669 -0.43878,-1.80497 -2.56285,-2.89692 -4.94121,-2.89692 -1.70524,0.0848 -3.92405,0.0848 -5.10575,0.0848 -0.42881,-2.20385 -1.01717,-5.44979 -1.69527,-8.58604 -0.85761,-4.2631 -1.79499,-9.28409 -2.4033,-12.26079 -0.92741,-4.42265 -1.60552,-8.24698 -1.60552,-10.72507 0,-3.32572 1.70524,-4.6919 4.08859,-4.6919 0.76288,0.005 1.44098,0.0997 2.11909,0.27423 1.78502,0.25928 3.40051,-1.03711 3.07143,-2.38834 -0.52354,-2.0393 -2.39332,-3.91407 -5.016,-4.25811 -0.60332,-0.0947 -1.4709,-0.0898 -2.14402,-0.0947 -5.26531,0.005 -8.75058,1.61549 -10.03201,3.32073 -1.18669,1.70525 -1.79997,3.24096 -1.79997,5.11074 0,1.61051 0.35401,3.49026 0.77783,5.8786 l 5.52458,28.42069 0.68309,0.005 -0.59833,0.0898 c -1.86978,0 -3.30577,1.35621 -3.05647,2.78223 0.24931,1.71023 1.95455,3.07642 4.16338,2.81714 h -0.0848 c 0.42382,2.31355 0.68309,4.10355 0.86259,5.97832 0.24432,2.71742 2.54291,5.016 5.77389,5.7689 2.46811,0.51357 5.02099,-1.01716 4.51241,-3.04649 -0.75788,-2.72241 -1.28142,-5.03595 -1.95953,-8.78549 0.78281,0 1.5407,0.0798 2.39332,0.0897"
         style="fill:#186dbf;fill-opacity:1;fill-rule:nonzero;stroke:none;stroke-width:0.648902"
         id="path456" />
      <path
         d="m 953.11256,-198.17217 c -1.52574,-8.51624 -2.21382,-13.53224 -2.45814,-16.50893 -0.1795,-2.37837 -2.80717,-4.00383 -5.61932,-3.99884 h -0.68309 c -2.46812,-0.0898 -4.25314,2.19886 -3.82932,4.24316 l 0.0848,0.43379 c 0.42382,1.79997 1.01717,4.24814 1.62048,7.7384 l 1.53073,8.33674 c 2.03931,11.31343 2.80218,16.94771 2.7224,20.00418 -0.0798,1.95454 0.68808,4.33789 3.32074,4.50742 1.19167,0.1795 2.12906,0.35401 3.05647,0.51855 2.55786,0.59833 4.68193,-1.46092 4.25313,-3.58499 -0.0798,-0.41385 -0.15955,-0.84764 -0.24432,-1.3612 -0.33905,-1.52575 -0.76287,-3.57503 -1.27643,-6.45699 z m 6.90074,37.62002 c 0,-2.73736 -2.2936,-7.07525 -6.72623,-7.07027 -2.46811,-0.005 -5.02099,1.3612 -5.02099,4.41269 0.005,2.55786 2.12408,6.80601 6.80103,6.80601 2.65758,0.005 4.94619,-1.35622 4.94619,-4.14843"
         style="fill:#186dbf;fill-opacity:1;fill-rule:nonzero;stroke:none;stroke-width:0.648902"
         id="path460" />
      <path
         d="m 1015.9248,-171.37495 c 3.0664,0 9.8625,-1.10691 9.8625,-8.68576 0,-2.03433 -0.3241,-3.99386 -0.9274,-7.05532 -0.8477,-4.68193 -1.7801,-9.85749 -2.6377,-14.55937 -1.0969,-5.94341 -1.5307,-9.86746 -1.7002,-12.41037 -0.1795,-2.64761 -2.8122,-4.59218 -5.7889,-4.59717 l -0.6881,0.005 c -2.6276,-0.0897 -4.3329,2.02435 -3.8293,4.0836 0.5186,1.62547 1.1169,4.42765 1.7152,7.57387 0.8377,4.8365 1.7851,10.2115 2.6277,15.04801 0.5136,2.98666 1.0271,6.21266 1.0271,8.01264 0,4.5872 -0.9373,5.60934 -2.6276,5.61433 -3.6798,0 -8.95,-2.89193 -12.2758,-11.74223 -2.37334,-6.97554 -4.08357,-19.40087 -4.5024,-24.24734 -0.25928,-2.48307 -2.88196,-4.26809 -5.78885,-4.26311 -2.62767,0 -4.84648,2.05427 -4.41767,4.08361 0.67312,2.54789 1.43599,6.29244 2.63764,12.83917 l 1.01716,5.96835 c 0.94237,5.43483 1.53073,9.53339 1.53571,11.74722 0,4.08859 -0.16952,5.70408 -2.98168,5.69909 -4.5124,0.005 -9.01484,-4.07861 -11.66245,-11.16384 -1.94458,-5.68414 -4.07862,-19.30613 -4.60216,-24.84069 -0.15956,-2.46312 -2.79719,-4.33291 -5.6991,-4.32792 l -0.66813,-0.005 c -2.38834,-0.0798 -4.25313,1.94458 -3.82932,3.91408 0.51357,1.87477 0.92741,4.17336 1.60054,7.73841 1.20164,6.80601 2.64761,14.54441 3.76449,21.36039 0.67811,3.58999 0.85262,5.97333 0.76287,7.58384 -0.0848,2.1141 0.76786,4.25313 3.30578,4.67196 l 1.53571,0.16953 1.02714,0.17451 c 2.37337,0.42881 5.27029,-0.94237 4.85146,-3.15619 -0.25928,-0.9324 -0.59833,-2.79719 -1.02215,-4.8365 l -0.0997,-0.25928 c 1.2914,2.12407 2.82212,4.42266 4.4426,6.04314 0.84764,0.93738 4.34288,3.82433 9.18936,3.81934 7.90793,0.005 9.44365,-7.31958 9.86245,-11.73725 1.5357,2.54291 3.7495,5.87361 5.7988,7.92289 0.9324,0.9324 4.3329,3.81436 9.1844,3.81436"
         style="fill:#186dbf;fill-opacity:1;fill-rule:nonzero;stroke:none;stroke-width:0.648902"
         id="path464" />
      <path
         d="m 1051.8465,-214.59983 c 3.3157,0.005 5.9534,0.84763 8.0027,1.70026 1.6105,0.76287 3.4902,-0.42382 3.0664,-1.95954 -0.6033,-1.95454 -2.2138,-3.82432 -4.8564,-4.50742 -2.1241,-0.4288 -4.7568,-0.83766 -8.1672,-0.84265 -14.2154,0.41385 -17.7106,8.242 -17.8702,18.8873 0,9.27911 4.5074,16.85796 7.3096,20.34323 5.8886,7.22983 13.8763,9.60819 19.7399,9.60819 8.616,0.005 12.9639,-4.41767 12.9589,-10.2115 0.01,-2.55787 -1.1269,-5.87361 -2.9019,-8.58605 -2.1291,-3.16117 -5.7141,-5.53455 -8.5163,-7.00046 -5.6991,-2.78722 -11.4081,-3.03653 -18.0346,-3.31575 -0.095,-0.25928 -0.2693,-1.53073 -0.2643,-3.23098 -0.01,-4.16339 1.2764,-10.96939 9.5334,-10.88463 m -3.1412,33.36191 c -3.4055,-3.91907 -5.1955,-12.43032 -5.8786,-17.27679 5.2852,0.4986 10.9793,3.82432 15.407,7.99768 2.2088,2.10911 3.8293,5.10575 3.8293,8.51623 0,3.8343 -2.3036,5.60935 -4.8515,5.60935 -1.5407,-0.005 -4.7667,-0.6083 -8.4215,-4.84647 z"
         style="fill:#186dbf;fill-opacity:1;fill-rule:nonzero;stroke:none;stroke-width:0.648902"
         id="path468" />
      <path
         d="m 856.66469,-188.64825 c -0.16953,10.37605 -3.66477,18.00974 -17.88011,18.42858 -3.40549,0.005 -6.03316,-0.41884 -8.17219,-0.83268 -2.63764,-0.67811 -4.24815,-2.49803 -4.84648,-4.39773 -0.42382,-1.50081 1.45594,-2.65758 3.06644,-1.92463 2.04929,0.83268 4.68194,1.68031 8.00267,1.67533 8.26195,0.0897 9.53839,-6.57167 9.54337,-10.65028 -0.005,-1.63544 -0.18448,-2.88695 -0.27423,-3.13625 -6.6315,-0.24931 -12.28572,-0.60831 -18.03468,-3.24096 -4.53235,-2.05925 -6.71127,-4.09856 -9.25916,-6.84091 -2.53293,-2.71243 -3.13126,-6.25255 -2.96173,-9.31401 0.0848,-1.38613 0.44376,-2.62767 1.06203,-3.73458 l -0.0449,-0.01 c 2.32351,-4.75673 7.02539,-7.07027 11.78212,-7.07027 7.23481,0 12.09625,6.98052 15.82584,12.21092 l 0.25927,0.41385 c 0,-0.49362 0,-0.0947 -0.25927,-1.49583 -0.33906,-2.16396 -0.76287,-4.81157 -0.93739,-6.64645 -0.15955,-1.98446 2.03931,-3.6548 4.60216,-3.57502 2.46313,0.1047 4.85645,1.49582 4.85645,3.50023 0,2.56783 0.5036,7.62871 1.85482,15.01311 l 1.54569,8.23701 0.015,0.71301 c 0.14958,0.82271 0.25429,1.70524 0.25429,2.67753 m -26.21186,-10.54557 c 4.42266,4.06366 10.12176,7.29464 15.40202,7.79824 -0.68309,-4.72681 -2.46811,-13.03862 -5.87361,-16.843 l -0.0848,0.005 c -3.65979,-4.17335 -6.89576,-4.73678 -8.4215,-4.73179 -2.55786,-0.005 -4.85645,1.72518 -4.85645,5.46973 0,3.31575 1.62048,6.22264 3.8343,8.30184"
         style="fill:#186dbf;fill-opacity:1;fill-rule:nonzero;stroke:none;stroke-width:0.648902"
         id="path476" />
    </g>
    <g
       id="g1157"
       transform="matrix(1.5410656,0,0,1.5410656,-401.41295,-65.17903)"
       style="stroke-width:0.648902">
      <path
         d="m 771.2964,-69.856231 c -8.84532,0.08476 -9.70292,5.778874 -9.45362,10.136714 0.0898,1.785019 0.4288,3.744551 0.68309,5.255335 0.16953,0.947357 0.25429,1.799978 0.25429,2.129059 0.16953,1.027134 0.33906,1.7202 0.43379,2.303572 0.32909,1.94956 0.59335,3.245943 3.23099,18.388688 1.6105,9.279107 2.38335,14.89344 2.29858,17.700607 -0.0848,1.959532 0.92742,4.2431598 3.40051,4.5024363 0.93739,0.094736 1.70525,0.2592765 2.72739,0.513567 2.37338,0.5933443 4.76172,-1.2764383 4.59219,-3.3955253 -0.41883,-2.139031 -0.93738,-4.686921 -1.61051,-8.346709 -0.34902,-1.775047 -0.77284,-3.8343 -1.19666,-6.222636 -1.28142,-7.563893 -2.64262,-15.407007 -3.91407,-22.970901 -0.16953,-1.106911 -0.33906,-2.54789 -0.59335,-3.734579 -0.50858,-3.156192 -1.1119,-6.302413 -0.43379,-8.266931 0,0 0.59833,-2.378363 2.46313,-2.458141 1.5407,0.005 2.21881,0.169527 3.41547,0.583372 l 0.84763,0.259277 c 1.78004,0.59833 3.226,-0.91744 2.64761,-2.463127 -0.77284,-1.969504 -2.98168,-3.32572 -5.53954,-3.659788 -1.28142,-0.169527 -2.80716,-0.25429 -4.25313,-0.25429"
         style="fill:#186dbf;fill-opacity:1;fill-rule:nonzero;stroke:none;stroke-width:0.648902"
         id="path412" />
      <path
         d="m 827.12562,-39.326921 c -0.15955,10.386018 -3.64982,18.004759 -17.86515,18.428576 -3.41048,-0.01 -6.03316,-0.418831 -8.17718,-0.832676 -2.63265,-0.668136 -4.25313,-2.483072 -4.84149,-4.407701 -0.42382,-1.495826 1.45095,-2.652598 3.05647,-1.894713 2.04928,0.832677 4.68692,1.655381 8.00267,1.665353 8.26195,0.07479 9.5334,-6.56169 9.52841,-10.630337 0.005,-1.665352 -0.16454,-2.921846 -0.2493,-3.161178 -6.64147,-0.239333 -12.28572,-0.598331 -18.03966,-3.225998 -4.53236,-2.074213 -6.71626,-4.10355 -9.26415,-6.860856 -2.52795,-2.717417 -3.13127,-6.257538 -2.95675,-9.294065 0.0848,-1.386132 0.43877,-2.647612 1.05206,-3.744551 l -0.0349,-0.01496 c 2.31354,-4.756727 7.02041,-7.055313 11.77714,-7.060299 7.22982,0 12.08627,6.960577 15.83581,12.20594 l 0.25429,0.408859 c 0,-0.498609 0,-0.08975 -0.25429,-1.49084 -0.33906,-2.158975 -0.76287,-4.826532 -0.93739,-6.651439 -0.1795,-1.984463 2.03931,-3.664774 4.59717,-3.560066 2.46812,0.07479 4.85147,1.49084 4.85147,3.475302 0,2.577807 0.50858,7.643671 1.86479,15.033051 l 1.53572,8.222057 0.01,0.727969 c 0.15955,0.812732 0.25429,1.705241 0.25429,2.66257 m -26.21186,-10.545573 c 4.42765,4.06366 10.12674,7.299631 15.412,7.803225 -0.67811,-4.716838 -2.4731,-13.03363 -5.8786,-16.847986 l -0.0798,-0.005 c -3.65978,-4.138452 -6.90074,-4.72681 -8.42648,-4.72681 -2.55288,0 -4.85645,1.755102 -4.85645,5.484695 0.005,3.310761 1.62546,6.237594 3.82931,8.291862"
         style="fill:#186dbf;fill-opacity:1;fill-rule:nonzero;stroke:none;stroke-width:0.648902"
         id="path480" />
    </g>
    <g
       id="g1153"
       transform="matrix(1.5410656,0,0,1.5410656,-401.41295,-65.17903)"
       style="stroke-width:0.648902">
      <path
         d="m 852.36818,-71.108736 c 0,91.604383 74.26776,165.872143 165.86712,165.872143 22.6568,-0.005 44.2316,-4.557283 63.9017,-12.764382 -21.8091,10.545573 -46.2908,16.47403 -72.1586,16.47403 -91.59443,0 -165.84724,-74.252801 -165.84225,-165.857184 -0.005,-1.266466 0.01,-2.532932 0.0449,-3.78444 l 8.20211,-0.005 z"
         style="fill:#fcd405;fill-opacity:1;fill-rule:nonzero;stroke:none;stroke-width:0.648902"
         id="path484" />
      <path
         d="m 969.38964,117.82655 c -5.63428,-66.494451 11.03421,-69.800226 11.03421,-69.800226 -16.42417,-33.092657 9.62813,-68.124902 9.62813,-68.124902 0,0 -41.9978,-25.523777 -60.86017,-15.46684 l -0.61329,-0.109694 c 0,0 66.13047,-21.509978 96.46088,-4.053688 40.846,23.524356 62.9294,9.204315 62.9294,9.204315 -4.4227,6.621523 -13.0586,9.373843 -13.0586,9.373843 -9.0099,15.6263956 -42.287,9.563314 -42.287,9.563314 -9.1794,10.83975257 -7.7185,33.087671 -7.165,39.704208 0.5534,6.606565 0,12.500119 0,12.500119 -7.17,38.412811 -50.72846,76.471611 -52.93231,77.758021 l -2.76728,2.08917 z"
         style="fill:#69c52f;fill-opacity:1;fill-rule:nonzero;stroke:none;stroke-width:0.648902"
         id="path488" />
      <path
         d="m 911.29525,95.39664 c -5.63428,-66.489465 11.03421,-69.790254 11.03421,-69.790254 -16.42417,-33.097643 11.97658,-71.236219 11.97658,-71.236219 0,0 -33.42672,-13.861321 -63.20862,-12.345551 l -0.6083,-0.134624 c 0,0 66.11551,-21.514964 96.45086,-4.03873 40.85602,23.524356 62.92942,9.184371 62.92942,9.184371 -4.4127,6.626509 -13.0486,9.378829 -13.0486,9.378829 -9.0149,15.636368 -42.28203,9.563314 -42.28203,9.563314 -9.18437,10.849725 -7.72843,33.08767089 -7.17498,39.7091939 0.55845,6.6165371 -0.005,12.5051051 -0.005,12.5051051 -7.16002,38.417797 -50.73343,76.466624 -52.92233,77.753035 l -2.89193,2.338474 z"
         style="fill:#186dbf;fill-opacity:1;fill-rule:nonzero;stroke:none;stroke-width:0.648902"
         id="path492" />
    </g>
  </g>
</svg>
