<?xml version="1.0" encoding="UTF-8" standalone="no"?>
<svg
   xmlns:dc="http://purl.org/dc/elements/1.1/"
   xmlns:cc="http://creativecommons.org/ns#"
   xmlns:rdf="http://www.w3.org/1999/02/22-rdf-syntax-ns#"
   xmlns:svg="http://www.w3.org/2000/svg"
   xmlns="http://www.w3.org/2000/svg"
   viewBox="0 0 800.00001 327.21"
   height="327.20999"
   width="800"
   xml:space="preserve"
   version="1.1"
   id="svg2"><metadata
     id="metadata8"><rdf:RDF><cc:Work
         rdf:about=""><dc:format>image/svg+xml</dc:format><dc:type
           rdf:resource="http://purl.org/dc/dcmitype/StillImage" /><dc:title></dc:title></cc:Work></rdf:RDF></metadata><defs
     id="defs6" /><g
     transform="matrix(1.25,0,0,-1.25,-100.3495,1536.8963)"
     id="g10"><g
       transform="matrix(2.8580909,0,0,2.8580909,-182.55215,-1833.9863)"
       id="g4416"><g
         id="g4400"><path
           d="m 91.9746,1071.8701 -0.014,0 0,-13.401 0.014,0 c 17.892,0 32.395,-14.501 32.395,-32.394 0,-17.888 -14.503,-32.391 -32.395,-32.391 l -0.014,0 0,-13.402 0.014,0 c 25.29,0 45.797,20.501 45.797,45.793 0,25.293 -20.507,45.795 -45.797,45.795"
           style="fill:#496587;fill-opacity:1;fill-rule:nonzero;stroke:none"
           id="path22" /><path
           d="m 111.0303,1026.0747 c 0,10.524 -8.531,19.056 -19.056,19.056 l -0.013,0 0,-11.435 0.013,0 c 4.211,0 7.62,-3.412 7.62,-7.624 0,-4.208 -3.409,-7.62 -7.62,-7.62 l -0.013,0 0,-11.432 0.013,0 c 10.525,0 19.056,8.531 19.056,19.052"
           style="fill:#8fd35d;fill-opacity:1;fill-rule:nonzero;stroke:none"
           id="path26" /></g><path
         id="path30"
         style="fill:#8fd35d;fill-opacity:1;fill-rule:nonzero;stroke:none"
         d="m 165.4868,1019.1597 c -4.22,0 -7.647,3.427 -7.647,7.646 0,4.221 3.427,7.647 7.647,7.647 4.22,0 7.646,-3.426 7.646,-7.647 0,-4.219 -3.426,-7.646 -7.646,-7.646 m 0,26.754 c -10.55,0 -19.099,-8.557 -19.099,-19.108 0,-10.55 8.549,-19.107 19.099,-19.107 10.559,0 19.107,8.557 19.107,19.107 0,10.551 -8.548,19.108 -19.107,19.108" /><g
         id="g4404"><path
           id="path4389"
           transform="matrix(0.8,0,0,-0.8,80.2796,1083.91)"
           d="m 141.48438,47.134766 0,2.027343 0,21.980469 0.0137,0 c 0.0985,13.137844 10.76839,23.748047 23.92773,23.748047 3.25875,0 6.35727,-0.653672 9.19727,-1.826172 8.52068,-3.634758 14.511,-12.06772 14.52929,-21.921875 0,-6.55e-4 0,-0.0013 0,-0.002 l 0,-0.04297 0,-21.935547 0,-2.027343 -14.14648,0 0,2.173828 c -0.015,-0.0125 -0.028,-0.01523 -0.043,-0.02148 l 0,21.732422 0.01,0.07813 c 0,5.27375 -4.28313,9.546875 -9.54688,9.546875 -0.17875,0 -0.37273,7.81e-4 -0.55273,-0.01172 -5.07125,-0.224999 -8.92836,-4.408359 -9.13086,-9.537109 0,-0.04172 -0.0588,-0.663005 -0.10938,-1.15625 l 0,-0.01953 c -0.0188,-0.17125 -0.0363,-0.326094 -0.0488,-0.433594 l 0,-20.324219 c 0,0 0.002,0 0.002,0 l 0,20.324219 c 0.0113,0.1075 0.0269,0.261094 0.0469,0.433594 l 0,-22.785156 -14.14843,0 z"
           style="fill:#877974;fill-opacity:1;fill-rule:nonzero;stroke:none" /><path
           d="m 193.4766,1027.2842 0,1.1 c 0.505,7.286 5.104,13.444 11.271,16.196 l 0,-16.259 c 0.009,-0.086 0.022,-0.209 0.038,-0.347 l 0,18.228 -11.318,0 0,-1.622 0,-17.585 0.01,0 c 0,0.049 -0.001,0.096 -0.001,0.144 l 0,0.145 z"
           style="fill:#496587;fill-opacity:1;fill-rule:nonzero;stroke:none"
           id="path34" /><path
           d="m 220.2847,1044.4639 c 6.673,-2.984 11.317,-9.664 11.317,-17.432 l 0,17.548 0,1.623 -11.317,0 0,-1.739 z"
           style="fill:#496587;fill-opacity:1;fill-rule:nonzero;stroke:none"
           id="path38" /><path
           d="m 204.7852,1027.9746 c -0.015,0.137 -0.028,0.261 -0.038,0.347 l 0,16.258 c -6.166,-2.751 -10.766,-8.909 -11.271,-16.195 l 0,-1.1 0,-0.145 c 0,-0.048 0.001,-0.095 0.002,-0.144 l 11.307,0 0,0.979 z"
           style="fill:#394755;fill-opacity:1;fill-rule:nonzero;stroke:none"
           id="path46" /><path
           d="m 220.2847,1044.4639 0,-17.468 11.317,0 0,0.036 c 0,7.768 -4.644,14.448 -11.317,17.432"
           style="fill:#394755;fill-opacity:1;fill-rule:nonzero;stroke:none"
           id="path50" /></g><g
         id="g4411"><path
           transform="matrix(0.8,0,0,-0.8,80.2796,1083.91)"
           id="path4382"
           d="m 203.81836,49.990248 0,21.806627 0,0.06836 c 0,13.18875 10.68555,23.882813 23.87305,23.882813 13.19875,0 23.88476,-10.694063 23.88476,-23.882813 0,-13.18875 -10.68601,-23.886718 -23.88476,-23.886718 -3.41625,0 -6.66602,0.717982 -9.60352,2.011732 z m 23.87305,12.31444 c 5.28625,0 9.55664,4.285546 9.55664,9.560546 0,5.275 -4.27039,9.558594 -9.55664,9.558594 -5.2625,0 -9.54688,-4.283594 -9.54688,-9.558594 0,-5.275 4.28438,-9.560546 9.54688,-9.560546 z"
           style="fill:#496587;fill-opacity:1;fill-rule:nonzero;stroke:none" /><path
           d="m 254.75,1043.917 0,18.995 -11.416,0 0,-17.385 0,-19.055 c 0.021,7.795 4.709,14.493 11.416,17.445"
           style="fill:#8fd35d;fill-opacity:1;fill-rule:nonzero;stroke:none"
           id="path58" /><path
           d="m 254.75,1043.917 c -6.707,-2.952 -11.395,-9.65 -11.416,-17.445 l 11.416,0 0,17.445 z"
           style="fill:#394755;fill-opacity:1;fill-rule:nonzero;stroke:none"
           id="path62" /></g><path
         id="path66"
         style="fill:#877974;fill-opacity:1;fill-rule:nonzero;stroke:none"
         d="m 303.9663,1032.0728 c -0.135,0.01 -3.327,0.01 -3.462,0.01 -0.668,0 -1.28,0.586 -1.289,1.307 0.009,0.704 0.568,1.272 1.289,1.272 l 12.489,0 0,11.046 -12.489,0 c -6.809,-0.01 -12.327,-5.501 -12.347,-12.3 l 0,-0.027 0,-0.01 c 0.028,-6.628 6.783,-12.065 13.492,-12.336 0.153,0 0.315,-0.01 0.478,-0.01 l 1.424,0 c 0.712,0 1.281,-0.577 1.281,-1.289 0,-0.712 -0.569,-1.289 -1.281,-1.289 l -13.03,0 0,-11.046 13.03,0 c 6.817,0.01 12.327,5.518 12.335,12.335 0,6.682 -5.301,12.119 -11.92,12.336" /></g><g
       transform="matrix(2.8580909,0,0,2.8580909,-182.55215,-1833.9863)"
       id="g4367"><path
         d="m 193.426,997.89 1.348,0 0,-11.318 -1.348,0 0,11.318 z"
         style="fill:#877974;fill-opacity:1;fill-rule:nonzero;stroke:none"
         id="path68" /><path
         id="path72"
         style="fill:#877974;fill-opacity:1;fill-rule:nonzero;stroke:none"
         d="m 203.5107,991.4541 c -0.064,1.284 -1.03,2.315 -2.362,2.315 -1.41,0 -2.252,-1.062 -2.346,-2.315 l 4.708,0 z m 1.3,-2.283 c -0.365,-1.807 -1.665,-2.79 -3.503,-2.79 -2.616,0 -3.853,1.808 -3.932,4.312 0,2.456 1.617,4.264 3.852,4.264 2.901,0 3.788,-2.71 3.71,-4.692 l -6.135,0 c -0.048,-1.426 0.761,-2.695 2.552,-2.695 1.11,0 1.887,0.539 2.125,1.601 l 1.331,0 z" /><path
         id="path76"
         style="fill:#877974;fill-opacity:1;fill-rule:nonzero;stroke:none"
         d="m 214.3779,987.8398 2.505,0 c 1.03,0 3.805,0.285 3.805,4.454 0,2.695 -0.999,4.328 -3.774,4.328 l -2.536,0 0,-8.782 z m -1.506,10.05 3.884,0 c 3.488,0 5.437,-1.743 5.437,-5.39 0,-3.789 -1.664,-5.928 -5.437,-5.928 l -3.884,0 0,11.318 z" /><path
         id="path80"
         style="fill:#877974;fill-opacity:1;fill-rule:nonzero;stroke:none"
         d="m 228.4141,998.1602 1.729,0 -2.079,-2.268 -1.014,0 1.364,2.268 z m 2.045,-6.706 c -0.064,1.284 -1.03,2.315 -2.362,2.315 -1.411,0 -2.252,-1.062 -2.347,-2.315 l 4.709,0 z m 1.3,-2.283 c -0.365,-1.807 -1.665,-2.79 -3.503,-2.79 -2.616,0 -3.853,1.808 -3.933,4.312 0,2.456 1.617,4.264 3.853,4.264 2.901,0 3.789,-2.71 3.709,-4.693 l -6.135,0 c -0.047,-1.425 0.762,-2.694 2.553,-2.694 1.11,0 1.886,0.539 2.124,1.601 l 1.332,0 z" /><path
         id="path84"
         style="fill:#877974;fill-opacity:1;fill-rule:nonzero;stroke:none"
         d="m 238.0898,993.769 c -1.808,0 -2.505,-1.554 -2.505,-3.091 0,-1.618 0.729,-3.108 2.584,-3.108 1.838,0 2.458,1.569 2.458,3.17 0,1.538 -0.794,3.029 -2.537,3.029 m -3.806,0.999 1.348,0 0,-1.11 0.032,0 c 0.445,0.903 1.49,1.299 2.616,1.299 2.52,0 3.772,-1.998 3.772,-4.312 0,-2.314 -1.235,-4.264 -3.74,-4.264 -0.84,0 -2.045,0.316 -2.648,1.284 l -0.032,0 0,-4.232 -1.348,0 0,11.335 z" /><path
         id="path88"
         style="fill:#877974;fill-opacity:1;fill-rule:nonzero;stroke:none"
         d="m 249.667,990.8042 c -0.522,-0.38 -1.537,-0.396 -2.441,-0.555 -0.888,-0.158 -1.649,-0.475 -1.649,-1.474 0,-0.888 0.761,-1.205 1.586,-1.205 1.775,0 2.504,1.11 2.504,1.855 l 0,1.379 z m 2.188,-4.202 c -0.238,-0.141 -0.538,-0.221 -0.967,-0.221 -0.698,0 -1.141,0.38 -1.141,1.268 -0.745,-0.872 -1.744,-1.268 -2.886,-1.268 -1.489,0 -2.711,0.665 -2.711,2.299 0,1.854 1.379,2.25 2.776,2.52 1.489,0.285 2.757,0.189 2.757,1.205 0,1.173 -0.967,1.364 -1.823,1.364 -1.141,0 -1.981,-0.35 -2.046,-1.554 l -1.346,0 c 0.079,2.029 1.649,2.742 3.472,2.742 1.473,0 3.074,-0.333 3.074,-2.25 l 0,-4.217 c 0,-0.635 0,-0.92 0.429,-0.92 0.111,0 0.238,0.016 0.412,0.079 l 0,-1.047 z" /><path
         id="path92"
         style="fill:#877974;fill-opacity:1;fill-rule:nonzero;stroke:none"
         d="m 254.0156,994.7676 1.269,0 0,-1.729 0.031,0 c 0.65,1.316 1.554,1.966 3.012,1.919 l 0,-1.427 c -2.171,0 -2.964,-1.237 -2.964,-3.312 l 0,-3.647 -1.348,0 0,8.196 z" /><path
         id="path96"
         style="fill:#877974;fill-opacity:1;fill-rule:nonzero;stroke:none"
         d="m 262.1685,994.7676 1.632,0 0,-1.189 -1.632,0 0,-5.089 c 0,-0.618 0.174,-0.729 1.014,-0.729 l 0.618,0 0,-1.189 -1.03,0 c -1.396,0 -1.951,0.285 -1.951,1.791 l 0,5.216 -1.394,0 0,1.189 1.394,0 0,2.457 1.349,0 0,-2.457 z" /><path
         id="path100"
         style="fill:#877974;fill-opacity:1;fill-rule:nonzero;stroke:none"
         d="m 271.936,991.4541 c -0.064,1.284 -1.031,2.315 -2.363,2.315 -1.41,0 -2.251,-1.062 -2.345,-2.315 l 4.708,0 z m 1.3,-2.283 c -0.364,-1.807 -1.665,-2.79 -3.504,-2.79 -2.615,0 -3.852,1.808 -3.931,4.312 0,2.456 1.616,4.264 3.852,4.264 2.902,0 3.789,-2.71 3.71,-4.692 l -6.135,0 c -0.048,-1.426 0.76,-2.695 2.552,-2.695 1.11,0 1.886,0.539 2.124,1.601 l 1.332,0 z" /><path
         id="path104"
         style="fill:#877974;fill-opacity:1;fill-rule:nonzero;stroke:none"
         d="m 275.7139,994.7676 1.269,0 0,-1.205 0.031,0 c 0.602,0.919 1.521,1.395 2.647,1.395 0.999,0 1.918,-0.396 2.251,-1.395 0.555,0.872 1.521,1.395 2.569,1.395 1.632,0 2.726,-0.681 2.726,-2.378 l 0,-6.008 -1.347,0 0,5.373 c 0,1.015 -0.27,1.824 -1.585,1.824 -1.301,0 -2.141,-0.825 -2.141,-2.093 l 0,-5.104 -1.348,0 0,5.373 c 0,1.063 -0.332,1.824 -1.537,1.824 -1.601,0 -2.188,-1.475 -2.188,-2.093 l 0,-5.104 -1.347,0 0,8.196 z" /><path
         id="path108"
         style="fill:#877974;fill-opacity:1;fill-rule:nonzero;stroke:none"
         d="m 295.8862,991.4541 c -0.063,1.284 -1.03,2.315 -2.362,2.315 -1.41,0 -2.251,-1.062 -2.346,-2.315 l 4.708,0 z m 1.3,-2.283 c -0.364,-1.807 -1.665,-2.79 -3.503,-2.79 -2.616,0 -3.853,1.808 -3.932,4.312 0,2.456 1.617,4.264 3.853,4.264 2.901,0 3.788,-2.71 3.709,-4.692 l -6.135,0 c -0.048,-1.426 0.761,-2.695 2.552,-2.695 1.11,0 1.887,0.539 2.125,1.601 l 1.331,0 z" /><path
         id="path112"
         style="fill:#877974;fill-opacity:1;fill-rule:nonzero;stroke:none"
         d="m 299.6641,994.7676 1.269,0 0,-1.3 0.031,0 c 0.571,1.014 1.49,1.49 2.663,1.49 2.156,0 2.822,-1.236 2.822,-2.997 l 0,-5.389 -1.347,0 0,5.548 c 0,0.999 -0.635,1.649 -1.665,1.649 -1.633,0 -2.426,-1.094 -2.426,-2.568 l 0,-4.629 -1.347,0 0,8.196 z" /><path
         id="path116"
         style="fill:#877974;fill-opacity:1;fill-rule:nonzero;stroke:none"
         d="m 311.3057,994.7676 1.633,0 0,-1.189 -1.633,0 0,-5.089 c 0,-0.618 0.174,-0.729 1.014,-0.729 l 0.619,0 0,-1.189 -1.031,0 c -1.395,0 -1.951,0.285 -1.951,1.791 l 0,5.216 -1.394,0 0,1.189 1.394,0 0,2.457 1.349,0 0,-2.457 z" /></g></g></svg>