<?xml version="1.0" encoding="UTF-8" standalone="no"?>
<!-- Created with Inkscape (http://www.inkscape.org/) -->

<svg
   version="1.1"
   id="svg824"
   xml:space="preserve"
   width="700"
   height="700.00214"
   viewBox="0 0 700 700.00214"
   xmlns="http://www.w3.org/2000/svg"
   xmlns:svg="http://www.w3.org/2000/svg"><defs
     id="defs828" /><g
     id="g830"
     transform="matrix(1.3333333,0,0,-1.3333333,-263.64933,349.47332)"><path
       d="M 197.737,-262.89501 H 722.73701 V 262.105 H 197.737 Z"
       style="fill:#bdbcbc;fill-opacity:1;fill-rule:nonzero;stroke:none;stroke-width:5.3742"
       id="path852" /><path
       d="M 197.737,-262.89501 H 722.73164 V 262.105 H 197.737 Z"
       style="fill:#f9ab25;fill-opacity:1;fill-rule:nonzero;stroke:none;stroke-width:5.3742"
       id="path854" /><g
       id="g2486"><g
         id="g2478"><path
           d="m 601.83637,-210.72929 c -24.37736,0 -44.21352,-20.15324 -44.21352,-44.92292 v -7.24442 h 6.19645 v 4.67556 h 3.65445 v 5.11623 h -3.57384 c 0.83837,20.7874 17.46614,37.3883 37.92034,37.3883 20.44882,0 37.07659,-16.6009 37.91496,-37.3883 h -3.77806 v -5.11623 h 3.85868 v -4.67556 h 6.21257 v 7.24442 c 0,0.0752 0.0107,0.13973 0.0107,0.20422 -0.10749,24.67295 -19.89528,44.7187 -44.20278,44.7187"
           style="fill:#ffffff;fill-opacity:1;fill-rule:nonzero;stroke:none;stroke-width:5.3742"
           id="path864" /><path
           d="m 655.44292,-262.89609 v 4.67555 h 3.84255 v 5.11624 h -3.76194 c 0.83838,20.7874 17.47152,37.39367 37.91497,37.39367 11.79099,0 22.32442,-5.5193 29.29475,-14.17176 v 7.75497 c -7.80871,7.06169 -18.05193,11.39867 -29.31087,11.39867 -24.31287,0 -44.0953,-20.04576 -44.20278,-44.7187 0,-0.0645 0.0108,-0.12898 0.0108,-0.20422 v -7.24442 z"
           style="fill:#ffffff;fill-opacity:1;fill-rule:nonzero;stroke:none;stroke-width:5.3742"
           id="path866" /><path
           d="m 510.20415,-210.72929 c -24.37736,0 -44.21353,-20.15324 -44.21353,-44.92292 v -7.24442 h 6.2072 v 4.67556 h 3.8533 v 5.11623 h -3.77269 c 0.83838,20.7874 17.46615,37.3883 37.91497,37.3883 20.44882,0 37.07659,-16.6009 37.91497,-37.3883 h -3.97154 v -5.11623 h 4.05215 v -4.67556 h 6.22869 v 7.24442 c 0,24.76968 -19.83616,44.92292 -44.21352,44.92292"
           style="fill:#ffffff;fill-opacity:1;fill-rule:nonzero;stroke:none;stroke-width:5.3742"
           id="path868" /></g><path
         d="m 344.83417,-141.98631 h 7.40564 v -8.48586 h -7.40564 z m 24.286,8.29776 h 7.40564 v -8.48586 h -7.40564 z m 91.54946,0.005 h 7.40564 v -8.48049 h -7.40564 z m 91.66769,0 h 7.40565 v -8.48049 h -7.40565 z m 91.59246,0 h 7.40564 v -8.48049 h -7.40564 z m -263.35182,-39.0328 c 0,0.33857 0.043,0.6664 0.0537,0.9996 h 5.89012 v 5.12161 h -5.36345 c 3.05255,17.11682 18.61622,30.16537 37.41517,30.16537 18.80432,0 34.37337,-13.05393 37.42054,-30.17612 h -3.27826 v -5.12161 h 3.80493 c 0.0107,-0.3332 0.0484,-0.65565 0.0484,-0.98885 v -22.55551 h -75.99116 z m 91.6247,0 c 0,0.3332 0.0376,0.65565 0.0484,0.98885 h 3.79418 v 5.12161 h -3.26751 c 3.04717,17.12219 18.61622,30.17612 37.42054,30.17612 18.80432,0 34.37874,-13.05393 37.42054,-30.17612 h -3.47711 v -5.12161 h 4.00378 c 0.0108,-0.3332 0.0484,-0.65565 0.0484,-0.98885 v -22.55551 h -75.99116 z m 91.61932,0 c 0,0.3332 0.043,0.65565 0.0484,0.98885 h 3.60609 v 5.12161 h -3.07942 c 3.04717,17.12219 18.61622,30.17612 37.42054,30.17612 18.80432,0 34.37337,-13.05393 37.42054,-30.17612 h -3.28363 v -5.12161 h 3.8103 c 0.005,-0.3332 0.0537,-0.65565 0.0537,-0.98885 v -22.55551 h -75.99653 z m -229.42988,6.20182 10.63554,-3.07941 2.48288,-10.94725 10.57105,-8.91042 8.11504,-15.59592 27.05371,-7.497 14.67156,-15.90225 18.71833,-5.68591 9.41022,-7.96993 -0.51055,-9.19525 8.29239,-2.97731 2.37539,-8.62021 h 16.60627 v 7.24979 c 0,26.48942 21.26033,48.04533 47.38968,48.04533 22.01272,0 40.5107,-15.31647 45.81504,-35.96951 5.30433,20.65304 23.80769,35.96951 45.81503,35.96951 21.98047,0 40.45697,-15.27347 45.79354,-35.88352 5.33658,20.61005 23.81845,35.88352 45.79892,35.88352 11.06547,0 21.2442,-3.88555 29.3055,-10.36145 v 22.68986 h -67.29033 v 22.55551 c 0,0.3332 0.0484,0.65565 0.0537,0.98885 h 3.79418 v 5.12161 h -3.26751 c 3.04717,17.12219 18.61622,30.17612 37.42054,30.17612 11.79099,0 22.32442,-5.12698 29.28938,-13.17216 v 6.38992 c -7.79796,7.06707 -18.04656,11.40405 -29.3055,11.40405 -23.84532,0 -43.28379,-19.288 -44.12754,-43.30529 h 3.44486 v -4.57881 h -3.51472 v -4.81528 h 3.51472 v -4.58419 h -3.51472 v -0.005 h -0.0161 -3.1654 -0.0161 v 0.005 h -3.50935 v 4.58419 h 3.50935 v 4.81528 h -3.50935 v 4.57881 h 3.44486 c -0.84913,24.01729 -20.2876,43.30529 -44.13292,43.30529 -23.83994,0 -43.28916,-19.288 -44.13291,-43.30529 h 3.45024 v -4.57881 h -3.52548 v -4.81528 h 3.52548 v -4.58419 h -3.52548 v -0.005 h -0.0269 -3.15465 -0.0269 v 0.005 h -3.48248 v 4.58419 h 3.48248 v 4.81528 h -3.48248 v 4.57881 h 3.40186 c -0.84375,24.01729 -20.28759,43.30529 -44.13291,43.30529 -23.83994,0 -43.28916,-19.288 -44.13291,-43.30529 h 3.41261 v -4.57881 h -3.49322 v -4.81528 h 3.49322 v -4.58419 h -3.49322 v -0.005 h -0.005 -3.17078 -0.005 v 0.005 h -3.5416 v 4.58419 h 3.5416 v 4.81528 h -3.5416 v 4.57881 h 3.46099 c -0.84913,24.01729 -20.29297,43.30529 -44.13292,43.30529 -23.85069,0 -43.29991,-19.29337 -44.13828,-43.31066 h 3.47173 v -4.57882 h -3.55235 v -4.82065 h 3.55235 v -4.57882 h -3.9984 v 0 h -2.21955 v 0 h -3.9984 v 4.57882 h 3.48785 v 4.82065 h -3.48785 v 4.57882 h 3.56847 c 0.84375,25.74778 21.71713,46.43844 47.31443,46.43844 21.99122,0 40.48384,-15.29496 45.80429,-35.92651 5.31508,20.63155 23.8077,35.92651 45.80429,35.92651 22.01272,0 40.5107,-15.31646 45.81504,-35.9695 5.30433,20.65304 23.80769,35.9695 45.81503,35.9695 21.98047,0 40.45697,-15.27347 45.79354,-35.87814 5.33658,20.60467 23.81845,35.87814 45.79892,35.87814 11.07622,0 21.24958,-3.89092 29.3055,-10.37757 v 18.15404 h -382.2237 -5.23447 l -11.18908,-24.50097 8.52885,-2.79458 z"
         style="fill:#ffffff;fill-opacity:1;fill-rule:nonzero;stroke:none;stroke-width:5.3742"
         id="path870" /><path
         d="m 369.51087,-108.06384 h -2.82682 v 2.60649 c 0,7.932316 6.75536,14.392102 15.0585,14.392102 h 0.005 c 8.30851,0 15.06388,-6.459786 15.06388,-14.392102 v -2.60649 h -3.20302 v -5.11623 h 32.19144 v 5.11623 h -2.81608 v 2.60649 c 0,7.932316 6.75537,14.392102 15.06388,14.392102 8.30313,0 15.06388,-6.459786 15.06388,-14.392102 v -2.60649 h -3.0633 v -5.11623 h 32.18607 v 5.11623 h -2.95043 v 2.60649 c 0,7.932316 6.75537,14.392102 15.06388,14.392102 8.30313,0 15.06387,-6.459786 15.06387,-14.392102 v -2.60649 h -3.22452 v -5.11623 h 32.18607 v 5.11623 h -2.7892 v 2.60649 c 0,7.932316 6.75536,14.392102 15.06387,14.392102 8.30851,0 15.06388,-6.459786 15.06388,-14.392102 v -2.60649 h -3.13316 v -5.11623 H 594.765 v 5.11623 h -2.88594 v 2.60649 c 0,7.932316 6.76611,14.392102 15.06925,14.392102 8.30851,0 15.06925,-6.459786 15.06925,-14.392102 v -2.60649 h -3.27289 v -5.11623 h 32.19145 v 5.11623 h -2.75159 v 2.60649 c 0,7.932316 6.76074,14.392102 15.06387,14.392102 8.30851,0 15.06926,-6.459786 15.06926,-14.392102 v -7.6851 h 26.16696 v 7.6851 c 0,7.932316 6.76075,14.392102 15.06388,14.392102 1.09634,0 2.16043,-0.118232 3.1869,-0.3332 v 11.371802 H 353.9472 l -15.14449,-33.153424 h 30.70816 z"
         style="fill:#ffffff;fill-opacity:1;fill-rule:nonzero;stroke:none;stroke-width:5.3742"
         id="path872" /></g><g
       id="g2473"><path
         d="m 338.38352,-21.891261 c -0.79538,-0.150477 -8.73845,-4.08439 -19.20201,-4.08439 -18.2669,0 -32.86322,11.962965 -32.86322,33.6102334 0,21.5021656 15.54756,33.1534266 34.12616,33.1534266 17.46614,0 31.91736,-9.979885 31.91736,-9.979885 l 1.42416,15.44007 c 0,0 -14.44584,9.227498 -34.29813,9.227498 -29.99877,0 -52.85524,-17.251175 -52.85524,-47.9862129 0,-31.0467411 21.90523,-48.1528131 51.91476,-48.1528131 20.47031,0 36.19522,9.834782 39.52185,11.812487 V 12.17578 h -19.68569 z"
         style="fill:#ffffff;fill-opacity:1;fill-rule:nonzero;stroke:none;stroke-width:5.3742"
         id="path874" /><path
         d="M 399.35863,-8.4116975 414.74496,23.828115 430.30864,-8.4116975 Z M 413.3208,56.685961 363.94267,-39.603542 h 21.13134 l 0.50518,1.058717 7.48088,16.359058 h 43.12256 l 8.57185,-17.417775 h 20.79277 l -49.36201,96.289503 z"
         style="fill:#ffffff;fill-opacity:1;fill-rule:nonzero;stroke:none;stroke-width:5.3742"
         id="path876" /><path
         d="m 496.51015,12.929242 v 27.107454 c 12.53801,0 22.06646,-2.730092 22.06646,-13.166785 0,-11.065473 -9.206,-13.940669 -22.06646,-13.940669 m 24.76968,-6.9595861 c 7.61524,1.9615823 16.50416,9.3779751 16.50416,21.5021661 0,17.256549 -14.91877,26.79575 -38.89844,26.79575 h -22.06108 v -93.871114 h 19.68568 v 38.75871508 c 29.05292,0 23.02307,-39.67232808 59.53537,-39.67232808 l 3.6437,15.144489 c -19.68031,0 -24.60845,26.7957506 -38.40939,31.3423219"
         style="fill:#ffffff;fill-opacity:1;fill-rule:nonzero;stroke:none;stroke-width:5.3742"
         id="path878" /><path
         d="M 595.40776,54.269184 H 568.73024 V 39.560005 h 19.68568 v 0.0215 h 8.57722 c 26.35507,0 38.73185,-14.236251 38.73185,-32.09471 0,-17.874582 -12.37678,-32.255935 -38.73185,-32.255935 h -8.57722 v 37.28081 h -19.68568 v -52.1136 h 26.67752 c 42.698,0 59.84706,21.190463 59.84706,46.9274961 0,25.8982589 -17.14906,46.9436179 -59.84706,46.9436179"
         style="fill:#ffffff;fill-opacity:1;fill-rule:nonzero;stroke:none;stroke-width:5.3742"
         id="path880" /></g><g
       id="g2467"><path
         d="m 395.95838,140.21927 c -2.09057,-0.58579 -3.6867,-0.88137 -6.70163,-0.88137 -8.87817,0 -13.06467,5.56767 -13.06467,15.19823 0,9.59294 4.1865,15.11762 13.06467,15.11762 3.01493,0 4.61106,-0.29021 6.70163,-0.91899 v -5.11086 c -1.84335,0.62878 -3.93929,1.01035 -6.53503,1.01035 -5.60529,0 -6.86285,-4.23487 -6.86285,-10.09812 0,-5.90087 1.25756,-10.17336 6.86285,-10.17336 2.59574,0 4.69168,0.3762 6.53503,1.00498 z"
         style="fill:#ffffff;fill-opacity:1;fill-rule:nonzero;stroke:none;stroke-width:5.3742"
         id="path882" /><path
         d="m 413.61369,164.63156 c -5.11086,0 -6.70162,-4.77766 -6.70162,-10.13574 0,-5.40106 1.59076,-10.13036 6.70162,-10.13036 5.11086,0 6.73924,4.7293 6.73924,10.13036 0,5.35808 -1.62838,10.13574 -6.73924,10.13574 m 0,-25.29097 c -8.45899,0 -13.06467,6.19645 -13.06467,15.15523 0,8.92117 4.60568,15.16062 13.06467,15.16062 8.49661,0 13.10767,-6.23945 13.10767,-15.16062 0,-8.95878 -4.61106,-15.15523 -13.10767,-15.15523"
         style="fill:#ffffff;fill-opacity:1;fill-rule:nonzero;stroke:none;stroke-width:5.3742"
         id="path884" /><path
         d="m 432.98714,169.11203 h 5.56767 c 3.8103,-4.56269 10.38295,-14.95102 12.3499,-18.63234 v 18.63234 h 5.73965 v -29.23026 h -5.69665 c -2.76234,5.44943 -9.16839,15.913 -12.2263,19.9329 v -19.9329 h -5.73427 z"
         style="fill:#ffffff;fill-opacity:1;fill-rule:nonzero;stroke:none;stroke-width:5.3742"
         id="path886" /><path
         d="m 481.96059,168.06406 v -5.19147 c -2.46676,1.04797 -5.32046,1.75736 -8.41599,1.75736 -2.42914,0 -4.1865,-1.29518 -4.1865,-3.18153 0,-1.84335 1.41878,-2.71934 3.68669,-3.47173 l 3.72432,-1.21994 c 4.14351,-1.33818 6.65864,-4.1865 6.65864,-8.62559 0,-6.02985 -4.77229,-8.79219 -11.55453,-8.79219 -3.10091,0 -6.19645,0.7094 -8.79756,1.96696 v 5.36345 c 2.34852,-1.17158 5.82025,-2.30553 8.92117,-2.30553 2.42376,0 5.06249,1.04797 5.06249,3.47711 0,2.00995 -1.67137,3.01492 -4.39609,3.89091 l -3.05792,1.00498 c -4.05752,1.34355 -6.61027,3.89629 -6.61027,8.42137 0,5.22909 3.76732,8.4966 10.63554,8.4966 3.05255,0 5.94387,-0.58578 8.33001,-1.59076"
         style="fill:#ffffff;fill-opacity:1;fill-rule:nonzero;stroke:none;stroke-width:5.3742"
         id="path888" /><path
         d="m 489.86442,169.11203 h 18.97092 v -5.02487 h -12.81746 v -6.78224 h 11.0171 v -4.94426 h -11.0171 v -7.45402 h 12.81746 v -5.02487 h -18.97092 z"
         style="fill:#ffffff;fill-opacity:1;fill-rule:nonzero;stroke:none;stroke-width:5.3742"
         id="path890" /><path
         d="m 515.18012,139.88499 h 6.15345 v 29.23026 h -6.15345 z"
         style="fill:#ffffff;fill-opacity:1;fill-rule:nonzero;stroke:none;stroke-width:5.3742"
         id="path892" /><path
         d="m 529.12025,169.11203 h 6.15346 v -24.1194 h 10.42594 v -5.11086 h -16.5794 z"
         style="fill:#ffffff;fill-opacity:1;fill-rule:nonzero;stroke:none;stroke-width:5.3742"
         id="path894" /><path
         d="m 295.25666,99.860117 c 0.92436,-0.08061 1.75736,-0.123607 2.84832,-0.123607 6.02985,0 8.12041,3.72432 8.12041,9.88315 0,6.11046 -1.71436,10.04438 -8.12041,10.04438 -1.09096,0 -2.00995,-0.0806 -2.84832,-0.20422 z m -6.15346,24.200013 c 2.76234,0.50517 6.78224,0.62878 9.25437,0.62878 9.63056,0 14.23625,-5.27209 14.23625,-15.06925 0,-9.840156 -4.60569,-14.913399 -14.23625,-14.913399 -2.47213,0 -6.61564,0.128981 -9.25437,0.467555 z"
         style="fill:#ffffff;fill-opacity:1;fill-rule:nonzero;stroke:none;stroke-width:5.3742"
         id="path896" /><path
         d="m 328.31926,133.27419 h 6.8306 l -4.90126,-6.02447 h -5.06787 z m -9.46396,-8.95879 h 18.97092 v -5.02487 h -12.81209 v -6.78761 h 11.01173 v -4.93889 h -11.01173 v -7.45401 h 12.81209 V 95.085142 H 318.8553 Z"
         style="fill:#ffffff;fill-opacity:1;fill-rule:nonzero;stroke:none;stroke-width:5.3742"
         id="path898" /><path
         d="m 350.3309,108.77967 c 0.80075,0.3762 1.47253,0.58579 3.89629,0.88137 3.43411,0.3762 4.77229,1.96696 4.77229,5.52468 0,2.72472 -1.63376,4.56269 -5.77726,4.56269 -1.04797,0 -1.92397,-0.0806 -2.89132,-0.25259 z m -6.15346,15.28422 c 2.76771,0.46218 6.78224,0.62878 9.25437,0.62878 7.32503,0 11.93609,-2.63873 11.93609,-9.50695 0,-6.86823 -4.22949,-9.63057 -10.97411,-10.25935 -3.68132,-0.3332 -4.06289,-0.4998 -4.06289,-4.90127 v -4.938883 h -6.15346 z"
         style="fill:#ffffff;fill-opacity:1;fill-rule:nonzero;stroke:none;stroke-width:5.3742"
         id="path900" /><path
         d="m 375.7788,106.97985 h 7.12081 c -1.00497,3.76732 -2.55812,8.5826 -3.56309,11.43092 -0.9996,-2.84832 -2.55274,-7.6636 -3.55772,-11.43092 m 7.07782,17.33717 c 2.09594,-4.69168 7.8732,-21.77625 9.54457,-29.230266 h -6.40604 c -0.4998,2.17655 -1.12858,4.482081 -1.84335,6.905846 h -9.63056 c -0.7094,-2.423765 -1.3328,-4.729296 -1.84335,-6.905846 h -6.40067 c 1.67137,7.454016 7.44864,24.538586 9.54457,29.230266 z"
         style="fill:#ffffff;fill-opacity:1;fill-rule:nonzero;stroke:none;stroke-width:5.3742"
         id="path902" /><path
         d="m 403.73591,109.44876 c 0.79539,0.37619 1.46716,0.58579 3.72432,0.83838 2.97731,0.3332 4.98726,1.75736 4.98726,4.77228 0,2.84833 -1.59614,4.69168 -5.78264,4.69168 -1.04259,0 -1.96158,-0.086 -2.92894,-0.25259 z m -6.15345,14.61244 c 2.71934,0.46219 6.82523,0.62879 9.25437,0.62879 7.86782,0 11.93072,-3.09554 11.93072,-9.63057 0,-4.27248 -2.67635,-7.03482 -5.86325,-8.07742 2.39151,-2.60111 5.61603,-7.668977 7.58299,-11.893096 h -6.86823 c -1.63375,3.514725 -4.77228,8.458986 -6.44903,10.463566 l -1.21457,-0.24722 c -1.75736,-0.37619 -2.21955,-0.88136 -2.21955,-4.61106 v -5.605286 h -6.15345 z"
         style="fill:#ffffff;fill-opacity:1;fill-rule:nonzero;stroke:none;stroke-width:5.3742"
         id="path904" /><path
         d="m 429.42942,119.1637 h -7.7496 v 5.15385 h 21.65265 v -5.15385 h -7.74422 V 95.087292 h -6.15883 z"
         style="fill:#ffffff;fill-opacity:1;fill-rule:nonzero;stroke:none;stroke-width:5.3742"
         id="path906" /><path
         d="m 448.13593,124.31487 h 18.97091 v -5.02488 h -12.81746 v -6.78224 h 11.01711 v -4.94426 h -11.01711 v -7.45401 h 12.81746 v -5.024875 h -18.97091 z"
         style="fill:#ffffff;fill-opacity:1;fill-rule:nonzero;stroke:none;stroke-width:5.3742"
         id="path908" /><path
         d="m 504.10658,95.086754 h -5.94386 l -1.00497,21.394686 c -1.92934,-4.18113 -4.27249,-10.33996 -5.78264,-15.87001 h -5.94386 c -1.51015,5.53005 -3.8533,11.68888 -5.78264,15.87001 l -1.00498,-21.394686 h -5.94386 l 1.50478,29.230266 h 7.41639 c 2.25716,-3.81568 5.44406,-12.35528 6.78224,-16.75138 1.34355,4.3961 4.5197,12.9357 6.78224,16.75138 h 7.41639 z"
         style="fill:#ffffff;fill-opacity:1;fill-rule:nonzero;stroke:none;stroke-width:5.3742"
         id="path910" /><path
         d="m 511.12152,124.31487 h 18.97092 v -5.02488 h -12.81746 v -6.78224 h 11.01711 v -4.94426 h -11.01711 v -7.45401 h 12.81746 v -5.024875 h -18.97092 z"
         style="fill:#ffffff;fill-opacity:1;fill-rule:nonzero;stroke:none;stroke-width:5.3742"
         id="path912" /><path
         d="m 536.44044,124.31487 h 5.56767 c 3.81031,-4.5627 10.38295,-14.95102 12.34991,-18.63235 v 18.63235 h 5.73964 V 95.084605 h -5.69665 c -2.76233,5.449435 -9.16838,15.912995 -12.2263,19.932895 V 95.084605 h -5.73427 z"
         style="fill:#ffffff;fill-opacity:1;fill-rule:nonzero;stroke:none;stroke-width:5.3742"
         id="path914" /><path
         d="m 572.64695,119.1637 h -7.74959 v 5.15385 H 586.55 v -5.15385 h -7.74422 V 95.087292 h -6.15883 z"
         style="fill:#ffffff;fill-opacity:1;fill-rule:nonzero;stroke:none;stroke-width:5.3742"
         id="path916" /><path
         d="m 595.91723,106.97985 h 7.11544 c -0.9996,3.76732 -2.54737,8.5826 -3.55772,11.43092 -1.00498,-2.84832 -2.55275,-7.6636 -3.55772,-11.43092 m 7.07782,17.33717 c 2.09056,-4.69168 7.86782,-21.77625 9.54457,-29.230266 h -6.40604 c -0.4998,2.17655 -1.12858,4.482081 -1.84335,6.905846 h -9.63056 c -0.7094,-2.423765 -1.33818,-4.729296 -1.84335,-6.905846 h -6.40605 c 1.67675,7.454016 7.45402,24.538586 9.54995,29.230266 z"
         style="fill:#ffffff;fill-opacity:1;fill-rule:nonzero;stroke:none;stroke-width:5.3742"
         id="path918" /><path
         d="m 617.71928,124.31487 h 6.15345 v -24.1194 h 10.42595 v -5.110865 h -16.5794 z"
         style="fill:#ffffff;fill-opacity:1;fill-rule:nonzero;stroke:none;stroke-width:5.3742"
         id="path920" /></g></g></svg>
