<svg version="1.2" xmlns="http://www.w3.org/2000/svg" viewBox="0 0 136 28" width="136" height="28">
	<title>Logo couleur</title>
	<style>
		.s0 { fill: #0c4271 } 
		.s1 { fill: #86c33f } 
		.s2 { fill: #00b5e2 } 
	</style>
	<g id="Logo couleur.tif">
		<g id="&lt;Group&gt;">
			<g id="&lt;Group&gt;">
				<path id="&lt;Path&gt;" class="s0" d="m39.2 15.7h-1.5c-0.2 0-0.4-0.2-0.4-0.4v-5.6c0-1.4-0.2-1.8-1.4-1.8-0.6 0-1.2 0.2-2 0.6v6.8c0 0.2-0.1 0.4-0.3 0.4h-1.6c-0.1 0-0.3-0.2-0.3-0.4v-12.2c0-0.2 0.2-0.4 0.3-0.4h1.6c0.2 0 0.3 0.2 0.3 0.4v3.5c0.7-0.4 1.4-0.6 2.6-0.6 2.4 0 3.1 1.6 3.1 3.7v5.6c0 0.2-0.2 0.4-0.4 0.4z"/>
				<path id="&lt;Compound Path&gt;" fill-rule="evenodd" class="s0" d="m47.7 15.7h-1.4c-0.2 0-0.3-0.2-0.3-0.4v-0.2c-0.8 0.4-1.6 0.7-2.4 0.7-1.5 0-3-0.5-3-2.8v-0.1c0-1.9 1.2-2.9 4.2-2.9h1v-0.8c0-1.1-0.5-1.4-1.5-1.4-1.1 0-2.2 0.1-2.7 0.2h-0.1c-0.2 0-0.3-0.1-0.3-0.3v-1.1q0-0.3 0.3-0.4c0.7-0.1 1.7-0.2 2.8-0.2 2.5 0 3.8 1 3.8 3.2v6.1c0 0.2-0.2 0.4-0.4 0.4zm-1.9-4.2h-1c-1.6 0-1.9 0.5-1.9 1.4v0.1c0 0.8 0.3 1 1.2 1 0.6 0 1.2-0.2 1.7-0.4z"/>
				<path id="&lt;Path&gt;" class="s0" d="m57.1 15.7h-1.6c-0.2 0-0.3-0.2-0.3-0.4v-0.4c-0.9 0.6-1.6 0.9-2.7 0.9-0.9 0-1.6-0.2-2.1-0.7-0.6-0.6-0.9-1.7-0.9-3.1v-5.5c0-0.2 0.2-0.4 0.4-0.4h1.5c0.2 0 0.4 0.2 0.4 0.4v5.5c0 0.8 0.1 1.3 0.4 1.6 0.2 0.2 0.5 0.3 1 0.3 0.7 0 1.5-0.4 2-0.7v-6.7c0-0.2 0.1-0.4 0.3-0.4h1.6c0.1 0 0.3 0.2 0.3 0.4v8.8c0 0.2-0.2 0.4-0.3 0.4z"/>
				<path id="&lt;Path&gt;" class="s0" d="m63.7 15.7c-0.3 0.1-1.2 0.1-1.6 0.1-1.8 0-2.4-0.9-2.4-2.7v-5.3l-1.1-0.3c-0.1 0-0.3-0.1-0.3-0.3v-0.8c0-0.2 0.2-0.3 0.3-0.3h1.1v-1.4c0-0.2 0.2-0.3 0.4-0.3l1.5-0.3h0.1c0.2 0 0.3 0.1 0.3 0.2v1.8h1.6c0.2 0 0.4 0.1 0.4 0.3v1c0 0.2-0.2 0.4-0.4 0.4h-1.6v5.3c0 0.9 0 1 0.6 1h1.1q0.3 0 0.3 0.2v1.1q0 0.2-0.3 0.3z"/>
				<path id="&lt;Path&gt;" class="s0" d="m67.9 15.8c-0.7 0-1.6-0.1-2.5-0.3q-0.3-0.1-0.3-0.4v-1c0-0.2 0.1-0.3 0.2-0.3h0.1c3.1 0.5 3.9 0.3 3.9-0.6 0-0.7-0.9-0.9-1.8-1.4-1.8-0.8-2.7-1.4-2.7-3 0-1.7 1.2-2.8 3.4-2.8 1 0 1.9 0.1 2.7 0.3q0.4 0.1 0.4 0.4v1q-0.1 0.3-0.3 0.3h-0.1c-2.6-0.3-3.8-0.4-3.8 0.7 0 0.7 0.7 0.9 2 1.5 1.9 0.8 2.5 1.7 2.5 2.7 0 1.5-0.7 2.9-3.7 2.9z"/>
				<path id="&lt;Path&gt;" class="s0" d="m99.5 15.8c-0.7 0-1.6-0.1-2.5-0.3q-0.3-0.1-0.3-0.4v-1c0-0.2 0.1-0.3 0.3-0.3 3.1 0.5 4 0.3 4-0.6 0-0.7-0.9-0.9-1.9-1.4-1.8-0.8-2.7-1.4-2.7-3 0-1.7 1.2-2.8 3.4-2.8 1 0 1.9 0.1 2.8 0.3q0.3 0.1 0.3 0.4v1q0 0.3-0.3 0.3h-0.1c-2.6-0.3-3.8-0.4-3.8 0.7 0 0.7 0.7 0.9 2 1.5 1.9 0.8 2.5 1.7 2.5 2.7 0 1.5-0.6 2.9-3.7 2.9z"/>
				<path id="&lt;Path&gt;" class="s0" d="m74 11.3h-1.8c-0.1 0-0.3-0.1-0.3-0.3v-1.1c0-0.2 0.2-0.3 0.3-0.3h1.8c0.2 0 0.3 0.1 0.3 0.3v1.1c0 0.2-0.1 0.3-0.3 0.3z"/>
				<path id="&lt;Compound Path&gt;" fill-rule="evenodd" class="s0" d="m82.7 15.4c-1 0.2-2.3 0.4-3.4 0.4-2.7 0-4-1.6-4-4.3v-1.3c0-2.6 1.3-4.2 4-4.2 0.4 0 1 0 1.7 0.1v-3c0-0.2 0.1-0.4 0.3-0.4h1.6c0.2 0 0.3 0.2 0.3 0.4v11.8c0 0.3-0.1 0.4-0.5 0.5zm-1.7-7.5c-0.5 0-1.3-0.1-1.7-0.1-1.4 0-1.8 1-1.8 2.4v1.3c0 1.4 0.4 2.5 1.8 2.5 0.6 0 1.3-0.1 1.7-0.1z"/>
				<path id="&lt;Compound Path&gt;" fill-rule="evenodd" class="s0" d="m92.1 11.7h-5.5c0 1 0.4 2.2 2 2.2 1.3 0 2.4-0.1 3.1-0.2h0.1c0.2 0 0.3 0.1 0.3 0.3v1.1c0 0.3-0.1 0.4-0.4 0.4-1.1 0.2-1.7 0.3-3.3 0.3-1.7 0-4.1-0.9-4.1-4.3v-1.2c0-2.7 1.5-4.3 4.1-4.3 2.6 0 4.1 1.8 4.1 4.3v0.9q0 0.5-0.4 0.5zm-1.9-1.7c0-1.3-0.7-2.1-1.8-2.1-1 0-1.8 0.8-1.8 2.1v0.1h3.6z"/>
				<path id="&lt;Path&gt;" class="s0" d="m95.5 11.3h-1.7c-0.2 0-0.3-0.1-0.3-0.3v-1.1c0-0.2 0.1-0.3 0.3-0.3h1.7c0.2 0 0.4 0.1 0.4 0.3v1.1c0 0.2-0.2 0.3-0.4 0.3z"/>
				<path id="&lt;Compound Path&gt;" fill-rule="evenodd" class="s0" d="m111.8 11.7h-5.5c0 1 0.4 2.2 2 2.2 1.3 0 2.4-0.1 3.1-0.2h0.1c0.2 0 0.3 0.1 0.3 0.3v1.1c0 0.3 0 0.4-0.4 0.4-1.1 0.2-1.7 0.3-3.2 0.3-1.7 0-4.2-0.9-4.2-4.3v-1.2c0-2.7 1.5-4.3 4.1-4.3 2.6 0 4.1 1.8 4.1 4.3v0.9q0 0.5-0.4 0.5zm-1.9-1.7c0-1.3-0.7-2.1-1.8-2.1-1 0-1.8 0.8-1.8 2.1v0.1h3.6z"/>
				<path id="&lt;Compound Path&gt;" class="s0" d="m115.3 4.8h-1.7c-0.1 0-0.3-0.1-0.3-0.3v-1.5c0-0.2 0.2-0.4 0.3-0.4h1.7c0.2 0 0.3 0.2 0.3 0.4v1.5c0 0.2-0.1 0.3-0.3 0.3zm-0.1 10.9h-1.5c-0.2 0-0.4-0.2-0.4-0.4v-8.9c0-0.2 0.2-0.3 0.4-0.3h1.5c0.2 0 0.4 0.1 0.4 0.3v8.9c0 0.2-0.2 0.4-0.4 0.4z"/>
				<path id="&lt;Path&gt;" class="s0" d="m124.6 15.7h-1.6c-0.2 0-0.3-0.2-0.3-0.4v-5.5c0-1.5-0.2-1.9-1.5-1.9-0.6 0-1.2 0.2-1.9 0.6v6.8c0 0.2-0.2 0.4-0.3 0.4h-1.6c-0.2 0-0.3-0.2-0.3-0.4v-8.9c0-0.2 0.1-0.3 0.3-0.3h1.5c0.2 0 0.3 0.1 0.3 0.3v0.4c1-0.6 1.6-0.8 2.8-0.8 2.4 0 2.9 1.6 2.9 3.8v5.5c0 0.2-0.1 0.4-0.3 0.4z"/>
				<path id="&lt;Compound Path&gt;" fill-rule="evenodd" class="s0" d="m133.8 11.7h-5.5c0 1 0.4 2.2 2 2.2 1.3 0 2.4-0.1 3.1-0.2h0.1c0.2 0 0.3 0.1 0.3 0.3v1.1c0 0.3-0.1 0.4-0.4 0.4-1.1 0.2-1.7 0.3-3.3 0.3-1.7 0-4.1-0.9-4.1-4.3v-1.2c0-2.7 1.5-4.3 4.1-4.3 2.6 0 4.1 1.8 4.1 4.3v0.9q0 0.5-0.4 0.5zm-1.9-1.7c0-1.3-0.7-2.1-1.8-2.1-1 0-1.8 0.8-1.8 2.1v0.1h3.6z"/>
				<path id="&lt;Path&gt;" class="s0" d="m34.6 24.8c-0.2 0.1-0.9 0.1-1.2 0.1-1 0-1.7-0.2-1.7-1.5v-3.8c0 0 0.1-0.1 0.1-0.1h0.8c0 0 0.1 0.1 0.1 0.1v3.8c0 0.5 0.1 0.7 0.6 0.7h1.3c0.1 0 0.1 0 0.1 0.1v0.5c0 0.1 0 0.1-0.1 0.1z"/>
				<path id="&lt;Path&gt;" class="s0" d="m39.2 24.8c-0.2 0.1-0.5 0.1-1.4 0.1-0.9 0-1.6-0.2-1.6-1.5v-2.5c0-1.2 0.7-1.5 1.6-1.5 0.9 0 1.2 0.1 1.4 0.1q0.2 0 0.2 0.2v0.5c0 0-0.1 0.1-0.2 0.1h-1.5c-0.4 0-0.5 0.1-0.5 0.6v0.8h1.9c0.1 0 0.2 0.1 0.2 0.1v0.6c0 0-0.1 0.1-0.2 0.1h-1.9v0.9c0 0.5 0.1 0.7 0.5 0.7h1.5c0.1 0 0.2 0 0.2 0.1v0.5q0 0.1-0.2 0.1z"/>
				<path id="&lt;Compound Path&gt;" fill-rule="evenodd" class="s0" d="m45.6 24.9c-0.6 0-1.3 0-1.5-0.1q-0.2 0-0.2-0.2v-4.9q0-0.2 0.2-0.2c0.2 0 0.9-0.1 1.5-0.1 1.4 0 2.2 0.8 2.2 2.2v1.1c0 1.4-0.8 2.2-2.2 2.2zm1.2-3.3c0-1-0.5-1.3-1.2-1.3q-0.4 0-0.7 0v3.7q0.3 0.1 0.7 0.1c0.7 0 1.2-0.3 1.2-1.4z"/>
				<path id="&lt;Compound Path&gt;" class="s0" d="m52.7 24.8c-0.2 0.1-0.5 0.1-1.4 0.1-0.9 0-1.6-0.2-1.6-1.5v-2.5c0-1.2 0.7-1.5 1.6-1.5 0.9 0 1.2 0.1 1.4 0.1q0.2 0 0.1 0.2v0.5c0 0 0 0.1-0.1 0.1h-1.5c-0.4 0-0.5 0.1-0.5 0.6v0.8h1.9c0.1 0 0.2 0.1 0.2 0.1v0.6c0 0-0.1 0.1-0.2 0.1h-1.9v0.9c0 0.5 0.1 0.7 0.5 0.7h1.5c0.1 0 0.1 0 0.1 0.1v0.5q0.1 0.1-0.1 0.1zm-0.3-6.7l-0.9 0.9c0 0.1-0.1 0.1-0.2 0.1h-0.6v-0.1l0.7-0.9c0 0 0.1-0.1 0.2-0.1h0.7l0.1 0.1z"/>
				<path id="&lt;Compound Path&gt;" fill-rule="evenodd" class="s0" d="m56.4 22.9c-0.2 0-0.5-0.1-0.7-0.1v1.9c0 0.1 0 0.2-0.1 0.2h-0.7c-0.1 0-0.2-0.1-0.2-0.2v-5c0-0.1 0.1-0.1 0.3-0.2 0.3 0 0.8-0.1 1.4-0.1 1.1 0 2 0.4 2 1.7v0.1c0 1.2-0.9 1.7-2 1.7zm1-1.8c0-0.6-0.3-0.8-1-0.8-0.2 0-0.5 0-0.7 0v1.7c0.1 0 0.5 0 0.7 0 0.7 0 1-0.3 1-0.8z"/>
				<path id="&lt;Compound Path&gt;" fill-rule="evenodd" class="s0" d="m63.6 24.9h-0.8q-0.1-0.1-0.1-0.2l-0.3-1.3h-1.7l-0.3 1.3c0 0.1-0.1 0.2-0.2 0.2h-0.7q-0.2 0-0.2-0.2l1.2-4.5c0.2-0.7 0.7-0.8 1-0.8 0.3 0 0.9 0.1 1 0.8l1.2 4.5q0 0.2-0.1 0.2zm-2-4.5q0-0.1-0.1-0.1-0.1 0-0.1 0.1l-0.5 2.1h1.3z"/>
				<path id="&lt;Compound Path&gt;" fill-rule="evenodd" class="s0" d="m69.1 24.9h-0.9c0 0-0.1-0.1-0.1-0.2l-1-1.9h-0.1c-0.2 0-0.5 0-0.7 0v1.9q0 0.1-0.1 0.2h-0.7c-0.1 0-0.2-0.1-0.2-0.2v-5c0-0.1 0.1-0.1 0.2-0.2 0.4 0 0.9-0.1 1.5-0.1 1.1 0 2 0.4 2 1.7 0 0.8-0.4 1.3-0.9 1.5l1.1 2.1v0.1zm-1.1-3.8c0-0.6-0.3-0.8-1.1-0.8-0.1 0-0.5 0-0.6 0v1.7c0.1 0 0.5 0 0.6 0 0.8 0 1.1-0.2 1.1-0.9z"/>
				<path id="&lt;Path&gt;" class="s0" d="m74 20.3h-1.3v4.4c0 0.1-0.1 0.2-0.1 0.2h-0.7c-0.1 0-0.2-0.1-0.2-0.2v-4.4h-1.3q-0.1 0-0.1-0.1v-0.6q0-0.1 0.1-0.1h3.6q0.1 0 0.1 0.1v0.6q0 0.1-0.1 0.1z"/>
				<path id="&lt;Path&gt;" class="s0" d="m78.6 24.8c-0.2 0.1-0.5 0.1-1.4 0.1-0.9 0-1.6-0.2-1.6-1.5v-2.5c0-1.2 0.7-1.5 1.6-1.5 0.9 0 1.2 0.1 1.4 0.1q0.2 0 0.1 0.2v0.5c0 0 0 0.1-0.1 0.1h-1.5c-0.4 0-0.5 0.1-0.5 0.6v0.8h1.9c0.1 0 0.2 0.1 0.2 0.1v0.6c0 0-0.1 0.1-0.2 0.1h-1.9v0.9c0 0.5 0.1 0.7 0.5 0.7h1.5c0.1 0 0.1 0 0.1 0.1v0.5q0.1 0.1-0.1 0.1z"/>
				<path id="&lt;Path&gt;" class="s0" d="m85.1 24.9h-0.7c-0.1 0-0.1-0.1-0.1-0.2v-3.3-0.1h-0.1l-0.7 1.4q0 0.1-0.2 0.1h-0.7q-0.2 0-0.3-0.1l-0.7-1.4v0.1 3.3c0 0.1-0.1 0.2-0.1 0.2h-0.8q-0.1 0-0.1-0.1v-5c0-0.2 0.2-0.3 0.3-0.3h0.6q0.2 0 0.3 0.2l1.1 2.2q0 0.1 0 0.1 0.1 0 0.1-0.1l1.1-2.2q0.1-0.2 0.3-0.2h0.6c0.1 0 0.3 0.1 0.3 0.3v5q-0.1 0.1-0.2 0.1z"/>
				<path id="&lt;Path&gt;" class="s0" d="m90.3 24.8c-0.3 0.1-0.5 0.1-1.4 0.1-0.9 0-1.7-0.2-1.7-1.5v-2.5c0-1.2 0.8-1.5 1.7-1.5 0.9 0 1.1 0.1 1.4 0.1q0.1 0 0.1 0.2v0.5c0 0 0 0.1-0.1 0.1h-1.5c-0.4 0-0.6 0.1-0.6 0.6v0.8h2c0.1 0 0.1 0.1 0.1 0.1v0.6c0 0 0 0.1-0.1 0.1h-2v0.9c0 0.5 0.2 0.7 0.6 0.7h1.5c0.1 0 0.1 0 0.1 0.1v0.5q0 0.1-0.1 0.1z"/>
				<path id="&lt;Path&gt;" class="s0" d="m96.1 24.9h-0.8c-0.1 0-0.3 0-0.4-0.3l-1.6-3.5-0.1-0.1v0.1 3.6q0 0.1-0.1 0.2h-0.7c0 0-0.1-0.1-0.1-0.2v-4.9c0-0.2 0.1-0.3 0.3-0.3h0.8c0.1 0 0.2 0 0.3 0.2l1.7 3.7v0.1l0.1-0.1v-3.8q0-0.1 0.1-0.1h0.6q0.1 0 0.2 0.1v5c0 0.1-0.2 0.3-0.3 0.3z"/>
				<path id="&lt;Path&gt;" class="s0" d="m101.4 20.3h-1.2v4.4c0 0.1-0.1 0.2-0.2 0.2h-0.7c-0.1 0-0.1-0.1-0.1-0.2v-4.4h-1.3q-0.1 0-0.1-0.1v-0.6q0-0.1 0.1-0.1h3.5q0.2 0 0.2 0.1v0.6q0 0.1-0.2 0.1z"/>
				<path id="&lt;Compound Path&gt;" fill-rule="evenodd" class="s0" d="m27.2 13.7c0 0.9-2.6 3.8-6.2 7.3-3.5 3.6-6.4 6.2-7.3 6.2-0.9 0-3.8-2.6-7.3-6.2-3.6-3.5-6.2-6.4-6.2-7.3 0-0.8 2.6-3.7 6.2-7.3 3.5-3.5 6.4-6.2 7.3-6.2 0.9 0 3.8 2.7 7.3 6.2 3.6 3.6 6.2 6.5 6.2 7.3zm-17-0.1c0-0.8 3.9-4.6 4.3-5.4 0.2-0.6 0.1-1.3-0.3-1.7-0.6-0.6-1.4-0.6-2-0.2-0.7 0.5-2.1 1.8-3.4 3.1-1.5 1.5-2.8 3-3 3.5-0.4 0.7-0.3 1.1 0.1 1.8 0.2 0.6 1.9 2.4 3.7 4.2 1.6 1.6 3.3 3.2 4 3.5 0.3 0.2 0.5 0.1 0.7-0.1 0.1-0.2 0.2-0.4 0.2-0.5v-3.4c0-0.4-0.2-0.7-0.4-1-0.8-0.8-3.9-3-3.9-3.8z"/>
			</g>
		</g>
		<g id="&lt;Group&gt;">
			<path id="&lt;Path&gt;" class="s1" d="m111.7 26q0.2-0.1 0.4-0.2c8.3-4.3 14.9-7.3 16.6-7 1.2 0.3 3.8 3.1 7.1 7.2z"/>
			<g id="&lt;Group&gt;">
				<g id="&lt;Group&gt;">
					<path id="&lt;Path&gt;" class="s2" d="m112.1 25.8q-0.2 0.1-0.4 0.2h-5c1.1-2.6 2-4.3 2.7-4.7 0.9-0.5 3.9-0.1 9.4 1.2 0 0-5.7 2.8-6.7 3.3z"/>
				</g>
			</g>
		</g>
	</g>
</svg>