<?xml version="1.0" encoding="UTF-8" standalone="no"?>
<!-- Created with Inkscape (http://www.inkscape.org/) -->

<svg
   xmlns:dc="http://purl.org/dc/elements/1.1/"
   xmlns:cc="http://creativecommons.org/ns#"
   xmlns:rdf="http://www.w3.org/1999/02/22-rdf-syntax-ns#"
   xmlns:svg="http://www.w3.org/2000/svg"
   xmlns="http://www.w3.org/2000/svg"
   xmlns:xlink="http://www.w3.org/1999/xlink"
   xmlns:sodipodi="http://sodipodi.sourceforge.net/DTD/sodipodi-0.dtd"
   xmlns:inkscape="http://www.inkscape.org/namespaces/inkscape"
   id="svg2"
   version="1.1"
   inkscape:version="0.91 r13725"
   xml:space="preserve"
   width="800"
   height="525"
   viewBox="0 0 800 525"
   sodipodi:docname="Logo Ille Vilaine.svg"><metadata
     id="metadata8"><rdf:RDF><cc:Work
         rdf:about=""><dc:format>image/svg+xml</dc:format><dc:type
           rdf:resource="http://purl.org/dc/dcmitype/StillImage" /><dc:title></dc:title></cc:Work></rdf:RDF></metadata><defs
     id="defs6"><radialGradient
       id="radialGradient4522"
       spreadMethod="pad"
       gradientTransform="matrix(11.46575,-0.0283018,-0.84622,-11.84004,538.4346,103.7907)"
       gradientUnits="userSpaceOnUse"
       r="1"
       cy="0"
       cx="0"
       fy="0"
       fx="0"><stop
         id="stop4524"
         offset="0"
         style="stop-opacity:1;stop-color:#eb441c" /><stop
         style="stop-color:#c12f18;stop-opacity:1"
         offset="0.35197699"
         id="stop4528" /><stop
         id="stop4526"
         offset="1"
         style="stop-opacity:1;stop-color:#7b0c10" /></radialGradient><radialGradient
       inkscape:collect="always"
       xlink:href="#radialGradient4522"
       id="radialGradient4520"
       cx="536.24384"
       cy="108.80596"
       fx="536.24384"
       fy="108.80596"
       r="7.08355"
       gradientTransform="matrix(2.5080895,-0.52066113,0.34875414,1.6799954,-846.36253,203.63279)"
       gradientUnits="userSpaceOnUse" /></defs><sodipodi:namedview
     pagecolor="#ffffff"
     bordercolor="#666666"
     borderopacity="1"
     objecttolerance="10"
     gridtolerance="10"
     guidetolerance="10"
     inkscape:pageopacity="0"
     inkscape:pageshadow="2"
     inkscape:window-width="1440"
     inkscape:window-height="790"
     id="namedview4"
     showgrid="false"
     inkscape:zoom="0.46369996"
     inkscape:cx="642.87944"
     inkscape:cy="76.421201"
     inkscape:window-x="0"
     inkscape:window-y="1"
     inkscape:window-maximized="1"
     inkscape:current-layer="g10" /><g
     id="g10"
     inkscape:groupmode="layer"
     inkscape:label="Logo Ille Vilaine"
     transform="matrix(1.25,0,0,-1.25,-36.633875,559.0204)"><g
       id="g4545"
       transform="matrix(8.1928389,0,0,8.1928389,-4054.8526,-480.22846)"><path
         style="fill:url(#radialGradient4520);fill-opacity:1"
         d="m 542.567,105.512 c -3.913,-0.004 -7.072,-2.848 -7.058,-6.354 l 0,0 c 0.015,-3.506 3.199,-6.345 7.111,-6.343 l 0,0 c 3.91,0.003 7.071,2.848 7.056,6.353 l 0,0 c -0.015,3.505 -3.194,6.344 -7.104,6.344 l 0,0 -0.005,0 z"
         id="path4507"
         inkscape:connector-curvature="0" /><path
         inkscape:connector-curvature="0"
         id="path158"
         style="fill:#231f20;fill-opacity:1;fill-rule:nonzero;stroke:none"
         d="m 548.8826,88.0785 c -2.241,0.987 -14.394,6.262 -27.523,10.518 l 0.268,-5.991 c 13.603,-4.399 26.198,-9.915 27.857,-10.648 l -0.602,6.121 z" /><path
         inkscape:connector-curvature="0"
         id="path160"
         style="fill:#231f20;fill-opacity:1;fill-rule:nonzero;stroke:none"
         d="m 546.4197,113.1445 c -14.08,-1.089 -24.763,-4.021 -25.52,-4.232 l 0.257,-5.776 c 1.476,0.387 12.308,3.134 25.834,4.19 l -0.571,5.818 z" /></g><g
       id="g4464"
       transform="matrix(8.1928389,0,0,8.1928389,-4054.8526,-480.22846)"><path
         inkscape:connector-curvature="0"
         id="path116"
         style="fill:#231f20;fill-opacity:1;fill-rule:nonzero;stroke:none"
         d="m 510.1093,70.3598 c -0.525,0.056 -0.637,0.056 -0.637,1.033 l 0,8.803 c -0.595,0 -1.741,-0.128 -2.194,-0.226 l 0.042,-0.312 0.212,0.029 c 0.029,0 0.128,0.014 0.199,0.014 0.509,0 0.509,-0.652 0.509,-1.769 l 0,-6.539 c 0,-0.977 -0.127,-0.977 -0.623,-1.033 l -0.339,-0.043 0,-0.311 3.156,0 0,0.311 -0.325,0.043 z" /><path
         inkscape:connector-curvature="0"
         id="path118"
         style="fill:#231f20;fill-opacity:1;fill-rule:nonzero;stroke:none"
         d="m 517.0714,70.9115 c -0.198,-0.099 -0.736,-0.453 -1.599,-0.453 -1.911,0 -2.59,1.67 -2.646,2.548 1.217,0.283 2.858,0.722 4.472,1.514 -0.184,0.764 -0.595,2.137 -2.491,2.137 -1.627,0 -3.284,-1.273 -3.284,-3.665 0,-2.01 1.458,-3.199 3.241,-3.199 1.289,0 2.251,0.58 2.477,0.793 l -0.17,0.325 z m -2.675,5.251 c 1.076,0 1.43,-0.849 1.628,-1.727 -0.991,-0.326 -2.18,-0.622 -3.198,-0.806 0,1.033 0.367,2.533 1.57,2.533" /><path
         inkscape:connector-curvature="0"
         id="path120"
         style="fill:#231f20;fill-opacity:1;fill-rule:nonzero;stroke:none"
         d="m 534.7281,77.9027 c -0.212,0.524 -0.367,1.049 -0.834,1.089 l -0.411,0.044 0,0.311 3.524,0 0,-0.311 -0.439,-0.044 c -0.226,-0.027 -0.637,-0.07 -0.637,-0.352 0,-0.072 0.114,-0.397 0.184,-0.567 l 2.449,-6.312 c 0.325,0.85 2.547,6.355 2.547,6.793 0,0.283 -0.283,0.354 -0.552,0.398 l -0.637,0.084 0,0.311 3.058,0 0,-0.311 -0.368,-0.084 c -0.156,-0.03 -0.312,-0.115 -0.425,-0.228 -0.312,-0.311 -0.764,-1.67 -1.118,-2.35 l -0.962,-2.32 c -0.807,-1.953 -1.514,-3.68 -1.642,-4.048 -0.071,-0.057 -0.297,-0.155 -0.482,-0.212 l -3.255,8.109 z" /><path
         inkscape:connector-curvature="0"
         id="path122"
         style="fill:#231f20;fill-opacity:1;fill-rule:nonzero;stroke:none"
         d="m 557.5003,70.3452 c -0.057,-0.029 -0.113,-0.057 -0.255,-0.057 -0.779,0 -0.779,1.062 -0.779,2.053 l 0,2.024 c 0,1.443 -0.339,2.292 -1.952,2.292 -1.5,0 -2.407,-0.948 -2.831,-1.514 0.099,-0.255 0.212,-0.396 0.368,-0.566 l 0.113,0 c 0.269,0.524 0.623,1.415 1.755,1.415 1.062,0 1.317,-0.807 1.317,-1.74 l 0,-0.326 c -1.246,-0.368 -3.695,-0.92 -3.695,-2.761 0,-0.777 0.708,-1.372 1.755,-1.372 1.104,0 1.628,0.297 2.081,0.595 0.141,-0.298 0.396,-0.595 1.118,-0.595 0.595,0 0.892,0.227 1.076,0.354 l -0.071,0.198 z m -2.264,2.916 0,-2.392 c -0.099,-0.141 -0.454,-0.581 -1.076,-0.581 -0.807,0 -1.317,0.482 -1.317,1.288 0,1.331 1.387,1.685 2.195,1.685 l 0.198,0 z" /><path
         inkscape:connector-curvature="0"
         id="path124"
         style="fill:#231f20;fill-opacity:1;fill-rule:nonzero;stroke:none"
         d="m 576.3936,70.9115 c -0.198,-0.099 -0.736,-0.453 -1.599,-0.453 -1.911,0 -2.59,1.67 -2.646,2.548 1.217,0.283 2.858,0.722 4.472,1.514 -0.184,0.764 -0.596,2.137 -2.491,2.137 -1.628,0 -3.284,-1.273 -3.284,-3.665 0,-2.01 1.458,-3.199 3.241,-3.199 1.289,0 2.25,0.58 2.477,0.793 l -0.17,0.325 z m -2.675,5.251 c 1.076,0 1.43,-0.849 1.628,-1.727 -0.991,-0.326 -2.18,-0.622 -3.198,-0.806 0,1.033 0.367,2.533 1.57,2.533" /><path
         inkscape:connector-curvature="0"
         id="path162"
         style="fill:#231f20;fill-opacity:1;fill-rule:nonzero;stroke:none"
         d="m 526.0202,70.5766 c -2.102,0 -3.481,1.241 -3.481,3.05 0,1.31 0.707,1.896 1.31,2.257 1.602,-1.878 3.326,-3.153 4.842,-4.342 -0.293,-0.327 -1.207,-0.965 -2.671,-0.965 m 4.049,1.499 c 0.397,0.535 1.068,1.309 1.068,2.946 0,1.758 -1.239,2.809 -2.256,2.809 -0.5,0 -0.913,-0.189 -1.327,-0.344 l 0,-0.155 c 0.913,-0.224 2.55,-1.12 2.55,-3.24 0,-0.551 -0.206,-1.154 -0.517,-1.585 -1.327,1.051 -3.481,2.98 -4.532,4.187 0.069,0.069 2.584,1.568 2.584,3.274 0,0.965 -0.671,1.689 -1.74,1.689 -0.257,0 -0.764,-0.113 -0.764,-0.113 1.059,-0.598 1.163,-1.197 1.163,-1.197 0.089,-0.231 0.136,-0.503 0.136,-0.792 0,-1.293 -1.142,-2.062 -1.707,-2.413 -0.012,-0.007 -0.025,-0.016 -0.038,-0.024 -0.274,0.38 -0.607,1 -0.644,1.812 0,0 -0.836,-1.331 -0.453,-2.517 -0.013,-0.008 -0.022,-0.014 -0.022,-0.014 -0.827,-0.552 -2.616,-1.634 -2.616,-3.479 0,-1.929 1.896,-3.152 3.929,-3.152 2.463,0 3.567,0.86 4.29,1.377 0.845,-0.637 1.844,-1.43 2.206,-2.033 l 0.225,0 c 0,1.052 -0.449,2.051 -1.535,2.964" /><path
         inkscape:connector-curvature="0"
         id="path164"
         style="fill:#231f20;fill-opacity:1;fill-rule:nonzero;stroke:none"
         d="m 501.4336,78.5999 0.509,0.042 0,0.312 -3.439,0 0,-0.312 0.509,-0.042 c 0.552,-0.057 0.552,-0.127 0.552,-1.854 l 0,-4.532 c 0,-0.402 0,-0.71 -0.007,-0.953 l -0.002,-1.255 2.387,0 0,0.311 -0.509,0.043 c -0.553,0.056 -0.553,0.128 -0.553,1.854 l 0,4.532 c 0,1.727 0,1.797 0.553,1.854" /><path
         inkscape:connector-curvature="0"
         id="path166"
         style="fill:#231f20;fill-opacity:1;fill-rule:nonzero;stroke:none"
         d="m 505.9191,70.3598 c -0.523,0.056 -0.637,0.056 -0.637,1.033 l 0,8.803 c -0.594,0 -1.74,-0.128 -2.194,-0.226 l 0.043,-0.312 0.212,0.029 c 0.029,0 0.128,0.014 0.199,0.014 0.509,0 0.509,-0.652 0.509,-1.769 l 0,-6.539 c 0,-0.132 -0.003,-0.245 -0.008,-0.344 l -10e-4,-1.043 2.202,0 0,0.311 -0.325,0.043 z" /><path
         inkscape:connector-curvature="0"
         id="path168"
         style="fill:#231f20;fill-opacity:1;fill-rule:nonzero;stroke:none"
         d="m 544.3331,77.315 c 0.467,0 0.793,0.383 0.793,0.792 0,0.425 -0.326,0.793 -0.793,0.793 -0.467,0 -0.793,-0.368 -0.793,-0.793 0,-0.409 0.326,-0.792 0.793,-0.792" /><path
         inkscape:connector-curvature="0"
         id="path170"
         style="fill:#231f20;fill-opacity:1;fill-rule:nonzero;stroke:none"
         d="m 545.7345,70.3598 c -0.524,0.056 -0.637,0.084 -0.637,1.033 l 0,5.264 c -0.495,0 -1.783,-0.368 -2.194,-0.495 l 0.057,-0.339 0.311,0.085 c 0.028,0 0.128,0.014 0.198,0.014 0.397,0 0.397,-0.397 0.397,-1.783 l 0,-2.746 c 0,-0.124 -0.002,-0.231 -0.007,-0.325 l -0.002,-1.062 2.203,0 0,0.311 -0.326,0.043 z" /><path
         inkscape:connector-curvature="0"
         id="path172"
         style="fill:#231f20;fill-opacity:1;fill-rule:nonzero;stroke:none"
         d="m 550.0415,70.3598 c -0.523,0.056 -0.637,0.056 -0.637,1.033 l 0,8.803 c -0.594,0 -1.741,-0.128 -2.194,-0.226 l 0.044,-0.312 0.212,0.029 c 0.027,0 0.127,0.014 0.197,0.014 0.51,0 0.51,-0.652 0.51,-1.769 l 0,-6.539 c 0,-0.128 -0.002,-0.238 -0.007,-0.335 l -0.002,-1.052 2.202,0 0,0.311 -0.325,0.043 z" /><path
         inkscape:connector-curvature="0"
         id="path174"
         style="fill:#231f20;fill-opacity:1;fill-rule:nonzero;stroke:none"
         d="m 559.7216,77.315 c 0.467,0 0.793,0.383 0.793,0.792 0,0.425 -0.326,0.793 -0.793,0.793 -0.467,0 -0.792,-0.368 -0.792,-0.793 0,-0.409 0.325,-0.792 0.792,-0.792" /><path
         inkscape:connector-curvature="0"
         id="path176"
         style="fill:#231f20;fill-opacity:1;fill-rule:nonzero;stroke:none"
         d="m 561.123,70.3598 c -0.524,0.056 -0.637,0.084 -0.637,1.033 l 0,5.264 c -0.495,0 -1.784,-0.368 -2.194,-0.495 l 0.057,-0.339 0.311,0.085 c 0.029,0 0.128,0.014 0.198,0.014 0.397,0 0.397,-0.397 0.397,-1.783 l 0,-2.746 c 0,-0.107 -0.002,-0.201 -0.006,-0.285 l -10e-4,-1.102 2.201,0 0,0.311 -0.326,0.043 z" /><path
         inkscape:connector-curvature="0"
         id="path178"
         style="fill:#231f20;fill-opacity:1;fill-rule:nonzero;stroke:none"
         d="m 569.6288,70.3598 c -0.523,0.056 -0.637,0.128 -0.637,1.033 l 0,2.108 c 0,1.628 0,3.156 -2.208,3.156 -1.075,0 -1.84,-0.594 -2.165,-0.891 l 0,0.891 c -0.495,0 -1.783,-0.368 -2.194,-0.495 l 0.056,-0.339 0.312,0.085 c 0.029,0 0.128,0.014 0.198,0.014 0.396,0 0.396,-0.397 0.396,-1.783 l 0,-2.746 c 0,-0.09 -10e-4,-0.17 -0.004,-0.244 l -0.002,-1.143 2.2,0 0,0.311 -0.325,0.043 c -0.524,0.056 -0.637,0.128 -0.637,1.033 l 0,3.835 c 0.254,0.326 0.708,0.764 1.458,0.764 1.683,0 1.683,-1.373 1.683,-2.702 l 0,-1.897 c 0,-0.122 -0.002,-0.229 -0.007,-0.322 l -0.002,-1.065 2.203,0 0,0.311 -0.325,0.043 z" /><path
         inkscape:connector-curvature="0"
         id="path180"
         style="fill:#231f20;fill-opacity:1;fill-rule:nonzero;stroke:none"
         d="m 523.6624,80.2983 0.698,0.875 0.467,-0.875 -0.694,-0.877 -0.471,0.877 z" /><path
         inkscape:connector-curvature="0"
         id="path182"
         style="fill:#231f20;fill-opacity:1;fill-rule:nonzero;stroke:none"
         d="m 522.6053,79.1847 0.698,0.876 0.468,-0.876 -0.695,-0.876 -0.471,0.876 z" /><path
         inkscape:connector-curvature="0"
         id="path184"
         style="fill:#231f20;fill-opacity:1;fill-rule:nonzero;stroke:none"
         d="m 524.4395,79.1773 0.698,0.875 0.468,-0.875 -0.695,-0.877 -0.471,0.877 z" /></g><g
       id="g4530"
       transform="matrix(8.1928389,0,0,8.1928389,-4054.8526,-480.22846)"><path
         inkscape:connector-curvature="0"
         id="path186"
         style="fill:#231f20;fill-opacity:1;fill-rule:nonzero;stroke:none"
         d="m 508.5186,65.4636 0.562,0 0,-3.157 1.303,0 0,-0.368 -1.865,0 0,3.525 z" /><path
         inkscape:connector-curvature="0"
         id="path188"
         style="fill:#231f20;fill-opacity:1;fill-rule:nonzero;stroke:none"
         d="m 512.3201,65.4636 1.86,0 0,-0.337 -1.298,0 0,-1.186 1.226,0 0,-0.337 -1.226,0 0,-1.297 1.339,0 0,-0.368 -1.901,0 0,3.525 z" /><path
         inkscape:connector-curvature="0"
         id="path190"
         style="fill:#231f20;fill-opacity:1;fill-rule:nonzero;stroke:none"
         d="m 519.8314,62.2751 0.23,0 c 0.868,0 1.037,0.516 1.037,1.462 0,1.241 -0.45,1.389 -1.037,1.389 l -0.23,0 0,-2.851 z m -0.562,3.188 0.792,0 c 0.966,0 1.599,-0.332 1.599,-1.726 0,-1.467 -0.628,-1.799 -1.599,-1.799 l -0.792,0 0,3.525 z" /><path
         inkscape:connector-curvature="0"
         id="path192"
         style="fill:#231f20;fill-opacity:1;fill-rule:nonzero;stroke:none"
         d="m 523.8322,65.4636 1.86,0 0,-0.337 -1.298,0 0,-1.186 1.226,0 0,-0.337 -1.226,0 0,-1.297 1.339,0 0,-0.368 -1.901,0 0,3.525 z" /><path
         inkscape:connector-curvature="0"
         id="path194"
         style="fill:#231f20;fill-opacity:1;fill-rule:nonzero;stroke:none"
         d="m 528.39,63.8287 0.164,0 c 0.423,0 0.802,0.056 0.802,0.664 0,0.537 -0.307,0.634 -0.802,0.634 l -0.164,0 0,-1.298 z m -0.562,1.635 0.726,0 c 0.776,0 1.364,-0.143 1.364,-0.971 0,-0.955 -0.838,-0.996 -1.364,-1.001 l -0.164,0 0,-1.554 -0.562,0 0,3.526 z" /><path
         inkscape:connector-curvature="0"
         id="path196"
         style="fill:#231f20;fill-opacity:1;fill-rule:nonzero;stroke:none"
         d="m 532.4879,63.3226 1.007,0 -0.496,1.635 -0.01,0 -0.501,-1.635 z m 0.25,2.141 0.583,0 1.18,-3.526 -0.582,0 -0.322,1.048 -1.216,0 -0.322,-1.048 -0.496,0 1.175,3.526 z" /><path
         inkscape:connector-curvature="0"
         id="path198"
         style="fill:#231f20;fill-opacity:1;fill-rule:nonzero;stroke:none"
         d="m 537.0505,63.8439 0.21,0 c 0.357,0 0.807,0.113 0.807,0.669 0,0.476 -0.276,0.614 -0.807,0.614 l -0.21,0 0,-1.283 z m -0.562,1.62 0.772,0 c 0.592,0 1.369,-0.082 1.369,-0.925 0,-0.567 -0.455,-0.766 -0.756,-0.823 l 0,-0.01 c 0.531,-0.087 0.603,-0.44 0.69,-0.853 l 0.189,-0.915 -0.567,0 -0.2,0.94 c -0.076,0.302 -0.179,0.629 -0.725,0.629 l -0.21,0 0,-1.569 -0.562,0 0,3.526 z" /><path
         inkscape:connector-curvature="0"
         id="path200"
         style="fill:#231f20;fill-opacity:1;fill-rule:nonzero;stroke:none"
         d="m 541.3069,65.1265 -0.853,0 0,0.337 2.268,0 0,-0.337 -0.853,0 0,-3.188 -0.562,0 0,3.188 z" /><path
         inkscape:connector-curvature="0"
         id="path202"
         style="fill:#231f20;fill-opacity:1;fill-rule:nonzero;stroke:none"
         d="m 544.664,65.4636 1.86,0 0,-0.337 -1.298,0 0,-1.186 1.226,0 0,-0.337 -1.226,0 0,-1.297 1.339,0 0,-0.368 -1.901,0 0,3.525 z" /><path
         inkscape:connector-curvature="0"
         id="path204"
         style="fill:#231f20;fill-opacity:1;fill-rule:nonzero;stroke:none"
         d="m 548.6647,65.4636 0.751,0 0.976,-2.866 0.01,0 0.981,2.866 0.726,0 0,-3.525 -0.506,0 0,3.045 -0.01,0 -1.032,-3.045 -0.43,0 -1.032,3.045 -0.01,0 0,-3.045 -0.424,0 0,3.525 z" /><path
         inkscape:connector-curvature="0"
         id="path206"
         style="fill:#231f20;fill-opacity:1;fill-rule:nonzero;stroke:none"
         d="m 554.4538,65.4636 1.86,0 0,-0.337 -1.298,0 0,-1.186 1.227,0 0,-0.337 -1.227,0 0,-1.297 1.339,0 0,-0.368 -1.901,0 0,3.525 z" /><path
         inkscape:connector-curvature="0"
         id="path208"
         style="fill:#231f20;fill-opacity:1;fill-rule:nonzero;stroke:none"
         d="m 558.4547,65.4636 0.623,0 1.401,-2.79 0.01,0 0,2.79 0.465,0 0,-3.525 -0.583,0 -1.441,2.871 -0.01,0 0,-2.871 -0.465,0 0,3.525 z" /><path
         inkscape:connector-curvature="0"
         id="path210"
         style="fill:#231f20;fill-opacity:1;fill-rule:nonzero;stroke:none"
         d="m 563.7482,65.1265 -0.853,0 0,0.337 2.268,0 0,-0.337 -0.853,0 0,-3.188 -0.562,0 0,3.188 z" /></g></g></svg>