<?xml version="1.0" encoding="UTF-8" standalone="no"?>
<!-- Created with Inkscape (http://www.inkscape.org/) -->

<svg
   xmlns:dc="http://purl.org/dc/elements/1.1/"
   xmlns:cc="http://creativecommons.org/ns#"
   xmlns:rdf="http://www.w3.org/1999/02/22-rdf-syntax-ns#"
   xmlns:svg="http://www.w3.org/2000/svg"
   xmlns="http://www.w3.org/2000/svg"
   xmlns:xlink="http://www.w3.org/1999/xlink"
   xmlns:sodipodi="http://sodipodi.sourceforge.net/DTD/sodipodi-0.dtd"
   xmlns:inkscape="http://www.inkscape.org/namespaces/inkscape"
   id="svg2"
   version="1.1"
   inkscape:version="0.91 r13725"
   xml:space="preserve"
   width="800"
   height="460"
   viewBox="0 0 800 460"
   sodipodi:docname="Logo Département Landes.svg"><metadata
     id="metadata8"><rdf:RDF><cc:Work
         rdf:about=""><dc:format>image/svg+xml</dc:format><dc:type
           rdf:resource="http://purl.org/dc/dcmitype/StillImage" /><dc:title /></cc:Work></rdf:RDF></metadata><defs
     id="defs6"><linearGradient
       inkscape:collect="always"
       id="linearGradient4191"><stop
         style="stop-color:#5cc5e9;stop-opacity:1"
         offset="0"
         id="stop4193" /><stop
         id="stop4199"
         offset="0.26335666"
         style="stop-color:#5cc5e9;stop-opacity:1" /><stop
         style="stop-color:#4eb5dd;stop-opacity:1"
         offset="0.53079438"
         id="stop4201" /><stop
         id="stop4203"
         offset="0.73239291"
         style="stop-color:#258cbe;stop-opacity:1" /><stop
         style="stop-color:#000000;stop-opacity:0"
         offset="1"
         id="stop4195" /></linearGradient><linearGradient
       inkscape:collect="always"
       xlink:href="#linearGradient4191"
       id="linearGradient4197"
       x1="-4.8645382"
       y1="239.98389"
       x2="389.16306"
       y2="236.74086"
       gradientUnits="userSpaceOnUse" /></defs><sodipodi:namedview
     pagecolor="#ffffff"
     bordercolor="#666666"
     borderopacity="1"
     objecttolerance="10"
     gridtolerance="10"
     guidetolerance="10"
     inkscape:pageopacity="0"
     inkscape:pageshadow="2"
     inkscape:window-width="1440"
     inkscape:window-height="790"
     id="namedview4"
     showgrid="false"
     inkscape:zoom="0.49336647"
     inkscape:cx="317.65958"
     inkscape:cy="79.454583"
     inkscape:window-x="0"
     inkscape:window-y="1"
     inkscape:window-maximized="1"
     inkscape:current-layer="g10" /><g
     id="g10"
     inkscape:groupmode="layer"
     inkscape:label="Landes"
     transform="matrix(1.25,0,0,-1.25,0,460)"><g
       id="g4209"><g
         id="g4205"><path
           inkscape:connector-curvature="0"
           id="path23944"
           d="M 15.791565,320.86226 94.453043,249.1232 1.45956e-5,173.8612 114.39988,120.48432 l 84.21666,73.989 c 0,0 87.38683,-68.0237 87.46831,-68.0681 l 0,0 102.0229,-0.0296 -140.20557,115.47229 125.78429,98.52371 -87.60162,22.63263 c -0.0815,-0.0148 -79.59475,-61.86597 -79.59475,-61.86597 l 0,0 L 135.29479,368 15.791565,320.86226 Z"
           style="fill:url(#linearGradient4197);fill-opacity:1" /><path
           d="m 286.0967,363.01312 c 0.10369,0.0222 90.53477,-22.87686 90.53477,-22.87686 l 0,-142.72321 108.71134,3.92259 -2.85166,-74.92894 -196.39445,0 0,236.60642 z"
           style="fill:#006a2a;fill-opacity:1;fill-rule:nonzero;stroke:none"
           id="path3424"
           inkscape:connector-curvature="0" /></g><g
         transform="matrix(7.4069188,0,0,7.4011206,-3588.9262,-108.50635)"
         id="g23912"><path
           d="m 525.006,23.423 0.489,0 c 1.085,0 1.78,0.65 1.78,1.872 0,1.208 -0.71,1.857 -1.78,1.857 l -0.657,0 0,-3.561 c 0,-0.107 0.061,-0.168 0.168,-0.168 m -1.17,3.729 -0.496,0 0,0.848 2.209,0 c 1.673,0 2.766,-0.993 2.766,-2.705 0,-1.712 -1.093,-2.72 -2.766,-2.72 l -1.193,0 c -0.367,0 -0.52,0.152 -0.52,0.52 l 0,4.057 z"
           style="fill:#000000;fill-opacity:1;fill-rule:nonzero;stroke:none"
           id="path3426"
           inkscape:connector-curvature="0" /><path
           d="m 530.9896,27.993 0.932,0 -0.802,-1.039 -0.711,0 0.581,1.039 z m 0.55,-2.966 c -0.015,0.467 -0.337,0.787 -0.733,0.787 -0.497,0 -0.848,-0.297 -0.956,-0.787 l 1.689,0 z m -0.733,1.537 c 1.115,0 1.727,-0.818 1.727,-1.849 0,-0.115 -0.024,-0.36 -0.024,-0.36 l -2.69,0 c 0.078,-0.688 0.581,-1.046 1.17,-1.046 0.626,0 1.092,0.434 1.092,0.434 l 0.406,-0.671 c 0,0 -0.596,-0.588 -1.567,-0.588 -1.291,0 -2.094,0.931 -2.094,2.038 0,1.201 0.81,2.042 1.98,2.042"
           style="fill:#000000;fill-opacity:1;fill-rule:nonzero;stroke:none"
           id="path3428"
           inkscape:connector-curvature="0" /><path
           d="m 535.376,23.3006 c 0.535,0 0.985,0.436 0.985,1.208 0,0.741 -0.396,1.222 -0.97,1.222 -0.505,0 -0.977,-0.366 -0.977,-1.23 0,-0.604 0.32,-1.2 0.962,-1.2 m -1.902,2.178 c 0,0.114 -0.062,0.168 -0.169,0.168 l -0.306,0 0,0.825 0.864,0 c 0.359,0 0.489,-0.16 0.489,-0.374 l 0,-0.153 0.016,0 c 0,0 0.328,0.618 1.237,0.618 1.055,0 1.735,-0.832 1.735,-2.039 0,-1.238 -0.764,-2.04 -1.788,-2.04 -0.772,0 -1.115,0.511 -1.115,0.511 l -0.016,0 c 0,0 0.016,-0.138 0.016,-0.335 l 0,-1.613 -0.963,0 0,4.432 z"
           style="fill:#000000;fill-opacity:1;fill-rule:nonzero;stroke:none"
           id="path3430"
           inkscape:connector-curvature="0" /><path
           d="m 539.3655,23.2398 c 0.52,0 0.886,0.55 0.886,1.024 l 0,0.091 -0.168,0 c -0.505,0 -1.306,-0.069 -1.306,-0.611 0,-0.26 0.19,-0.504 0.588,-0.504 m 0.749,1.78 0.122,0 0,0.031 c 0,0.558 -0.221,0.764 -0.719,0.764 -0.175,0 -0.519,-0.046 -0.519,-0.26 l 0,-0.206 -0.902,0 0,0.413 c 0,0.725 1.025,0.802 1.429,0.802 1.3,0 1.681,-0.68 1.681,-1.552 l 0,-1.452 c 0,-0.107 0.062,-0.168 0.169,-0.168 l 0.305,0 0,-0.817 -0.87,0 c -0.36,0 -0.498,0.198 -0.498,0.429 0,0.098 0.008,0.166 0.008,0.166 l -0.015,0 c 0,0 -0.298,-0.686 -1.177,-0.686 -0.695,0 -1.329,0.436 -1.329,1.215 0,1.222 1.68,1.321 2.315,1.321"
           style="fill:#000000;fill-opacity:1;fill-rule:nonzero;stroke:none"
           id="path3432"
           inkscape:connector-curvature="0" /><path
           d="m 542.4607,25.4789 c 0,0.114 -0.061,0.168 -0.168,0.168 l -0.306,0 0,0.825 0.887,0 c 0.344,0 0.519,-0.145 0.519,-0.473 l 0,-0.23 c 0,-0.145 -0.016,-0.244 -0.016,-0.244 l 0.016,0 c 0.176,0.558 0.642,1 1.239,1 0.083,0 0.175,-0.015 0.175,-0.015 l 0,-0.955 c 0,0 -0.1,0.015 -0.237,0.015 -0.413,0 -0.886,-0.236 -1.063,-0.817 -0.053,-0.191 -0.084,-0.404 -0.084,-0.635 l 0,-1.543 -0.962,0 0,2.904 z"
           style="fill:#000000;fill-opacity:1;fill-rule:nonzero;stroke:none"
           id="path3434"
           inkscape:connector-curvature="0" /><path
           d="m 545.6243,25.7002 -0.505,0 0,0.772 0.528,0 0,1.062 0.947,0 0,-1.062 0.887,0 0,-0.772 -0.887,0 0,-1.574 c 0,-0.642 0.505,-0.734 0.772,-0.734 0.107,0 0.176,0.016 0.176,0.016 l 0,-0.848 c 0,0 -0.122,-0.024 -0.298,-0.024 -0.543,0 -1.62,0.161 -1.62,1.468 l 0,1.696 z"
           style="fill:#000000;fill-opacity:1;fill-rule:nonzero;stroke:none"
           id="path3436"
           inkscape:connector-curvature="0" /><path
           d="m 550.6988,25.0276 c -0.016,0.467 -0.336,0.787 -0.734,0.787 -0.497,0 -0.848,-0.297 -0.954,-0.787 l 1.688,0 z m -0.734,1.536 c 1.116,0 1.727,-0.818 1.727,-1.848 0,-0.117 -0.023,-0.361 -0.023,-0.361 l -2.689,0 c 0.076,-0.687 0.581,-1.046 1.168,-1.046 0.627,0 1.094,0.435 1.094,0.435 l 0.404,-0.673 c 0,0 -0.596,-0.587 -1.566,-0.587 -1.292,0 -2.095,0.931 -2.095,2.039 0,1.201 0.811,2.041 1.98,2.041"
           style="fill:#000000;fill-opacity:1;fill-rule:nonzero;stroke:none"
           id="path3438"
           inkscape:connector-curvature="0" /><path
           d="m 552.6324,25.4789 c 0,0.114 -0.061,0.168 -0.169,0.168 l -0.305,0 0,0.825 0.893,0 c 0.345,0 0.513,-0.16 0.513,-0.435 l 0,-0.114 c 0,-0.085 -0.008,-0.17 -0.008,-0.17 l 0.015,0 c 0.184,0.383 0.65,0.811 1.262,0.811 0.588,0 0.97,-0.275 1.138,-0.803 l 0.015,0 c 0.207,0.421 0.71,0.803 1.329,0.803 0.811,0 1.277,-0.458 1.277,-1.483 l 0,-1.521 c 0,-0.106 0.061,-0.167 0.169,-0.167 l 0.297,0 0,-0.818 -0.917,0 c -0.366,0 -0.519,0.153 -0.519,0.52 l 0,1.803 c 0,0.443 -0.085,0.779 -0.535,0.779 -0.482,0 -0.825,-0.404 -0.932,-0.894 -0.046,-0.152 -0.062,-0.312 -0.062,-0.497 l 0,-1.711 -0.97,0 0,2.323 c 0,0.421 -0.062,0.779 -0.527,0.779 -0.489,0 -0.818,-0.404 -0.941,-0.901 -0.038,-0.153 -0.061,-0.314 -0.061,-0.49 l 0,-1.711 -0.962,0 0,2.904 z"
           style="fill:#000000;fill-opacity:1;fill-rule:nonzero;stroke:none"
           id="path3440"
           inkscape:connector-curvature="0" /><path
           d="m 562.162,25.0276 c -0.016,0.467 -0.336,0.787 -0.734,0.787 -0.497,0 -0.847,-0.297 -0.955,-0.787 l 1.689,0 z m -0.734,1.536 c 1.115,0 1.727,-0.818 1.727,-1.848 0,-0.117 -0.023,-0.361 -0.023,-0.361 l -2.689,0 c 0.076,-0.687 0.581,-1.046 1.168,-1.046 0.627,0 1.094,0.435 1.094,0.435 l 0.404,-0.673 c 0,0 -0.596,-0.587 -1.566,-0.587 -1.292,0 -2.094,0.931 -2.094,2.039 0,1.201 0.811,2.041 1.979,2.041"
           style="fill:#000000;fill-opacity:1;fill-rule:nonzero;stroke:none"
           id="path3442"
           inkscape:connector-curvature="0" /><path
           d="m 564.0955,25.4789 c 0,0.114 -0.061,0.168 -0.169,0.168 l -0.305,0 0,0.825 0.895,0 c 0.343,0 0.511,-0.16 0.511,-0.435 l 0,-0.114 c 0,-0.085 -0.016,-0.17 -0.016,-0.17 l 0.016,0 c 0.167,0.33 0.588,0.811 1.375,0.811 0.864,0 1.361,-0.451 1.361,-1.483 l 0,-1.521 c 0,-0.106 0.061,-0.167 0.168,-0.167 l 0.305,0 0,-0.818 -0.924,0 c -0.367,0 -0.52,0.153 -0.52,0.52 l 0,1.788 c 0,0.474 -0.122,0.794 -0.611,0.794 -0.519,0 -0.909,-0.328 -1.047,-0.794 -0.053,-0.16 -0.077,-0.337 -0.077,-0.52 l 0,-1.788 -0.962,0 0,2.904 z"
           style="fill:#000000;fill-opacity:1;fill-rule:nonzero;stroke:none"
           id="path3444"
           inkscape:connector-curvature="0" /><path
           d="m 569.0247,25.7002 -0.504,0 0,0.772 0.527,0 0,1.062 0.947,0 0,-1.062 0.886,0 0,-0.772 -0.886,0 0,-1.574 c 0,-0.642 0.505,-0.734 0.771,-0.734 0.108,0 0.177,0.016 0.177,0.016 l 0,-0.848 c 0,0 -0.122,-0.024 -0.298,-0.024 -0.543,0 -1.62,0.161 -1.62,1.468 l 0,1.696 z"
           style="fill:#000000;fill-opacity:1;fill-rule:nonzero;stroke:none"
           id="path3446"
           inkscape:connector-curvature="0" /><path
           d="m 526.2515,16.7088 c 0,0.604 -0.313,1.2 -0.962,1.2 -0.536,0 -0.979,-0.436 -0.979,-1.208 0,-0.741 0.39,-1.222 0.963,-1.222 0.504,0 0.978,0.367 0.978,1.23 m -1.155,2.033 c 0.849,0 1.124,-0.473 1.124,-0.473 l 0.015,0 c 0,0 -0.007,0.098 -0.007,0.228 l 0,0.688 c 0,0.114 -0.061,0.168 -0.168,0.168 l -0.306,0 0,0.826 0.924,0 c 0.36,0 0.52,-0.161 0.52,-0.52 l 0,-3.92 c 0,-0.107 0.061,-0.168 0.168,-0.168 l 0.299,0 0,-0.819 -0.894,0 c -0.352,0 -0.482,0.17 -0.482,0.398 l 0,0.145 -0.015,0 c 0,0 -0.321,-0.634 -1.216,-0.634 -1.054,0 -1.734,0.833 -1.734,2.04 0,1.239 0.741,2.041 1.772,2.041"
           style="fill:#000000;fill-opacity:1;fill-rule:nonzero;stroke:none"
           id="path3448"
           inkscape:connector-curvature="0" /><path
           d="m 530.7909,17.2058 c -0.015,0.467 -0.336,0.787 -0.734,0.787 -0.496,0 -0.848,-0.298 -0.954,-0.787 l 1.688,0 z m -0.734,1.536 c 1.116,0 1.727,-0.818 1.727,-1.849 0,-0.116 -0.022,-0.36 -0.022,-0.36 l -2.69,0 c 0.076,-0.687 0.581,-1.046 1.168,-1.046 0.627,0 1.094,0.435 1.094,0.435 l 0.404,-0.673 c 0,0 -0.596,-0.587 -1.566,-0.587 -1.292,0 -2.094,0.932 -2.094,2.039 0,1.201 0.81,2.041 1.979,2.041"
           style="fill:#000000;fill-opacity:1;fill-rule:nonzero;stroke:none"
           id="path3450"
           inkscape:connector-curvature="0" /><path
           d="m 532.7396,15.9909 c 0,0 0.497,-0.574 1.161,-0.574 0.299,0 0.527,0.123 0.527,0.383 0,0.55 -2.055,0.542 -2.055,1.803 0,0.78 0.703,1.139 1.513,1.139 0.527,0 1.368,-0.176 1.368,-0.81 l 0,-0.405 -0.856,0 0,0.191 c 0,0.183 -0.275,0.276 -0.489,0.276 -0.344,0 -0.58,-0.124 -0.58,-0.353 0,-0.611 2.07,-0.488 2.07,-1.788 0,-0.733 -0.649,-1.192 -1.498,-1.192 -1.069,0 -1.62,0.696 -1.62,0.696 l 0.459,0.634 z"
           style="fill:#000000;fill-opacity:1;fill-rule:nonzero;stroke:none"
           id="path3452"
           inkscape:connector-curvature="0" /><path
           d="m 538.4485,19.162 c 0,0.107 -0.061,0.168 -0.168,0.168 l -0.329,0 0,0.848 0.979,0 c 0.366,0 0.519,-0.16 0.519,-0.519 l 0,-3.89 c 0,-0.107 0.061,-0.168 0.168,-0.168 l 1.185,0 c 0.106,0 0.167,0.061 0.167,0.168 l 0,0.329 0.909,0 0,-0.825 c 0,-0.368 -0.152,-0.52 -0.519,-0.52 l -2.391,0 c -0.368,0 -0.52,0.152 -0.52,0.52 l 0,3.889 z"
           style="fill:#000000;fill-opacity:1;fill-rule:nonzero;stroke:none"
           id="path3454"
           inkscape:connector-curvature="0" /><path
           d="m 543.7752,15.4174 c 0.519,0 0.886,0.551 0.886,1.024 l 0,0.091 -0.168,0 c -0.505,0 -1.307,-0.069 -1.307,-0.611 0,-0.259 0.191,-0.504 0.589,-0.504 m 0.749,1.781 0.122,0 0,0.03 c 0,0.558 -0.221,0.764 -0.719,0.764 -0.175,0 -0.519,-0.046 -0.519,-0.26 l 0,-0.206 -0.902,0 0,0.413 c 0,0.726 1.024,0.802 1.43,0.802 1.299,0 1.68,-0.68 1.68,-1.552 l 0,-1.452 c 0,-0.107 0.061,-0.167 0.168,-0.167 l 0.306,0 0,-0.818 -0.871,0 c -0.359,0 -0.497,0.198 -0.497,0.429 0,0.099 0.008,0.167 0.008,0.167 l -0.016,0 c 0,0 -0.298,-0.687 -1.176,-0.687 -0.696,0 -1.329,0.436 -1.329,1.215 0,1.222 1.68,1.322 2.315,1.322"
           style="fill:#000000;fill-opacity:1;fill-rule:nonzero;stroke:none"
           id="path3456"
           inkscape:connector-curvature="0" /><path
           d="m 546.8702,17.6565 c 0,0.114 -0.061,0.168 -0.168,0.168 l -0.306,0 0,0.825 0.895,0 c 0.343,0 0.511,-0.16 0.511,-0.435 l 0,-0.114 c 0,-0.085 -0.015,-0.169 -0.015,-0.169 l 0.015,0 c 0.168,0.329 0.588,0.81 1.375,0.81 0.864,0 1.361,-0.451 1.361,-1.482 l 0,-1.522 c 0,-0.106 0.061,-0.167 0.168,-0.167 l 0.305,0 0,-0.818 -0.924,0 c -0.367,0 -0.519,0.153 -0.519,0.52 l 0,1.788 c 0,0.474 -0.123,0.794 -0.611,0.794 -0.521,0 -0.91,-0.328 -1.049,-0.794 -0.053,-0.16 -0.076,-0.336 -0.076,-0.519 l 0,-1.789 -0.962,0 0,2.904 z"
           style="fill:#000000;fill-opacity:1;fill-rule:nonzero;stroke:none"
           id="path3458"
           inkscape:connector-curvature="0" /><path
           d="m 554.3212,16.7088 c 0,0.604 -0.313,1.2 -0.963,1.2 -0.535,0 -0.978,-0.436 -0.978,-1.208 0,-0.741 0.39,-1.222 0.963,-1.222 0.504,0 0.978,0.367 0.978,1.23 m -1.155,2.033 c 0.849,0 1.124,-0.473 1.124,-0.473 l 0.015,0 c 0,0 -0.007,0.098 -0.007,0.228 l 0,0.688 c 0,0.114 -0.061,0.168 -0.168,0.168 l -0.306,0 0,0.826 0.924,0 c 0.36,0 0.52,-0.161 0.52,-0.52 l 0,-3.92 c 0,-0.107 0.061,-0.168 0.168,-0.168 l 0.299,0 0,-0.819 -0.894,0 c -0.352,0 -0.482,0.17 -0.482,0.398 l 0,0.145 -0.015,0 c 0,0 -0.321,-0.634 -1.216,-0.634 -1.053,0 -1.734,0.833 -1.734,2.04 0,1.239 0.742,2.041 1.772,2.041"
           style="fill:#000000;fill-opacity:1;fill-rule:nonzero;stroke:none"
           id="path3460"
           inkscape:connector-curvature="0" /><path
           d="m 558.8605,17.2058 c -0.015,0.467 -0.337,0.787 -0.734,0.787 -0.496,0 -0.848,-0.298 -0.954,-0.787 l 1.688,0 z m -0.734,1.536 c 1.116,0 1.727,-0.818 1.727,-1.849 0,-0.116 -0.022,-0.36 -0.022,-0.36 l -2.69,0 c 0.076,-0.687 0.58,-1.046 1.169,-1.046 0.626,0 1.093,0.435 1.093,0.435 l 0.404,-0.673 c 0,0 -0.596,-0.587 -1.566,-0.587 -1.291,0 -2.094,0.932 -2.094,2.039 0,1.201 0.809,2.041 1.979,2.041"
           style="fill:#000000;fill-opacity:1;fill-rule:nonzero;stroke:none"
           id="path3462"
           inkscape:connector-curvature="0" /><path
           d="m 560.8097,15.9909 c 0,0 0.497,-0.574 1.161,-0.574 0.299,0 0.527,0.123 0.527,0.383 0,0.55 -2.055,0.542 -2.055,1.803 0,0.78 0.702,1.139 1.513,1.139 0.527,0 1.367,-0.176 1.367,-0.81 l 0,-0.405 -0.855,0 0,0.191 c 0,0.183 -0.275,0.276 -0.489,0.276 -0.344,0 -0.58,-0.124 -0.58,-0.353 0,-0.611 2.07,-0.488 2.07,-1.788 0,-0.733 -0.65,-1.192 -1.498,-1.192 -1.07,0 -1.62,0.696 -1.62,0.696 l 0.459,0.634 z"
           style="fill:#000000;fill-opacity:1;fill-rule:nonzero;stroke:none"
           id="path3464"
           inkscape:connector-curvature="0" /></g></g></g></svg>