<?xml version="1.0" encoding="UTF-8" standalone="no"?>
<!-- Created with Inkscape (http://www.inkscape.org/) -->

<svg
   xmlns:dc="http://purl.org/dc/elements/1.1/"
   xmlns:cc="http://creativecommons.org/ns#"
   xmlns:rdf="http://www.w3.org/1999/02/22-rdf-syntax-ns#"
   xmlns:svg="http://www.w3.org/2000/svg"
   xmlns="http://www.w3.org/2000/svg"
   xmlns:sodipodi="http://sodipodi.sourceforge.net/DTD/sodipodi-0.dtd"
   xmlns:inkscape="http://www.inkscape.org/namespaces/inkscape"
   id="svg2"
   version="1.1"
   inkscape:version="0.91 r13725"
   xml:space="preserve"
   width="800"
   height="325"
   viewBox="0 0 800 325"
   sodipodi:docname="Logo Département Loiret.svg"><metadata
     id="metadata8"><rdf:RDF><cc:Work
         rdf:about=""><dc:format>image/svg+xml</dc:format><dc:type
           rdf:resource="http://purl.org/dc/dcmitype/StillImage" /><dc:title></dc:title></cc:Work></rdf:RDF></metadata><defs
     id="defs6"><linearGradient
       x1="0"
       y1="0"
       x2="1"
       y2="0"
       gradientUnits="userSpaceOnUse"
       gradientTransform="matrix(78.23791,45.17068,45.17068,-78.23791,380.3694,632.1083)"
       spreadMethod="pad"
       id="linearGradient46"><stop
         style="stop-opacity:1;stop-color:#1c7fc3"
         offset="0"
         id="stop48" /><stop
         style="stop-opacity:1;stop-color:#26448a"
         offset="1"
         id="stop50" /></linearGradient></defs><sodipodi:namedview
     pagecolor="#ffffff"
     bordercolor="#666666"
     borderopacity="1"
     objecttolerance="10"
     gridtolerance="10"
     guidetolerance="10"
     inkscape:pageopacity="0"
     inkscape:pageshadow="2"
     inkscape:window-width="1440"
     inkscape:window-height="790"
     id="namedview4"
     showgrid="false"
     inkscape:zoom="0.74756246"
     inkscape:cx="358.20181"
     inkscape:cy="278.09922"
     inkscape:window-x="0"
     inkscape:window-y="1"
     inkscape:window-maximized="1"
     inkscape:current-layer="g10" /><g
     id="g10"
     inkscape:groupmode="layer"
     inkscape:label="Logo Département Loiret"
     transform="matrix(1.25,0,0,-1.25,0,324.99999)"><g
       id="g5161"
       transform="matrix(7.5696646,0,0,7.5934579,-2855.3835,-4841.3837)"><path
         d="m 377.214,637.573 84.548,0 0,34.24 -84.548,0 0,-34.24 z"
         style="fill:url(#linearGradient46);stroke:none"
         id="path52"
         inkscape:connector-curvature="0" /><g
         id="g5123"><path
           d="m 405.5172,651.1741 c -0.024,-0.315 -0.039,-0.527 0.291,-0.527 l 2.162,0 c 0.33,0 0.306,0.212 0.291,0.535 -0.024,0.29 -0.118,1.792 -0.142,2.625 l 0,4.584 c 0.024,0.833 0.118,2.335 0.142,2.625 0.015,0.315 0.039,0.527 -0.291,0.527 l -2.162,0 c -0.33,0 -0.315,-0.212 -0.291,-0.527 0.016,-0.29 0.11,-1.792 0.141,-2.625 l 0,-4.584 c -0.031,-0.833 -0.125,-2.342 -0.141,-2.633"
           style="fill:#ffffff;fill-opacity:1;fill-rule:nonzero;stroke:none"
           id="path62"
           inkscape:connector-curvature="0" /><path
           d="m 382.8474,651.1978 c -0.016,-0.33 -0.047,-0.551 0.283,-0.551 l 8.142,0 c 0.079,0 0.141,0.032 0.189,0.092 0.149,0.144 0.11,1.636 0,1.746 -0.102,0.079 -0.165,0.073 -0.543,0.026 -0.385,-0.055 -3.118,-0.294 -5.149,-0.236 -0.024,0.495 -0.045,1.014 -0.053,1.195 0,0 -0.055,3.216 -0.055,3.688 l 0,2.31 c 0,0.48 0.055,3.695 0.055,3.695 0.016,0.363 0.095,2.138 0.103,2.272 0.015,0.338 0.055,0.544 -0.283,0.544 l -2.406,0 c -0.33,0 -0.299,-0.206 -0.283,-0.544 0.008,-0.134 0.087,-1.909 0.102,-2.272 0,0 0.055,-3.215 0.055,-3.695 l 0,-2.31 c 0,-0.472 -0.055,-3.688 -0.055,-3.688 -0.015,-0.37 -0.094,-2.146 -0.102,-2.272"
           style="fill:#ffffff;fill-opacity:1;fill-rule:nonzero;stroke:none"
           id="path64"
           inkscape:connector-curvature="0" /><path
           d="m 405.3916,664.6877 c 0,-0.409 0.149,-0.771 0.44,-1.061 0.299,-0.294 0.653,-0.441 1.061,-0.441 0.409,0 0.773,0.147 1.069,0.441 0.283,0.29 0.433,0.652 0.433,1.061 0,0.409 -0.15,0.778 -0.433,1.069 -0.283,0.283 -0.66,0.44 -1.069,0.44 -0.408,0 -0.77,-0.149 -1.061,-0.44 -0.291,-0.291 -0.44,-0.66 -0.44,-1.069"
           style="fill:#ffffff;fill-opacity:1;fill-rule:nonzero;stroke:none"
           id="path66"
           inkscape:connector-curvature="0" /><path
           d="m 428.7238,659.5623 c 0.048,-0.062 0.252,-0.047 0.315,-0.047 l 1.148,0 c 0,-0.612 -0.142,-5.674 -0.142,-6.054 0,-1.808 0.914,-2.995 3.012,-2.995 0.668,0 1.66,0.22 1.848,0.291 0.156,0.055 0.197,0.11 0.197,0.222 l 0,0.943 c 0,0.219 -0.078,0.305 -0.56,0.156 -0.11,-0.032 -0.55,-0.126 -0.817,-0.126 -0.314,0 -0.55,0.055 -0.692,0.173 -0.15,0.127 -0.275,0.306 -0.354,0.534 -0.196,0.496 -0.212,1.244 -0.212,2.011 0,0.411 0.118,4.845 0.118,4.845 l 2.083,0 c 0.409,0 0.432,1.737 -0.022,1.737 l -2.014,0 0.165,2.777 c 0,0.069 -0.023,0.14 -0.063,0.184 -0.235,0.325 -2.115,-0.587 -2.532,-0.744 -0.219,-0.102 -0.078,-0.393 -0.078,-1.651 0,-0.212 0,-0.385 0.008,-0.566 -0.26,0.008 -1.099,0 -1.099,0 -0.081,0 -0.285,0.015 -0.324,-0.039 -0.126,-0.142 -0.11,-1.518 0.015,-1.651"
           style="fill:#ffffff;fill-opacity:1;fill-rule:nonzero;stroke:none"
           id="path68"
           inkscape:connector-curvature="0" /><path
           d="m 410.9571,651.1741 c -0.023,-0.315 -0.047,-0.527 0.283,-0.527 l 2.162,0 c 0.307,0 0.307,0.189 0.291,0.464 -0.008,0.071 -0.11,1.786 -0.142,2.696 l 0,2.972 c 0,0.988 0.7,2.39 1.942,2.39 0.244,0 0.472,-0.034 0.668,-0.094 0.449,-0.142 0.7,-0.181 0.692,0.205 0,0.439 0.016,1.241 0.055,1.807 0.024,0.425 -0.079,0.574 -0.408,0.574 -1.109,0 -2.137,-1.03 -2.878,-2.469 0.024,0.535 0.055,1.667 0.063,1.818 0.024,0.321 0.055,0.533 -0.283,0.533 l -2.162,0 c -0.33,0 -0.306,-0.212 -0.283,-0.521 0.016,-0.295 0.11,-1.798 0.134,-2.631 l 0,-4.584 c -0.024,-0.833 -0.118,-2.342 -0.134,-2.633"
           style="fill:#ffffff;fill-opacity:1;fill-rule:nonzero;stroke:none"
           id="path70"
           inkscape:connector-curvature="0" /><path
           d="m 420.4146,657.0856 c 0.246,1.848 1.03,3.373 2.429,3.373 1.745,0 2.052,-2.013 2.115,-3.373 l -4.544,0 z m 2.398,4.615 c -6.612,0 -7.461,-11.234 0.291,-11.234 0.71,0 1.422,0.135 2.091,0.385 0.566,0.228 1.085,0.487 1.496,0.786 0.296,0.218 0.351,0.244 0.476,1.392 0.016,0.149 -0.596,0.621 -0.762,0.385 -0.338,-0.47 -1.525,-1.509 -2.924,-1.509 -1.958,0 -3.184,1.302 -3.184,3.837 l 6.792,0 c 0.307,0.015 0.417,-0.048 0.456,0.439 0.204,2.838 -0.943,5.519 -4.732,5.519"
           style="fill:#ffffff;fill-opacity:1;fill-rule:nonzero;stroke:none"
           id="path72"
           inkscape:connector-curvature="0" /><path
           d="m 397.6636,651.7399 c -1.753,0 -2.759,1.431 -2.759,4.314 0,2.871 1.006,4.302 2.759,4.302 1.761,0 2.767,-1.431 2.767,-4.302 0,-2.883 -1.006,-4.314 -2.767,-4.314 m 0,9.961 c -3.113,0 -5.495,-2.031 -5.495,-5.647 0,-3.622 2.382,-5.656 5.495,-5.656 3.129,0 5.519,2.034 5.519,5.656 0,3.616 -2.39,5.647 -5.519,5.647"
           style="fill:#ffffff;fill-opacity:1;fill-rule:nonzero;stroke:none"
           id="path74"
           inkscape:connector-curvature="0" /></g><g
         id="g5156"><path
           style="fill:#fab40a;fill-opacity:1;fill-rule:nonzero;stroke:none"
           d="m 447.4959,646.0709 -0.384,-0.361 c -0.134,-0.119 -0.294,-0.174 -0.433,-0.14 -0.143,0.034 -0.208,0.146 -0.184,0.279 0.578,2.841 2.557,5.663 5.201,7.348 1.852,1.186 3.799,1.66 5.343,1.29 1.266,-0.302 2.247,-1.165 2.817,-2.484 0.067,-0.139 0.12,-0.308 0.034,-0.422 -0.034,-0.037 -0.105,-0.087 -0.228,-0.057 -0.079,0.019 -0.177,0.07 -0.306,0.145 -0.243,0.12 -0.522,0.217 -0.804,0.285 -3.921,0.937 -8.739,-3.668 -11.056,-5.883"
           id="path5154"
           inkscape:connector-curvature="0" /><path
           style="fill:#fab40a;fill-opacity:1;fill-rule:nonzero;stroke:none"
           d="m 435.7619,653.9849 c -0.029,0 -0.054,0.005 -0.074,0.01 -0.103,0.024 -0.186,0.096 -0.204,0.197 -0.03,0.086 0.003,0.172 0.069,0.235 1.288,1.177 2.526,1.633 3.665,1.361 2.981,-0.713 4.372,-6.097 4.239,-9.709 -0.004,-0.124 -0.059,-0.229 -0.133,-0.295 -0.052,-0.041 -0.116,-0.047 -0.184,-0.031 -0.115,0.028 -0.19,0.134 -0.243,0.318 -0.554,4.035 -2.802,7.082 -5.719,7.78 -0.473,0.113 -0.945,0.153 -1.416,0.134"
           id="path5152"
           inkscape:connector-curvature="0" /><path
           style="fill:#fab40a;fill-opacity:1;fill-rule:nonzero;stroke:none"
           d="m 449.6009,666.7059 c 0.031,0.04 0.075,0.049 0.123,0.038 0.012,-0.003 0.02,-0.005 0.03,-0.013 1.154,-0.684 1.188,-5.318 -0.504,-10.045 -1.841,-5.116 -2.519,-6.037 -3.244,-7.02 -0.101,-0.14 -0.216,-0.288 -0.326,-0.45 -0.012,-0.014 -0.02,-0.02 -0.023,-0.028 -0.138,-0.102 -0.294,-0.211 -0.469,-0.17 -0.381,0.091 -0.69,0.814 -0.119,5.486 0.532,4.507 3.166,10.697 4.532,12.202"
           id="path76"
           inkscape:connector-curvature="0" /></g><g
         id="g5132"><path
           d="m 382.9334,645.9452 c -0.043,0.11 -0.104,0.14 -0.214,0.14 l -0.054,0 0,0.36 0.164,0 c 0.293,0 0.385,-0.061 0.488,-0.335 l 0.738,-1.916 c 0.055,-0.152 0.104,-0.36 0.104,-0.36 l 0.012,0 c 0,0 0.049,0.208 0.104,0.36 l 0.738,1.916 c 0.104,0.274 0.195,0.335 0.482,0.335 l 0.159,0 0,-0.36 -0.055,0 c -0.11,0 -0.177,-0.03 -0.214,-0.14 l -1,-2.568 -0.452,0 -1,2.568 z"
           style="fill:#ffffff;fill-opacity:1;fill-rule:nonzero;stroke:none"
           id="path78"
           inkscape:connector-curvature="0" /><path
           d="m 387.545,643.6759 c 0.653,0 1.19,0.537 1.19,1.25 0,0.696 -0.537,1.214 -1.19,1.214 -0.659,0 -1.196,-0.518 -1.196,-1.214 0,-0.713 0.537,-1.25 1.196,-1.25 m -0.006,2.843 c 0.897,0 1.623,-0.684 1.623,-1.593 0,-0.927 -0.726,-1.622 -1.617,-1.622 -0.897,0 -1.623,0.695 -1.623,1.622 0,0.909 0.726,1.593 1.617,1.593"
           style="fill:#ffffff;fill-opacity:1;fill-rule:nonzero;stroke:none"
           id="path80"
           inkscape:connector-curvature="0" /><path
           d="m 389.9727,646.0977 -0.403,0 0,0.348 0.409,0 0,0.848 0.409,0 0,-0.848 0.768,0 0,-0.348 -0.768,0 0,-1.562 c 0,-0.719 0.457,-0.811 0.689,-0.811 0.085,0 0.14,0.012 0.14,0.012 l 0,-0.372 c 0,0 -0.073,-0.012 -0.176,-0.012 -0.354,0 -1.068,0.116 -1.068,1.141 l 0,1.604 z"
           style="fill:#ffffff;fill-opacity:1;fill-rule:nonzero;stroke:none"
           id="path82"
           inkscape:connector-curvature="0" /><path
           d="m 391.9796,645.9513 c 0,0.085 -0.049,0.134 -0.134,0.134 l -0.256,0 0,0.36 0.427,0 c 0.256,0 0.372,-0.104 0.372,-0.348 l 0,-0.207 c 0,-0.128 -0.012,-0.232 -0.012,-0.232 l 0.012,0 c 0.146,0.464 0.488,0.818 0.97,0.818 0.085,0 0.164,-0.019 0.164,-0.019 l 0,-0.408 c 0,0 -0.073,0.012 -0.152,0.012 -0.433,0 -0.757,-0.342 -0.891,-0.793 -0.061,-0.195 -0.085,-0.403 -0.085,-0.598 l 0,-1.293 -0.415,0 0,2.574 z"
           style="fill:#ffffff;fill-opacity:1;fill-rule:nonzero;stroke:none"
           id="path84"
           inkscape:connector-curvature="0" /><path
           d="m 396.152,645.2253 c -0.024,0.634 -0.415,0.945 -0.866,0.945 -0.506,0 -0.952,-0.329 -1.056,-0.945 l 1.922,0 z m -0.86,1.293 c 0.848,0 1.287,-0.652 1.287,-1.415 0,-0.073 -0.012,-0.207 -0.012,-0.207 l -2.355,0 c 0.012,-0.775 0.555,-1.22 1.19,-1.22 0.561,0 0.921,0.378 0.921,0.378 l 0.201,-0.311 c 0,0 -0.445,-0.44 -1.141,-0.44 -0.909,0 -1.604,0.659 -1.604,1.605 0,1.006 0.689,1.61 1.513,1.61"
           style="fill:#ffffff;fill-opacity:1;fill-rule:nonzero;stroke:none"
           id="path86"
           inkscape:connector-curvature="0" /><path
           d="m 399.7508,643.7552 0.72,0 c 1.055,0 1.751,0.622 1.751,1.769 0,1.141 -0.702,1.763 -1.751,1.763 l -0.854,0 0,-3.398 c 0,-0.091 0.049,-0.134 0.134,-0.134 m -0.561,3.532 -0.397,0 0,0.378 1.721,0 c 1.293,0 2.153,-0.787 2.153,-2.141 0,-1.366 -0.86,-2.147 -2.153,-2.147 l -0.952,0 c -0.262,0 -0.372,0.11 -0.372,0.372 l 0,3.538 z"
           style="fill:#ffffff;fill-opacity:1;fill-rule:nonzero;stroke:none"
           id="path88"
           inkscape:connector-curvature="0" /><path
           d="m 404.9175,647.6653 0.464,0 -0.531,-0.726 -0.36,0 0.427,0.726 z m 0.628,-2.44 c -0.024,0.634 -0.414,0.945 -0.866,0.945 -0.506,0 -0.951,-0.329 -1.055,-0.945 l 1.921,0 z m -0.86,1.293 c 0.848,0 1.287,-0.652 1.287,-1.415 0,-0.073 -0.012,-0.207 -0.012,-0.207 l -2.354,0 c 0.012,-0.775 0.555,-1.22 1.189,-1.22 0.561,0 0.921,0.378 0.921,0.378 l 0.201,-0.311 c 0,0 -0.445,-0.44 -1.14,-0.44 -0.909,0 -1.605,0.659 -1.605,1.605 0,1.006 0.69,1.61 1.513,1.61"
           style="fill:#ffffff;fill-opacity:1;fill-rule:nonzero;stroke:none"
           id="path90"
           inkscape:connector-curvature="0" /><path
           d="m 408.1809,643.6699 c 0.543,0 0.988,0.458 0.988,1.238 0,0.751 -0.396,1.232 -0.97,1.232 -0.512,0 -0.994,-0.366 -0.994,-1.238 0,-0.616 0.335,-1.232 0.976,-1.232 m -1.379,2.281 c 0,0.086 -0.048,0.135 -0.134,0.135 l -0.256,0 0,0.359 0.421,0 c 0.262,0 0.366,-0.109 0.366,-0.323 0,-0.122 -0.006,-0.207 -0.006,-0.207 l 0.012,0 c 0,0 0.244,0.604 1.055,0.604 0.824,0 1.336,-0.659 1.336,-1.611 0,-0.97 -0.579,-1.604 -1.372,-1.604 -0.751,0 -1.007,0.58 -1.007,0.58 l -0.012,0 c 0,0 0.012,-0.11 0.012,-0.269 l 0,-1.458 -0.415,0 0,3.794 z"
           style="fill:#ffffff;fill-opacity:1;fill-rule:nonzero;stroke:none"
           id="path92"
           inkscape:connector-curvature="0" /><path
           d="m 411.1759,643.6576 c 0.586,0 0.939,0.61 0.939,1.141 l 0,0.14 -0.177,0 c -0.481,0 -1.445,-0.012 -1.445,-0.701 0,-0.287 0.225,-0.58 0.683,-0.58 m 0.769,1.61 0.17,0 0,0.037 c 0,0.64 -0.231,0.866 -0.793,0.866 -0.152,0 -0.597,-0.042 -0.597,-0.268 l 0,-0.195 -0.397,0 0,0.292 c 0,0.428 0.732,0.519 1,0.519 0.97,0 1.202,-0.519 1.202,-1.177 l 0,-1.47 c 0,-0.092 0.049,-0.135 0.134,-0.135 l 0.257,0 0,-0.36 -0.421,0 c -0.263,0 -0.366,0.116 -0.366,0.366 0,0.135 0.006,0.226 0.006,0.226 l -0.012,0 c 0.006,0 -0.251,-0.665 -1.019,-0.665 -0.512,0 -1.043,0.299 -1.043,0.909 0,1.019 1.348,1.055 1.879,1.055"
           style="fill:#ffffff;fill-opacity:1;fill-rule:nonzero;stroke:none"
           id="path94"
           inkscape:connector-curvature="0" /><path
           d="m 413.5793,645.9513 c 0,0.085 -0.049,0.134 -0.134,0.134 l -0.256,0 0,0.36 0.427,0 c 0.256,0 0.372,-0.104 0.372,-0.348 l 0,-0.207 c 0,-0.128 -0.013,-0.232 -0.013,-0.232 l 0.013,0 c 0.146,0.464 0.488,0.818 0.97,0.818 0.085,0 0.164,-0.019 0.164,-0.019 l 0,-0.408 c 0,0 -0.073,0.012 -0.152,0.012 -0.433,0 -0.757,-0.342 -0.891,-0.793 -0.061,-0.195 -0.085,-0.403 -0.085,-0.598 l 0,-1.293 -0.415,0 0,2.574 z"
           style="fill:#ffffff;fill-opacity:1;fill-rule:nonzero;stroke:none"
           id="path96"
           inkscape:connector-curvature="0" /><path
           d="m 415.824,646.0977 -0.403,0 0,0.348 0.409,0 0,0.848 0.409,0 0,-0.848 0.768,0 0,-0.348 -0.768,0 0,-1.562 c 0,-0.719 0.457,-0.811 0.689,-0.811 0.085,0 0.14,0.012 0.14,0.012 l 0,-0.372 c 0,0 -0.073,-0.012 -0.176,-0.012 -0.354,0 -1.068,0.116 -1.068,1.141 l 0,1.604 z"
           style="fill:#ffffff;fill-opacity:1;fill-rule:nonzero;stroke:none"
           id="path98"
           inkscape:connector-curvature="0" /><path
           d="m 419.8561,645.2253 c -0.025,0.634 -0.415,0.945 -0.866,0.945 -0.506,0 -0.952,-0.329 -1.056,-0.945 l 1.922,0 z m -0.86,1.293 c 0.848,0 1.287,-0.652 1.287,-1.415 0,-0.073 -0.012,-0.207 -0.012,-0.207 l -2.355,0 c 0.012,-0.775 0.555,-1.22 1.19,-1.22 0.561,0 0.921,0.378 0.921,0.378 l 0.201,-0.311 c 0,0 -0.445,-0.44 -1.141,-0.44 -0.909,0 -1.604,0.659 -1.604,1.605 0,1.006 0.689,1.61 1.513,1.61"
           style="fill:#ffffff;fill-opacity:1;fill-rule:nonzero;stroke:none"
           id="path100"
           inkscape:connector-curvature="0" /><path
           d="m 421.1126,645.9513 c 0,0.085 -0.049,0.134 -0.134,0.134 l -0.256,0 0,0.36 0.427,0 c 0.256,0 0.372,-0.11 0.372,-0.342 l 0,-0.14 c 0,-0.122 -0.013,-0.219 -0.013,-0.219 l 0.013,0 c 0.152,0.414 0.634,0.774 1.11,0.774 0.567,0 0.86,-0.262 0.951,-0.768 l 0.013,0 c 0.164,0.415 0.61,0.768 1.128,0.768 0.744,0 1.019,-0.433 1.019,-1.189 l 0,-1.458 c 0,-0.092 0.049,-0.134 0.134,-0.134 l 0.256,0 0,-0.36 -0.433,0 c -0.262,0 -0.372,0.11 -0.372,0.372 l 0,1.476 c 0,0.5 -0.104,0.915 -0.665,0.915 -0.463,0 -0.848,-0.415 -0.97,-0.866 -0.042,-0.134 -0.055,-0.281 -0.055,-0.445 l 0,-1.452 -0.414,0 0,1.848 c 0,0.464 -0.068,0.915 -0.647,0.915 -0.5,0 -0.872,-0.433 -1,-0.903 -0.037,-0.128 -0.049,-0.268 -0.049,-0.408 l 0,-1.452 -0.415,0 0,2.574 z"
           style="fill:#ffffff;fill-opacity:1;fill-rule:nonzero;stroke:none"
           id="path102"
           inkscape:connector-curvature="0" /><path
           d="m 428.8779,645.2253 c -0.024,0.634 -0.415,0.945 -0.866,0.945 -0.506,0 -0.952,-0.329 -1.056,-0.945 l 1.922,0 z m -0.86,1.293 c 0.848,0 1.287,-0.652 1.287,-1.415 0,-0.073 -0.012,-0.207 -0.012,-0.207 l -2.355,0 c 0.013,-0.775 0.555,-1.22 1.19,-1.22 0.561,0 0.921,0.378 0.921,0.378 l 0.201,-0.311 c 0,0 -0.445,-0.44 -1.141,-0.44 -0.908,0 -1.604,0.659 -1.604,1.605 0,1.006 0.689,1.61 1.513,1.61"
           style="fill:#ffffff;fill-opacity:1;fill-rule:nonzero;stroke:none"
           id="path104"
           inkscape:connector-curvature="0" /><path
           d="m 430.1345,645.9513 c 0,0.085 -0.049,0.134 -0.134,0.134 l -0.256,0 0,0.36 0.427,0 c 0.256,0 0.372,-0.11 0.372,-0.342 l 0,-0.14 c 0,-0.122 -0.013,-0.219 -0.013,-0.219 l 0.013,0 c 0.109,0.28 0.5,0.774 1.22,0.774 0.762,0 1.031,-0.433 1.031,-1.189 l 0,-1.458 c 0,-0.092 0.048,-0.134 0.134,-0.134 l 0.256,0 0,-0.36 -0.433,0 c -0.262,0 -0.372,0.11 -0.372,0.372 l 0,1.47 c 0,0.482 -0.073,0.909 -0.665,0.909 -0.525,0 -0.976,-0.36 -1.116,-0.866 -0.037,-0.128 -0.049,-0.269 -0.049,-0.415 l 0,-1.47 -0.415,0 0,2.574 z"
           style="fill:#ffffff;fill-opacity:1;fill-rule:nonzero;stroke:none"
           id="path106"
           inkscape:connector-curvature="0" /><path
           d="m 433.8798,646.0977 -0.403,0 0,0.348 0.409,0 0,0.848 0.409,0 0,-0.848 0.768,0 0,-0.348 -0.768,0 0,-1.562 c 0,-0.719 0.457,-0.811 0.689,-0.811 0.085,0 0.14,0.012 0.14,0.012 l 0,-0.372 c 0,0 -0.073,-0.012 -0.177,-0.012 -0.353,0 -1.067,0.116 -1.067,1.141 l 0,1.604 z"
           style="fill:#ffffff;fill-opacity:1;fill-rule:nonzero;stroke:none"
           id="path108"
           inkscape:connector-curvature="0" /></g></g></g></svg>