<?xml version="1.0" encoding="UTF-8" standalone="no"?>
<svg
   xmlns:dc="http://purl.org/dc/elements/1.1/"
   xmlns:cc="http://creativecommons.org/ns#"
   xmlns:rdf="http://www.w3.org/1999/02/22-rdf-syntax-ns#"
   xmlns:svg="http://www.w3.org/2000/svg"
   xmlns="http://www.w3.org/2000/svg"
   viewBox="0 0 595 799.99996"
   height="800"
   width="595"
   xml:space="preserve"
   version="1.1"
   id="svg2"><metadata
     id="metadata8"><rdf:RDF><cc:Work
         rdf:about=""><dc:format>image/svg+xml</dc:format><dc:type
           rdf:resource="http://purl.org/dc/dcmitype/StillImage" /><dc:title></dc:title></cc:Work></rdf:RDF></metadata><defs
     id="defs6" /><g
     transform="matrix(1.25,0,0,-1.25,0,799.99995)"
     id="g10"><g
       transform="matrix(11.330986,0,0,11.328436,-5937.3109,-90.129076)"
       id="g6255"><path
         d="m 523.997,27.305 41.977,0 0,37.146 -41.977,0 0,-37.146 z"
         style="fill:#ffffff;fill-opacity:1;fill-rule:nonzero;stroke:none"
         id="path140" /><g
         id="g6224"><path
           id="path142"
           style="fill:#21518d;fill-opacity:1;fill-rule:nonzero;stroke:none"
           d="m 524.002,7.956 41.978,0 0,11.301 -41.978,0 0,-11.301 z" /><path
           id="path144"
           style="fill:#59c134;fill-opacity:1;fill-rule:nonzero;stroke:none"
           d="m 524.001,19.261 41.977,0 0,8.033 -41.977,0 0,-8.033 z" /><g
           id="g6194"><path
             d="m 530.1352,21.5956 0,3.145 0.571,0 0,-2.613 0.918,0 0,-0.532 -1.489,0 z"
             style="fill:#ffffff;fill-opacity:1;fill-rule:nonzero;stroke:none"
             id="path146" /><path
             d="m 531.9717,21.5956 0,3.145 1.564,0 0,-0.532 -0.993,0 0,-0.723 0.757,0 0,-0.531 -0.757,0 0,-0.827 1.034,0 0,-0.532 -1.605,0 z"
             style="fill:#ffffff;fill-opacity:1;fill-rule:nonzero;stroke:none"
             id="path148" /><path
             d="m 535.761,22.1272 0.198,0 c 0.315,0 0.497,0.157 0.497,0.627 l 0,0.828 c 0,0.444 -0.141,0.627 -0.497,0.627 l -0.198,0 0,-2.082 z m -0.571,2.613 0.795,0 c 0.653,0 1.017,-0.296 1.042,-1.089 l 0,-0.966 c -0.025,-0.793 -0.389,-1.09 -1.042,-1.09 l -0.795,0 0,3.145 z"
             style="fill:#ffffff;fill-opacity:1;fill-rule:nonzero;stroke:none"
             id="path154" /><path
             d="m 538.9419,25.5548 -0.608,-0.636 -0.418,0 0.385,0.636 0.641,0 z m -1.452,-3.959 0,3.145 1.564,0 0,-0.532 -0.993,0 0,-0.723 0.757,0 0,-0.531 -0.757,0 0,-0.828 1.034,0 0,-0.531 -1.605,0 z"
             style="fill:#ffffff;fill-opacity:1;fill-rule:nonzero;stroke:none"
             id="path156" /><path
             d="m 540.1621,23.3551 0.306,0 c 0.281,0 0.422,0.148 0.422,0.445 0,0.296 -0.141,0.444 -0.422,0.444 l -0.306,0 0,-0.889 z m -0.571,-1.759 0,3.144 0.823,0 c 0.704,0 1.047,-0.349 1.047,-0.94 0,-0.593 -0.343,-0.942 -1.047,-0.942 l -0.252,0 0,-1.262 -0.571,0 z"
             style="fill:#ffffff;fill-opacity:1;fill-rule:nonzero;stroke:none"
             id="path158" /><path
             d="m 542.4702,22.7891 0.567,0 -0.277,1.272 -0.009,0 -0.281,-1.272 z m -0.815,-1.194 0.74,3.145 0.733,0 0.72,-3.145 -0.547,0 -0.144,0.662 -0.79,0 -0.162,-0.662 -0.55,0 z"
             style="fill:#ffffff;fill-opacity:1;fill-rule:nonzero;stroke:none"
             id="path160" /><path
             d="m 544.7286,23.3726 0.294,0 c 0.252,0 0.405,0.131 0.405,0.436 0,0.304 -0.153,0.435 -0.405,0.435 l -0.294,0 0,-0.871 z m 0.769,-1.777 -0.496,1.28 -0.273,0 0,-1.28 -0.571,0 0,3.145 0.827,0 c 0.687,0 1.014,-0.349 1.014,-0.941 0,-0.392 -0.132,-0.675 -0.45,-0.801 l 0.562,-1.403 -0.613,0 z"
             style="fill:#ffffff;fill-opacity:1;fill-rule:nonzero;stroke:none"
             id="path162" /><path
             d="m 548.1866,24.7405 0,-0.532 -0.666,0 0,-2.613 -0.571,0 0,2.613 -0.666,0 0,0.532 1.903,0 z"
             style="fill:#ffffff;fill-opacity:1;fill-rule:nonzero;stroke:none"
             id="path164" /><path
             d="m 548.5259,21.5956 0,3.145 1.564,0 0,-0.532 -0.993,0 0,-0.723 0.757,0 0,-0.531 -0.757,0 0,-0.827 1.034,0 0,-0.532 -1.605,0 z"
             style="fill:#ffffff;fill-opacity:1;fill-rule:nonzero;stroke:none"
             id="path166" /><path
             d="m 550.6271,21.5956 0,3.145 0.799,0 0.516,-2.065 0.009,0 0.517,2.065 0.798,0 0,-3.145 -0.488,0 0,2.474 -0.008,0 -0.608,-2.474 -0.431,0 -0.607,2.474 -0.009,0 0,-2.474 -0.488,0 z"
             style="fill:#ffffff;fill-opacity:1;fill-rule:nonzero;stroke:none"
             id="path168" /><path
             d="m 553.8125,21.5956 0,3.145 1.564,0 0,-0.532 -0.993,0 0,-0.723 0.757,0 0,-0.531 -0.757,0 0,-0.827 1.034,0 0,-0.532 -1.605,0 z"
             style="fill:#ffffff;fill-opacity:1;fill-rule:nonzero;stroke:none"
             id="path170" /><path
             d="m 555.9137,21.5956 0,3.145 0.625,0 0.794,-1.865 0.008,0 0,1.865 0.522,0 0,-3.145 -0.547,0 -0.873,2.03 -0.008,0 0,-2.03 -0.521,0 z"
             style="fill:#ffffff;fill-opacity:1;fill-rule:nonzero;stroke:none"
             id="path172" /><path
             d="m 560.1372,24.7405 0,-0.532 -0.666,0 0,-2.613 -0.571,0 0,2.613 -0.666,0 0,0.532 1.903,0 z"
             style="fill:#ffffff;fill-opacity:1;fill-rule:nonzero;stroke:none"
             id="path174" /></g><g
           id="g6216"><path
             d="m 524.0449,40.1579 c 0,0 9.737,5.866 23.993,-1.006 0,0 -14.74,5.784 -24.049,-0.339 l 0.056,1.345 z"
             style="fill:#21518d;fill-opacity:1;fill-rule:nonzero;stroke:none"
             id="path176" /><path
             d="m 565.9976,34.3335 c 0,0 -19.334,10.965 -41.998,-0.707 l 0,-2.744 c 0,0.137 18.584,13.144 41.998,3.451"
             style="fill:#21518d;fill-opacity:1;fill-rule:nonzero;stroke:none"
             id="path178" /><path
             d="m 555.1864,52.574 -10.722,-1.748 0.293,-0.879 9.195,1.084 9.034,-9.233 -7.8,10.776 z"
             style="fill:#21518d;fill-opacity:1;fill-rule:nonzero;stroke:none"
             id="path180" /><path
             d="m 538.6951,49.8854 -14.485,-2.361 14.324,1.689 0.161,0.672 z"
             style="fill:#21518d;fill-opacity:1;fill-rule:nonzero;stroke:none"
             id="path182" /><path
             d="m 541.5966,61.8483 -4.362,-16.061 0.353,0.027 3.946,13.298 4.304,-14.738 0.787,-0.516 -5.028,17.99 z"
             style="fill:#21518d;fill-opacity:1;fill-rule:nonzero;stroke:none"
             id="path184" /><path
             d="m 562.0624,47.8879 c -0.065,0.243 -0.196,0.4 -0.39,0.468 -0.355,0.125 -0.81,-0.073 -1.737,-0.756 -1.006,-0.742 -6.855,-5.267 -7.2,-5.586 -0.304,-0.282 -2.222,-1.741 -2.806,-2.16 -0.005,-0.005 -0.125,-0.113 -0.127,-0.114 -0.002,-0.002 -10.193,-8.524 -10.193,-8.524 l 0.095,-0.114 c 0.454,0.378 11.857,8.957 12.539,9.453 l 0.611,0.448 c 0.485,0.38 2.986,2.328 4.807,3.5 l 1.151,0.718 c 2.596,1.6 3.383,2.176 3.25,2.667"
             style="fill:#59c134;fill-opacity:1;fill-rule:nonzero;stroke:none"
             id="path186" /></g><g
           id="g6209"><path
             d="m 535.8497,9.5538 -1.028,0 0,3.881 c 0,0.968 -0.459,1.56 -1.414,1.56 -0.847,0 -1.464,-0.701 -1.464,-1.632 l 0,-3.809 -1.015,0 0,3.881 c 0,0.968 -0.484,1.56 -1.403,1.56 -0.846,0 -1.475,-0.701 -1.475,-1.632 l 0,-3.809 -1.028,0 0,6.227 0.992,0 0,-0.677 c 0.386,0.52 0.967,0.834 1.656,0.834 0.883,0 1.536,-0.399 1.923,-1.064 0.387,0.641 1.051,1.064 1.946,1.064 1.439,0 2.31,-0.979 2.31,-2.527 l 0,-3.857 z"
             style="fill:#ffffff;fill-opacity:1;fill-rule:nonzero;stroke:none"
             id="path188" /><path
             d="m 542.2604,13.3142 c -0.254,1.015 -1.1,1.693 -2.007,1.693 -0.859,0 -1.765,-0.629 -2.031,-1.693 l 4.038,0 z m 0.991,-1.825 c -0.434,-1.331 -1.499,-2.08 -2.938,-2.08 -1.789,0 -3.192,1.426 -3.192,3.252 0,1.801 1.403,3.277 3.132,3.277 1.608,0 3.156,-1.33 3.144,-3.543 l -5.236,0 c 0.133,-1.294 1.125,-2.055 2.152,-2.055 0.883,0 1.512,0.423 1.851,1.149 l 1.087,0 z"
             style="fill:#ffffff;fill-opacity:1;fill-rule:nonzero;stroke:none"
             id="path190" /><path
             d="m 549.8313,9.5538 -0.991,0 0,0.677 c -0.424,-0.508 -1.053,-0.822 -1.814,-0.822 -1.524,0 -2.395,1.088 -2.395,2.624 l 0,3.748 1.016,0 0,-3.797 c 0,-0.991 0.545,-1.644 1.536,-1.644 0.919,0 1.62,0.689 1.62,1.62 l 0,3.821 1.028,0 0,-6.227 z"
             style="fill:#ffffff;fill-opacity:1;fill-rule:nonzero;stroke:none"
             id="path192" /><path
             d="m 553.871,9.3965 c -1.511,0 -2.612,0.81 -2.781,2.128 l 1.04,0 c 0.133,-0.725 0.846,-1.173 1.741,-1.173 0.967,0 1.56,0.472 1.56,1.016 0,0.435 -0.17,0.762 -1.693,0.967 -1.512,0.218 -2.431,0.581 -2.431,1.754 0,0.894 0.775,1.849 2.443,1.849 1.439,0 2.406,-0.725 2.54,-1.946 l -1.041,0 c -0.145,0.665 -0.737,1.003 -1.499,1.003 -0.822,0 -1.415,-0.386 -1.415,-0.87 0,-0.448 0.351,-0.604 1.572,-0.798 1.379,-0.218 2.515,-0.484 2.515,-1.899 0,-1.245 -1.064,-2.031 -2.551,-2.031"
             style="fill:#ffffff;fill-opacity:1;fill-rule:nonzero;stroke:none"
             id="path194" /><path
             d="m 562.3604,13.3142 c -0.254,1.015 -1.1,1.693 -2.007,1.693 -0.859,0 -1.765,-0.629 -2.031,-1.693 l 4.038,0 z m 0.991,-1.825 c -0.434,-1.331 -1.498,-2.08 -2.938,-2.08 -1.789,0 -3.192,1.426 -3.192,3.252 0,1.801 1.403,3.277 3.132,3.277 1.609,0 3.156,-1.33 3.144,-3.543 l -5.236,0 c 0.133,-1.294 1.125,-2.055 2.152,-2.055 0.883,0 1.512,0.423 1.851,1.149 l 1.087,0 z"
             style="fill:#ffffff;fill-opacity:1;fill-rule:nonzero;stroke:none"
             id="path196" /></g></g></g></g></svg>