<?xml version="1.0" encoding="UTF-8" standalone="no"?>
<!-- Created with Inkscape (http://www.inkscape.org/) -->

<svg
   xmlns:dc="http://purl.org/dc/elements/1.1/"
   xmlns:cc="http://creativecommons.org/ns#"
   xmlns:rdf="http://www.w3.org/1999/02/22-rdf-syntax-ns#"
   xmlns:svg="http://www.w3.org/2000/svg"
   xmlns="http://www.w3.org/2000/svg"
   xmlns:sodipodi="http://sodipodi.sourceforge.net/DTD/sodipodi-0.dtd"
   xmlns:inkscape="http://www.inkscape.org/namespaces/inkscape"
   width="84.666664mm"
   height="16.980177mm"
   viewBox="0 0 299.99999 60.165981"
   id="svg4320"
   version="1.1"
   inkscape:version="0.91 r13725"
   sodipodi:docname="Pas-de-Calais (62) logo 2020.svg">
  <defs
     id="defs4322">
    <clipPath
       clipPathUnits="userSpaceOnUse"
       id="clipPath16">
      <path
         d="m 0,340.157 1105.512,0 L 1105.512,0 0,0 0,340.157 Z"
         id="path18"
         inkscape:connector-curvature="0" />
    </clipPath>
  </defs>
  <sodipodi:namedview
     id="base"
     pagecolor="#ffffff"
     bordercolor="#666666"
     borderopacity="1.0"
     inkscape:pageopacity="0.0"
     inkscape:pageshadow="2"
     inkscape:zoom="2.4445736"
     inkscape:cx="155.71429"
     inkscape:cy="22.857143"
     inkscape:document-units="px"
     inkscape:current-layer="layer1"
     showgrid="false"
     fit-margin-top="0"
     fit-margin-left="0"
     fit-margin-right="0"
     fit-margin-bottom="0"
     inkscape:window-width="1366"
     inkscape:window-height="705"
     inkscape:window-x="-8"
     inkscape:window-y="-8"
     inkscape:window-maximized="1" />
  <metadata
     id="metadata4325">
    <rdf:RDF>
      <cc:Work
         rdf:about="">
        <dc:format>image/svg+xml</dc:format>
        <dc:type
           rdf:resource="http://purl.org/dc/dcmitype/StillImage" />
        <dc:title></dc:title>
      </cc:Work>
    </rdf:RDF>
  </metadata>
  <g
     inkscape:label="Calque 1"
     inkscape:groupmode="layer"
     id="layer1"
     transform="translate(440.06511,-159.99827)">
    <g
       transform="matrix(0.28780018,0,0,-0.28780018,-448.35223,237.67335)"
       id="g12">
      <g
         id="g14"
         clip-path="url(#clipPath16)">
        <g
           id="g20"
           transform="translate(185.0287,131.7818)">
          <path
             d="m 0,0 -50.027,0 c -6.645,0 -10.903,4.119 -10.903,9.871 0,4.62 2.633,8.001 7.022,12.367 l 27.828,27.619 c 4.397,4.243 6.522,8.24 6.522,12.49 0,6.253 -5.021,10.872 -11.281,10.872 -6.391,0 -11.419,-5.005 -11.419,-11.496 0,-4.243 2.395,-7.992 7.277,-11.496 L -46.639,38.485 c -8.278,5.497 -12.659,13.244 -12.659,22.615 0,15.615 12.536,27.735 29.337,27.735 8.031,0 15.169,-2.749 20.683,-7.877 5.397,-4.99 8.408,-11.735 8.408,-18.611 0,-12.366 -6.899,-19.111 -17.31,-28.613 L -36.483,16.994 0,16.994 0,0 Z m -96.227,-1.116 c -6.145,0 -11.658,1.362 -16.294,3.988 -9.409,5.375 -15.053,15 -15.053,25.626 0,10.733 5.02,18.857 11.28,28.982 l 18.311,29.861 20.066,0 -25.71,-41.364 c -3.758,-5.991 -6.645,-10.865 -6.645,-16.24 0,-8.362 5.898,-14.121 14.168,-14.121 8.647,0 14.668,6.129 14.668,14.491 0,8 -6.021,13.745 -15.161,13.745 l -0.631,0 9.648,15.377 c 14.676,-2.133 23.577,-12.875 23.577,-27.998 0,-18.488 -13.544,-32.347 -32.224,-32.347 m 35.682,137.422 c -52.853,0 -95.689,-42.836 -95.689,-95.681 0,-52.845 42.836,-95.688 95.689,-95.688 52.845,0 95.68,42.843 95.68,95.688 0,52.845 -42.835,95.681 -95.68,95.681"
             style="fill:#0c4360;fill-opacity:1;fill-rule:nonzero;stroke:none"
             id="path22"
             inkscape:connector-curvature="0" />
        </g>
        <g
           id="g24"
           transform="translate(473.6684,117.4765)">
          <path
             d="m 0,0 0,-33.082 9.956,0 c 5.092,0 8.637,2.463 10.642,7.391 1.1,2.711 1.649,5.926 1.649,9.663 0,5.157 -0.824,9.122 -2.473,11.879 C 18.134,-1.383 14.856,0 9.956,0 L 0,0 Z m 19.756,7.703 c 3.618,-1.172 6.539,-3.316 8.783,-6.43 1.805,-2.518 3.023,-5.248 3.673,-8.188 0.659,-2.94 0.989,-5.733 0.989,-8.389 0,-6.741 -1.383,-12.457 -4.14,-17.128 -3.727,-6.301 -9.488,-9.461 -17.292,-9.461 l -22.229,0 0,50.695 22.229,0 C 14.966,8.756 17.631,8.39 19.756,7.703"
             style="fill:#0c4360;fill-opacity:1;fill-rule:nonzero;stroke:none"
             id="path26"
             inkscape:connector-curvature="0" />
        </g>
        <g
           id="g28"
           transform="translate(541.8113,128.4128)">
          <path
             d="m 0,0 -10.643,-10.286 -7.199,0 L -11.128,0 0,0 Z m -17.741,-24.565 c -1.411,-1.428 -2.29,-3.361 -2.647,-5.807 l 17.173,0 c -0.183,2.602 -1.081,4.58 -2.656,5.927 -1.594,1.355 -3.563,2.023 -5.917,2.023 -2.555,0 -4.542,-0.714 -5.953,-2.143 m 14.92,8.463 c 2.656,-1.163 4.854,-3.013 6.576,-5.541 1.567,-2.235 2.583,-4.818 3.041,-7.748 0.266,-1.722 0.385,-4.204 0.339,-7.447 l -27.77,0 c 0.155,-3.764 1.474,-6.393 3.984,-7.904 1.52,-0.943 3.352,-1.41 5.495,-1.41 2.272,0 4.113,0.576 5.532,1.712 0.77,0.623 1.457,1.484 2.052,2.583 l 10.176,0 c -0.266,-2.225 -1.493,-4.479 -3.691,-6.769 -3.417,-3.654 -8.198,-5.476 -14.343,-5.476 -5.074,0 -9.553,1.538 -13.437,4.615 -3.874,3.078 -5.816,8.079 -5.816,15.012 0,6.494 1.759,11.477 5.257,14.938 3.499,3.454 8.051,5.194 13.638,5.194 3.316,0 6.302,-0.577 8.967,-1.759"
             style="fill:#0c4360;fill-opacity:1;fill-rule:nonzero;stroke:none"
             id="path30"
             inkscape:connector-curvature="0" />
        </g>
        <g
           id="g32"
           transform="translate(578.4015,101.9977)">
          <path
             d="m 0,0 c -1.365,2.226 -3.554,3.343 -6.594,3.343 -3.655,0 -6.164,-1.694 -7.529,-5.056 -0.705,-1.795 -1.062,-4.066 -1.062,-6.814 0,-4.35 1.19,-7.41 3.572,-9.186 1.41,-1.026 3.086,-1.548 5.019,-1.548 2.802,0 4.936,1.062 6.411,3.169 1.474,2.106 2.216,4.909 2.216,8.426 C 2.033,-4.771 1.346,-2.216 0,0 M 7.648,7.053 C 10.753,3.82 12.31,-0.925 12.31,-7.19 c 0,-6.603 -1.521,-11.631 -4.552,-15.094 -3.041,-3.462 -6.961,-5.202 -11.742,-5.202 -3.059,0 -5.596,0.76 -7.611,2.244 -1.099,0.824 -2.18,2.033 -3.242,3.609 l 0,-19.527 -9.856,0 0,52.234 9.544,0 0,-5.542 c 1.081,1.64 2.235,2.913 3.453,3.856 2.226,1.676 4.882,2.51 7.959,2.51 4.479,0 8.28,-1.621 11.385,-4.845"
             style="fill:#0c4360;fill-opacity:1;fill-rule:nonzero;stroke:none"
             id="path34"
             inkscape:connector-curvature="0" />
        </g>
        <g
           id="g36"
           transform="translate(618.9397,93.8189)">
          <path
             d="m 0,0 c -0.632,-0.394 -1.273,-0.714 -1.924,-0.952 -0.659,-0.239 -1.548,-0.459 -2.674,-0.669 l -2.28,-0.412 c -2.126,-0.367 -3.646,-0.815 -4.58,-1.337 -1.566,-0.898 -2.354,-2.29 -2.354,-4.168 0,-1.676 0.486,-2.885 1.438,-3.627 0.962,-0.751 2.125,-1.117 3.499,-1.117 2.179,0 4.186,0.613 6.017,1.859 1.841,1.236 2.784,3.499 2.858,6.778 L 0,0 Z m -6.091,4.561 c 1.859,0.238 3.178,0.522 3.984,0.87 1.429,0.596 2.144,1.521 2.144,2.785 0,1.529 -0.55,2.601 -1.649,3.178 -1.099,0.586 -2.702,0.879 -4.836,0.879 -2.391,0 -4.076,-0.577 -5.074,-1.722 -0.715,-0.842 -1.173,-1.987 -1.41,-3.444 l -9.627,0 c 0.211,3.28 1.154,5.981 2.812,8.088 2.647,3.297 7.19,4.955 13.629,4.955 4.194,0 7.922,-0.824 11.183,-2.446 3.242,-1.63 4.872,-4.698 4.872,-9.213 l 0,-17.201 c 0,-1.191 0.028,-2.638 0.073,-4.332 0.065,-1.283 0.266,-2.153 0.596,-2.611 0.33,-0.458 0.815,-0.843 1.466,-1.136 l 0,-1.447 -10.836,0 c -0.311,0.76 -0.512,1.475 -0.632,2.134 -0.119,0.669 -0.219,1.42 -0.284,2.281 -1.383,-1.475 -2.985,-2.72 -4.781,-3.755 -2.161,-1.218 -4.607,-1.823 -7.327,-1.823 -3.471,0 -6.338,0.962 -8.6,2.903 -2.262,1.942 -3.398,4.69 -3.398,8.244 0,4.607 1.823,7.931 5.468,10.002 1.996,1.126 4.937,1.932 8.811,2.408 l 3.416,0.403 z"
             style="fill:#0c4360;fill-opacity:1;fill-rule:nonzero;stroke:none"
             id="path38"
             inkscape:connector-curvature="0" />
        </g>
        <g
           id="g40"
           transform="translate(658.7721,113.9506)">
          <path
             d="m 0,0 c 0.129,-0.009 0.412,-0.028 0.852,-0.055 l 0,-10.039 c -0.623,0.065 -1.191,0.111 -1.676,0.138 -0.486,0.018 -0.889,0.028 -1.191,0.028 -4.011,0 -6.704,-1.283 -8.078,-3.847 -0.77,-1.447 -1.154,-3.673 -1.154,-6.677 l 0,-17.915 -10.039,0 0,37.488 9.508,0 0,-6.531 c 1.548,2.501 2.885,4.204 4.03,5.129 1.859,1.53 4.286,2.299 7.272,2.299 C -0.293,0.018 -0.137,0.009 0,0"
             style="fill:#0c4360;fill-opacity:1;fill-rule:nonzero;stroke:none"
             id="path42"
             inkscape:connector-curvature="0" />
        </g>
        <g
           id="g44"
           transform="translate(663.3424,105.7441)">
          <path
             d="m 0,0 0,6.988 5.322,0 0,10.451 9.854,0 0,-10.451 6.201,0 0,-6.988 -6.201,0 0,-19.802 c 0,-1.539 0.211,-2.5 0.605,-2.867 0.394,-0.384 1.603,-0.577 3.636,-0.577 0.303,0 0.623,0 0.953,0.019 0.348,0.009 0.678,0.027 1.007,0.055 l 0,-7.328 -4.726,-0.174 c -4.717,-0.155 -7.931,0.642 -9.653,2.409 -1.118,1.117 -1.676,2.858 -1.676,5.194 L 5.322,0 0,0 Z"
             style="fill:#0c4360;fill-opacity:1;fill-rule:nonzero;stroke:none"
             id="path46"
             inkscape:connector-curvature="0" />
        </g>
        <g
           id="g48"
           transform="translate(701.0501,103.8481)">
          <path
             d="m 0,0 c -1.41,-1.429 -2.299,-3.361 -2.656,-5.807 l 17.173,0 c -0.183,2.601 -1.072,4.58 -2.656,5.926 C 10.267,1.474 8.289,2.143 5.944,2.143 3.389,2.143 1.402,1.429 0,0 M 14.911,8.463 C 17.567,7.3 19.765,5.45 21.496,2.922 c 1.567,-2.235 2.574,-4.818 3.041,-7.749 0.266,-1.722 0.376,-4.204 0.33,-7.446 l -27.78,0 c 0.165,-3.764 1.494,-6.393 3.994,-7.905 1.52,-0.943 3.352,-1.41 5.495,-1.41 2.272,0 4.113,0.577 5.541,1.713 0.77,0.623 1.448,1.484 2.043,2.583 l 10.185,0 c -0.266,-2.226 -1.502,-4.479 -3.7,-6.769 -3.408,-3.654 -8.188,-5.477 -14.343,-5.477 -5.065,0 -9.553,1.539 -13.428,4.616 -3.883,3.078 -5.825,8.079 -5.825,15.012 0,6.494 1.759,11.476 5.258,14.938 3.498,3.453 8.05,5.194 13.637,5.194 3.316,0 6.302,-0.578 8.967,-1.759"
             style="fill:#0c4360;fill-opacity:1;fill-rule:nonzero;stroke:none"
             id="path50"
             inkscape:connector-curvature="0" />
        </g>
        <g
           id="g52"
           transform="translate(778.5264,112.9339)">
          <path
             d="m 0,0 c 1.639,-0.641 3.114,-1.759 4.451,-3.371 1.072,-1.3 1.786,-2.912 2.162,-4.817 0.229,-1.255 0.357,-3.105 0.357,-5.542 l -0.073,-23.621 -10.212,0 0,23.869 c 0,1.419 -0.239,2.592 -0.696,3.517 -0.898,1.731 -2.52,2.61 -4.901,2.61 -2.757,0 -4.653,-1.126 -5.706,-3.38 -0.531,-1.181 -0.797,-2.619 -0.797,-4.295 l 0,-22.321 -10.047,0 0,22.321 c 0,2.226 -0.238,3.838 -0.696,4.854 -0.843,1.814 -2.492,2.711 -4.937,2.711 -2.848,0 -4.753,-0.897 -5.733,-2.711 -0.541,-1.035 -0.807,-2.564 -0.807,-4.616 l 0,-22.559 -10.111,0 0,37.424 9.699,0 0,-5.477 c 1.228,1.951 2.391,3.343 3.49,4.177 1.942,1.456 4.442,2.189 7.52,2.189 2.921,0 5.275,-0.632 7.07,-1.887 1.448,-1.173 2.537,-2.675 3.289,-4.506 1.309,2.198 2.921,3.819 4.854,4.845 2.061,1.035 4.341,1.548 6.86,1.548 C -3.288,0.962 -1.63,0.65 0,0"
             style="fill:#0c4360;fill-opacity:1;fill-rule:nonzero;stroke:none"
             id="path54"
             inkscape:connector-curvature="0" />
        </g>
        <g
           id="g56"
           transform="translate(804.5841,103.8481)">
          <path
             d="m 0,0 c -1.402,-1.429 -2.29,-3.361 -2.656,-5.807 l 17.173,0 c -0.174,2.601 -1.063,4.58 -2.656,5.926 C 10.276,1.474 8.307,2.143 5.953,2.143 3.389,2.143 1.41,1.429 0,0 M 14.92,8.463 C 17.576,7.3 19.774,5.45 21.505,2.922 c 1.567,-2.235 2.574,-4.818 3.041,-7.749 0.266,-1.722 0.376,-4.204 0.321,-7.446 l -27.771,0 c 0.156,-3.764 1.493,-6.393 3.994,-7.905 1.52,-0.943 3.352,-1.41 5.495,-1.41 2.263,0 4.113,0.577 5.532,1.713 0.779,0.623 1.465,1.484 2.052,2.583 l 10.185,0 c -0.275,-2.226 -1.502,-4.479 -3.7,-6.769 -3.417,-3.654 -8.189,-5.477 -14.353,-5.477 -5.065,0 -9.534,1.539 -13.418,4.616 -3.883,3.078 -5.825,8.079 -5.825,15.012 0,6.494 1.749,11.476 5.257,14.938 3.499,3.453 8.042,5.194 13.629,5.194 3.325,0 6.31,-0.578 8.976,-1.759"
             style="fill:#0c4360;fill-opacity:1;fill-rule:nonzero;stroke:none"
             id="path58"
             inkscape:connector-curvature="0" />
        </g>
        <g
           id="g60"
           transform="translate(865.2535,110.9278)">
          <path
             d="m 0,0 c 2.491,-2.024 3.737,-5.394 3.737,-10.093 l 0,-25.252 -10.213,0 0,22.797 c 0,1.978 -0.274,3.49 -0.806,4.553 -0.97,1.923 -2.82,2.884 -5.55,2.884 -3.361,0 -5.66,-1.41 -6.915,-4.231 -0.641,-1.484 -0.971,-3.398 -0.971,-5.706 l 0,-20.297 -9.965,0 0,37.424 9.654,0 0,-5.477 c 1.273,1.933 2.482,3.325 3.627,4.177 2.033,1.502 4.625,2.262 7.767,2.262 C -5.715,3.041 -2.5,2.024 0,0"
             style="fill:#0c4360;fill-opacity:1;fill-rule:nonzero;stroke:none"
             id="path62"
             inkscape:connector-curvature="0" />
        </g>
        <g
           id="g64"
           transform="translate(874.3482,105.7441)">
          <path
             d="m 0,0 0,6.988 5.322,0 0,10.451 9.854,0 0,-10.451 6.192,0 0,-6.988 -6.192,0 0,-19.802 c 0,-1.539 0.193,-2.5 0.596,-2.867 0.394,-0.384 1.612,-0.577 3.636,-0.577 0.302,0 0.632,0 0.962,0.019 0.338,0.009 0.678,0.027 0.998,0.055 l 0,-7.328 -4.717,-0.174 c -4.717,-0.155 -7.931,0.642 -9.663,2.409 -1.108,1.117 -1.666,2.858 -1.666,5.194 L 5.322,0 0,0 Z"
             style="fill:#0c4360;fill-opacity:1;fill-rule:nonzero;stroke:none"
             id="path66"
             inkscape:connector-curvature="0" />
        </g>
        <g
           id="g68"
           transform="translate(351.5783,135.9046)">
          <path
             d="M 0,0 C 0.119,0.119 0.238,0.257 0.357,0.412 0.495,0.568 0.614,0.705 0.732,0.834 L 1.007,1.108 C 0.879,1.044 0.76,0.952 0.641,0.834 0.577,0.77 0.302,0.55 -0.192,0.183 c -0.303,-0.311 -0.669,-0.641 -1.099,-1.007 -0.422,-0.367 -0.88,-0.769 -1.374,-1.2 -0.431,-0.43 -0.852,-0.843 -1.283,-1.237 -0.43,-0.402 -0.787,-0.751 -1.099,-1.062 -0.119,-0.174 -0.238,-0.312 -0.366,-0.412 -0.128,-0.092 -0.247,-0.193 -0.366,-0.321 L -6.054,-5.33 c 0.055,0 0.146,0.064 0.275,0.183 0.119,0.119 0.256,0.229 0.412,0.32 0.146,0.092 0.32,0.238 0.504,0.422 0.311,0.302 0.677,0.641 1.099,1.007 0.43,0.366 0.888,0.733 1.373,1.099 0.431,0.431 0.861,0.843 1.292,1.246 C -0.678,-0.65 -0.311,-0.302 0,0 m -9.361,-7.529 c 0.422,0.422 0.843,0.825 1.246,1.191 0.394,0.366 0.778,0.733 1.145,1.099 0.366,0.367 0.714,0.724 1.053,1.063 0.339,0.339 0.66,0.659 0.962,0.961 0.302,0.312 0.577,0.587 0.824,0.825 0.238,0.247 0.422,0.467 0.541,0.641 l 0.558,0.558 c -0.064,0 -0.119,-0.027 -0.183,-0.091 -0.183,-0.183 -0.33,-0.311 -0.458,-0.376 -0.311,-0.238 -0.824,-0.677 -1.557,-1.282 -0.311,-0.311 -0.65,-0.614 -1.007,-0.925 -0.367,-0.302 -0.761,-0.604 -1.2,-0.916 -0.357,-0.366 -0.751,-0.733 -1.145,-1.099 -0.394,-0.366 -0.815,-0.733 -1.237,-1.108 -0.421,-0.366 -0.833,-0.751 -1.236,-1.145 -0.403,-0.403 -0.778,-0.779 -1.145,-1.145 -0.439,-0.366 -0.815,-0.724 -1.145,-1.063 -0.339,-0.338 -0.659,-0.659 -0.97,-0.961 -0.303,-0.311 -0.568,-0.586 -0.779,-0.834 -0.211,-0.247 -0.412,-0.457 -0.595,-0.631 -0.12,-0.129 -0.193,-0.22 -0.229,-0.285 -0.028,-0.064 -0.074,-0.128 -0.138,-0.182 l -0.092,-0.092 0.092,0.092 c 0.064,0.054 0.128,0.1 0.193,0.136 0.054,0.037 0.146,0.111 0.265,0.23 0.183,0.183 0.412,0.366 0.687,0.549 0.284,0.183 0.568,0.431 0.879,0.742 0.303,0.302 0.651,0.605 1.054,0.916 0.393,0.302 0.778,0.641 1.145,1.017 0.43,0.302 0.842,0.641 1.236,0.998 0.394,0.375 0.806,0.742 1.236,1.117 m -2.015,-28.96 c 0.119,0.302 0.211,0.586 0.275,0.824 0.055,0.247 0.147,0.467 0.275,0.65 0.119,0.238 0.22,0.458 0.275,0.641 l -0.275,-0.558 c -0.128,-0.174 -0.247,-0.403 -0.376,-0.678 -0.119,-0.275 -0.238,-0.577 -0.357,-0.879 -0.119,-0.303 -0.274,-0.623 -0.458,-0.962 -0.183,-0.339 -0.366,-0.724 -0.558,-1.145 -0.184,-0.367 -0.367,-0.751 -0.541,-1.154 -0.192,-0.403 -0.375,-0.815 -0.549,-1.246 -0.183,-0.421 -0.367,-0.843 -0.559,-1.236 -0.183,-0.403 -0.339,-0.816 -0.458,-1.237 -0.183,-0.375 -0.348,-0.733 -0.504,-1.117 -0.155,-0.357 -0.293,-0.696 -0.412,-0.998 -0.119,-0.312 -0.211,-0.605 -0.265,-0.88 -0.065,-0.275 -0.156,-0.503 -0.285,-0.687 l -0.274,-0.549 0.274,0.549 c 0.129,0.184 0.248,0.394 0.367,0.641 0.128,0.248 0.247,0.523 0.366,0.834 0.119,0.302 0.275,0.632 0.458,0.962 0.183,0.338 0.367,0.723 0.55,1.145 0.183,0.366 0.375,0.751 0.559,1.154 0.183,0.394 0.357,0.815 0.54,1.245 0.192,0.412 0.357,0.852 0.504,1.283 0.155,0.43 0.329,0.833 0.513,1.199 0.183,0.422 0.348,0.815 0.503,1.191 0.156,0.366 0.284,0.705 0.412,1.008 m 2.29,7.629 c 0.119,0.183 0.193,0.339 0.229,0.458 0.028,0.128 0.083,0.247 0.137,0.376 l 0.193,0.366 c -0.064,-0.064 -0.128,-0.165 -0.193,-0.275 -0.054,-0.128 -0.119,-0.247 -0.182,-0.366 -0.065,-0.129 -0.156,-0.284 -0.275,-0.467 -0.184,-0.431 -0.431,-0.889 -0.724,-1.384 -0.311,-0.485 -0.614,-1.062 -0.925,-1.749 -0.311,-0.659 -0.641,-1.364 -1.007,-2.106 -0.367,-0.733 -0.77,-1.53 -1.191,-2.391 -0.367,-0.797 -0.751,-1.639 -1.154,-2.519 -0.394,-0.888 -0.815,-1.767 -1.237,-2.628 -0.183,-0.422 -0.366,-0.861 -0.54,-1.291 -0.193,-0.422 -0.375,-0.88 -0.559,-1.366 -0.183,-0.439 -0.366,-0.869 -0.549,-1.291 -0.183,-0.431 -0.367,-0.87 -0.55,-1.291 -0.302,-0.861 -0.595,-1.667 -0.87,-2.437 -0.284,-0.769 -0.568,-1.483 -0.87,-2.161 -0.193,-0.724 -0.375,-1.374 -0.559,-1.924 -0.119,-0.311 -0.21,-0.568 -0.265,-0.787 -0.064,-0.211 -0.138,-0.44 -0.193,-0.687 -0.119,-0.248 -0.183,-0.44 -0.183,-0.559 0,-0.119 -0.027,-0.238 -0.091,-0.357 -0.056,-0.119 -0.083,-0.247 -0.083,-0.375 0,0.128 0.027,0.256 0.083,0.375 0.064,0.119 0.109,0.238 0.137,0.357 0.037,0.119 0.11,0.311 0.229,0.559 0.183,0.366 0.366,0.824 0.55,1.374 0.128,0.311 0.247,0.623 0.375,0.925 0.119,0.302 0.238,0.614 0.366,0.916 0.312,0.668 0.623,1.401 0.962,2.161 0.33,0.761 0.65,1.576 0.962,2.437 0.366,0.851 0.751,1.722 1.145,2.573 0.394,0.852 0.778,1.713 1.144,2.574 0.797,1.768 1.567,3.508 2.299,5.193 0.733,1.685 1.402,3.206 2.015,4.552 0.312,0.669 0.578,1.273 0.825,1.795 0.238,0.522 0.421,0.989 0.549,1.42 m -20.544,13.885 c 0.119,0.357 0.211,0.605 0.275,0.724 0.064,0.118 0.092,0.219 0.092,0.274 l -0.458,-0.916 c -0.119,-0.302 -0.293,-0.65 -0.513,-1.044 -0.211,-0.403 -0.431,-0.852 -0.678,-1.337 -0.247,-0.494 -0.485,-1.007 -0.732,-1.566 -0.248,-0.549 -0.523,-1.127 -0.834,-1.74 -0.302,-0.678 -0.577,-1.337 -0.824,-1.978 -0.238,-0.651 -0.513,-1.31 -0.824,-1.97 -0.303,-0.678 -0.586,-1.346 -0.871,-1.987 -0.275,-0.641 -0.531,-1.274 -0.788,-1.887 -0.301,-0.669 -0.558,-1.291 -0.769,-1.878 -0.22,-0.586 -0.412,-1.126 -0.595,-1.621 -0.247,-0.485 -0.449,-0.916 -0.595,-1.319 -0.156,-0.403 -0.303,-0.76 -0.422,-1.062 -0.055,-0.183 -0.146,-0.403 -0.265,-0.65 -0.064,-0.12 -0.092,-0.202 -0.092,-0.266 l 0.449,0.916 c 0.128,0.302 0.293,0.641 0.513,1.017 0.211,0.366 0.44,0.787 0.687,1.282 0.302,0.485 0.577,1.007 0.815,1.566 0.247,0.55 0.531,1.126 0.833,1.74 0.302,0.678 0.605,1.319 0.87,1.942 0.275,0.605 0.568,1.246 0.88,1.923 0.293,0.678 0.577,1.328 0.815,1.969 0.247,0.651 0.494,1.301 0.742,1.979 0.302,0.677 0.568,1.31 0.778,1.886 0.22,0.596 0.413,1.118 0.595,1.613 0.248,0.485 0.431,0.925 0.55,1.337 0.119,0.393 0.238,0.742 0.366,1.053 m -12.016,5.606 c 0.614,0.668 1.172,1.291 1.703,1.886 0.513,0.577 0.953,1.081 1.32,1.511 0.43,0.486 0.796,0.916 1.098,1.283 -0.118,-0.055 -0.238,-0.147 -0.366,-0.266 -0.119,-0.128 -0.238,-0.266 -0.357,-0.412 -0.128,-0.165 -0.275,-0.33 -0.467,-0.513 -0.852,-0.733 -1.924,-1.813 -3.206,-3.215 -0.302,-0.366 -0.632,-0.742 -0.961,-1.108 -0.339,-0.366 -0.687,-0.733 -1.054,-1.099 -0.366,-0.43 -0.742,-0.843 -1.099,-1.246 -0.375,-0.393 -0.769,-0.806 -1.191,-1.236 -0.806,-0.925 -1.584,-1.832 -2.344,-2.766 -0.76,-0.916 -1.576,-1.86 -2.427,-2.839 -0.797,-0.98 -1.576,-1.942 -2.345,-2.904 -0.76,-0.944 -1.512,-1.868 -2.244,-2.794 -0.733,-0.915 -1.42,-1.813 -2.061,-2.665 -0.641,-0.861 -1.273,-1.658 -1.878,-2.4 -0.558,-0.732 -1.062,-1.41 -1.52,-2.015 -0.449,-0.613 -0.843,-1.163 -1.145,-1.657 -0.174,-0.239 -0.32,-0.44 -0.403,-0.595 -0.1,-0.156 -0.201,-0.294 -0.33,-0.413 -0.128,-0.183 -0.183,-0.302 -0.183,-0.366 0.312,0.366 0.678,0.797 1.099,1.282 0.303,0.44 0.705,0.944 1.2,1.521 0.486,0.577 1.035,1.245 1.649,1.978 0.604,0.732 1.245,1.511 1.923,2.345 0.669,0.824 1.374,1.694 2.116,2.619 0.732,0.925 1.474,1.85 2.235,2.803 0.769,0.953 1.575,1.877 2.427,2.802 0.797,0.981 1.603,1.942 2.39,2.885 0.788,0.962 1.557,1.869 2.29,2.712 0.797,0.925 1.53,1.795 2.208,2.619 0.668,0.834 1.318,1.584 1.923,2.263 m -23.566,-28.595 c 0.119,0.247 0.229,0.467 0.32,0.65 0.092,0.183 0.192,0.339 0.312,0.458 0.128,0.183 0.22,0.339 0.284,0.458 -0.064,-0.119 -0.156,-0.275 -0.284,-0.458 -0.12,-0.119 -0.257,-0.275 -0.403,-0.458 -0.156,-0.183 -0.293,-0.366 -0.422,-0.559 -0.174,-0.357 -0.54,-0.851 -1.099,-1.465 -0.302,-0.549 -0.705,-1.163 -1.19,-1.832 -0.184,-0.311 -0.367,-0.604 -0.55,-0.879 -0.183,-0.284 -0.367,-0.568 -0.549,-0.879 -0.239,-0.302 -0.449,-0.577 -0.596,-0.825 -0.156,-0.238 -0.284,-0.485 -0.412,-0.732 -0.192,-0.247 -0.32,-0.458 -0.412,-0.641 -0.092,-0.193 -0.202,-0.339 -0.321,-0.458 -0.128,-0.183 -0.183,-0.34 -0.183,-0.458 0.055,0.055 0.147,0.183 0.275,0.366 0.119,0.119 0.247,0.266 0.357,0.458 0.128,0.183 0.257,0.394 0.376,0.632 0.183,0.256 0.366,0.485 0.549,0.696 0.183,0.22 0.367,0.476 0.549,0.779 0.184,0.311 0.386,0.604 0.596,0.879 0.211,0.284 0.421,0.568 0.605,0.879 0.238,0.293 0.448,0.595 0.632,0.916 0.192,0.302 0.366,0.605 0.549,0.916 0.193,0.302 0.375,0.586 0.559,0.833 0.183,0.238 0.329,0.486 0.458,0.724 m 78.236,48.818 c 0.238,0 0.495,-0.293 0.769,-0.871 0.275,-0.586 0.541,-1.245 0.788,-1.978 0.239,-0.742 0.458,-1.474 0.641,-2.216 0.184,-0.733 0.275,-1.228 0.275,-1.466 0,-0.119 -0.384,-0.934 -1.154,-2.436 -0.76,-1.502 -1.786,-3.499 -3.068,-5.972 -1.282,-2.482 -2.757,-5.33 -4.406,-8.554 -1.648,-3.215 -3.38,-6.604 -5.175,-10.149 -1.813,-3.562 -3.608,-7.19 -5.413,-10.899 -1.804,-3.7 -3.498,-7.263 -5.092,-10.661 -1.585,-3.398 -2.995,-6.576 -4.213,-9.507 -1.228,-2.949 -2.143,-5.431 -2.757,-7.455 -0.119,-0.486 -0.531,-0.559 -1.236,-0.229 -0.706,0.338 -1.457,0.824 -2.244,1.474 -0.797,0.641 -1.502,1.301 -2.116,1.969 -0.605,0.678 -0.907,1.109 -0.907,1.292 0.541,2.024 1.035,3.801 1.456,5.331 0.431,1.529 0.953,3.104 1.567,4.734 0.613,1.622 1.383,3.435 2.335,5.432 0.952,1.988 2.18,4.488 3.719,7.483 1.529,3.004 3.434,6.649 5.733,10.945 2.29,4.286 5.083,9.525 8.381,15.717 -8.921,-7.3 -16.285,-14.114 -22.101,-20.462 -5.807,-6.338 -10.45,-11.842 -13.94,-16.532 -3.489,-4.698 -5.999,-8.371 -7.52,-11.046 -1.529,-2.656 -2.472,-3.984 -2.848,-3.984 -0.357,0 -0.852,0.248 -1.465,0.724 -0.614,0.495 -1.219,1.035 -1.833,1.612 -0.604,0.586 -1.126,1.154 -1.556,1.704 -0.431,0.549 -0.641,0.916 -0.641,1.099 0.732,1.346 1.804,3.434 3.205,6.255 1.411,2.821 2.922,5.926 4.543,9.324 1.621,3.408 3.288,6.943 5.001,10.616 1.703,3.691 3.251,7.061 4.625,10.157 1.374,3.095 2.51,5.733 3.389,7.913 0.897,2.171 1.337,3.499 1.337,3.984 -3.856,-3.544 -7.593,-7.409 -11.229,-11.567 -3.645,-4.177 -7.061,-8.326 -10.23,-12.448 -3.178,-4.149 -6.1,-8.133 -8.757,-11.961 -2.665,-3.829 -4.954,-7.217 -6.878,-10.158 -1.932,-2.94 -3.471,-5.303 -4.643,-7.07 -1.155,-1.787 -1.796,-2.675 -1.924,-2.675 -0.238,0 -0.65,0.229 -1.236,0.696 -0.577,0.449 -1.173,0.989 -1.786,1.603 -0.614,0.614 -1.163,1.246 -1.649,1.878 -0.494,0.65 -0.733,1.19 -0.733,1.621 3.115,5.395 6.622,10.844 10.497,16.358 3.883,5.514 7.876,10.798 11.97,15.863 4.095,5.047 8.134,9.773 12.1,14.197 3.984,4.405 7.61,8.252 10.917,11.531 3.306,3.288 6.128,5.862 8.445,7.721 2.317,1.868 3.883,2.803 4.68,2.803 0.605,0 1.181,-0.284 1.74,-0.87 0.55,-0.587 1.053,-1.237 1.511,-1.979 0.459,-0.732 0.825,-1.456 1.1,-2.161 0.274,-0.706 0.412,-1.182 0.412,-1.42 0,-0.128 -0.184,-0.614 -0.55,-1.475 -0.366,-0.861 -0.834,-1.95 -1.42,-3.26 -0.586,-1.319 -1.236,-2.803 -1.969,-4.461 -0.732,-1.657 -1.502,-3.343 -2.299,-5.055 -1.831,-4.049 -3.901,-8.582 -6.237,-13.602 6.549,6.137 12.42,11.614 17.613,16.45 2.198,2.079 4.387,4.113 6.558,6.073 2.17,1.951 4.112,3.718 5.825,5.284 1.712,1.567 3.132,2.812 4.259,3.765 1.136,0.952 1.758,1.419 1.886,1.419 0.239,0 0.468,-0.1 0.687,-0.311 0.22,-0.22 0.413,-0.449 0.596,-0.687 0.238,-0.248 0.421,-0.559 0.55,-0.925 0.247,0.247 0.494,0.485 0.732,0.733 0.495,0.494 0.952,0.742 1.383,0.742"
             style="fill:#0c4360;fill-opacity:1;fill-rule:nonzero;stroke:none"
             id="path70"
             inkscape:connector-curvature="0" />
        </g>
        <g
           id="g72"
           transform="translate(381.9315,106.8705)">
          <path
             d="M 0,0 C 0.128,0.485 0.256,0.962 0.412,1.411 0.558,1.878 0.705,2.354 0.824,2.839 0.943,3.334 1.053,3.81 1.145,4.268 1.236,4.726 1.319,5.166 1.383,5.596 1.502,6.091 1.575,6.549 1.612,6.979 1.639,7.41 1.685,7.813 1.74,8.17 l 0,1.749 0,0.742 0,-0.192 C 1.74,10.405 1.731,10.331 1.694,10.24 1.667,10.157 1.648,10.038 1.648,9.919 1.648,9.736 1.639,9.489 1.612,9.187 1.575,8.875 1.529,8.536 1.465,8.17 1.41,7.813 1.365,7.419 1.328,7.025 1.3,6.622 1.218,6.183 1.099,5.688 0.98,5.202 0.87,4.744 0.778,4.314 0.686,3.883 0.577,3.416 0.458,2.931 0.339,2.446 0.211,1.969 0.091,1.511 -0.028,1.053 -0.156,0.577 -0.275,0.091 -0.394,-0.348 -0.531,-0.751 -0.687,-1.154 -0.834,-1.548 -0.98,-1.905 -1.099,-2.207 -1.218,-2.583 -1.328,-2.903 -1.42,-3.178 c -0.091,-0.275 -0.201,-0.504 -0.32,-0.687 -0.065,-0.183 -0.092,-0.339 -0.092,-0.458 0,-0.064 -0.037,-0.119 -0.092,-0.192 l 0.266,0.559 c 0.128,0.182 0.256,0.412 0.375,0.677 0.12,0.284 0.239,0.605 0.367,0.98 0.119,0.302 0.274,0.65 0.458,1.053 C -0.275,-0.852 -0.129,-0.439 0,0 m -3.765,-6.723 c 0.129,0.248 0.229,0.486 0.33,0.697 0.082,0.21 0.202,0.439 0.321,0.686 0.247,0.422 0.457,0.843 0.641,1.246 0.183,0.394 0.366,0.806 0.549,1.227 0.119,0.431 0.266,0.843 0.459,1.209 0.182,0.367 0.338,0.733 0.457,1.099 0.431,1.475 0.797,2.665 1.099,3.591 0.12,0.485 0.22,0.796 0.284,0.916 C 0.43,4.067 0.458,4.186 0.458,4.314 0.458,4.186 0.43,4.067 0.375,3.948 0.311,3.828 0.247,3.682 0.183,3.535 0.128,3.371 0.064,3.206 0,3.032 -0.129,2.592 -0.293,2.079 -0.504,1.465 -0.715,0.852 -0.98,0.211 -1.283,-0.467 -1.402,-0.833 -1.548,-1.2 -1.695,-1.566 c -0.155,-0.376 -0.329,-0.769 -0.503,-1.2 -0.184,-0.43 -0.367,-0.843 -0.55,-1.236 -0.183,-0.403 -0.394,-0.825 -0.65,-1.246 -0.174,-0.43 -0.394,-0.852 -0.642,-1.282 -0.119,-0.248 -0.228,-0.486 -0.311,-0.696 -0.091,-0.22 -0.201,-0.413 -0.32,-0.596 -0.312,-0.494 -0.586,-0.934 -0.825,-1.328 -0.247,-0.403 -0.494,-0.842 -0.741,-1.337 -0.303,-0.43 -0.596,-0.843 -0.871,-1.245 -0.275,-0.394 -0.568,-0.807 -0.87,-1.237 -0.128,-0.247 -0.274,-0.458 -0.458,-0.641 -0.183,-0.192 -0.338,-0.403 -0.458,-0.651 l 0.367,0 0.824,1.109 c 0.302,0.43 0.595,0.842 0.87,1.236 0.275,0.403 0.568,0.815 0.87,1.246 0.302,0.485 0.587,0.934 0.825,1.328 0.247,0.403 0.494,0.852 0.732,1.337 0.119,0.247 0.229,0.458 0.321,0.641 0.1,0.184 0.201,0.403 0.32,0.641 m -11.091,20.864 c -0.129,-0.054 -0.183,-0.1 -0.183,-0.128 0,-0.036 -0.037,-0.073 -0.092,-0.146 l -0.091,-0.092 c 0.119,0.064 0.274,0.165 0.457,0.284 0.119,0.119 0.275,0.22 0.458,0.312 0.183,0.1 0.394,0.229 0.642,0.412 0.302,0.119 0.586,0.274 0.824,0.467 0.247,0.183 0.522,0.366 0.833,0.55 0.119,0.118 0.266,0.219 0.458,0.274 0.183,0.064 0.33,0.156 0.449,0.275 0.183,0.128 0.357,0.201 0.513,0.229 0.147,0.027 0.32,0.101 0.504,0.229 0.183,0.119 0.512,0.311 0.998,0.549 0.312,0.129 0.623,0.284 0.925,0.468 0.302,0.119 0.614,0.228 0.916,0.311 0.311,0.101 0.586,0.21 0.824,0.33 0.376,0.119 0.614,0.183 0.733,0.183 0.119,0.064 0.238,0.091 0.33,0.091 0.082,0 0.192,0.028 0.311,0.092 l 0.376,0 c 0.055,0 0.082,0.028 0.082,0.092 l -0.549,0 -0.55,0 c -0.357,0 -0.641,-0.037 -0.824,-0.092 -0.119,0 -0.422,-0.064 -0.916,-0.183 -0.119,-0.064 -0.275,-0.11 -0.467,-0.137 -0.174,-0.028 -0.33,-0.083 -0.449,-0.138 -0.367,-0.119 -0.715,-0.266 -1.054,-0.412 -0.338,-0.156 -0.686,-0.321 -1.053,-0.504 -0.311,-0.192 -0.632,-0.366 -0.961,-0.559 -0.339,-0.183 -0.66,-0.394 -0.971,-0.631 -0.55,-0.376 -1.044,-0.77 -1.466,-1.21 -0.549,-0.421 -0.888,-0.732 -1.007,-0.916 m -0.833,-1.749 c -0.175,-0.174 -0.349,-0.339 -0.495,-0.458 -0.156,-0.119 -0.303,-0.238 -0.422,-0.366 l -0.265,-0.275 0.082,0 0.275,0.275 c 0.128,0.128 0.257,0.247 0.421,0.366 0.147,0.119 0.321,0.257 0.504,0.376 0.183,0.119 0.376,0.256 0.595,0.412 0.211,0.156 0.477,0.33 0.779,0.504 0.238,0.192 0.467,0.375 0.687,0.549 0.21,0.192 0.476,0.339 0.778,0.458 0.303,0.183 0.587,0.367 0.825,0.55 0.247,0.192 0.494,0.339 0.732,0.467 0.303,0.119 0.568,0.265 0.779,0.412 0.211,0.147 0.449,0.293 0.696,0.412 0.485,0.248 0.824,0.43 1.007,0.55 l 0.367,0.183 0,0.091 c -0.119,-0.055 -0.275,-0.119 -0.458,-0.183 -0.183,-0.064 -0.522,-0.211 -1.007,-0.448 -0.495,-0.248 -0.999,-0.513 -1.512,-0.788 -0.522,-0.275 -1.062,-0.605 -1.612,-0.962 -0.494,-0.311 -0.98,-0.659 -1.465,-1.053 -0.495,-0.403 -0.916,-0.76 -1.291,-1.072 m -1.008,-15.707 c -0.064,-0.184 -0.101,-0.348 -0.138,-0.504 -0.027,-0.156 -0.073,-0.33 -0.128,-0.504 0.238,0.302 0.467,0.577 0.678,0.824 0.22,0.238 0.449,0.486 0.696,0.733 0.248,0.238 0.476,0.486 0.687,0.687 0.21,0.22 0.412,0.449 0.595,0.696 l 0.916,0.916 0.916,0.916 c -0.064,-0.064 -0.156,-0.119 -0.275,-0.183 -0.119,-0.055 -0.247,-0.138 -0.366,-0.22 -0.128,-0.092 -0.247,-0.211 -0.366,-0.33 -0.303,-0.302 -0.651,-0.632 -1.054,-0.962 -0.403,-0.339 -0.842,-0.751 -1.328,-1.245 l -0.833,-0.824 z m 3.581,-16.001 c 0.183,0.128 0.348,0.283 0.504,0.467 0.147,0.183 0.329,0.366 0.513,0.549 -0.064,0 -0.092,0.009 -0.092,0.046 0,0.037 -0.037,0.046 -0.092,0.046 l -1.016,-1.007 c -0.302,-0.248 -0.568,-0.495 -0.779,-0.742 -0.21,-0.248 -0.439,-0.458 -0.687,-0.642 -0.247,-0.247 -0.476,-0.439 -0.696,-0.595 -0.21,-0.156 -0.375,-0.293 -0.503,-0.421 -0.184,-0.174 -0.339,-0.321 -0.458,-0.413 -0.12,-0.091 -0.239,-0.192 -0.367,-0.32 -0.119,-0.119 -0.21,-0.183 -0.266,-0.183 l 1.091,0.824 c 0.192,0.128 0.384,0.284 0.604,0.467 0.211,0.184 0.44,0.366 0.687,0.55 0.238,0.183 0.486,0.384 0.723,0.595 0.248,0.211 0.523,0.467 0.834,0.779 m -4.131,13.244 c -0.119,-1.961 0.403,-3.691 1.558,-5.193 1.172,-1.502 3.214,-2.474 6.154,-2.904 1.466,1.969 2.821,4.048 4.085,6.256 1.246,2.207 2.308,4.396 3.16,6.576 0.861,2.17 1.529,4.268 2.015,6.292 0.486,2.024 0.733,3.829 0.733,5.422 0,1.411 -0.55,2.107 -1.649,2.107 -1.768,0 -3.691,-0.751 -5.733,-2.29 -2.043,-1.529 -3.939,-3.398 -5.642,-5.596 0.677,-0.934 1.163,-1.832 1.465,-2.72 0.312,-0.889 0.312,-1.493 0,-1.787 -0.302,-0.256 -1.035,-0.915 -2.198,-1.987 -1.163,-1.071 -2.473,-2.464 -3.948,-4.176 m -8.435,-18.749 c 2.262,0 4.497,0.623 6.695,1.878 2.198,1.254 4.277,2.93 6.237,5.01 -1.767,1.044 -3.224,2.308 -4.359,3.81 -1.127,1.511 -2.024,3.105 -2.702,4.836 -1.594,-2.152 -2.968,-4.543 -4.131,-7.172 -1.163,-2.638 -1.74,-5.431 -1.74,-8.362 m -0.641,4.131 c 0.064,0.302 0.119,0.595 0.183,0.87 0.055,0.274 0.165,0.577 0.284,0.879 0.174,0.605 0.412,1.255 0.723,1.933 l 0.55,1.099 c 0.064,0.238 0.22,0.613 0.458,1.099 0.183,0.375 0.385,0.733 0.604,1.108 0.211,0.367 0.412,0.733 0.596,1.109 l 1.364,2.207 c 0.248,0.366 0.495,0.714 0.742,1.044 0.247,0.339 0.486,0.659 0.733,0.971 l -0.275,0.824 -0.274,-0.275 c -0.248,-0.366 -0.486,-0.724 -0.733,-1.062 -0.247,-0.33 -0.495,-0.715 -0.742,-1.136 l -1.365,-2.207 c -0.247,-0.431 -0.467,-0.834 -0.65,-1.2 -0.174,-0.375 -0.357,-0.742 -0.54,-1.108 -0.129,-0.247 -0.22,-0.458 -0.285,-0.632 -0.063,-0.193 -0.118,-0.385 -0.183,-0.559 -0.119,-0.183 -0.192,-0.366 -0.228,-0.559 -0.037,-0.174 -0.111,-0.357 -0.23,-0.54 -0.119,-0.376 -0.22,-0.733 -0.311,-1.062 -0.091,-0.33 -0.211,-0.66 -0.33,-0.962 -0.055,-0.248 -0.146,-0.559 -0.265,-0.925 0,-0.119 -0.018,-0.266 -0.046,-0.458 -0.046,-0.183 -0.055,-0.339 -0.055,-0.458 -0.119,-0.605 -0.183,-1.072 -0.183,-1.383 -0.065,-0.174 -0.073,-0.348 -0.046,-0.504 0.037,-0.155 0.046,-0.293 0.046,-0.412 l 0,-0.275 0,0.275 c 0.064,0.183 0.091,0.494 0.091,0.916 0.064,0.183 0.101,0.384 0.147,0.604 0.028,0.22 0.101,0.476 0.22,0.779 m -0.733,0.183 c 0,0.183 0.064,0.467 0.183,0.824 0,0.183 0.064,0.468 0.183,0.834 0.119,0.302 0.229,0.632 0.321,0.962 0.091,0.329 0.202,0.659 0.33,0.97 0.119,0.605 0.357,1.246 0.723,1.924 0.129,0.311 0.248,0.586 0.366,0.824 0.119,0.248 0.248,0.522 0.367,0.834 0.128,0.237 0.201,0.457 0.229,0.65 0.028,0.174 0.119,0.339 0.229,0.458 0.064,0.174 0.155,0.329 0.275,0.449 -0.065,-0.12 -0.147,-0.275 -0.275,-0.449 -0.11,-0.119 -0.229,-0.284 -0.321,-0.458 -0.091,-0.193 -0.192,-0.376 -0.311,-0.568 -0.311,-0.486 -0.595,-1.035 -0.834,-1.649 -0.119,-0.302 -0.256,-0.613 -0.402,-0.915 -0.166,-0.303 -0.294,-0.614 -0.413,-0.916 -0.119,-0.312 -0.22,-0.651 -0.284,-1.017 -0.064,-0.367 -0.156,-0.705 -0.274,-1.008 -0.129,-0.366 -0.193,-0.677 -0.193,-0.925 0,-0.119 -0.009,-0.256 -0.037,-0.412 -0.027,-0.155 -0.045,-0.293 -0.045,-0.412 -0.064,-0.302 -0.092,-0.549 -0.092,-0.733 l 0,-0.549 0,-0.458 0,0.082 c 0,0.064 0.018,0.11 0.046,0.137 0.028,0.037 0.046,0.111 0.046,0.239 0,0.174 0.018,0.366 0.045,0.549 0.028,0.184 0.074,0.431 0.138,0.733 M 17.97,6.246 c 0.311,0.55 0.797,0.706 1.474,0.458 0.678,-0.247 1.338,-0.659 1.979,-1.245 0.641,-0.577 1.19,-1.209 1.657,-1.878 0.449,-0.677 0.614,-1.163 0.495,-1.475 -0.797,-2.015 -1.878,-4.332 -3.252,-6.942 -1.382,-2.61 -3.113,-5.083 -5.193,-7.437 -2.07,-2.363 -4.524,-4.36 -7.327,-5.981 -2.821,-1.63 -6.026,-2.436 -9.635,-2.436 l -0.87,0 c -0.275,0 -0.568,0.027 -0.87,0.091 -1.292,-1.722 -2.611,-3.315 -3.993,-4.781 -1.374,-1.465 -2.785,-2.738 -4.223,-3.81 -1.438,-1.081 -2.885,-1.923 -4.36,-2.537 -1.456,-0.614 -2.903,-0.916 -4.304,-0.916 -0.669,0 -1.685,0.321 -3.023,0.962 -1.356,0.65 -2.711,1.575 -4.075,2.766 -1.384,1.191 -2.583,2.583 -3.582,4.176 -1.007,1.594 -1.52,3.371 -1.52,5.331 0,1.594 0.33,3.398 0.961,5.376 0.651,1.997 1.475,4.012 2.482,6.027 0.999,2.024 2.153,3.984 3.435,5.889 1.292,1.887 2.537,3.581 3.755,5.047 l 0,1.75 c 0,1.776 0.614,3.562 1.841,5.375 1.228,1.805 2.73,3.435 4.489,4.873 1.776,1.438 3.691,2.62 5.733,3.536 2.051,0.925 3.874,1.383 5.468,1.383 0.788,0 1.786,-0.422 2.977,-1.246 1.19,-0.824 2.308,-2.006 3.343,-3.545 C 2.876,13.537 3.773,11.696 4.543,9.553 5.303,7.41 5.687,5.019 5.687,2.381 5.687,0.119 5.266,-2.381 4.405,-5.111 3.544,-7.84 2.39,-10.606 0.916,-13.427 c 2.024,0.421 3.901,1.401 5.642,2.94 1.749,1.53 3.315,3.297 4.735,5.285 1.392,1.987 2.647,4.03 3.755,6.118 1.099,2.079 2.079,3.856 2.922,5.33"
             style="fill:#0c4360;fill-opacity:1;fill-rule:nonzero;stroke:none"
             id="path74"
             inkscape:connector-curvature="0" />
        </g>
        <g
           id="g76"
           transform="translate(420.8204,108.4274)">
          <path
             d="m 0,0 c -0.678,-1.465 -1.502,-3.123 -2.482,-4.964 -0.247,-0.494 -0.476,-0.953 -0.687,-1.383 -0.22,-0.431 -0.412,-0.888 -0.595,-1.374 -0.247,-0.43 -0.449,-0.852 -0.596,-1.246 -0.155,-0.402 -0.32,-0.778 -0.503,-1.144 -0.128,-0.376 -0.248,-0.687 -0.367,-0.962 -0.128,-0.284 -0.22,-0.55 -0.284,-0.788 -0.118,-0.247 -0.183,-0.458 -0.183,-0.65 0.065,0.192 0.156,0.403 0.284,0.65 0.119,0.183 0.229,0.422 0.321,0.696 0.091,0.266 0.229,0.587 0.412,0.962 0.366,0.668 0.751,1.456 1.154,2.345 0.385,0.888 0.833,1.786 1.319,2.711 0.247,0.485 0.476,0.943 0.696,1.383 0.211,0.421 0.412,0.851 0.595,1.282 0.238,0.486 0.449,0.934 0.632,1.328 0.183,0.403 0.339,0.751 0.467,1.063 C 0.302,0.211 0.43,0.522 0.55,0.824 0.669,1.127 0.797,1.402 0.916,1.649 1.035,1.896 1.127,2.107 1.191,2.299 1.072,2.107 0.952,1.896 0.824,1.649 0.696,1.475 0.577,1.228 0.458,0.916 0.33,0.614 0.183,0.302 0,0 m 0.275,-32.45 c 0.183,0.119 0.348,0.201 0.503,0.229 0.156,0.027 0.294,0.11 0.413,0.229 0.119,0.064 0.247,0.155 0.366,0.284 l -0.366,-0.193 c -0.367,-0.128 -0.706,-0.247 -1.008,-0.366 -0.796,-0.366 -1.776,-0.614 -2.94,-0.733 l -0.824,0 c -0.119,0 -0.256,0.018 -0.412,0.046 -0.147,0.028 -0.293,0.046 -0.403,0.046 -0.495,0.055 -0.962,0.211 -1.383,0.458 l -0.559,0.274 c -0.119,0 -0.238,0.065 -0.366,0.184 -0.12,0 -0.174,0.018 -0.174,0.045 0,0.037 -0.028,0.046 -0.101,0.046 -0.055,0 -0.092,0.028 -0.092,0.092 l 0.284,-0.275 c 0.119,-0.064 0.248,-0.156 0.367,-0.284 l 0.549,-0.265 c 0.174,-0.119 0.375,-0.23 0.595,-0.321 0.211,-0.101 0.477,-0.174 0.779,-0.238 0.128,-0.055 0.256,-0.092 0.412,-0.092 0.156,0 0.293,-0.027 0.412,-0.082 l 0.916,0 c 0.303,0 0.586,0.027 0.825,0.082 0.247,0.065 0.521,0.156 0.833,0.284 0.312,0.055 0.559,0.137 0.779,0.22 0.21,0.101 0.403,0.202 0.595,0.33 m -9.718,13.784 c 0.302,0.559 0.559,1.127 0.779,1.704 0.201,0.577 0.467,1.145 0.778,1.703 0.302,0.605 0.577,1.191 0.815,1.74 0.247,0.559 0.532,1.109 0.825,1.658 0.494,1.228 0.952,2.207 1.383,2.94 0.183,0.495 0.339,0.907 0.467,1.246 0.11,0.329 0.229,0.623 0.357,0.87 0.055,0.183 0.156,0.394 0.275,0.641 0.064,0.064 0.091,0.128 0.091,0.192 0,-0.064 -0.027,-0.128 -0.091,-0.192 -0.119,-0.128 -0.247,-0.311 -0.366,-0.549 -0.12,-0.248 -0.266,-0.541 -0.449,-0.87 -0.193,-0.33 -0.412,-0.724 -0.651,-1.154 -0.247,-0.422 -0.494,-0.88 -0.733,-1.374 -0.256,-0.495 -0.522,-0.98 -0.824,-1.466 -0.311,-0.558 -0.595,-1.117 -0.87,-1.657 -0.284,-0.55 -0.568,-1.136 -0.879,-1.75 -0.247,-0.559 -0.486,-1.127 -0.733,-1.694 -0.247,-0.596 -0.485,-1.163 -0.733,-1.704 -0.119,-0.311 -0.228,-0.595 -0.311,-0.833 -0.091,-0.248 -0.211,-0.486 -0.33,-0.733 -0.119,-0.312 -0.21,-0.577 -0.274,-0.824 -0.055,-0.248 -0.128,-0.495 -0.184,-0.742 -0.183,-0.495 -0.275,-0.916 -0.275,-1.283 -0.054,-0.183 -0.1,-0.357 -0.128,-0.513 -0.046,-0.155 -0.055,-0.32 -0.055,-0.494 l 0,-0.65 0,-0.174 0.101,0.174 c 0,0.238 0.028,0.458 0.082,0.65 0.119,0.668 0.331,1.401 0.642,2.207 0.183,0.476 0.384,0.971 0.595,1.466 0.22,0.485 0.449,0.98 0.696,1.465 m -7.336,15.085 c 0,0.055 0.027,0.119 0.091,0.174 0.055,0.064 0.083,0.146 0.083,0.238 0,0.092 0.064,0.202 0.183,0.321 0.302,0.485 0.65,1.163 1.017,2.024 0.238,0.421 0.467,0.879 0.687,1.374 0.21,0.485 0.43,0.98 0.677,1.474 0.248,0.541 0.495,1.1 0.733,1.649 0.256,0.549 0.495,1.145 0.742,1.749 0.247,0.55 0.458,1.118 0.641,1.704 0.183,0.577 0.366,1.145 0.549,1.694 0.184,0.559 0.349,1.09 0.505,1.603 0.155,0.522 0.293,1.007 0.421,1.438 0.183,0.907 0.265,1.676 0.265,2.29 l 0,0.366 c 0,0.129 -0.027,0.22 -0.082,0.275 -0.064,0.064 -0.092,0.128 -0.092,0.183 l 0.092,-0.183 0,-0.275 0,-0.366 c -0.064,-0.119 -0.092,-0.257 -0.092,-0.412 0,-0.156 -0.037,-0.321 -0.091,-0.513 -0.128,-0.183 -0.202,-0.385 -0.239,-0.596 -0.027,-0.21 -0.073,-0.412 -0.137,-0.586 -0.119,-0.494 -0.293,-0.998 -0.504,-1.474 -0.22,-0.486 -0.412,-1.008 -0.595,-1.566 -0.247,-0.486 -0.476,-1.026 -0.687,-1.603 -0.22,-0.586 -0.44,-1.145 -0.696,-1.704 -0.238,-0.614 -0.467,-1.19 -0.687,-1.749 -0.201,-0.55 -0.412,-1.099 -0.586,-1.649 -0.256,-0.559 -0.467,-1.071 -0.641,-1.557 -0.183,-0.494 -0.367,-0.961 -0.55,-1.383 -0.128,-0.494 -0.247,-0.907 -0.375,-1.255 -0.119,-0.32 -0.238,-0.613 -0.357,-0.86 l -0.275,-0.825 z m -3.133,-4.699 c 0.312,0.623 0.596,1.228 0.843,1.841 0.238,0.614 0.513,1.228 0.824,1.841 0.293,0.669 0.568,1.319 0.815,1.924 0.248,0.622 0.523,1.236 0.825,1.85 0.247,0.605 0.476,1.191 0.696,1.74 0.211,0.559 0.412,1.072 0.595,1.566 0.184,0.495 0.339,0.916 0.495,1.292 0.156,0.357 0.293,0.687 0.412,1.007 0.064,0.119 0.092,0.229 0.092,0.321 0,0.082 0.027,0.201 0.1,0.32 0,0.128 0.028,0.22 0.092,0.275 l -4.405,-10.121 c -0.541,-1.282 -1.091,-2.518 -1.613,-3.709 -0.513,-1.191 -0.98,-2.29 -1.41,-3.26 -0.247,-0.495 -0.449,-0.926 -0.595,-1.301 -0.156,-0.367 -0.293,-0.706 -0.412,-0.999 -0.193,-0.311 -0.312,-0.586 -0.367,-0.833 0.119,0.247 0.275,0.522 0.458,0.833 l 1.099,2.208 c 0.247,0.485 0.467,0.989 0.687,1.511 0.211,0.513 0.467,1.09 0.769,1.694 m 36.05,5.34 c 0.248,0.431 0.705,0.458 1.374,0.092 0.678,-0.367 1.365,-0.889 2.07,-1.576 0.696,-0.659 1.264,-1.401 1.694,-2.198 0.431,-0.797 0.55,-1.41 0.367,-1.832 -1.163,-2.335 -2.693,-4.991 -4.589,-7.959 -1.896,-2.976 -3.984,-5.77 -6.273,-8.408 -2.3,-2.637 -4.718,-4.854 -7.255,-6.658 -2.537,-1.814 -5,-2.72 -7.382,-2.72 -0.861,0 -1.786,0.32 -2.793,0.961 -1.008,0.65 -1.942,1.41 -2.794,2.299 -0.861,0.888 -1.602,1.832 -2.207,2.812 -0.614,0.98 -0.916,1.832 -0.916,2.573 0,1.466 0.412,3.279 1.236,5.423 0.825,2.143 1.869,4.469 3.115,6.988 1.254,2.51 2.583,5.129 3.993,7.858 1.41,2.73 2.656,5.377 3.755,7.95 -4.827,-4.845 -8.994,-9.47 -12.511,-13.876 -3.518,-4.423 -6.448,-8.325 -8.802,-11.723 -2.354,-3.407 -4.168,-6.109 -5.413,-8.142 -1.255,-2.025 -2.033,-3.032 -2.345,-3.032 -0.357,0 -0.851,0.192 -1.465,0.604 -0.614,0.385 -1.209,0.916 -1.786,1.557 -0.577,0.651 -1.09,1.365 -1.511,2.162 -0.431,0.797 -0.641,1.594 -0.641,2.39 0,0.495 0.467,1.887 1.419,4.177 0.944,2.299 2.143,5.028 3.581,8.188 1.429,3.16 2.977,6.54 4.626,10.158 1.657,3.618 3.196,7.016 4.634,10.203 1.438,3.187 2.629,5.926 3.572,8.215 0.953,2.299 1.429,3.756 1.429,4.378 0,0.12 0.027,0.239 0.091,0.367 0.12,0.302 0.367,0.448 0.724,0.448 0.485,0 1.053,-0.146 1.704,-0.448 0.641,-0.312 1.273,-0.715 1.877,-1.2 0.614,-0.495 1.118,-1.09 1.521,-1.795 0.394,-0.705 0.595,-1.42 0.595,-2.162 0,-0.366 -0.183,-1.126 -0.549,-2.299 -0.376,-1.163 -0.88,-2.555 -1.521,-4.176 -0.641,-1.621 -1.355,-3.389 -2.152,-5.331 -0.797,-1.923 -1.621,-3.902 -2.473,-5.926 1.887,2.272 3.865,4.58 5.916,6.943 2.043,2.354 3.948,4.552 5.725,6.567 1.768,2.015 3.334,3.737 4.68,5.147 1.347,1.411 2.262,2.263 2.748,2.565 0.064,0 0.11,0.027 0.137,0.055 0.037,0.027 0.073,0.045 0.137,0.045 0.065,0 0.12,-0.027 0.184,-0.1 0.183,0 0.302,-0.028 0.375,-0.083 C 4.396,16.358 4.873,16.038 5.45,15.58 6.036,15.113 6.604,14.536 7.153,13.831 7.703,13.125 8.17,12.283 8.573,11.302 8.967,10.322 9.168,9.223 9.168,7.996 9.168,7.08 8.829,5.743 8.161,3.994 7.483,2.253 6.659,0.321 5.679,-1.804 4.708,-3.911 3.618,-6.145 2.427,-8.5 c -1.19,-2.363 -2.28,-4.615 -3.251,-6.759 -0.98,-2.143 -1.814,-4.094 -2.483,-5.843 -0.677,-1.741 -1.007,-3.078 -1.007,-3.993 1.475,0 3.078,0.613 4.818,1.831 1.74,1.227 3.517,2.885 5.312,4.974 1.814,2.079 3.599,4.442 5.367,7.079 1.777,2.629 3.426,5.386 4.955,8.271"
             style="fill:#0c4360;fill-opacity:1;fill-rule:nonzero;stroke:none"
             id="path78"
             inkscape:connector-curvature="0" />
        </g>
        <g
           id="g80"
           transform="translate(318.6332,249.8154)">
          <path
             d="m 0,0 c -2.354,1.97 -5.642,2.959 -9.874,2.959 l -16.715,0 0,-26.177 16.715,0 c 4.232,0 7.52,1.062 9.874,3.197 2.345,2.124 3.517,5.504 3.517,10.13 C 3.517,-5.266 2.345,-1.969 0,0 M 14.151,-32.02 C 8.958,-36.361 1.539,-38.541 -8.106,-38.541 l -18.483,0 0,-31.956 -18.428,0 0,88.888 38.111,0 c 8.784,0 15.79,-2.289 21.02,-6.878 5.221,-4.58 7.831,-11.678 7.831,-21.286 0,-10.487 -2.601,-17.905 -7.794,-22.247"
             style="fill:#0c4360;fill-opacity:1;fill-rule:nonzero;stroke:none"
             id="path82"
             inkscape:connector-curvature="0" />
        </g>
        <g
           id="g84"
           transform="translate(390.5685,211.2744)">
          <path
             d="M 0,0 C -1.099,-0.678 -2.217,-1.227 -3.334,-1.649 -4.452,-2.079 -5.99,-2.464 -7.941,-2.83 l -3.902,-0.724 c -3.672,-0.641 -6.301,-1.429 -7.895,-2.354 -2.702,-1.566 -4.058,-4.002 -4.058,-7.299 0,-2.931 0.825,-5.056 2.483,-6.357 1.648,-1.31 3.663,-1.96 6.017,-1.96 3.755,0 7.208,1.081 10.368,3.252 3.16,2.179 4.8,6.136 4.928,11.888 L 0,0 Z m -10.506,8.023 c 3.197,0.403 5.486,0.907 6.86,1.512 2.464,1.043 3.701,2.665 3.701,4.881 0,2.693 -0.944,4.552 -2.84,5.587 -1.886,1.017 -4.671,1.53 -8.325,1.53 -4.112,0 -7.025,-1.008 -8.738,-3.014 -1.218,-1.493 -2.033,-3.498 -2.436,-6.035 l -16.56,0 c 0.357,5.752 1.97,10.478 4.836,14.178 4.552,5.788 12.383,8.683 23.466,8.683 7.217,0 13.629,-1.429 19.234,-4.287 C 14.288,28.21 17.1,22.815 17.1,14.902 l 0,-30.152 c 0,-2.097 0.036,-4.625 0.119,-7.602 0.119,-2.253 0.458,-3.783 1.026,-4.579 0.558,-0.806 1.401,-1.475 2.527,-1.988 l 0,-2.537 -18.665,0 c -0.523,1.328 -0.889,2.574 -1.091,3.737 -0.192,1.163 -0.357,2.491 -0.476,3.984 -2.381,-2.574 -5.129,-4.772 -8.243,-6.576 -3.719,-2.134 -7.913,-3.197 -12.594,-3.197 -5.981,0 -10.917,1.704 -14.819,5.093 -3.892,3.398 -5.843,8.215 -5.843,14.443 0,8.088 3.141,13.931 9.406,17.549 3.435,1.97 8.499,3.38 15.167,4.223 l 5.88,0.723 z"
             style="fill:#0c4360;fill-opacity:1;fill-rule:nonzero;stroke:none"
             id="path86"
             inkscape:connector-curvature="0" />
        </g>
        <g
           id="g88"
           transform="translate(435.9696,200.3016)">
          <path
             d="m 0,0 c 0.366,-3.059 1.154,-5.23 2.363,-6.512 2.134,-2.29 6.091,-3.435 11.861,-3.435 3.389,0 6.072,0.495 8.078,1.503 1.988,1.007 2.995,2.518 2.995,4.524 0,1.933 -0.806,3.398 -2.418,4.406 -1.603,0.998 -7.592,2.729 -17.951,5.184 -7.465,1.85 -12.722,4.158 -15.763,6.933 -3.05,2.73 -4.58,6.677 -4.58,11.824 0,6.073 2.382,11.284 7.154,15.644 4.762,4.359 11.476,6.548 20.122,6.548 8.206,0 14.902,-1.639 20.067,-4.918 5.166,-3.279 8.134,-8.93 8.903,-16.971 l -17.164,0 c -0.238,2.207 -0.861,3.956 -1.878,5.248 -1.887,2.326 -5.111,3.489 -9.653,3.489 -3.746,0 -6.412,-0.577 -8.005,-1.749 -1.594,-1.163 -2.382,-2.528 -2.382,-4.094 0,-1.978 0.843,-3.398 2.528,-4.287 1.704,-0.925 7.675,-2.509 17.934,-4.762 6.823,-1.612 11.961,-4.04 15.369,-7.291 3.37,-3.306 5.055,-7.419 5.055,-12.364 0,-6.513 -2.418,-11.834 -7.272,-15.956 -4.845,-4.112 -12.337,-6.182 -22.476,-6.182 -10.341,0 -17.97,2.189 -22.898,6.549 -4.928,4.35 -7.391,9.919 -7.391,16.669 L 0,0 Z"
             style="fill:#0c4360;fill-opacity:1;fill-rule:nonzero;stroke:none"
             id="path90"
             inkscape:connector-curvature="0" />
        </g>
        <g
           id="g92"
           transform="translate(571.3491,197.1696)">
          <path
             d="m 0,0 c 2.528,3.618 3.801,8.298 3.801,14.05 0,8.041 -2.033,13.784 -6.09,17.246 -2.482,2.088 -5.386,3.133 -8.674,3.133 -5.019,0 -8.701,-1.896 -11.055,-5.697 -2.336,-3.801 -3.517,-8.509 -3.517,-14.142 0,-6.072 1.2,-10.927 3.59,-14.563 2.391,-3.636 6.008,-5.458 10.863,-5.458 4.854,0 8.554,1.813 11.082,5.431 m -4.213,46.821 c 3.096,-1.75 5.605,-4.167 7.529,-7.263 l 0,31.36 17.402,0 0,-88.769 -16.679,0 0,9.104 c -2.454,-3.902 -5.248,-6.732 -8.371,-8.509 -3.133,-1.758 -7.025,-2.647 -11.687,-2.647 -7.666,0 -14.123,3.105 -19.362,9.315 -5.239,6.21 -7.859,14.187 -7.859,23.914 0,11.22 2.583,20.04 7.74,26.47 5.156,6.438 12.062,9.654 20.681,9.654 3.975,0 7.51,-0.871 10.606,-2.629"
             style="fill:#0c4360;fill-opacity:1;fill-rule:nonzero;stroke:none"
             id="path94"
             inkscape:connector-curvature="0" />
        </g>
        <g
           id="g96"
           transform="translate(624.7649,228.8687)">
          <path
             d="m 0,0 c -2.427,-2.5 -3.948,-5.889 -4.571,-10.176 l 29.566,0 C 24.674,-5.614 23.154,-2.152 20.424,0.211 17.695,2.574 14.288,3.755 10.24,3.755 5.844,3.755 2.427,2.5 0,0 m 25.673,14.847 c 4.579,-2.051 8.362,-5.294 11.348,-9.718 2.683,-3.911 4.433,-8.444 5.229,-13.592 0.458,-3.022 0.651,-7.364 0.568,-13.042 l -47.819,0 c 0.274,-6.595 2.555,-11.22 6.869,-13.876 2.62,-1.649 5.78,-2.473 9.471,-2.473 3.911,0 7.07,1.007 9.525,3.013 1.328,1.09 2.509,2.601 3.536,4.534 l 17.521,0 c -0.467,-3.911 -2.583,-7.868 -6.366,-11.888 -5.889,-6.394 -14.114,-9.59 -24.692,-9.59 -8.738,0 -16.45,2.693 -23.127,8.088 -6.677,5.394 -10.011,14.169 -10.011,26.313 0,11.394 3.004,20.123 9.031,26.204 6.035,6.073 13.857,9.114 23.474,9.114 5.715,0 10.863,-1.026 15.443,-3.087"
             style="fill:#0c4360;fill-opacity:1;fill-rule:nonzero;stroke:none"
             id="path98"
             inkscape:connector-curvature="0" />
        </g>
        <g
           id="g100"
           transform="translate(730.3135,258.9194)">
          <path
             d="m 0,0 c 7.153,7.318 16.239,10.973 27.284,10.973 14.783,0 25.582,-4.9 32.424,-14.71 3.764,-5.513 5.788,-11.037 6.072,-16.587 l -18.547,0 c -1.181,4.259 -2.693,7.483 -4.552,9.654 -3.297,3.856 -8.197,5.788 -14.682,5.788 -6.613,0 -11.824,-2.729 -15.634,-8.179 -3.82,-5.44 -5.725,-13.152 -5.725,-23.126 0,-9.965 2.006,-17.439 6.036,-22.394 4.03,-4.973 9.141,-7.455 15.35,-7.455 6.357,0 11.211,2.134 14.545,6.393 1.841,2.289 3.38,5.733 4.598,10.313 l 18.428,0 c -1.584,-9.691 -5.651,-17.567 -12.182,-23.64 -6.53,-6.072 -14.901,-9.104 -25.114,-9.104 -12.63,0 -22.558,4.103 -29.794,12.301 -7.227,8.243 -10.835,19.536 -10.835,33.897 0,15.515 4.112,27.477 12.328,35.876"
             style="fill:#0c4360;fill-opacity:1;fill-rule:nonzero;stroke:none"
             id="path102"
             inkscape:connector-curvature="0" />
        </g>
        <g
           id="g104"
           transform="translate(846.01,211.2744)">
          <path
             d="M 0,0 C -1.099,-0.678 -2.207,-1.227 -3.324,-1.649 -4.442,-2.079 -5.98,-2.464 -7.941,-2.83 l -3.892,-0.724 c -3.664,-0.641 -6.293,-1.429 -7.895,-2.354 -2.702,-1.566 -4.049,-4.002 -4.049,-7.299 0,-2.931 0.825,-5.056 2.473,-6.357 1.649,-1.31 3.655,-1.96 6.018,-1.96 3.755,0 7.208,1.081 10.368,3.252 3.16,2.179 4.799,6.136 4.918,11.888 L 0,0 Z m -10.496,8.023 c 3.196,0.403 5.486,0.907 6.86,1.512 2.464,1.043 3.7,2.665 3.7,4.881 0,2.693 -0.943,4.552 -2.839,5.587 -1.887,1.017 -4.671,1.53 -8.335,1.53 -4.112,0 -7.016,-1.008 -8.719,-3.014 -1.227,-1.493 -2.042,-3.498 -2.446,-6.035 l -16.559,0 c 0.357,5.752 1.969,10.478 4.836,14.178 4.552,5.788 12.374,8.683 23.466,8.683 7.217,0 13.628,-1.429 19.233,-4.287 5.597,-2.848 8.408,-8.243 8.408,-16.156 l 0,-30.152 c 0,-2.097 0.037,-4.625 0.12,-7.602 0.119,-2.253 0.457,-3.783 1.025,-4.579 0.559,-0.806 1.402,-1.475 2.528,-1.988 l 0,-2.537 -18.666,0 c -0.531,1.328 -0.888,2.574 -1.081,3.737 -0.211,1.163 -0.366,2.491 -0.485,3.984 -2.391,-2.574 -5.129,-4.772 -8.234,-6.576 -3.719,-2.134 -7.923,-3.197 -12.612,-3.197 -5.972,0 -10.909,1.704 -14.801,5.093 -3.902,3.398 -5.853,8.215 -5.853,14.443 0,8.088 3.142,13.931 9.407,17.549 3.434,1.97 8.499,3.38 15.167,4.223 l 5.88,0.723 z"
             style="fill:#0c4360;fill-opacity:1;fill-rule:nonzero;stroke:none"
             id="path106"
             inkscape:connector-curvature="0" />
        </g>
        <path
           d="m 895.634,179.318 -17.164,0 0,88.888 17.164,0 0,-88.888 z"
           style="fill:#0c4360;fill-opacity:1;fill-rule:nonzero;stroke:none"
           id="path108"
           inkscape:connector-curvature="0" />
        <g
           id="g110"
           transform="translate(948.8754,211.2744)">
          <path
             d="M 0,0 C -1.108,-0.678 -2.207,-1.227 -3.334,-1.649 -4.451,-2.079 -5.99,-2.464 -7.941,-2.83 l -3.902,-0.724 c -3.663,-0.641 -6.292,-1.429 -7.895,-2.354 -2.692,-1.566 -4.048,-4.002 -4.048,-7.299 0,-2.931 0.824,-5.056 2.473,-6.357 1.648,-1.31 3.663,-1.96 6.026,-1.96 3.747,0 7.2,1.081 10.359,3.252 3.16,2.179 4.8,6.136 4.928,11.888 L 0,0 Z m -10.505,8.023 c 3.196,0.403 5.486,0.907 6.859,1.512 2.464,1.043 3.71,2.665 3.71,4.881 0,2.693 -0.953,4.552 -2.849,5.587 -1.886,1.017 -4.671,1.53 -8.325,1.53 -4.112,0 -7.025,-1.008 -8.729,-3.014 -1.227,-1.493 -2.042,-3.498 -2.445,-6.035 l -16.559,0 c 0.366,5.752 1.978,10.478 4.835,14.178 4.552,5.788 12.384,8.683 23.466,8.683 7.217,0 13.629,-1.429 19.234,-4.287 C 14.288,28.21 17.1,22.815 17.1,14.902 l 0,-30.152 c 0,-2.097 0.037,-4.625 0.119,-7.602 0.119,-2.253 0.467,-3.783 1.026,-4.579 0.559,-0.806 1.401,-1.475 2.528,-1.988 l 0,-2.537 -18.666,0 c -0.522,1.328 -0.889,2.574 -1.081,3.737 -0.202,1.163 -0.367,2.491 -0.486,3.984 -2.39,-2.574 -5.129,-4.772 -8.233,-6.576 -3.729,-2.134 -7.923,-3.197 -12.603,-3.197 -5.981,0 -10.909,1.704 -14.81,5.093 -3.902,3.398 -5.844,8.215 -5.844,14.443 0,8.088 3.132,13.931 9.397,17.549 3.444,1.97 8.5,3.38 15.168,4.223 l 5.88,0.723 z"
             style="fill:#0c4360;fill-opacity:1;fill-rule:nonzero;stroke:none"
             id="path112"
             inkscape:connector-curvature="0" />
        </g>
        <path
           d="m 981.216,245.053 17.402,0 0,-65.734 -17.402,0 0,65.734 z m 17.402,7.84 -17.402,0 0,15.854 17.402,0 0,-15.854 z"
           style="fill:#0c4360;fill-opacity:1;fill-rule:nonzero;stroke:none"
           id="path114"
           inkscape:connector-curvature="0" />
        <g
           id="g116"
           transform="translate(1028.5496,200.3016)">
          <path
             d="m 0,0 c 0.357,-3.059 1.145,-5.23 2.354,-6.512 2.134,-2.29 6.091,-3.435 11.861,-3.435 3.389,0 6.082,0.495 8.078,1.503 1.997,1.007 2.995,2.518 2.995,4.524 0,1.933 -0.806,3.398 -2.409,4.406 -1.611,0.998 -7.592,2.729 -17.951,5.184 -7.465,1.85 -12.722,4.158 -15.772,6.933 -3.041,2.73 -4.571,6.677 -4.571,11.824 0,6.073 2.382,11.284 7.154,15.644 4.762,4.359 11.476,6.548 20.122,6.548 8.207,0 14.893,-1.639 20.067,-4.918 5.166,-3.279 8.134,-8.93 8.903,-16.971 l -17.173,0 c -0.238,2.207 -0.861,3.956 -1.869,5.248 -1.886,2.326 -5.11,3.489 -9.662,3.489 C 8.38,33.467 5.716,32.89 4.131,31.718 2.537,30.555 1.74,29.19 1.74,27.624 c 0,-1.978 0.852,-3.398 2.537,-4.287 1.695,-0.925 7.667,-2.509 17.925,-4.762 6.832,-1.612 11.961,-4.04 15.378,-7.291 3.37,-3.306 5.055,-7.419 5.055,-12.364 0,-6.513 -2.427,-11.834 -7.272,-15.956 -4.845,-4.112 -12.337,-6.182 -22.476,-6.182 -10.341,0 -17.97,2.189 -22.907,6.549 -4.928,4.35 -7.391,9.919 -7.391,16.669 L 0,0 Z"
             style="fill:#0c4360;fill-opacity:1;fill-rule:nonzero;stroke:none"
             id="path118"
             inkscape:connector-curvature="0" />
        </g>
        <g
           id="g120"
           transform="translate(678.4002,212.6667)">
          <path
             d="M 0,0 C 0,6.851 5.55,12.419 12.41,12.419 19.243,12.419 24.802,6.851 24.802,0 24.802,-6.86 19.243,-12.411 12.41,-12.411 5.55,-12.411 0,-6.86 0,0"
             style="fill:#0c4360;fill-opacity:1;fill-rule:nonzero;stroke:none"
             id="path122"
             inkscape:connector-curvature="0" />
        </g>
        <g
           id="g124"
           transform="translate(492.1053,212.6667)">
          <path
             d="m 0,0 c 0,6.851 5.55,12.419 12.401,12.419 6.842,0 12.392,-5.568 12.392,-12.419 0,-6.86 -5.55,-12.411 -12.392,-12.411 C 5.55,-12.411 0,-6.86 0,0"
             style="fill:#0c4360;fill-opacity:1;fill-rule:nonzero;stroke:none"
             id="path126"
             inkscape:connector-curvature="0" />
        </g>
      </g>
    </g>
  </g>
</svg>
