<svg width="180" height="56" viewBox="0 0 180 56" fill="none" xmlns="http://www.w3.org/2000/svg">
<path d="M66.002 42.5113H66.5283V39.8567H67.5484C68.6427 39.8567 69.3178 39.2385 69.3178 38.3075C69.3178 37.3765 68.6427 36.7419 67.5484 36.7419H66.002V42.5113ZM67.5573 37.2037C68.3141 37.2037 68.7662 37.6163 68.7662 38.2911C68.7662 38.9659 68.3141 39.395 67.5573 39.395H66.5283V37.2022H67.5573V37.2037ZM70.4256 42.5113H70.9103V36.3292H70.4256V42.5113ZM73.6329 42.626C74.2083 42.626 74.7689 42.3788 75.1213 41.9095V42.5113H75.5986V39.6676C75.5986 38.7529 74.9741 38.1928 74.0195 38.1928C73.3043 38.1928 72.7363 38.4982 72.3824 38.9838L72.7526 39.2728C73.0322 38.8765 73.4678 38.6382 74.0031 38.6382C74.6529 38.6382 75.1213 39.0002 75.1213 39.669V40.0564L73.6403 40.3036C72.769 40.4526 72.2917 40.8801 72.2917 41.5073C72.2917 42.1911 72.827 42.6275 73.6329 42.6275V42.626ZM72.7853 41.4969C72.7853 41.0842 73.0902 40.7803 73.7474 40.6641L75.1213 40.4332V41.3807C74.8091 41.917 74.2901 42.2045 73.6894 42.2045C73.1303 42.2045 72.7839 41.8991 72.7839 41.4954L72.7853 41.4969ZM77.3636 41.2004C77.3636 42.2149 77.9063 42.5933 78.7539 42.5933C79.0171 42.5933 79.2223 42.5605 79.4126 42.4949V42.0495C79.2476 42.1076 79.0676 42.1404 78.8044 42.1404C78.2454 42.1404 77.8588 41.9587 77.8588 41.2004V38.7931H79.4141V38.3567H77.8588V37.3184H77.3651V38.3567H76.583V38.7931H77.3651V41.2004H77.3636ZM84.0786 41.8261L83.7084 41.5296C83.4035 41.9587 82.9188 42.2298 82.3344 42.2298C81.3144 42.2298 80.5992 41.4626 80.5992 40.4079V40.3096H83.9477C83.973 40.2113 83.9805 40.0876 83.9805 39.964C83.9805 38.9838 83.2727 38.1913 82.1619 38.1913C80.9204 38.1913 80.0966 39.1477 80.0966 40.4332C80.0966 41.6443 80.9768 42.6752 82.3344 42.6752C83.0913 42.6752 83.6994 42.346 84.0786 41.8261ZM82.153 38.6203C82.9589 38.6203 83.4615 39.1968 83.4853 39.9223H80.6468C80.8029 39.106 81.3783 38.6203 82.1515 38.6203H82.153ZM84.712 38.3567V38.7931H85.4942V42.5098H85.9878V38.7931H87.5431V38.3567H85.9878V37.7965C85.9878 37.1456 86.3581 36.7746 86.8934 36.7746C87.1565 36.7746 87.3617 36.8491 87.5431 36.9802L87.7573 36.5676C87.5595 36.4439 87.2562 36.3292 86.877 36.3292C86.0547 36.3292 85.4942 36.9147 85.4942 37.804V38.3567H84.712ZM90.0308 38.1913C88.7059 38.1913 87.8093 39.246 87.8093 40.4332C87.8093 41.6205 88.7059 42.6752 90.0308 42.6752C91.3556 42.6752 92.2597 41.6205 92.2597 40.4332C92.2597 39.246 91.3631 38.1913 90.0308 38.1913ZM90.0397 42.2134C89.0271 42.2134 88.3119 41.3807 88.3119 40.4332C88.3119 39.4858 89.0271 38.6531 90.0397 38.6531C91.0523 38.6531 91.7422 39.4769 91.7422 40.4332C91.7422 41.3896 91.0181 42.2134 90.0397 42.2134ZM93.4909 42.5098H93.9756V39.535C94.2879 39.0151 94.6581 38.735 95.2261 38.735C95.3748 38.735 95.4819 38.7604 95.6053 38.7931V38.3239C95.4982 38.2911 95.3748 38.2747 95.2603 38.2747C94.7012 38.2747 94.3146 38.522 93.9771 38.951V38.3581H93.4924V42.5128L93.4909 42.5098ZM96.7041 42.5098H97.1889V39.526C97.4684 38.9987 97.8967 38.6531 98.5212 38.6531C99.1962 38.6531 99.6483 39.0896 99.6483 39.897V42.5098H100.133V39.8806C100.133 39.7659 100.124 39.6497 100.108 39.5424C100.453 38.9406 100.881 38.6516 101.456 38.6516C102.131 38.6516 102.592 39.0881 102.592 39.8955V42.5084H103.07V39.8791C103.07 38.7827 102.427 38.1898 101.523 38.1898C100.808 38.1898 100.338 38.5354 99.9843 39.0806C99.7464 38.4952 99.2275 38.1898 98.5851 38.1898C97.9428 38.1898 97.5234 38.4699 97.1859 38.9063V38.3537H96.7012V42.5084L96.7041 42.5098ZM108.204 41.8261L107.834 41.5296C107.529 41.9587 107.044 42.2298 106.46 42.2298C105.44 42.2298 104.725 41.4626 104.725 40.4079V40.3096H108.073C108.099 40.2113 108.106 40.0876 108.106 39.964C108.106 38.9838 107.398 38.1913 106.287 38.1913C105.046 38.1913 104.222 39.1477 104.222 40.4332C104.222 41.6443 105.102 42.6752 106.46 42.6752C107.217 42.6752 107.825 42.346 108.204 41.8261ZM106.279 38.6203C107.084 38.6203 107.587 39.1968 107.611 39.9223H104.772C104.928 39.106 105.504 38.6203 106.277 38.6203H106.279ZM111.236 40.4332C111.236 41.6443 112.083 42.6752 113.376 42.6752C114.025 42.6752 114.577 42.4026 114.964 41.917V42.5098H115.448V36.3277H114.964V38.9481C114.577 38.4624 114.025 38.1898 113.376 38.1898C112.083 38.1898 111.236 39.2207 111.236 40.4318V40.4332ZM111.746 40.4332C111.746 39.453 112.437 38.6531 113.416 38.6531C114.049 38.6531 114.617 38.9495 114.962 39.5186V41.3479C114.625 41.908 114.057 42.2134 113.416 42.2134C112.437 42.2134 111.746 41.4134 111.746 40.4332ZM120.657 41.8261L120.287 41.5296C119.982 41.9587 119.497 42.2298 118.913 42.2298C117.893 42.2298 117.178 41.4626 117.178 40.4079V40.3096H120.526C120.552 40.2113 120.559 40.0876 120.559 39.964C120.559 38.9838 119.851 38.1913 118.74 38.1913C117.499 38.1913 116.675 39.1477 116.675 40.4332C116.675 41.6443 117.555 42.6752 118.913 42.6752C119.67 42.6752 120.278 42.346 120.657 41.8261ZM118.732 38.6203C119.537 38.6203 120.04 39.1968 120.064 39.9223H117.225C117.381 39.106 117.957 38.6203 118.73 38.6203H118.732ZM124.076 42.5098H124.56V36.3277H124.076V42.5098ZM126.336 38.8497L127.118 36.7404H126.559L125.893 38.8497H126.337H126.336ZM128.685 37.0443C128.89 37.0443 129.055 36.8878 129.055 36.6733C129.055 36.4752 128.89 36.3113 128.685 36.3113C128.48 36.3113 128.306 36.4767 128.306 36.6733C128.306 36.8878 128.478 37.0443 128.685 37.0443ZM128.438 42.5084H128.923V38.3537H128.438V42.5084ZM130.551 42.5084H131.036V39.5246C131.357 38.9883 131.793 38.6516 132.451 38.6516C133.176 38.6516 133.66 39.1208 133.66 39.9789V42.5098H134.145V39.9625C134.145 38.817 133.463 38.1898 132.517 38.1898C131.867 38.1898 131.399 38.4699 131.036 38.9227V38.3537H130.551V42.5084ZM137.535 42.2119C136.515 42.2119 135.8 41.412 135.8 40.4318C135.8 39.4516 136.515 38.6516 137.528 38.6516C138.103 38.6516 138.581 38.9242 138.877 39.3443L139.263 39.0389C138.884 38.528 138.276 38.1898 137.528 38.1898C136.187 38.1898 135.299 39.2207 135.299 40.4318C135.299 41.6429 136.188 42.6737 137.528 42.6737C138.276 42.6737 138.885 42.3356 139.263 41.8246L138.877 41.5192C138.581 41.9393 138.111 42.2119 137.535 42.2119ZM140.353 42.5084H140.838V36.3262H140.353V42.5084ZM145.444 40.7446C145.444 41.6846 144.918 42.2119 144.152 42.2119C143.386 42.2119 142.853 41.6846 142.853 40.7446V38.3552H142.368V40.7371C142.368 41.9736 143.083 42.6737 144.154 42.6737C145.224 42.6737 145.923 41.9736 145.923 40.7371V38.3552H145.446V40.7446H145.444ZM146.954 41.9646C147.315 42.4264 147.825 42.6737 148.442 42.6737C149.199 42.6737 149.767 42.1791 149.767 41.4626C149.767 40.0608 147.636 40.3915 147.636 39.3115C147.636 38.9317 147.925 38.6114 148.442 38.6114C148.821 38.6114 149.157 38.8006 149.388 39.1477L149.749 38.8587C149.461 38.4624 148.992 38.1913 148.433 38.1913C147.667 38.1913 147.157 38.7112 147.157 39.3115C147.157 40.7789 149.288 40.4243 149.288 41.479C149.288 41.908 148.976 42.2536 148.433 42.2536C147.988 42.2536 147.627 42.0644 147.315 41.6682L146.954 41.9646ZM151.269 37.0443C151.474 37.0443 151.639 36.8878 151.639 36.6733C151.639 36.4752 151.474 36.3113 151.269 36.3113C151.063 36.3113 150.891 36.4767 150.891 36.6733C150.891 36.8878 151.063 37.0443 151.269 37.0443ZM151.022 42.5084H151.507V38.3537H151.022V42.5084ZM154.97 38.1898C153.645 38.1898 152.748 39.2445 152.748 40.4318C152.748 41.619 153.645 42.6737 154.97 42.6737C156.294 42.6737 157.199 41.619 157.199 40.4318C157.199 39.2445 156.302 38.1898 154.97 38.1898ZM154.979 42.2119C153.966 42.2119 153.251 41.3792 153.251 40.4318C153.251 39.4843 153.966 38.6516 154.979 38.6516C155.991 38.6516 156.681 39.4754 156.681 40.4318C156.681 41.3881 155.957 42.2119 154.979 42.2119ZM158.43 42.5084H158.914V39.5246C159.236 38.9883 159.671 38.6516 160.33 38.6516C161.054 38.6516 161.539 39.1208 161.539 39.9789V42.5098H162.024V39.9625C162.024 38.817 161.341 38.1898 160.395 38.1898C159.746 38.1898 159.277 38.4699 158.914 38.9227V38.3537H158.43V42.5084Z" fill="black"/>
<path d="M66.002 17.5058H68.384V18.4458C69.0026 17.8067 69.81 17.3181 70.8791 17.3181C71.1973 17.3181 71.4798 17.3747 71.7043 17.4492V19.7984C71.404 19.7239 71.0858 19.6673 70.6546 19.6673C69.4918 19.6673 68.7409 20.3064 68.3855 20.9067V26.9756H66.0034V17.5058H66.002Z" fill="black"/>
<path d="M77.3492 17.1304C78.6249 17.1304 79.5439 17.5252 80.2754 18.2581V12.8849H82.6754V26.9771H80.2754V26.2263C79.5439 26.9592 78.6249 27.354 77.3492 27.354C74.3679 27.354 72.5479 25.0048 72.5479 22.2429C72.5479 19.4811 74.3664 17.1319 77.3492 17.1319V17.1304ZM77.6867 25.0971C78.7558 25.0971 79.6375 24.6458 80.2754 23.7818V20.6996C79.6375 19.8356 78.7558 19.3843 77.6867 19.3843C76.0734 19.3843 75.0429 20.5864 75.0429 22.24C75.0429 23.8935 76.0749 25.0956 77.6867 25.0956V25.0971Z" fill="black"/>
<path d="M86.7249 17.5058L89.1813 24.2704L91.6199 17.5058H94.1893L90.7381 26.9756H87.6066L84.1748 17.5058H86.7249Z" fill="black"/>
<path d="M99.5161 21.0199V23.3304H94.4531V21.0199H99.5161Z" fill="black"/>
<path d="M100.961 14.2941C100.961 13.448 101.673 12.7344 102.518 12.7344C103.362 12.7344 104.055 13.448 104.055 14.2941C104.055 15.1402 103.361 15.8538 102.518 15.8538C101.675 15.8538 100.961 15.1402 100.961 14.2941ZM101.318 17.5073H103.7V26.9771H101.318V17.5073Z" fill="black"/>
<path d="M106.549 17.5058H108.931V18.2581C109.587 17.619 110.468 17.1304 111.725 17.1304C113.769 17.1304 115.401 18.5396 115.401 21.3387V26.9756H113.001V21.4326C113.001 20.1738 112.288 19.3843 111.126 19.3843C109.963 19.3843 109.288 20.1917 108.931 20.7935V26.9756H106.549V17.5058Z" fill="black"/>
<path d="M118.852 24.1765C119.433 24.9094 120.127 25.4353 121.027 25.4353C121.796 25.4353 122.19 24.9839 122.19 24.4208C122.19 22.7673 117.669 23.387 117.669 20.0621C117.669 18.3892 119.076 17.1304 121.045 17.1304C122.489 17.1304 123.802 17.8261 124.477 18.7467L122.902 20.1365C122.414 19.5347 121.796 19.0461 121.064 19.0461C120.333 19.0461 119.958 19.4588 119.958 19.9474C119.958 21.5636 124.478 20.9991 124.478 24.2689C124.441 26.2606 122.847 27.351 121.064 27.351C119.376 27.351 118.176 26.6747 117.275 25.6036L118.852 24.175V24.1765Z" fill="black"/>
<path d="M131.212 27.3525C127.854 27.3525 125.96 25.0033 125.96 22.2414C125.96 19.4796 127.723 17.1304 130.818 17.1304C133.444 17.1304 135.169 18.915 135.169 21.3953C135.169 21.9212 135.094 22.4098 135.018 22.7301H128.399C128.623 24.4968 129.711 25.2103 131.192 25.2103C132.224 25.2103 133.124 24.759 133.631 24.0827L135.338 25.4353C134.456 26.6196 132.993 27.3525 131.212 27.3525ZM128.474 21.002H132.825C132.788 20.0442 132.094 19.0848 130.761 19.0848C129.542 19.0848 128.736 19.7612 128.473 21.002H128.474Z" fill="black"/>
<path d="M137.494 17.5058H139.876V18.4458C140.495 17.8067 141.302 17.3181 142.37 17.3181C142.688 17.3181 142.971 17.3747 143.195 17.4492V19.7984C142.895 19.7239 142.576 19.6673 142.145 19.6673C140.982 19.6673 140.232 20.3064 139.876 20.9067V26.9756H137.494V17.5058Z" fill="black"/>
<path d="M146.328 19.648H144.564V17.5058H146.328V15.1387H148.728V17.5058H151.616V19.648H148.728V23.5181C148.728 24.5698 149.29 24.9839 150.228 24.9839C150.884 24.9839 151.315 24.9094 151.635 24.7769V26.8624C151.166 27.0695 150.603 27.1633 149.816 27.1633C147.454 27.1633 146.328 25.8286 146.328 23.5181V19.648Z" fill="black"/>
<path d="M153.397 14.2941C153.397 13.448 154.11 12.7344 154.954 12.7344C155.799 12.7344 156.492 13.448 156.492 14.2941C156.492 15.1402 155.797 15.8538 154.954 15.8538C154.111 15.8538 153.397 15.1402 153.397 14.2941ZM153.754 17.5073H156.136V26.9771H153.754V17.5073Z" fill="black"/>
<path d="M168.665 22.2414C168.665 25.0793 166.565 27.3525 163.489 27.3525C160.412 27.3525 158.312 25.0793 158.312 22.2414C158.312 19.4036 160.414 17.1304 163.489 17.1304C166.564 17.1304 168.665 19.4036 168.665 22.2414ZM166.189 22.2414C166.189 20.5879 165.045 19.3858 163.526 19.3858C162.006 19.3858 160.788 20.5879 160.788 22.2414C160.788 23.895 161.951 25.0971 163.526 25.0971C165.1 25.0971 166.189 23.8756 166.189 22.2414Z" fill="black"/>
<path d="M170.84 17.5058H173.222V18.2581C173.878 17.619 174.759 17.1304 176.016 17.1304C178.06 17.1304 179.692 18.5396 179.692 21.3387V26.9756H177.292V21.4326C177.292 20.1738 176.579 19.3843 175.417 19.3843C174.254 19.3843 173.579 20.1917 173.222 20.7935V26.9756H170.84V17.5058Z" fill="black"/>
<path d="M18.8423 53.2831L20.0364 52.9896C20.0364 52.9896 22.8853 51.8441 23.6853 47.5211C24.4853 43.1995 28.2249 40.2873 32.4076 41.5222C35.4172 41.0932 33.2136 36.4618 28.5922 37.7176C24.7737 38.7559 22.8467 39.6482 21.3508 39.2192C20.8586 39.0762 20.4869 38.6725 20.3828 38.1704C19.1368 32.1075 16.6402 20.0025 16.3428 18.9597C15.9859 17.7143 15.1637 17.3509 14.273 17.5252C13.2277 17.6577 13.1608 18.7452 13.1385 19.4483C13.1385 20.3511 13.7466 27.5193 14.0723 31.2867C13.7868 30.0994 13.1221 28.9196 11.604 29.0507C10.0457 29.1818 9.76759 31.1079 9.80328 32.6631C9.48805 31.4386 8.697 30.2067 6.73128 30.8026C6.04134 31.0096 5.72314 32.0166 5.61459 33.2992L5.56701 33.2292L1.54634 27.0873C-0.300427 24.2644 0.484673 20.4777 3.30241 18.626L29.0278 1.72428C31.3222 0.21525 34.3198 0.635336 36.125 2.5868L35.3993 2.76556C35.3993 2.76556 32.5429 3.91558 31.74 8.25795C30.9385 12.5973 27.19 15.5216 22.9983 14.2807C19.9813 14.7127 22.1894 19.3634 26.8212 18.1032C30.6516 17.0589 32.5831 16.1621 34.0849 16.5971C34.5756 16.7386 34.9473 17.1423 35.0514 17.6458C36.2989 23.7326 38.8029 35.8927 39.1003 36.9385C39.4587 38.1913 40.2824 38.5563 41.1761 38.379C42.2244 38.2449 42.2913 37.1545 42.3121 36.4469C42.3121 35.5412 41.7025 28.3431 41.3768 24.5594C41.6638 25.7526 42.3285 26.9354 43.8511 26.8058C45.4138 26.6732 45.6919 24.7396 45.6562 23.177C45.9714 24.4059 46.7655 25.6438 48.7371 25.0465C49.2888 24.8796 49.6025 24.2018 49.7631 23.2812L49.8241 23.3751L50.749 24.7873L53.5682 29.0939C55.4164 31.9153 54.6299 35.7035 51.8121 37.5552L26.4763 54.2007C24.1165 55.7515 21.0698 55.4208 19.0936 53.5766C18.9955 53.4857 18.9003 53.3903 18.8081 53.292L18.8423 53.2831Z" fill="#083B66"/>
<path d="M27.5189 27.5566L21.7139 23.0339H33.7699L27.9649 27.5566C27.8341 27.6593 27.6497 27.6593 27.5189 27.5566Z" fill="#EC4C4C"/>
<path d="M34.6038 23.7981V31.2375C34.6038 32.1909 33.8321 32.9641 32.8805 32.9641H22.6013C21.6496 32.9641 20.8779 32.1909 20.8779 31.2375V23.7981C20.8779 23.7624 20.8809 23.7266 20.8854 23.6909L27.1498 28.5725C27.4963 28.8421 27.9825 28.8421 28.3289 28.5725L34.5934 23.6909C34.5993 23.7266 34.6008 23.7624 34.6008 23.7996L34.6038 23.7981Z" fill="#EC4C4C"/>
</svg>
