<?xml version="1.0" encoding="UTF-8" standalone="no"?>
<!-- Created with Inkscape (http://www.inkscape.org/) -->

<svg
   xmlns:dc="http://purl.org/dc/elements/1.1/"
   xmlns:cc="http://creativecommons.org/ns#"
   xmlns:rdf="http://www.w3.org/1999/02/22-rdf-syntax-ns#"
   xmlns:svg="http://www.w3.org/2000/svg"
   xmlns="http://www.w3.org/2000/svg"
   xmlns:sodipodi="http://sodipodi.sourceforge.net/DTD/sodipodi-0.dtd"
   xmlns:inkscape="http://www.inkscape.org/namespaces/inkscape"
   width="84.666664mm"
   height="87.248566mm"
   viewBox="0 0 299.99999 309.14846"
   id="svg6943"
   version="1.1"
   inkscape:version="0.91 r13725"
   sodipodi:docname="Réunion (974) logo.svg">
  <defs
     id="defs6945">
    <clipPath
       clipPathUnits="userSpaceOnUse"
       id="clipPath132">
      <path
         d="m 0,0 841.89,0 0,595.276 L 0,595.276 0,0 Z"
         id="path134"
         inkscape:connector-curvature="0" />
    </clipPath>
    <clipPath
       clipPathUnits="userSpaceOnUse"
       id="clipPath18">
      <path
         d="m 0,0 841.89,0 0,595.276 L 0,595.276 0,0 Z"
         id="path20"
         inkscape:connector-curvature="0" />
    </clipPath>
  </defs>
  <sodipodi:namedview
     id="base"
     pagecolor="#ffffff"
     bordercolor="#666666"
     borderopacity="1.0"
     inkscape:pageopacity="0.0"
     inkscape:pageshadow="2"
     inkscape:zoom="1.6313043"
     inkscape:cx="147.14286"
     inkscape:cy="158.57143"
     inkscape:document-units="px"
     inkscape:current-layer="layer1"
     showgrid="false"
     fit-margin-top="0"
     fit-margin-left="0"
     fit-margin-right="0"
     fit-margin-bottom="0"
     inkscape:window-width="1366"
     inkscape:window-height="705"
     inkscape:window-x="-8"
     inkscape:window-y="-8"
     inkscape:window-maximized="1" />
  <metadata
     id="metadata6948">
    <rdf:RDF>
      <cc:Work
         rdf:about="">
        <dc:format>image/svg+xml</dc:format>
        <dc:type
           rdf:resource="http://purl.org/dc/dcmitype/StillImage" />
        <dc:title></dc:title>
      </cc:Work>
    </rdf:RDF>
  </metadata>
  <g
     inkscape:label="Calque 1"
     inkscape:groupmode="layer"
     id="layer1"
     transform="translate(-470.96329,-451.06294)">
    <path
       d="m 536.12854,760.2114 170.84962,0 0,-3.3698 -170.84962,0 0,3.3698 z"
       style="fill:#1e59ae;fill-opacity:1;fill-rule:nonzero;stroke:none"
       id="path12"
       inkscape:connector-curvature="0" />
    <g
       id="g14"
       transform="matrix(3.424595,0,0,-3.424595,347.6765,2443.4719)">
      <g
         id="g16"
         clip-path="url(#clipPath18)">
        <g
           id="g22"
           transform="translate(36.6724,514.587)">
          <path
             d="m 0,0 c 0.778,-0.026 3.547,0.004 4.171,0.042 1.03,0.043 1.883,0.067 2.557,0.067 1.306,0 5.224,0.153 5.276,-3.639 0.04,-2.939 -2.5,-4.263 -3.787,-4.748 0.208,-0.373 1.707,-2.665 2.699,-4.15 0.992,-1.486 3.736,-5.077 3.736,-5.077 -1.288,0.053 -1.807,0.076 -2.384,0.076 -0.669,0 -1.654,-0.023 -2.313,-0.076 -0.041,0.182 -3.058,5.146 -3.058,5.146 -0.764,1.272 -1.45,2.247 -1.945,3 -0.435,0.661 -0.583,1.235 -0.02,1.249 0.561,0.015 3.421,0.294 3.421,3.664 0,4.233 -5.225,3.071 -5.225,3.071 0,0 0.247,-0.308 0.21,-2.008 -0.037,-1.7 -0.081,-3.954 -0.081,-4.751 0,-1.258 0.081,-6.707 0.081,-6.941 0,-1.112 0.323,-2.43 0.323,-2.43 -1.429,0.053 -0.718,0.08 -2.164,0.08 -1.29,0 -1.07,-0.027 -2.169,-0.08 0,0 0.361,1.318 0.358,3.216 l 0.08,6.157 c 0,0 -0.105,5.923 -0.193,6.742 C -0.512,-0.571 -0.777,0.024 0,0"
             style="fill:#1e59ae;fill-opacity:1;fill-rule:nonzero;stroke:none"
             id="path24"
             inkscape:connector-curvature="0" />
        </g>
        <g
           id="g26"
           transform="translate(59.3538,512.5419)">
          <path
             d="m 0,0 c 0.464,0.43 0.476,1.007 0.2,1.511 -0.305,0.557 -0.899,1.396 -1.724,-0.181 -1.254,-2.396 -2.824,-3.181 -2.865,-3.312 -0.042,-0.13 0.301,-0.303 1.161,0 C -2.368,-1.679 -0.973,-0.906 0,0"
             style="fill:#1e59ae;fill-opacity:1;fill-rule:nonzero;stroke:none"
             id="path28"
             inkscape:connector-curvature="0" />
        </g>
        <g
           id="g30"
           transform="translate(71.8473,499.1452)">
          <path
             d="m 0,0 c -1.137,-1.188 -2.254,-2.071 -2.254,-2.071 -0.729,-0.297 -1.392,-0.37 -2.337,-0.281 -1.138,0.106 -3.052,0.959 -2.993,3.364 0.028,1.14 0.073,1.487 0.073,3.761 0,2.273 -0.143,3.559 -0.2,4.334 -0.057,0.774 2.415,0.609 3.56,0.992 0,0 -0.204,-2.936 -0.213,-4.77 -0.009,-1.833 -0.02,-2.78 0.076,-3.795 0.13,-1.37 1.292,-1.7 2.274,-1.558 1.056,0.154 1.928,1.421 1.964,1.811 0.126,1.383 -0.031,4.867 -0.031,4.867 0,0.576 -0.151,1.664 -0.168,2.453 -0.017,0.789 2.462,0.59 3.606,0.973 0,0 -0.153,-2.109 -0.227,-5.246 -0.091,-3.893 0.276,-6.915 0.276,-6.915 0,0 -1.148,0.042 -1.8,0.031 -0.65,-0.011 -1.778,-0.039 -1.778,-0.039 0,0 0.098,0.484 0.141,0.965 C 0.011,-0.643 0.005,-0.371 0,0"
             style="fill:#1e59ae;fill-opacity:1;fill-rule:nonzero;stroke:none"
             id="path32"
             inkscape:connector-curvature="0" />
        </g>
        <g
           id="g34"
           transform="translate(64.3363,503.9178)">
          <path
             d="m 0,0 c 0,2.273 -0.143,3.56 -0.2,4.334 -0.057,0.774 2.415,0.61 3.56,0.992 0,0 -0.204,-2.935 -0.213,-4.769"
             style="fill:#1e59ae;fill-opacity:1;fill-rule:nonzero;stroke:none"
             id="path36"
             inkscape:connector-curvature="0" />
        </g>
        <g
           id="g38"
           transform="translate(94.3208,514.9726)">
          <path
             d="M 0,0 C 0.531,0 0.983,-0.184 1.353,-0.557 1.72,-0.93 1.907,-1.377 1.907,-1.899 1.907,-2.429 1.72,-2.878 1.353,-3.252 0.983,-3.623 0.531,-3.812 0,-3.812 c -0.523,0 -0.973,0.189 -1.346,0.56 -0.372,0.374 -0.559,0.823 -0.559,1.353 0,0.522 0.182,0.969 0.554,1.342 C -0.983,-0.184 -0.532,0 0,0"
             style="fill:#1e59ae;fill-opacity:1;fill-rule:nonzero;stroke:none"
             id="path40"
             inkscape:connector-curvature="0" />
        </g>
        <g
           id="g42"
           transform="translate(104.1305,497.9695)">
          <path
             d="m 0,0 c -1.037,0 -1.723,0.685 -2.102,1.599 -0.38,0.91 -0.618,2.075 -0.616,3.546 0.003,1.473 0.236,2.637 0.616,3.547 C -1.723,9.605 -1.037,10.29 0,10.29 1.035,10.29 1.721,9.605 2.101,8.692 2.48,7.782 2.719,6.618 2.716,5.145 2.719,3.674 2.48,2.509 2.101,1.599 1.721,0.685 1.035,0 0,0 m 0,-1.181 c 2.208,0 3.635,0.777 4.622,1.811 0.983,1.034 1.495,2.643 1.495,4.543 0,1.9 -0.512,3.508 -1.495,4.542 C 3.635,10.75 2.208,11.502 0,11.502 c -2.209,0 -3.627,-0.752 -4.613,-1.787 -0.983,-1.034 -1.505,-2.571 -1.505,-4.567 0,-1.996 0.522,-3.533 1.505,-4.567 0.986,-1.034 2.404,-1.762 4.613,-1.762"
             style="fill:#1e59ae;fill-opacity:1;fill-rule:nonzero;stroke:none"
             id="path44"
             inkscape:connector-curvature="0" />
        </g>
        <g
           id="g46"
           transform="translate(81.782,509.2358)">
          <path
             d="m 0,0 c 0,0 -0.052,-0.614 -0.094,-1.095 -0.042,-0.481 -0.037,-0.753 -0.031,-1.124 1.055,1.171 2.254,2.071 2.254,2.071 0.729,0.297 1.391,0.37 2.336,0.281 1.139,-0.107 3.052,-0.959 2.993,-3.365 -0.028,-1.139 -0.073,-1.486 -0.073,-3.76 0,-2.273 0.221,-4.436 0.277,-5.211 0,0 -1.148,0.042 -1.799,0.031 -0.651,-0.011 -1.778,-0.038 -1.778,-0.038 0,0 0.146,2.828 0.154,4.662 0.008,1.833 0.02,2.78 -0.076,3.795 -0.13,1.37 -1.295,1.716 -2.274,1.557 -1.133,-0.183 -1.928,-1.42 -1.964,-1.81 -0.126,-1.383 0.03,-4.867 0.03,-4.867 0,-0.576 0.175,-2.526 0.192,-3.314 0,0 -1.163,0.046 -1.814,0.035 -0.651,-0.011 -1.778,-0.039 -1.778,-0.039 0,0 0.116,2 0.189,5.138 0.053,2.21 -0.123,4.623 -0.228,6.025 C -3.543,-0.241 -1.145,-0.383 0,0"
             style="fill:#1e59ae;fill-opacity:1;fill-rule:nonzero;stroke:none"
             id="path48"
             inkscape:connector-curvature="0" />
        </g>
        <g
           id="g50"
           transform="translate(115.8266,509.2358)">
          <path
             d="m 0,0 c 0,0 -0.053,-0.614 -0.095,-1.095 -0.043,-0.481 -0.037,-0.753 -0.031,-1.124 1.055,1.171 2.253,2.071 2.253,2.071 0.729,0.297 1.392,0.37 2.338,0.281 1.138,-0.107 3.052,-0.959 2.993,-3.365 -0.028,-1.139 -0.073,-1.486 -0.073,-3.76 0,-2.273 0.22,-4.436 0.276,-5.211 0,0 -1.147,0.042 -1.798,0.031 -0.652,-0.011 -1.778,-0.038 -1.778,-0.038 0,0 0.144,2.828 0.153,4.662 0.008,1.833 0.02,2.78 -0.076,3.795 -0.13,1.37 -1.292,1.702 -2.274,1.557 -0.988,-0.145 -1.928,-1.42 -1.964,-1.81 -0.126,-1.383 0.03,-4.867 0.03,-4.867 0,-0.576 0.175,-2.526 0.193,-3.314 0,0 -1.164,0.046 -1.814,0.035 -0.652,-0.011 -1.779,-0.039 -1.779,-0.039 0,0 0.117,2 0.189,5.138 0.053,2.21 -0.123,4.623 -0.229,6.025 C -3.544,-0.241 -1.145,-0.383 0,0"
             style="fill:#1e59ae;fill-opacity:1;fill-rule:nonzero;stroke:none"
             id="path52"
             inkscape:connector-curvature="0" />
        </g>
        <g
           id="g54"
           transform="translate(96.0075,509.2358)">
          <path
             d="m 0,0 c -1.144,-0.383 -3.632,-0.241 -3.574,-1.028 0.106,-1.402 0.256,-2.822 0.246,-5.033 -0.015,-3.233 -0.206,-6.13 -0.206,-6.13 0,0 1.127,0.028 1.778,0.039 0.651,0.011 1.903,-0.035 1.903,-0.035 -0.017,0.788 -0.292,3.191 -0.292,6.126 0,1.907 0.011,4.406 0.145,6.061"
             style="fill:#1e59ae;fill-opacity:1;fill-rule:nonzero;stroke:none"
             id="path56"
             inkscape:connector-curvature="0" />
        </g>
        <g
           id="g58"
           transform="translate(58.7796,504.3322)">
          <path
             d="m 0,0 c -1.041,-0.157 -2.811,0.141 -3.9,-0.194 -0.252,-0.078 -0.465,-0.387 -0.622,-0.692 0.057,2.22 0.535,4.773 2.373,4.742 C -0.507,3.827 0.045,1.941 0,0 m 3.097,-1.311 c 0.26,0.058 0.208,0.726 0.212,0.96 C 3.338,1.273 2.907,2.458 2.184,3.302 0.98,4.709 -0.931,5.171 -2.112,5.149 -3.913,5.116 -5.402,4.417 -6.371,3.347 -7.395,2.218 -7.85,0.676 -7.878,-0.935 c -0.055,-3.138 1.283,-6.412 6.118,-6.627 0.722,-0.032 2.46,0.057 4.156,1.07 0,0 0.427,0.756 0.595,1.22 0.171,0.468 -0.309,0.357 -0.309,0.357 -0.799,-0.499 -2.227,-1.381 -4.092,-1.291 -2.422,0.118 -2.916,2.885 -2.928,3.86 -0.018,1.53 4.908,0.463 7.435,1.035"
             style="fill:#1e59ae;fill-opacity:1;fill-rule:nonzero;stroke:none"
             id="path60"
             inkscape:connector-curvature="0" />
        </g>
        <g
           id="g62"
           transform="translate(67.7203,515.6747)">
          <path
             d="m 0,0 c 1.119,0 1.555,-0.39 1.555,-1.391 0,-1.023 -0.451,-1.44 -1.555,-1.44 l -0.452,0 0,2.831 L 0,0 Z m -1.693,0.817 c 0,0 0.077,-0.429 0.077,-0.803 l 0,-2.89 c 0,-0.4 -0.078,-0.802 -0.078,-0.802 l 1.769,0 c 1.784,0 2.689,0.769 2.689,2.287 0,2.208 -2.024,2.208 -2.689,2.208 l -1.768,0 z"
             style="fill:#1e59ae;fill-opacity:1;fill-rule:nonzero;stroke:none"
             id="path64"
             inkscape:connector-curvature="0" />
        </g>
        <g
           id="g66"
           transform="translate(71.6405,516.4915)">
          <path
             d="m 0,0 c 0,0 0.074,-0.459 0.074,-0.803 l 0,-2.89 C 0.074,-4.038 0,-4.495 0,-4.495 l 3.262,0 0,0.847 -2.023,0 0,1.098 C 1.413,-2.55 3,-2.548 3,-2.548 l 0,0.813 c 0,0 -1.587,0.002 -1.761,0.002 l 0,0.916 c 0.176,0 1.911,0 1.911,0 L 3.15,0 0,0 Z"
             style="fill:#1e59ae;fill-opacity:1;fill-rule:nonzero;stroke:none"
             id="path68"
             inkscape:connector-curvature="0" />
        </g>
        <g
           id="g70"
           transform="translate(84.3705,513.7016)">
          <path
             d="M 0,0 C 0.075,0.175 0.709,1.598 0.784,1.772 0.855,1.596 1.435,0.165 1.505,-0.006 1.362,0.003 0.148,0.01 0,0 m 1.715,-0.761 c 0.043,-0.108 0.357,-0.944 0.357,-0.944 l 1.291,0 -2.077,4.495 -1.167,0 0.024,-0.123 c 0,0 0.016,-0.09 -0.086,-0.314 l -1.883,-4.06 1.213,0.01 c 0,0 0.334,0.805 0.389,0.932 0.258,0.002 1.674,0.005 1.939,0.004"
             style="fill:#1e59ae;fill-opacity:1;fill-rule:nonzero;stroke:none"
             id="path72"
             inkscape:connector-curvature="0" />
        </g>
        <g
           id="g74"
           transform="translate(78.4122,515.7316)">
          <path
             d="m 0,0 0,-2.889 c 0,-0.4 -0.092,-0.836 -0.092,-0.839 l 3.319,0 0,0.922 -0.829,-0.057 -1.231,0 c 10e-4,0.184 0.006,3.678 0.006,3.678 l -1.249,0 C -0.076,0.815 0,0.374 0,0"
             style="fill:#1e59ae;fill-opacity:1;fill-rule:nonzero;stroke:none"
             id="path76"
             inkscape:connector-curvature="0" />
        </g>
        <g
           id="g78"
           transform="translate(38.3737,524.084)">
          <path
             d="M 0,0 C 1.766,0 2.487,-0.552 2.487,-1.904 2.487,-3.285 1.743,-3.873 0,-3.873 l -0.828,0 0,3.873 L 0,0 Z m -2.373,0.796 c 0,0 0.086,-0.406 0.086,-0.903 l 0,-3.698 c 0,-0.531 -0.086,-0.901 -0.086,-0.901 l 2.486,0 c 2.588,0 3.9,0.941 3.9,2.802 0,2.42 -2.225,2.7 -3.9,2.7 l -2.486,0 z"
             style="fill:#1e59ae;fill-opacity:1;fill-rule:nonzero;stroke:none"
             id="path80"
             inkscape:connector-curvature="0" />
        </g>
        <g
           id="g82"
           transform="translate(44.9653,524.8798)">
          <path
             d="m 0,0 c 0,0 0.086,-0.445 0.086,-0.903 l 0,-3.697 c 0,-0.457 -0.085,-0.902 -0.085,-0.902 l 4.592,0 0,0.833 -3.047,0 0,1.656 c 0.157,0 2.651,0.002 2.651,0.002 l 0,0.791 c 0,0 -2.494,0.003 -2.651,0.003 l 0,1.421 c 0.157,0 2.877,-0.001 2.877,-0.001 L 4.423,0 0,0 Z"
             style="fill:#1e59ae;fill-opacity:1;fill-rule:nonzero;stroke:none"
             id="path84"
             inkscape:connector-curvature="0" />
        </g>
        <g
           id="g86"
           transform="translate(83.8452,524.8798)">
          <path
             d="m 0,0 c 0,0 0.087,-0.445 0.087,-0.903 l 0,-3.697 C 0.087,-5.057 0,-5.502 0,-5.502 l 4.593,0 0,0.833 -3.048,0 0,1.656 c 0.159,0 2.653,0.002 2.653,0.002 l 0,0.791 c 0,0 -2.494,0.003 -2.653,0.003 l 0,1.421 c 0.159,0 2.878,-0.001 2.878,-0.001 L 4.423,0 0,0 Z"
             style="fill:#1e59ae;fill-opacity:1;fill-rule:nonzero;stroke:none"
             id="path88"
             inkscape:connector-curvature="0" />
        </g>
        <g
           id="g90"
           transform="translate(101.8288,524.8798)">
          <path
             d="m 0,0 c 0,0 0.085,-0.445 0.085,-0.903 l 0,-3.697 C 0.085,-5.057 0,-5.502 0,-5.502 l 4.591,0 0,0.833 -3.046,0 0,1.656 c 0.158,0 2.652,0.002 2.652,0.002 l 0,0.791 c 0,0 -2.494,0.003 -2.652,0.003 l 0,1.421 c 0.158,0 2.877,-0.001 2.877,-0.001 L 4.422,0 0,0 Z"
             style="fill:#1e59ae;fill-opacity:1;fill-rule:nonzero;stroke:none"
             id="path92"
             inkscape:connector-curvature="0" />
        </g>
        <g
           id="g94"
           transform="translate(54.5292,524.084)">
          <path
             d="m 0,0 c 1.037,0 1.459,-0.207 1.459,-0.715 0,-0.58 -0.45,-0.838 -1.459,-0.838 l -0.511,0 0,1.553 L 0,0 Z m -2.057,0.796 c 0,0 0.087,-0.446 0.087,-0.903 l 0,-3.698 c 0,-0.457 -0.087,-0.901 -0.087,-0.901 l 1.544,0 c 0,0 0.002,2.202 0.002,2.357 l 0.511,0 c 1.234,0 2.874,0.169 2.874,1.634 0,1.017 -0.828,1.511 -2.535,1.511 l -2.396,0 z"
             style="fill:#1e59ae;fill-opacity:1;fill-rule:nonzero;stroke:none"
             id="path96"
             inkscape:connector-curvature="0" />
        </g>
        <g
           id="g98"
           transform="translate(62.0958,523.7024)">
          <path
             d="M 0,0 C 0.107,-0.225 0.862,-1.814 0.967,-2.035 0.752,-2.023 -0.814,-2.023 -1.037,-2.036 -0.923,-1.812 -0.113,-0.222 0,0 m -0.822,1.177 c 0,0 0.052,-0.132 -0.137,-0.485 -0.189,-0.353 -2.738,-5.017 -2.738,-5.017 l 1.498,0.01 c 0,0 0.277,0.561 0.416,0.812 10e-4,0.002 0.241,0.48 0.317,0.626 0.07,0.003 2.771,0.003 2.836,0 0.039,-0.08 0.67,-1.448 0.67,-1.448 l 1.618,0 c 0,0 -0.238,0.442 -0.477,0.905 0,0 -2.519,4.597 -2.519,4.597 l -1.484,0 z"
             style="fill:#1e59ae;fill-opacity:1;fill-rule:nonzero;stroke:none"
             id="path100"
             inkscape:connector-curvature="0" />
        </g>
        <g
           id="g102"
           transform="translate(70.3918,524.084)">
          <path
             d="M 0,0 C 0.991,0 1.413,-0.086 1.413,-0.668 1.413,-1.24 0.644,-1.46 0,-1.46 l -0.523,0 0,1.46 L 0,0 Z m -2.07,0.796 c 0,0 0.087,-0.445 0.087,-0.903 l 0,-3.698 c 0,-0.458 -0.087,-0.901 -0.087,-0.901 l 1.544,0 c 0,0 0.003,2.295 0.003,2.449 l 0.394,0 c 0.662,0 0.868,-0.097 1.14,-0.646 0.537,-1.085 0.793,-1.814 0.793,-1.814 l 1.647,-0.002 c -0.165,0.415 -0.869,1.886 -0.869,1.886 l 0,0 c -0.286,0.616 -0.593,0.863 -1.025,0.984 0.517,0.136 1.27,0.558 1.27,1.181 0,1.412 -1.524,1.464 -2.67,1.464 l -2.227,0 z"
             style="fill:#1e59ae;fill-opacity:1;fill-rule:nonzero;stroke:none"
             id="path104"
             inkscape:connector-curvature="0" />
        </g>
        <g
           id="g106"
           transform="translate(75.4256,524.8798)">
          <path
             d="m 0,0 0,-0.86 c 0,0 0.777,0.064 1.101,0.064 l 1.076,0 c 0,-0.164 -0.006,-4.706 -0.006,-4.706 l 1.463,0 c 0,0 0.002,4.542 0.002,4.706 l 1.076,0 c 0.341,0 1.103,-0.062 1.103,-0.062 L 5.815,0 0,0 Z"
             style="fill:#1e59ae;fill-opacity:1;fill-rule:nonzero;stroke:none"
             id="path108"
             inkscape:connector-curvature="0" />
        </g>
        <g
           id="g110"
           transform="translate(117.788,524.8798)">
          <path
             d="m 0,0 0,-0.86 c 0,0 0.777,0.064 1.102,0.064 l 1.075,0 C 2.177,-0.96 2.17,-5.502 2.17,-5.502 l 1.465,0 c 0,0 0.001,4.542 0.001,4.706 l 1.077,0 c 0.339,0 1.101,-0.062 1.101,-0.062 L 5.814,0 0,0 Z"
             style="fill:#1e59ae;fill-opacity:1;fill-rule:nonzero;stroke:none"
             id="path112"
             inkscape:connector-curvature="0" />
        </g>
        <g
           id="g114"
           transform="translate(113.7957,524.8798)">
          <path
             d="m 0,0 c 0,0 0.086,-0.447 0.086,-0.903 l 0,-3.117 C -0.158,-3.694 -2.921,0 -2.921,0 l -1.694,0 c 0,0 0.099,-0.488 0.099,-0.888 l 0.02,-4.614 1.211,0 c 0,0 0.012,3.7 0.012,4.099 0.245,-0.326 3.088,-4.099 3.088,-4.099 l 1.516,0 L 1.343,0 0,0 Z"
             style="fill:#1e59ae;fill-opacity:1;fill-rule:nonzero;stroke:none"
             id="path116"
             inkscape:connector-curvature="0" />
        </g>
        <g
           id="g118"
           transform="translate(96.4901,524.4843)">
          <path
             d="m 0,0 c 0,0 -1.478,-3.55 -1.603,-3.852 -0.127,0.301 -1.792,4.247 -1.792,4.247 l -1.812,0 c 0,0 0.097,-0.246 0.077,-0.397 -0.001,0 -0.398,-5.105 -0.398,-5.105 l 1.268,0 c 0,0 0.196,3.237 0.243,4.081 0.217,-0.505 1.758,-4.081 1.758,-4.081 l 1.199,0 c 0,0 1.504,3.551 1.722,4.071 0.028,-0.536 0.235,-4.069 0.235,-4.069 L 2.302,-5.107 1.877,0.395 0.049,0.389 C 0.049,0.389 0.066,0.138 0,0"
             style="fill:#1e59ae;fill-opacity:1;fill-rule:nonzero;stroke:none"
             id="path120"
             inkscape:connector-curvature="0" />
        </g>
      </g>
    </g>
    <g
       id="g122"
       transform="matrix(3.424595,0,0,-3.424595,512.42966,639.30712)">
      <path
         d="M 0,0 -2.095,-1.083 -1.574,-1.596 0.76,-0.652 0.055,0.028 0,0 Z"
         style="fill:#1e59ae;fill-opacity:1;fill-rule:nonzero;stroke:none"
         id="path124"
         inkscape:connector-curvature="0" />
    </g>
    <path
       d="m 712.16642,632.24456 -181.18162,0 0,-181.18162 181.18162,0 0,181.18162 z"
       style="fill:#ffffff;fill-opacity:1;fill-rule:nonzero;stroke:none"
       id="path126"
       inkscape:connector-curvature="0" />
    <g
       id="g128"
       transform="matrix(3.424595,0,0,-3.424595,347.6765,2443.4719)">
      <g
         id="g130"
         clip-path="url(#clipPath132)">
        <g
           id="g136"
           transform="translate(54.8183,580.3417)">
          <path
             d="m 0,0 15.567,0 c 0,0 -0.876,-3.782 -1.553,-4.579 L 0,-10.789 0,0 Z"
             style="fill:#00adef;fill-opacity:1;fill-rule:nonzero;stroke:none"
             id="path138"
             inkscape:connector-curvature="0" />
        </g>
        <g
           id="g140"
           transform="translate(54.8183,565.29)">
          <path
             d="m 0,0 11.944,5.733 c 0,0 -5.495,-17.717 -11.864,-25.879 L 0,0 Z"
             style="fill:#f1471d;fill-opacity:1;fill-rule:nonzero;stroke:none"
             id="path142"
             inkscape:connector-curvature="0" />
        </g>
        <g
           id="g144"
           transform="translate(58.41,530.2396)">
          <path
             d="m 0,0 c 0,0 9.31,20.502 9.564,21.265 0,0 14.6,-17.551 26.81,-21.163 L 0,0 Z"
             style="fill:#fcd006;fill-opacity:1;fill-rule:nonzero;stroke:none"
             id="path146"
             inkscape:connector-curvature="0" />
        </g>
        <g
           id="g148"
           transform="translate(69.2718,554.7998)">
          <path
             d="m 0,0 5.99,18.269 c 0,0 16.068,4.265 14.977,-6.001 0,0 -0.05,-4.463 -7.935,-7.785 L 0,0 Z"
             style="fill:#008350;fill-opacity:1;fill-rule:nonzero;stroke:none"
             id="path150"
             inkscape:connector-curvature="0" />
        </g>
        <g
           id="g152"
           transform="translate(75.7901,577.1564)">
          <path
             d="m 0,0 0.645,3.224 28.658,-0.072 0,-46.712 c 0,0 -6.305,0.788 -15.404,11.105 -9.099,10.317 -11.535,9.672 -11.535,9.672 0,0 18.628,2.937 20.276,13.397 0,0 1.647,9.601 -11.392,9.673 L 0,0 Z"
             style="fill:#1476c6;fill-opacity:1;fill-rule:nonzero;stroke:none"
             id="path154"
             inkscape:connector-curvature="0" />
        </g>
      </g>
    </g>
  </g>
</svg>
