<?xml version="1.0" encoding="UTF-8" standalone="no"?>
<svg
   viewBox="0 0 400 274.83664"
   xml:space="preserve"
   version="1.1"
   id="svg992"
   sodipodi:docname="Logo_Seine-et-Marne_(2022,_institutional).svg"
   width="400"
   height="274.83664"
   inkscape:version="1.1.1 (c3084ef, 2021-09-22)"
   xmlns:inkscape="http://www.inkscape.org/namespaces/inkscape"
   xmlns:sodipodi="http://sodipodi.sourceforge.net/DTD/sodipodi-0.dtd"
   xmlns="http://www.w3.org/2000/svg"
   xmlns:svg="http://www.w3.org/2000/svg"><defs
   id="defs996" /><sodipodi:namedview
   id="namedview994"
   pagecolor="#ffffff"
   bordercolor="#666666"
   borderopacity="1.0"
   inkscape:pageshadow="2"
   inkscape:pageopacity="0.0"
   inkscape:pagecheckerboard="0"
   showgrid="false"
   inkscape:zoom="1.5394089"
   inkscape:cx="177.9904"
   inkscape:cy="122.1248"
   inkscape:window-width="1440"
   inkscape:window-height="900"
   inkscape:window-x="0"
   inkscape:window-y="0"
   inkscape:window-maximized="0"
   inkscape:current-layer="svg992" />
  <g
   transform="matrix(1.4992507,0,0,-1.4992507,-56.14469,330.98313)"
   id="g990">
    <path
   d="m 265.4057,125.0557 37.584,77.729 c 1.888,3.907 1.641,8.434 -0.666,12.11 -2.306,3.677 -6.274,5.871 -10.613,5.871 h -38.732 c -4.106,0 -7.448,-3.341 -7.448,-7.448 0,-4.108 3.342,-7.449 7.448,-7.449 h 17.855 c 3.717,0 7.114,-1.879 9.09,-5.027 1.974,-3.148 2.187,-7.025 0.57,-10.37 l -28.499,-58.933 c -1.122,-2.323 -0.975,-5.014 0.397,-7.201 1.371,-2.184 3.729,-3.489 6.309,-3.489 2.838,0 5.47,1.651 6.705,4.207"
   style="fill:#00ade9"
   id="path938" />
    <path
   d="m 226.9604,120.8487 c 2.838,0 5.471,1.651 6.706,4.207 l 24.448,50.56 c 1.889,3.906 1.641,8.434 -0.665,12.109 -2.305,3.677 -6.274,5.871 -10.613,5.871 h -38.732 c -4.107,0 -7.449,-3.341 -7.449,-7.447 0,-4.107 3.342,-7.449 7.449,-7.449 h 17.855 c 3.716,0 7.113,-1.88 9.09,-5.028 1.974,-3.148 2.187,-7.024 0.569,-10.37 l -15.363,-31.763 c -1.124,-2.323 -0.975,-5.014 0.395,-7.201 1.373,-2.184 3.731,-3.489 6.31,-3.489"
   style="fill:#00ade9"
   id="path940" />
    <path
   d="m 37.4487,37.4502 v 19.761 h 3.896 v -15.865 h 7.96 v -3.896 z"
   style="fill:#00ade9"
   id="path942" />
    <path
   d="m 51.8374,37.4502 v 19.761 h 12.506 v -3.896 h -8.61 v -3.331 h 6.718 v -3.895 h -6.718 v -4.743 h 8.61 v -3.896 z"
   style="fill:#00ade9"
   id="path944" />
    <path
   d="m 78.1186,41.3457 h 2.654 c 0.809,0 1.574,0.155 2.294,0.466 0.72,0.31 1.357,0.738 1.911,1.285 0.556,0.545 0.991,1.18 1.307,1.905 0.314,0.725 0.473,1.501 0.473,2.328 0,0.828 -0.159,1.603 -0.473,2.323 -0.316,0.719 -0.748,1.355 -1.299,1.905 -0.55,0.551 -1.185,0.98 -1.905,1.292 -0.721,0.309 -1.489,0.466 -2.308,0.466 h -2.654 z m -3.896,-3.896 v 19.761 h 6.55 c 1.365,0 2.642,-0.257 3.831,-0.769 1.192,-0.513 2.241,-1.224 3.149,-2.132 0.908,-0.908 1.618,-1.956 2.131,-3.148 0.512,-1.189 0.769,-2.467 0.769,-3.832 0,-1.364 -0.257,-2.641 -0.769,-3.831 -0.513,-1.191 -1.223,-2.241 -2.131,-3.148 -0.908,-0.908 -1.957,-1.618 -3.149,-2.131 -1.189,-0.514 -2.466,-0.77 -3.831,-0.77 z"
   style="fill:#00ade9"
   id="path946" />
    <path
   d="m 98.9516,59.1582 1.129,4.065 h 3.896 l -2.964,-4.065 z m -5.463,-21.708 v 19.761 h 12.507 v -3.896 h -8.611 v -3.331 h 6.719 v -3.895 h -6.719 v -4.743 h 8.611 v -3.896 z"
   style="fill:#00ade9"
   id="path948" />
    <path
   d="m 112.5122,49.1094 h 2.951 c 0.432,0 0.822,0.105 1.172,0.317 0.348,0.212 0.628,0.498 0.839,0.861 0.212,0.362 0.317,0.764 0.317,1.207 0,0.432 -0.105,0.83 -0.317,1.192 -0.211,0.362 -0.491,0.652 -0.839,0.868 -0.35,0.216 -0.74,0.326 -1.172,0.326 h -2.951 z m -3.895,-11.659 v 19.761 h 7.283 c 1.083,0 2.058,-0.274 2.929,-0.819 0.87,-0.546 1.565,-1.273 2.081,-2.181 0.518,-0.909 0.777,-1.908 0.777,-2.999 0,-1.111 -0.264,-2.12 -0.79,-3.028 -0.527,-0.909 -1.231,-1.631 -2.111,-2.167 -0.879,-0.536 -1.841,-0.804 -2.886,-0.804 h -3.388 v -7.763 z"
   style="fill:#00ade9"
   id="path950" />
    <path
   d="m 128.2895,44.6211 h 5.279 l -2.654,7.24 z m 0.424,12.59 h 4.432 l 7.169,-19.761 h -4.134 l -1.186,3.275 h -8.13 l -1.186,-3.275 h -4.136 z"
   style="fill:#00ade9"
   id="path952" />
    <path
   d="m 146.5043,49.1094 h 3.486 c 0.424,0 0.812,0.105 1.165,0.317 0.353,0.212 0.635,0.498 0.847,0.861 0.211,0.362 0.317,0.764 0.317,1.207 0,0.432 -0.106,0.83 -0.317,1.192 -0.212,0.362 -0.494,0.652 -0.847,0.868 -0.353,0.216 -0.741,0.326 -1.165,0.326 h -3.486 z m -3.896,-11.659 v 19.761 h 7.848 c 1.073,0 2.044,-0.271 2.914,-0.812 0.871,-0.541 1.563,-1.266 2.076,-2.174 0.512,-0.908 0.769,-1.913 0.769,-3.013 0,-0.866 -0.15,-1.668 -0.452,-2.407 -0.301,-0.739 -0.724,-1.385 -1.271,-1.94 -0.545,-0.556 -1.179,-0.988 -1.905,-1.299 l 4.701,-8.116 h -4.488 l -4.503,7.763 h -1.793 v -7.763 z"
   style="fill:#00ade9"
   id="path954" />
    <path
   d="m 174.1938,57.211 v -3.896 h -5.815 V 37.45 h -3.896 v 15.865 h -5.815 v 3.896 z"
   style="fill:#00ade9"
   id="path956" />
    <path
   d="m 176.5903,37.4502 v 19.761 h 12.506 v -3.896 h -8.61 v -3.331 h 6.718 v -3.895 h -6.718 v -4.743 h 8.61 v -3.896 z"
   style="fill:#00ade9"
   id="path958" />
    <path
   d="m 191.6362,37.4502 3.839,19.761 h 3.289 l 4.587,-12.097 4.601,12.097 h 3.289 l 3.839,-19.761 h -3.98 l -2.188,11.334 -4.22,-11.137 h -2.682 l -4.207,11.137 -2.201,-11.334 z"
   style="fill:#00ade9"
   id="path960" />
    <path
   d="m 218.2026,37.4502 v 19.761 h 12.506 v -3.896 h -8.61 v -3.331 h 6.719 v -3.895 h -6.719 v -4.743 h 8.61 v -3.896 z"
   style="fill:#00ade9"
   id="path962" />
    <path
   d="m 233.226,37.4502 v 19.761 h 4.206 l 7.707,-12.717 v 12.717 h 3.896 v -19.761 h -4.206 l -7.707,12.717 v -12.717 z"
   style="fill:#00ade9"
   id="path964" />
    <path
   d="m 266.8539,57.211 v -3.896 h -5.815 V 37.45 h -3.896 v 15.865 h -5.815 v 3.896 z"
   style="fill:#00ade9"
   id="path966" />
    <path
   d="m 149.6547,79.1319 c 5.668,0 10.104,4.354 10.104,10.352 0,5.916 -4.272,10.351 -10.104,10.351 -5.67,0 -10.106,-4.435 -10.106,-10.351 0,-5.998 4.436,-10.352 10.106,-10.352 m 10.104,-7.147 v 2.793 c -0.246,-0.247 -0.657,-0.493 -1.232,-0.904 -0.985,-0.657 -5.012,-2.301 -8.872,-2.301 -5.095,0 -9.366,1.726 -12.817,5.176 -3.452,3.533 -5.176,7.723 -5.176,12.735 0,4.929 1.724,9.12 5.176,12.652 3.533,3.533 7.804,5.258 12.817,5.258 4.846,0 9.119,-1.643 12.65,-4.847 3.534,-3.204 5.341,-7.641 5.341,-13.31 v -17.252 z"
   style="fill:#00499a"
   id="path968" />
    <path
   d="m 121.0991,102.875 c -2.958,2.711 -6.491,4.107 -10.516,4.107 -4.026,0 -7.559,-1.396 -10.516,-4.107 -0.15,-0.142 -0.28,-0.302 -0.422,-0.45 -0.145,0.148 -0.277,0.309 -0.431,0.45 -2.959,2.711 -6.492,4.107 -10.516,4.107 -4.026,0 -7.559,-1.396 -10.516,-4.107 -2.876,-2.711 -4.355,-6.818 -4.355,-12.406 V 71.573 h 7.887 v 18.896 c 0,5.916 2.711,8.955 6.984,8.955 4.072,0 6.795,-2.843 7.041,-8.161 -0.007,-0.267 -0.028,-0.52 -0.028,-0.794 V 71.573 h 0.052 7.836 0.051 v 18.896 c 0,0.276 -0.021,0.534 -0.028,0.803 0.239,5.383 2.887,8.152 6.961,8.152 4.272,0 7.065,-3.121 7.065,-8.955 V 71.573 h 7.888 v 18.896 c 0,5.505 -1.48,9.695 -4.437,12.406"
   style="fill:#00499a"
   id="path970" />
    <path
   d="m 181.5766,71.5733 h -7.805 v 20.868 c 0,10.106 5.67,14.131 13.31,14.131 h 1.89 v -7.559 h -1.479 c -3.944,0 -5.916,-2.218 -5.916,-6.572 z"
   style="fill:#00499a"
   id="path972" />
    <path
   d="m 202.9848,71.5733 h -7.888 v 18.896 c 0,5.586 1.48,9.695 4.356,12.406 2.957,2.711 6.49,4.107 10.515,4.107 4.025,0 7.558,-1.396 10.517,-4.107 2.957,-2.711 4.436,-6.902 4.436,-12.406 v -18.896 h -7.887 v 18.896 c 0,5.833 -2.794,8.955 -7.066,8.955 -4.272,0 -6.983,-3.039 -6.983,-8.955 z"
   style="fill:#00499a"
   id="path974" />
    <path
   d="m 249.0395,86.1153 h 17.62 c 0,0 1.701,9.164 -4.968,16.021 -3.483,3.582 -7.723,5.257 -12.652,5.257 -5.012,0 -9.201,-1.724 -12.734,-5.257 -3.533,-3.533 -5.258,-7.723 -5.258,-12.653 0,-5.012 1.725,-9.201 5.258,-12.733 3.533,-3.451 7.722,-5.177 12.734,-5.177 4.929,0 9.119,1.726 12.652,5.177 1.68,1.678 2.937,3.511 3.809,5.506 h -9.088 c -0.076,-0.082 -0.144,-0.168 -0.226,-0.248 -1.888,-1.891 -4.272,-2.876 -7.147,-2.876 -2.876,0 -5.258,0.985 -7.229,2.876 -1.89,1.971 -2.876,4.436 -2.876,7.475 0,3.04 0.986,5.505 2.876,7.395 1.971,1.971 4.353,2.957 7.229,2.957 2.875,0 5.259,-0.986 7.147,-2.957 0.998,-0.955 1.758,-2.387 2.256,-3.698 h -9.403 z"
   style="fill:#00499a"
   id="path976" />
    <path
   d="m 56.4565,121.3535 h -17.48 v 7.063 h 17.48 c 1.837,0 3.331,1.495 3.331,3.332 0,1.837 -1.494,3.332 -3.331,3.332 h -8.613 c -5.732,0 -10.395,4.664 -10.395,10.396 0,5.731 4.663,10.395 10.395,10.395 h 17.48 v -7.064 h -17.48 c -1.837,0 -3.331,-1.494 -3.331,-3.331 0,-1.838 1.494,-3.333 3.331,-3.333 h 8.613 c 5.731,0 10.395,-4.663 10.395,-10.395 0,-5.732 -4.664,-10.395 -10.395,-10.395"
   style="fill:#00499a"
   id="path978" />
    <path
   style="fill:#00499a"
   d="m 112.834,156.058 h 7.888 v -34.999 h -7.888 z m 0.494,14.213 c 1.89,1.889 5.011,1.889 6.901,0 1.89,-1.89 1.89,-5.012 0,-6.902 -1.89,-1.889 -5.011,-1.889 -6.901,0 -1.89,1.89 -1.89,5.012 0,6.902"
   id="path980" />
    <path
   d="m 135.6596,121.0586 h -7.888 v 18.896 c 0,5.586 1.48,9.695 4.356,12.406 2.957,2.711 6.49,4.107 10.515,4.107 4.026,0 7.559,-1.396 10.517,-4.107 2.957,-2.711 4.437,-6.902 4.437,-12.406 v -18.896 h -7.888 v 18.896 c 0,5.833 -2.794,8.955 -7.066,8.955 -4.272,0 -6.983,-3.039 -6.983,-8.955 z"
   style="fill:#00499a"
   id="path982" />
    <path
   d="m 88.9692,135.6006 h 17.62 c 0,0 1.702,9.164 -4.967,16.021 -3.484,3.582 -7.723,5.257 -12.652,5.257 -5.013,0 -9.202,-1.724 -12.735,-5.257 -3.532,-3.534 -5.258,-7.723 -5.258,-12.653 0,-5.012 1.726,-9.201 5.258,-12.733 3.533,-3.451 7.722,-5.177 12.735,-5.177 4.929,0 9.119,1.726 12.652,5.177 1.679,1.678 2.937,3.511 3.808,5.506 h -9.087 c -0.077,-0.082 -0.145,-0.168 -0.226,-0.248 -1.889,-1.891 -4.272,-2.876 -7.147,-2.876 -2.876,0 -5.258,0.985 -7.23,2.876 -1.889,1.971 -2.875,4.435 -2.875,7.475 0,3.04 0.986,5.505 2.875,7.395 1.972,1.971 4.354,2.957 7.23,2.957 2.875,0 5.258,-0.986 7.147,-2.957 0.997,-0.955 1.757,-2.387 2.256,-3.698 h -9.404 z"
   style="fill:#00499a"
   id="path984" />
    <path
   d="m 181.7143,135.6006 h 17.62 c 0,0 1.701,9.164 -4.968,16.021 -3.483,3.582 -7.723,5.257 -12.652,5.257 -5.012,0 -9.201,-1.724 -12.734,-5.257 -3.533,-3.534 -5.258,-7.723 -5.258,-12.653 0,-5.012 1.725,-9.201 5.258,-12.733 3.533,-3.451 7.722,-5.177 12.734,-5.177 4.929,0 9.119,1.726 12.652,5.177 1.68,1.678 2.937,3.511 3.809,5.506 h -9.088 c -0.076,-0.082 -0.144,-0.168 -0.226,-0.248 -1.888,-1.891 -4.272,-2.876 -7.147,-2.876 -2.876,0 -5.258,0.985 -7.229,2.876 -1.89,1.971 -2.876,4.435 -2.876,7.475 0,3.04 0.986,5.505 2.876,7.395 1.971,1.971 4.353,2.957 7.229,2.957 2.875,0 5.259,-0.986 7.147,-2.957 0.998,-0.955 1.758,-2.387 2.256,-3.698 h -9.403 z"
   style="fill:#00499a"
   id="path986" />
    <path
   d="m 48.2368,97.086 c 0.869,0.869 1.529,1.521 1.98,1.955 0.452,0.435 0.759,0.818 0.921,1.15 0.162,0.333 0.243,0.763 0.243,1.291 0,0.938 -0.329,1.692 -0.985,2.263 -0.656,0.57 -1.376,0.857 -2.159,0.857 -0.853,0 -1.585,-0.307 -2.199,-0.921 -0.614,-0.614 -0.92,-1.346 -0.92,-2.199 0,-0.528 0.09,-0.966 0.268,-1.316 0.179,-0.35 0.495,-0.745 0.946,-1.188 0.452,-0.444 1.087,-1.074 1.905,-1.892 m 0,-19.965 c 0.681,0 1.265,0.081 1.751,0.243 0.485,0.161 0.983,0.443 1.495,0.844 0.512,0.399 1.112,0.954 1.802,1.661 0.69,0.707 1.581,1.614 2.672,2.723 l -7.72,7.72 c -1.125,-1.125 -2.046,-2.041 -2.761,-2.748 -0.716,-0.707 -1.265,-1.308 -1.649,-1.802 -0.384,-0.495 -0.652,-0.985 -0.805,-1.47 -0.153,-0.486 -0.23,-1.061 -0.23,-1.726 0,-1.04 0.251,-1.968 0.754,-2.787 0.503,-0.817 1.167,-1.465 1.994,-1.942 0.826,-0.478 1.725,-0.716 2.697,-0.716 m 0,-5.317 c -2.08,0 -3.934,0.503 -5.561,1.509 -1.627,1.004 -2.905,2.33 -3.834,3.974 -0.929,1.645 -1.393,3.421 -1.393,5.33 0,1.091 0.106,2.045 0.319,2.864 0.213,0.817 0.579,1.619 1.1,2.402 0.519,0.784 1.235,1.662 2.147,2.634 0.911,0.97 2.067,2.155 3.464,3.552 -0.784,0.801 -1.44,1.5 -1.969,2.097 -0.528,0.596 -0.945,1.154 -1.252,1.674 -0.307,0.519 -0.524,1.06 -0.652,1.623 -0.128,0.562 -0.191,1.202 -0.191,1.918 0,1.499 0.357,2.841 1.073,4.025 0.716,1.185 1.67,2.122 2.863,2.813 1.193,0.69 2.488,1.035 3.886,1.035 1.431,0 2.743,-0.354 3.937,-1.061 1.192,-0.708 2.142,-1.653 2.849,-2.837 0.707,-1.185 1.062,-2.51 1.062,-3.975 0,-0.733 -0.069,-1.385 -0.205,-1.956 -0.137,-0.571 -0.363,-1.121 -0.677,-1.649 -0.316,-0.528 -0.737,-1.086 -1.266,-1.674 -0.528,-0.588 -1.176,-1.266 -1.942,-2.033 l 7.72,-7.719 6.16,6.16 v -7.516 l -2.428,-2.428 6.364,-6.339 -3.757,-3.758 -6.339,6.314 c -1.415,-1.415 -2.613,-2.574 -3.592,-3.476 -0.981,-0.905 -1.863,-1.612 -2.646,-2.122 -0.784,-0.512 -1.581,-0.87 -2.39,-1.074 -0.81,-0.205 -1.76,-0.307 -2.85,-0.307"
   style="fill:#00499a"
   id="path988" />
  </g>
</svg>
