<?xml version="1.0" encoding="UTF-8" standalone="no"?>
<!-- Created with Inkscape (http://www.inkscape.org/) -->

<svg
   xmlns:dc="http://purl.org/dc/elements/1.1/"
   xmlns:cc="http://creativecommons.org/ns#"
   xmlns:rdf="http://www.w3.org/1999/02/22-rdf-syntax-ns#"
   xmlns:svg="http://www.w3.org/2000/svg"
   xmlns="http://www.w3.org/2000/svg"
   xmlns:sodipodi="http://sodipodi.sourceforge.net/DTD/sodipodi-0.dtd"
   xmlns:inkscape="http://www.inkscape.org/namespaces/inkscape"
   id="svg2"
   version="1.1"
   inkscape:version="0.91 r13725"
   xml:space="preserve"
   width="600"
   height="181.85001"
   viewBox="0 0 599.99999 181.85001"
   sodipodi:docname="Logo Seine Saint Denis.svg"><metadata
     id="metadata8"><rdf:RDF><cc:Work
         rdf:about=""><dc:format>image/svg+xml</dc:format><dc:type
           rdf:resource="http://purl.org/dc/dcmitype/StillImage" /><dc:title></dc:title></cc:Work></rdf:RDF></metadata><defs
     id="defs6"><clipPath
       clipPathUnits="userSpaceOnUse"
       id="clipPath18"><path
         d="m 0,0 461.528,0 0,637.276 L 0,637.276 0,0 Z"
         id="path20"
         inkscape:connector-curvature="0" /></clipPath><clipPath
       clipPathUnits="userSpaceOnUse"
       id="clipPath28"><path
         d="m 41.551,42.407 378.425,0 0,552.609 -378.425,0 0,-552.609 z"
         id="path30"
         inkscape:connector-curvature="0" /></clipPath><clipPath
       clipPathUnits="userSpaceOnUse"
       id="clipPath38"><path
         d="m 20.291,21 420.944,0 0,595.276 -420.944,0 0,-595.276 z"
         id="path40"
         inkscape:connector-curvature="0" /></clipPath><clipPath
       clipPathUnits="userSpaceOnUse"
       id="clipPath124"><path
         d="m 0,0 461.528,0 0,637.276 L 0,637.276 0,0 Z"
         id="path126"
         inkscape:connector-curvature="0" /></clipPath><clipPath
       clipPathUnits="userSpaceOnUse"
       id="clipPath152"><path
         d="m 20.291,21 420.944,0 0,595.276 -420.944,0 0,-595.276 z"
         id="path154"
         inkscape:connector-curvature="0" /></clipPath><clipPath
       clipPathUnits="userSpaceOnUse"
       id="clipPath190"><path
         d="m 51.473,551.578 110.588,0 0,33.517 -110.588,0 0,-33.517 z"
         id="path192"
         inkscape:connector-curvature="0" /></clipPath><clipPath
       clipPathUnits="userSpaceOnUse"
       id="clipPath266"><path
         d="m 20.291,21 420.944,0 0,595.276 -420.944,0 0,-595.276 z"
         id="path268"
         inkscape:connector-curvature="0" /></clipPath><clipPath
       clipPathUnits="userSpaceOnUse"
       id="clipPath288"><path
         d="m 0,0 461.528,0 0,637.276 L 0,637.276 0,0 Z"
         id="path290"
         inkscape:connector-curvature="0" /></clipPath><clipPath
       clipPathUnits="userSpaceOnUse"
       id="clipPath316"><path
         d="m 20.291,21 420.944,0 0,595.276 -420.944,0 0,-595.276 z"
         id="path318"
         inkscape:connector-curvature="0" /></clipPath><clipPath
       clipPathUnits="userSpaceOnUse"
       id="clipPath360"><path
         d="m 0,0 461.528,0 0,637.276 L 0,637.276 0,0 Z"
         id="path362"
         inkscape:connector-curvature="0" /></clipPath></defs><sodipodi:namedview
     pagecolor="#ffffff"
     bordercolor="#666666"
     borderopacity="1"
     objecttolerance="10"
     gridtolerance="10"
     guidetolerance="10"
     inkscape:pageopacity="0"
     inkscape:pageshadow="2"
     inkscape:window-width="1280"
     inkscape:window-height="691"
     id="namedview4"
     showgrid="false"
     inkscape:zoom="2.486252"
     inkscape:cx="72.027946"
     inkscape:cy="23.968687"
     inkscape:window-x="0"
     inkscape:window-y="1"
     inkscape:window-maximized="1"
     inkscape:current-layer="g10" /><g
     id="g10"
     inkscape:groupmode="layer"
     inkscape:label="Logo Seine Saint Denis"
     transform="matrix(1.25,0,0,-1.25,-60.612237,867.33775)"><g
       id="g186"
       transform="matrix(4.3405133,0,0,4.3405133,-174.92945,-1845.7414)"><g
         id="g188"
         clip-path="url(#clipPath190)"><path
           d="m 51.472,551.574 110.587,0 0,33.521 -110.587,0 0,-33.521 z"
           style="fill:#ffffff;fill-opacity:1;fill-rule:nonzero;stroke:none"
           id="path194"
           inkscape:connector-curvature="0" /><path
           d="m 61.9651,576.3514 -1.748,0 0,-2.74 1.748,0 c 0.969,0 1.748,-0.78 1.748,-1.748 l 0,-2.008 c 0,-1.44 -1.181,-2.622 -2.623,-2.622 -1.44,0 -2.622,1.182 -2.622,2.622 l 0,1.017 1.749,0 0,-1.748 1.748,0 0,2.739 -1.748,0 c -0.969,0 -1.749,0.779 -1.749,1.748 l 0,2.007 c 0,1.441 1.182,2.623 2.622,2.623 1.442,0 2.623,-1.182 2.623,-2.623 l 0,-1.015 -1.748,0 0,1.748 z"
           style="fill:#173a79;fill-opacity:1;fill-rule:nonzero;stroke:none"
           id="path196"
           inkscape:connector-curvature="0" /><path
           d="m 73.9908,567.2331 c -0.472,0.023 -0.898,0.213 -1.228,0.519 -0.332,0.308 -0.521,0.757 -0.521,1.229 l 0,5.622 1.749,0 0,-7.37 z"
           style="fill:#173a79;fill-opacity:1;fill-rule:nonzero;stroke:none"
           id="path198"
           inkscape:connector-curvature="0" /><path
           d="m 75.7393,578.0994 3.495,0 c 0.969,0 1.749,-0.78 1.749,-1.748 l 0,-8.977 -1.749,0 0,8.977 -1.747,0 0,-8.977 -1.748,0 0,10.725 z"
           style="fill:#173a79;fill-opacity:1;fill-rule:nonzero;stroke:none"
           id="path200"
           inkscape:connector-curvature="0" /><path
           d="m 84.479,573.611 1.749,0 0,2.74 -1.749,0 0,-2.74 z m -1.747,2.007 c 0,1.442 1.18,2.623 2.622,2.623 1.442,0 2.623,-1.181 2.623,-2.623 l 0,-3.755 -3.498,0 0,-2.739 1.75,0 0,1.749 1.748,0 0,-1.017 c 0,-1.441 -1.181,-2.623 -2.623,-2.623 -1.442,0 -2.622,1.182 -2.622,2.623 l 0,5.762 z"
           style="fill:#173a79;fill-opacity:1;fill-rule:nonzero;stroke:none"
           id="path202"
           inkscape:connector-curvature="0" /><path
           d="m 96.8183,576.3514 -1.747,0 0,-2.74 1.747,0 c 0.969,0 1.748,-0.78 1.748,-1.748 l 0,-2.008 c 0,-1.44 -1.181,-2.622 -2.623,-2.622 -1.44,0 -2.622,1.182 -2.622,2.622 l 0,1.017 1.75,0 0,-1.748 1.747,0 0,2.739 -1.747,0 c -0.969,0 -1.75,0.779 -1.75,1.748 l 0,2.007 c 0,1.441 1.182,2.623 2.622,2.623 1.442,0 2.623,-1.182 2.623,-2.623 l 0,-1.015 -1.748,0 0,1.748 z"
           style="fill:#173a79;fill-opacity:1;fill-rule:nonzero;stroke:none"
           id="path204"
           inkscape:connector-curvature="0" /><path
           d="m 101.851,569.124 1.749,0 0,3.73 -1.749,0 0,-3.73 z m 3.496,-1.678 -3.496,-0.072 c -0.968,0 -1.749,0.78 -1.749,1.75 l 0,3.73 c 0,0.969 0.781,1.749 1.749,1.749 l 1.749,0 0,1.748 -3.119,0 0,1.748 3.119,0 c 0.968,0 1.747,-0.78 1.747,-1.677 l 0,-8.976 z"
           style="fill:#173a79;fill-opacity:1;fill-rule:nonzero;stroke:none"
           id="path206"
           inkscape:connector-curvature="0" /><path
           d="m 108.844,567.2331 c -0.472,0.023 -0.898,0.213 -1.229,0.519 -0.331,0.308 -0.52,0.757 -0.52,1.229 l 0,5.622 1.749,0 0,-7.37 z"
           style="fill:#173a79;fill-opacity:1;fill-rule:nonzero;stroke:none"
           id="path208"
           inkscape:connector-curvature="0" /><path
           d="m 110.5924,578.0994 3.496,0 c 0.969,0 1.749,-0.78 1.749,-1.748 l 0,-8.977 -1.749,0 0,8.977 -1.748,0 0,-8.977 -1.748,0 0,10.725 z"
           style="fill:#173a79;fill-opacity:1;fill-rule:nonzero;stroke:none"
           id="path210"
           inkscape:connector-curvature="0" /><path
           d="m 127.3,569.124 1.747,0 0,7.227 -1.747,0 0,-7.227 z m -1.749,8.975 3.497,0 c 0.969,0 1.747,-0.78 1.747,-1.748 l 0,-7.227 c 0,-0.97 -0.778,-1.75 -1.747,-1.75 l -3.497,0 0,10.725 z"
           style="fill:#173a79;fill-opacity:1;fill-rule:nonzero;stroke:none"
           id="path212"
           inkscape:connector-curvature="0" /><path
           d="m 134.293,573.611 1.748,0 0,2.74 -1.748,0 0,-2.74 z m -1.748,2.007 c 0,1.442 1.18,2.623 2.621,2.623 1.441,0 2.623,-1.181 2.623,-2.623 l 0,-3.755 -3.496,0 0,-2.739 1.748,0 0,1.749 1.748,0 0,-1.017 c 0,-1.441 -1.182,-2.623 -2.623,-2.623 -1.441,0 -2.621,1.182 -2.621,2.623 l 0,5.762 z"
           style="fill:#173a79;fill-opacity:1;fill-rule:nonzero;stroke:none"
           id="path214"
           inkscape:connector-curvature="0" /><path
           d="m 139.5365,578.0994 3.497,0 c 0.969,0 1.747,-0.78 1.747,-1.748 l 0,-8.977 -1.747,0 0,8.977 -1.747,0 0,-8.977 -1.75,0 0,10.725 z"
           style="fill:#173a79;fill-opacity:1;fill-rule:nonzero;stroke:none"
           id="path216"
           inkscape:connector-curvature="0" /><path
           d="m 148.2785,567.2331 c -0.473,0.023 -0.898,0.213 -1.228,0.519 -0.331,0.308 -0.52,0.757 -0.52,1.229 l 0,5.622 1.748,0 0,-7.37 z"
           style="fill:#173a79;fill-opacity:1;fill-rule:nonzero;stroke:none"
           id="path218"
           inkscape:connector-curvature="0" /><path
           d="m 153.3098,576.3514 -1.748,0 0,-2.74 1.748,0 c 0.969,0 1.75,-0.78 1.75,-1.748 l 0,-2.008 c 0,-1.44 -1.182,-2.622 -2.623,-2.622 -1.442,0 -2.623,1.182 -2.623,2.622 l 0,1.017 1.748,0 0,-1.748 1.748,0 0,2.739 -1.748,0 c -0.968,0 -1.748,0.779 -1.748,1.748 l 0,2.007 c 0,1.441 1.181,2.623 2.623,2.623 1.441,0 2.623,-1.182 2.623,-2.623 l 0,-1.015 -1.75,0 0,1.748 z"
           style="fill:#173a79;fill-opacity:1;fill-rule:nonzero;stroke:none"
           id="path220"
           inkscape:connector-curvature="0" /><path
           d="m 116.9236,578.0994 0,-1.748 1.71,0 0,-8.977 1.747,0 0,8.977 1.75,0 0,1.748 -5.207,0 z"
           style="fill:#173a79;fill-opacity:1;fill-rule:nonzero;stroke:none"
           id="path222"
           inkscape:connector-curvature="0" /><path
           d="m 66.997,573.611 1.749,0 0,2.74 -1.749,0 0,-2.74 z m -1.748,2.007 c 0,1.442 1.181,2.623 2.622,2.623 1.442,0 2.623,-1.181 2.623,-2.623 l 0,-3.755 -3.497,0 0,-2.739 1.748,0 0,1.749 1.749,0 0,-1.017 c 0,-1.441 -1.181,-2.623 -2.623,-2.623 -1.441,0 -2.622,1.182 -2.622,2.623 l 0,5.762 z"
           style="fill:#173a79;fill-opacity:1;fill-rule:nonzero;stroke:none"
           id="path224"
           inkscape:connector-curvature="0" /><path
           d="m 72.242,576.351 1.749,0 0,1.748 -1.749,0 0,-1.748 z"
           style="fill:#f5970f;fill-opacity:1;fill-rule:nonzero;stroke:none"
           id="path226"
           inkscape:connector-curvature="0" /><path
           d="m 107.095,576.351 1.749,0 0,1.748 -1.749,0 0,-1.748 z"
           style="fill:#b5dc17;fill-opacity:1;fill-rule:nonzero;stroke:none"
           id="path228"
           inkscape:connector-curvature="0" /><path
           d="m 146.531,576.351 1.748,0 0,1.748 -1.748,0 0,-1.748 z"
           style="fill:#ee2722;fill-opacity:1;fill-rule:nonzero;stroke:none"
           id="path230"
           inkscape:connector-curvature="0" /><path
           d="m 122.028,571.863 1.748,0 0,1.749 -1.748,0 0,-1.749 z"
           style="fill:#40c1e6;fill-opacity:1;fill-rule:nonzero;stroke:none"
           id="path232"
           inkscape:connector-curvature="0" /><path
           d="m 89.912,571.863 1.748,0 0,1.749 -1.748,0 0,-1.749 z"
           style="fill:#9845a8;fill-opacity:1;fill-rule:nonzero;stroke:none"
           id="path234"
           inkscape:connector-curvature="0" /><path
           d="m 78.2689,563.8766 0.735,0 0,-4.687 1.235,0 0,-0.617 -1.97,0 0,5.304 z"
           style="fill:#aeacac;fill-opacity:1;fill-rule:nonzero;stroke:none"
           id="path236"
           inkscape:connector-curvature="0" /><path
           d="m 82.1706,563.8766 1.999,0 0,-0.617 -1.265,0 0,-1.661 1.191,0 0,-0.617 -1.191,0 0,-1.792 1.265,0 0,-0.617 -1.999,0 0,5.304 z"
           style="fill:#aeacac;fill-opacity:1;fill-rule:nonzero;stroke:none"
           id="path238"
           inkscape:connector-curvature="0" /><path
           d="m 89.7605,559.1898 0.353,0 c 0.544,0 0.646,0.285 0.646,1.197 l 0,1.823 c 0,0.786 -0.081,1.05 -0.705,1.05 l -0.294,0 0,-4.07 z m -0.735,4.687 1.183,0 c 1.19,0 1.286,-0.396 1.286,-1.94 l 0,-1.579 c 0,-1.359 -0.242,-1.786 -1.403,-1.786 l -1.066,0 0,5.305 z"
           style="fill:#aeacac;fill-opacity:1;fill-rule:nonzero;stroke:none"
           id="path240"
           inkscape:connector-curvature="0" /><path
           d="m 94.7274,565.3096 0.735,0 -0.801,-1.065 -0.441,0 0.507,1.065 z m -1.124,-1.433 1.998,0 0,-0.617 -1.263,0 0,-1.661 1.19,0 0,-0.617 -1.19,0 0,-1.792 1.263,0 0,-0.617 -1.998,0 0,5.304 z"
           style="fill:#aeacac;fill-opacity:1;fill-rule:nonzero;stroke:none"
           id="path242"
           inkscape:connector-curvature="0" /><path
           d="m 98.2394,561.4962 0.382,0 c 0.5,0 0.551,0.081 0.551,0.882 0,0.801 -0.051,0.882 -0.551,0.882 l -0.382,0 0,-1.764 z m -0.735,2.38 1.213,0 c 0.999,0 1.19,-0.271 1.19,-1.498 0,-1.228 -0.191,-1.5 -1.19,-1.5 l -0.478,0 0,-2.306 -0.735,0 0,5.304 z"
           style="fill:#aeacac;fill-opacity:1;fill-rule:nonzero;stroke:none"
           id="path244"
           inkscape:connector-curvature="0" /><path
           d="m 102.3027,560.5414 0.933,0 -0.455,2.557 -0.016,0 -0.462,-2.557 z m 0.081,3.335 0.852,0 1.08,-5.304 -0.735,0 -0.242,1.351 -1.147,0 -0.242,-1.351 -0.734,0 1.168,5.304 z"
           style="fill:#aeacac;fill-opacity:1;fill-rule:nonzero;stroke:none"
           id="path246"
           inkscape:connector-curvature="0" /><path
           d="m 106.9899,561.4962 0.191,0 c 0.581,0 0.661,0.11 0.661,0.904 0,0.786 -0.044,0.86 -0.5,0.86 l -0.352,0 0,-1.764 z m -0.735,2.38 1.139,0 c 1.073,0 1.183,-0.286 1.183,-1.447 0,-0.712 -0.095,-1.021 -0.698,-1.205 l 0,-0.015 c 0.499,-0.051 0.67,-0.308 0.67,-0.807 l 0,-1.154 c 0,-0.191 0,-0.455 0.042,-0.676 l -0.689,0 c -0.074,0.132 -0.089,0.264 -0.089,0.477 l 0,1.197 c 0,0.5 -0.087,0.632 -0.573,0.632 l -0.25,0 0,-2.306 -0.735,0 0,5.304 z"
           style="fill:#aeacac;fill-opacity:1;fill-rule:nonzero;stroke:none"
           id="path248"
           inkscape:connector-curvature="0" /><path
           d="m 110.2007,563.8766 2.499,0 0,-0.617 -0.882,0 0,-4.687 -0.734,0 0,4.687 -0.883,0 0,0.617 z"
           style="fill:#aeacac;fill-opacity:1;fill-rule:nonzero;stroke:none"
           id="path250"
           inkscape:connector-curvature="0" /><path
           d="m 114.6031,563.8766 1.999,0 0,-0.617 -1.264,0 0,-1.661 1.19,0 0,-0.617 -1.19,0 0,-1.792 1.264,0 0,-0.617 -1.999,0 0,5.304 z"
           style="fill:#aeacac;fill-opacity:1;fill-rule:nonzero;stroke:none"
           id="path252"
           inkscape:connector-curvature="0" /><path
           d="m 118.5043,563.8766 1.168,0 0.676,-4.041 0.015,0 0.676,4.041 1.139,0 0,-5.304 -0.691,0 0,4.775 -0.015,0 -0.749,-4.775 -0.734,0 -0.824,4.775 -0.015,0 0,-4.775 -0.646,0 0,5.304 z"
           style="fill:#aeacac;fill-opacity:1;fill-rule:nonzero;stroke:none"
           id="path254"
           inkscape:connector-curvature="0" /><path
           d="m 124.3089,563.8766 1.999,0 0,-0.617 -1.264,0 0,-1.661 1.191,0 0,-0.617 -1.191,0 0,-1.792 1.264,0 0,-0.617 -1.999,0 0,5.304 z"
           style="fill:#aeacac;fill-opacity:1;fill-rule:nonzero;stroke:none"
           id="path256"
           inkscape:connector-curvature="0" /><path
           d="m 128.2101,563.8766 1.014,0 0.867,-4.409 0.015,0 0,4.409 0.69,0 0,-5.304 -1.057,0 -0.868,4.525 -0.014,0 0,-4.525 -0.647,0 0,5.304 z"
           style="fill:#aeacac;fill-opacity:1;fill-rule:nonzero;stroke:none"
           id="path258"
           inkscape:connector-curvature="0" /><path
           d="m 132.6993,563.8766 2.498,0 0,-0.617 -0.881,0 0,-4.687 -0.735,0 0,4.687 -0.882,0 0,0.617 z"
           style="fill:#aeacac;fill-opacity:1;fill-rule:nonzero;stroke:none"
           id="path260"
           inkscape:connector-curvature="0" /></g></g></g></svg>