<?xml version="1.0" encoding="UTF-8" standalone="no"?>
<!-- Created with Inkscape (http://www.inkscape.org/) -->

<svg
   xmlns:dc="http://purl.org/dc/elements/1.1/"
   xmlns:cc="http://creativecommons.org/ns#"
   xmlns:rdf="http://www.w3.org/1999/02/22-rdf-syntax-ns#"
   xmlns:svg="http://www.w3.org/2000/svg"
   xmlns="http://www.w3.org/2000/svg"
   xmlns:sodipodi="http://sodipodi.sourceforge.net/DTD/sodipodi-0.dtd"
   xmlns:inkscape="http://www.inkscape.org/namespaces/inkscape"
   id="svg2"
   version="1.1"
   inkscape:version="0.91 r13725"
   xml:space="preserve"
   width="800"
   height="265"
   viewBox="0 0 800 265"
   sodipodi:docname="Logo Vaucluse.svg"><metadata
     id="metadata8"><rdf:RDF><cc:Work
         rdf:about=""><dc:format>image/svg+xml</dc:format><dc:type
           rdf:resource="http://purl.org/dc/dcmitype/StillImage" /><dc:title></dc:title></cc:Work></rdf:RDF></metadata><defs
     id="defs6" /><sodipodi:namedview
     pagecolor="#ffffff"
     bordercolor="#666666"
     borderopacity="1"
     objecttolerance="10"
     gridtolerance="10"
     guidetolerance="10"
     inkscape:pageopacity="0"
     inkscape:pageshadow="2"
     inkscape:window-width="1440"
     inkscape:window-height="790"
     id="namedview4"
     showgrid="false"
     inkscape:zoom="1.3700779"
     inkscape:cx="241.25865"
     inkscape:cy="135.59463"
     inkscape:window-x="0"
     inkscape:window-y="1"
     inkscape:window-maximized="1"
     inkscape:current-layer="g10" /><g
     id="g10"
     inkscape:groupmode="layer"
     inkscape:label="Logo"
     transform="matrix(1.25,0,0,-1.25,0,265.00002)"><path
       d="m 3.78869e-5,2.4e-5 213.4239921131,0 0,211.999996 -213.4239921131,0 0,-211.999996 z"
       style="fill:#008bd2;fill-opacity:1;fill-rule:nonzero;stroke:none"
       id="path344"
       inkscape:connector-curvature="0" /><path
       d="m 213.16055,2.4e-5 426.83949,0 0,211.999996 -426.83949,0 0,-211.999996 z"
       style="fill:#fbba00;fill-opacity:1;fill-rule:nonzero;stroke:none"
       id="path346"
       inkscape:connector-curvature="0" /><g
       id="g5441"
       transform="matrix(8.4992231,0,0,8.4793216,-2618.6021,-1927.1887)"><path
         inkscape:connector-curvature="0"
         id="path356"
         style="fill:#008bd2;fill-opacity:1;fill-rule:nonzero;stroke:none"
         d="m 338.5896,247.5246 0.695,0 c 1.009,0 1.581,-0.613 1.581,-1.601 0,-1.329 -0.593,-1.888 -1.69,-1.888 l -0.586,0 0,3.489 z m -0.961,0.641 0,-4.77 1.561,0 c 1.69,0 2.698,0.947 2.698,2.521 0,1.151 -0.668,2.249 -2.61,2.249 l -1.649,0 z" /><path
         inkscape:connector-curvature="0"
         id="path358"
         style="fill:#008bd2;fill-opacity:1;fill-rule:nonzero;stroke:none"
         d="m 343.4687,245.5076 c -0.007,0.457 0.225,0.872 0.743,0.872 0.45,0 0.633,-0.354 0.599,-0.872 l -1.342,0 z m 0.313,1.785 1.132,0.757 c 0.136,0.088 0.265,0.197 0.265,0.361 0,0.068 -0.081,0.232 -0.231,0.232 -0.158,0 -0.286,-0.089 -0.41,-0.198 l -1.008,-0.879 0.252,-0.273 z m 1.881,-2.276 c 0.068,1.016 -0.375,1.867 -1.438,1.867 -0.974,0 -1.737,-0.667 -1.737,-1.717 0,-1.124 0.77,-1.853 1.798,-1.853 0.389,0 0.873,0.109 1.336,0.382 l -0.259,0.476 c -0.225,-0.156 -0.579,-0.272 -0.913,-0.272 -0.565,0 -1.015,0.477 -0.995,1.117 l 2.208,0 z" /><path
         inkscape:connector-curvature="0"
         id="path360"
         style="fill:#008bd2;fill-opacity:1;fill-rule:nonzero;stroke:none"
         d="m 348.204,246.339 c 0.518,0 0.777,-0.586 0.777,-1.172 0,-0.6 -0.205,-1.308 -0.811,-1.308 -0.49,0 -0.838,0.484 -0.838,1.199 0,0.783 0.3,1.281 0.872,1.281 m -0.872,0.463 -0.906,0 0,-5.11 0.906,0 0,2.126 c 0.252,-0.3 0.607,-0.505 1.023,-0.505 0.974,0 1.587,0.961 1.587,1.861 0,0.749 -0.437,1.71 -1.506,1.71 -0.409,0 -0.852,-0.204 -1.091,-0.552 l -0.013,0 0,0.47 z" /><path
         inkscape:connector-curvature="0"
         id="path362"
         style="fill:#008bd2;fill-opacity:1;fill-rule:nonzero;stroke:none"
         d="m 352.5922,245.3713 c 0.068,-1.002 -0.402,-1.451 -0.763,-1.451 -0.218,0 -0.409,0.204 -0.409,0.504 0,0.388 0.225,0.647 0.668,0.784 l 0.504,0.163 z m -0.013,-1.479 c 0,-0.184 0.021,-0.381 0.088,-0.497 l 0.961,0 c -0.109,0.238 -0.143,0.559 -0.143,0.831 l 0,1.39 c 0,1.063 -0.77,1.268 -1.397,1.268 -0.47,0 -0.885,-0.116 -1.308,-0.464 l 0.293,-0.429 c 0.238,0.205 0.511,0.348 0.899,0.348 0.293,0 0.573,-0.198 0.62,-0.512 l -0.804,-0.238 c -0.79,-0.225 -1.26,-0.593 -1.26,-1.24 0,-0.627 0.442,-1.036 0.974,-1.036 0.314,0 0.62,0.211 0.872,0.409 l 0.205,0.17 z" /><path
         inkscape:connector-curvature="0"
         id="path364"
         style="fill:#008bd2;fill-opacity:1;fill-rule:nonzero;stroke:none"
         d="m 355.2839,246.2027 0.013,0 0.185,0.266 c 0.109,0.143 0.306,0.415 0.586,0.415 0.204,0 0.422,-0.109 0.613,-0.306 l -0.34,-0.627 c -0.15,0.075 -0.246,0.116 -0.43,0.116 -0.313,0 -0.619,-0.252 -0.619,-0.988 l 0,-1.684 -0.907,0 0,3.408 0.899,0 0,-0.6 z" /><path
         inkscape:connector-curvature="0"
         id="path366"
         style="fill:#008bd2;fill-opacity:1;fill-rule:nonzero;stroke:none"
         d="m 358.2068,246.8024 0.893,0 0,-0.463 -0.893,0 0,-1.677 c 0,-0.559 0.171,-0.797 0.471,-0.797 0.197,0 0.313,0.054 0.436,0.116 l 0.156,-0.45 c -0.265,-0.143 -0.592,-0.218 -0.892,-0.218 -0.75,0 -1.077,0.395 -1.077,1.09 l 0,1.936 -0.477,0 0,0.463 0.477,0 0,0.818 0.906,0.204 0,-1.022 z" /><path
         inkscape:connector-curvature="0"
         id="path368"
         style="fill:#008bd2;fill-opacity:1;fill-rule:nonzero;stroke:none"
         d="m 360.5989,245.5076 c -0.007,0.457 0.225,0.872 0.743,0.872 0.449,0 0.633,-0.354 0.599,-0.872 l -1.342,0 z m 2.194,-0.491 c 0.068,1.016 -0.374,1.867 -1.438,1.867 -0.974,0 -1.737,-0.667 -1.737,-1.717 0,-1.124 0.77,-1.853 1.799,-1.853 0.388,0 0.872,0.109 1.335,0.382 l -0.258,0.476 c -0.226,-0.156 -0.58,-0.272 -0.914,-0.272 -0.565,0 -1.015,0.477 -0.994,1.117 l 2.207,0 z" /><path
         inkscape:connector-curvature="0"
         id="path370"
         style="fill:#008bd2;fill-opacity:1;fill-rule:nonzero;stroke:none"
         d="m 364.4563,246.4001 0.013,0 c 0.232,0.307 0.674,0.484 1.077,0.484 0.429,0 0.797,-0.17 1.002,-0.484 0.286,0.273 0.729,0.477 1.13,0.484 0.771,0.007 1.173,-0.463 1.186,-1.247 l 0,-2.235 -0.906,0 0,2.072 c 0,0.395 -0.136,0.803 -0.587,0.803 -0.436,0 -0.708,-0.258 -0.708,-0.851 l 0,-2.031 -0.906,0 0,2.079 c 0,0.476 -0.211,0.803 -0.6,0.803 -0.429,0 -0.695,-0.293 -0.695,-0.872 l 0,-2.01 -0.906,0 0,3.407 0.9,0 0,-0.402 z" /><path
         inkscape:connector-curvature="0"
         id="path372"
         style="fill:#008bd2;fill-opacity:1;fill-rule:nonzero;stroke:none"
         d="m 370.6026,245.5076 c -0.008,0.457 0.225,0.872 0.742,0.872 0.45,0 0.634,-0.354 0.6,-0.872 l -1.342,0 z m 2.194,-0.491 c 0.067,1.016 -0.375,1.867 -1.438,1.867 -0.975,0 -1.738,-0.667 -1.738,-1.717 0,-1.124 0.77,-1.853 1.799,-1.853 0.389,0 0.872,0.109 1.335,0.382 l -0.258,0.476 c -0.225,-0.156 -0.579,-0.272 -0.913,-0.272 -0.566,0 -1.015,0.477 -0.995,1.117 l 2.208,0 z" /><path
         inkscape:connector-curvature="0"
         id="path374"
         style="fill:#008bd2;fill-opacity:1;fill-rule:nonzero;stroke:none"
         d="m 374.4591,246.4001 c 0.306,0.327 0.736,0.484 1.165,0.484 0.798,0 1.22,-0.436 1.22,-1.295 l 0,-2.194 -0.906,0 0,2.092 c 0,0.477 -0.212,0.79 -0.682,0.79 -0.443,0 -0.79,-0.293 -0.79,-0.851 l 0,-2.031 -0.906,0 0,3.407 0.899,0 0,-0.402 z" /><path
         inkscape:connector-curvature="0"
         id="path376"
         style="fill:#008bd2;fill-opacity:1;fill-rule:nonzero;stroke:none"
         d="m 378.8606,246.8024 0.893,0 0,-0.463 -0.893,0 0,-1.677 c 0,-0.559 0.171,-0.797 0.471,-0.797 0.197,0 0.313,0.054 0.436,0.116 l 0.156,-0.45 c -0.265,-0.143 -0.592,-0.218 -0.892,-0.218 -0.75,0 -1.077,0.395 -1.077,1.09 l 0,1.936 -0.477,0 0,0.463 0.477,0 0,0.818 0.906,0.204 0,-1.022 z" /></g><g
       id="g5464"
       transform="matrix(8.4992231,0,0,8.4793216,-2618.6021,-1927.1887)"><path
         inkscape:connector-curvature="0"
         id="path378"
         style="fill:#fbba00;fill-opacity:1;fill-rule:nonzero;stroke:none"
         d="m 331.3415,241.1227 c 0.409,0 0.618,-0.414 0.618,-0.858 0,-0.512 -0.194,-1.002 -0.649,-1.002 -0.393,0 -0.587,0.48 -0.587,0.976 0,0.496 0.178,0.884 0.618,0.884 m 0.618,-2.208 0.68,0 0,3.757 -0.68,0 0,-1.498 -0.01,0 c -0.153,0.225 -0.45,0.358 -0.782,0.358 -0.684,0 -1.165,-0.644 -1.165,-1.308 0,-0.818 0.445,-1.37 1.114,-1.37 0.399,0 0.665,0.214 0.833,0.429 l 0.01,0 0,-0.368 z" /><path
         inkscape:connector-curvature="0"
         id="path380"
         style="fill:#008bd2;fill-opacity:1;fill-rule:nonzero;stroke:none"
         d="m 334.4385,240.4993 c -0.005,0.342 0.169,0.654 0.557,0.654 0.337,0 0.475,-0.266 0.45,-0.654 l -1.007,0 z m 1.646,-0.368 c 0.051,0.762 -0.281,1.4 -1.079,1.4 -0.73,0 -1.303,-0.501 -1.303,-1.288 0,-0.843 0.577,-1.39 1.349,-1.39 0.291,0 0.654,0.082 1.002,0.286 l -0.194,0.358 c -0.169,-0.117 -0.435,-0.204 -0.685,-0.204 -0.424,0 -0.762,0.358 -0.746,0.838 l 1.656,0 z" /></g><g
       id="g5454"
       transform="matrix(8.4992231,0,0,8.4793216,-2618.6021,-1927.1887)"><path
         inkscape:connector-curvature="0"
         id="path382"
         style="fill:#008bd2;fill-opacity:1;fill-rule:nonzero;stroke:none"
         d="m 339.8851,231.8109 -2.215,5.878 1.278,0.17 c 0.528,-1.517 1.048,-3.033 1.567,-4.753 l 0.017,0 c 0.546,1.72 1.099,3.236 1.653,4.753 l 1.03,-0.17 -2.351,-5.878 -0.979,0 z" /><path
         inkscape:connector-curvature="0"
         id="path384"
         style="fill:#008bd2;fill-opacity:1;fill-rule:nonzero;stroke:none"
         d="m 344.7918,234.1706 c 0.281,0.784 0.562,1.508 0.809,2.427 l 0.017,0 c 0.281,-0.919 0.537,-1.643 0.792,-2.427 l -1.618,0 z m 0.46,3.603 -2.428,-5.963 1.039,0 0.614,1.627 2.112,0 0.553,-1.627 1.347,0 -2.241,5.963 -0.996,0 z" /><path
         inkscape:connector-curvature="0"
         id="path386"
         style="fill:#008bd2;fill-opacity:1;fill-rule:nonzero;stroke:none"
         d="m 350.3873,237.7733 0,-3.424 c 0,-1.167 0.341,-1.806 1.296,-1.806 0.911,0 1.277,0.775 1.277,1.738 l 0,3.492 1.073,0 0,-3.705 c 0,-1.508 -0.971,-2.36 -2.385,-2.36 -1.619,0 -2.462,0.792 -2.462,2.419 l 0,3.646 1.201,0 z" /><path
         inkscape:connector-curvature="0"
         id="path388"
         style="fill:#008bd2;fill-opacity:1;fill-rule:nonzero;stroke:none"
         d="m 359.7062,236.6917 c -0.29,0.153 -0.775,0.332 -1.236,0.332 -1.226,0 -2.111,-0.86 -2.111,-2.214 0,-1.415 0.979,-2.249 2.146,-2.249 0.46,0 0.886,0.128 1.201,0.298 l 0.332,-0.741 c -0.366,-0.213 -1.005,-0.409 -1.584,-0.409 -2.07,0 -3.373,1.363 -3.373,3.118 0,1.626 1.294,3.049 3.389,3.049 0.623,0 1.202,-0.221 1.61,-0.46 l -0.374,-0.724 z" /><path
         inkscape:connector-curvature="0"
         id="path390"
         style="fill:#008bd2;fill-opacity:1;fill-rule:nonzero;stroke:none"
         d="m 361.1456,237.7733 1.201,0 0,-5.162 2.368,0 0,-0.8 -3.569,0 0,5.962 z" /><path
         inkscape:connector-curvature="0"
         id="path392"
         style="fill:#008bd2;fill-opacity:1;fill-rule:nonzero;stroke:none"
         d="m 366.7502,237.7733 0,-3.424 c 0,-1.167 0.34,-1.806 1.295,-1.806 0.911,0 1.277,0.775 1.277,1.738 l 0,3.492 1.073,0 0,-3.705 c 0,-1.508 -0.971,-2.36 -2.384,-2.36 -1.619,0 -2.462,0.792 -2.462,2.419 l 0,3.646 1.201,0 z" /><path
         inkscape:connector-curvature="0"
         id="path394"
         style="fill:#008bd2;fill-opacity:1;fill-rule:nonzero;stroke:none"
         d="m 374.7312,236.7341 c -0.265,0.179 -0.613,0.341 -0.963,0.341 -0.502,0 -0.775,-0.281 -0.775,-0.631 0,-0.391 0.418,-0.689 1.116,-1.243 0.801,-0.639 1.227,-1.141 1.227,-1.874 0,-0.75 -0.716,-1.619 -2.062,-1.619 -0.621,0 -1.311,0.188 -1.755,0.597 l 0.435,0.682 c 0.315,-0.231 0.681,-0.478 1.218,-0.478 0.494,0 0.928,0.265 0.928,0.827 0,0.656 -0.8,1.09 -1.277,1.464 -0.579,0.469 -1.065,0.835 -1.065,1.627 0,0.801 0.81,1.449 1.891,1.449 0.682,0 1.227,-0.248 1.508,-0.52 l -0.426,-0.622 z" /><path
         inkscape:connector-curvature="0"
         id="path396"
         style="fill:#008bd2;fill-opacity:1;fill-rule:nonzero;stroke:none"
         d="m 379.7309,236.9729 -2.002,0 0,-1.636 1.96,0 0,-0.8 -1.96,0 0,-1.925 2.368,0 0,-0.801 -3.569,0 0,5.962 3.203,0 0,-0.8 z" /></g><path
       style="fill:#ffffff;fill-opacity:1;fill-rule:nonzero;stroke:none"
       d="m 197.86718,211.70521 c -1.95481,-0.97512 -11.10412,0.50207 -4.38124,-2.8219 -0.5018,-1.0939 0.27718,-2.8569 -1.44844,-3.17912 0.38349,-0.4606 -0.31316,-1.2074 -0.49063,-1.85474 l -0.87656,0.68948 c 0,0.31341 -0.11947,0.75408 0.23751,0.94063 -1.12191,0.44092 -2.35325,1.51575 -3.0672,2.39761 1.0624,1.57715 2.585,1.70621 1.93907,3.65646 -1.70835,-0.061 -3.52951,0.18239 -5.05938,-0.31823 -0.88392,-1.95025 1.06142,-1.5067 0.82344,-3.33823 -0.17882,-0.50062 -0.75865,-0.1907 -1.11562,-0.31823 -1.0624,0.12753 -2.00626,1.32845 -2.00626,2.46468 -1.11333,1.69586 -2.12377,-0.5733 -3.06718,-0.95468 0.52695,-0.37307 0.52562,-0.94188 0.82344,-1.51 1.35137,-0.18655 1.88471,-1.76615 2.82812,-2.71582 0,-0.69532 0.12228,-1.44666 -0.58281,-1.82823 -1.47038,0.25438 -3.53735,1.07112 -3.94531,-0.8876 1.64885,0.31339 1.40781,-1.56711 1.40781,-2.70334 1.76783,-4.40925 1.68746,0.49145 3.93124,-0.33071 1.12191,-0.44093 0.50865,-3.44173 1.03595,-3.88265 1.0624,-0.75465 1.16969,-0.37868 2.58905,-0.25115 0.0476,-1.00904 0.25722,-3.7755 0.78438,-4.41146 0.47596,-1.19558 1.18904,-1.30454 2.31094,-0.67701 -1.76784,0.19469 0.0201,3.24578 -0.15937,4.06828 1.12189,0.68683 0.99551,3.58812 3.12031,3.02001 0.4678,1.32278 -0.34931,3.15219 1.12969,3.97468 l -0.30626,0.31823 -3.12031,-2.76886 c -1.1219,0.88184 -2.59007,1.88028 -2.82812,3.64398 0.91158,0.75398 2.08027,1.66907 3.13281,1.53652 -0.0204,-0.33714 0.10949,-0.64977 0.82344,-0.83455 2.50727,0.88185 3.19724,-3.08117 5.12656,-1.65665 l -0.43907,0.26519 c 0.4848,0.49181 0.53192,1.55812 1.475,1.40549 -1.47862,2.80621 0.088,5.80141 -0.625,8.86192 z m 3.62657,-0.58185 c -0.87223,0.0475 -1.60885,-0.1193 -1.74062,-0.86107 1.95481,-1.79761 -1.64896,-2.7446 -1.275,-4.58462 1.20689,-0.8988 1.69608,-2.5381 2.53749,-3.80153 2.3288,-1.53475 3.96495,1.3143 6.08125,0 -0.11014,0.15263 -0.32477,0.25748 -0.26562,0.52881 0.26314,0.15263 0.37198,0.62997 0.79688,0.47734 0.21213,1.21254 1.11563,2.31905 0.47812,3.59094 l -1.00938,-1.53808 c -0.42496,-0.21164 -0.63513,0.32421 -1.00937,0.26519 -0.95191,-0.47484 0.0618,-2.00199 -1.26094,-2.05286 -0.21214,0.26251 -0.63324,0.35728 -0.53125,0.78152 l -0.74375,-0.26519 c -1.11338,0.42397 -2.26814,2.02177 -1.79218,3.2852 1.00291,1.00055 2.15436,0.20183 3.31875,0.25271 l -1.52657,2.80786 1.275,0.46486 c -0.15298,0.31339 -0.53312,0.26519 -0.79687,0.26519 -0.66295,0.0807 -1.66372,0.3376 -2.53594,0.38373 z m 6.55625,-0.0811 c -0.0695,-5.5e-4 -0.14219,-0.0125 -0.22187,-0.039 0.11014,-2.1623 -1.99434,-0.68171 -2.25782,-2.53019 0.26315,-1.57716 1.95379,-0.84505 3.06719,-1.00615 0,0.26251 0.0478,0.63935 -0.26563,0.74096 0.73943,0.68682 1.20936,1.63139 0.99688,2.5302 -0.55746,-0.22971 -0.83209,0.30803 -1.31875,0.30418 z m -8.53906,-11.42488 c -0.15516,-0.006 -0.32255,-0.0208 -0.50156,-0.0468 l -1.16876,-2.01386 c 1.42788,-0.25438 2.7725,-1.84549 4.79532,-1.59112 -1.02788,1.65347 -0.79776,3.73987 -3.125,3.65178 z m -22.77188,-0.70976 c -0.21214,-1.37366 -4.15592,-4.15349 2.125,-3.5769 0.0476,0.69531 0.95228,1.32763 0.2125,2.06534 l -2.3375,1.51156 z m 19.92032,-2.55671 c -1.57692,-0.0977 -2.76049,-1.76509 -4.14376,-1.80327 -1.90383,-1.16168 -0.8912,-2.09919 -0.94218,-3.31172 2.90673,0.68682 3.97902,-4.24266 6.30781,-1.44449 -0.11083,0.1099 -0.32478,0.21481 -0.26563,0.47734 -0.16181,0.8988 -0.42717,1.93953 -1.75312,1.52404 -0.47595,0.31339 1.67557,0.69258 1.72656,1.2183 0,1.48388 1.86372,1.48255 2.81563,1.00771 0.0476,1.3143 -0.95235,1.5757 -2.00625,1.78767 -0.63506,0.43686 -1.21347,0.57699 -1.73906,0.54442 z m -13.825,-1.17931 c -0.98592,-0.093 -0.96136,-1.04073 -1.42032,-1.52404 -1.97182,-1.43302 -6.02345,-1.05623 -7.57031,-0.53038 -3.14471,1.03448 -2.07626,-2.76562 -3.66562,-3.02001 1.92082,-0.54267 7.63333,1.62375 8.59374,-0.31822 0.11899,2.52685 5.36939,1.22166 5.49688,3.7485 -1.19839,0.0339 -0.95841,1.05908 -1.43437,1.64415 z m 2.27187,-3.00753 c -3.03422,-0.9412 -5.11408,-3.18685 -5.32656,-3.24619 -1.64035,0.093 -1.79311,-0.54333 -3,-0.96716 -0.65411,-1.4754 2.2278,-1.2804 2.05781,-3.36631 l 1.0625,1.65663 c 0.30597,0.90729 0.95625,-0.21215 0.95625,-0.21215 -0.13599,-0.2286 -0.23754,-0.47587 -0.27969,-0.68792 0.93491,-0.42396 2.4717,-0.93305 3.22813,-0.4243 -0.81592,0.34731 -0.64809,1.136 -0.90313,1.69564 0.58678,0.11871 1.244,0.11868 1.89844,0.0936 -0.0938,-0.16076 0.20919,-1.71309 0.4125,-2.33208 0.74793,-0.10175 1.53616,-0.0411 1.97812,0.30418 1.37688,-1.89936 -1.3547,-0.95285 -1.56718,-1.98734 -0.4508,-0.061 -3.37878,0.53248 -3.71875,0.91412 -1.12189,-2.15375 -1.57661,-2.94812 -2.775,-4.91532 0.15297,0.0204 0.85189,-1.94063 1.02187,-2.21197 0.80742,-0.58541 2.06874,0.46803 2.62969,2.07937 0.56979,0.1947 0.97223,-0.0605 1.35469,-0.54285 -0.69693,-1.14471 -1.01657,-1.75908 -1.10156,-3.49734 0.9944,-1.12775 2.33708,4.00879 3.21249,4.84823 3.07679,0.99208 0.98531,-0.47988 2.19219,1.32594 0,0.0767 2.26176,2.32978 2.27032,2.3976 1.58928,0.49181 2.02522,4.4093 3.02812,4.35843 -1.28338,0.85641 -5.61534,-0.034 -5.87032,1.90778 -0.17882,-0.58473 -0.4379,-0.94187 -0.74374,-1.1793 -0.33998,1.49236 -1.26926,3.01361 -2.01719,3.98872 z m -14.49687,-4.10572 c -0.30736,0.007 -0.61432,8.9e-4 -0.90782,-0.0296 l 0,0.002 c -1.17398,-0.12209 -2.1263,-0.62159 -2.03281,-2.16048 1.78484,-0.33103 -1.49625,-1.6027 -0.0266,-2.11994 -0.14413,-0.83097 1.81155,-0.50918 1.51407,-2.66279 0.84143,-0.16078 0.46449,-0.007 0.98281,-0.755 0,-0.62748 0.35697,-1.04921 0,-1.52405 -0.0768,0.0272 -0.94244,-0.0541 -1.03593,-0.0406 -0.27198,0.55083 -0.50465,0.69706 -1.56719,1.20583 -0.43312,0.47485 0.59896,1.42045 0.225,1.8953 -1.05397,1.42453 -4.01094,-1.15278 -4.01094,-1.15278 0.4848,-0.42397 0.21618,-1.1596 0.26718,-1.73619 -0.52694,-0.68683 -1.31781,-0.68393 -2.00624,-1.00616 0.0476,-0.52571 -0.21178,-1.4138 0.2125,-1.52404 0.84142,1.00064 1.1059,-0.90086 2.05781,-0.26519 2.2268,0 0.71763,-2.28553 2.72344,-2.43815 0.11083,-1.11079 -0.80119,-1.4288 -1.54063,-2.01386 2.3288,-1.58563 -0.80017,-3.42156 0.72969,-4.79521 0.96041,-1.21253 -0.84873,-1.23517 -1.36719,-2.13397 -2.32878,0.31407 0.0997,0.93159 -1.75312,1.88126 0.42496,0.73771 -0.15084,2.2502 1.11562,1.98735 0,0.26251 0.0603,0.647 -0.25312,0.80804 l 0.99688,0.99367 -2.53751,0.26518 c -1.05389,1.52628 0.85004,3.0053 1.275,4.53158 -1.64035,0.52571 -2.15037,-1.50063 -3.51875,-2.02634 0.57795,-1.95872 -1.91028,-1.00781 -1.00938,-2.79694 -2.38828,-0.42397 -0.53455,3.42806 -3.06718,2.05442 -1.90376,-2.52685 2.31699,-3.16574 1.52656,-5.59077 -0.52694,-0.94974 -1.73702,-0.31657 -2.53594,-0.47733 -0.15299,-1.58563 1.64897,-2.37533 1.275,-4.05425 -0.32296,-0.48297 -0.79904,-0.58124 -1.275,-0.53037 -0.79043,0.47484 -1.7873,0.99451 -0.99687,2.05442 l -1.275,-0.53037 1.275,-2.26501 c 1.0624,-2.06047 -1.88441,-1.34666 -2.30937,-3.03405 -0.31415,-1.42453 -3.35452,-3.78265 -2.77656,-5.41918 -1.69984,-1.68738 0.8288,-2.52163 -1.28751,-4.10727 -1.00291,-1.57715 -2.72128,-0.9202 -3.09531,-2.55672 0,-2.82361 1.7151,-3.2321 -0.50313,-5.13993 -1.27488,0.21163 -0.37817,-2.49843 -1.80625,-1.92183 -0.64595,-1.15326 -0.93179,1.13325 -0.77031,1.92183 l -1.67344,0.13103 0.25157,-3.08553 1.28906,-0.90163 c -1.54686,-2.1792 -1.61,-1.99424 -2.29844,-0.99367 l -0.53124,-1.7362 0.3328,-1.11222 c 0.84143,-1.15319 -0.43463,-0.87904 -0.7578,-2.46468 -0.4168,-2.53532 -1.01431,-1.89175 -2.22969,-3.62995 -0.21215,0.3134 -0.74375,0.58199 -0.74375,1.00616 -0.52696,-0.061 -1.37915,0.20531 -1.54063,-0.27768 -0.73943,-1.52627 0.80484,-5.43596 -2.27188,-5.53772 -0.25497,-0.94969 1.69576,-5.06737 1.80626,-5.85595 -1.80183,-2.06047 -1.22416,0.90544 -2.975,-1.41796 -1.84434,0.94968 -1.82739,-5.96402 -3.30626,-5.80292 -0.79041,-0.8988 -0.85202,-2.12026 0.46563,-2.54422 -0.42496,-3.11192 -1.35896,-1.28769 -1.67344,-4.45047 -0.32296,-1.17863 -4.63157,-2.586947 -3.46719,-2.637822 1.84434,1.534752 6.21208,-2.184304 2.31095,-3.736021 -1.32588,0.788577 0.37335,-1.03715 -0.78282,-1.020187 l -3.26718,2.503672 c -1.2239,-1.170147 0.12819,-0.762317 -0.18595,-1.177742 l -1.18125,-1.603598 c 0.21215,-0.746184 -0.19056,-0.586503 -0.50468,-0.357218 -0.33181,-0.610511 1.54356,-0.839541 0.34531,-1.458534 -0.68844,-0.211643 1.42795,-4.246018 0.85,-3.974682 -2.32879,-3.934404 -3.09899,0.253781 -2.16407,3.060567 -0.16182,1.382133 -1.2496,-0.524133 -1.7,0.66297 0,-0.466702 -0.9183,-1.963006 -1.58124,-2.675269 l -0.72969,0.475782 c -0.53512,-0.474848 2.13077,-2.79971 0.49062,-2.901462 -0.47596,0.262518 -1.39802,-2.57481 -1.71249,-2.252527 0.96891,-1.611138 2.62756,-0.652154 2.57656,-1.602041 0.57795,-1.051439 -1.55248,-1.132912 -0.65156,-1.497525 0.0612,-0.47484 -3.28186,-0.432654 -3.75782,-0.755001 -1.58085,-0.152628 -1.34278,-2.684413 -1.81874,-3.523866 -2.32879,-0.635614 0.75388,-2.923745 0.49062,-4.611134 -1.32588,-2.272453 -3.52267,-0.951875 -2.68126,-3.750052 -0.2638,-0.211642 -0.43472,-0.09423 -3.00156,-3.842092 -0.16183,-1.483877 1.9237,-5.356087 -0.65156,-5.033868 -1.86983,-1.967205 -0.93943,-10.397541 -2.86875,-7.022773 -0.526958,-1.37365 -0.62967,-10.884944 -2.601558,-7.365958 -0.926416,-0.313394 -1.2402,-2.900384 -1.342192,-3.205639 -3.212704,-3.934404 -0.308904,-6.158473 0.01406,-6.743547 1.317384,-2.263979 -2.284336,-4.291174 -1.859376,-6.453402 0,-1.68738 -2.323432,-1.067436 -2.323432,-2.754824 -1.266384,1.687388 -0.85856,-1.042311 -1.487504,-2.517712 -0.161824,-0.737702 0.533304,-3.017607 -0.265624,-4.331908 -0.68844,-1.05988 -0.7162,-0.419786 -1.540624,-1.801711 -0.0408,-1.136227 -2.209992,-5.049817 -2.125,-6.135176 C 86.242894,10.000171 85.754094,9.5510727 87.020278,8.8642475 85.80492,6.5404498 87.493864,2.0109014 83.685936,1.2732002 l 1.795312,-1.27289692471 4.018752,0 L 89.940624,0.4916754 c -0.543952,0.7885771 -0.321008,0.9924483 -1.009376,1.4164119 0.314136,0.839453 -0.27796,1.7795159 0.784376,1.8812678 1.019912,0.1526278 0.72788,0.318929 1.407816,0.9546707 1.53836,0.4667009 1.2718,-2.8336303 1.195312,-3.232156 C 92.06804,0.96379933 91.689528,0.47043848 91.246872,3.0327529e-4 l 6.67188,0 C 98.207696,0.29528788 97.742992,0.14123041 97.443752,0.57123196 96.85696,1.3089332 97.389492,2.3018767 97.921872,2.6240962 99.400744,1.835583 98.809256,0.54164888 100.97656,1.0080143 c 2.85574,2.2215776 -0.23655,1.1680143 0.87657,3.6439795 0.84142,0.7461832 1.65971,1.2662759 2.60312,1.8937433 2.52427,0.3133942 0.39298,0.9609324 0.80937,2.8094219 -0.4168,0.054275 -1.00996,-0.1587769 -1.27344,0.2651866 -0.90092,0.8902654 1.06948,1.3726834 1.48595,2.4241224 0.46712,-0.06784 0.73763,-0.103157 0.89062,-0.120113 -0.11083,0 -0.0864,-0.03394 0.94219,-0.29171 0,0 1.80236,3.854064 3.06875,5.592328 -0.57795,0 -0.30987,1.516 0.10625,1.363371 -4.70856,2.213105 0.047,3.220592 1.44688,3.034052 l -1.44688,1.232332 c 0.27198,0.534541 0.4215,1.164995 1.00781,1.538091 1.79333,-0.746183 0.31502,1.308166 1.79375,1.257291 0.79042,-0.322212 0.50895,-0.502658 0.61094,-1.138743 l 1.275,1.27134 c -0.95191,0.788577 -0.45795,1.879774 -0.61094,2.676825 1.00291,0.263197 0.62552,-1.244816 0.88906,-1.244816 0.74794,-0.110569 -0.1032,-0.638257 1.24844,0.396218 1.1134,0.364949 1.18068,0.660677 1.12969,1.762711 -0.79036,1.373652 -1.63443,-0.339926 -2.27187,0.822083 0.10198,2.849052 1.68421,1.02112 3.42656,1.495968 1.69133,1.161664 1.74768,4.37978 3.01406,5.59232 -0.58679,1.314293 0.2665,2.216458 -1.52657,2.530197 -0.37396,1.000562 1.75317,1.353555 2.17813,2.04038 l -0.99687,1.271332 c 0.20397,0.678351 -0.43316,1.630458 0.51874,2.054422 0.63711,-0.584738 1.64138,0.05369 2.27031,-0.530372 0.68844,1.907848 -0.41876,3.703105 1.00938,5.339609 1.85283,0.160767 0.63998,2.1596 1.54062,3.007535 -0.10198,1.424527 1.47488,2.427877 0.53126,3.801528 1.26638,0.525723 -0.27198,1.10241 0,1.789236 0.20398,0.212321 0.36442,0.632124 0.72969,0.530372 -1.00291,1.37365 0.95837,1.470451 1.00937,2.742341 0.84142,1.365176 -0.69039,2.213407 -0.26563,3.324196 1.80184,0.890328 1.70867,3.02846 3.61251,2.027906 l 0.79687,3.007526 c -1.26638,0.635614 1.02727,1.905292 -0.87656,1.430453 0.36513,0.890329 0.56853,1.6579 1.67344,2.556712 1.69133,0.05426 0.85433,1.802533 1.80625,2.531753 0.26313,0 0.61932,0.06001 0.72968,-0.252711 l 0,0.781525 c 1.21532,1.271898 -0.46635,1.117378 -0.72968,2.27905 l 0.51718,0.477332 c 0.6371,0.262519 1.01159,-0.640973 1.275,-0.742525 -0.95192,0.941205 0.51891,1.528874 0.73126,2.266575 0.0544,2.060476 1.64208,4.644902 -1.52813,5.060384 -0.11083,0.797059 0.21905,1.314388 0.79687,1.789235 0.73943,-0.203504 1.79592,0.431791 2.27188,-0.517896 0.42496,1.585629 0.94658,3.64108 2.53594,4.319424 0.15297,2.060476 2.58908,1.956927 2.80156,4.068278 -1.2154,-0.313394 -2.01113,0.421153 -2.80156,1.006154 0.0476,1.424525 1.64136,0.306645 2.27031,0.993673 0.95192,1.271898 -0.6235,1.645425 -1.26094,2.54423 0.73943,1.53476 2.43407,2.25885 3.81094,2.53019 l -0.26563,0.26519 c -0.31414,0.57659 0.53125,0.74485 0.53125,1.00771 l -2.55,0.25115 c -0.26381,0.31339 -0.67833,0.59229 -0.51718,1.00771 1.53836,0.37309 3.53351,0.37309 5.07187,0 l -0.74375,0.74096 c 0.79893,1.52627 1.50161,-0.76352 1.92657,-0.0265 -0.84992,0.7377 0.635,1.57634 0.37187,2.30557 -2.85575,0.7377 -3.55835,-0.85898 -6.62656,-0.47734 -2.00583,1.25494 0.78283,1.78311 0.99531,3.04653 0.9009,-0.15263 1.48543,0.53509 2.07187,-0.51634 l 1.26094,1.99983 c 2.32878,0.9412 2.54409,-1.63845 4.82188,-1.74868 l 0,0.74253 c 0.10198,0.16144 0.25337,0.31606 0.51718,0.26518 l 0,1.00615 c 0.21215,0.20351 0.37815,0.63213 0.74375,0.53038 -0.73943,0.78858 -0.64196,1.94761 -0.74375,3.00752 -0.52695,0.73771 -1.839,0.52116 -2.53593,1.25887 -0.16183,0.8988 0.41133,0.39278 1.04844,1.02019 1.0624,2.43355 -2.15161,1.73223 -2.57657,3.04652 0,0.2632 2.26209,0.52438 2.57657,0.67701 1.90381,-0.26252 2.97512,-1.46484 4.25,-1.4055 0.21213,0.89882 -0.83312,3.76271 0.75624,3.97469 -1.58936,2.32334 -0.1312,2.29701 0.29376,3.88265 1.0624,1.26342 -1.36448,1.00158 -1.05,2.26501 -0.42496,0.0542 -1.02003,-0.20965 -1.275,0.26519 0.62893,2.32333 2.96745,-0.47684 4.6078,-0.26519 1.05392,0.37309 0.31424,1.26984 1.275,1.7362 4.4366,3.33237 -3.55564,1.53604 -3.07968,4.59709 l -0.74376,0 c -0.31481,0.10175 -0.25312,0.47953 -0.25312,0.74252 1.52986,0.79705 2.90582,-0.31656 4.34219,-0.47734 0.15298,-0.57658 -0.33093,-0.84737 -0.54375,-1.27133 0.27197,0 0.64196,0.0601 0.74375,-0.25271 1.74234,-1.11079 2.01867,1.67826 1.80625,2.51772 0.26314,1.53476 -0.64732,2.69845 0.72968,3.53789 -1.26637,0.21166 -3.32464,0.75421 -4.27656,-0.51789 -0.79043,0.11057 -2.16626,-0.78958 -3.06718,-0.47578 0.79042,0.68683 1.52882,2.80244 3.06718,2.01386 l 0,0.51634 c 0.68844,0.11057 2.19099,0.14415 3.34688,-0.3307 0.58679,0.8904 3.33432,-0.55296 2.69688,1.03267 1.1134,0.31339 1.49242,2.99239 2.7078,2.30556 -0.102,1.37365 -2.94084,4.32409 -3.94374,4.8498 1.0029,1.37365 2.96531,0.38397 4.34218,1.02019 l 0,0.4633 c 0.84143,1.42453 1.63241,1.90272 3.28125,2.5302 1.69135,-0.36427 1.58183,1.71017 1.84531,2.34612 l -1.00936,0 c -0.32298,0.2035 -0.37012,0.63285 -0.53126,1.00615 0.26314,0.16144 0.36322,0.63877 0.79688,0.47733 1.26645,2.16223 -0.87453,1.47012 -1.88594,2.31804 -0.42496,1.45844 -1.31841,-1.30606 -2.48281,1.03424 -0.0612,0.21163 0.35692,0.67976 0.51875,0.78152 -0.26382,0.44905 -0.30634,0.7772 -0.2125,1.00614 1.35987,-0.72074 3.68776,-1.09361 4.55468,-2.02633 0.79892,0.35613 1.64992,-1.54482 2.05782,-0.99367 -0.50995,0.39006 -1.62964,3.23921 -1.76562,2.45063 -0.27198,0.0204 -0.76796,1.76656 -0.83595,1.89376 0.79043,1.27189 2.10121,-1.06074 3.05313,0.39777 0.3998,0.99215 1.90324,0.12486 2.40469,-0.26518 0.15299,0.39886 1.62461,4.12223 2.15156,4.26639 l -2.9625,1.58956 c 0.40796,1.02599 0.67951,2.43939 1.34219,2.34612 -1.2154,1.09383 -1.73937,1.84505 -2.47032,2.27749 -0.0768,-0.2286 -0.94379,-0.18645 -1.36875,0.60992 -0.9349,0.61052 -1.11645,1.19338 -1.26093,1.85476 1.1134,0.96663 2.72094,0.40494 4.18281,1.73619 -1.1219,0.86496 -1.13067,2.83871 -2.975,2.94046 l -0.8625,-2.58324 c -0.28897,-0.50876 -0.26671,-0.59222 -0.50469,-0.58341 -0.0272,0.0475 -0.99758,0.43446 -2.53594,1.29941 -0.94341,1.05992 -0.34341,1.29262 -0.17344,1.37742 1.86134,-1.6026 3.17704,1.68442 4.83438,2.58323 -0.28013,0.31408 -2.82812,-0.0406 -2.82812,-0.0406 -0.79042,0.22928 -0.23806,1.48689 -0.85,1.7752 -0.58966,0.005 -1.51702,0.15405 -2.43906,0.17626 z m -139.457818,-3.12764 -0.0016,-0.002 -2.65625,-0.51634 c 0.365127,-0.8988 -0.821347,-1.22511 -1.195312,-1.80171 -1.589355,-2.17069 0.330643,-1.14109 -0.145313,-3.19315 0.314131,-0.0475 0.796963,0.21182 1.009375,-0.21215 -0.0476,-0.32222 0.210331,-0.84714 -0.265625,-1.05919 -0.424961,-0.15263 -0.643976,0.3242 -1.009375,0.26519 -0.747864,-0.36495 0.252082,-1.16992 0.04063,-1.69564 0.849923,-1.05143 4.007362,-0.63918 5.23125,-0.17315 0.577947,0.6356 -0.05306,1.79017 0.267187,2.265 2.269292,0.10175 5.979492,-2.16558 8.631251,-2.53019 l 1.420312,1.15278 c -0.671099,0.45788 -0.588195,0.1881 -2.840625,1.20583 -1.002909,0.55963 -1.663106,0.59855 -2.139062,1.28537 0.365807,0.94969 1.522859,1.07806 2.032812,0.56937 1.053904,-0.16077 1.931486,1.9063 3.146875,3.03405 -1.461867,1.28037 -5.183987,-0.44218 -5.710938,0.60993 -1.487365,-0.4667 -1.712577,-0.0898 -2.5625,-1.40393 -0.637101,0.3134 -2.084297,0.35002 -1.234374,1.13874 -0.739434,0.84793 -2.12074,-0.68593 -2.018751,1.06075 z m 12.959376,-1.72372 -0.676563,-0.84703 -2.65625,-2.70334 c 1.963321,-0.74619 3.579568,-1.60197 3.639062,-3.17913 -0.32297,-0.21164 -0.584141,-0.68938 -1.009374,-0.47734 -1.376875,-2.43357 3.196097,-1.66745 4.25,-2.25252 0.373965,-1.00056 2.542423,-0.58292 3.757812,-0.37127 0.637102,0.31339 0.478125,0.94745 0.478125,1.52405 -3.969137,1.22102 1.213152,3.22288 -0.478125,5.86843 0,-0.11057 -2.073947,0.50664 -1.4875,1.61763 l -0.782812,0 c -0.0476,-0.53453 -0.799043,-2.675 -1.275,-3.04809 -2.005818,0.0475 -1.694064,4.02972 -3.759375,3.86861 z m -19.428125,-0.72847 -0.929688,-0.1326 c -1.164393,0.44093 -1.962307,-1.69297 -3.279687,-1.00615 0,-1.10231 1.229072,-2.90862 -0.410938,-3.90917 -0.416802,0.0475 -1.556837,-1.07066 -1.820313,-0.59588 -0.416801,-1.05144 0.263175,-2.14912 0.425,-2.83594 l 1.620313,0.30574 c 0.688437,-0.57659 -0.05457,-1.10657 -0.10625,-1.68316 0.951913,-1.8485 -1.303659,-2.14655 0.01406,-3.93568 0.586785,0.26319 -0.0476,0.63156 0,1.0467 0.586785,0.73771 1.33461,2.11562 2.55,2.01387 -0.263136,0.73769 1.115276,1.04304 0.265625,1.78923 l 0.729687,0.72848 c 0.637101,0.3222 0.535908,-1.31319 1.275,-0.51633 0.662939,1.28885 0.955512,2.00556 1.023437,2.55671 -0.798859,0.093 1.219493,2.57291 -0.106249,2.62379 -0.722435,0.24556 -1.213551,1.05969 -0.159375,1.69563 0.322969,0.84793 -0.443462,1.34599 -1.089063,1.85476 l -0.0016,0 z m 31.339062,-1.12315 c -0.325677,0.003 -0.663606,-0.0153 -0.99375,-0.0562 -1.320576,-0.16348 -2.519135,-0.69729 -2.310938,-1.85475 0,0 1.221855,-0.63505 1.009375,-1.27133 -0.110829,-0.11057 -1.338973,-0.48934 -1.05,-2.13397 0.237979,-1.645 0.47716,-2.29169 -0.210937,-2.50368 -0.577947,-0.47484 -0.898973,-2.00199 0.265625,-2.05286 0,-0.26253 -0.205877,-3.49651 1.009375,-4.81081 3.127715,0.57659 1.906994,-1.62849 2.535937,-3.53634 0.586787,-0.67835 1.281467,-1.27057 2.284376,-1.00771 0.526952,-0.42396 0.729687,-0.88654 0.729687,-1.52249 -2.269293,-0.5257 -0.0401,-1.90138 -0.729687,-3.5379 0.688436,-0.7377 0.901937,-2.06224 2.270312,-1.53652 0.960412,-0.36496 0.20579,-1.21264 0.265625,-1.78923 0.526952,-0.0475 1.15416,0.20965 1.528125,-0.26519 -0.161825,-1.79761 2.700837,-0.41884 2.284375,-2.53019 -0.900918,-1.42452 0.831678,-1.94995 0.729687,-3.27272 l 1.0625,0.52881 c 2.957729,-1.50084 -0.074,-3.31349 1.753125,-4.84824 -0.263134,-0.63561 -0.952029,-0.33083 -1.275,-0.75501 -1.427869,-1.89937 1.540626,-1.90139 1.540626,-3.53789 1.164393,-1.95025 -1.28248,-4.89779 0.995312,-5.85595 -0.161825,-0.3134 -0.741309,-0.73082 -0.265625,-0.99368 1.376875,0.26252 2.032851,-1.47211 2.457813,-2.15894 l 0.265625,0.2652 c 1.274883,-0.21164 0.745899,-1.68982 1.009375,-2.05443 2.40528,-1.34821 0.569224,-2.41996 1.275,-2.53018 -0.05439,-0.68683 1.167265,-1.49154 0.529687,-1.97487 -0.526952,0.21164 -0.339209,-0.16962 -0.875,0.0936 -1.427869,-0.84792 0.539811,-0.31282 0.225,-1.27132 l -1.275,-0.47734 c 0.0476,-0.53455 -0.1038,-0.90673 -0.265625,-1.27135 0,-2.53532 2.405255,-0.40635 2.45625,-2.94201 0,-0.78858 -1.122014,-0.62072 -1.275,-0.99367 0.739432,0.11057 1.328164,-0.21694 1.753125,-0.74253 0.161146,-1.05142 -1.011543,-1.04763 -1.4875,-1.52248 -0.263816,-1.95872 1.129707,-2.42422 1.342188,-4.21335 l 1.739062,-0.21214 0,-1.27135 c 0.637101,-1.41604 -0.402669,-1.94545 -0.929687,-2.95449 -0.101991,-0.62747 0.311962,-1.47549 -0.478126,-1.78924 1.113399,-0.78857 1.062616,-1.52496 2.3375,-1.99981 -1.215389,-0.79705 0.507703,-1.066 -0.384374,-1.6426 l 0.265625,-1.272889 c -0.322972,-0.263197 -0.586884,-0.689399 -1.0625,-0.477338 -0.424963,-1.051443 0.908688,-3.706113 -0.570313,-4.079201 -1.274884,-1.687388 0.404558,-0.813032 1.101562,-1.762711 0.841423,-1.271898 -0.321005,-2.335517 -1.009374,-3.285196 0.790428,-0.898812 -0.688322,-3.111444 1.275,-3.060568 1.84433,-1.433009 -0.647304,-1.687084 -0.545313,-3.272721 1.64035,-2.060476 -1.203358,-4.696776 1.023438,-6.333289 0.21214,-3.010154 -1.916644,-5.638843 -0.743751,-8.386144 l -0.279687,0 c 0.475956,-1.738256 -0.680842,-2.855897 -0.995313,-4.280424 1.478864,-2.213103 0.576139,-5.377483 -0.265625,-7.590587 1.801836,-1.797614 -0.04738,-4.652881 0.531251,-7.128846 -0.790427,-0.746183 -0.921661,-0.518168 -0.385938,-2.052856 0.526951,-0.05427 -0.253653,-1.11578 0.120312,-0.954671 1.903827,-1.424527 -0.373965,-2.901231 0,-4.597093 0.101991,-2.060476 -1.32258,-4.11171 -1.526562,-6.333288 -1.062403,-2.374214 -0.956279,-5.742097 -2.01875,-7.590587 1.903894,-1.475403 -0.365127,-3.225935 0,-5.074424 0.637781,-0.949687 0.905235,-2.009304 0.74375,-3.272722 0.76493,-3.578271 -0.428822,-5.069304 0.53125,-7.604619 -0.637102,-0.941205 -0.267188,-3.2727216 -0.267188,-3.2727216 0.951914,-2.3148552 0.31911,-4.9574012 0.531251,-7.8573301 0.545997,-0.17113324 0.623319,-0.58963381 0.6625,-1.00771102294 l 0.6,0 0,0.001559863 c 0.197076,0.44112717 0.4165,0.16352983 1.125,-0.001559863 l 5.407814,0 C 82.376648,1.062017 82.448312,2.1998971 82.67656,3.2730041 c -0.577944,0.4239636 -0.905232,1.0046522 -0.743744,1.8017113 0.475952,1.789132 -0.152856,3.3738338 1.487496,4.5440523 1.691344,5.9694423 0.02818,8.9087703 2.085936,14.4542393 1.274888,0.525724 2.364712,4.230826 3.265624,5.180505 0.628944,1.161673 0.05588,1.995998 -1.007808,2.530196 0.586784,1.365176 0.946232,3.171895 0.742184,4.545618 0.679936,0.474839 0.159184,1.685919 1.009376,1.787671 -0.212136,1.221022 -1.644664,2.215132 -0.743752,3.537906 0,0.788577 0.52232,2.525132 -1.007808,3.1526 1.317376,0.635614 2.571016,1.521645 2.775,2.835938 -1.368376,1.687388 -0.63324,3.703105 -0.531248,5.339618 0.526952,0.839453 0.701368,1.845694 0.531248,2.795381 0.220976,0.211642 0.878688,0.847864 0.929688,1.577083 l -0.437504,0.940629 c -0.42496,0.584739 -1.376992,0.962259 -1.275,1.801712 1.427872,-0.161446 1.955824,1.436363 2.057816,2.530196 -3.807656,2.857534 1.804136,5.235238 0.47812,8.347145 0.586792,1.322775 -0.06866,0.02021 0.782816,0.808041 l -0.531248,0.740968 c -0.0408,0.02034 -0.417432,-0.236178 -0.995312,0.23867 -0.526952,0.7377 1.35028,-0.08478 0.398432,0.703525 -0.577944,0.322212 0.175984,1.035002 -1.115624,1.628557 0.773432,0 0.569984,0.262455 2.125,-0.02653 l 0.862504,0.940637 c -0.841496,0.474839 0.0757,1.205489 -0.664064,0.781517 -2.2268,1.221022 0.610576,1.203428 0.39844,2.51772 -0.416808,0.746175 -0.09454,2.009872 -0.995312,2.332083 1.0624,-0.10989 -0.03456,1.302177 0.331248,1.403929 -0.0476,1.026 2.439448,0.642107 1.912496,1.642598 0,0 0.06188,-0.04056 -1.260936,-0.04056 -0.790424,0.576591 -2.231192,-0.285241 -1.593752,1.563041 0.263136,0.847936 0.427072,1.334092 1.328128,1.23234 0.739432,-0.474839 0.907368,0.867431 0.796872,-0.556888 0.526952,0.05427 1.275,0.477332 1.275,0.477332 l 0.743752,0.781525 -1.009376,1.272896 c -2.957728,0.313394 -1.20712,0.220812 -2.55,0.330702 -0.739432,0.695235 -3.144096,-1.269335 -2.192184,0.47734 l 0.318752,1.283814 c 0.212136,-0.313394 0.770448,1.310164 2.257808,0.318227 l 1.368752,0.677001 c 0.747928,0.737773 0.866776,0.705563 1.181248,1.867227 -1.266384,0.949687 0.557736,1.221295 -0.292184,2.332084 0.84992,1.212548 1.50648,0.953448 2.721872,1.377416 0.110832,1.534754 -0.04698,2.020833 -1.260936,2.809413 -1.32588,0.47484 0.373968,1.22047 0,1.27134 -0.849928,0.31339 -0.370104,1.15334 -0.531248,1.78922 0.322968,0.26321 0.584136,0.67495 1.009368,0.4633 -0.739424,1.84851 -1.095528,1.51011 -2.098432,3.29924 0,0 1.404872,0.86356 1.421872,1.00771 -1.104896,0.2632 -4.055824,3.90489 -4.157808,4.79521 0.101984,1.79762 0.08368,2.19459 1.035936,3.03405 l 1.275,0.47734 c 0,0.47483 -0.480072,0.69241 -0.743752,1.00615 l 1.275,0.51788 c 0.314808,3.43413 -0.531248,1.13202 -2.018752,2.34457 -0.212136,-1.79762 -1.2198,0.80835 -1.806248,-0.0406 -0.951912,-0.79707 -0.249584,0.67824 -1.89844,-0.0936 -0.773424,0.56845 -1.732688,-2.0168 -1.792184,0.35722 0,0 -1.939224,0.64405 -0.970312,1.36493 0.4168,-1.05143 1.528128,0.47734 1.52812,0.47734 2.167304,-0.36496 2.439336,-0.40907 3.306256,0.0671 1.393872,-0.24556 1.15476,0.68894 2.004688,0.26518 -0.161832,0.63562 0.269992,1.11179 0.796872,1.2729 0.152984,1.73827 0.0615,3.36925 0.185936,3.68297 0.127832,0.31341 -1.925256,0.63216 -2.018744,0.74253 -0.09383,0.1187 0.402336,1.41765 0.292184,1.65507 -0.118992,0.22861 -0.192088,0.88751 -0.464064,0.67546 -1.155896,-0.44092 -1.916832,3.46949 -2.868752,4.47854 2.107808,0.15262 0.10064,2.2103 1.792192,2.79538 l -0.729688,0.74252 c 0.84992,1.8485 -1.540624,0.57516 -1.540624,1.99982 -0.263136,0.94969 -0.6862,2.10763 0.47812,2.3196 l -1.487496,1.48349 c 0.586784,1.95873 -2.006896,1.31766 -2.907816,2.5302 -0.42496,1.21254 2.115952,2.53485 -0.212496,3.06056 0.0476,0.73771 -0.211784,1.6431 0.212496,2.27905 -0.739432,1.05144 -0.366104,2.84876 -2.006248,3.27272 2.116304,3.42565 -3.857498,2.41627 -1.792184,5.84191 -0.212144,0 -1.824574,-0.24674 -1.926566,0.0687 -4.14762,0.72074 0.424751,3.13771 -4.0625,4.45202 -0.21214,0.47483 0.257713,0.68393 0.529688,1.00615 -1.487364,1.78913 -3.471872,2.46103 -4.80625,3.5379 0,0.36495 -0.535791,1.21614 0,1.16526 l 0,1.25886 -1.753125,0.27767 c -0.518033,-0.99197 -0.0416,-2.20987 -1.576562,-2.39604 -0.04091,0.39684 -0.335232,1.56654 -0.601563,1.2573 -0.739433,0.31339 -1.765645,-0.56162 -1.978125,0.48981 1.64035,0.84794 0.477688,0.91894 -0.584375,1.98734 -0.790428,0.38123 -0.552983,0.82117 -2.125,1.33842 -0.118989,-0.44907 -0.79774,-1.00275 -1.367188,-0.71445 0,0 -1.693649,0.87105 -1.965624,0.39622 -0.807427,-0.48298 -0.470049,0.42882 -1.634376,0.95467 -1.266384,1.53476 0.516776,0.85636 -0.809375,1.90779 0.798927,0.68682 1.379139,0.57648 1.540626,1.78923 -0.216731,0.25743 -1.083906,0.44402 -2.060938,0.45238 z M 16.914062,174.1844 c -0.679937,-0.47483 -1.260937,-2.07354 -1.260937,-2.43815 -3.544176,-4.74842 4.390937,-3.16528 3.014062,-7.07426 l 1.792188,-0.79556 c 0.322971,0.63562 -0.568184,0.79805 -0.517188,1.2729 0.263136,0.21164 0.417415,0.61808 0.782813,0.51633 -1.164461,0.78858 0.09984,2.67467 -1.753125,2.62379 -0.263136,0.83946 0.09624,1.23344 0.359375,1.92027 1.478865,2.11135 -1.201799,3.55919 -2.417188,3.97468 z"
       id="path4193"
       inkscape:connector-curvature="0" /></g></svg>