<?xml version="1.0" encoding="UTF-8"?>
<svg xmlns="http://www.w3.org/2000/svg" xmlns:xlink="http://www.w3.org/1999/xlink" width="63px" height="62px" viewBox="0 0 63 62" version="1.1">
<g id="surface1">
<path style=" stroke:none;fill-rule:nonzero;fill:rgb(93.333334%,44.705883%,44.705883%);fill-opacity:1;" d="M 47.335938 4.769531 C 47.625 4.933594 47.914062 5.097656 48.214844 5.269531 C 55.035156 9.507812 59.378906 16.496094 61.296875 24.1875 C 63.074219 31.914062 61.371094 39.589844 57.550781 46.328125 C 57.386719 46.621094 57.222656 46.910156 57.050781 47.210938 C 54.179688 51.828125 50.128906 55.191406 45.335938 57.65625 C 45.125 57.765625 44.917969 57.871094 44.703125 57.984375 C 40.714844 59.945312 36.964844 60.527344 32.578125 60.492188 C 31.738281 60.488281 30.902344 60.5 30.0625 60.511719 C 21.820312 60.554688 15.238281 57.015625 9.429688 51.355469 C 4.121094 45.722656 1.484375 38.375 1.554688 30.722656 C 1.558594 30.304688 1.558594 29.886719 1.5625 29.457031 C 1.667969 24.015625 3.117188 19.699219 5.789062 14.988281 C 5.953125 14.699219 6.117188 14.410156 6.289062 14.109375 C 10.527344 7.289062 17.511719 2.941406 25.199219 1.023438 C 32.925781 -0.757812 40.597656 0.945312 47.335938 4.769531 Z M 14.300781 9.878906 C 13.964844 10.144531 13.964844 10.144531 13.617188 10.414062 C 8.816406 14.304688 5.523438 20.453125 4.765625 26.570312 C 4.160156 34.179688 5.285156 41.339844 10.308594 47.347656 C 10.503906 47.574219 10.695312 47.800781 10.898438 48.03125 C 11.074219 48.257812 11.25 48.484375 11.433594 48.71875 C 15.320312 53.519531 21.46875 56.816406 27.582031 57.570312 C 35.1875 58.179688 42.34375 57.054688 48.355469 52.027344 C 48.578125 51.835938 48.804688 51.640625 49.039062 51.441406 C 49.261719 51.261719 49.488281 51.085938 49.722656 50.902344 C 54.523438 47.015625 57.820312 40.863281 58.574219 34.746094 C 59.179688 27.140625 58.054688 19.980469 53.03125 13.96875 C 52.839844 13.742188 52.644531 13.519531 52.441406 13.285156 C 52.265625 13.058594 52.089844 12.835938 51.90625 12.601562 C 48.019531 7.800781 41.871094 4.5 35.757812 3.746094 C 27.707031 3.105469 20.542969 4.496094 14.300781 9.878906 Z M 14.300781 9.878906 "/>
<path style=" stroke:none;fill-rule:nonzero;fill:rgb(94.117647%,45.09804%,45.09804%);fill-opacity:1;" d="M 22.121094 18.148438 C 23.285156 18.5625 24.042969 19.496094 24.886719 20.367188 C 25.179688 20.660156 25.179688 20.660156 25.476562 20.960938 C 26.097656 21.585938 26.710938 22.214844 27.328125 22.84375 C 27.75 23.269531 28.167969 23.695312 28.589844 24.121094 C 29.617188 25.164062 30.644531 26.207031 31.671875 27.253906 C 33.066406 26.707031 33.960938 25.695312 34.96875 24.628906 C 35.34375 24.242188 35.71875 23.855469 36.09375 23.46875 C 36.683594 22.855469 37.269531 22.246094 37.855469 21.628906 C 38.421875 21.035156 38.992188 20.449219 39.566406 19.859375 C 39.738281 19.675781 39.910156 19.488281 40.089844 19.296875 C 40.59375 18.789062 40.59375 18.789062 41.546875 18.054688 C 42.683594 18.078125 43.070312 18.222656 43.886719 19.011719 C 44.269531 19.757812 44.269531 19.757812 44.175781 20.425781 C 43.761719 21.589844 42.828125 22.347656 41.960938 23.191406 C 41.664062 23.484375 41.664062 23.484375 41.367188 23.78125 C 40.738281 24.402344 40.109375 25.019531 39.480469 25.632812 C 39.054688 26.054688 38.632812 26.476562 38.207031 26.894531 C 37.164062 27.925781 36.121094 28.953125 35.074219 29.976562 C 35.621094 31.375 36.632812 32.269531 37.699219 33.277344 C 38.085938 33.652344 38.472656 34.027344 38.859375 34.40625 C 39.46875 34.992188 40.082031 35.582031 40.695312 36.164062 C 41.289062 36.730469 41.878906 37.300781 42.464844 37.875 C 42.652344 38.050781 42.835938 38.222656 43.027344 38.402344 C 43.539062 38.902344 43.539062 38.902344 44.269531 39.855469 C 44.246094 40.996094 44.101562 41.382812 43.3125 42.199219 C 42.566406 42.582031 42.566406 42.582031 41.902344 42.488281 C 40.734375 42.074219 39.980469 41.140625 39.136719 40.269531 C 38.941406 40.074219 38.746094 39.878906 38.546875 39.675781 C 37.925781 39.050781 37.308594 38.421875 36.691406 37.792969 C 36.273438 37.367188 35.851562 36.941406 35.433594 36.515625 C 34.402344 35.476562 33.375 34.429688 32.351562 33.382812 C 30.957031 33.929688 30.0625 34.941406 29.054688 36.007812 C 28.679688 36.394531 28.300781 36.78125 27.925781 37.167969 C 27.335938 37.78125 26.75 38.390625 26.167969 39.007812 C 25.601562 39.601562 25.03125 40.1875 24.457031 40.777344 C 24.285156 40.960938 24.109375 41.148438 23.933594 41.339844 C 23.429688 41.851562 23.429688 41.851562 22.476562 42.582031 C 21.339844 42.558594 20.953125 42.414062 20.132812 41.625 C 19.75 40.878906 19.75 40.878906 19.84375 40.210938 C 20.257812 39.046875 21.191406 38.292969 22.0625 37.445312 C 22.257812 37.25 22.453125 37.054688 22.65625 36.855469 C 23.28125 36.234375 23.910156 35.621094 24.539062 35.003906 C 24.964844 34.582031 25.390625 34.160156 25.816406 33.742188 C 26.855469 32.710938 27.898438 31.683594 28.945312 30.660156 C 28.398438 29.261719 27.390625 28.367188 26.324219 27.359375 C 25.9375 26.984375 25.550781 26.609375 25.160156 26.234375 C 24.550781 25.644531 23.941406 25.054688 23.324219 24.472656 C 22.730469 23.90625 22.144531 23.335938 21.554688 22.761719 C 21.371094 22.589844 21.183594 22.414062 20.992188 22.238281 C 20.484375 21.734375 20.484375 21.734375 19.75 20.78125 C 19.773438 19.640625 19.917969 19.253906 20.710938 18.4375 C 21.453125 18.054688 21.453125 18.054688 22.121094 18.148438 Z M 22.121094 18.148438 "/>
</g>
</svg>
