<svg width="63" height="62" viewBox="0 0 63 62" fill="none" xmlns="http://www.w3.org/2000/svg">
<path d="M31.4998 56.8337C17.2321 56.8337 5.6665 45.2681 5.6665 31.0003C5.6665 16.7326 17.2321 5.16699 31.4998 5.16699C45.7676 5.16699 57.3332 16.7326 57.3332 31.0003C57.3332 45.2681 45.7676 56.8337 31.4998 56.8337ZM31.4998 51.667C36.981 51.667 42.2376 49.4896 46.1134 45.6139C49.9891 41.7381 52.1665 36.4815 52.1665 31.0003C52.1665 25.5192 49.9891 20.2625 46.1134 16.3868C42.2376 12.511 36.981 10.3337 31.4998 10.3337C26.0187 10.3337 20.762 12.511 16.8863 16.3868C13.0105 20.2625 10.8332 25.5192 10.8332 31.0003C10.8332 36.4815 13.0105 41.7381 16.8863 45.6139C20.762 49.4896 26.0187 51.667 31.4998 51.667V51.667ZM28.9165 38.7503H34.0832V43.917H28.9165V38.7503ZM28.9165 18.0837H34.0832V33.5837H28.9165V18.0837Z" fill="#FF7A00" fill-opacity="0.5"/>
</svg>
