<?xml version="1.0" encoding="UTF-8" standalone="no"?>
<!-- Generator: Adobe Illustrator 16.0.0, SVG Export Plug-In . SVG Version: 6.00 Build 0)  -->

<svg
   xmlns:dc="http://purl.org/dc/elements/1.1/"
   xmlns:cc="http://creativecommons.org/ns#"
   xmlns:rdf="http://www.w3.org/1999/02/22-rdf-syntax-ns#"
   xmlns:svg="http://www.w3.org/2000/svg"
   xmlns="http://www.w3.org/2000/svg"
   xmlns:sodipodi="http://sodipodi.sourceforge.net/DTD/sodipodi-0.dtd"
   xmlns:inkscape="http://www.inkscape.org/namespaces/inkscape"
   version="1.1"
   id="svg2"
   x="0px"
   y="0px"
   width="507.082px"
   height="553.043px"
   viewBox="0 0 507.082 553.043"
   enable-background="new 0 0 507.082 553.043"
   xml:space="preserve"
   inkscape:version="0.48.4 r9939"
   sodipodi:docname="Collectivitats-2015.svg"><metadata
   id="metadata3397"><rdf:RDF><cc:Work
       rdf:about=""><dc:format>image/svg+xml</dc:format><dc:type
         rdf:resource="http://purl.org/dc/dcmitype/StillImage" /><dc:title></dc:title></cc:Work></rdf:RDF></metadata><defs
   id="defs3395" /><sodipodi:namedview
   pagecolor="#ffffff"
   bordercolor="#666666"
   borderopacity="1"
   objecttolerance="10"
   gridtolerance="10"
   guidetolerance="10"
   inkscape:pageopacity="0"
   inkscape:pageshadow="2"
   inkscape:window-width="1366"
   inkscape:window-height="721"
   id="namedview3393"
   showgrid="false"
   inkscape:zoom="1.3629605"
   inkscape:cx="253.541"
   inkscape:cy="276.52151"
   inkscape:window-x="-4"
   inkscape:window-y="-4"
   inkscape:window-maximized="1"
   inkscape:current-layer="svg2" />
<g
   id="complete_map">
	<path
   id="corsica_separating_line"
   fill="none"
   stroke="#86AAE0"
   stroke-width="1.5"
   d="M432,545.25V475l64.25-42" />
	<path
   fill="#86AAE0"
   stroke="#FFFFFF"
   stroke-width="0.6"
   d="M445.339,488.956v2.156l1.969,1.375l3.312,1.938l0.219,1.562   l-1.969,0.594l-3.125,0.594v1.344l1.156,1.188l0.219,3.906l4.281,1.375l1.562,0.375l1.375,2.156l-0.969,1.375l-1.562,0.562   l-1.188,2.156l-1.156,1.375l0.562,3.5l2.938-0.188l0.781,0.594l2.75-1.375l0.781,0.781l-1.375,2.938l1.375,1.375l-2.344,1.75   l-1.562,3.5l4.281,1l6.062,0.562l-2.531,2.938c0,0-1.189-0.459-1.719-0.219c-0.016,0.008-0.049,0.022-0.062,0.031   c-0.006,0.004-0.027,0.028-0.031,0.031c-0.006,0.004-0.027,0.027-0.031,0.031s-0.029,0.027-0.031,0.031   c-0.008,0.009-0.025,0.021-0.031,0.031c-0.004,0.005,0.002,0.026,0,0.031c-0.006,0.011-0.027,0.051-0.031,0.062   c-0.002,0.006,0,0.025,0,0.031c-0.004,0.013-0.031,0.049-0.031,0.062c-0.002,0.015,0,0.048,0,0.062   c0,0.977-1.344,3.344-1.344,3.344l1.938,2.125l3.531,2.156l6.625,1.75l1.938,0.781l1.781,0.781l-1.188,2.156l3.125-0.188   l0.594,1.375h3.125l0.781-3.719l-1.969-0.406l2.75-2.906l-0.969-1l0.188-1.75l3.531-1.938l0.188-2.156l-2.344-0.188l-1.562,1.344   v-1.938l3.125-0.188l0.969-2.344l0.781-6.844l-0.594-2.938l-0.062-2.812l-3.406,2.25l-4.062,0.156l-0.344-2.812l0.531-0.719   l-1.25-0.875l-0.344-4.781l-0.531-0.875h-2.125l-1.062-0.875v-3.375l-1.406-0.875l-1.062-0.531l-2.125-2.656l0.156-1.594h-2.625   l-0.906-2.656h-3.719l-1.938-2.656l0.531-0.875l-1.219-0.719l-2.844,0.531l-1.062-0.688h-3.875l-0.375-1.062l-2.188-0.406H445.339z   "
   id="path3195" />
	<path
   fill="#86AAE0"
   stroke="#FFFFFF"
   stroke-width="0.6"
   d="M477.964,449.894l-2.938,1.969l0.406,1.938l1.562,1.969l-1.75,1.344   l0.781,1.562l-1.188,1.375v1.75l1.969,1.781v2.719l-1.188,2.531l-1.344,0.594l-1.562-2.156l-2.75,0.219l-0.594-0.406h-2.344   l-2.125,1.969l-0.812,3.312l-5.062,0.969l-3.906,3.312l-0.781,2.156l-1.938-0.188l-1-1.188l-0.562,3.344l-1.375,0.562l-0.406,3.125   l0.594,1.375l-2.156,1.562l-0.594,1.562l2.188,0.406l0.375,1.062h3.875l1.062,0.688l2.844-0.531l1.219,0.719l-0.531,0.875   l1.938,2.656h3.719l0.906,2.656h2.625l-0.156,1.594l2.125,2.656l1.062,0.531l1.406,0.875v3.375l1.062,0.875h2.125l0.531,0.875   l0.344,4.781l1.25,0.875l-0.531,0.719l0.344,2.812l4.062-0.156l3.406-2.25l-0.125-5.781l4.688-6.625v-10.938l-1.938-3.719   l-0.594-11.719l-1.375-2.156l-2.531-1.938l-0.406-7.25l1.188-3.312l-1.562-5.281l-0.969-4.281l-0.812-1.188L477.964,449.894z"
   id="path3197" />
	<path
   fill="#86AAE0"
   stroke="#FFFFFF"
   stroke-width="0.6"
   d="M379.718,409.906l-5.469,3.125l-1.406,10.5l-5.781-0.812l-1.656,4.406   l1.375,1.938l-6.344,3.875l-1.75,4.062l6.188,0.281l8.219,0.594l1.562,1.562h-2.938l-1.938,3.312l8.375,1.75l6.656-1.156   L381.281,440l2.344-1.938l3.719,1.562l1.75,3.719l11.156,0.188l2.906-1.188l0.594,1.781l-3.125,2.719l4.312,0.188L404.156,449   l-1.188,1.375h9.562l4.688,1.562l0.469,0.625l0.188-3.875l1.406-1.594l1.781-1.062l-0.188-1.062l-1.406-1.406h-1.406l-0.906-1.062   l1.594-1.438v-0.531l-1.75-0.875v-1.406l3.875,0.188l0.906-0.719l-3.375-3.188l0.188-3.719l-2.125-1.75l1.75-3.531l4.25-2.844   l-3.188-2.125L417,422.344l-5.312,1.219l-4.25-0.531l-7.594-3.156l-4.594,0.156l-3.875-1.75l-1.438-1.969l-3-3.344l-7.062-3   L379.718,409.906z"
   id="path3199" />
	<path
   fill="#86AAE0"
   stroke="#FFFFFF"
   stroke-width="0.6"
   d="M387,381.344l-2.75,0.219l-2.125,3.312l0.562,3.5l3.312,0.406   l-0.562,1.562l-2.562,0.188l-2.906,2.938l-0.781-0.969l0.562-3.906l-1.156-1.375L373.312,388l-1.031,2.094l0.562,0.312l3.312,5.5   v4.438l5.812,5.781v2.5l-2.25,1.281l0.156,0.062l7.062,3l3,3.344l1.438,1.969l3.875,1.75l4.594-0.156l7.594,3.156l4.25,0.531   l5.312-1.219l2.188-1.719l0.281-1.469l-4.062-4.594h-4.438v-1.594l1.594-1.781v-1.938l-3.531-1.75l-0.344-2.844l1.938-0.875v-2.469   l-2.125-0.375l-0.156-2.656l-0.031-0.188l-1.781-0.125l-2.938-2.156l-0.781-2.531l-5.469-0.406l-4.094-0.375l-0.406-2.344   l1.375-2.938l-2.531,2.156l-3.906-0.406L387,387.594l2.719-3.688L387,381.344z"
   id="path3201" />
	<path
   fill="#86AAE0"
   stroke="#FFFFFF"
   stroke-width="0.6"
   d="M457.781,413.188l-2.969,0.125l-1.406,1.438l-5.312-0.188   l-4.594,3.344l-3.156-2.125l-4.969,1.594l-0.875,1.781l-3.531,2.656l-6.375-4.25l-5.156,1.688l-0.25,1.375l0.094-0.062l3.188,2.125   l-4.25,2.844l-1.75,3.531l2.125,1.75l-0.188,3.719l3.375,3.188l-0.906,0.719L417,438.25v1.406l1.75,0.875v0.531l-1.594,1.438   l0.906,1.062h1.406l1.406,1.406l0.188,1.062l-1.781,1.062l-1.406,1.594l-0.188,3.875l0.531,0.719l3.5,1.562l0.969,3.906   l2.156,0.406l1.969-1.375l3.5-2.156l6.062,0.594l-0.188,1.562l-1.969,0.969l4.688,0.219l-1.156-1.188l-0.406-2.531l2.531-1.75   l2.938,0.969l1.188,0.375l0.969,1.188l1.375-0.969l0.375-2.562l1.562-1.344h4.094l1.188-1.781l2.719,0.781l3.125-1.344v-5.094   l-4.094,0.188l3.125-1.938l1.562-2.156l0.406-3.125l5.656-0.781l3.156-3.531l-2.188-2.25v-1.25l-1.062-1.062l1.406-1.219   l-0.344-1.969l-2.312-0.875H463.5l-2.125-2.125L461,417.906l-2.281-1.062l-2.312-0.156l-0.875-2.125L457.781,413.188z"
   id="path3203" />
	<path
   fill="#86AAE0"
   stroke="#FFFFFF"
   stroke-width="0.6"
   d="M463.843,364.344l-2.125,3.188l-3,1.781l-1.062,2.125L455,371.594   v1.938l-0.719,1.062l-1.062,2.656l-6.344-0.156l-3-1.594l-1.969,1.406l-3.688-0.188l-0.906,1.25h0.906l0.531,3.344l-0.906,0.375   l-3.344-2.125v-1.25l-1.938-1.594H431.5v1.781l-1.594,0.344l-3.375,1.938l-2.125,3.562l-0.531,1.75l1.25,0.344l0.188,2.844h-1.25   l-1.938-1.781l-1.062,0.188l0.531,1.594l3,3.344l-1.938,0.719l-1.406-0.875h-3.562l-3,2.812l-0.031-0.031l-0.125,1.156   l-1.156-1.375l-1.562-1.375l-1,2.938l-1.75,1.562l-0.75-0.062l0.031,0.188l0.156,2.656l2.125,0.375v2.469l-1.938,0.875l0.344,2.844   l3.531,1.75v1.938l-1.594,1.781v1.594h4.438l4.062,4.594l-0.031,0.094l5.156-1.688l6.375,4.25l3.531-2.656l0.875-1.781l4.969-1.594   l3.156,2.125l4.594-3.344l5.312,0.188l1.406-1.438l2.969-0.125l0.062-0.031l-0.719-1.781l0.875-1.062l-0.344-1.406h2.812   l0.719-0.875l2.656-1.438l2.125,1.438l1.406-0.906l-3.344-3l-3.562-3.344l-1.219-0.375l-0.188-2.656l-2.125-3.156l0.719-4.594   l1.062-2.5l1.938-1.594l0.188-2.469l2.656-1.406l0.406-0.156v-3.781l2.75-0.375l-1.562-1.375l-1.969-0.594l-0.969-2.531l0.781-1.75   l3.5-3.719l-0.562-2.75l0.5-0.531L463.843,364.344z"
   id="path3205" />
	<path
   fill="#86AAE0"
   stroke="#FFFFFF"
   stroke-width="0.6"
   d="M463.906,381.875l-0.406,0.156l-2.656,1.406l-0.188,2.469   l-1.938,1.594l-1.062,2.5l-0.719,4.594l2.125,3.156l0.188,2.656l1.219,0.375l3.562,3.344l3.344,3l-1.406,0.906l-2.125-1.438   l-2.656,1.438l-0.719,0.875h-2.812l0.344,1.406l-0.875,1.062l0.719,1.781l-2.312,1.406l0.875,2.125l2.312,0.156l2.281,1.062   l0.375,3.719l2.125,2.125h1.219l2.312,0.875l0.344,1.969l-1.406,1.219l1.062,1.062v1.25l2.188,2.25l0.156-0.188l0.188-4.469   l3.906,0.781l1.375-1.781l1.969,0.406l0.188-6.062l4.5-0.375l3.906-3.531h3.5l0.188-2.156l3.531-2.125l-1.969-4.5l2.938-2.531   L493,402.906l4.312-1.375l1.156-4.281l-0.562-2.938l-1-1.75L496.125,390l-2.906,0.219l-9.188,3.312h-2.938l-5.062-4.094   l-5.094-1.375H468v-3.531L463.906,382V381.875z"
   id="path3207" />
	<path
   fill="#86AAE0"
   stroke="#FFFFFF"
   stroke-width="0.6"
   d="M447.343,339.156l-1.75,0.781l-0.406,2.938l-3.5,0.406l-0.594-2.75   l-1.156-1.156l-3.531,0.375l-1.375,1.188l-0.781,4.094l0.594,0.969l4.094,0.406l0.781,2.531l1.562,0.781V354l-3.719-0.188   l-1.562,1.75l-4.469-0.781L429,356.938l-1.781-0.781l-2.531,1.969l0.969,1.75l-1.562,1.562h-4.875v2.344l1.562,0.781l-0.594,1.375   l-3.312,1.344l-4.094,0.406l-1.188,3.719l-0.188,2.344l2.156,1.75l-2.156,2.531l-2.719-1.375l-3.125-0.188l-0.406,1.75l1.969,1.375   l-2.375,1.562l0.812,3.312l6.625,1.781l1.188,2.531l1.938,0.375l-0.656,6.094l0.031,0.031l3-2.812h3.562l1.406,0.875l1.938-0.719   l-3-3.344l-0.531-1.594l1.062-0.188l1.938,1.781h1.25l-0.188-2.844l-1.25-0.344l0.531-1.75l2.125-3.562l3.375-1.938l1.594-0.344   v-1.781h1.062l1.938,1.594v1.25l3.344,2.125l0.906-0.375l-0.531-3.344h-0.906l0.906-1.25l3.688,0.188l1.969-1.406l3,1.594   l6.344,0.156l1.062-2.656l0.719-1.062v-1.938l2.656-0.156l1.062-2.125l3-1.781l2.125-3.188l2.531,0.125l1.844-2l2.125,0.188v-1.75   l-2.719-1.375l-0.594-5.656l-2.156-0.781l-2.719,0.406l-5.094-2.562l-0.781-5.844l-2.906-0.969l-1-1.969l-1.281-2.812   L447.343,339.156z"
   id="path3209" />
	<path
   fill="#86AAE0"
   stroke="#FFFFFF"
   stroke-width="0.6"
   d="M320.781,352.25l-5.469,1.969l-1.562,3.5l-3.5-2.344l-2.75,8.594   l-2.812,6.469l4.094,5.031l-0.281,3.875l2.75,1.938v4.688l0.844,6.625l3.312,1.406l-0.281,2.188l4.688-0.812l1.656,0.812   l-1.031,0.906l6.031,4.031l5.156-1.062l0.875-1.25l-0.719-1.75l2.125-0.531l3,2.812l5.125,0.531l2.312-3.531v-3l1.406-1.594   l-1.25-0.344v-4.062l-2.812-3l2.312-0.375l1.219-1.062l0.969-1.875l-0.969-0.594l0.562-4.125l-3.312-3.594l-1.375-7.188   l-4.969-6.344l-3.625,0.875l-0.781-2.719h-1.969l-0.375,2.344l-5.062,1.562L320.781,352.25z"
   id="path3211" />
	<path
   fill="#86AAE0"
   stroke="#FFFFFF"
   stroke-width="0.6"
   d="M301.625,247.969l-2.719,3.5l-1.562,0.188l-1.75,1.781l-1.969-2.156   l-5.25,5.281v3.125l0.969,0.781l0.188,1.562l-2.719,2.125l-2.562-0.781l-4.875,1l-2.531,2.906l-0.938,2l0.156-0.031l2.344,3.312   v2.344l1.344,1.75l1.375-1.75l1.562,2.75l2.156,0.781L287,283.5l0.094,1.469l2.969,2.312l1.594-0.719l1.25-3l1.219-0.344v-1.594   l2.125-0.188l0.188,1.062l2.656-3h3l0.531,1.062l-1.406,1.938l2.094,2.312l0.375,1.406l4.938,2.844l6,0.875l1.781-0.188   l2.656,0.531l2.281-1.406l1.781,0.875l0.344,2.469l2.312,0.531l3-0.156l0.875,2.125l2.75,1.094l0.094-0.969l4.688-0.219   l-0.375-11.125l-1.375-2.719l0.562-2.156l3.25-0.562l0.094-0.219l4.094-3.125l0.188-7.625l-1.375-1.938h-3.125l-1.156-1.562h-3.312   l-0.969-1.188v-2.938l-3.938-7.406l-1.938-1.375l-3.719,5.094l-1.562,0.375l-0.594-2.531l-1.75-0.781l-0.781,1.562H316.5   l-0.406-1.75l-1.969,1.156L312,255l-2.344-2.562l-3.344-1.562l-0.188-2.531L301.625,247.969z"
   id="path3213" />
	<path
   fill="#86AAE0"
   stroke="#FFFFFF"
   stroke-width="0.6"
   d="M346.187,381.031l-0.969,1.875L344,383.969l-2.312,0.375l2.812,3   v4.062l1.25,0.344l-1.406,1.594v3l-2.312,3.531l-5.125-0.531l-3-2.812l-2.125,0.531l0.719,1.75l-0.875,1.25l-5.156,1.062   l-6.031-4.031l-1.156,1.031v2.781l-2.219,0.531l0.562,2.219l2.75,0.562h3.031l0.844,3.844l-3.594,1.656v1.75l2.812,0.969v1.594   l1.25,0.719l1.062-0.906h1.406l0.719,1.594h2.125l1.062-3.719h1.75l2.656-3.344l3.188,0.344l0.531,4.594l1.219,1.438l1.969-1.062   l3.344,1.75l1.25,2.125l5.812,3.531l2.125,4.969v2.625l-3.719,2.125l-2.406,2.156l3,0.219v3.906l4.469-0.219l2.406,0.125   l1.75-4.062l6.344-3.875l-1.375-1.938l1.656-4.406l5.781,0.812l1.406-10.5l7.719-4.406v-2.5l-5.812-5.781v-4.438l-3.312-5.5   l-6.906-3.875l-0.531,3.031l-2.781,0.281l-0.812-3.031l-2.781,0.531l-0.531,3.875l-2.219-0.812l-4.688-3.062l-2.219,1.125v-5.531   L346.187,381.031z"
   id="path3215" />
	<path
   fill="#86AAE0"
   stroke="#FFFFFF"
   stroke-width="0.6"
   d="M274.25,438.469l-0.281,3.594l-3.594-1.125H266.5l0.281-1.375   l-1.938,0.281l-4.125,1.375l-1.375-2.5l-2.781,2.5l0.844,1.938l-3.062,1.375l-0.531,3.031l-2.5,1.125l2.219,2.469l-0.562,1.656   l9.687,4.688l0.812,6.656v3.594l0.562,4.688h-4.969l-1.375,1.938l6.344,5.25l3.594-1.938l4.406,5.25L271.375,483l0.844,0.5   l7.938-3.875l-1.938-2.844l-0.156-3.344h18.531l-0.344-2.5l4.25-2.281l4.938,3.875l2.562,1.188l-0.156-5.594l0.219-6.438   l-2.344,0.188l-1.969-2.906l1.562-2.562l3.312,3.125l2.938-2.344l1.969-1.938l0.25-2.062l-2.5-0.094l-0.875-2.812l-2.469-0.188   l-2.312-3.375l-1.781,0.188l-2.094-1.25l-0.375-3l-1.062,0.531l0.531,2.125h-2.469l-0.188,3.531l-3.688,1.25l-1.781-3.719   l-2.469,1.594l-2.125-1.594l-1.062-2.469l1.781-2.125L288,439.5l-0.219,0.062h-5.812l-6.062-1.094H274.25z"
   id="path3217" />
	<path
   fill="#86AAE0"
   stroke="#FFFFFF"
   stroke-width="0.6"
   d="M335.5,408.375l-2.656,3.344h-1.75l-1.062,3.719h-2.125l-0.719-1.594   h-1.406l-1.062,0.906l-1.25-0.719v-1.594l-2.812-0.969v1.031l-3.312,0.531l-1.656,1.406l0.531,3.312h-3.031l-3.031-1.656H308.5   v1.938l0.281,5.781h-3.312h-1.656l-1.125,2.219L295.5,428.5l-2.75-1.906l-1.656,2.469l-0.812,2.75l3.031,2.781l-1.125,3.594   L288,439.5l0.844,2.281l-1.781,2.125l1.062,2.469l2.125,1.594l2.469-1.594l1.781,3.719l3.688-1.25l0.188-3.531h2.469l-0.531-2.125   l1.062-0.531l0.375,3l2.094,1.25l1.781-0.188l2.312,3.375l2.469,0.188l0.875,2.812l2.5,0.094l0.125-1.062l7.031-2.156l0.781-1.75   l5.469-0.188l1.75-2.156l10.562-8.406l6.625-4.688l2.688,0.188l2.406-2.156l3.719-2.125v-2.625l-2.125-4.969L347,417.562   l-1.25-2.125l-3.344-1.75l-1.969,1.062l-1.219-1.438l-0.531-4.594L335.5,408.375z"
   id="path3219" />
	<path
   fill="#86AAE0"
   stroke="#FFFFFF"
   stroke-width="0.6"
   d="M300.5,468.656l-4.25,2.281l0.344,2.5h-18.531l0.156,3.344   l1.938,2.844l-7.938,3.875l-0.844-0.5l-6.531,0.469l-0.812,1.656l-3.312,0.844l-2.219,1.938l-6.062,1.406l0.344,2.062l2.937,2.75   l5.844,1.562l0.188,3.5l3.125,2.75l2.344-0.406l3.344-4.094l4.094-0.781l6.438,2.156l5.469,4.688l1.562-1.969h1.375l1.375,0.969   l1.156-0.562l0.188-2.75l5.875-1.375l1.938-2.531l2.938-0.969h4.094l2.562,2.719l3.125,0.219v-3.125l-1.562-2.156l-2.75-1.188   L308,473.719l-2.562-1.188L300.5,468.656z"
   id="path3221" />
	<path
   fill="#86AAE0"
   stroke="#FFFFFF"
   stroke-width="0.6"
   d="M285.843,323.719l-0.594,2.156l0.969,2.344l-1.188,1.375h-1.938   l-1.969-2.156l-1.75-0.969l-0.188,5.469l-3.531,2.156l-2.531,3.5l0.594,3.531l-0.781,1.562l-1,3.125h-1.562l-1.562,1.938   l1.188,1.188l0.781,1.938l-2.531,1.781l1.031,6.531l3.312,2.469l-2.5,5.812l2.5,1.094l-1.094,3.312l2.188,0.281l1.656-2.75h2.781   l0.531,0.812h6.094l1.094-2.469l1.375-0.562l0.562-4.406h1.375v-4.688l5.531-4.719l0.562,0.844l0.531,3.594l3.875-0.562   l0.844,5.531h1.906l0.562,5.531l1.719,2.125l2.812-6.469l2.75-8.594l3.5,2.344l1.562-3.5l5-1.812v-1.656l-1.062-1.594l-2.125-1.25   l1.062-1.594l-0.906-0.875l1.062-0.344l1.25-1.062l-2.125-0.188l-1.062-1.406l-0.344-3.719l-1.25-1.25l-0.875-3.156H309.5   l-0.875-2.5l-1.406-0.156l-0.719,1.406l-2.812-0.188l-2.656-4.062l-1.062-0.156l-2.125-1.062l-1.25,1.219h-3.156l-1.594-3.344   L285.843,323.719z"
   id="path3223" />
	<path
   fill="#86AAE0"
   stroke="#FFFFFF"
   stroke-width="0.6"
   d="M317.812,326.344l-1.406,0.719v1.219l-2.125,0.188l-1.938,1.594   l-3.531,0.531L308,331.75l0.625,0.062l0.875,2.5h4.438l0.875,3.156l1.25,1.25l0.344,3.719l1.062,1.406l2.125,0.188l-1.25,1.062   l-1.062,0.344l0.906,0.875l-1.062,1.594l2.125,1.25l1.062,1.594v1.656l0.469-0.156l3.531,9l5.062-1.562l0.375-2.344h1.969   l0.781,2.719l3.625-0.875l4.5,5.75l2.812-4.469l5.062-3.719h4.688l1.562-4.875l3.125-0.219l0.219-3.688H361l-0.562-1.375   l-0.781-2.531l1.156-1.969l2.75-1.156l1.156-4.688l-2.531-2.938l-3.125,0.188l0.375-3.719l-6.25-2.719l-2.125,0.188l-4.312,3.531   l-3.938-1.281l-0.781,0.75l-2.469-0.719l-1.75-1.781l-1.062,2.125l-3.031-0.156l-1.406-1.25l-1.062,2.469l-1.938-0.875l-1.25-2.312   h-1.594l-1.406-1.219l-2.125,0.875l-2.469,0.188l-1.406-0.906l-0.875,0.531L317.812,326.344z"
   id="path3225" />
	<path
   fill="#86AAE0"
   stroke="#FFFFFF"
   stroke-width="0.6"
   d="M299.093,279.5l-2.656,3l-0.188-1.062l-2.125,0.188v1.594   l-1.219,0.344l-1.25,3l-1.594,0.719l-2.969-2.312l0.281,4.594l1.562,1.938l0.781,3.719l-2.344,1.75l-0.562,2.75l-2.156,1.156   l-3.719,2.156l0.375,1.75l4.5,4.5l0.406,2.75l-1.781,2.906v2.75l1.188,1.375l0.594,3.312l-0.375,1.344l6,1.75l1.594,3.344h3.156   l1.25-1.219l2.125,1.062l1.062,0.156l2.656,4.062l2.812,0.188l0.719-1.406L308,331.75l0.812-1.156l3.531-0.531l1.938-1.594   l2.125-0.188v-1.219l1.406-0.719l0.375,0.875l0.875-0.531l1.406,0.906l2.469-0.188l2.125-0.875l1.406,1.219h1.594l1.25,2.312   l1.938,0.875l1.062-2.469l1.406,1.25l3.031,0.156l1.062-2.125l1.75,1.781l2.469,0.719l0.781-0.75l-1.531-0.5l-0.594-2.344   l3.719-3.5l-1.75-6.438l-5.094-3.344l-2.125-5.062l-2.344-3.125l0.594-4.312l1.75-1.75l-3.125-2.531l0.094-0.781l-2.75-1.094   l-0.875-2.125l-3,0.156l-2.312-0.531l-0.344-2.469l-1.781-0.875l-2.281,1.406l-2.656-0.531l-1.781,0.188l-6-0.875l-4.938-2.844   l-0.375-1.406l-2.094-2.312l1.406-1.938l-0.531-1.062H299.093z"
   id="path3227" />
	<path
   fill="#86AAE0"
   stroke="#FFFFFF"
   stroke-width="0.6"
   d="M179.219,428.531l-1.938,1.031l0.344,0.031l3.312,5.469l-2.156,1.969   l1.562,2.344l2.344,3.5l-1.938,2.531l-3.125,7.031l-5.281,4.5l1.375,2.75l-1.188,0.781l-2.906-0.594l-0.812,6.438l-1.562,1.188   l-0.312,4.031l0.5-0.281l3.312,1.969l3.906,2.938l0.375,2.344l3.125,2.531h2.562l6.438-2.75l2.719,3.125l3.719,1l1.375-2.344   l1.75,0.781l3.781,0.25l-0.25-10.5h1.969l1.75,0.875l1.25-1.219l-0.188-1.938l2.469-1.438l-0.875-3.688l-1.062-0.906L203.438,463   l1.062-1.781l-0.531-2.281l-3.188-2.312l0.188-1.594l1.781-3l2.281-0.875v-1.25l1.406-2.125l0.938-1.312l-3.562-1.844h-4.781   l-0.719-1.438h-2.469l-0.719-1.594h-2.281l-0.719,0.719h-2.656l-0.156-1.594l-2.125-1.406l0.719-0.719l0.344-1.75l-0.531-0.531   l-1.062-2.844l-2.312-0.344l-2.281-1.25l0.156-3.344H179.219z"
   id="path3229" />
	<path
   fill="#86AAE0"
   stroke="#FFFFFF"
   stroke-width="0.6"
   d="M172.156,428.875l-2.812,1.594l-5.656-0.188l-0.531-0.875l-3.719,1.25   l-2.844,0.875l-2.125-1.594l-2.281,0.719l-0.719-0.906h-2.812l-1.781,0.906l-4.594-0.188l-2.469,1.938l-4.438-0.344l-0.875,1.25   l-1.062-0.375l1.406-1.406l-2.469-1.938l-3,2.656l-5.125,0.344l-5.625-2.812l-0.812,1.438l-4.5,5.469l-3.5,1.375l-2.531,0.375   v2.156l2.344,2.156l3.5,0.188l0.188,2.531l2.75,0.219l0.781-1.781l3.719,1.562l2.344,0.594l0.562,2.344l-1.344,1.188v3.688   l-2.75,1.375l-0.188,1.75l1.75,1.969l3.125,0.969l0.594-2.938l1.75-1.938L126.219,457l1.375,1.969h3.5l1.562,2.125l4.688,0.781   l4.5,2.75h7.406l0.406,4.094l5.062,3.906l1.969,2.344l2.156-1.156l1.938-0.406l0.969,0.969l1.781-0.969l3.406-1.875l0.312-4.031   l1.562-1.188l0.812-6.438l2.906,0.594l1.188-0.781l-1.375-2.75l5.281-4.5l3.125-7.031l1.938-2.531l-2.344-3.5l-1.562-2.344   l2.156-1.969l-3.312-5.469l-5.281-0.375L172.156,428.875z"
   id="path3231" />
	<path
   fill="#86AAE0"
   stroke="#FFFFFF"
   stroke-width="0.6"
   d="M139.812,374.438l-6.188,3.188l-1.594,0.062l-3.469,18.562   l-4.5,17.188l-1.375,6.656l-1.156,4.688l-2.906,5l5.625,2.812l5.125-0.344l3-2.656l2.469,1.938l-1.406,1.406l1.062,0.375   l0.875-1.25l4.438,0.344l2.469-1.938l4.594,0.188l1.781-0.906h2.812l0.719,0.906l2.281-0.719l2.125,1.594l2.844-0.875l3.719-1.25   l0.531,0.875l5.656,0.188l2.812-1.594l-1.375-2.406l1.375-3.719l1.938-2.531l-0.594-3.312l1.562-1.562l-2.312-3.906l1.938-2.344   l2.156-0.406l1.938,0.781l2.75-2.344l0.969,2.938l0.969,1.375l2.156-0.594l-0.188-2.531l0.625-1.375l-0.469-1.219l0.531-3.875   l2.125-2.125l-1.062-1.25l-2.312-0.188l-2.656-1.031l-3.875,0.344l-0.719-4.25l-2.469-3L174.094,390l0.375,3.531v1.062   l-3.375,0.156l-3.531-1.219l-0.719-4.438l-2.469-2.656l-1.75-0.156l-0.188-1.594l-1.938-1.25l-3.188-0.875l0.875-1.062v-1.062   l-1.062-0.875l-1.219-1.062l-3.562,0.531l-2.094,1.75l-1.438,0.188l-2.281-1.594l-3.375,1.406l-1.594-1.062l1.438-1.75l0.156-2.312   L139.812,374.438z"
   id="path3233" />
	<path
   fill="#86AAE0"
   stroke="#FFFFFF"
   stroke-width="0.6"
   d="M141.25,315.219l-3.125,4.688l-0.969,16.406l-2.531,16.594   l-1.781,12.875l-0.188,3.344l1.375-4.5l2.719-3.531l3.906,3.531l0.406,1.156l1.156,1.562l-4.875,0.219l-0.781-1.188l-1.938,0.781   l-0.406,2.938l-2.156,2.938v4.469l-0.031,0.188l1.594-0.062l6.188-3.188l3.344,1.219L143,377.969l-1.438,1.75l1.594,1.062   l3.375-1.406l2.281,1.594l1.438-0.188l2.094-1.75l3.562-0.531l1.219,1.062l1.062,0.875v1.062l-0.875,1.062l3.188,0.875l1.938,1.25   l0.188,1.594l1.75,0.156l2.469,2.656l0.719,4.438l3.531,1.219l3.375-0.156v-1.062L174.094,390l1.062,0.344l2,2.438l3.125-0.5   l1.438-1.406l-0.188-1.938l-1.25-1.062l0.375-1.969h1.938l1.938-1.219l-0.875-1.781l-0.531-2.656l1.406-2.469l3-4.594l1.781-2.125   l1.594-0.531l0.344-1.75l-2.125-0.188l-0.875-1.938l0.688-1.938l2.5-0.531l1.75-0.531l2.062-0.281l-0.125-0.094l-0.156-3.875   l1.938-1.406l-2.469-1.594l-2.469,3l-6.031,0.188l-0.531-1.438l-1.75-0.875l1.406-1.781v-1.938l-0.719-1.062v-1.062l1.781-1.062   l0.531-3.156l1.062-2.844l-1.062-1.594h-1.938l-1.031-1.219l-1,2.094l-1.938-1.375l-2.75,1.375l-2.344-0.375l-4.469-4.5   l-2.75-0.188l-0.781-6.25l-5.094-0.594l-0.188-2.938l-0.969,0.969h-5.781l0.281,1.25l1.375,5.656l0.375,5.656l-0.969,1.562   l-0.969-4.688l-2.75-10.719l-9.969-9l0.219-4.094L141.25,315.219z"
   id="path3235" />
	<path
   fill="#86AAE0"
   stroke="#FFFFFF"
   stroke-width="0.6"
   d="M209.844,310.469l-1.75,3.125l-2.75,0.375l-0.188,4.688l-9.188,6.25   l-0.188,6.844l-3.531,3.5l-1.938,1.781l-3.906-0.406l-2.156,3.719l-0.562,1.219l1.031,1.219h1.938l1.062,1.594l-1.062,2.844   l-0.531,3.156l-1.781,1.062v1.062l0.719,1.062v1.938l-1.406,1.781l1.75,0.875l0.531,1.438l6.031-0.188l2.469-3l2.469,1.594   l-1.938,1.406l0.156,3.875l2.844,1.969l0.344,3.688l3,1.062l1.781-1.594h3.875l2.125-1.75l1.25,0.188l0.344,1.406h3.906   l0.875-1.062l1.406,0.188l1.594,1.75v1.25l-1.406,0.875l0.531,1.25l1.938,0.156l2.469-2.281h2.125l1.406,1.594l3.062,1.281   l0.188-0.5l1.781-1.75l0.188-2.938l4.281-0.375l2.75-3.906l-1.188-0.406l-0.188-2.125l3.312-0.406l0.219-1.938l1.562-1l1.75-3.125   l-1.75-1.938v-2.156l1.344-1.156l-1.75-2.75l0.188-4.281L237,342.688l-1.75-1.188l1.562-1.938l-2.156-1.75l1.562-1.969   l-1.562-0.781v-2.719l3.906-3.531l-2.156-1.75l-1.156-2.938l-4.125-0.594l-1.375-0.969l2.938-1.375l-0.969-1.344l-4.281-0.594   l-1-3.906l-6.25-0.594l-1.375,1.969l-1.344,0.375l-1.781-2.344l0.812-2.156l-1-1.938L209.844,310.469z"
   id="path3237" />
	<path
   fill="#86AAE0"
   stroke="#FFFFFF"
   stroke-width="0.6"
   d="M195.25,363.375l-2.062,0.281l-1.75,0.531l-2.5,0.531l-0.688,1.938   l0.875,1.938l2.125,0.188l-0.344,1.75l-1.594,0.531l-1.781,2.125l-3,4.594l-1.406,2.469l0.531,2.656l0.875,1.781l-1.938,1.219   h-1.938l-0.375,1.969l1.25,1.062l0.188,1.938l-1.438,1.406l-3.125,0.5l0.469,0.562l0.719,4.25l3.875-0.344l2.656,1.031l2.312,0.188   l1.062,1.25l-2.125,2.125l-0.531,3.875l0.469,1.219l0.75-1.562l2.312,1.969l3.125-3.125l1.375,1.938l3.312-0.594l3.531-0.375   l1.562-2.75l5.844-0.562l2.938,2.906l1-0.969l1.938-0.594l-0.781-2.719l2.938-0.781l3.719-0.781l-0.812-2.344l1.188-1.375   l0.969-3.719l-2.156-2.344l1.375-4.469l2.938,1.75l4.312-0.781l-1.969-4.312l-1.562-5.844l3.906-0.188l0.781-2.062l-3.062-1.281   l-1.406-1.594H222l-2.469,2.281l-1.938-0.156l-0.531-1.25l1.406-0.875v-1.25l-1.594-1.75l-1.406-0.188l-0.875,1.062h-3.906   l-0.344-1.406l-1.25-0.188l-2.125,1.75h-3.875L201.312,370l-3-1.062l-0.344-3.688L195.25,363.375z"
   id="path3239" />
	<path
   fill="#86AAE0"
   stroke="#FFFFFF"
   stroke-width="0.6"
   d="M247.469,347.312l-4.156,1.938l-0.594,0.094l0.125,0.188l-1.344,1.156   v2.156l1.75,1.938l-1.75,3.125l-1.562,1l-0.219,1.938l-3.312,0.406l0.188,2.125l1.188,0.406l-2.75,3.906l-4.281,0.375L230.562,371   l-1.781,1.75l-0.969,2.562l-3.906,0.188l1.562,5.844l1.656,3.625l2.5-0.094l0.156,1.031l-1.406,1.594l1.062,2.125h1.594l1.75,1.938   h1.594l1.25-1.406l0.344,0.375v1.75l0.531,2.312l3.719,0.156l3-3.188l1.594-0.156l0.531,0.875l0.875,1.938h1.438l0.531-3.531   l3,0.375l1.75-2.125l2.843,0.688l4.25-1.938l0.031,0.375l1.375-1.438l-1.781-2.656l-0.688-3.531l2.281-1.938l1.062,0.344   l3.188-3.531l1.75,0.188l0.719-0.906h3.531l1.25-1.406l0.344-1.094l-1.594-0.219l1.094-3.312l-2.5-1.094l2.5-5.812l-3.312-2.469   L268.156,352l-3.031-0.812l-2.219,2.188l-1.094-1.938l-3.312,3.312l-2.219,0.281l-3.843-5.5L247.469,347.312z"
   id="path3241" />
	<path
   fill="#86AAE0"
   stroke="#FFFFFF"
   stroke-width="0.6"
   d="M237.219,446.375l-1.25,0.875l-0.531,1.062l2.469,1.781l0.719,1.25   l-0.531,1.031l-4.25,0.375l-1.219,1.75l0.156,0.531l1.594,0.531l0.906,1.25l-1.062,1.75l-1.25-0.156l-1.938-1.781l-2.312-0.688   l-2.281,0.156l-4.062,2.469l0.156,3.375l1.062,0.719l-0.688,2.625l-4.625,1.25l-1.75,2.125v3.531l0.719,1.062l-1.656,1.531   l1.062,0.594l6.031,1.156h2.562l3.312,4.312l8.406-0.406l3.312,5.281l2.938-1.188l8.594,1.188l0.625,3.594l6.062-1.406l2.219-1.938   l3.312-0.844l0.812-1.656l7.188-0.531l-4.406-5.25l-3.594,1.938l-6.344-5.25l1.375-1.938h4.969l-0.562-4.688v-3.594l-0.812-6.656   l-9.687-4.688l0.562-1.656l-1.844-2.062l-1.562,0.656L248,450.094l-3.906-1.781l-1.062-0.344l1.594,1.938l-0.688,1.594   l-3.375-0.344l-0.156-1.781l-1.969-2.656L237.219,446.375z"
   id="path3243" />
	<path
   fill="#86AAE0"
   stroke="#FFFFFF"
   stroke-width="0.6"
   d="M207.875,401.875l-5.844,0.562l-1.562,2.75l-3.531,0.375l-3.312,0.594   l-1.375-1.938l-3.125,3.125l-2.312-1.969l-1.375,2.938l0.188,2.531l-2.156,0.594l-0.969-1.375l-0.969-2.938l-2.75,2.344   l-1.938-0.781l-2.156,0.406l-1.938,2.344l2.312,3.906l-1.562,1.562l0.594,3.312l-1.938,2.531l-1.375,3.719l1.562,2.75l4.938,0.344   l1.938-1.031h3l-0.156,3.344l2.281,1.25l2.312,0.344l1.062,2.844l0.531,0.531l-0.344,1.75l-0.719,0.719l2.125,1.406l0.156,1.594   h2.656l0.719-0.719h2.281l0.719,1.594h2.469l0.719,1.438h4.781l3.562,1.844l0.312-0.438l1.938-1.062l3.531-4.594l6.562,0.531   l2.812,1.938l0.906-1.25l1.406-4.219l1.75-4.062l3.719-1.594l1.781-0.719l-0.531-1.594l-1.781-0.188l-0.688-1.75h-1.438   l-2.281-2.312l0.156-1.594l-3-3L222,418.656l-1.938,0.844l-0.531-1.062l1.25-1.938l-1.438-1.406v-2.469l-1.219-1.25l-3.906-0.188   v-2.281l2.125-1.594v-1.781l2.312-1.062l-1.25-0.688L216,404.469h-2.844l-0.875-0.812l-0.469,0.156l-1,0.969L207.875,401.875z"
   id="path3245" />
	<path
   fill="#86AAE0"
   stroke="#FFFFFF"
   stroke-width="0.6"
   d="M245,412.438l-2.844,1.062l-0.875,1.406l-1.062-1.219l-1.938-0.188   l-0.375,1.781l-1.219,0.5l1.75,0.906l-1.219,1.938l-4.438,1.25l-1.938-2.312h-1.75l-1.438,0.875h-5.125L222,418.656l0.531,1.906   l3,3l-0.156,1.594l2.281,2.312h1.438l0.688,1.75l1.781,0.188l0.531,1.594l-1.781,0.719l-3.719,1.594l-1.75,4.062l-1.406,4.219   l-0.906,1.25l-2.812-1.938l-6.562-0.531l-3.531,4.594l-1.938,1.062l-1.25,1.75l-1.406,2.125v1.25l-2.281,0.875l-1.781,3   l-0.188,1.594l3.188,2.312l0.531,2.281L203.438,463l2.125-0.719l1.062,0.906l0.875,3.688l-2.469,1.438l0.188,1.938l-1.25,1.219   l-1.75-0.875h-1.969l0.25,10.5l7.938,0.531l0.406-9.594l2.719,0.406l4.031,2.344l1.656-1.531l-0.719-1.062v-3.531l1.75-2.125   l4.625-1.25l0.688-2.625l-1.062-0.719l-0.156-3.375l4.062-2.469l2.281-0.156l2.312,0.688l1.938,1.781l1.25,0.156l1.062-1.75   l-0.906-1.25l-1.594-0.531l-0.156-0.531l1.219-1.75l4.25-0.375l0.531-1.031l-0.719-1.25l-2.469-1.781l0.531-1.062l1.25-0.875   l1.219,0.344l1.969,2.656l0.156,1.781l3.375,0.344l0.688-1.594l-1.594-1.938l1.062,0.344l3.906,1.781l2.125-0.344l1.562-0.656   l-0.375-0.406l2.5-1.125l0.531-3.031l3.062-1.375l-0.844-1.938l2.781-2.5l1.375,2.5l4.125-1.375l0.781-0.125l0.062-1.281v-2.5   l-2.125,0.375l-2.656-0.719l-2.312-2.812l-0.875-1.25l-4.593-1.938L252.062,428l1.406-0.531v-1.938l-1.406-1.594l-1.781-2.844   l-0.156-2.469l-0.531-0.344l-2.125-2.5l-0.875-2.625L245,412.438z"
   id="path3247" />
	<path
   fill="#86AAE0"
   stroke="#FFFFFF"
   stroke-width="0.6"
   d="M220.188,384.688l-1.375,4.469l2.156,2.344L220,395.219l-1.188,1.375   l0.812,2.344l-3.719,0.781l-2.938,0.781l0.781,2.719l-1.469,0.438l0.875,0.812H216l1.406-0.688l1.25,0.688l-2.312,1.062v1.781   l-2.125,1.594v2.281l3.906,0.188l1.219,1.25v2.469l1.438,1.406l-1.25,1.938l0.531,1.062l2.469-1.062h5.125l1.438-0.875h1.75   l1.938,2.312l4.438-1.25l1.219-1.938l-1.75-0.906l1.219-0.5l0.375-1.781l1.938,0.188l1.062,1.219l0.875-1.406l2.844-1.062   l1.281,0.594l1-1.656l-1.75-1.938h3.344l1.062-1.938l2.312-2.125h-2.312l0.719-3l6-0.719l2.312-1.406l2.812-1.062l0.906-0.906   l-1.094-2.812l1.594-3.188l-2.812-0.188l-0.344-4.406l-4.25,1.938l-2.843-0.688l-1.75,2.125l-3-0.375l-0.531,3.531h-1.438   l-0.875-1.938l-0.531-0.875l-1.594,0.156l-3,3.188l-3.719-0.156l-0.531-2.312v-1.75l-0.344-0.375l-1.25,1.406h-1.594l-1.75-1.938   h-1.594l-1.062-2.125l1.406-1.594l-0.156-1.031l-2.5,0.094l0.312,0.688l-4.312,0.781L220.188,384.688z"
   id="path3249" />
	<path
   fill="#86AAE0"
   stroke="#FFFFFF"
   stroke-width="0.6"
   d="M294.687,353.375l-5.531,4.719v4.688h-1.375l-0.562,4.406   l-1.375,0.562l-1.094,2.469h-6.094l-0.531-0.812h-2.781l-1.656,2.75l-0.594-0.062l-0.344,1.094l-1.25,1.406h-3.531l-0.719,0.906   l-1.75-0.188l-3.188,3.531l-1.062-0.344l-2.281,1.938l0.688,3.531l1.781,2.656l-1.375,1.438l0.312,4.031l2.812,0.188l-1.594,3.188   l1.25,3.188l1.594-0.906l0.719,1.594l2.281-2.281l3.375-0.188l3.344,2.469l5.844,1.062l2.125,3.719l3,1.406l1.594,4.062   l-0.188,1.594l1.938,3.562v1.938l3.531,4.594l3.375,1.75l2.125-0.531l1.062-1.406l1.594,0.375l3.656,2.344h0.031h1.625h3.312   l-0.281-5.781v-1.938h1.656l3.031,1.656h3.031l-0.531-3.312l1.656-1.406l3.312-0.531v-2.781l3.594-1.656l-0.844-3.844h-3.031   l-2.75-0.562l-0.562-2.219l2.219-0.531v-2.781l2.188-1.938l-1.656-0.812l-4.688,0.812l0.281-2.188l-3.312-1.406l-0.844-6.625   v-4.688l-2.75-1.938l0.281-3.875l-5.812-7.156l-0.562-5.531H300.5l-0.844-5.531l-3.875,0.562l-0.531-3.594L294.687,353.375z"
   id="path3251" />
	<path
   fill="#86AAE0"
   stroke="#FFFFFF"
   stroke-width="0.6"
   d="M270.812,396.875l-3.375,0.188l-2.281,2.281l-0.719-1.594   l-1.594,0.906l-0.156-0.375l-0.906,0.906l-2.812,1.062l-2.312,1.406l-6,0.719l-0.719,3h2.312l-2.312,2.125l-1.062,1.938h-3.344   l1.75,1.938l-1,1.656l0.312,0.125l0.875,2.625l2.125,2.5l0.531,0.344l0.156,2.469l1.781,2.844l1.406,1.594v1.938L252.062,428   l1.062,1.594l4.593,1.938l0.875,1.25l2.312,2.812l2.656,0.719l2.125-0.375v2.5l-0.062,1.281l1.156-0.156l-0.281,1.375h3.875   l3.594,1.125l0.281-3.594h1.656l6.062,1.094h5.812l4.406-1.375l1.125-3.594l-3.031-2.781l0.812-2.75l1.656-2.469l2.75,1.906   l7.188-2.469l1.125-2.219l-3.656-2.344l-1.594-0.375L297.5,422.5l-2.125,0.531l-3.375-1.75l-3.531-4.594v-1.938l-1.938-3.562   l0.188-1.594l-1.594-4.062l-3-1.406L280,400.406l-5.844-1.062L270.812,396.875z"
   id="path3253" />
	<path
   fill="#86AAE0"
   stroke="#FFFFFF"
   stroke-width="0.6"
   d="M383.281,262.594l-2.156,0.219l-1.375,2.531l-3.688,14.438   l-0.531,1.188l-0.375,4.562L374.093,287v6.594l-0.625,1.5l3.812,2.312l1.5,0.219l2.344,2.125l0.406,3.406l2.562-0.844l3.969,1.156   l0.062-0.75h1.906l2.75,2.562l2.562-1.281l1.281-3.812l1.281-1.5l1.688,0.219l1.688,1.5l0.875,2.75l7.844,9.562l2.344-1.688   l0.406-3.625l2.562-0.438v-6.375l1.281-1.062l0.406-5.719l0.5,0.406l-0.062-2.094l-1.062-1.938l0.438-5.5l1.906,1.062l1.062-1.938   l1.906-0.625l1.969-1.562h-2.125v-3.719l2.344-1.375l3.5-0.375l0.219-1.969l-1.188-0.781l2.938-3.719l-0.406-1.156l-3.344-1.781   l-8.125,8.938h-5.656v-2.344l-3.125-1.562l-3.719,4.094l-2.938,0.406v-2.75l-2.531-1.156l-3.906-5.469l-3.531-1.375L390.906,263   l-1.969-0.406L387,263.969l-1.562,0.406L383.281,262.594z"
   id="path3255" />
	<path
   fill="#86AAE0"
   stroke="#FFFFFF"
   stroke-width="0.6"
   d="M397.906,298.688l-1.281,1.5L395.343,304l-2.562,1.281l-2.75-2.562   h-1.906l-0.219,2.781l2.781,2.344l-4.25,5.5l-5.531,1.281l-4.25,1.5l2.75,2.75l0.656,1.281l-4.25,2.125l-0.438,6.156l-0.125,0.062   l1.188,2.469l3.406,1.062l2.344-0.844l2.75-1.906l3.625,2.969h2.969l2.125,2.969l-0.875,2.125l0.438,3l-1.062,2.969l0.438,1.062   l1.469-0.438l3.406,1.062l4.469,1.281l1.906-1.281l0.844-1.469h0.656l0.188,15.906l1.062,1.062h2.781l2.531,1.5l1.906,1.5   l1.938,0.188l1.25,1.062l3.531,0.406l0.25-0.594l-1.562-0.781v-2.344h4.875l1.562-1.562l-0.969-1.75l2.531-1.969l1.781,0.781   l2.531-2.156l4.469,0.781l1.562-1.75l3.719,0.188v-4.281l-1.562-0.781l-0.781-2.531L434.843,346l-0.594-0.969l0.781-4.094   l1.375-1.188l-1.125-1.531l-2.125-1.281l-1.281,1.281l0.438-1.719v-1.688l-1.719-1.719l0.875-4.031l1.906-1.062l-0.219-2.75   l-4.031-4.031h-1.5l-1.062,1.469l-2.531-3.375l-1.5,0.188l-1.281,2.781l0.875,1.688l-0.656,0.656l-1.688-1.281l-4.906-1.062   l-2.312-4.25v-1.719l-2.344-2.531l-0.25-1.094l-7.812-9.531l-0.875-2.75l-1.688-1.5L397.906,298.688z"
   id="path3257" />
	<path
   fill="#86AAE0"
   stroke="#FFFFFF"
   stroke-width="0.6"
   d="M446.125,266.188l-4.469,0.781l-4.312,3.5l-1.156-1.75l-2.156,0.188   l-1.969,4.312l0.219,1.75l2.125,1.75l-3.906,2.562l-2.531,2.344h-4.312l-1.969,1.562l-1.906,0.625l-1.062,1.938l-1.906-1.062   l-0.438,5.5l1.062,1.938l0.062,2.094l1.625,1.281v5.531l3.844,0.625l1.469,2.781l3.406,0.406l0.625-1.25h1.719l2.969,3.188   l1.062,1.062l3.406-0.656l0.844-1.688l0.844-3.406l1.906-1.5l1.5-4.438l1.906-1.281l1.5,0.406l0.406,1.281l-1.062,1.281   l1.906,2.344h3.188l1.938,3.188l-0.438,1.062l1.906-1.281l1.5-1.688l1.312,0.156l0.094-3.406l6.656-2.75l0.781-1.938l-0.406-4.312   l-4.281-4.469l-1.375,0.781v-1.781v-2.906l-3.719-1.781l-0.188-1.562l2.156-2.344v-2.719l-3.531-3.719l-0.188-2.531H446.125z"
   id="path3259" />
	<path
   fill="#86AAE0"
   stroke="#FFFFFF"
   stroke-width="0.6"
   d="M339.531,278.031L336,278.625l-0.562,2.156l1.375,2.719l0.375,11.125   l-4.688,0.219l-0.188,1.75l3.125,2.531l-1.75,1.75l-0.594,4.312l2.344,3.125l2.125,5.062l5.094,3.344l1.75,6.438l-3.719,3.5   l0.594,2.344l5.469,1.781l4.312-3.531l2.125-0.188l6.25,2.719l-0.375,3.719l3.125-0.188l2.469,2.844l1.812-0.5l3.375-0.625   l0.875-3.844l4.656-2.75l0.438-6.156l0.156-0.094l-2.281-0.344l-2.125,0.844l-1.719-1.062l2.125-2.531l-0.625-1.906l-6.594-1.062   l-5.531-5.094v-1.719l1.281-1.062v-1.469l-1.469-0.875l1.25-1.906v-2.75l-2.531-2.344v-2.344l-1.719-1.688v-1.906l-0.844-3.188   l1.281-1.281l0.219-3.812h4.031l1.062-1.281l-1.281-2.125v-1.906l-1.062-0.844l-0.75,4h-2.156l-1.562,1.562l-1.188-1.188   l-6.25-0.969l-2.344,1.375h-1.562l-0.375-1.375l-2.938-0.594l-0.188-3.125L339.531,278.031z"
   id="path3261" />
	<path
   fill="#86AAE0"
   stroke="#FFFFFF"
   stroke-width="0.6"
   d="M371.75,275.312l-2.125,0.188l-1.781,1.75l-1.156-1.562l-1.75,1.562   l-2.375-1.562h-1.938l-0.781,0.594l-0.406,2.25l1.062,0.844v1.906l1.281,2.125l-1.062,1.281h-4.031l-0.219,3.812l-1.281,1.281   l0.844,3.188v1.906l1.719,1.688v2.344l2.531,2.344V304l-1.25,1.906l1.469,0.875v1.469l-1.281,1.062v1.719l5.531,5.094l6.594,1.062   l0.625,1.906l-2.125,2.531l1.719,1.062l2.125-0.844l2.281,0.344l4.094-2.031l-0.656-1.281l-2.75-2.75l4.25-1.5l5.531-1.281   l4.25-5.5l-2.781-2.344l0.156-2.031l-3.969-1.156l-2.562,0.844l-0.406-3.406l-2.344-2.125l-1.5-0.219l-3.812-2.312l0.625-1.5V287   l1.062-1.469l0.375-4.562l-0.656,1.562l-1.375-0.188l-0.75-3.906L371.75,275.312z"
   id="path3263"
   style="fill:#f22f11;fill-opacity:1" />
	<path
   fill="#86AAE0"
   stroke="#FFFFFF"
   stroke-width="0.6"
   d="M417,293.812l-0.406,5.719l-1.281,1.062v6.375l-2.562,0.438   l-0.406,3.625L410,312.719l-0.031-0.031l0.25,1.094l2.344,2.531v1.719l2.312,4.25l4.906,1.062l1.688,1.281l0.656-0.656   l-0.875-1.688l1.281-2.781l1.5-0.188l2.531,3.375l1.062-1.469h1.5l4.031,4.031l0.219,2.75l-1.906,1.062l-0.875,4.031l1.719,1.719   v1.688l-0.438,1.719l1.281-1.281l2.125,1.281l1.125,1.531l3.531-0.375l1.156,1.156l0.594,2.75l3.5-0.406l0.406-2.938l1.75-0.781   l3.75,0.188l-0.062-0.125l5.844-2.344l2.156,1.375h2.156l0.188-2.344l2.531-1.375l0.969-1.156l5.094-1.969l0.594-3.312l-1-1.562   l2.75-4.688l-2.531-0.969l-0.781-2.75L463.718,315c0,0,0.316-5.987-0.188-7.062c-0.016-0.027-0.049-0.077-0.062-0.094   c-0.004-0.006-0.025-0.026-0.031-0.031c-0.004,0-0.027,0-0.031,0c0-0.007,0-0.029,0-0.031c-0.004,0-0.027,0-0.031,0   c-0.002,0-0.027,0-0.031,0s-0.027,0-0.031,0c-0.781,0.195-3.688,0.406-3.688,0.406l-2.938-3.344l0.094-3.219l-1.312-0.156   l-1.5,1.688l-1.906,1.281l0.438-1.062l-1.938-3.188h-3.188l-1.906-2.344l1.062-1.281l-0.406-1.281l-1.5-0.406l-1.906,1.281   l-1.5,4.438l-1.906,1.5l-0.844,3.406l-0.844,1.688l-3.406,0.656l-1.062-1.062l-2.969-3.188h-1.719l-0.625,1.25l-3.406-0.406   l-1.469-2.781l-3.844-0.625V295.5L417,293.812z"
   id="path3265" />
	<path
   fill="#86AAE0"
   stroke="#FFFFFF"
   stroke-width="0.6"
   d="M375.25,328.5l-4.531,2.688l-0.875,3.844l-3.375,0.625l-1.812,0.5   l0.062,0.094l-1.156,4.688l-2.75,1.156l-1.156,1.969l0.781,2.531l0.562,1.375h-2.906l-0.219,3.688l-3.125,0.219l-1.562,4.875H348.5   l-5.062,3.719l-2.812,4.469l0.469,0.594l1.375,7.188l3.312,3.594l-0.562,4.125l4.156,2.5v5.531l2.219-1.125l4.688,3.062   l2.219,0.812l0.531-3.875l2.781-0.531l0.812,3.031l2.781-0.281l0.531-3.031l6.344,3.562l1.031-2.094l2.688-0.406l0.219-4.125   l-0.625-0.875l-0.844-0.188v-1.5l0.625-1.5l-1.062-1.688l0.625-3.812l2.562-3v-4.219l-1.062-4.906l1.906-0.406l0.438-2.125   l1.906-3.625l1.062-2.75l-1.688-4.25L379,345.219l-1.5-5.938v-7.969l-1.062-0.344L375.25,328.5z"
   id="path3267" />
	<path
   fill="#86AAE0"
   stroke="#FFFFFF"
   stroke-width="0.6"
   d="M384.937,329.281l-2.75,1.906l-2.344,0.844l-2.344-0.719v7.969   l1.5,5.938l1.062,3.406l1.688,4.25l-1.062,2.75l-1.906,3.625l-0.438,2.125l-1.906,0.406l1.062,4.906v4.219l-2.562,3l-0.625,3.812   l1.062,1.688l-0.625,1.5v1.5l0.844,0.188l0.625,0.875L376,387.594l2.594-0.375l1.156,1.375l-0.562,3.906l0.781,0.969l2.906-2.938   l2.562-0.188l0.562-1.562l-3.312-0.406l-0.562-3.5l2.125-3.312l2.75-0.219l2.719,2.562L387,387.594l0.781,1.375l3.906,0.406   l2.531-2.156l-1.375,2.938l0.406,2.344l4.094,0.375l5.469,0.406l0.781,2.531l2.938,2.156l2.531,0.188l1.75-1.562l1-2.938   l1.562,1.375l1.156,1.375l0.781-7.25l-1.938-0.375l-1.188-2.531l-6.625-1.781l-0.812-3.312l2.375-1.562l-1.969-1.375l0.406-1.75   l3.125,0.188l2.719,1.375l2.156-2.531l-2.156-1.75l0.188-2.344l1.188-3.719l4.094-0.406l3.312-1.344l0.344-0.781L417,364.75   l-1.25-1.062l-1.938-0.188l-1.906-1.5l-2.531-1.5h-2.781l-1.062-1.062l-0.188-15.906h-0.656L403.843,345l-1.906,1.281L397.468,345   l-3.406-1.062l-1.469,0.438l-0.438-1.062l1.062-2.969l-0.438-3l0.875-2.125l-2.125-2.969h-2.969L384.937,329.281z"
   id="path3269" />
	<path
   fill="#86AAE0"
   stroke="#FFFFFF"
   stroke-width="0.6"
   d="M149.312,270.625l-2.75,0.188l-5.969,3.625l1.438,1.312l-3.125,2.531   l-0.375,1.969l-2.938,0.375l-1.562-1.75l-3.906-0.375l-0.406-1.969l-2.344-1.562l-3.312,1.188l2.156,3.125h2.719l2.75,1.75   l2.156,1.75l4.094-0.188l0.781,1.75l2.719,0.594l1,2.719l1.75,0.781L144,290.594l-2.344-0.375l-0.781,1.156l1.75,2.531   l-0.969,4.312l-2.344-0.188l0.188,2.719l0.594,0.969h-2.75l-0.375-1.562l1.75-2.344l-0.594-1.344l-0.969-0.781L136.75,291   l-3.312-0.406l-2.719-3.312l-0.406,6.844l4.5,3.312l0.375,3.719l0.781,4.281l0.406,4.312l2.344-0.219l4.094,3.344l2.75,1.562   l0.188,1.938l2.156,0.406l6.25,6.25l1.469,6.75h5.781l0.969-0.969l0.188,2.938l5.094,0.594l0.781,6.25l2.75,0.188l4.469,4.5   l2.344,0.375l2.75-1.375l1.938,1.375l1.562-3.312l1.562-2.719l-4.156-2.812l-1.281-1.719l-1.719-1.906l-4.031,0.656l-1.281-0.656   l-0.188-1.062l2.125-0.844v-0.406l-1.5-0.438l-1.062-0.844l2.562-2.125v-1.5L174,322.688l0.844-0.844l0.438-2.125l-1.5-1.469   l-1.281-2.125L170.188,314l-1.719-1.062l1.5-1.719l-0.844-0.188l-0.219-4.469l-1.719-0.656l2.344-1.25h2.781l1.25-1.062h2.344   l0.438,1.062l2.125,0.188l1.469-0.625l0.438-4.031l1.688-6.156l0.062-0.031l-1.531-1.469l-0.438-2.125l-2.75-1.281l-3.625-2.531   L169.312,287l-2.75-3.594l-4.031-0.219l-3.188-2.344v-1.281l-2.125-2.312l-0.094-2.875l-2.938-2.188l-3.719,1.562L149.312,270.625z   "
   id="path3271" />
	<path
   fill="#86AAE0"
   stroke="#FFFFFF"
   stroke-width="0.6"
   d="M265.75,307.625l-0.844,2.125l-3.188,0.625l-1.25,2.125h-1.5   l-2.125-0.625l-1.5,2.531l-2.312,0.219l-1.5,2.75h-1.906l-1.5,1.5l-3.812-0.438l-1.281,2.125l-1.469-0.188L239,323.562   l-2.344-0.875l-1.094,2.219l0.844,2.156l2.156,1.75l-3.906,3.531v2.719l1.562,0.781l-1.562,1.969l2.156,1.75l-1.562,1.938   l1.75,1.188l4.281-0.188l-0.188,4.281l1.625,2.562l0.594-0.094l4.156-1.938l4.969,2.219l3.843,5.5l2.219-0.281l3.312-3.312   l1.094,1.938l2.219-2.188l3.031,0.812l0.094,0.656l2.531-1.781L270,348.938l-1.188-1.188l1.562-1.938h1.562l1-3.125l0.781-1.562   l-0.594-3.531l2.531-3.5l3.531-2.156l0.188-5.469l1.75,0.969l1.969,2.156h1.938l1.188-1.375l-0.969-2.344l0.969-3.5l-0.594-3.312   l-1.188-1.375v-2.75l1.781-2.906l-0.406-2.75l-0.438-0.438l-1.969,1.531h-3.844l-1.25,1.906h-2.344l-1.906-1.906l-0.875-1.281   h-4.875l-1.062-1.469H265.75z"
   id="path3273" />
	<path
   fill="#86AAE0"
   stroke="#FFFFFF"
   stroke-width="0.6"
   d="M256.125,267.875L254.968,271l-3.531-0.188l-0.781-0.406l-2.344,0.219   l-1.75-1.188l-3.375,3.875l0.062,2.875l-2.344,4.656l0.438,2.344l2.531,0.625l1.719,4.25l1.688,1.719l-0.625,8.062l3.594-1.062   l1.5,1.906l-2.344,1.906v1.938l1.906,0.188l3.406-0.188l1.062-1.5h0.844l-0.406,2.562l2.75,1.25l2.562,1.719v1.062h-1.5   l0.438,2.531l1,0.625l0.25-0.406l3.188-0.625l0.844-2.125h1.5l1.062,1.469h4.875l0.875,1.281l1.906,1.906h2.344l1.25-1.906h3.844   l1.969-1.531l-4.062-4.062l-0.375-1.75l3.719-2.156l2.156-1.156l0.562-2.75l2.344-1.75l-0.781-3.719l-1.562-1.938L287,283.5   l-2.156-5.062l-2.156-0.781l-1.562-2.75l-1.375,1.75l-1.344-1.75v-2.344l-2.344-3.312l-6.438,0.781l-3.719-0.969L256.125,267.875z"
   id="path3275" />
	<path
   fill="#86AAE0"
   stroke="#FFFFFF"
   stroke-width="0.6"
   d="M239.531,270.812l-1.75,1.75l-4.906-0.375l-0.562-0.125l-3.719,0.688   l-2.156,1.781v2.344l-4.281,0.188L219.625,280l-1.562,1.156l1.344,1.562L219.219,288l-0.969,1.75l1.562,1.75l2.719,0.219   l0.594,2.719l0.188,1.75l-3.5,0.781l-1.75,0.594l0.375,4.875L216.094,304l-1.969,0.594l-0.969,2.75l-1.562,0.188l-0.656,2.969   l4.562,0.156l1,1.938l-0.812,2.156l1.781,2.344l1.344-0.375l1.375-1.969l6.25,0.594l1,3.906l4.281,0.594l0.969,1.344l-2.938,1.375   l1.375,0.969l4.125,0.594l0.312,0.781l1.094-2.219l2.344,0.875l2.562-3.188l1.469,0.188l1.281-2.125l3.812,0.438l1.5-1.5h1.906   l1.5-2.75l2.312-0.219l1.5-2.531l2.125,0.625h1.5l1-1.719l-1-0.625l-0.438-2.531h1.5v-1.062l-2.562-1.719l-2.75-1.25l0.406-2.562   h-0.844l-1.062,1.5l-3.406,0.188l-1.906-0.188v-1.938l2.344-1.906l-1.5-1.906l-3.594,1.062l0.625-8.062l-1.688-1.719l-1.719-4.25   l-2.531-0.625l-0.438-2.344l2.344-4.656l-0.062-2.875l-0.531,0.625L239.531,270.812z"
   id="path3277" />
	<path
   fill="#86AAE0"
   stroke="#FFFFFF"
   stroke-width="0.6"
   d="M188.75,225.688l-3.719,3.906l-0.938,1.625l0.312,4.812l1.688-0.219   l0.219,2.125l0.656,3.406l1.062,2.344l-1.281,1.469l0.625,1.062l-0.844,1.5v0.625l1.5,1.719v1.062l-0.656,1.688L185.25,256   l2.125,0.844l0.656,1.5l-0.875,2.312l-0.188,1.062l-1.281,2.125v1.5l0.844,0.219v4.469l1.5,1.062l-0.656,1.469l0.219,1.281   l1.688,1.906l0.875-1.281v-1.062l1.688-0.844l1.281,0.844v3.188l-1.281,1.5l-1.062,2.531l1.469,2.344l3,0.844l-0.656,1.938   l-2.781,0.469l2.562,3.125l3.406-0.219l2.969-1.062l3,1.719l1.062-0.844l-0.219-2.781l1.688-1.281l1.5,2.562l1.25,1.281l3.625-1.5   l1.5-1.688h3.375l1.75,0.875l0.125-3.688l-1.344-1.562l1.562-1.156l2.531-2.938l4.281-0.188v-2.344l2.156-1.781l5.281-0.969   l0.375-2.938l-2.125-1.156l-1.188-4.094l-3.125-0.406l-1.938-1.938l-3.719-2.938l0.781-2.344v-3.719l-3.531-3.5l-0.375-2.75   l-3.344-3.5l-1.156-4.688l-1.375-0.594l-1.562-2.156l-1.562,0.969l0.406,2.156l-5.094,1.188H199.5l0.188-2.344v-3.719L195,231.938   v-2.344l-3.719-0.781l-0.781-3.125H188.75z"
   id="path3279" />
	<path
   fill="#86AAE0"
   stroke="#FFFFFF"
   stroke-width="0.6"
   d="M206.281,284.875l-1.688,1.281l0.219,2.781l-1.062,0.844l-3-1.719   l-2.969,1.062l-3.406,0.219l-2.562-3.125L191,286.375l-3.406,1.688l-2.562,0.656v1.469l-1.469,1.719l0.406,1.062l-1.906,1.062   l-1.688,6.156l-0.438,4.031l-1.469,0.625l-2.125-0.188l-0.438-1.062h-2.344l-1.25,1.062h-2.781l-2.344,1.25l1.719,0.656   l0.219,4.469l0.844,0.188l-1.5,1.719l1.719,1.062l2.312,2.125l1.281,2.125l1.5,1.469l-0.438,2.125L174,322.688l1.281,1.281v1.5   l-2.562,2.125l1.062,0.844l1.5,0.438v0.406l-2.125,0.844l0.188,1.062l1.281,0.656l4.031-0.656l1.719,1.906l1.281,1.719l4.156,2.812   l0.594-1l3.906,0.406l1.938-1.781l3.531-3.5l0.188-6.844l9.188-6.25l0.188-4.688l2.75-0.375l1.75-3.125l1.094,0.031l0.656-2.969   l1.562-0.188l0.969-2.75l1.969-0.594l2.344-1.562l-0.375-4.875l1.75-0.594l3.5-0.781l-0.188-1.75l-0.594-2.719l-2.719-0.219   l-1.562-1.75l0.969-1.75l0.062-1.594l-1.75-0.875h-3.375l-1.5,1.688l-3.625,1.5l-1.25-1.281L206.281,284.875z"
   id="path3281" />
	<path
   fill="#86AAE0"
   stroke="#FFFFFF"
   stroke-width="0.6"
   d="M181.719,229.406l-5.281,0.188l-4.875,0.969l-5.281,0.406v2.719   l-2.719,1.781l-6.062-1.375l-4.094,1.75l1.938,2.75v2.344l4.688,3.906l-1.156,2.531l3.125,3.5l-1.375,1.781l1.938,2.906   l0.594,5.469L162,262.594l1.375,2.344L162,267.5l0.188,1.562l1.562-1.188l1.938,1.969l-2.719,1.75L162,272.75l-2.156,0.594   l-2.531,1.188l-0.188-0.156l0.094,2.875l2.125,2.312v1.281l3.188,2.344l4.031,0.219l2.75,3.594l4.469-0.406l3.625,2.531l2.75,1.281   l0.438,2.125l1.531,1.469l1.844-1.031l-0.406-1.062l1.469-1.719v-1.469l2.562-0.656l3.406-1.688l3.594-0.625l0.656-1.938l-3-0.844   l-1.469-2.344l1.062-2.531l1.281-1.5v-3.188l-1.281-0.844l-1.688,0.844v1.062l-0.875,1.281l-1.688-1.906l-0.219-1.281l0.656-1.469   l-1.5-1.062v-4.469l-0.844-0.219v-1.5l1.281-2.125l0.188-1.062l0.875-2.312l-0.656-1.5L185.25,256l2.125-3.188l0.656-1.688v-1.062   l-1.5-1.719v-0.625l0.844-1.5l-0.625-1.062l1.281-1.469l-1.062-2.344l-0.656-3.406l-0.219-2.125l-1.688,0.219l-0.312-4.812   l-0.406,0.719l-1.375-1.156L181.719,229.406z"
   id="path3283" />
	<path
   fill="#86AAE0"
   stroke="#FFFFFF"
   stroke-width="0.6"
   d="M69.781,123.219L68,124.594l-4.469,0.562l-1,1.375l-3.125-2.344   l-4.094,2.75l1.562,2.125l-2.719,3.719l-0.125-0.062l-1.125,5.25l2.406,0.156l-0.156,2.094l1.781,1.125l-1.625,1.625l-1.125,0.812   l0.156,1.906l2.438,0.812l-2.281,0.656v2.406l1.469,1.938l0.312,5.656l-0.969,0.969l0.812,2.906l3.062,0.812l0.312,1.594   l1.938,0.156l1.625-1.125l0.969,0.969l3.719,1.625l3.062-1.625l0.781-1.594l2.594-0.188l2.906,2.594l2.75-0.656l2.406,2.438h1.125   l1.125,1.438h2.281l0.781-1.125l0.969,2.094l2.438,0.969l3.062-1.938v-2.094l2.25-0.812h1.438l1.781,3.25l3.875,0.312l1.938-2.438   l2.094-4.5l2.75-0.969l1.438-2.094l1.469,1.438l3.062-0.625l0.969-8.875l0.969-3.562l-0.969-1.938l-1.625-0.625l-1.094-5.906   l-1.25,1.406l-3.719-0.406l-0.375,2.156l-2.344,0.188l-0.188-2.719l-1.969-0.594l-1.375,1.562v-3.906l-2.344,1.75l-3.5-0.594   l-1.188,2.344l-7.219,3.906v1.969h-1.562v-3.531l-4.094-1.938l0.375-3.531l-3.688-2.719v-3.312l-2.75-0.594l0.188-3.125   l-2.125-0.188L75.438,124h-3.906l-0.594,1.938L69.781,123.219z"
   id="path3285" />
	<path
   fill="#86AAE0"
   stroke="#FFFFFF"
   stroke-width="0.6"
   d="M138.531,229.562l-1.125,2.094h-3.219l1.281,1.312l-0.969,3.219   l-2.906,0.969l-1.125-0.812l0.5-3.219l-0.812-1.781h-1.781l-1.281,1.438l0.625,4.531l1.469,2.094l-1.469,1.625l-2.719-0.5   l-4.031-0.969l-1.125-3.062l-2.594-0.312l-3.375-1.469l-0.812-1.938l-3.688-2.406l-5.812,7.5l-0.188,4.688l6.031,5.844l-0.188,1.75   h1.75l3.719,11.156l3.906,1.938l3.906,3.906h4.5l1.75,3.906h4.312L135,274l4.312,2.156l0.188-2.75l1.094,1.031l5.969-3.625   l2.75-0.188l1.156,3.125l3.719-1.562l3.125,2.344l2.531-1.188L162,272.75l0.969-1.156l2.719-1.75l-1.938-1.969l-1.562,1.188   L162,267.5l1.375-2.562L162,262.594l1.156-1.562l-0.594-5.469l-1.938-2.906l1.375-1.781l-3.125-3.5l1.156-2.531l-4.688-3.906   v-2.344l-1.938-2.75l0.375-0.156l-2.656-2.25h-5l-1.625-0.969l-2.25-0.312l-2.594-2.438L138.531,229.562z"
   id="path3287" />
	<path
   fill="#86AAE0"
   stroke="#FFFFFF"
   stroke-width="0.6"
   d="M119.562,77.5l-0.781,1.969l4.125,3.312v4.312l-1.562,1.938   L122.312,90l0.594,0.406l-0.406,3.719l1.375,3.125l4.5,5.062l0.969,4.5l0.969,1.375v7.031l2.344,4.688v5.469l-2.531,5.062   l2.719,7.031l4.312,0.969l0.375,1.969l-2.125,0.969h-3.688l0.594,2.469l1.156,3.719l3.344,2.938l1.562,0.375l1.562-2.125   l1.75-0.219l2.125-2.531l1.969,1.562h2.344l1.562,0.781v0.375l3.312,0.406l1.969-1.562l2.906,1.188l0.062,0.125l3.344-2.844   l1.125-3.719l-0.312-1.625l0.469-1.906l-1.938-1.938l-5-3.25l-3.688-0.312l-3.719-4.688l3.062-1.125l1.281-2.406l-1.594-1.469   l1.438-1.281l1.438,1.125l2.594-1.594l1.625-2.594l0.625-2.562l-1.125-2.281l0.656-0.812l-1.469-2.406l1.625-2.094l-1.281-1.625   l-1.625,2.094l-2.25-1.281l-3.719-3.719l-0.156-1.594l1.125-1.125l-0.344-2.156l-1.844,0.469l-0.188-4.688L143,89.438l1.562-3.906   h2.156l-1.938-5.281l-8.406-0.406l-4.5,3.125l-5.062-3.312L119.562,77.5z"
   id="path3289" />
	<path
   fill="#86AAE0"
   stroke="#FFFFFF"
   stroke-width="0.6"
   d="M56,160.594l-3.25,1.562h-2.281l-2.406,1.938l0.156,1.438l1.438,3.719   l0.812,2.906l5,0.812l2.438,1.938l0.969-1.156l1.594,2.125l-0.812,0.969l-0.156,2.875h-1.438l-1.125,1.781h-2.281l-0.938,3.844   l2.188,3.5l3.125,0.781l1.156-1.75L59.625,190l2.719,1.188l3.531,3.5l1.156,2.156l-0.375,2.531l-0.406,2.562l2.344,1.75   l1.188-1.375l-1.188-1.562v-3.5l2.344,0.562l0.781-2.344l0.594,1.375L74.844,199l1.188-1.969l-1.188-2.719L77,197.25l2.719-0.406   l-0.562-1.375l2.531,0.594l1.938,2.344l-0.969,1.562l-2.531-0.781l-2.938-1.375l-1.562,1.969l2.344,0.781l1.75,2.719l10.562-0.969   L93,202.906l-1.344,1.156l0.188,1.781l0.375,0.281l0.844-0.156l1.75-1.75l1.156,1.344h3.125l3.719-1.938l5.469-2.156l0.188-5.469   l1.156-0.625l-2.062-3.875l1.781-1.438l-0.312-0.969l-1.125-0.656l1.75-0.812l1.625-1.938l-0.156-1.938h-2.094l-0.5-1.906   l1.469-1.938L108.375,177l-2.406-1.469h-2.75l-0.969-0.312v-1.281l1.438-1.312l0.812-3.219l-0.469-2.094l-0.656,0.812l-3.875-0.312   l-1.781-3.25h-1.438l-2.25,0.812v2.094l-3.062,1.938l-2.438-0.969l-0.969-2.094l-0.781,1.125H84.5l-1.125-1.438H82.25l-2.406-2.438   l-2.75,0.656l-2.906-2.594l-2.594,0.188l-0.781,1.594l-3.062,1.625l-3.719-1.625l-0.969-0.969l-1.625,1.125l-1.938-0.156   l-0.312-1.594l-3.062-0.812L56,160.594z"
   id="path3291" />
	<path
   fill="#86AAE0"
   stroke="#FFFFFF"
   stroke-width="0.6"
   d="M40.656,129.062l-2.125,2.344l-2.344-0.969l-4.312,0.406l-0.781,1.938   l-2.531,0.594l-0.406-2.156l-4.469,0.594v1.375l-3.125,0.188l-1.375-0.969l-1.562,0.781l-0.406,2.344l-5.25,0.188l-2.75,3.312   l2.344,1.75l-3.125,2.562l0.969,1.75l-0.781,4.281l3.125,0.406l1.188-1.188l0.594,0.781l7.406-0.969l4.875-3.5L21.531,149   l0.375,1.938l3.906-1.75l-0.781,2.75l4.312,0.188l-0.188,1.156l-4.688-0.188l-3.719-0.969l-4.5-2.156l-2.719,3.125l3.5,1.188   l-0.188,5.25l0.969-0.781l2.156-3.312l4.094,2.344l1.969,0.406l0.781,3.125l-1.188,2.125l-2.531-0.188H20.75l-3.906,0.594   l-6.656,0.375L8.844,166l1.938,1.156l2.156-0.188l1.75,1.562l2.531-0.188l4.125,4.688l0.969,5.062l-1.375,2.75l4.094,0.781   l4.5-0.219l0.969-1.75l-1.75-2.344l1.75,0.781l1.781-0.188l3.125,1.75l1.938-0.375v-3.344l0.781,3.344l2.531,4.094l5.469,0.375   l0.219-1.156l1.344,1.938l3.344,0.594h2.531l0.156,0.219l0.938-3.844h2.281l1.125-1.781H59.5l0.156-2.875l0.812-0.969l-1.594-2.125   l-0.969,1.156l-2.438-1.938l-5-0.812l-0.812-2.906l-1.438-3.719l-0.156-1.438l2.406-1.938h2.281l3.25-1.562l-0.688-2.469   l0.969-0.969l-0.312-5.656l-1.469-1.938v-2.406l2.281-0.656l-2.438-0.812l-0.156-1.906l1.125-0.812l1.625-1.625l-1.781-1.125   l0.156-2.094l-2.406-0.156l1.125-5.25l-3.219-1.875l-5.469,0.188v3.906h-1.562l-0.375-1.75l-2.344,0.375L40.656,129.062z"
   id="path3293" />
	<path
   fill="#86AAE0"
   stroke="#FFFFFF"
   stroke-width="0.6"
   d="M116.25,135.906l-1.875,2.125l1.094,5.906l1.625,0.625l0.969,1.938   l-0.969,3.562l-0.969,8.875l-3.062,0.625l-1.469-1.438l-1.438,2.094l-2.75,0.969l-2.094,4.5l-1.281,1.625l0.469,2.094l-0.812,3.219   l-1.438,1.312v1.281l0.969,0.312h2.75l2.406,1.469l1.625,2.906l-1.469,1.938l0.5,1.906h2.094l0.156,1.938l-1.625,1.938l-1.75,0.812   l1.125,0.656l0.312,0.969l-1.781,1.438l2.062,3.875l3.938-2.094l12.094-0.594l0.781-2.156l1.969-1.938l4.281-0.594l0.188-2.156   l2.938,0.406l1.75,2.344l3.938,0.969l0.75-1.562l1-3.531l2.531-6.25l1.375-0.781l3.312,0.406v-5.281l-1.375-1.375v-5.656   l-0.594-1.938v-3.125l1.969-1.969v-3.906l-0.969-0.781l0.188-5.469l-1.562-0.781h-2.344L143.812,146l-2.125,2.531l-1.75,0.219   l-1.562,2.125l-1.562-0.375l-3.344-2.938l-1.156-3.719l-0.594-2.469h-9.594l-3.531-2.156l2.344-3.125L116.25,135.906z"
   id="path3295" />
	<path
   fill="#86AAE0"
   stroke="#FFFFFF"
   stroke-width="0.6"
   d="M132.875,185.844L132.688,188l-4.281,0.594l-1.969,1.938l-0.781,2.156   l-12.094,0.594L108.469,196l-0.188,5.469l-5.469,2.156l-3.719,1.938h-3.125l-1.156-1.344l-1.75,1.75l-0.844,0.156l1,0.688   l-3.719,3.312l0.781,0.781l0.781,1.562l-1.969,2.75l2.156,1.156l3.719,0.781l0.375-1.562l2.156,2.75h3.531l2.531-2.75h3.312   l-3.5,1.75l0.188,1.969l0.781,1.75l-2.156,2.156h-2.344l0.406,2.938l4.281-0.781l5.094,4.688l-0.25,0.312l3.688,2.406l0.812,1.938   l3.375,1.469l2.594,0.312l1.125,3.062l4.031,0.969l2.719,0.5l1.469-1.625l-1.469-2.094l-0.625-4.531l1.281-1.438h1.781l0.812,1.781   l-0.5,3.219l1.125,0.812l2.906-0.969l0.969-3.219l-1.281-1.312h3.219l1.125-2.094l1.125,0.156l2.594,2.438l1.875,0.25l0.062-2.031   l-1.625-2.094h-1.438l-0.5,0.156l-0.969-0.469l0.812-0.812v-1.469l1.625-0.469l0.969-2.25l-0.812-0.812l-0.156-2.75H140   l-2.094-2.594v-1.906l2.25-1.156l4.031-0.781l6.281,0.156l1.938-1.312l-0.656-4.031l-2.906-2.719l-3.531,0.469l-0.969-0.812   l-0.156-2.875l2.562-2.281l-1.938-2.406l-1.281-3.406l-2.094-1.281v-2.25l-0.219-0.719l-3.656-0.906l-1.75-2.344L132.875,185.844z"
   id="path3297" />
	<path
   fill="#86AAE0"
   stroke="#FFFFFF"
   stroke-width="0.6"
   d="M141.938,188.688l-0.438,0.875l-0.281-0.062l0.219,0.719v2.25   l2.094,1.281l1.281,3.406l1.938,2.406l-2.562,2.281l0.156,2.875l0.969,0.812l3.531-0.469l2.906,2.719l0.656,4.031l-1.938,1.312   l-6.281-0.156l-4.031,0.781l-2.25,1.156v1.906l2.094,2.594h2.094l0.156,2.75l0.812,0.812l-0.969,2.25l-1.625,0.469v1.469   l-0.812,0.812l0.969,0.469l0.5-0.156h1.438l1.625,2.094l-0.062,2.031l0.375,0.062l1.625,0.969h5l2.656,2.25l3.719-1.594   l6.062,1.375l2.719-1.781v-2.719l5.281-0.406l4.875-0.969l5.281-0.188l0.594,1.375l1.375,1.156l1.344-2.344l3.719-3.906h1.5   l2.219-8l3.125-3.719l-0.219-4.281l1.969-2.562v-1.156l-0.969-1.188L197,203.5l-2.656-1.031l-8.219-5l-7.594-2.25l-2.906-0.156   v-1.938l-1.781-1.469h-1.906l-3.562-1.125l-2.25,2.25l-5.156,0.188l-2.281-1.312l-5.781-1.75l-1.312,1.594l-3.219-2.094h-2.906   L141.938,188.688z"
   id="path3299" />
	<path
   fill="#86AAE0"
   stroke="#FFFFFF"
   stroke-width="0.6"
   d="M202.438,151.875l-5.281,0.188l-5.281,4.875l-2.75-0.156l-3.656,1.188   l-1.125,1.938l-0.5,4.188l0.344,2.562l-2.906,2.438l-0.812,1.594l0.656,1.469l-0.812,1.938l0.312,0.812l-3.219,0.312l-0.469,1.438   l1.438,3.562l-0.156,0.969l-1.281,1.125l-2.75,0.156l-0.344,0.969l0.656,0.969v5.812l-0.625,1.469l1.75,1.438v1.938l2.906,0.156   l7.594,2.25l8.219,5L197,203.5l1.312-2.625l3.906,2.75h2.156l-1.188-3.906l2.375,1.562l1.344-1.969l5.656-1.562l-0.969-2.344   l1.375-1.75l2.938-1.156l2.719-3.531v-3.719h1.969l0.781-2.719l0.188-4.094l-1.938-1.781l1.562-2.719L223.5,171l-2.719-1.938   l-2.531-0.406l-2.75-4.094h-0.781l-0.188,1.938l-0.188-1.344h-4.094l-1.969-2.938l-3.312-1.188L204,154L202.438,151.875z"
   id="path3301" />
	<path
   fill="#86AAE0"
   stroke="#FFFFFF"
   stroke-width="0.6"
   d="M182.5,146.406l-1.938,0.188l-0.812,1.938l-2.906,1.188l-5.281-0.781   l-5.281,3.125l-1.938-1.375l-2.938,1.969l-2.156-1.562l-1.375-2.344l-2.906-1.188L153,149.125l-3.312-0.406l-0.188,5.094   l0.969,0.781v3.906l-1.969,1.969v3.125l0.594,1.938v5.656l1.375,1.375v5.281l-3.312-0.406l-1.375,0.781l-2.531,6.25l-1,3.531   l-0.312,0.688l3.531,0.719h2.906l3.219,2.094l1.312-1.594l5.781,1.75l2.281,1.312l5.156-0.188l2.25-2.25l3.562,1.125h1.906   l0.031,0.031l0.625-1.469v-5.812l-0.656-0.969l0.344-0.969l2.75-0.156l1.281-1.125l0.156-0.969l-1.438-3.562l0.469-1.438   l3.219-0.312l-0.312-0.812l0.812-1.938l-0.656-1.469l0.812-1.594l2.906-2.438l-0.344-2.562l0.5-4.188l1.125-1.938l3.656-1.188   l-0.562-0.031l-1-3.531l-2.531-0.969l-0.781-4.281L182.5,146.406z"
   id="path3303" />
	<path
   fill="#86AAE0"
   stroke="#FFFFFF"
   stroke-width="0.6"
   d="M202.656,97.781l-4.562,0.812l-7.438,4.312l-8.375,3.312l-6.656-3.719   l-16-2.344l-3.719-1.938l-5.781,1.469l0.344,2.156l-1.125,1.125l0.156,1.594l3.719,3.719l2.25,1.281l1.625-2.094l1.281,1.625   l-1.625,2.094l1.469,2.406l-0.656,0.812l1.125,2.281l-0.625,2.562l-1.625,2.594l-2.594,1.594l-1.438-1.125l-1.438,1.281   l1.594,1.469l-1.281,2.406l-3.062,1.125l3.719,4.688l3.688,0.312l2.844,1.844l3.938-1.188l2.906-3.375l4.031,1.125l3.531-2.438   l2.125-0.781l2.25,2.25l3.719-0.656l3.219,1.781l4.031-1.281l3.688-2.75l2.438-2.75l1.625-0.312l0.469,2.094l1.281-0.312   l0.156-1.469l3.719-0.625l1.281,0.781l3.969-0.875l0.656-1.906l-0.188-1.75l-1.969-0.781l-0.188-1.375l1.75-1.156l0.219-1.969   l-1.188-4.688l-2.344-3.312l1.969-1.156v-0.781l-1.969-0.594L202.656,97.781z"
   id="path3305" />
	<path
   fill="#86AAE0"
   stroke="#FFFFFF"
   stroke-width="0.6"
   d="M206.844,124.656l-3.969,0.875l-1.281-0.781l-3.719,0.625   l-0.156,1.469l-1.281,0.312l-0.469-2.094l-1.625,0.312l-2.438,2.75l-3.688,2.75l-4.031,1.281l-3.219-1.781l-3.719,0.656l-2.25-2.25   l-2.125,0.781L169.344,132l-4.031-1.125l-2.906,3.375l-3.938,1.188l2.156,1.406l1.938,1.938l-0.469,1.906l0.312,1.625l-1.125,3.719   l-3.344,2.844l1.312,2.219l2.156,1.562l2.938-1.969l1.938,1.375l5.281-3.125l5.281,0.781l2.906-1.188l0.812-1.938l1.938-0.188   l1.75,1.562l0.781,4.281l2.531,0.969l1,3.531l3.312,0.188l5.281-4.875l5.281-0.188L204,154l0.969,7.031l3.312,1.188l1.969,2.938   h4.094l0.188,1.344l0.188-1.938h0.781l2.75,4.094l2.125,0.344v-4.625l-1.344-1.781l-0.406-1.562l2.938-1.75l2.938-0.594   l1.938-2.344l-0.375-7.219l-4.125-3.5l-0.188-3.344l-3.5-2.344l1.375-1.938l-0.812-2.938l-2.719-0.969l-1.969-1.969l-1.156-2.719   l-5.469-0.188l-1.562-1.969L206.844,124.656z"
   id="path3307" />
	<path
   fill="#86AAE0"
   stroke="#FFFFFF"
   stroke-width="0.6"
   d="M247.156,126.094l-1.188,0.969v3.125l-3.906,1.938v2.938l-1.156,1.375   H236l-2.312-0.969l-7.062,3.688h-2.719l-2.812,2.688l0.656,0.438l0.188,3.344l4.125,3.5l0.375,7.219l-1.938,2.344l-2.938,0.594   l-2.938,1.75l0.406,1.562l1.344,1.781V169l0.406,0.062L223.5,171l-1,1.25l1.938,0.969l3.094-0.562h1.812l-0.125,0.844l-1.688,0.969   l1.125,0.844h2.812l0.969,2.25l1.688,0.969l1.25,2.812l4.344,1.125l2.688-0.281l2.375-2.25l2.125,0.594l0.531-1.156l-0.125-1.25   l1.125-0.844l1.812,1.125l1.125-0.844v-1.531l1.531-1l1.406,0.562l1.25,1.406l2.25-1.25h2.375l1.688-1.844l1-3.625l1.531-0.281   L264,166.344l1.812-1.531l-0.562-1.125l0.219-0.375l-0.531,0.062l-0.406-5.25l-0.406-0.594L263.75,155l-4.094-0.781l-1.781-2.156   l-0.562-4.312l-2.344-0.375l-0.406-2.156l-2.718-1.938l-1.375-3.344l1.375-2.344l-1.375-1.562v-1.938l0.781-2.156l-1.562-1.562   l-0.594-2.344L247.156,126.094z"
   id="path3309" />
	<path
   fill="#86AAE0"
   stroke="#FFFFFF"
   stroke-width="0.6"
   d="M318.437,157.344l-1.75,1.344l-7.625-0.375l-3.5,1.75L304.187,163   l1.562,1.75l-2.344,2.75l-1.781,2.125l3.531,3.344l0.969,3.125l2.562,2.719v3.531l-5.094,4.281l1.75,1.969l-0.375,2.906   l-2.75,1.969h-3.906l0.594,2.156l2.531,3.5l0.594,3.125l0.594,2.156l-1.156,0.344l2.469,0.562h1.844l0.969-1.531H308l1.406,1.25   l-0.281,1.562l1.281,0.844h1.812l2.531,1.688l1.125-0.562l1.125,0.969l1.125-0.281l1.938-1.25l1.844,0.562l1.25-0.281v-3.5   l0.688,0.125l0.438,1.812l2.25,1.406v2.125l3.219,0.125l4.219,3.938l2.656,0.125l-0.156-1.25l1.125-1.688l1,1.25l-0.844,1.406   l0.406,1.281l1.531-1h1.844l-0.156,2.812l1.688,1.125l1.281-0.562l3.125-2.125l-0.188-0.406l-1.844-1.125l-0.125-1.969l1.969-0.969   l0.844-1.125l-0.562-0.969v-2.25l1.531-2.25l2.25-4.781l0.406-2.094l1.406-0.562l0.156-0.406l-0.719-0.562v-1.688l2.25-1.688   l0.562-2.812l-0.969-1.656h-1.562l-0.406-0.438v-2.375l1.969-1.406l-0.156-1.406L354,181.344l-1,2.156l-1.375-0.188l-1.156-2.156   l-3.906,1.969l-7.812-0.406l-0.969-2.156l-2.156-2.906l-0.375-3.531l-3.125-3.719l-1.969,1.375l-3.531-2.719l0.594-5.281   l-5.062-5.281h-2.344L318.437,157.344z"
   id="path3311" />
	<path
   fill="#86AAE0"
   stroke="#FFFFFF"
   stroke-width="0.6"
   d="M423.5,175.5l-3.688,0.594l-0.594,1.938l-1.969,1.375l-1.344-1.562   l-0.969,0.594l0.75,1.156l-1.938,1.188l0.594,1.562l-2.156,0.781v2.531h-2.75l-0.188,1.562l-2.719,0.594l0.188,2.344l1.75,0.188   L407.5,191.5l-0.594,3.906h-1.75l-2.938,1.188l-3.125-1.188l-2.719,1.188v1.969l2.125,0.375l1.562,3.125l0.219,1.562l-2.531,2.938   l-1.188,0.375l-0.781,0.969l2.156,1l0.375,3.125l1.75,0.188l0.219,3.906l0.781,0.781l0.094,0.625l1.5,0.406l1.688,1.406h2.531   l0.969-0.969l1.719,0.062l1.781,0.062l3.938-3.219h1.125l1.25-0.969l4.062,0.125l3.094-2.531l2.25-0.406l0.844-2.094l1.812-0.562   l1.812-3.094l2.531-1.969l2.656-0.406l1.969,1.406l3.656-0.438v-1.969l1.469-0.844l1.156-1.594h2.25l1.25-1.312l0.469-3.125v-1.938   l-0.844-2.969v-2.5l1.531-1.125l1.812-0.938l-0.188-0.375l-6.25-3.312l-1.75-1.969l-1.75-1.156L439.937,180l-0.219,1.156   l-1.562,0.969h-0.969l-2.938-3.312h-4.094l-1.75,1.375l-1.562,0.188l-2.531-1.938l0.188-2.156L423.5,175.5z"
   id="path3313" />
	<path
   fill="#86AAE0"
   stroke="#FFFFFF"
   stroke-width="0.6"
   d="M241.938,61.5l-1.281,1.562l-8.375,6.438l-14.844,3.719l-9.781,3.5   l-8,4.312l-4.688,7.031L194,93.531l3.906,2.938l5.656,1.156l-0.906,0.156l0.031,0.156l4.375-0.562l2.25-2.406L211,94.562   l1.938,3.375l2.688-0.281l1.125,1.938l4.75-0.281l4.781,3.375l-3.094,0.969l2.25,1.688h1.406l1.25,2.688h2.25l0.688-1.688   l-1.688-1.125l4.781-1.406l5.031-0.562l1.281-3.656l2.375-2.094l4.5-0.125l5.188,2.656l3.093,0.344l0.531-1.625l1.375-2.562   l0.781-1.344h-1.969V91.5l-1.156-1.938l0.781-3.906l0.781-1.969h-1.562l0.781-1.938l1.938-2.344l-1.938-3.531l-0.594-3.5   l-8.593-8.406l-0.969-1.938l-2.156,0.188L241.938,61.5z"
   id="path3315" />
	<path
   fill="#86AAE0"
   stroke="#FFFFFF"
   stroke-width="0.6"
   d="M211,94.562l-1.688,0.406l-2.25,2.406l-4.375,0.562l0.906,7.25   l1.969,0.594v0.781l-1.969,1.156l2.344,3.312l1.188,4.688l-0.219,1.969l-1.75,1.156l0.188,1.375l1.969,0.781l0.188,1.75l-1.562,4.5   l1.562,1.969l5.469,0.188l1.156,2.719l1.969,1.969l2.719,0.969l0.812,2.938l-1.375,1.938l2.844,1.906l2.812-2.688h2.719   l7.062-3.688l2.312,0.969h4.906l1.156-1.375v-2.938l3.906-1.938v-3.125l1.062-0.875l-0.094-0.875l1-1l-1.75-0.375v-1.562l-1-1.562   l0.781-0.969l5.469-1.562l1.375-2.344l1.188-4.312l1.437-1.781l0.312-2.312l1.75,0.969l1.375-0.375l-1-1.562l-0.562-4.5   l-1.75-1.562l0.031-0.125l-3.093-0.344l-5.188-2.656l-4.5,0.125l-2.375,2.094l-1.281,3.656l-5.031,0.562l-4.781,1.406l1.688,1.125   l-0.688,1.688h-2.25l-1.25-2.688h-1.406l-2.25-1.688l3.094-0.969l-4.781-3.375l-4.75,0.281l-1.125-1.938l-2.688,0.281L211,94.562z"
   id="path3317" />
	<path
   fill="#86AAE0"
   stroke="#FFFFFF"
   stroke-width="0.6"
   d="M212.188,196.875l0.375,0.875l-5.656,1.562l-1.344,1.969l-2.375-1.562   l1.188,3.906h-2.156l-3.906-2.75l-1.938,3.906l0.969,1.188v1.156l-1.969,2.562l0.219,4.281l-3.125,3.719l-2.219,8h0.25l0.781,3.125   l3.719,0.781v2.344l4.688,1.375v3.719l-0.188,2.344h5.844l5.094-1.188l-0.406-2.156l1.562-0.969l1.562,2.156l1.375,0.594   l1.156,4.688l3.344,3.5l0.375,2.75l3.031,3l1.719-0.156l2.125-1.969l1.531-7.969l0.969-2.812l0.719-3.5l3.094-1.125l2.094,0.406   l1.406,1.281l1.531-2.531l1.406-1.281v-1.531l1.812-0.125l0.438-1.844l-1.562-2.094l0.25-0.875l-1.094-0.938l-2.938-4.344h-3.781   l-1.125-1.688v-7.031l-1.531-4.062l-0.281-5.031l-1.969-0.156l-2.25-1.688h-0.562l-1.969,1.406l-1.25-0.844l-0.281-1.938   l1.406-0.719l0.125-0.688l-0.812-0.719L212.188,196.875z"
   id="path3319" />
	<path
   fill="#86AAE0"
   stroke="#FFFFFF"
   stroke-width="0.6"
   d="M273.718,160.469l-2.531,2.344l-5.719,0.5l-0.219,0.375l0.562,1.125   L264,166.344l0.406,3.656l-1.531,0.281l-1,3.625l-1.688,1.844h-2.375l-2.25,1.25l-1.25-1.406l-1.406-0.562l-1.531,1v1.531   l-1.125,0.844l-1.812-1.125l-1.125,0.844l0.125,1.25l-0.531,1.156l0.406,0.125h1.656l-0.125,1.125l-1.125,1.938v1h1.125   l0.969,1.125l0.281,1.125l-2.219,2.219l1.094,2.688v1.25l1.844,1.25l2.531,0.281l1.656,1.406l0.438,2.406l1.812,2.094l1.969-0.562   l0.844-1.812l3.094,0.406l0.688,0.719h1.969l0.969-1.125l7.156,0.281l1.688,2.5l1.969,0.844l1.688,1.562l2.094-0.281l0.562-0.719   h1.25l1.562,1.969l3.219,0.156l0.844,1.094l2.25,3.094l0.969,0.844l1.25-0.125l0.156-2.812l0.562-0.281l0.844,0.125l1.406,1.844   l0.969,0.406l2-0.812l-0.312-0.344l-0.188-1.969l3.906-1.156l-0.594-2.156l-0.594-3.125l-2.531-3.5l-0.594-2.156h3.906l2.75-1.969   l0.375-2.906l-1.75-1.969l5.094-4.281v-3.531l-2.562-2.719l-0.969-3.125l-3.531-3.344l-4.875,2.75l-0.375-1.562l-2.156-0.188   l-0.594,1.562l-1.938,0.375l-5.281-0.188l-2.156,1.375l-1.75-1.562l3.125-2.156l-0.188-3.312l-2.344-1.188l-1.969-2.938   l-5.25-0.375L273.718,160.469z"
   id="path3321" />
	<path
   fill="#86AAE0"
   stroke="#FFFFFF"
   stroke-width="0.6"
   d="M254.718,221.438l-1.25,0.438l-2.531-0.156l-2.938,1l-0.688,1.531   l-0.281-0.562l-3.375,0.156l-1.688,1.406L240,225.531l-0.281,0.969l1.562,2.094l-0.438,1.844l-1.812,0.125v1.531l-1.406,1.281   l-1.531,2.531l-1.406-1.281l-2.094-0.406l-3.094,1.125l-0.719,3.5l-0.969,2.812l-1.531,7.969l-2.125,1.969l-1.719,0.156l0.5,0.5   v3.719l-0.781,2.344l3.719,2.938l1.938,1.938l3.125,0.406l1.188,4.094l2.125,1.156l-0.375,2.938l-1.562,0.281l0.562,0.125   l4.906,0.375l1.75-1.75l3.125,3.125l3.906-4.5l1.75,1.188l2.344-0.219l0.781,0.406l3.531,0.188l1.156-3.125l9.781,1.188   l3.719,0.969l1.688-0.188l0.094-1.562l1.969-1.969l-0.406-1.688l-1.125-2.219l0.406-0.844l0.156-2.531l0.688-0.844l0.156-0.562   l-1.688-1.531L271,254.125l-2.656-1.406v-1.688l1.938-1.125v-1.125l-1.812-1.531l-0.562-0.969l1.406-0.719l-0.125-1.25l2.219-1.844   l-0.125-0.812h-1.812l-1.125-1.281v-0.688l0.969-1.688v-1.25l-2.25-2.969l0.438-2.656l-1.281-0.969l-2.656,0.125l-2.094,0.844   l-2.812-0.406l-1.406-1.125l-0.281-0.844l2.25-1.844l0.156-2.219L256.406,223L254.718,221.438z"
   id="path3323" />
	<path
   fill="#86AAE0"
   stroke="#FFFFFF"
   stroke-width="0.6"
   d="M222.5,172.25l-1.312,1.688l-1.562,2.719l1.938,1.781l-0.188,4.094   l-0.781,2.719h-1.969v3.719l-2.719,3.531l-2.938,1.156l-1.375,1.75l0.594,1.469l9.469,0.312l0.812,0.719l-0.125,0.688l-1.406,0.719   l0.281,1.938l1.25,0.844l1.969-1.406H225l2.25,1.688l1.969,0.156l0.281,5.031l1.531,4.062v7.031l1.125,1.688h3.781l2.938,4.344   l1.094,0.938l0.031-0.094l1.969-0.281l1.688-1.406l3.375-0.156l0.281,0.562l0.688-1.531l2.938-1l2.531,0.156l1.25-0.438   l1.688,1.562l2.969,1.688l2.5-0.156L261.75,222l1.125-1.25l1.125-0.125l0.969,1.094l3.938-0.406l2.5-1.406l-0.281-0.969   l-0.688-0.844l0.125-1.844l1.844-3.344l2.375-1v-2.094l0.562-1.25L273.812,208l-1-2.125l-2.531-0.688l-0.125-0.844l2.531-2.094   l2.844-1.406l-1.594-2.375l-7.156-0.281l-0.969,1.125h-1.969l-0.688-0.719l-3.094-0.406L259.218,200l-1.969,0.562l-1.812-2.094   L255,196.062l-1.656-1.406l-2.531-0.281l-1.844-1.25v-1.25l-1.094-2.688l2.219-2.219l-0.281-1.125l-0.969-1.125h-1.125v-1   l1.125-1.938l0.125-1.125h-1.656l-2.531-0.719l-2.375,2.25l-2.688,0.281l-4.344-1.125l-1.25-2.812l-1.688-0.969l-0.969-2.25h-2.812   l-1.125-0.844l1.688-0.969l0.125-0.844h-1.812l-3.094,0.562L222.5,172.25z"
   id="path3325" />
	<path
   fill="#86AAE0"
   stroke="#FFFFFF"
   stroke-width="0.6"
   d="M275.531,200.844l-2.844,1.406l-2.531,2.094l0.125,0.844l2.531,0.688   l1,2.125l1.531,0.562l-0.562,1.25v2.094l-2.375,1l-1.844,3.344l-0.125,1.844l0.688,0.844l0.281,0.969l-2.5,1.406l-3.938,0.406   L264,220.625l-1.125,0.125L261.75,222l0.125,2.531l-2.5,0.156l-0.156,2.219l-2.25,1.844l0.281,0.844l1.406,1.125l2.812,0.406   l2.094-0.844l2.656-0.125l1.281,0.969l-0.438,2.656l2.25,2.969V238l-0.969,1.688v0.688l1.125,1.281h1.812l0.125,0.812l-2.219,1.844   l0.125,1.25l-1.406,0.719l0.562,0.969l1.812,1.531v1.125l-1.938,1.125v1.688l2.656,1.406l0.562,1.969l1.688,1.531l-0.156,0.562   l-0.688,0.844l-0.156,2.531l-0.406,0.844l1.125,2.219l0.406,1.688l-1.969,1.969l-0.094,1.562l4.594-0.562l0.938-2l2.531-2.906   l4.875-1l2.562,0.781l2.719-2.125l-0.188-1.562l-0.969-0.781v-3.125l5.25-5.281l1.969,2.156l1.75-1.781l1.562-0.188l2.719-3.5   l4.5,0.375l0.062,1.062l1.5-4.781l-0.969-1.75l0.188-2.531l0.594-5.094l-2.156-2.125l0.406-4.688l-1.969-4.125l-0.188-2.719   l-3.531-2.75L299.5,216.5l1.75-2.531v-3.719l-2.031-2.375l-2,0.812l-0.969-0.406l-1.406-1.844L294,206.312l-0.562,0.281   l-0.156,2.812l-1.25,0.125l-0.969-0.844l-2.25-3.094l-0.844-1.094l-3.219-0.156l-1.562-1.969h-1.25l-0.562,0.719l-2.094,0.281   l-1.688-1.562l-1.969-0.844L275.531,200.844z"
   id="path3327" />
	<path
   fill="#86AAE0"
   stroke="#FFFFFF"
   stroke-width="0.6"
   d="M363.375,177.25l-0.406,2.531l-2.531,1.375L354,181.344l0.281,1.406   l0.156,1.406l-1.969,1.406v2.375l0.406,0.438h1.562l0.969,1.656l-0.562,2.812l-2.25,1.688v1.688l0.719,0.562l-0.156,0.406   l-1.406,0.562l-0.406,2.094l-2.25,4.781l-1.531,2.25v2.25l0.562,0.969l-0.844,1.125l-1.969,0.969l0.125,1.969l1.844,1.125   l0.688,1.531l-0.281,2.125l-0.406,1.531l0.969,1.688l2.812,0.562l1.25,1.969v0.844l-0.844,0.281v2.031l0.156,0.062l3.781,3.906   l3.938-0.125l3.5,2.656l2.531,1.844l0.125,2.375l2.656,0.562l2.25,1.812l5.906-2.094l4.062-1.281l1.812-0.281l0.562-0.812   l1.969,0.125l1.531,0.969L388.5,237l2.25-1.531l1.688,0.188l0.031-0.188l1.344-0.781l-0.188-1l-0.375-1.156l0.969-1.562   l3.312-1.562v-1.562l1.188-1.562l1.156-1.562l-0.375-1.375l0.562-2.156l0.406-3.125h0.781l-0.188-1.156l-0.781-0.781l-0.219-3.906   l-1.75-0.188l-0.375-3.125l-2.156-1l0.781-0.969l1.188-0.375l2.531-2.938l-0.219-1.562l-1.562-3.125l-2.312-0.406l-0.812,1.969   l-4.281,0.969l-0.406-0.969l-3.125-3.906l-1.75,0.969l-2.344-0.188l-0.781-1.562L379.562,196l-0.188-3.312l-1.75-1.188l2.531-2.719   l-4.5-6.062l-3.5-3.719l-3.125-1.75H363.375z"
   id="path3329" />
	<path
   fill="#86AAE0"
   stroke="#FFFFFF"
   stroke-width="0.6"
   d="M306.75,203.781l-0.969,1.531h-1.844l-2.469-0.562l-2.75,0.812   l0.188,1.969l2.344,2.719v3.719l-1.75,2.531l0.562,2.344l3.531,2.75l0.188,2.719l1.969,4.125l-0.406,4.688l2.156,2.125   l-0.594,5.094l-0.188,2.531l0.969,1.75l-1.5,4.781l0.125,1.469l3.344,1.562L312,255l2.125-1.188l1.969-1.156l0.406,1.75h2.906   l0.781-1.562l1.75,0.781l0.594,2.531l1.562-0.375l3.719-5.094l1.938,1.375l0.312,0.594l3.062-1.906l1.25,0.156l0.969,2.375   l1.844-0.281l1.406-1.406h1.812l1.406-1.812l1.406-0.281l0.281-1l3.062,0.156l0.156-0.719l-1.406-1.25v-1.25l1.969-1.125v-0.844   l-1.844-1.125l-0.281-2.094l0.156-1.969l-1.25-0.844l1.094-1.531l1-0.562l0.688-1.688l-0.969-0.562l-1.125-1.688l1.406-1.969   l2.375-1.406h2.938v-2.219l0.844-0.281v-0.844l-1.25-1.969l-2.812-0.562l-0.969-1.688l0.406-1.531l0.281-2.125l-0.5-1.125   l-3.125,2.125l-1.281,0.562l-1.688-1.125l0.156-2.812h-1.844l-1.531,1l-0.406-1.281l0.844-1.406l-1-1.25l-1.125,1.688l0.156,1.25   l-2.656-0.125l-4.219-3.938l-3.219-0.125v-2.125l-2.25-1.406l-0.438-1.812l-0.688-0.125v3.5l-1.25,0.281L320.062,208l-1.938,1.25   L317,209.531l-1.125-0.969l-1.125,0.562l-2.531-1.688h-1.812l-1.281-0.844l0.281-1.562l-1.406-1.25H306.75z"
   id="path3331" />
	<path
   fill="#86AAE0"
   stroke="#FFFFFF"
   stroke-width="0.6"
   d="M351.468,227.844v0.188h-2.938l-2.375,1.406l-1.406,1.969l1.125,1.688   l0.969,0.562l-0.688,1.688l-1,0.562l-1.094,1.531l1.25,0.844l-0.156,1.969l0.281,2.094l1.844,1.125v0.844l-1.969,1.125v1.25   l1.406,1.25l-0.156,0.719L343.5,248.5l-0.281,1l-1.406,0.281l-1.406,1.812h-1.812L337.187,253l-1.844,0.281l-0.969-2.375   l-1.25-0.156l-3.062,1.906l3.625,6.812v2.938l0.969,1.188h3.312l1.156,1.562h3.125l1.375,1.938l-0.188,7.625l-4.094,3.125   l-0.094,0.219l0.281-0.031l0.594,0.188l0.188,3.125l2.938,0.594l0.375,1.375h1.562l2.344-1.375l6.25,0.969l1.188,1.188l1.562-1.562   h2.156l1.156-6.25l0.781-0.594h1.938l2.375,1.562l1.75-1.562l1.156,1.562l1.781-1.75l2.125-0.188l1,3.125l0.75,3.906l1.375,0.188   l1.188-2.75l3.688-14.438l1.375-2.531l2.156-0.219l2.156,1.781l1.562-0.406l1.938-1.375l1.969,0.406l1.156,2.531l1.125,0.438   l5.125-0.625l1.969-1.562l-0.781-1.188l-2.344-0.781l-0.219-2.719l1.969-1.375l0.781-3.312l-1.75-3.125l-1.188-1.562l0.594-0.594   v-1.938l-1.562-1l-0.406-1.562l4.5-0.562l0.406-1.562h-1.375l-1.156-1.375h-2.156l-1.781-2.938L392.25,238l0.188-2.344   l-1.688-0.188L388.5,237l-2.25,0.562l-1.531-0.969l-1.969-0.125l-0.562,0.812l-1.812,0.281l-4.062,1.281l-5.906,2.094l-2.25-1.812   l-2.656-0.562l-0.125-2.375l-2.531-1.844l-3.5-2.656l-3.938,0.125l-3.781-3.906L351.468,227.844z"
   id="path3333" />
	<path
   fill="#86AAE0"
   stroke="#FFFFFF"
   stroke-width="0.6"
   d="M401.156,217.531l0.094,0.531h-0.781l-0.406,3.125l-0.562,2.156   l0.375,1.375l-1.156,1.562l-1.188,1.562v1.562l-3.312,1.562l-0.969,1.562l0.375,1.156l0.188,1l-1.344,0.781L392.25,238l1.562,0.188   l1.781,2.938h2.156l1.156,1.375h1.375l-0.406,1.562l-4.5,0.562l0.406,1.562l1.562,1v1.938l-0.594,0.594l1.188,1.562l1.75,3.125   l-0.781,3.312l-1.969,1.375l0.219,2.719l2.344,0.781l0.781,1.188l-1.969,1.562l-5.125,0.625l2.406,0.938l3.906,5.469l2.531,1.156   v2.75l2.938-0.406l3.719-4.094l3.125,1.562v2.344h5.656l8.125-8.938l-0.344-0.188l0.375-4.094l2.938-3.5l-1.969-0.781l0.188-1.188   l-2.375-0.219l-0.156-1.406l1.531-1.531l-0.406-1.531l-0.844-1.969l3.5-1.125l1.281-1.812l0.281-2.25l-2.812-2.688l-1.969-0.531   l-4.344-1.406v-3.938l-0.281-2.938l-3.5,0.281l-5.469-1.844l0.844-1.938l1.25-2.969l0.438-1.938l-1.406-1.844l-2.531-1.688   l-0.281-2.094l0.031-1.188l-1.719-0.062l-0.969,0.969h-2.531l-1.688-1.406L401.156,217.531z"
   id="path3335" />
	<path
   fill="#86AAE0"
   stroke="#FFFFFF"
   stroke-width="0.6"
   d="M337.375,99.312l-2.344,1l0.406,1.938h-4.125l-3.688,2.75v5.25   l2.719,1.781l0.781,1.75l-4.5,0.375l-0.562,1.781l1.75,1.156l-0.781,1.188l-1.75,0.781l0.375,1.344h2.531l1,1.375l-1.75,1.188   l-1.562,4.094l-2.938,1.375l-1,2.125l-0.969,1.188l0.219,1.156l-1.562,1l-0.406,2.719l1.562,0.969l0.781,2.938l-0.969,1.75   l0.594,1.375l2.906-0.188v0.969l0.844-0.188l3.375,3.562l4.75-0.781l5.562-3.781h3.344l3.375-2.375l3.969-2.188l2.969,0.219   l0.406,3.969l3.562,5.344h3.969l5.562-1.188l3.969,1.375l4.156-2.969l0.594-4.938l4.594-0.781L379,136.625l-3.719-2.938   l-0.406-1.562l1.375-2.344l-1.188-0.969l1.188-2.938l2.156-0.969l1.562-4.875l-3.125,0.188l1.75-1.938l-1.375-4.312l-1.344-2.938   l1.75-1.562l-1-0.188l-0.25-1.344c-0.04,0.006-0.281,0.031-0.281,0.031l-1.781-1.594l-2,2h-0.594l-0.781-1l-4.75-0.188   l-0.812,1.188H364l-1.188-2.594h-2.594l-0.594,0.594l-2.562-0.188l-3.188-2.375l-2.188-0.594l-0.781-1.188l-4.156-2.594L342,99.312   l0.062,1.781l-1.375,0.375L337.375,99.312z"
   id="path3337" />
	<path
   fill="#86AAE0"
   stroke="#FFFFFF"
   stroke-width="0.6"
   d="M257.218,80.219l-1.281,1.531l-0.781,1.938h1.562l-0.781,1.969   l-0.781,3.906l1.156,1.938v3.344h1.969l-0.781,1.344l-1.375,2.562l-0.562,1.75l1.75,1.562l0.562,4.5l1,1.562L257.5,108.5   l-1.75-0.969l-0.312,2.312l0.125-0.156l0.75,1.75l1.188,1.938l5.281,0.406l3.719-0.406l2.531-1.938l3.125,1.938l1.562,1.188   l2.344-0.594l2.125-0.969l4.125,2.156l4.281,2.531l1.375,1.375l2.344-1.562l1.938,1.156l1.188,0.969l1.75-0.188l1.188-1.562   l2.719,1.562l3.344-1.375l1.938,0.594l1.938-1.562l1.188-0.594l0.375,0.281l0.406-2.656l-1.406-1.594l-2.375-1.594l-1,1.594   l-0.594,0.188l-0.188-2.969l1.781-0.406l-0.406-2.75l-2.375-0.406l1.188-2l3.375-0.781l1.188-4.75l1.781-0.812l-2.375-1.781   l0.812-1.781l0.375-5.938l-0.812-4.594l-4.125,0.406l-2.781-0.375l-5.156,1.375l-4.375,4.156l-3.562-1.188l-3.562-0.375   l-2.781-2.781l-4.969-1.406l-6.719,0.594l-1.781-1.375h-3.594l-2.562,1l-1.188-0.812v-2.156l-0.406-0.594H257.218z"
   id="path3339" />
	<path
   fill="#86AAE0"
   stroke="#FFFFFF"
   stroke-width="0.6"
   d="M269.25,8.656l-10.812,2.062l-8.593,6.625v26.375l-0.062,0.781   l3.031,0.719l0.969,2.156l2.343-0.594l1.375-1.75l1.75,0.594l3.719,2.906l1.375-0.562l0.969,2.344l3.5,1.562v1.938l2.562,0.969   l2.531-0.969l4.875-0.594l1.188,1l2.344-1l1.156,1.969l-2.906,1.938v2.75l0.969,0.969l0.781-0.188l0.562-1.562l1.781-1.188   l1.75,1.375l4.094,1.375h1.75v-1.969l2.562,1.781L295,62.031l-1.188,1.75l2.156-1.188l1.781-0.781l0.75,1.375v1.375L301.437,63   h4.688l0.188,0.188l1.156-2.219l-0.594-1l-1.781-0.375h-1.969l-1.188-0.406L303.906,58l1.781,0.188L307.468,58l0.219-3.188   l1.188-0.781l0.188-1.781l-2.188-1.406l-2.562-0.188l-0.594-0.406l1.594-1.188l0.375-1.188l-1.375-0.969l-2-2.406l0.219-1.188   l2.562-1.188l0.406-1.375l-1.781-0.812l-1-2.562l-3.562-0.406L295.593,36l-0.406-3.969l2.562-1.594l-0.969-2h-2l-1.375,2.188   l-6.156-0.375l-4.969-1.219l-2.75-2.969v-2.375l2.156-1l-1.781-1.375l-4.344-0.188l-2.594-6.562L269.25,8.656z"
   id="path3341" />
	<path
   fill="#86AAE0"
   stroke="#FFFFFF"
   stroke-width="0.6"
   d="M285.781,4.062L279.531,7l-9.75,1.562l-0.531,0.094l3.719,5.906   l2.594,6.562l4.344,0.188l1.781,1.375l-2.156,1v2.375l2.75,2.969l4.969,1.219l6.156,0.375l1.375-2.188h2l0.969,2l-2.562,1.594   L295.593,36l3.562,0.969l3.562,0.406l1,2.562l1.781,0.812l-0.406,1.375l-2.562,1.188l-0.219,1.188l2,2.406l1.375,0.969   l-0.375,1.188l-1.594,1.188l0.594,0.406l2.562,0.188l2.188,1.406l-0.188,1.781l-1.188,0.781L307.468,58l-1.781,0.188L303.906,58   l-1.969,1.188l1.188,0.406h1.969l1.781,0.375l0.594,1l-1.156,2.219l1.562,1.562l1.562,0.406l1.562-1h2.156l0.594,1.188l0.781-0.188   l2.344-1.375l2.344,1.375L322.343,63h1.375l1.562,1.375l3.125-2.156l1.344,0.188l1.188,0.969l4.312,0.406l0.375,1.75l2.156-1.938   h1.156l0.781,2.531l3.719,0.969l1.062-0.719h-0.312L344,64.438l3.906-2.344l-0.594-3.719l-3.719-0.969l0.969-1v-2.719l2.938-2.156   l-0.781-1.562l-6.25-4.875l-10.938,0.594l-1.156,1.938H327l0.188-6.844l-3.125-3.688l-2.344,0.375l-1.375-1.562l-3.906,1.75   l-1.344-1.344l-2.75-0.406l-0.781-2.531l-0.188-7.812l-1.75-0.781l-0.219-1.188h-1.156l-0.406-2.344l-2.531,0.219l-4.875,1.562   l-2.344,2.906h-2.344L294.187,24l-0.594-2.156l-1.938-2.156h-2.75l-1.156-2.125v-3.344l1.344-2.125l-0.781-2.938L285.781,4.062z"
   id="path3343" />
	<path
   fill="#86AAE0"
   stroke="#FFFFFF"
   stroke-width="0.6"
   d="M328.406,62.219l-3.125,2.156L323.718,63h-1.375l-3.125,2.156   l-2.344-1.375l-2.344,1.375l-0.781,0.188l-0.594-1.188H311l-1.562,1h-0.062l0.469,2.75l-2.562,2.781v2.562l-1.781,2l0.406,2.375   l0.969,3.969l1.188,6.75l-0.375,5.938l-0.812,1.781l2.375,1.781l-1.781,0.812l-1.188,4.75l-3.375,0.781l-1.188,2l2.375,0.406   l0.406,2.75l-1.781,0.406l0.188,2.969l0.594-0.188l1-1.594l2.375,1.594l1.406,1.594l-0.406,2.656l1.781,1.281l0.594,4.312   l5.25,5.062l1.75,0.594l1,2.344l3.281,0.688l0.406-0.5l1-2.125l2.938-1.375l1.562-4.094l1.75-1.188l-1-1.375h-2.531l-0.375-1.344   l1.75-0.781l0.781-1.188l-1.75-1.156l0.562-1.781l4.5-0.375l-0.781-1.75l-2.719-1.781V105l3.688-2.75h4.125l-0.406-1.938l2.344-1   l3.312,2.156l1.375-0.375l-0.188-6.656l0.594-2.344l0.781-2.719L340.687,88l0.594-1.562L345,85.656v-2.531l2.938-1.562l0.781-2.344   l-0.969-1.562l0.188-2.938l1.75-1.562l-1.75-3.312l0.531-3.469H344.5l-1.062,0.719l-3.719-0.969l-0.781-2.531h-1.156l-2.156,1.938   l-0.375-1.75l-4.312-0.406l-1.188-0.969L328.406,62.219z"
   id="path3345" />
	<path
   fill="#86AAE0"
   stroke="#FFFFFF"
   stroke-width="0.6"
   d="M249.781,44.5l-0.531,6.438l4.312,3.906v1.969l-5.281-3.125   l-6.344,7.812l1.688,0.719l2.156-0.188l0.969,1.938l8.593,8.406l0.594,3.5l1.938,3.531l-0.656,0.812h2.469l0.406,0.594v2.156   l1.188,0.812l2.562-1h3.594l1.781,1.375l6.719-0.594l4.969,1.406l2.781,2.781l3.562,0.375l3.562,1.188l4.375-4.156l5.156-1.375   l2.781,0.375l4.125-0.406l-0.375-2.156l-0.969-3.969L305.5,75.25l1.781-2v-2.562l2.562-2.781l-0.469-2.75l-1.5-0.406l-1.75-1.75   h-4.688l-2.938,1.562v-1.375l-0.75-1.375l-1.781,0.781l-2.156,1.188l1.188-1.75l-0.188-1.562l-2.562-1.781v1.969h-1.75   l-4.094-1.375l-1.75-1.375l-1.781,1.188l-0.562,1.562l-0.781,0.188l-0.969-0.969v-2.75l2.906-1.938l-1.156-1.969l-2.344,1l-1.188-1   l-4.875,0.594l-2.531,0.969l-2.562-0.969v-1.938l-3.5-1.562l-0.969-2.344l-1.375,0.562l-3.719-2.906l-1.75-0.594l-1.375,1.75   l-2.343,0.594l-0.969-2.156L249.781,44.5z"
   id="path3347" />
	<path
   fill="#86AAE0"
   stroke="#FFFFFF"
   stroke-width="0.6"
   d="M367.625,55.844l-1.969,2.906l-1.75,1.781v1.75v2.344l-2.344,1.562   l-4.281,1.375l-2.344,0.969l-2.75-2.156h-3.719l-0.531,3.469l1.75,3.312l-1.75,1.562l-0.188,2.938l0.969,1.562l-0.781,2.344   L345,83.125v2.531l-3.719,0.781L340.687,88l2.562,1.375l-0.781,2.719l-0.594,2.344L342,99.312l4.75,0.125l4.156,2.594l0.781,1.188   l2.188,0.594l3.188,2.375l2.562,0.188l0.594-0.594h2.594l1.188,2.594h1.375l0.812-1.188l4.75,0.188l0.781,1h0.594l2-2l1.781,1.594   c0,0,0.241-0.025,0.281-0.031l-0.125-0.812l2.344-1.156l1.156-1.188l-0.75-1.938l-0.219-1.375l2.156-1.75l0.781-3.906l-2.344-2.938   l0.781-1.375l1.969-3.688l0.562,0.781h2.938L387,89.938l1.75-1.156l1.375-2.25l-1.406-0.219l-0.781-3.906l-1.562-1.188   l-5.469-0.594l-0.969-2.531l-1.781-1.156l-6.25-0.781l-0.375-4.5l0.781-0.781v-1.75l-3.125-1.969L369.781,65l0.781-1.938   l-1.375-1.188l2.156-1.938v-3.531l-0.781-0.562H367.625z"
   id="path3349" />
	<path
   fill="#86AAE0"
   stroke="#FFFFFF"
   stroke-width="0.6"
   d="M349.312,138.688l-3.969,2.188l-3.375,2.375h-3.344l-5.562,3.781   l-4.75,0.781l-3.375-3.562l-0.844,0.188v0.594l-2.719,1.156l-0.188,2.344l-1.375,1.781l-0.781,3.906l-0.438,3.281l1.219,1h2.344   l5.062,5.281l-0.594,5.281l3.531,2.719l1.969-1.375l3.125,3.719l0.375,3.531l2.156,2.906l0.969,2.156l7.812,0.406l3.906-1.969   l1.156,2.156L353,183.5l1-2.156l6.438-0.188l2.531-1.375l0.406-2.531h5.656l0.781,0.438l-0.656-2.5l-1.594-1l2.188-1.969   l3.375-0.219l1.188-1.781l-0.219-7.125l-0.781-4.156l-3.375-1.188l-3.562-4.969l0.188-2.969l1.031-2.156l-1.812-0.625l-5.562,1.188   h-3.969l-3.562-5.344l-0.406-3.969L349.312,138.688z"
   id="path3351" />
	<path
   fill="#86AAE0"
   stroke="#FFFFFF"
   stroke-width="0.6"
   d="M379.093,139.719L374.5,140.5l-0.594,4.938l-4.156,2.969l-2.156-0.75   l-1.031,2.156l-0.188,2.969l3.562,4.969l3.375,1.188l0.781,4.156l0.219,7.125L373.125,172l-3.375,0.219l-2.188,1.969l1.594,1   l0.656,2.5l2.344,1.312l3.5,3.719l4.5,6.062l-2.531,2.719l1.75,1.188l0.188,3.312l3.125-0.188l0.781,1.562l2.344,0.188l1.75-0.969   l3.125,3.906l0.406,0.969l4.281-0.969l0.812-1.969l0.188,0.031v-1.969l2.719-1.188l3.125,1.188l2.938-1.188h1.75l0.594-3.906   l0.969-1.156l-1.75-0.188l-0.188-2.344l2.719-0.594l0.188-1.562h2.75v-2.531l2.156-0.781l-0.594-1.562l0.594-0.375L412.562,179   l-2.125,0.781v-4.094l-5.469-2.719l1.156-5.281l1.75-1.188l-0.562-1.75l-2.562-0.375l-0.562-2.562h-2.344l-2.75-3.688l-3.125-0.219   l-1.344-1.938l1.75-1.75l-4.125-4.5l-1.75-0.594l-4.688-2.344l-2.531-2.719l-4.094-0.594L379.093,139.719z"
   id="path3353" />
	<path
   fill="#86AAE0"
   stroke="#FFFFFF"
   stroke-width="0.6"
   d="M480.718,112.281L477,113.312l-1.719,3v2.938l-1.562,1.375h-1.375   l-2.531-1.781l-1.969,1.375H465.5l-1.938-1.938l-3.719-0.594l-2.156-0.969l-0.781-2.938l-1.75,1.938l-0.969,4.5L451.625,121v2.531   l2.562,1.188l1.938,1.375l-0.781,1.75l1.781,1.156l3.125-2.344l5.438,3.125l-2.312,4.312l0.188,1.375l1.562,1.562l-1.188,4.094   l-3.906,3.906l-2.156-0.188l1.375,1.344l-0.781,3.531L459.25,155l3.719,0.969l-0.312,0.719l2.938-0.156l1.719,2.094l1.531,1.906   l3.844-0.188l1.719,4.969l3,1.312L477.375,166l5.094-9.969l-0.594-5.656l2.344-7.625l0.594-6.656l5.062-3.688v-2.344l1.969-2.562   h1.562l1.75-1.75l-0.375-3.312l1.75-4.688l2.719-0.594L496.531,115l-4.875-0.562l-4.312-2.156l-2.938,1.75l-1.562-1.75H480.718z"
   id="path3355" />
	<path
   fill="#86AAE0"
   stroke="#FFFFFF"
   stroke-width="0.6"
   d="M401.593,88.438l-2.344,2.156l-3.312,0.188l-1.156,1.188h-0.25   l-0.125,2.344l1.156,1.906l-0.406,1.156l-0.375,1.344l0.188,0.75l0.969-0.75L396.875,97l1.938-0.188l3.25-0.969l1.719,1.344   l0.75,1.531l0.594,1.719v1.719l0.938,0.781v1.312l-0.938,1.156l-0.188,2.5l0.75,1.156l0.188,1.531l0.188,2.469l1.156,0.969   l1.719,0.75l-0.75,1.531l2.094,1.938l-1.906,2.094l0.375,1.344l1.906,0.938v0.969h-2.281l-0.969,1.344l0.188,0.969l1.531,1.531   l-1.312,3.625l-1.531,3.438l0.75,2.125v3.438l0.781,1.719h1.125l0.594,0.969h-1.719l-1.531,0.75v1.156l1.906,1.719v2.688   l1.906-0.594l2.875,0.188l0.188,3.062l1.156,0.406l-1.344,0.938l-0.188,0.969l2.094,0.375l1.344,1.719l6.312-0.375l1.344-2.5h2.875   l1.156-0.938l1.906,1.156l1.719-0.594l2.5,0.188l2.094-0.75l2.094-1.531l1.156,1.156l0.188-2.688l1.531-0.594l0.781,2.5   l2.281,0.188l2.312,0.594l0.938,0.188l3.281-1.531l1.719-1.156l1.531-1.906l3.062-1.156l2-0.438l-1.125-1.094l2.156,0.188   l0.406-0.406l-2.312-0.75l-3.25-2.281L452,139.469h-3.438l-3.625-2.094l-2.875-0.188v-0.781l-4.406-2.656l-4.969-2.125h-2.5   l-0.938-2.656l-3.844-4.812h-3.812l-1.531-2.094H417l0.188-3.062l-4.031-2.5l0.188-2.469h2.125v-2.125l0.75-1.531l-1.719-1.719   l1.531-2.656l-1.156-3.062l-0.938-0.781l-2.5-5.344l0.969-1.531c0,0-0.078-1.257-0.156-2.938h-2.625l-3.531-3.906H401.593z"
   id="path3357" />
	<path
   fill="#86AAE0"
   stroke="#FFFFFF"
   stroke-width="0.6"
   d="M307.5,116.5l-1.188,0.594l-1.938,1.562l-1.938-0.594l-3.344,1.375   l-2.719-1.562l-1.188,1.562l-1.75,0.188l-1.188-0.969l-1.938-1.156l-2.344,1.562l-0.094-0.094l-0.844,5.406l1.156,6.875v4.594   l-1.531,3.844l0.375,2.656l-1.719,1.344l0.938,5.188L285.5,150l-0.562,5.188l1.312,1.719l-4.375,2.875v3.938l1.219,1.812   l2.344,1.188l0.188,3.312l-3.125,2.156l1.75,1.562l2.156-1.375l5.281,0.188l1.938-0.375l0.594-1.562l2.156,0.188l0.375,1.562   l4.875-2.75l1.781-2.125l2.344-2.75l-1.562-1.75l1.375-2.938l3.5-1.75l7.625,0.375l1.75-1.344l0.156,0.156l0.438-3.281l0.781-3.906   l1.375-1.781l0.188-2.344l2.719-1.156v-1.562l-2.906,0.188l-0.594-1.375l0.969-1.75l-0.781-2.938l-1.562-0.969l0.406-2.719l1.562-1   l-0.219-1.156l0.562-0.688l-3.281-0.688l-1-2.344l-1.75-0.594l-5.25-5.062l-0.594-4.312L307.5,116.5z"
   id="path3359" />
	<path
   fill="#86AAE0"
   stroke="#FFFFFF"
   stroke-width="0.6"
   d="M465.593,156.531l-2.938,0.156l-1.844,4.156l-2.344,4.688l0.594,2.938   l-1.938,4.5l-3.344,2.906l-0.188,7.625l-2.438,2.094l0.094,0.062l0.781,1.562l3.125,0.188l3.531,2.75l0.562,1.344l-0.188,2.344   l-0.969,1.781l0.375,2.344l2.75-0.406l0.594,2.156l0.969,4.156l2.312-0.375l-0.406,2.125l1.375,1.188l7.219-0.188l3.719-2.938   l0.188-4.312l1.969-2.531l-2.562-2.938l-1.344-3.125l1.562-2.125v-4.906l0.969-2.344V177.5l1.75-2.531l-1.938-2.719l-0.188-5.625   l-3-1.312l-1.719-4.969l-3.844,0.188l-1.531-1.906L465.593,156.531z"
   id="path3361" />
	<path
   fill="#86AAE0"
   stroke="#FFFFFF"
   stroke-width="0.6"
   d="M390.125,86.531l-1.375,2.25L387,89.938l-1.375-1.344h-2.938   l-0.562-0.781l-1.969,3.688l-0.781,1.375l2.344,2.938l-0.781,3.906l-2.156,1.75l0.219,1.375l0.75,1.938l-1.156,1.188l-2.344,1.156   l0.375,2.156l1,0.188l-1.75,1.562l1.344,2.938l1.375,4.312l-1.75,1.938l3.125-0.188l-1.562,4.875l-2.156,0.969l-1.188,2.938   l1.188,0.969l-1.375,2.344l0.406,1.562l3.719,2.938l0.188,6.844l4.094,0.594l2.531,2.719l4.688,2.344l1.75,0.594l4.125,4.5   l-0.438,0.438l3.438-0.438V152.5l3.844-0.781v-1.312h0.938v1.125l3.062-0.938l1.188-1.594l-0.219,0.062v-2.688l-1.906-1.719V143.5   l1.531-0.75h1.719l-0.594-0.969h-1.125l-0.781-1.719v-3.438l-0.75-2.125l1.531-3.438l1.312-3.625l-1.531-1.531l-0.188-0.969   l0.969-1.344h2.281v-0.969l-1.906-0.938l-0.375-1.344l1.906-2.094l-2.094-1.938l0.75-1.531l-1.719-0.75l-1.156-0.969l-0.188-2.469   l-0.188-1.531l-0.75-1.156l0.188-2.5l0.938-1.156v-1.312l-0.938-0.781v-1.719l-0.594-1.719l-0.75-1.531l-1.719-1.344l-3.25,0.969   L396.875,97l-0.938,1.719l-0.969,0.75l-0.188-0.75l0.375-1.344l0.406-1.156l-1.156-1.906l0.125-2.344h-0.938l-0.781-3.719   l-1.562-1.562L390.125,86.531z"
   id="path3363" />
	<path
   fill="#86AAE0"
   stroke="#FFFFFF"
   stroke-width="0.6"
   d="M423.093,90.406l-2.938,0.188l-2.344,1.969l-0.594,0.969h-3.312   l-1.156-1.188h-0.5c0.078,1.68,0.156,2.938,0.156,2.938l-0.969,1.531l2.5,5.344l0.938,0.781l1.156,3.062l-1.531,2.656l1.719,1.719   l-0.75,1.531v2.125h-2.125l-0.188,2.469l4.031,2.5L417,122.062h3.062l1.531,2.094h3.812l3.844,4.812l0.938,2.656h2.5l4.969,2.125   l4.406,2.656v0.781l2.875,0.188l3.625,2.094H452l2.875,2.125l3.25,2.281l2.312,0.75l3.5-3.5l1.188-4.094l-1.562-1.562l-0.188-1.375   l2.312-4.312l-5.438-3.125L457.125,129l-1.781-1.156l0.781-1.75l-1.938-1.375l-2.562-1.188V121l2.562-0.781l0.969-4.5l1.75-1.938   l0.781,2.938l2.156,0.969l3.719,0.594l1.938,1.938h2.344l1.969-1.375l2.531,1.781h1.375l1.562-1.375v-2.938l1.719-3l-0.406,0.125   l-1.344-1.938l-3.906-2.344L469.968,107l-4.688,0.406l-2.75,2.531l-6.625,0.188l-1.969-1.375c-0.131-0.239-1.092-1.936-1.938-2.406   c-0.033-0.018-0.086-0.046-0.125-0.062c-0.027-0.012-0.07-0.024-0.094-0.031c-0.01-0.005-0.051-0.025-0.062-0.031   c-0.002,0-0.027,0-0.031,0c-0.025-0.001-0.074,0-0.094,0c-0.916,0-2.688-1.027-2.906-1.156l-2.75,1.156l-0.188,2.344l-3.312,0.406   l-1.969-3.719l-1.156-0.406v-2.719l-2.75-1.188l-0.188-4.688l-1.969-1.938l-4.094-1.969h-1.938l-0.594,0.406h-1.969L423.093,90.406   z"
   id="path3365" />
	<path
   fill="#86AAE0"
   stroke="#FFFFFF"
   stroke-width="0.6"
   d="M459,145.938l-2,0.438l-3.062,1.156l-1.531,1.906l-1.719,1.156   l-3.281,1.531l-0.938-0.188l-2.312-0.594l-2.281-0.188l-0.781-2.5l-1.531,0.594l-0.188,2.688l-1.156-1.156l-2.094,1.531   l-2.094,0.75l-2.5-0.188l-1.719,0.594l-1.906-1.156l-1.156,0.938h-2.875l-1.344,2.5l-6.312,0.375l-1.344-1.719l-2.094-0.375   l0.188-0.969l1.344-0.938l-1.156-0.406l-0.188-3.062l-2.875-0.188L408.406,149l-1.188,1.594l-3.062,0.938v-1.125h-0.938v1.312   l-3.844,0.781v1.719l-3.438,0.438l-1.312,1.312l1.344,1.938l3.125,0.219l2.75,3.688h2.344l0.562,2.562l2.562,0.375l0.562,1.75   l-1.75,1.188l-1.156,5.281l5.469,2.719v4.094l2.125-0.781l1.781,1.406l1.344-0.812l-0.75-1.156l0.969-0.594l1.344,1.562   l1.969-1.375l0.594-1.938l3.688-0.594l1,0.781l-0.188,2.156l2.531,1.938l1.562-0.188l1.75-1.375h4.094l2.938,3.312h0.969   l1.562-0.969l0.219-1.156l1.562-0.781l1.75,1.156l1.75,1.969l6.156,3.25l2.438-2.094l0.188-7.625l3.344-2.906l1.938-4.5   l-0.594-2.938l2.344-4.688l2.156-4.875L459.25,155l-0.781-5.281l0.781-3.531L459,145.938z"
   id="path3367" />
	<path
   fill="#86AAE0"
   stroke="#FFFFFF"
   stroke-width="0.6"
   d="M274.218,136.406l-1.75,0.781l-1.906,0.75l-0.375,2.125l-2.875,1.344   l-0.375,2.094l1.344,2.312l-1.938,2.656H263.5l1.125,1.719l-1.344,1.531l-0.469,3.094L263.75,155l0.375,2.531l0.406,0.594   l0.406,5.25l6.25-0.562l2.531-2.344l2.156,1.75l5.25,0.375l0.75,1.125v-3.938l4.375-2.875l-1.312-1.719L285.5,150l0.75-1.125   l-0.938-5.188l1.719-1.344l-0.344-2.438l-2.156-1h-3.625l-2.094-1.156l-1.531,0.781L274.218,136.406z"
   id="path3369" />
	<path
   fill="#86AAE0"
   stroke="#FFFFFF"
   stroke-width="0.6"
   d="M251.5,118.156l-0.062,0.125l-5.469,1.562l-0.781,0.969l1,1.562v1.562   l1.75,0.375l-1,1l0.094,0.875l0.125-0.094l1.938,1.938l0.594,2.344l1.562,1.562l-0.781,2.156v1.938l1.375,1.562l-1.375,2.344   l1.375,3.344l2.718,1.938l0.406,2.156l2.344,0.375l0.562,4.312l1.781,2.156l3.156,0.594l0.469-3.094l1.344-1.531l-1.125-1.719   h2.844l1.938-2.656l-1.344-2.312l0.375-2.094l2.875-1.344l0.375-2.125l1.906-0.75l1.75-0.781l0.344,0.219v-0.219l-1.75-1.969   l-1.094-2.969l1.75-3.812l-0.875-2.875l-3.406-2.062l-4.812-0.219l-4.5-2.875l-3.625,0.656L251.5,118.156z"
   id="path3371" />
	<path
   fill="#86AAE0"
   stroke="#FFFFFF"
   stroke-width="0.6"
   d="M255.562,109.688L254,111.625l-1.188,4.312l-1.312,2.219l4.75,2.125   l3.625-0.656l4.5,2.875l4.812,0.219l3.406,2.062l0.875,2.875l-0.031,0.062l0.375-0.062l3.5-1.875l5.25-0.344l2.875-1.312   l1.844-1.312l0.594-3.844l-1.281-1.281l-4.281-2.531L278.187,113l-2.125,0.969l-2.344,0.594l-1.562-1.188l-3.125-1.938   l-2.531,1.938l-3.719,0.406l-5.281-0.406l-1.188-1.938L255.562,109.688z"
   id="path3373" />
	<path
   fill="#86AAE0"
   stroke="#FFFFFF"
   stroke-width="0.6"
   d="M287.281,122.812l-1.844,1.312l-2.875,1.312l-5.25,0.344l0.156,0.719   l0.438,0.094l0.406,0.625l-0.406,0.875l-0.531,0.094l0.375,0.906l2.531-0.031l0.812,1.25l0.156,1.75l0.875-0.125l0.812-0.656   l1.219,0.062l1.531,0.875l0.875,0.969l0.406,0.188l0.25,0.469l0.969,0.25v-2.844l-1.156-6.875L287.281,122.812z"
   id="path3375" />
	<path
   fill="#86AAE0"
   stroke="#FFFFFF"
   stroke-width="0.6"
   d="M280.281,129.062l-2.531,0.031l-1.125,0.5l-0.469,0.625l-1.031,0.062   l-0.938,1.062l0.031,0.594l0.219,0.688l1.562,0.438l1.906,0.969l1.219,0.062l0.812-0.219l0.844-0.594l0.281,0.25l1.812,0.25   l0.312-0.656v-0.656l-0.312-0.125l-1.25,0.062l0.094,0.312l-0.219,0.188h-0.406l0.156-0.406l0.062-0.438h-0.062l-0.156-1.75   L280.281,129.062z"
   id="path3377" />
	<path
   fill="#86AAE0"
   stroke="#FFFFFF"
   stroke-width="0.6"
   d="M277.312,125.781l-3.5,1.875l-0.375,0.062l-1.719,3.75l1.094,2.969   l1.75,1.969v0.219l2.719,1.906l0.656-0.344l-0.5-0.938l0.5-1.469l-0.312-0.531l0.344-1.219h-0.062L276,133.062l-1.562-0.438   l-0.219-0.688l-0.031-0.594l0.938-1.062l1.031-0.062l0.469-0.625l1.125-0.5l-0.375-0.906l0.531-0.094l0.406-0.875l-0.406-0.625   l-0.438-0.094L277.312,125.781z"
   id="path3379" />
	<path
   fill="#86AAE0"
   stroke="#FFFFFF"
   stroke-width="0.6"
   d="M282.937,131.281l-0.812,0.656l-0.812,0.125l-0.062,0.438   l-0.156,0.406h0.406l0.219-0.188l-0.094-0.312l1.25-0.062l0.312,0.125v0.656l-0.312,0.656l-1.812-0.25l-0.281-0.25l-0.844,0.594   l-0.812,0.219l-1.156-0.062l-0.344,1.219l0.312,0.531l-0.5,1.469l0.5,0.938l0.875-0.438l2.094,1.156h3.625l2.156,1l-0.031-0.219   l1.531-3.844v-1.75l-0.969-0.25l-0.25-0.469l-0.406-0.188l-0.875-0.969l-1.531-0.875L282.937,131.281z"
   id="path3381" />
	<path
   fill="#86AAE0"
   stroke="#FFFFFF"
   stroke-width="0.6"
   d="M447.406,199.719l-0.188,0.219h-2.25l-1.156,1.594l-1.469,0.844v1.969   l-3.656,0.438l-1.969-1.406l-2.656,0.406l-2.531,1.969l-1.812,3.094l-1.812,0.562l-0.844,2.094l-2.25,0.406l-3.094,2.531   l-4.062-0.125l-1.25,0.969h-1.125l-3.938,3.219l-1.781-0.062l-0.031,1.188l0.281,2.094l2.531,1.688l1.406,1.844l-0.438,1.938   l-1.25,2.969l-0.844,1.938l5.469,1.844l3.5-0.281l0.281,2.938v3.938l4.344,1.406l1.969,0.531l2.812,2.688l-0.281,2.25l-1.281,1.812   l-3.5,1.125l0.844,1.969l0.406,1.531l-1.531,1.531l0.156,1.406l2.375,0.219l0.031-0.188l12.094-11.344l-0.375-9.375l4.281-2.125   l2.938-1.375l2.719-2.531l0.219-3.719l2.719-1.375l6.25-7.219l-0.969-2.344l2.156-0.969l2.531-3.125L460,209.938l-4.688,0.969   l-0.188-0.781l4.312-4.969L447.406,199.719z"
   id="path3383" />
	<path
   fill="#86AAE0"
   stroke="#FFFFFF"
   stroke-width="0.6"
   d="M451.437,186.031l-1.812,0.938l-1.531,1.125v2.5l0.844,2.969v1.938   l-0.469,3.125l-1.062,1.094l12.031,5.438l0.75-0.875l2.594-0.406l-0.969-4.156l-0.594-2.156l-2.75,0.406l-0.375-2.344l0.969-1.781   l0.188-2.344l-0.562-1.344l-3.531-2.75l-3.125-0.188L451.437,186.031z"
   id="path3385" />
</g>
<g
   id="g3387"
   style="fill:#86aae0;fill-opacity:1">
	<polygon
   fill="#F22F11"
   stroke="#FFFFFF"
   stroke-width="0.6"
   points="386.643,305.299 384.854,306.726 383.486,308.112    384.44,309.148 382.827,312.972 381.219,311.633 380.165,312.971 378.78,311.805 377.935,313.573 374.458,312.429 375.714,311.068    375.642,308.484 373.947,308.157 372.334,302.411 373.868,302.188 374.217,299.347 375.643,300.968 376.011,299 373.888,297.448    375.451,296.297 377.287,297.407 378.677,297.521 381.021,299.646 381.531,303.156 384.093,302.312 386.702,302.936  "
   id="polygon3389"
   style="fill:#86aae0;fill-opacity:1" />
	<polygon
   fill="#F22F11"
   stroke="#FFFFFF"
   stroke-width="0.6"
   points="374.677,315.703 376.828,314.03 376.789,316.217    377.948,317.376 375.193,317.823 374.977,316.709 373.054,316.842 372.955,316.062  "
   id="polygon3391"
   style="fill:#86aae0;fill-opacity:1" />
</g>
</svg>