<svg width="585" height="556" viewBox="0 0 585 556" fill="none" xmlns="http://www.w3.org/2000/svg">
<g clip-path="url(#clip0_1_2)">
<path d="M584.15 1.14996H1.69287V555.17H584.15V1.14996Z" fill="#C8EAFB"/>
<path d="M459.203 404.803L456.69 405.377L455.038 405.165L451.878 403.223L451.088 402.004L450.084 398.485L450.512 397.262L451.735 395.18L454.249 394.319L456.69 394.676L457.768 395.325L458.845 397.836L460.353 400.422L459.707 403.44L459.203 404.803Z" fill="#FDFCEA"/>
<path d="M288.138 218.655L286.987 218.872L286.485 218.296L286.268 216.931L286.63 215.568L286.772 214.563L285.983 212.696L286.916 211.616L287.563 212.837L287.993 212.982L289.07 213.772L288.711 215.354V215.856L288.138 217.434V218.655Z" fill="#FDFCEA"/>
<path d="M3.24088 281.499L4.67587 280.421L8.84189 277.763L12.3609 276.04L16.5979 274.965H21.2659H25.6479H28.2329L28.1609 278.411L28.2329 282.217L28.6629 282.576L32.0399 282.721L37.4239 283.008L42.5249 283.295L45.7569 286.097L46.8329 286.67L50.2819 287.462L54.4469 292.129L59.7609 292.56L63.2799 294.069L66.4399 295.65L68.2359 297.588L69.3819 298.019L70.9629 298.163L71.7539 298.309L71.5379 299.745L70.3909 302.042V305.345L71.6829 310.015L71.7549 314.036L71.0349 321.147L70.7499 327.97L70.8209 330.484L70.9639 332.064L71.2519 332.997L71.1799 334.001L70.1759 336.875L69.3129 339.891L69.2419 341.112L68.9539 341.975L68.3789 342.692L66.0829 344.13L65.6489 344.994L65.5789 346.574L65.7939 347.867L66.6569 348.369L67.6619 349.087L68.0209 350.09L67.9489 351.168L67.5909 353.038L66.5129 356.268L67.2319 359.93L68.1659 362.301L69.4579 365.102L70.0329 366.754L69.8899 367.975L69.6739 369.196L67.3039 374.223L65.6499 377.311L63.6399 380.618L61.0549 382.698L60.4099 383.704L60.1219 384.852L60.0489 387.368L59.8349 390.026L57.5369 394.047L58.6849 397.492L58.3969 397.853L57.6799 398.283L54.4479 402.232L51.2159 406.111L48.8469 408.984L46.1179 412.287L43.1019 415.953L40.5879 419.039L38.0019 421.266L36.5649 420.045L34.4819 419.182L31.7529 418.823L28.3059 418.968L23.9249 419.616L19.4009 418.753L14.5169 416.384L10.4959 415.593L5.53989 416.527H5.32587L4.53387 415.808L3.24289 414.085" fill="#E0E0E0"/>
<path d="M3.52689 128.88L4.88989 126.581L5.75287 124.714L6.11188 122.343L5.46689 120.116L6.75888 119.614L11.0689 118.824L15.8079 117.961L20.7629 117.028L25.7919 116.095L30.6729 115.234L35.1279 114.443L38.1429 113.868L38.5729 115.376L39.5079 118.032L40.5119 119.901L41.8779 121.626L42.9559 122.631L43.7459 122.917L48.5569 122.846L50.2819 123.85L51.7899 125.144L52.0779 127.154L53.0829 128.376L54.0889 129.381L54.5909 129.453L55.3809 129.237H56.6729L57.8199 129.668L58.3949 130.1L58.4679 131.752L58.7559 132.541L60.4069 132.83L62.0569 132.973L63.6369 134.05L65.3619 134.266L67.3719 134.769L68.3059 135.99L70.3899 137.209L72.9729 138.359L74.8419 139.653L75.7749 140.228L75.8479 140.803L76.2779 141.878L76.7809 142.669L76.8529 143.818L77.0699 144.896L77.7849 145.182L78.3609 145.254L78.9359 144.465H79.7269L80.5159 144.967L80.8049 146.187L81.4499 147.839L82.4539 148.988L83.1729 150.066L82.8869 152.076L82.3839 153.872L83.7479 155.669L85.6139 157.392L86.1169 158.182L86.1889 160.695L86.4769 161.559L87.6969 163.641L88.2719 165.077L88.2019 165.869L84.6809 170.034L83.6039 170.464L82.5979 170.678L81.6639 171.541L81.0899 172.403L81.2339 172.906L81.5929 174.343L82.3119 176.569L83.0289 178.149L82.3839 180.089L80.9459 183.464L80.2999 183.752L80.0859 186.264L80.5159 187.197L81.1619 187.916L81.3779 189.641V192.01L81.2339 193.95L80.2289 198.833L81.6639 203.073L82.1679 203.502L84.3219 203.575L84.6799 203.933L84.1059 205.083L83.1719 206.374L82.5249 206.949L79.7959 208.386L75.9189 209.967L75.0569 211.546L74.4829 213.772L74.8409 215.064L75.3439 215.856L75.1279 217.794L74.7679 219.805V221.457L74.5539 222.893L74.0529 223.54L73.3339 225.694L72.3999 227.849L71.7539 228.853L70.7489 229.859L69.1679 230.722V231.153L70.8929 232.158L71.3239 232.875L71.4659 233.38L71.1069 233.809L70.6759 234.456L71.4659 235.102L72.4719 235.676L73.3349 237.114L74.1239 239.124L74.3409 239.84L74.4849 240.129H74.7699L75.3459 239.84L76.4949 238.765L77.2839 238.404L78.1469 239.913L74.3409 241.492L72.4019 242.284L66.7289 244.582L61.7719 246.593L60.4789 246.952L57.8929 247.958L56.6019 248.532L52.1469 250.257L50.2819 251.117L48.7739 251.981L45.1109 253.272L41.5929 254.493L37.7859 255.785L33.5479 257.15L31.1769 258.156L29.5259 259.089L25.7929 260.814L25.5759 261.316V262.539L26.0079 265.052L26.8709 267.278L27.5869 268.641L28.0189 272.018L28.2349 274.964H25.6499H21.2679H16.5999L12.3629 276.039L8.84387 277.762L4.67789 280.42L3.24289 281.498" fill="#E0E0E0"/>
<path d="M3.95789 222.318L4.24689 224.33L5.46887 225.694L7.11789 226.268L8.69888 226.341L9.63388 225.766L11.9309 224.688L13.6559 223.539L14.9479 223.107L15.6669 223.394L16.2419 224.184L16.5289 225.837L16.5999 226.698L17.8219 227.559L18.6829 227.273L19.1139 226.267V225.765L19.2579 221.382L19.3309 217.576L19.4019 214.058L19.4739 209.676L19.6159 205.87L19.6879 202.783L19.7599 199.477L18.8999 199.694L17.8949 200.413L15.5959 200.483L14.6619 201.058L14.3739 201.921L14.5179 202.998V204.506L14.1599 205.152L13.1549 205.439L11.7169 204.865L9.06088 204.075L6.83289 203.643L5.32587 201.632" fill="#E0E0E0"/>
<path d="M195.852 109.632L194.918 109.92L194.487 109.632L193.984 108.771L194.989 107.979L195.997 106.471L198.366 104.317L199.156 102.809L199.443 102.52L199.229 104.244L197.863 107.979L196.785 108.195L195.852 109.632Z" fill="#E0E0E0"/>
<path d="M192.837 70.491L194.127 75.158L193.914 76.019L192.979 76.522L192.477 76.594L191.903 75.805L191.471 74.296L190.753 74.655L189.605 72.787L188.382 72.717L187.306 70.491L187.807 68.551L187.593 65.247L188.958 63.522L189.749 60.722L190.538 62.66L190.683 65.679L191.759 69.268L192.692 70.346L192.837 70.491Z" fill="#E0E0E0"/>
<path d="M199.802 43.053L199.874 44.132L199.588 45.136V48.441L199.443 50.595L198.437 53.611L197.577 54.688L196.857 54.401L196.283 53.899L195.78 53.036L196.857 47.507L196.428 43.486L198.294 43.844L199.802 43.053Z" fill="#E0E0E0"/>
<path d="M159.298 1.39697L161.021 2.61897L161.309 3.12097L161.594 5.49197L161.812 6.92796L161.667 8.22197L160.662 10.448L160.375 11.596L160.304 12.387L160.589 12.673L161.453 12.817L162.17 13.32L162.386 13.75L162.96 15.402L163.608 16.266L165.186 17.629L167.916 20.072L170.572 22.441L173.23 24.882L175.96 27.253L178.616 29.623L181.273 32.065L184.001 34.435L186.659 36.878L187.952 38.026L188.526 38.385L188.168 40.183L186.659 44.633L186.59 46.429L186.014 48.585L185.439 50.021L183.932 56.268L182.711 58.566L181.057 64.025L180.7 68.191L181.561 71.135L181.848 73.864L183.644 76.594L185.151 77.529L186.156 78.749L187.952 81.55L188.885 84.422L192.118 85.787L193.411 88.948L192.837 91.103L191.326 92.898L189.819 95.843L188.599 99.649L188.456 105.467L189.246 104.605L190.967 106.041L191.04 110.351L189.173 115.377L188.599 117.748L188.456 119.759L189.605 125.72L191.471 128.808L191.326 129.74L190.753 130.532L193.984 135.991L193.553 140.731L194.703 144.393L195.206 147.554L195.924 149.994L196.069 151.646L194.918 153.515L197.36 154.019L198.724 155.525L199.371 156.961H201.167L202.028 157.967L203.394 158.757L206.338 161.271L207.126 162.493L207.415 163.211L207.629 163.642L205.475 165.508L202.245 168.454L199.012 171.326L195.997 173.336L193.77 174.199L191.471 174.702L189.246 175.923L187.161 177.862L184.434 178.795H181.273L177.827 180.088L174.378 182.602L172.369 184.037L169.351 181.813L166.983 181.094L164.18 181.165L162.458 181.453L161.812 181.883L161.238 183.248L160.734 185.476L158.866 187.63L155.563 189.641L152.621 190.43L149.89 189.854L148.093 188.994L147.161 187.844L145.797 187.27L143.929 187.342L142.135 188.203L140.41 189.785L137.681 190.502L133.946 190.215L131.936 189.424L131.719 188.132L130.14 186.553L127.195 184.756L124.968 184.685L123.533 186.409L122.17 187.486L121.019 187.916L119.942 187.988L119.01 187.63L118.435 187.486L114.341 187.27L110.462 187.342L110.318 186.625L110.104 184.9L109.313 183.32L108.667 182.458L107.805 182.171L107.302 182.244L106.944 181.525L106.583 179.944L105.939 178.653L105.076 177.573L104.573 176.568L104.428 175.635L104.573 174.629L105.434 172.044L105.795 170.32L105.722 168.525L105.293 166.729L104.428 164.502L104.573 163.928L104.287 162.42V161.343L104.501 160.049L104.358 158.399L103.639 154.734V153.802L102.851 152.005L100.335 147.84L100.263 147.337L96.2419 143.1L94.6629 142.166L94.0149 142.958L93.8009 143.675L93.9429 145.041L93.8009 145.686L93.6579 146.045L92.7239 145.974L92.0769 145.83L90.5688 144.68L89.3479 144.393L86.4039 144.608L85.3269 144.824L84.5389 144.608L82.9559 142.669L81.0889 142.239L79.4369 142.166L76.7799 139.94L76.1329 140.084L75.7739 140.229L74.8409 139.654L72.9729 138.36L70.3899 137.21L68.3049 135.991L67.3719 134.77L65.3609 134.267L63.6369 134.051L62.0569 132.974L60.4069 132.831L58.7549 132.542L58.4669 131.753L58.3949 130.102L57.8189 129.67L56.6719 129.239H55.3789L54.5889 129.455L54.0869 129.383L53.0809 128.377L52.0759 127.156L51.7889 125.146L50.2809 123.851L48.5559 122.847L43.7449 122.918L42.9549 122.632L41.8769 121.627L40.5119 119.902L39.5069 118.033L38.5719 115.377L38.1429 113.869L37.6409 111.931L36.5619 109.057L34.9109 104.963L33.6889 101.588L32.3249 97.997L31.8239 95.339L30.7449 92.394L29.0929 88.803L28.1609 87.44L27.2269 86.146L24.7129 83.705L21.8399 81.334L20.3319 79.682L18.2499 74.871L17.3889 73.146L16.8129 70.059L16.4559 66.9L16.5969 65.606L18.5359 61.513L18.7519 60.363L18.5359 58.784L17.6739 55.551L16.9579 53.397L16.5259 51.6L15.5199 48.512L14.2289 44.347L13.8679 42.551L13.9399 41.187L14.7309 37.524L15.3759 33.862V32.783L20.9069 32.927L21.8399 32.138L24.9999 29.767L28.5899 24.955L29.3089 22.944L30.7449 19.856L32.1809 18.348L32.7559 17.271L33.1159 15.619L33.5469 14.254L35.4139 12.171L37.2099 10.519L37.1379 9.87396L36.8499 9.44096L37.1379 9.00996L38.1429 8.14897L40.0809 7.43097L40.4409 5.84998V3.98396L40.1529 2.97897L40.2259 1.82896L39.9389 1.18198" fill="#E0E0E0"/>
<path d="M45.3229 498.254L45.6839 498.611L47.1919 499.617V501.556L46.9039 503.855L46.5459 505.293V506.729L46.9759 508.956L47.3349 510.462L47.0479 517.358L46.5459 517.073L45.6119 516.712L45.1089 516.857L44.4629 519.945L43.8149 524.541L43.8869 527.414L40.2249 527.488L35.6289 527.127L32.4679 525.906L29.0199 523.105L27.1529 518.867L26.3619 516.211L25.1419 515.994L24.9259 515.562L24.9979 512.333L25.2139 508.884L25.5009 507.952L28.0859 503.786L29.7379 501.198L30.8149 498.684L32.9689 495.668L35.1959 493.799L36.0569 493.514L36.5589 493.659L40.2939 496.243L44.0289 498.757L44.8909 498.542L45.3229 498.254Z" fill="#E0E0E0"/>
<path d="M5.32388 416.522H5.53787L10.4939 415.588L14.5149 416.379L19.3989 418.749L23.9229 419.612L28.3039 418.963L31.7499 418.819L34.4789 419.178L36.5619 420.042L37.9989 421.262L38.0709 422.411L38.1429 422.913L38.8619 425.93L39.8669 430.456L40.4409 434.62L41.3029 440.295L41.0859 443.454L41.3029 444.676L42.2359 446.184L43.3129 448.842L43.6719 450.35L44.0319 451.428L45.1819 453.583L46.0419 456.813L46.6899 461.051L47.2649 463.061L47.4799 464.067L47.7669 465.866L47.4799 469.739L47.2649 474.194L47.0479 479.151L46.8319 483.243L46.6179 485.327L46.3289 491.213L45.1089 494.303V496.674L45.3229 498.254L44.8939 498.542L44.0319 498.756L40.2969 496.243L36.5619 493.659L36.0599 493.514L35.1989 493.799L32.9719 495.668L30.8179 498.684L29.7409 501.198L28.0889 503.786L25.5029 507.952L25.2169 508.883L24.9999 512.333L24.9289 515.561L25.1449 515.993L26.3639 516.209L27.1549 518.866L29.0209 523.104L32.4689 525.905L35.6299 527.125L40.2259 527.487L43.8879 527.413L43.8159 524.54L44.4639 519.944L45.1089 516.856L45.6119 516.711L46.5459 517.073L47.0479 517.358L48.5559 517.288L51.0699 517.864H53.1519L55.0209 517.79L58.2519 517.717H60.0459L59.1129 522.674L56.2419 530.5L55.2339 534.092L52.3629 546.875L48.6239 554.805L1.27487 555.27" fill="#E0E0E0"/>
<path d="M452.807 78.328V80.182L452.013 79.519L451.816 78.328L450.82 77.399L450.292 76.605L451.484 75.611L452.807 78.328Z" fill="#E0E0E0"/>
<path d="M60.0459 517.717H58.2519L55.0209 517.79L53.1519 517.864H51.0699L48.5559 517.288L47.0479 517.358L47.3349 510.461L46.9759 508.956L46.5459 506.729V505.293L46.9039 503.856L47.1919 501.557V499.618L45.6839 498.612L45.3229 498.254L45.1089 496.674V494.303L46.3289 491.213L46.6179 485.327L46.8319 483.243L47.0479 479.151L47.2649 474.194L47.4799 469.739L47.7669 465.866L47.4799 464.067L47.2649 463.061L46.6899 461.051L46.0419 456.813L45.1819 453.583L44.0319 451.428L43.6719 450.35L43.3129 448.842L42.2359 446.184L41.3029 444.676L41.0859 443.454L41.3029 440.295L40.4409 434.62L39.8669 430.456L38.8619 425.93L38.1429 422.913L38.0709 422.411L37.9989 421.262L40.5849 419.036L43.0989 415.95L46.1149 412.284L48.8439 408.981L51.2129 406.108L54.4459 402.229L57.6779 398.28L58.3949 397.85L58.6819 397.489L57.5339 394.043L59.8319 390.022L60.0459 387.364L60.1189 384.848L60.4069 383.7L61.0509 382.694L63.6369 380.614L65.6469 377.307L67.3009 374.219L69.6709 369.192L69.8869 367.971L70.0299 366.75L69.4549 365.098L68.1639 362.297L67.2289 359.926L66.5109 356.264L67.5879 353.034L67.9459 351.164L68.0189 350.086L67.6599 349.083L66.6549 348.365L65.7919 347.863L65.5769 346.569L65.6469 344.99L66.0809 344.126L68.3769 342.688L68.9519 341.972L69.2399 341.109L69.3109 339.888L70.1739 336.872L71.1779 333.999L71.2499 332.994L70.9619 332.061L70.8189 330.481L70.7489 327.968L71.0329 321.145L71.7529 314.034L71.6809 310.013L70.3899 305.343V302.04L71.5369 299.743L71.7529 298.307L70.9619 298.161L69.3819 298.018L68.2349 297.587L66.4389 295.649L63.2789 294.068L59.7599 292.559L54.4459 292.128L50.2809 287.461L46.8319 286.669L45.7559 286.096L42.5239 283.294L37.4239 283.007L32.0399 282.721L28.6629 282.576L28.2329 282.217L28.1609 278.411L28.2329 274.965L28.0169 272.019L27.5849 268.642L26.8689 267.279L26.0059 265.053L25.5739 262.54V261.317L25.7919 260.815L29.5239 259.09L31.1759 258.157L33.5469 257.151L37.7849 255.786L41.5919 254.494L45.1089 253.273L48.7719 251.982L50.2809 251.118L52.1459 250.258L56.6009 248.533L57.8919 247.959L60.4779 246.953L61.7709 246.594L66.7269 244.583L72.3999 242.285L74.3389 241.494L78.1459 239.915L78.8619 240.561L81.2328 245.947L83.1719 249.107L85.3269 251.982L85.7569 251.838L86.4039 251.191L87.5529 250.904L91.2159 250.258H92.5799L93.5119 249.466L95.4529 248.894L97.6059 248.605L98.3249 248.965L100.479 252.698L100.696 255.572L101.054 259.737V261.748L100.91 264.477L100.552 267.852L98.5419 271.729L98.1078 273.67L97.0339 276.687L95.6679 278.124L95.0219 279.344V280.637L95.6679 281.643L97.1039 283.581L97.5359 284.803L97.3188 285.881V287.388L97.6059 288.394L98.0379 289.041L99.4749 289.974L100.838 292.416L103.28 295.36L106.152 299.598L107.518 300.891L108.594 301.178L109.097 302.613L108.738 304.196L107.877 305.129L108.163 306.493L108.594 307.211L109.168 307.57L110.462 307.642L111.684 307.355L112.042 306.923L112.114 300.676L111.396 297.012L110.534 295.576L110.39 295.288L110.749 294.068L111.826 291.267L112.832 288.537L113.406 287.316L114.053 286.669L118.291 285.881L120.229 285.305L121.019 284.444L121.737 282.29L122.456 276.257L122.885 270.654L122.6 267.279L123.389 262.321L124.394 259.235L123.963 258.589L123.821 254.422L121.233 249.968L117.932 244.224L116.063 241.136L113.909 237.617L110.031 232.086L108.235 230.076L107.302 229.285L103.998 228.64L103.137 227.633L102.348 225.91L102.132 222.82L102.204 220.451L101.916 216.501L101.414 210.9L101.198 209.248L100.335 205.01L99.5469 200.987V199.981L99.9059 199.049L101.485 196.105L102.635 194.021L103.209 192.873L104.214 189.785L104.428 188.275L105.147 187.558L108.091 187.27L110.462 187.342L114.341 187.27L118.435 187.486L119.01 187.63L119.942 187.988L121.019 187.916L122.17 187.486L123.533 186.409L124.968 184.685L127.195 184.756L130.14 186.553L131.719 188.132L131.936 189.424L133.946 190.215L137.681 190.502L140.41 189.785L142.135 188.203L143.929 187.342L145.797 187.27L147.161 187.844L148.093 188.994L149.89 189.854L152.621 190.43L155.563 189.641L158.866 187.63L160.734 185.476L161.238 183.248L161.812 181.883L162.458 181.453L164.18 181.165L166.983 181.094L169.351 181.813L172.369 184.037L174.378 182.602L177.827 180.088L181.273 178.795H184.434L187.161 177.862L189.246 175.923L191.471 174.702L193.77 174.199L195.997 173.336L199.012 171.326L202.245 168.454L205.475 165.508L207.629 163.642L208.492 165.869L210.073 167.95L209.067 169.099L207.773 170.176L209.713 171.614L208.204 173.769L207.99 175.205L208.348 175.852L208.634 176.713L207.56 179.155L206.266 181.021L205.907 182.458L206.913 185.043L206.194 189.497L207.126 193.589L207.342 195.672L207.701 197.038L207.058 199.551V203.788L207.199 205.513L206.481 207.667L207.56 208.386L208.061 210.756L207.773 213.413L207.415 214.849L205.475 216.572L205.26 217.291V218.296L207.56 218.368V219.949L207.342 221.17V223.54L206.984 225.047L207.487 226.771L206.695 228.71L206.913 230.217L206.84 232.158L207.199 237.043L206.984 243.002L207.058 244.01L207.846 244.726L208.995 245.015L208.924 246.667L207.56 248.823L207.415 250.185L207.487 252.053L208.995 249.537H209.855L210.574 250.544L210.432 251.982L210.646 252.771L210.432 254.209L210.788 256.001L210.574 257.583L209.498 258.66L208.061 260.529L207.773 262.321L207.846 263.473L206.913 263.83L206.481 264.549L206.984 266.274L206.913 267.709L205.043 272.307L200.521 278.626L198.582 280.852L196.714 283.223V284.227L196.499 285.089L194.344 288.609L192.118 289.111L190.896 290.044L191.686 293.134L190.252 293.78L187.736 296.224L180.841 300.747L179.766 301.824L177.897 304.698L175.67 305.343L174.378 306.134L172.152 306.419L171.436 306.207L170.645 306.278L169.998 306.923L165.545 308.863L161.38 310.371L160.304 311.088L159.585 312.095L155.922 313.603L150.104 317.411L145.294 321.073L141.773 324.736L140.841 325.238L139.764 326.53L139.26 328.398L138.902 329.474L136.246 333.282L132.294 337.806L131.505 339.098L129.924 341.613L129.636 343.264L128.345 343.767L127.268 342.187L126.693 345.206L125.76 345.419L124.754 344.772L122.24 346.28L119.942 348.077L116.281 351.739L111.037 358.852L103.496 365.674L102.491 365.889L101.843 365.817L99.6899 363.446L98.4689 363.231L99.4749 364.668L100.193 365.889L99.8329 368.186L99.7609 371.706L98.5419 378.458L98.6129 379.965L99.5469 381.907L101.341 384.274L102.993 387.219L104.932 395.622L104.861 400.004L106.944 405.534V407.905L107.589 413.864L107.23 418.749L106.872 421.692L107.949 422.913L108.452 421.836V419.969L108.955 416.954L109.674 415.588L110.245 415.803L110.39 417.239L110.749 418.461L110.821 419.682V421.262L109.601 427.366L109.674 429.807L110.679 433.975L108.955 438.788L106.296 450.061L106.081 452L106.514 452.862L107.589 453.221L108.091 451.713L108.738 451.786L108.955 452.649L107.805 457.819L106.8 460.12L103.28 465.719L101.485 468.09L98.5419 470.459L91.7909 474.049L78.4319 479.293L73.0449 481.879L69.8869 483.389L63.0649 488.272L60.0459 491.575L58.6109 495.454L57.3899 497.178L56.1699 499.333L57.0309 501.272L57.8919 502.704L58.9689 503.713L59.4719 504.502L60.1899 505.077L61.1249 502.133L61.5539 501.198L62.2019 501.125L61.6259 504.792L60.1189 517.288L60.0459 517.717Z" fill="#E0E0E0"/>
<path d="M490.044 394.002L487.991 394.531L485.739 394.267L485.01 393.206L484.879 392.743L485.674 392.346L485.738 390.954L486.334 388.766L486.932 387.839L488.123 387.043L488.721 385.32L489.78 384.129L491.106 383.996L492.165 386.182L492.827 388.501L492.364 390.82L491.436 391.679L491.04 393.005L490.044 394.002Z" fill="#E0E0E0"/>
<path d="M105.939 198.904L105.293 199.049L104.932 198.618L105.003 197.468L105.293 196.678L105.866 196.536L106.296 196.75L106.583 197.11V197.756L106.37 198.402L105.939 198.904Z" fill="#E0E0E0"/>
<path d="M104.573 196.75L104.214 197.899H103.496L102.851 196.894L103.065 196.105L103.784 195.816L104.287 196.105L104.573 196.75Z" fill="#E0E0E0"/>
<path d="M82.9559 142.669L84.5389 144.608L85.3269 144.824L86.4039 144.608L89.3479 144.393L90.5688 144.68L92.0769 145.83L92.7239 145.974L93.6579 146.045L93.8009 145.686L93.9429 145.041L93.8009 143.675L94.0149 142.958L94.6629 142.166L96.2419 143.1L100.263 147.337L100.335 147.84L102.851 152.005L103.639 153.802V154.734L104.358 158.399L104.501 160.049L104.287 161.343V162.42L104.573 163.928L104.428 164.502L105.293 166.729L105.722 168.525L105.795 170.32L105.434 172.044L104.573 174.629L104.428 175.635L104.573 176.568L105.076 177.573L105.939 178.653L106.583 179.944L106.944 181.525L107.302 182.244L107.805 182.171L108.667 182.458L109.313 183.32L110.104 184.9L110.318 186.625L110.462 187.342L108.091 187.27L105.147 187.558L104.428 188.275L104.214 189.785L103.209 192.873L102.635 194.021L101.485 196.105L99.9059 199.049L99.5469 199.981V200.987L100.335 205.01L101.198 209.248L101.414 210.9L101.916 216.501L102.204 220.451L102.132 222.82L102.348 225.91L103.137 227.633L103.998 228.64L107.302 229.285L108.235 230.076L110.031 232.086L113.909 237.617L116.063 241.136L117.932 244.224L121.233 249.968L123.821 254.422L123.963 258.589L124.394 259.235L123.389 262.321L122.6 267.279L122.885 270.654L122.456 276.257L121.737 282.29L121.019 284.444L120.229 285.305L118.291 285.881L114.053 286.669L113.406 287.316L112.832 288.537L111.826 291.267L110.749 294.068L110.39 295.288L110.534 295.576L111.396 297.012L112.114 300.676L112.042 306.923L111.684 307.355L110.462 307.642L109.168 307.57L108.594 307.211L108.163 306.493L107.877 305.129L108.738 304.196L109.097 302.613L108.594 301.178L107.518 300.891L106.152 299.598L103.28 295.36L100.838 292.416L99.4749 289.974L98.0379 289.041L97.6059 288.394L97.3188 287.388V285.881L97.5359 284.803L97.1039 283.581L95.6679 281.643L95.0219 280.637V279.344L95.6679 278.124L97.0339 276.687L98.1078 273.67L98.5419 271.729L100.552 267.852L100.91 264.477L101.054 261.748V259.737L100.696 255.572L100.479 252.698L98.3249 248.965L97.6059 248.605L95.4529 248.894L93.5119 249.466L92.5799 250.258H91.2159L87.5529 250.904L86.4039 251.191L85.7569 251.838L85.3269 251.982L83.1719 249.107L81.2328 245.947L78.8619 240.561L78.1459 239.915L77.2829 238.406L76.4939 238.767L75.3439 239.842L74.7679 240.131H74.4829L74.3389 239.842L74.1229 239.125L73.3339 237.115L72.4709 235.677L71.4649 235.103L70.6759 234.457L71.1059 233.81L71.4649 233.38L71.3229 232.875L70.8929 232.158L69.1679 231.153V230.722L70.7489 229.859L71.7529 228.854L72.3999 227.849L73.3339 225.694L74.0529 223.54L74.5539 222.893L74.7679 221.457V219.805L75.1279 217.794L75.3439 215.856L74.8409 215.064L74.4829 213.772L75.0569 211.546L75.9189 209.967L79.7959 208.386L82.5249 206.949L83.1719 206.374L84.1049 205.083L84.6789 203.933L84.3209 203.574L82.1669 203.501L81.6629 203.072L80.2289 198.833L81.2328 193.95L81.3769 192.01V189.641L81.1609 187.916L80.5149 187.197L80.0839 186.264L80.2979 183.751L80.9438 183.463L82.3829 180.088L83.0279 178.148L82.3109 176.568L81.5919 174.343L81.2328 172.906L81.0889 172.403L81.6629 171.541L82.5969 170.678L83.6029 170.464L84.6789 170.034L88.1999 165.869L88.2699 165.078L87.6949 163.642L86.4759 161.56L86.1879 160.696L86.1159 158.183L85.6129 157.393L83.7469 155.67L82.3829 153.873L82.8859 152.077L83.1719 150.067L82.4529 148.989L81.4479 147.84L80.8039 146.188L80.5149 144.968L79.7259 144.466H78.9349L78.3599 145.254L77.7839 145.182L77.0688 144.896L76.8519 143.819L76.7799 142.669L76.2769 141.878L75.8469 140.803L75.7739 140.229L76.1329 140.084L76.7799 139.94L79.4369 142.166L81.0889 142.239L82.9559 142.669Z" fill="#E0E0E0"/>
<path d="M342.932 227.49V228.279L340.633 227.993L340.418 225.192L341.497 225.119L341.855 224.042L342.501 223.897L343.148 226.341L342.932 227.49Z" fill="#E0E0E0"/>
<path d="M364.836 207.38L365.482 209.678L366.343 211.833L369 217.147L370.15 219.229L371.084 221.384L371.373 225.694L372.879 232.444L374.1 242.5L374.029 252.842L374.316 257.583L375.394 262.036L377.332 266.704L377.762 271.875L376.041 277.118L373.741 282.145L373.239 283.078L372.233 284.301H371.803L370.295 282.936L369.146 280.852L367.854 275.825L367.422 273.312L366.704 272.952L364.836 273.097L363.328 274.677L363.04 275.681L363.111 278.483L363.544 280.996L363.615 283.581L363.401 286.742L363.903 287.747L364.55 288.609L365.197 290.693L365.053 295.72L364.405 298.233L362.897 300.389V301.609L363.328 302.829L362.825 303.62L360.959 304.553L360.167 305.343L359.09 307.57L357.224 312.095L356.793 314.393L357.297 321.43L356.721 326.388L354.065 335.938L352.558 340.393L350.546 345.777L347.528 352.889L344.439 361.795L341.638 370.989L339.701 376.52L337.545 381.907L334.385 391.528L331.586 401.223L327.707 411.926L322.536 423.92L321.962 425.428L320.598 431.532L319.233 436.848L317.652 442.09L314.564 450.78L314.062 453.438L313.344 456.022L310.617 461.411L309.538 463.42L308.675 465.575L308.029 468.303L307.096 470.889L305.085 475.774L302.285 479.866L300.489 481.377L296.755 483.532L294.887 483.963H290.865L286.916 485.11L282.677 487.481L278.584 490.209L276.933 491.502L275.208 492.221L270.11 492.293L268.673 491.717L263.934 487.051L261.997 486.331L258.333 485.616L257.184 485.254L256.251 484.608L254.886 482.239L252.083 480.227L251.367 479.579L251.078 478.145L250.863 476.708L250.217 474.985L249.93 471.823L249.138 469.598L246.627 465.647L246.482 464.428L246.554 460.26L246.912 457.389L247.057 452.288L247.56 449.848L248.709 447.692L248.494 445.321L247.631 442.809L247.416 440.223L246.842 437.924L244.256 433.614L243.683 431.532L243.396 429.377L242.819 422.7V420.399L243.322 415.446L243.969 412.93L244.758 411.135L245.046 409.842L245.622 408.694L246.34 407.833L246.912 406.754L248.494 400.434L249.93 399.069L252.083 398.28L253.88 396.627L254.957 394.475L256.251 389.877L259.194 385.352L260.272 382.981L262.64 379.389L264.867 374.292L265.586 371.922L266.162 369.479L266.95 364.092L267.525 361.434L267.597 358.78L266.733 356.048L264.51 351.022V350.086L264.94 346.425L264.867 343.767L264.079 341.109L263.071 338.596L262.139 333.929L262.065 326.171L262.354 323.441L262.139 320.928L261.421 318.557L262.284 314.463L270.757 299.525L271.116 297.802L271.044 293.205L271.404 290.548L271.69 289.542L272.336 289.041L273.629 288.754L279.877 288.107L280.74 287.673L282.319 286.454L284.615 284.011L285.625 283.294L286.413 283.581L286.916 284.658L287.563 285.234L290.147 284.156L291.081 284.084L292.085 284.301L292.588 283.294L292.949 281.93L293.379 280.924L294.097 280.42L297.329 280.134L299.412 279.774L302.141 278.842L302.643 279.058L304.654 282.504L305.229 282.792L306.089 282.936L306.881 282.29L305.229 280.495L305.012 279.487L305.156 278.338L306.234 275.898L307.886 274.029L311.549 271.158L315.356 267.926L316.361 267.637L317.223 268.213L317.724 272.092L317.583 272.737L318.155 272.88L318.873 272.376L319.521 270.796L319.663 269.506L319.233 268.213L319.018 267.207L319.09 266.201L321.028 263.902L322.609 261.676L323.397 259.09L324.045 257.871L325.624 256.506L326.055 256.722L326.343 257.871L326.485 259.018L326.055 260.168L325.41 261.317L325.122 262.897L325.984 263.185L326.773 262.826L328.138 260.025L329.646 257.438L330.508 256.076L331.586 255.142L333.239 255.355L334.817 255.931L332.304 253.128L331.872 249.325L335.393 242.788L335.463 241.423L335.966 240.991L336.183 240.417L334.675 238.19L334.458 237.115L334.746 235.462L335.608 233.955L336.326 232.947L337.403 232.517L338.192 233.091L339.845 234.959L340.994 235.247L342.575 233.521L343.794 231.297L345.662 229.787L347.745 228.926L350.976 225.479L353.345 218.296L353.561 216.142L353.273 213.629L352.7 211.186L351.621 208.098L351.982 207.451L353.633 207.884L354.209 207.451L356.146 204.793L359.378 199.695H360.384L361.173 200.628L361.462 202.064L361.965 203.072L363.903 205.584L364.836 207.38Z" fill="#E0E0E0"/>
<path d="M366.129 304.769L363.903 308.791L364.693 305.416L367.277 300.676L367.924 300.317L366.129 304.769Z" fill="#E0E0E0"/>
<path d="M159.298 1.39697L161.021 2.61897L161.309 3.12097L161.594 5.49197L161.812 6.92796L161.667 8.22197L160.662 10.448L160.375 11.596L160.304 12.387L160.589 12.673L161.453 12.817L162.17 13.32L162.386 13.75L162.96 15.402L163.608 16.266L165.186 17.629L167.916 20.072L170.572 22.441L173.23 24.882L175.96 27.253L178.616 29.623L181.273 32.065L184.001 34.435L186.659 36.878L187.952 38.026L188.526 38.385L188.599 37.811L189.677 36.519L191.256 36.949L193.339 33.717L195.997 26.68L196.356 25.959L196.857 24.811L197.718 23.232L197.936 22.37L198.22 21.436L199.3 18.707L200.09 14.181L200.736 13.32L201.454 11.238L202.459 9.29897L204.613 7.14397L204.901 5.41997L206.049 2.11597" fill="#E0E0E0"/>
<path d="M5.32388 201.634L6.83087 203.645L9.05887 204.077L11.7149 204.867L13.1529 205.441L14.1579 205.154L14.5159 204.508V203L14.3719 201.923L14.6599 201.06L15.5939 200.485L17.8929 200.415L18.8979 199.696L19.7579 199.479L19.6859 202.785L19.6139 205.872L19.4719 209.678L19.3999 214.06L19.3289 217.578L19.2559 221.384L19.1119 225.767V226.269L18.6809 227.275L17.8199 227.561L16.5979 226.7L16.5269 225.839L16.2399 224.186L15.6649 223.396L14.9459 223.109L13.6539 223.541L11.9289 224.69L9.63187 225.768L8.69687 226.343L7.11588 226.27L5.46689 225.696L4.24487 224.332L3.95587 222.32" fill="#E0E0E0"/>
<path d="M12.4329 2.61897V4.48798L12.2169 7.57497L12.1459 9.29997L12.2879 11.741L12.2169 16.266L12.1459 19.496L12.2879 21.148L14.1569 25.171L15.0179 29.553L15.3759 32.783V33.863L14.7309 37.525L13.9399 41.188L13.8679 42.552L14.2289 44.348L15.5199 48.513L16.5259 51.6L16.9579 53.397L17.6739 55.551L18.5359 58.783L18.7519 60.363L18.5359 61.513L16.5969 65.606L16.4549 66.9L16.8129 70.059L17.3879 73.146L18.2489 74.871L20.3319 79.682L21.8399 81.334L24.7129 83.705L27.2269 86.146L28.1609 87.439L29.0939 88.802L30.7449 92.393L31.8239 95.339L32.3249 97.997L33.6889 101.588L34.9109 104.963L36.5619 109.057L37.6409 111.931L38.1429 113.869L35.1279 114.444L30.6729 115.235L25.7919 116.096L20.7629 117.029L15.8079 117.962L11.0689 118.825L6.75888 119.615L5.46689 120.117L6.11188 122.344L5.75287 124.715L4.88989 126.582L0.526886 128.881V0.180969" fill="#E0E0E0"/>
<path d="M264.437 204.005L265.586 205.296L262.21 204.724L261.708 203.501V202.639L263.002 202.855L264.437 204.005Z" fill="#E0E0E0"/>
<path d="M276.647 199.121L277.363 202.137L277.292 204.436L276.861 205.154L276.143 204.652L274.777 202.855L272.048 201.06L273.342 200.917L274.06 201.131L274.852 200.987L275.424 199.981L275.496 199.407L276.214 198.904L276.647 199.121Z" fill="#E0E0E0"/>
<path d="M259.124 195.1L258.765 195.386L257.184 194.164L256.321 193.877L255.029 191.867L255.818 184.9L256.321 184.037L256.608 183.679L257.399 183.535L258.261 184.398L257.831 188.85L258.906 191.867L259.625 194.309L259.124 195.1Z" fill="#E0E0E0"/>
<path d="M39.9389 1.18198L40.2259 1.82896L40.1529 2.97797L40.4409 3.98396V5.84897L40.0809 7.42996L38.1429 8.14897L37.1379 9.00996L36.8499 9.44096L37.1379 9.87396L37.2099 10.519L35.4139 12.171L33.5469 14.254L33.1159 15.619L32.7559 17.271L32.1809 18.348L30.7439 19.856L29.3079 22.944L28.5889 24.955L24.9989 29.767L21.8389 32.138L20.9059 32.927L15.3749 32.783L15.0169 29.553L14.1559 25.171L12.2869 21.148L12.1449 19.496L12.2159 16.266L12.2869 11.741L12.1449 9.29997L12.2159 7.57497L12.4319 4.48798V2.61897" fill="#E0E0E0"/>
<path d="M3.24088 414.081L4.53189 415.804L5.32388 416.523" fill="#E0E0E0"/>
<path d="M39.0039 122.201L38.8619 121.912L37.3509 121.193L36.8499 120.763L36.6349 120.548L36.3469 120.619L35.7739 121.41L34.5509 122.201H34.1929L34.6959 121.698L34.8389 121.266V120.763L34.4069 120.548L33.5459 120.619L33.0429 120.404L32.7549 119.4L32.9709 117.892L33.3299 117.318L33.8329 116.815L34.5509 116.384L34.9829 115.305L35.1979 113.582L34.9829 112.144L34.3359 111.068L33.7609 110.35L33.2599 110.134L32.8289 109.56L32.0399 108.123L31.5369 107.55L30.2439 106.902L29.9569 106.327L29.7419 104.605L29.0219 102.52L28.7359 100.727L28.9519 100.08L28.8079 98.286L27.8019 94.479L26.8689 92.61L25.5029 91.175L24.0659 90.026L22.4139 89.379L20.9789 87.871L18.6069 84.137L17.2439 82.701L16.8119 81.91L16.2379 80.044L16.3819 77.962L16.2379 77.459L15.8069 77.531L15.5189 77.387L15.3049 76.954L13.4359 70.493L13.0049 70.132L12.7189 69.198L12.3589 68.695L11.7129 68.265L11.3539 67.188L11.2089 65.463L11.3539 64.53L11.7839 64.027L13.7969 62.017L14.0109 61.298V60.868L13.9389 59.071L14.0839 58.425L14.5859 58.353V58.067L12.0729 52.752L10.9229 49.808L10.2049 47.366L9.99088 45.857L10.1349 45.283L10.2769 38.533L10.4209 35.731L10.8509 34.509L11.2819 34.007L11.8569 34.15V32.571L12.7919 25.318L12.6479 24.526L12.3599 24.598L12.2159 25.675L10.8509 30.342L10.6369 30.487L9.41586 29.985L9.34387 29.266L9.91788 28.405L10.0629 27.541L9.91788 26.752L9.84589 25.1L10.2049 20.863L10.4209 19.858V19.139L10.2049 18.493L10.3489 17.703L10.8509 16.698L10.9949 14.83L10.8509 12.101L10.9229 10.306L11.2089 9.44397L11.5699 8.94096L11.9279 8.79797L13.7239 9.15697L14.2989 9.87598V11.456V15.766L14.5129 18.637L14.8019 20.003L16.0209 22.588V23.09L17.5289 27.47L18.5349 29.554L19.3979 30.99L19.8289 32.212L19.6129 33.719L18.8969 40.184L19.0389 42.122L18.7529 42.481L18.8979 42.696L19.3999 42.84L20.2619 43.416L21.4099 44.421L22.1289 45.641L22.4879 47.079L22.5599 48.013L22.2719 48.37V50.31L21.9849 50.453L21.7689 52.393L21.3389 53.47L21.4829 54.834L22.4159 56.128L23.2789 58.353L24.2839 61.443L24.7859 63.381L24.7129 64.172L24.1399 65.033L23.0619 65.894L22.3439 66.325L22.0569 66.11L21.6259 66.396L21.1249 67.043L20.7639 68.409L20.5499 70.634L20.6219 71.639L21.0529 72.574L22.3449 74.368L24.4999 76.739L24.5709 77.17H24.8569L25.8629 76.524L27.1559 76.237L27.8759 76.451L28.3769 76.811L28.6629 77.386L30.6729 79.683L31.6789 81.335L32.3979 83.203L33.4029 84.928L34.6239 86.364L35.2719 87.871L35.1989 89.452L34.8399 90.243L34.4799 90.315L34.3359 90.529L34.4799 91.606L35.4139 93.978L35.7749 96.133L35.5589 98.071L35.7749 99.723L36.4919 101.23L37.8579 103.168L39.5789 107.766L40.9449 110.494L41.0179 111.286L41.2319 111.788L41.8069 112.289L41.8789 112.648L41.6629 113.151V113.798L41.8789 114.804L42.7409 116.242L44.2479 118.035L44.9669 119.402L44.8229 120.479L45.1109 121.628L45.6139 122.705L45.8999 123.78L45.6859 125.505L45.4689 125.721L45.2549 125.649L44.9669 125.218L44.6799 125.363L44.3199 126.007L43.8169 126.439L43.0999 126.799L42.7399 126.728L41.8059 125.793L39.0039 122.201Z" fill="#B3DFF5" stroke="#1178AC" stroke-width="2"/>
<path d="M113.838 245.876L114.197 247.745L113.98 248.318L113.694 248.533H113.335L112.617 247.456L111.612 246.091L110.245 243.648L109.674 243.218L108.667 243.002L108.524 242.715L108.452 241.352L108.307 240.705L107.877 240.275L107.447 240.058L107.015 240.131L106.872 240.561L107.015 241.423L106.8 242.212L106.37 243.002L106.225 243.648L106.296 244.081L106.225 244.512L105.364 245.301L104.645 245.589L104.214 245.445L104.142 244.943L103.784 244.439L103.065 244.01L102.417 243.218L101.916 242.069L101.558 240.777L101.485 239.412L101.629 238.406L102.132 237.759L102.563 236.467L103.137 234.385L102.851 232.588L101.916 231.081L101.054 230.362L100.407 230.506L99.5469 229.573L98.1078 226.341L97.9659 225.623L98.1078 224.761L98.4689 223.828L98.6859 221.529L98.5419 216.931L98.3969 216.428L98.1078 214.993L97.6789 214.273L97.5359 213.557L97.6789 212.766L97.5359 212.263L97.1039 211.905L96.6729 211.258L96.3859 210.325L96.5309 206.877L96.2419 205.657L95.7399 204.938L95.0219 204.724L94.4459 204.077L93.8739 201.85L93.8009 200.917L94.3749 197.468L95.1649 195.889L96.3139 194.811L96.8899 193.806L96.8169 192.944L97.3909 191.867L99.1159 189.497L99.2579 188.922L98.7559 183.967L98.3969 181.525L97.8939 179.729L97.7499 178.436L98.1078 177.646L98.1809 176.929L98.0379 176.353L97.7499 166.441L97.5359 165.869L97.6059 165.364L98.0379 164.933L98.2529 164.287V163.642L98.3969 163.139L98.8279 162.851L98.6129 161.773L97.8939 160.049L97.1039 158.686L95.3809 156.531L94.7339 155.239L94.2309 153.658L93.5119 150.355L93.1549 149.708L92.9379 148.846V147.697L93.1549 146.907L93.8009 145.686L93.9429 145.041L93.8009 143.675L94.0149 142.958L94.6629 142.166L96.2419 143.1L100.263 147.337L100.335 147.84L102.851 152.005L103.639 153.802V154.734L104.358 158.399L104.501 160.049L104.287 161.343V162.42L104.573 163.928L104.428 164.502L105.293 166.729L105.722 168.525L105.795 170.32L105.434 172.044L104.573 174.629L104.428 175.635L104.573 176.568L105.076 177.573L105.939 178.653L106.583 179.944L106.944 181.525L107.302 182.244L107.805 182.171L108.667 182.458L109.313 183.32L110.104 184.9L110.462 187.342L110.318 190.718L109.815 193.662L108.955 196.175L108.38 197.541L107.877 197.756L107.158 198.546L106.01 199.84L105.507 200.772L105.651 201.347L105.722 202.497L105.578 204.363L105.434 205.226L105.293 205.584L106.8 210.396L107.015 213.054L106.37 215.354L106.225 217.291L106.728 219.085L106.8 221.24L106.583 223.756L106.728 225.336L107.302 226.052L107.518 228.138L107.374 231.439L107.447 233.308L107.805 233.666L110.245 233.955L110.679 234.241L111.323 236.037L112.617 241.208L112.546 241.71L113.838 245.876Z" fill="#B3DFF5" stroke="#1178AC" stroke-width="2"/>
<path d="M104.932 198.618L105.293 199.049L105.939 198.904L106.37 198.402L106.583 197.756V197.11L106.296 196.75L105.866 196.536L105.293 196.678L105.003 197.468L104.932 198.618Z" fill="#B3DFF5" stroke="#1178AC" stroke-width="2"/>
<path d="M104.214 197.899L104.573 196.75L104.287 196.105L103.784 195.816L103.065 196.105L102.851 196.894L103.496 197.899H104.214Z" fill="#B3DFF5" stroke="#1178AC" stroke-width="2"/>
<path d="M114.7 253.273L114.124 254.639L113.694 255.717L113.335 255.859L112.472 254.567L112.545 252.411L112.76 251.335L113.335 250.905L113.838 251.047L114.269 252.054L114.7 253.273Z" fill="#B3DFF5" stroke="#1178AC" stroke-width="2"/>
<path d="M4.96289 120.692L6.47287 120.836L8.62488 122.56L9.48788 123.924L9.05789 125.576L7.47787 129.527L5.17886 133.19" fill="#B3DFF5"/>
<path d="M4.96289 120.692L6.47287 120.836L8.62488 122.56L9.48788 123.924L9.05789 125.576L7.47787 129.527L5.17886 133.19" stroke="#1178AC" stroke-width="2"/>
<path d="M23.7089 176.497L22.6309 179.225L22.2709 181.021L20.8359 182.745L19.3279 183.535L17.8919 183.463L16.4559 183.032L16.0229 180.949L15.8789 179.872L15.1629 179.513L14.9459 178.722L15.3769 178.219L16.1679 177.861L19.3289 172.977L19.9029 173.049L21.1949 172.044L22.6329 171.9L23.8519 173.193L24.2129 174.845L23.7089 176.497Z" fill="#B3DFF5" stroke="#1178AC" stroke-width="2"/>
<path d="M69.2399 110.565L69.5259 111.211L69.3109 111.713L66.5829 110.422L63.2069 108.914L61.1239 109.128L59.4719 109.416L58.8249 108.841L58.0349 107.189L57.1739 105.035L56.6709 103.239L56.8139 102.233L57.3889 101.444L58.5369 100.726L60.7649 101.803L64.7139 105.968L68.0909 109.487L69.2399 110.565Z" fill="#B3DFF5" stroke="#1178AC" stroke-width="2"/>
<path d="M127.412 15.331L127.77 13.536L128.273 11.956L128.847 10.951L129.279 10.59L129.637 10.734L129.854 11.381L129.637 14.038L129.062 16.768L128.489 17.556L127.915 17.987L127.554 17.845L127.339 16.908L127.412 15.331Z" fill="#B3DFF5" stroke="#1178AC" stroke-width="2"/>
<path d="M78.1459 239.915L77.2829 238.406L76.4939 238.767L75.3449 239.842L74.7689 240.131H74.4839L74.3399 239.842L74.1229 239.126L73.3339 237.116L72.4709 235.678L71.4649 235.104L70.6749 234.458L71.1059 233.811L71.4649 233.382L71.3229 232.877L70.8919 232.16L69.1669 231.155V230.724L70.7479 229.861L71.7529 228.855L72.3989 227.851L73.3329 225.696L74.0519 223.542L74.5529 222.895L74.7669 221.459V219.807L75.1269 217.796L75.3429 215.858L74.8399 215.066L74.4819 213.774L75.0559 211.548L75.9179 209.969L79.7949 208.388L82.5239 206.951L83.1709 206.376L84.1049 205.085L84.6789 203.935L84.3209 203.577L82.1669 203.504L81.6629 203.075L80.2279 198.835L81.2328 193.952L81.3769 192.012V189.643L81.1609 187.918L80.5149 187.199L80.0849 186.266L80.2989 183.754L80.9449 183.466L82.3829 180.091L83.0279 178.151L82.3109 176.571L81.5919 174.345L81.2328 172.908L81.0889 172.405L81.6629 171.543L82.5969 170.68L83.6029 170.466L84.6799 170.036L88.2009 165.871L88.2709 165.079L87.6959 163.643L86.4759 161.561L86.1879 160.697L86.1159 158.184L85.6129 157.394L83.7469 155.671L82.3829 153.874L82.8859 152.078L83.1719 150.068L82.4529 148.99L81.4489 147.841L80.8039 146.189L80.5149 144.969L79.7259 144.467H78.9349L78.3599 145.256L77.7839 145.184L77.0688 144.898L76.8519 143.82L76.7799 142.671L76.2769 141.88L75.8469 140.805L75.7739 140.23" stroke="#656565" stroke-width="2" stroke-miterlimit="10" stroke-linecap="round" stroke-linejoin="round"/>
<path d="M15.3759 32.783V33.863L14.7309 37.525L13.9399 41.188L13.8679 42.552L14.2289 44.348L15.5199 48.513L16.5259 51.6L16.9579 53.397L17.6739 55.551L18.5359 58.783L18.7519 60.363L18.5359 61.513L16.5969 65.606L16.4549 66.9L16.8129 70.059L17.3879 73.146L18.2489 74.871L20.3319 79.682L21.8399 81.334L24.7129 83.705L27.2269 86.146L28.1609 87.439L29.0939 88.802L30.7449 92.393L31.8239 95.339L32.3249 97.997L33.6889 101.588L34.9109 104.963L36.5619 109.057L37.6409 111.931L38.1429 113.869" stroke="#656565" stroke-width="2" stroke-miterlimit="10" stroke-linecap="round" stroke-linejoin="round"/>
<path d="M38.1429 113.869L38.5729 115.377L39.5079 118.033L40.5119 119.902L41.8779 121.627L42.9559 122.632L43.7459 122.918L48.5569 122.847L50.2819 123.851L51.7899 125.145L52.0779 127.155L53.0829 128.377L54.0889 129.382L54.5909 129.454L55.3809 129.238H56.6729L57.8199 129.669L58.3949 130.101L58.4679 131.753L58.7559 132.542L60.4069 132.831L62.0569 132.974L63.6369 134.051L65.3619 134.267L67.3719 134.77L68.3059 135.991L70.3899 137.21L72.9729 138.36L74.8419 139.654L75.7749 140.229" stroke="#656565" stroke-width="2" stroke-miterlimit="10" stroke-linecap="round" stroke-linejoin="round"/>
<path d="M3.24088 414.081L4.53189 415.804L5.32388 416.523" stroke="#656565" stroke-width="2" stroke-miterlimit="10" stroke-linecap="round" stroke-linejoin="round"/>
<path d="M39.9389 1.18198L40.2259 1.82896L40.1529 2.97797L40.4409 3.98396V5.84897L40.0809 7.42996L38.1429 8.14897L37.1379 9.00996L36.8499 9.44096L37.1379 9.87396L37.2099 10.519L35.4139 12.171L33.5469 14.254L33.1159 15.619L32.7559 17.271L32.1809 18.348L30.7439 19.856L29.3079 22.944L28.5889 24.955L24.9989 29.767L21.8389 32.138L20.9059 32.927L15.3749 32.783" stroke="#656565" stroke-width="2" stroke-miterlimit="10" stroke-linecap="round" stroke-linejoin="round"/>
<path d="M15.3759 32.783L15.0179 29.553L14.1569 25.171L12.2879 21.148L12.1459 19.496L12.2169 16.266L12.2879 11.741L12.1459 9.29997L12.2169 7.57497L12.4329 4.48798V2.61897" stroke="#656565" stroke-width="2" stroke-miterlimit="10" stroke-linecap="round" stroke-linejoin="round"/>
<path d="M3.24088 281.499L4.67587 280.421L8.84189 277.763L12.3609 276.04L16.5979 274.965H21.2659H25.6479H28.2329" stroke="#656565" stroke-width="2" stroke-miterlimit="10" stroke-linecap="round" stroke-linejoin="round"/>
<path d="M37.9989 421.262L40.5849 419.035L43.0989 415.949L46.1149 412.283L48.8439 408.98L51.2129 406.107L54.4449 402.228L57.6769 398.279L58.3939 397.849L58.6819 397.488L57.5339 394.043L59.8319 390.022L60.0459 387.364L60.1189 384.848L60.4069 383.7L61.0519 382.694L63.6369 380.614L65.6469 377.307L67.3009 374.219L69.6709 369.192L69.8869 367.971L70.0299 366.75L69.4549 365.098L68.1629 362.297L67.2289 359.926L66.5099 356.264L67.5879 353.034L67.9459 351.164L68.0179 350.086L67.6589 349.083L66.6539 348.365L65.7909 347.863L65.5759 346.57L65.6459 344.99L66.0799 344.126L68.3759 342.688L68.9509 341.971L69.2389 341.108L69.3099 339.887L70.1729 336.871L71.1769 333.997L71.2489 332.993L70.9609 332.06L70.8179 330.48L70.7469 327.966L71.0319 321.143L71.7519 314.032L71.6799 310.011L70.3879 305.341V302.038L71.5349 299.741L71.7509 298.305L70.9599 298.159L69.3789 298.015L68.2329 297.584L66.4369 295.646L63.2769 294.065L59.7579 292.556L54.4439 292.125L50.2789 287.458L46.8299 286.666L45.7539 286.093L42.5219 283.291L37.4209 283.004L32.0369 282.717L28.6599 282.572L28.2299 282.213L28.1579 278.407L28.2299 274.961" stroke="#656565" stroke-width="2" stroke-miterlimit="10" stroke-linecap="round" stroke-linejoin="round"/>
<path d="M45.3229 498.254L45.1089 496.674V494.303L46.3289 491.213L46.6179 485.326L46.8319 483.242L47.0479 479.15L47.2649 474.193L47.4799 469.738L47.7669 465.865L47.4799 464.066L47.2649 463.06L46.6899 461.05L46.0419 456.812L45.1819 453.582L44.0319 451.428L43.6719 450.35L43.3129 448.842L42.2359 446.184L41.3019 444.676L41.0859 443.453L41.3019 440.295L40.4399 434.619L39.8659 430.455L38.8609 425.93L38.1409 422.912L38.0689 422.41L37.9969 421.262" stroke="#656565" stroke-width="2" stroke-miterlimit="10" stroke-linecap="round" stroke-linejoin="round"/>
<path d="M45.3229 498.254L44.8929 498.541L44.0309 498.756L40.2959 496.242L36.5609 493.658L36.0589 493.513L35.1979 493.798L32.9709 495.667L30.8169 498.683L29.7399 501.197L28.0879 503.785L25.5029 507.951L25.2159 508.883L24.9999 512.333L24.9279 515.562L25.1439 515.994L26.3639 516.211L27.1549 518.867L29.0219 523.105L32.4699 525.906L35.6309 527.127L40.2269 527.488L43.8889 527.414L43.8169 524.541L44.4649 519.945L45.1109 516.857L45.6139 516.712L46.5479 517.073L47.0499 517.358L47.3369 510.462L46.9779 508.956L46.5479 506.729V505.293L46.9059 503.855L47.1939 501.556V499.617L45.6859 498.611L45.3229 498.254Z" stroke="#656565" stroke-width="2" stroke-miterlimit="10" stroke-linecap="round" stroke-linejoin="round"/>
<path d="M78.1459 239.915L74.3399 241.494L72.4009 242.286L66.7279 244.584L61.7709 246.595L60.4779 246.954L57.8919 247.96L56.6009 248.534L52.1459 250.259L50.2809 251.119L48.7729 251.983L45.1099 253.274L41.5919 254.495L37.7849 255.787L33.5469 257.152L31.1759 258.158L29.5249 259.091L25.7919 260.816L25.5749 261.318V262.541L26.0069 265.054L26.8699 267.28L27.5859 268.643L28.0179 272.02L28.2339 274.966" stroke="#656565" stroke-width="2" stroke-miterlimit="10" stroke-linecap="round" stroke-linejoin="round"/>
<path d="M110.462 187.342L108.09 187.27L105.146 187.558L104.427 188.276L104.213 189.785L103.208 192.873L102.633 194.021L101.483 196.105L99.9039 199.049L99.5449 199.981V200.986L100.334 205.009L101.197 209.247L101.413 210.899L101.915 216.5L102.203 220.45L102.131 222.82L102.347 225.91L103.136 227.633L103.997 228.639L107.301 229.285L108.234 230.076L110.03 232.086L113.908 237.617L116.062 241.136L117.931 244.224L121.232 249.968L123.82 254.422L123.962 258.589L124.393 259.235L123.388 262.321L122.598 267.279L122.884 270.654L122.454 276.257L121.735 282.29L121.017 284.444L120.227 285.305L118.289 285.881L114.051 286.669L113.404 287.316L112.829 288.537L111.823 291.267L110.746 294.068L110.387 295.288L110.531 295.576L111.393 297.013L112.111 300.677L112.039 306.924L111.681 307.357L110.459 307.644L109.165 307.572L108.59 307.213L108.159 306.495L107.873 305.131L108.734 304.198L109.093 302.615L108.59 301.179L107.514 300.892L106.148 299.599L103.276 295.362L100.834 292.418L99.4698 289.976L98.0329 289.043L97.6009 288.396L97.3139 287.391V285.884L97.5309 284.806L97.0979 283.584L95.6619 281.646L95.0159 280.64V279.347L95.6619 278.127L97.0279 276.689L98.1019 273.672L98.5359 271.732L100.546 267.855L100.904 264.48L101.048 261.751V259.74L100.69 255.574L100.473 252.7L98.3188 248.967L97.5999 248.608L95.4469 248.896L93.5059 249.469L92.5729 250.261H91.2099L87.5469 250.907L86.3979 251.194L85.7509 251.841L85.3209 251.986L83.1659 249.111L81.2279 245.951L78.8559 240.564L78.1399 239.918" stroke="#656565" stroke-width="2" stroke-miterlimit="10" stroke-linecap="round" stroke-linejoin="round"/>
<path d="M5.32388 201.634L6.83087 203.645L9.05887 204.077L11.7149 204.867L13.1529 205.441L14.1579 205.154L14.5159 204.508V203L14.3719 201.923L14.6599 201.06L15.5939 200.485L17.8929 200.415L18.8979 199.696L19.7579 199.479L19.6859 202.785L19.6139 205.872L19.4719 209.678L19.3999 214.06L19.3289 217.578L19.2559 221.384L19.1119 225.767V226.269L18.6809 227.275L17.8199 227.561L16.5979 226.7L16.5269 225.839L16.2399 224.186L15.6649 223.396L14.9459 223.109L13.6539 223.541L11.9289 224.69L9.63187 225.768L8.69687 226.343L7.11588 226.27L5.46689 225.696L4.24487 224.332L3.95587 222.32" stroke="#656565" stroke-width="2" stroke-miterlimit="10" stroke-linecap="round" stroke-linejoin="round"/>
<path d="M38.1429 113.869L35.1279 114.444L30.6729 115.235L25.7919 116.096L20.7629 117.029L15.8079 117.962L11.0689 118.825L6.75888 119.615L5.46689 120.117L6.11188 122.344L5.75287 124.715L4.88989 126.582L3.52689 128.881" stroke="#656565" stroke-width="2" stroke-miterlimit="10" stroke-linecap="round" stroke-linejoin="round"/>
<path d="M159.298 1.39697L161.02 2.61797L161.308 3.11996L161.594 5.49197L161.811 6.92796L161.666 8.22197L160.661 10.448L160.374 11.596L160.303 12.387L160.588 12.674L161.452 12.818L162.17 13.32L162.386 13.751L162.96 15.403L163.608 16.266L165.186 17.63L167.916 20.073L170.572 22.442L173.23 24.883L175.96 27.254L178.616 29.624L181.273 32.066L184.001 34.436L186.658 36.879L187.951 38.027L188.525 38.386" stroke="#656565" stroke-width="2" stroke-miterlimit="10" stroke-linecap="round" stroke-linejoin="round"/>
<path d="M5.32388 416.522H5.53787L10.4939 415.588L14.5149 416.379L19.3989 418.748L23.9229 419.611L28.3039 418.963L31.7509 418.818L34.4799 419.177L36.5629 420.04L37.9999 421.261" stroke="#656565" stroke-width="2" stroke-miterlimit="10" stroke-linecap="round" stroke-linejoin="round"/>
<path d="M110.462 187.342L114.341 187.27L118.435 187.486L119.01 187.63L119.943 187.988L121.02 187.916L122.171 187.486L123.534 186.408L124.969 184.684L127.197 184.756L130.142 186.553L131.721 188.132L131.938 189.424L133.948 190.215L137.683 190.502L140.412 189.784L142.137 188.202L143.931 187.342L145.799 187.27L147.163 187.844L148.095 188.994L149.892 189.854L152.622 190.429L155.565 189.64L158.868 187.63L160.736 185.475L161.24 183.247L161.814 181.882L162.461 181.452L164.182 181.164L166.985 181.093L169.353 181.812L172.371 184.037L174.38 182.602L177.828 180.088L181.275 178.796H184.435L187.162 177.862L189.247 175.924L191.472 174.702L193.77 174.199L195.998 173.336L199.013 171.326L202.246 168.454L205.476 165.508L207.63 163.642" stroke="#656565" stroke-width="2" stroke-miterlimit="10" stroke-linecap="round" stroke-linejoin="round"/>
<path d="M47.0479 517.358L48.5559 517.288L51.0699 517.864H53.1519L55.0209 517.79L58.2529 517.718H60.0459" stroke="#656565" stroke-width="2" stroke-miterlimit="10" stroke-linecap="round" stroke-linejoin="round"/>
<path d="M110.462 187.342L110.318 186.624L110.104 184.9L109.313 183.32L108.667 182.458L107.805 182.171L107.302 182.244L106.944 181.525L106.583 179.944L105.938 178.653L105.075 177.572L104.572 176.568L104.427 175.634L104.572 174.629L105.432 172.044L105.793 170.32L105.72 168.525L105.291 166.729L104.426 164.502L104.571 163.927L104.285 162.419V161.342L104.499 160.048L104.356 158.399L103.637 154.734V153.801L102.848 152.004L100.333 147.839L100.261 147.336L96.2399 143.099L94.6609 142.165L94.0129 142.957L93.7989 143.674L93.9409 145.04L93.7989 145.685L93.6549 146.044L92.7209 145.973L92.0749 145.829L90.5669 144.679L89.3448 144.392L86.4009 144.607L85.3239 144.822L84.5349 144.607L82.9519 142.668L81.0859 142.237L79.4339 142.164L76.7769 139.938L76.1299 140.082L75.7709 140.227" stroke="#656565" stroke-width="2" stroke-miterlimit="10" stroke-linecap="round" stroke-linejoin="round"/>
<path d="M266.162 369.479L266.95 364.092L267.525 361.434L267.597 358.78L266.733 356.049L264.51 351.023V350.087L264.941 346.426L264.867 343.768L264.079 341.11L263.071 338.597L262.138 333.93L262.065 326.172L262.353 323.442L262.138 320.929L261.42 318.557L262.283 314.464L270.756 299.526L271.115 297.803L271.043 293.205L271.403 290.548L271.69 289.543L272.336 289.041L273.628 288.754L279.876 288.108L280.739 287.674L282.319 286.454L284.615 284.012L285.624 283.295L286.413 283.582L286.916 284.66L287.562 285.236L290.146 284.158L291.08 284.086L292.084 284.303L292.587 283.296L292.948 281.932L293.378 280.926L294.096 280.423L297.328 280.136L299.411 279.776L302.14 278.844L302.642 279.06L304.653 282.506L305.228 282.794L306.088 282.938L306.88 282.292L305.228 280.497L305.011 279.49L305.155 278.341L306.233 275.901L307.885 274.032L311.548 271.161L315.355 267.929L316.36 267.64L317.222 268.216L317.723 272.095L317.581 272.74L318.154 272.883L318.872 272.38L319.52 270.8L319.662 269.509L319.232 268.216L319.017 267.21L319.089 266.204L321.027 263.905L322.608 261.678L323.397 259.093L324.045 257.874L325.624 256.509L326.055 256.725L326.343 257.874L326.486 259.021L326.055 260.171L325.41 261.32L325.122 262.9L325.984 263.188L326.774 262.829L328.139 260.029L329.646 257.442L330.509 256.08L331.587 255.146L333.24 255.359L334.818 255.935L332.305 253.133L331.873 249.329L335.394 242.792L335.464 241.427L335.967 240.994L336.184 240.42L334.677 238.193L334.46 237.118L334.748 235.465L335.61 233.958L336.328 232.95L337.406 232.52L338.195 233.094L339.848 234.962L340.997 235.249L342.578 233.524L343.798 231.3L345.665 229.79L347.748 228.929L350.979 225.481L353.348 218.299L353.564 216.145L353.276 213.632L352.702 211.188L351.623 208.101L351.984 207.454L353.635 207.887L354.211 207.454L356.149 204.796L359.381 199.698H360.387L361.176 200.631L361.465 202.067L361.968 203.075L363.906 205.587L364.839 207.383L365.485 209.68L366.346 211.835L369.003 217.149L370.152 219.231L371.086 221.385L371.375 225.696L372.881 232.446L374.1 242.5L374.029 252.842L374.316 257.583L375.394 262.036L377.332 266.703L377.762 271.874L376.041 277.117L373.742 282.144L373.24 283.077L372.234 284.3H371.803L370.295 282.935L369.147 280.851L367.855 275.825L367.423 273.312L366.705 272.952L364.837 273.097L363.329 274.677L363.041 275.681L363.112 278.483L363.545 280.996L363.616 283.58L363.402 286.741L363.904 287.746L364.55 288.608L365.197 290.691L365.053 295.718L364.405 298.231L362.898 300.387V301.607L363.329 302.827L362.826 303.619L360.96 304.552L360.168 305.342L359.091 307.569L357.225 312.094L356.794 314.391L357.298 321.428L356.722 326.386L354.066 335.936L352.558 340.391L350.547 345.775L347.529 352.887L344.44 361.793L341.639 370.986L339.702 376.517L337.546 381.904L334.386 391.525L331.587 401.22L327.708 411.923L322.537 423.917L321.963 425.425L320.599 431.529L319.234 436.845L317.653 442.087L314.565 450.776L314.062 453.434L313.344 456.018L310.617 461.407L309.538 463.417L308.675 465.571L308.029 468.3L307.095 470.886L305.085 475.771L302.285 479.863L300.489 481.375L296.755 483.529L294.887 483.961H290.865L286.916 485.107L282.677 487.478L278.584 490.207L276.933 491.5L275.208 492.219L270.109 492.291L268.672 491.715L263.933 487.049L261.995 486.328L258.331 485.613L257.183 485.252L256.25 484.606L254.884 482.237L252.082 480.225L251.365 479.577L251.076 478.143L250.861 476.705L250.215 474.982L249.928 471.82L249.136 469.595L246.625 465.644L246.48 464.425L246.552 460.257L246.91 457.386L247.055 452.284L247.558 449.845L248.707 447.689L248.491 445.318L247.628 442.806L247.413 440.22L246.839 437.921L244.253 433.61L243.68 431.528L243.392 429.374L242.816 422.696V420.395L243.319 415.442L243.966 412.926L244.755 411.131L245.043 409.838L245.619 408.69L246.338 407.829L246.91 406.751L248.492 400.431L249.929 399.066L252.082 398.277L253.878 396.625L254.955 394.473L256.25 389.875L259.193 385.35L260.271 382.979L262.639 379.387L264.866 374.289L265.586 371.92L266.162 369.479Z" stroke="#1178AC" stroke-width="3" stroke-miterlimit="10" stroke-linecap="round" stroke-linejoin="round"/>
<path d="M276.647 199.121L276.214 198.905L275.496 199.408L275.424 199.982L274.851 200.987L274.059 201.132L273.341 200.918L272.048 201.061L274.777 202.856L276.143 204.653L276.861 205.155L277.292 204.437L277.363 202.138L276.647 199.121Z" stroke="#1178AC" stroke-width="3" stroke-miterlimit="10" stroke-linecap="round" stroke-linejoin="round"/>
<path d="M263.002 202.855L261.707 202.639V203.502L262.21 204.725L265.586 205.297L264.436 204.006L263.002 202.855Z" stroke="#1178AC" stroke-width="3" stroke-miterlimit="10" stroke-linecap="round" stroke-linejoin="round"/>
<path d="M287.563 212.837L286.917 211.615L285.984 212.696L286.773 214.562L286.631 215.567L286.269 216.93L286.486 218.295L286.988 218.87L288.139 218.654V217.432L288.713 215.854V215.352L289.072 213.77L287.994 212.98L287.563 212.837Z" stroke="#1178AC" stroke-width="3" stroke-miterlimit="10" stroke-linecap="round" stroke-linejoin="round"/>
<path d="M257.831 188.85L258.261 184.399L257.399 183.536L256.608 183.68L256.321 184.038L255.818 184.901L255.028 191.868L256.32 193.878L257.183 194.165L258.764 195.387L259.123 195.101L259.624 194.309L258.905 191.868L257.831 188.85Z" stroke="#1178AC" stroke-width="3" stroke-miterlimit="10" stroke-linecap="round" stroke-linejoin="round"/>
<path d="M198.366 104.317L195.997 106.471L194.989 107.979L193.984 108.771L194.487 109.632L194.918 109.92L195.852 109.632L196.785 108.195L197.864 107.979L199.23 104.244L199.444 102.52L199.157 102.809L198.366 104.317Z" stroke="#1178AC" stroke-width="3" stroke-miterlimit="10" stroke-linecap="round" stroke-linejoin="round"/>
<path d="M192.692 70.346L191.759 69.268L190.682 65.679L190.537 62.66L189.748 60.722L188.957 63.522L187.592 65.247L187.806 68.551L187.305 70.491L188.382 72.718L189.605 72.788L190.753 74.656L191.471 74.297L191.903 75.806L192.477 76.596L192.979 76.524L193.914 76.02L194.128 75.16L192.837 70.493L192.692 70.346Z" stroke="#1178AC" stroke-width="3" stroke-miterlimit="10" stroke-linecap="round" stroke-linejoin="round"/>
<path d="M492.165 386.184L491.106 383.998L489.78 384.131L488.721 385.322L488.123 387.045L486.932 387.841L486.334 388.768L485.738 390.956L485.674 392.348L484.879 392.745L485.01 393.208L485.739 394.269L487.991 394.533L490.044 394.004L491.04 393.01L491.436 391.684L492.364 390.825L492.827 388.506L492.165 386.184Z" stroke="#1178AC" stroke-width="3" stroke-miterlimit="10" stroke-linecap="round" stroke-linejoin="round"/>
<path d="M457.768 395.325L456.69 394.677L454.249 394.32L451.735 395.181L450.512 397.263L450.084 398.486L451.088 402.006L451.878 403.225L455.038 405.166L456.69 405.379L459.202 404.805L459.706 403.442L460.352 400.424L458.844 397.838L457.768 395.325Z" fill="#C12838" stroke="#1178AC" stroke-width="3" stroke-miterlimit="10" stroke-linecap="round" stroke-linejoin="round"/>
<path d="M343.148 226.341L342.501 223.897L341.855 224.041L341.497 225.118L340.418 225.191L340.633 227.992L342.931 228.278V227.489L343.148 226.341Z" stroke="#1178AC" stroke-width="3" stroke-miterlimit="10" stroke-linecap="round" stroke-linejoin="round"/>
<path d="M364.693 305.416L363.903 308.791L366.129 304.769L367.923 300.317L367.276 300.676L364.693 305.416Z" stroke="#1178AC" stroke-width="3" stroke-miterlimit="10" stroke-linecap="round" stroke-linejoin="round"/>
<path d="M197.577 54.688L198.437 53.611L199.443 50.595L199.588 48.441V45.136L199.874 44.132L199.802 43.053L198.294 43.845L196.428 43.487L196.858 47.508L195.78 53.037L196.283 53.9L196.858 54.402L197.577 54.688Z" stroke="#1178AC" stroke-width="3" stroke-miterlimit="10" stroke-linecap="round" stroke-linejoin="round"/>
<path d="M451.816 78.328L452.013 79.519L452.807 80.182V78.328L451.484 75.61L450.292 76.604L450.82 77.398L451.816 78.328Z" stroke="#1178AC" stroke-width="3" stroke-miterlimit="10" stroke-linecap="round" stroke-linejoin="round"/>
<path d="M206.049 2.11597L204.902 5.41997L204.614 7.14397L202.46 9.29897L201.455 11.237L200.737 13.319L200.091 14.18L199.301 18.706L198.221 21.435L197.936 22.369L197.719 23.232L196.858 24.811L196.357 25.959L195.998 26.679L193.34 33.717L191.257 36.949L189.677 36.519L188.599 37.811L188.526 38.385L188.168 40.182L186.658 44.633L186.589 46.429L186.013 48.585L185.438 50.021L183.931 56.268L182.71 58.567L181.056 64.026L180.699 68.192L181.56 71.136L181.848 73.865L183.643 76.595L185.151 77.53L186.155 78.75L187.951 81.551L188.884 84.423L192.117 85.788L193.409 88.949L192.835 91.104L191.324 92.9L189.817 95.844L188.597 99.651L188.454 105.468L189.244 104.607L190.965 106.043L191.037 110.353L189.17 115.38L188.596 117.751L188.453 119.762L189.602 125.723L191.468 128.811L191.323 129.743L190.75 130.535L193.981 135.994L193.549 140.735L194.699 144.397L195.202 147.558L195.92 149.998L196.065 151.65L194.914 153.518L197.356 154.022L198.72 155.528L199.366 156.964H201.163L202.023 157.97L203.389 158.761L206.333 161.275L207.122 162.496L207.41 163.215L207.625 163.645L208.488 165.873L210.069 167.954L209.063 169.103L207.77 170.18L209.709 171.618L208.2 173.772L207.986 175.208L208.344 175.855L208.63 176.716L207.556 179.158L206.262 181.025L205.903 182.462L206.909 185.047L206.19 189.501L207.123 193.594L207.339 195.677L207.698 197.042L207.054 199.556V203.793L207.196 205.518L206.478 207.672L207.556 208.391L208.057 210.761L207.769 213.418L207.41 214.855L205.471 216.578L205.256 217.297V218.302L207.555 218.374V219.955L207.338 221.176V223.546L206.98 225.053L207.483 226.777L206.691 228.715L206.908 230.222L206.836 232.163L207.195 237.048L206.98 243.007L207.053 244.014L207.842 244.73L208.991 245.019L208.92 246.671L207.556 248.827L207.411 250.189L207.484 252.057L208.992 249.541H209.852L210.571 250.548L210.428 251.986L210.643 252.775L210.428 254.213L210.784 256.005L210.57 257.587L209.493 258.664L208.056 260.533L207.768 262.325L207.841 263.476L206.907 263.833L206.476 264.552L206.979 266.277L206.907 267.712L205.037 272.31L200.515 278.629L198.577 280.854L196.709 283.226V284.23L196.494 285.092L194.34 288.612L192.114 289.114L190.892 290.047L191.682 293.136L190.248 293.782L187.732 296.225L180.837 300.748L179.762 301.826L177.893 304.7L175.665 305.345L174.373 306.137L172.147 306.422L171.43 306.209L170.639 306.28L169.993 306.925L165.54 308.865L161.375 310.372L160.298 311.089L159.579 312.096L155.916 313.604L150.098 317.412L145.288 321.074L141.767 324.737L140.834 325.239L139.757 326.531L139.253 328.399L138.895 329.475L136.238 333.283L132.287 337.807L131.497 339.099L129.916 341.614L129.628 343.265L128.336 343.768L127.259 342.187L126.684 345.206L125.75 345.42L124.744 344.773L122.23 346.281L119.933 348.077L116.271 351.739L111.027 358.852L103.485 365.674L102.48 365.889L101.832 365.817L99.6799 363.446L98.4579 363.231L99.4639 364.669L100.183 365.89L99.8229 368.187L99.7499 371.707L98.5309 378.459L98.6019 379.967L99.5359 381.908L101.33 384.275L102.981 387.22L104.92 395.622L104.849 400.005L106.932 405.534V407.905L107.577 413.864L107.218 418.749L106.859 421.692L107.937 422.913L108.44 421.837V419.97L108.942 416.954L109.661 415.589L110.232 415.804L110.377 417.24L110.736 418.463L110.808 419.684V421.264L109.587 427.368L109.66 429.809L110.665 433.977L108.94 438.79L106.282 450.063L106.081 452L106.514 452.861L107.59 453.22L108.091 451.712L108.738 451.784L108.955 452.647L107.806 457.817L106.801 460.118L103.281 465.718L101.486 468.089L98.5429 470.458L91.7919 474.048L78.4329 479.292L73.0459 481.878L69.8879 483.388L63.0659 488.271L60.0469 491.574L58.6119 495.453L57.3899 497.178L56.1699 499.332L57.0309 501.271L57.8919 502.703L58.9699 503.713L59.4729 504.502L60.1909 505.076L61.1259 502.133L61.5559 501.197L62.2039 501.125L61.6279 504.791L60.1199 517.287L60.0469 517.717L59.1139 522.674L56.2429 530.5L55.2349 534.092L52.3639 546.875L49.2759 553.27" stroke="#1178AC" stroke-width="3" stroke-miterlimit="10" stroke-linecap="round" stroke-linejoin="round"/>
<path d="M301.014 142.734C301.427 142.734 301.762 142.399 301.762 141.986C301.762 141.573 301.427 141.238 301.014 141.238C300.601 141.238 300.266 141.573 300.266 141.986C300.266 142.399 300.601 142.734 301.014 142.734Z" fill="#FDFBE5"/>
<path d="M302.012 143.731C302.425 143.731 302.76 143.396 302.76 142.983C302.76 142.57 302.425 142.235 302.012 142.235C301.599 142.235 301.264 142.57 301.264 142.983C301.264 143.396 301.599 143.731 302.012 143.731Z" fill="#FDFBE5"/>
<path d="M304.006 143.732C304.42 143.732 304.755 143.397 304.755 142.983C304.755 142.569 304.42 142.234 304.006 142.234C303.592 142.234 303.257 142.569 303.257 142.983C303.257 143.397 303.592 143.732 304.006 143.732Z" fill="#FDFBE5"/>
<path d="M306.002 143.732C306.416 143.732 306.751 143.397 306.751 142.983C306.751 142.569 306.416 142.234 306.002 142.234C305.588 142.234 305.253 142.569 305.253 142.983C305.253 143.397 305.588 143.732 306.002 143.732Z" fill="#FDFBE5"/>
<path d="M306.002 141.737C306.416 141.737 306.751 141.402 306.751 140.988C306.751 140.574 306.416 140.239 306.002 140.239C305.588 140.239 305.253 140.574 305.253 140.988C305.253 141.402 305.588 141.737 306.002 141.737Z" fill="#FDFBE5"/>
<path d="M304.006 141.737C304.42 141.737 304.755 141.402 304.755 140.988C304.755 140.574 304.42 140.239 304.006 140.239C303.592 140.239 303.257 140.574 303.257 140.988C303.257 141.402 303.592 141.737 304.006 141.737Z" fill="#FDFBE5"/>
<path d="M302.012 141.736C302.425 141.736 302.76 141.401 302.76 140.988C302.76 140.575 302.425 140.24 302.012 140.24C301.599 140.24 301.264 140.575 301.264 140.988C301.264 141.401 301.599 141.736 302.012 141.736Z" fill="#FDFBE5"/>
<path d="M306.002 149.717C306.416 149.717 306.751 149.382 306.751 148.968C306.751 148.554 306.416 148.219 306.002 148.219C305.588 148.219 305.253 148.554 305.253 148.968C305.253 149.382 305.588 149.717 306.002 149.717Z" fill="#FDFBE5"/>
<path d="M325.952 149.717C326.366 149.717 326.701 149.382 326.701 148.968C326.701 148.554 326.366 148.219 325.952 148.219C325.538 148.219 325.203 148.554 325.203 148.968C325.203 149.382 325.538 149.717 325.952 149.717Z" fill="#FDFBE5"/>
<path d="M327.947 149.717C328.361 149.717 328.696 149.382 328.696 148.968C328.696 148.554 328.361 148.219 327.947 148.219C327.533 148.219 327.198 148.554 327.198 148.968C327.198 149.382 327.533 149.717 327.947 149.717Z" fill="#FDFBE5"/>
<path d="M326.949 150.713C327.362 150.713 327.697 150.378 327.697 149.965C327.697 149.552 327.362 149.217 326.949 149.217C326.536 149.217 326.201 149.552 326.201 149.965C326.201 150.378 326.536 150.713 326.949 150.713Z" fill="#FDFBE5"/>
<path d="M330.94 156.698C331.353 156.698 331.688 156.363 331.688 155.95C331.688 155.537 331.353 155.202 330.94 155.202C330.527 155.202 330.192 155.537 330.192 155.95C330.192 156.363 330.527 156.698 330.94 156.698Z" fill="#FDFBE5"/>
<path d="M397.022 156.698C397.435 156.698 397.77 156.363 397.77 155.95C397.77 155.537 397.435 155.202 397.022 155.202C396.609 155.202 396.274 155.537 396.274 155.95C396.274 156.363 396.609 156.698 397.022 156.698Z" fill="#FDFBE5"/>
<path d="M397.022 158.693C397.435 158.693 397.77 158.358 397.77 157.945C397.77 157.532 397.435 157.197 397.022 157.197C396.609 157.197 396.274 157.532 396.274 157.945C396.274 158.358 396.609 158.693 397.022 158.693Z" fill="#FDFBE5"/>
<path d="M393.032 144.728C393.445 144.728 393.78 144.393 393.78 143.98C393.78 143.567 393.445 143.232 393.032 143.232C392.619 143.232 392.284 143.567 392.284 143.98C392.284 144.393 392.619 144.728 393.032 144.728Z" fill="#FDFBE5"/>
<path d="M395.026 138.743C395.439 138.743 395.774 138.408 395.774 137.995C395.774 137.582 395.439 137.247 395.026 137.247C394.613 137.247 394.278 137.582 394.278 137.995C394.278 138.408 394.613 138.743 395.026 138.743Z" fill="#FDFBE5"/>
<path d="M387.046 140.739C387.459 140.739 387.794 140.404 387.794 139.991C387.794 139.578 387.459 139.243 387.046 139.243C386.633 139.243 386.298 139.578 386.298 139.991C386.298 140.404 386.633 140.739 387.046 140.739Z" fill="#FDFBE5"/>
<path d="M426.947 92.86C427.36 92.86 427.695 92.5251 427.695 92.112C427.695 91.6989 427.36 91.364 426.947 91.364C426.534 91.364 426.199 91.6989 426.199 92.112C426.199 92.5251 426.534 92.86 426.947 92.86Z" fill="#FDFBE5"/>
<path d="M426.947 94.854C427.36 94.854 427.695 94.5191 427.695 94.106C427.695 93.6928 427.36 93.358 426.947 93.358C426.534 93.358 426.199 93.6928 426.199 94.106C426.199 94.5191 426.534 94.854 426.947 94.854Z" fill="#FDFBE5"/>
<path d="M426.947 90.864C427.36 90.864 427.695 90.5291 427.695 90.116C427.695 89.7029 427.36 89.368 426.947 89.368C426.534 89.368 426.199 89.7029 426.199 90.116C426.199 90.5291 426.534 90.864 426.947 90.864Z" fill="#FDFBE5"/>
<path d="M433.181 75.404C433.595 75.404 433.93 75.0686 433.93 74.655C433.93 74.2413 433.595 73.906 433.181 73.906C432.767 73.906 432.432 74.2413 432.432 74.655C432.432 75.0686 432.767 75.404 433.181 75.404Z" fill="#FDFBE5"/>
<path d="M433.181 69.42C433.595 69.42 433.93 69.0846 433.93 68.671C433.93 68.2573 433.595 67.922 433.181 67.922C432.767 67.922 432.432 68.2573 432.432 68.671C432.432 69.0846 432.767 69.42 433.181 69.42Z" fill="#FDFBE5"/>
<path d="M435.177 73.409C435.591 73.409 435.926 73.0736 435.926 72.66C435.926 72.2463 435.591 71.911 435.177 71.911C434.763 71.911 434.428 72.2463 434.428 72.66C434.428 73.0736 434.763 73.409 435.177 73.409Z" fill="#FDFBE5"/>
<path d="M437.171 65.43C437.585 65.43 437.92 65.0946 437.92 64.681C437.92 64.2673 437.585 63.932 437.171 63.932C436.757 63.932 436.422 64.2673 436.422 64.681C436.422 65.0946 436.757 65.43 437.171 65.43Z" fill="#FDFBE5"/>
<path d="M437.171 63.435C437.585 63.435 437.92 63.0996 437.92 62.686C437.92 62.2723 437.585 61.937 437.171 61.937C436.757 61.937 436.422 62.2723 436.422 62.686C436.422 63.0996 436.757 63.435 437.171 63.435Z" fill="#FDFBE5"/>
<path d="M439.166 59.443C439.579 59.443 439.914 59.1081 439.914 58.695C439.914 58.2819 439.579 57.947 439.166 57.947C438.753 57.947 438.418 58.2819 438.418 58.695C438.418 59.1081 438.753 59.443 439.166 59.443Z" fill="#FDFBE5"/>
<path d="M439.166 51.464C439.579 51.464 439.914 51.1291 439.914 50.716C439.914 50.3029 439.579 49.968 439.166 49.968C438.753 49.968 438.418 50.3029 438.418 50.716C438.418 51.1291 438.753 51.464 439.166 51.464Z" fill="#FDFBE5"/>
<path d="M438.169 58.446C438.582 58.446 438.917 58.1111 438.917 57.698C438.917 57.2849 438.582 56.95 438.169 56.95C437.756 56.95 437.421 57.2849 437.421 57.698C437.421 58.1111 437.756 58.446 438.169 58.446Z" fill="#FDFBE5"/>
<path d="M444.153 64.431C444.566 64.431 444.901 64.0961 444.901 63.683C444.901 63.2699 444.566 62.935 444.153 62.935C443.74 62.935 443.405 63.2699 443.405 63.683C443.405 64.0961 443.74 64.431 444.153 64.431Z" fill="#FDFBE5"/>
<path d="M454.443 105.305C454.824 105.305 455.133 104.996 455.133 104.615C455.133 104.234 454.824 103.925 454.443 103.925C454.062 103.925 453.753 104.234 453.753 104.615C453.753 104.996 454.062 105.305 454.443 105.305Z" fill="#FDFBE5"/>
<path d="M471.006 129.229C471.387 129.229 471.696 128.92 471.696 128.539C471.696 128.158 471.387 127.849 471.006 127.849C470.625 127.849 470.316 128.158 470.316 128.539C470.316 128.92 470.625 129.229 471.006 129.229Z" fill="#FDFBE5"/>
<path d="M469.165 131.068C469.545 131.068 469.854 130.759 469.854 130.379C469.854 129.998 469.545 129.69 469.165 129.69C468.784 129.69 468.476 129.998 468.476 130.379C468.476 130.759 468.784 131.068 469.165 131.068Z" fill="#FDFBE5"/>
<path d="M471.006 129.229C471.387 129.229 471.696 128.92 471.696 128.539C471.696 128.158 471.387 127.849 471.006 127.849C470.625 127.849 470.316 128.158 470.316 128.539C470.316 128.92 470.625 129.229 471.006 129.229Z" fill="#FDFBE5"/>
<path d="M469.855 130.379C470.236 130.379 470.545 130.07 470.545 129.689C470.545 129.308 470.236 128.999 469.855 128.999C469.474 128.999 469.165 129.308 469.165 129.689C469.165 130.07 469.474 130.379 469.855 130.379Z" fill="#FDFBE5"/>
<path d="M464.335 78.85C464.715 78.85 465.024 78.5415 465.024 78.161C465.024 77.7805 464.715 77.472 464.335 77.472C463.954 77.472 463.646 77.7805 463.646 78.161C463.646 78.5415 463.954 78.85 464.335 78.85Z" fill="#FDFBE5"/>
<path d="M464.335 75.169C464.715 75.169 465.024 74.8605 465.024 74.48C465.024 74.0995 464.715 73.791 464.335 73.791C463.954 73.791 463.646 74.0995 463.646 74.48C463.646 74.8605 463.954 75.169 464.335 75.169Z" fill="#FDFBE5"/>
<path d="M462.494 75.17C462.875 75.17 463.184 74.8611 463.184 74.48C463.184 74.0989 462.875 73.79 462.494 73.79C462.113 73.79 461.804 74.0989 461.804 74.48C461.804 74.8611 462.113 75.17 462.494 75.17Z" fill="#FDFBE5"/>
<path d="M459.963 64.818C460.343 64.818 460.652 64.5095 460.652 64.129C460.652 63.7484 460.343 63.44 459.963 63.44C459.582 63.44 459.274 63.7484 459.274 64.129C459.274 64.5095 459.582 64.818 459.963 64.818Z" fill="#FDFBE5"/>
<path d="M451.223 62.518C451.604 62.518 451.913 62.209 451.913 61.828C451.913 61.4469 451.604 61.138 451.223 61.138C450.842 61.138 450.533 61.4469 450.533 61.828C450.533 62.209 450.842 62.518 451.223 62.518Z" fill="#FDFBE5"/>
<path d="M451.913 77.7C452.293 77.7 452.602 77.3915 452.602 77.011C452.602 76.6304 452.293 76.322 451.913 76.322C451.532 76.322 451.224 76.6304 451.224 77.011C451.224 77.3915 451.532 77.7 451.913 77.7Z" fill="#FDFBE5"/>
<path d="M451.683 75.861C452.064 75.861 452.373 75.552 452.373 75.171C452.373 74.7899 452.064 74.481 451.683 74.481C451.302 74.481 450.993 74.7899 450.993 75.171C450.993 75.552 451.302 75.861 451.683 75.861Z" fill="#FDFBE5"/>
<path d="M459.505 72.64C459.886 72.64 460.195 72.3311 460.195 71.95C460.195 71.5689 459.886 71.26 459.505 71.26C459.124 71.26 458.815 71.5689 458.815 71.95C458.815 72.3311 459.124 72.64 459.505 72.64Z" fill="#FDFBE5"/>
<path d="M459.505 74.94C459.886 74.94 460.195 74.631 460.195 74.25C460.195 73.8689 459.886 73.56 459.505 73.56C459.124 73.56 458.815 73.8689 458.815 74.25C458.815 74.631 459.124 74.94 459.505 74.94Z" fill="#FDFBE5"/>
<path d="M460.885 74.02C461.266 74.02 461.575 73.711 461.575 73.33C461.575 72.9489 461.266 72.64 460.885 72.64C460.504 72.64 460.195 72.9489 460.195 73.33C460.195 73.711 460.504 74.02 460.885 74.02Z" fill="#FDFBE5"/>
<path d="M461.803 75.17C462.184 75.17 462.493 74.8611 462.493 74.48C462.493 74.0989 462.184 73.79 461.803 73.79C461.422 73.79 461.113 74.0989 461.113 74.48C461.113 74.8611 461.422 75.17 461.803 75.17Z" fill="#FDFBE5"/>
<path d="M456.284 82.762C456.665 82.762 456.974 82.453 456.974 82.072C456.974 81.6909 456.665 81.382 456.284 81.382C455.903 81.382 455.594 81.6909 455.594 82.072C455.594 82.453 455.903 82.762 456.284 82.762Z" fill="#FDFBE5"/>
<path d="M456.284 80.461C456.665 80.461 456.974 80.152 456.974 79.771C456.974 79.3899 456.665 79.081 456.284 79.081C455.903 79.081 455.594 79.3899 455.594 79.771C455.594 80.152 455.903 80.461 456.284 80.461Z" fill="#FDFBE5"/>
<path d="M454.443 80.921C454.824 80.921 455.133 80.612 455.133 80.231C455.133 79.8499 454.824 79.541 454.443 79.541C454.062 79.541 453.753 79.8499 453.753 80.231C453.753 80.612 454.062 80.921 454.443 80.921Z" fill="#FDFBE5"/>
<path d="M455.593 79.771C455.974 79.771 456.283 79.462 456.283 79.081C456.283 78.6999 455.974 78.391 455.593 78.391C455.212 78.391 454.903 78.6999 454.903 79.081C454.903 79.462 455.212 79.771 455.593 79.771Z" fill="#FDFBE5"/>
<path d="M455.363 81.151C455.744 81.151 456.053 80.842 456.053 80.461C456.053 80.0799 455.744 79.771 455.363 79.771C454.982 79.771 454.673 80.0799 454.673 80.461C454.673 80.842 454.982 81.151 455.363 81.151Z" fill="#FDFBE5"/>
<path d="M456.284 82.071C456.665 82.071 456.974 81.7621 456.974 81.381C456.974 80.9999 456.665 80.691 456.284 80.691C455.903 80.691 455.594 80.9999 455.594 81.381C455.594 81.7621 455.903 82.071 456.284 82.071Z" fill="#FDFBE5"/>
<path d="M463.184 74.481C463.565 74.481 463.874 74.172 463.874 73.791C463.874 73.4099 463.565 73.101 463.184 73.101C462.803 73.101 462.494 73.4099 462.494 73.791C462.494 74.172 462.803 74.481 463.184 74.481Z" fill="#FDFBE5"/>
<path d="M476.681 194.406C477.061 194.406 477.37 194.098 477.37 193.717C477.37 193.336 477.061 193.028 476.681 193.028C476.3 193.028 475.992 193.336 475.992 193.717C475.992 194.098 476.3 194.406 476.681 194.406Z" fill="#FDFBE5"/>
<path d="M475.453 192.566C475.834 192.566 476.143 192.257 476.143 191.876C476.143 191.495 475.834 191.186 475.453 191.186C475.072 191.186 474.763 191.495 474.763 191.876C474.763 192.257 475.072 192.566 475.453 192.566Z" fill="#FDFBE5"/>
<path d="M474.229 190.727C474.61 190.727 474.919 190.418 474.919 190.037C474.919 189.656 474.61 189.347 474.229 189.347C473.848 189.347 473.539 189.656 473.539 190.037C473.539 190.418 473.848 190.727 474.229 190.727Z" fill="#FDFBE5"/>
<path d="M511.034 319.546C511.414 319.546 511.723 319.237 511.723 318.857C511.723 318.476 511.414 318.168 511.034 318.168C510.653 318.168 510.345 318.476 510.345 318.857C510.345 319.237 510.653 319.546 511.034 319.546Z" fill="#FDFBE5"/>
<path d="M566.243 394.998C566.623 394.998 566.932 394.69 566.932 394.309C566.932 393.928 566.623 393.62 566.243 393.62C565.862 393.62 565.554 393.928 565.554 394.309C565.554 394.69 565.862 394.998 566.243 394.998Z" fill="#FDFBE5"/>
<path d="M321.298 195.018C321.711 195.018 322.046 194.683 322.046 194.27C322.046 193.857 321.711 193.522 321.298 193.522C320.885 193.522 320.55 193.857 320.55 194.27C320.55 194.683 320.885 195.018 321.298 195.018Z" fill="#C12838"/>
<path d="M305.338 206.989C305.752 206.989 306.087 206.654 306.087 206.24C306.087 205.826 305.752 205.491 305.338 205.491C304.924 205.491 304.589 205.826 304.589 206.24C304.589 206.654 304.924 206.989 305.338 206.989Z" fill="#C12838"/>
<path d="M179.655 404.489C180.068 404.489 180.403 404.154 180.403 403.741C180.403 403.328 180.068 402.993 179.655 402.993C179.242 402.993 178.907 403.328 178.907 403.741C178.907 404.154 179.242 404.489 179.655 404.489Z" fill="#C12838"/>
<path d="M227.534 310.726C227.947 310.726 228.282 310.391 228.282 309.978C228.282 309.565 227.947 309.23 227.534 309.23C227.121 309.23 226.786 309.565 226.786 309.978C226.786 310.391 227.121 310.726 227.534 310.726Z" fill="#C12838"/>
<path d="M445.649 291.359C446.063 291.359 446.398 291.024 446.398 290.61C446.398 290.196 446.063 289.861 445.649 289.861C445.235 289.861 444.9 290.196 444.9 290.61C444.9 291.024 445.235 291.359 445.649 291.359Z" fill="#C12838"/>
<path d="M193.62 420.45C194.033 420.45 194.368 420.115 194.368 419.702C194.368 419.289 194.033 418.954 193.62 418.954C193.207 418.954 192.872 419.289 192.872 419.702C192.872 420.115 193.207 420.45 193.62 420.45Z" fill="#C12838"/>
<path d="M301.014 142.734C301.427 142.734 301.762 142.399 301.762 141.986C301.762 141.573 301.427 141.238 301.014 141.238C300.601 141.238 300.266 141.573 300.266 141.986C300.266 142.399 300.601 142.734 301.014 142.734Z" stroke="#1178AC" stroke-width="2" stroke-miterlimit="10" stroke-linecap="round" stroke-linejoin="round"/>
<path d="M302.012 143.731C302.425 143.731 302.76 143.396 302.76 142.983C302.76 142.57 302.425 142.235 302.012 142.235C301.599 142.235 301.264 142.57 301.264 142.983C301.264 143.396 301.599 143.731 302.012 143.731Z" stroke="#1178AC" stroke-width="2" stroke-miterlimit="10" stroke-linecap="round" stroke-linejoin="round"/>
<path d="M304.006 143.732C304.42 143.732 304.755 143.397 304.755 142.983C304.755 142.569 304.42 142.234 304.006 142.234C303.592 142.234 303.257 142.569 303.257 142.983C303.257 143.397 303.592 143.732 304.006 143.732Z" stroke="#1178AC" stroke-width="2" stroke-miterlimit="10" stroke-linecap="round" stroke-linejoin="round"/>
<path d="M306.002 143.732C306.416 143.732 306.751 143.397 306.751 142.983C306.751 142.569 306.416 142.234 306.002 142.234C305.588 142.234 305.253 142.569 305.253 142.983C305.253 143.397 305.588 143.732 306.002 143.732Z" stroke="#1178AC" stroke-width="2" stroke-miterlimit="10" stroke-linecap="round" stroke-linejoin="round"/>
<path d="M306.002 141.737C306.416 141.737 306.751 141.402 306.751 140.988C306.751 140.574 306.416 140.239 306.002 140.239C305.588 140.239 305.253 140.574 305.253 140.988C305.253 141.402 305.588 141.737 306.002 141.737Z" stroke="#1178AC" stroke-width="2" stroke-miterlimit="10" stroke-linecap="round" stroke-linejoin="round"/>
<path d="M304.006 141.737C304.42 141.737 304.755 141.402 304.755 140.988C304.755 140.574 304.42 140.239 304.006 140.239C303.592 140.239 303.257 140.574 303.257 140.988C303.257 141.402 303.592 141.737 304.006 141.737Z" stroke="#1178AC" stroke-width="2" stroke-miterlimit="10" stroke-linecap="round" stroke-linejoin="round"/>
<path d="M302.012 141.736C302.425 141.736 302.76 141.401 302.76 140.988C302.76 140.575 302.425 140.24 302.012 140.24C301.599 140.24 301.264 140.575 301.264 140.988C301.264 141.401 301.599 141.736 302.012 141.736Z" stroke="#1178AC" stroke-width="2" stroke-miterlimit="10" stroke-linecap="round" stroke-linejoin="round"/>
<path d="M306.002 149.717C306.416 149.717 306.751 149.382 306.751 148.968C306.751 148.554 306.416 148.219 306.002 148.219C305.588 148.219 305.253 148.554 305.253 148.968C305.253 149.382 305.588 149.717 306.002 149.717Z" stroke="#1178AC" stroke-width="2" stroke-miterlimit="10" stroke-linecap="round" stroke-linejoin="round"/>
<path d="M325.952 149.717C326.366 149.717 326.701 149.382 326.701 148.968C326.701 148.554 326.366 148.219 325.952 148.219C325.538 148.219 325.203 148.554 325.203 148.968C325.203 149.382 325.538 149.717 325.952 149.717Z" stroke="#1178AC" stroke-width="2" stroke-miterlimit="10" stroke-linecap="round" stroke-linejoin="round"/>
<path d="M327.947 149.717C328.361 149.717 328.696 149.382 328.696 148.968C328.696 148.554 328.361 148.219 327.947 148.219C327.533 148.219 327.198 148.554 327.198 148.968C327.198 149.382 327.533 149.717 327.947 149.717Z" stroke="#1178AC" stroke-width="2" stroke-miterlimit="10" stroke-linecap="round" stroke-linejoin="round"/>
<path d="M326.949 150.713C327.362 150.713 327.697 150.378 327.697 149.965C327.697 149.552 327.362 149.217 326.949 149.217C326.536 149.217 326.201 149.552 326.201 149.965C326.201 150.378 326.536 150.713 326.949 150.713Z" stroke="#1178AC" stroke-width="2" stroke-miterlimit="10" stroke-linecap="round" stroke-linejoin="round"/>
<path d="M330.94 156.698C331.353 156.698 331.688 156.363 331.688 155.95C331.688 155.537 331.353 155.202 330.94 155.202C330.527 155.202 330.192 155.537 330.192 155.95C330.192 156.363 330.527 156.698 330.94 156.698Z" stroke="#1178AC" stroke-width="2" stroke-miterlimit="10" stroke-linecap="round" stroke-linejoin="round"/>
<path d="M397.022 156.698C397.435 156.698 397.77 156.363 397.77 155.95C397.77 155.537 397.435 155.202 397.022 155.202C396.609 155.202 396.274 155.537 396.274 155.95C396.274 156.363 396.609 156.698 397.022 156.698Z" stroke="#1178AC" stroke-width="2" stroke-miterlimit="10" stroke-linecap="round" stroke-linejoin="round"/>
<path d="M397.022 158.693C397.435 158.693 397.77 158.358 397.77 157.945C397.77 157.532 397.435 157.197 397.022 157.197C396.609 157.197 396.274 157.532 396.274 157.945C396.274 158.358 396.609 158.693 397.022 158.693Z" stroke="#1178AC" stroke-width="2" stroke-miterlimit="10" stroke-linecap="round" stroke-linejoin="round"/>
<path d="M393.032 144.728C393.445 144.728 393.78 144.393 393.78 143.98C393.78 143.567 393.445 143.232 393.032 143.232C392.619 143.232 392.284 143.567 392.284 143.98C392.284 144.393 392.619 144.728 393.032 144.728Z" stroke="#1178AC" stroke-width="2" stroke-miterlimit="10" stroke-linecap="round" stroke-linejoin="round"/>
<path d="M395.026 138.743C395.439 138.743 395.774 138.408 395.774 137.995C395.774 137.582 395.439 137.247 395.026 137.247C394.613 137.247 394.278 137.582 394.278 137.995C394.278 138.408 394.613 138.743 395.026 138.743Z" stroke="#1178AC" stroke-width="2" stroke-miterlimit="10" stroke-linecap="round" stroke-linejoin="round"/>
<path d="M387.046 140.739C387.459 140.739 387.794 140.404 387.794 139.991C387.794 139.578 387.459 139.243 387.046 139.243C386.633 139.243 386.298 139.578 386.298 139.991C386.298 140.404 386.633 140.739 387.046 140.739Z" stroke="#1178AC" stroke-width="2" stroke-miterlimit="10" stroke-linecap="round" stroke-linejoin="round"/>
<path d="M426.947 92.86C427.36 92.86 427.695 92.5251 427.695 92.112C427.695 91.6989 427.36 91.364 426.947 91.364C426.534 91.364 426.199 91.6989 426.199 92.112C426.199 92.5251 426.534 92.86 426.947 92.86Z" stroke="#1178AC" stroke-width="2" stroke-miterlimit="10" stroke-linecap="round" stroke-linejoin="round"/>
<path d="M426.947 94.854C427.36 94.854 427.695 94.5191 427.695 94.106C427.695 93.6928 427.36 93.358 426.947 93.358C426.534 93.358 426.199 93.6928 426.199 94.106C426.199 94.5191 426.534 94.854 426.947 94.854Z" stroke="#1178AC" stroke-width="2" stroke-miterlimit="10" stroke-linecap="round" stroke-linejoin="round"/>
<path d="M426.947 90.864C427.36 90.864 427.695 90.5291 427.695 90.116C427.695 89.7029 427.36 89.368 426.947 89.368C426.534 89.368 426.199 89.7029 426.199 90.116C426.199 90.5291 426.534 90.864 426.947 90.864Z" stroke="#1178AC" stroke-width="2" stroke-miterlimit="10" stroke-linecap="round" stroke-linejoin="round"/>
<path d="M433.181 75.404C433.595 75.404 433.93 75.0686 433.93 74.655C433.93 74.2413 433.595 73.906 433.181 73.906C432.767 73.906 432.432 74.2413 432.432 74.655C432.432 75.0686 432.767 75.404 433.181 75.404Z" stroke="#1178AC" stroke-width="2" stroke-miterlimit="10" stroke-linecap="round" stroke-linejoin="round"/>
<path d="M433.181 69.42C433.595 69.42 433.93 69.0846 433.93 68.671C433.93 68.2573 433.595 67.922 433.181 67.922C432.767 67.922 432.432 68.2573 432.432 68.671C432.432 69.0846 432.767 69.42 433.181 69.42Z" stroke="#1178AC" stroke-width="2" stroke-miterlimit="10" stroke-linecap="round" stroke-linejoin="round"/>
<path d="M435.177 73.409C435.591 73.409 435.926 73.0736 435.926 72.66C435.926 72.2463 435.591 71.911 435.177 71.911C434.763 71.911 434.428 72.2463 434.428 72.66C434.428 73.0736 434.763 73.409 435.177 73.409Z" stroke="#1178AC" stroke-width="2" stroke-miterlimit="10" stroke-linecap="round" stroke-linejoin="round"/>
<path d="M437.171 65.43C437.585 65.43 437.92 65.0946 437.92 64.681C437.92 64.2673 437.585 63.932 437.171 63.932C436.757 63.932 436.422 64.2673 436.422 64.681C436.422 65.0946 436.757 65.43 437.171 65.43Z" stroke="#1178AC" stroke-width="2" stroke-miterlimit="10" stroke-linecap="round" stroke-linejoin="round"/>
<path d="M437.171 63.435C437.585 63.435 437.92 63.0996 437.92 62.686C437.92 62.2723 437.585 61.937 437.171 61.937C436.757 61.937 436.422 62.2723 436.422 62.686C436.422 63.0996 436.757 63.435 437.171 63.435Z" stroke="#1178AC" stroke-width="2" stroke-miterlimit="10" stroke-linecap="round" stroke-linejoin="round"/>
<path d="M439.166 59.443C439.579 59.443 439.914 59.1081 439.914 58.695C439.914 58.2819 439.579 57.947 439.166 57.947C438.753 57.947 438.418 58.2819 438.418 58.695C438.418 59.1081 438.753 59.443 439.166 59.443Z" stroke="#1178AC" stroke-width="2" stroke-miterlimit="10" stroke-linecap="round" stroke-linejoin="round"/>
<path d="M439.166 51.464C439.579 51.464 439.914 51.1291 439.914 50.716C439.914 50.3029 439.579 49.968 439.166 49.968C438.753 49.968 438.418 50.3029 438.418 50.716C438.418 51.1291 438.753 51.464 439.166 51.464Z" stroke="#1178AC" stroke-width="2" stroke-miterlimit="10" stroke-linecap="round" stroke-linejoin="round"/>
<path d="M438.169 58.446C438.582 58.446 438.917 58.1111 438.917 57.698C438.917 57.2849 438.582 56.95 438.169 56.95C437.756 56.95 437.421 57.2849 437.421 57.698C437.421 58.1111 437.756 58.446 438.169 58.446Z" stroke="#1178AC" stroke-width="2" stroke-miterlimit="10" stroke-linecap="round" stroke-linejoin="round"/>
<path d="M444.153 64.431C444.566 64.431 444.901 64.0961 444.901 63.683C444.901 63.2699 444.566 62.935 444.153 62.935C443.74 62.935 443.405 63.2699 443.405 63.683C443.405 64.0961 443.74 64.431 444.153 64.431Z" stroke="#1178AC" stroke-width="2" stroke-miterlimit="10" stroke-linecap="round" stroke-linejoin="round"/>
<path d="M454.443 105.305C454.824 105.305 455.133 104.996 455.133 104.615C455.133 104.234 454.824 103.925 454.443 103.925C454.062 103.925 453.753 104.234 453.753 104.615C453.753 104.996 454.062 105.305 454.443 105.305Z" stroke="#1178AC" stroke-width="2" stroke-miterlimit="10" stroke-linecap="round" stroke-linejoin="round"/>
<path d="M471.006 129.229C471.387 129.229 471.696 128.92 471.696 128.539C471.696 128.158 471.387 127.849 471.006 127.849C470.625 127.849 470.316 128.158 470.316 128.539C470.316 128.92 470.625 129.229 471.006 129.229Z" stroke="#1178AC" stroke-width="2" stroke-miterlimit="10" stroke-linecap="round" stroke-linejoin="round"/>
<path d="M469.165 131.068C469.545 131.068 469.854 130.759 469.854 130.379C469.854 129.998 469.545 129.69 469.165 129.69C468.784 129.69 468.476 129.998 468.476 130.379C468.476 130.759 468.784 131.068 469.165 131.068Z" stroke="#1178AC" stroke-width="2" stroke-miterlimit="10" stroke-linecap="round" stroke-linejoin="round"/>
<path d="M471.006 129.229C471.387 129.229 471.696 128.92 471.696 128.539C471.696 128.158 471.387 127.849 471.006 127.849C470.625 127.849 470.316 128.158 470.316 128.539C470.316 128.92 470.625 129.229 471.006 129.229Z" stroke="#1178AC" stroke-width="2" stroke-miterlimit="10" stroke-linecap="round" stroke-linejoin="round"/>
<path d="M469.855 130.379C470.236 130.379 470.545 130.07 470.545 129.689C470.545 129.308 470.236 128.999 469.855 128.999C469.474 128.999 469.165 129.308 469.165 129.689C469.165 130.07 469.474 130.379 469.855 130.379Z" stroke="#1178AC" stroke-width="2" stroke-miterlimit="10" stroke-linecap="round" stroke-linejoin="round"/>
<path d="M464.335 78.85C464.715 78.85 465.024 78.5415 465.024 78.161C465.024 77.7805 464.715 77.472 464.335 77.472C463.954 77.472 463.646 77.7805 463.646 78.161C463.646 78.5415 463.954 78.85 464.335 78.85Z" stroke="#1178AC" stroke-width="2" stroke-miterlimit="10" stroke-linecap="round" stroke-linejoin="round"/>
<path d="M464.335 75.169C464.715 75.169 465.024 74.8605 465.024 74.48C465.024 74.0995 464.715 73.791 464.335 73.791C463.954 73.791 463.646 74.0995 463.646 74.48C463.646 74.8605 463.954 75.169 464.335 75.169Z" stroke="#1178AC" stroke-width="2" stroke-miterlimit="10" stroke-linecap="round" stroke-linejoin="round"/>
<path d="M462.494 75.17C462.875 75.17 463.184 74.8611 463.184 74.48C463.184 74.0989 462.875 73.79 462.494 73.79C462.113 73.79 461.804 74.0989 461.804 74.48C461.804 74.8611 462.113 75.17 462.494 75.17Z" stroke="#1178AC" stroke-width="2" stroke-miterlimit="10" stroke-linecap="round" stroke-linejoin="round"/>
<path d="M459.963 64.818C460.343 64.818 460.652 64.5095 460.652 64.129C460.652 63.7484 460.343 63.44 459.963 63.44C459.582 63.44 459.274 63.7484 459.274 64.129C459.274 64.5095 459.582 64.818 459.963 64.818Z" stroke="#1178AC" stroke-width="2" stroke-miterlimit="10" stroke-linecap="round" stroke-linejoin="round"/>
<path d="M451.223 62.518C451.604 62.518 451.913 62.209 451.913 61.828C451.913 61.4469 451.604 61.138 451.223 61.138C450.842 61.138 450.533 61.4469 450.533 61.828C450.533 62.209 450.842 62.518 451.223 62.518Z" stroke="#1178AC" stroke-width="2" stroke-miterlimit="10" stroke-linecap="round" stroke-linejoin="round"/>
<path d="M451.913 77.7C452.293 77.7 452.602 77.3915 452.602 77.011C452.602 76.6304 452.293 76.322 451.913 76.322C451.532 76.322 451.224 76.6304 451.224 77.011C451.224 77.3915 451.532 77.7 451.913 77.7Z" stroke="#1178AC" stroke-width="2" stroke-miterlimit="10" stroke-linecap="round" stroke-linejoin="round"/>
<path d="M451.683 75.861C452.064 75.861 452.373 75.552 452.373 75.171C452.373 74.7899 452.064 74.481 451.683 74.481C451.302 74.481 450.993 74.7899 450.993 75.171C450.993 75.552 451.302 75.861 451.683 75.861Z" stroke="#1178AC" stroke-width="2" stroke-miterlimit="10" stroke-linecap="round" stroke-linejoin="round"/>
<path d="M459.505 72.64C459.886 72.64 460.195 72.3311 460.195 71.95C460.195 71.5689 459.886 71.26 459.505 71.26C459.124 71.26 458.815 71.5689 458.815 71.95C458.815 72.3311 459.124 72.64 459.505 72.64Z" stroke="#1178AC" stroke-width="2" stroke-miterlimit="10" stroke-linecap="round" stroke-linejoin="round"/>
<path d="M459.505 74.94C459.886 74.94 460.195 74.631 460.195 74.25C460.195 73.8689 459.886 73.56 459.505 73.56C459.124 73.56 458.815 73.8689 458.815 74.25C458.815 74.631 459.124 74.94 459.505 74.94Z" stroke="#1178AC" stroke-width="2" stroke-miterlimit="10" stroke-linecap="round" stroke-linejoin="round"/>
<path d="M460.885 74.02C461.266 74.02 461.575 73.711 461.575 73.33C461.575 72.9489 461.266 72.64 460.885 72.64C460.504 72.64 460.195 72.9489 460.195 73.33C460.195 73.711 460.504 74.02 460.885 74.02Z" stroke="#1178AC" stroke-width="2" stroke-miterlimit="10" stroke-linecap="round" stroke-linejoin="round"/>
<path d="M461.803 75.17C462.184 75.17 462.493 74.8611 462.493 74.48C462.493 74.0989 462.184 73.79 461.803 73.79C461.422 73.79 461.113 74.0989 461.113 74.48C461.113 74.8611 461.422 75.17 461.803 75.17Z" stroke="#1178AC" stroke-width="2" stroke-miterlimit="10" stroke-linecap="round" stroke-linejoin="round"/>
<path d="M456.284 82.762C456.665 82.762 456.974 82.453 456.974 82.072C456.974 81.6909 456.665 81.382 456.284 81.382C455.903 81.382 455.594 81.6909 455.594 82.072C455.594 82.453 455.903 82.762 456.284 82.762Z" stroke="#1178AC" stroke-width="2" stroke-miterlimit="10" stroke-linecap="round" stroke-linejoin="round"/>
<path d="M456.284 80.461C456.665 80.461 456.974 80.152 456.974 79.771C456.974 79.3899 456.665 79.081 456.284 79.081C455.903 79.081 455.594 79.3899 455.594 79.771C455.594 80.152 455.903 80.461 456.284 80.461Z" stroke="#1178AC" stroke-width="2" stroke-miterlimit="10" stroke-linecap="round" stroke-linejoin="round"/>
<path d="M454.443 80.921C454.824 80.921 455.133 80.612 455.133 80.231C455.133 79.8499 454.824 79.541 454.443 79.541C454.062 79.541 453.753 79.8499 453.753 80.231C453.753 80.612 454.062 80.921 454.443 80.921Z" stroke="#1178AC" stroke-width="2" stroke-miterlimit="10" stroke-linecap="round" stroke-linejoin="round"/>
<path d="M455.593 79.771C455.974 79.771 456.283 79.462 456.283 79.081C456.283 78.6999 455.974 78.391 455.593 78.391C455.212 78.391 454.903 78.6999 454.903 79.081C454.903 79.462 455.212 79.771 455.593 79.771Z" stroke="#1178AC" stroke-width="2" stroke-miterlimit="10" stroke-linecap="round" stroke-linejoin="round"/>
<path d="M455.363 81.151C455.744 81.151 456.053 80.842 456.053 80.461C456.053 80.0799 455.744 79.771 455.363 79.771C454.982 79.771 454.673 80.0799 454.673 80.461C454.673 80.842 454.982 81.151 455.363 81.151Z" stroke="#1178AC" stroke-width="2" stroke-miterlimit="10" stroke-linecap="round" stroke-linejoin="round"/>
<path d="M456.284 82.071C456.665 82.071 456.974 81.7621 456.974 81.381C456.974 80.9999 456.665 80.691 456.284 80.691C455.903 80.691 455.594 80.9999 455.594 81.381C455.594 81.7621 455.903 82.071 456.284 82.071Z" stroke="#1178AC" stroke-width="2" stroke-miterlimit="10" stroke-linecap="round" stroke-linejoin="round"/>
<path d="M463.184 74.481C463.565 74.481 463.874 74.172 463.874 73.791C463.874 73.4099 463.565 73.101 463.184 73.101C462.803 73.101 462.494 73.4099 462.494 73.791C462.494 74.172 462.803 74.481 463.184 74.481Z" stroke="#1178AC" stroke-width="2" stroke-miterlimit="10" stroke-linecap="round" stroke-linejoin="round"/>
<path d="M476.681 194.406C477.061 194.406 477.37 194.098 477.37 193.717C477.37 193.336 477.061 193.028 476.681 193.028C476.3 193.028 475.992 193.336 475.992 193.717C475.992 194.098 476.3 194.406 476.681 194.406Z" stroke="#1178AC" stroke-width="2" stroke-miterlimit="10" stroke-linecap="round" stroke-linejoin="round"/>
<path d="M475.453 192.566C475.834 192.566 476.143 192.257 476.143 191.876C476.143 191.495 475.834 191.186 475.453 191.186C475.072 191.186 474.763 191.495 474.763 191.876C474.763 192.257 475.072 192.566 475.453 192.566Z" stroke="#1178AC" stroke-width="2" stroke-miterlimit="10" stroke-linecap="round" stroke-linejoin="round"/>
<path d="M474.229 190.727C474.61 190.727 474.919 190.418 474.919 190.037C474.919 189.656 474.61 189.347 474.229 189.347C473.848 189.347 473.539 189.656 473.539 190.037C473.539 190.418 473.848 190.727 474.229 190.727Z" stroke="#1178AC" stroke-width="2" stroke-miterlimit="10" stroke-linecap="round" stroke-linejoin="round"/>
<path d="M511.034 319.546C511.414 319.546 511.723 319.237 511.723 318.857C511.723 318.476 511.414 318.168 511.034 318.168C510.653 318.168 510.345 318.476 510.345 318.857C510.345 319.237 510.653 319.546 511.034 319.546Z" stroke="#1178AC" stroke-width="2" stroke-miterlimit="10" stroke-linecap="round" stroke-linejoin="round"/>
<path d="M566.243 394.998C566.623 394.998 566.932 394.69 566.932 394.309C566.932 393.928 566.623 393.62 566.243 393.62C565.862 393.62 565.554 393.928 565.554 394.309C565.554 394.69 565.862 394.998 566.243 394.998Z" stroke="#1178AC" stroke-width="2" stroke-miterlimit="10" stroke-linecap="round" stroke-linejoin="round"/>
<path d="M321.298 195.018C321.711 195.018 322.046 194.683 322.046 194.27C322.046 193.857 321.711 193.522 321.298 193.522C320.885 193.522 320.55 193.857 320.55 194.27C320.55 194.683 320.885 195.018 321.298 195.018Z" stroke="#1178AC" stroke-width="2" stroke-miterlimit="10" stroke-linecap="round" stroke-linejoin="round"/>
<path d="M305.338 206.989C305.752 206.989 306.087 206.654 306.087 206.24C306.087 205.826 305.752 205.491 305.338 205.491C304.924 205.491 304.589 205.826 304.589 206.24C304.589 206.654 304.924 206.989 305.338 206.989Z" stroke="#1178AC" stroke-width="2" stroke-miterlimit="10" stroke-linecap="round" stroke-linejoin="round"/>
<path d="M179.655 404.489C180.068 404.489 180.403 404.154 180.403 403.741C180.403 403.328 180.068 402.993 179.655 402.993C179.242 402.993 178.907 403.328 178.907 403.741C178.907 404.154 179.242 404.489 179.655 404.489Z" stroke="#1178AC" stroke-width="2" stroke-miterlimit="10" stroke-linecap="round" stroke-linejoin="round"/>
<path d="M227.534 310.726C227.947 310.726 228.282 310.391 228.282 309.978C228.282 309.565 227.947 309.23 227.534 309.23C227.121 309.23 226.786 309.565 226.786 309.978C226.786 310.391 227.121 310.726 227.534 310.726Z" stroke="#1178AC" stroke-width="2" stroke-miterlimit="10" stroke-linecap="round" stroke-linejoin="round"/>
<path d="M445.649 291.359C446.063 291.359 446.398 291.024 446.398 290.61C446.398 290.196 446.063 289.861 445.649 289.861C445.235 289.861 444.9 290.196 444.9 290.61C444.9 291.024 445.235 291.359 445.649 291.359Z" stroke="#1178AC" stroke-width="2" stroke-miterlimit="10" stroke-linecap="round" stroke-linejoin="round"/>
<path d="M193.62 420.45C194.033 420.45 194.368 420.115 194.368 419.702C194.368 419.289 194.033 418.954 193.62 418.954C193.207 418.954 192.872 419.289 192.872 419.702C192.872 420.115 193.207 420.45 193.62 420.45Z" stroke="#1178AC" stroke-width="2" stroke-miterlimit="10" stroke-linecap="round" stroke-linejoin="round"/>
<path opacity="0.2" d="M454.52 428.271C470.285 428.271 483.065 415.491 483.065 399.726C483.065 383.961 470.285 371.181 454.52 371.181C438.755 371.181 425.975 383.961 425.975 399.726C425.975 415.491 438.755 428.271 454.52 428.271Z" fill="#C12838"/>
<path d="M454.52 428.271C470.285 428.271 483.065 415.491 483.065 399.726C483.065 383.961 470.285 371.181 454.52 371.181C438.755 371.181 425.975 383.961 425.975 399.726C425.975 415.491 438.755 428.271 454.52 428.271Z" stroke="#C12838" stroke-width="3"/>
</g>
<defs>
<clipPath id="clip0_1_2">
<rect width="585" height="556" fill="white"/>
</clipPath>
</defs>
</svg>
